<svg width="175" height="44" viewBox="0 0 175 44" fill="none" xmlns="http://www.w3.org/2000/svg">
<g clip-path="url(#clip0_1660_171029)">
<path d="M35.5928 14.877C33.4741 14.877 31.1091 15.6931 30.6135 18.3796C30.5607 18.6649 30.7496 18.8011 30.9321 18.8428L33.1036 19.1031C33.3046 19.0929 33.4408 18.8743 33.4797 18.6687C33.665 17.7441 34.4255 17.3078 35.275 17.3078C35.7336 17.3078 36.2487 17.4653 36.5201 17.8868C36.8314 18.3565 36.8091 18.9947 36.8091 19.5367V19.8554C35.5187 20.0036 33.8197 20.0934 32.6117 20.6372C31.2175 21.257 30.2383 22.5178 30.2383 24.3715C30.2383 26.7467 31.6936 27.9325 33.5677 27.9325C35.15 27.9325 36.0245 27.561 37.2445 26.2826C37.6494 26.8848 37.7791 27.158 38.5183 27.788C38.6 27.8346 38.6944 27.8542 38.788 27.8438C38.8815 27.8335 38.9693 27.7939 39.0389 27.7306V27.7593C39.4836 27.3535 40.2923 26.6161 40.7472 26.2252C40.9288 26.0733 40.8889 25.8231 40.7472 25.6175C40.3405 25.0413 39.9079 24.5762 39.9079 23.5044V19.9434C39.9079 18.4352 40.0357 17.0447 38.9528 16.0062C38.0977 15.166 36.6748 14.877 35.5928 14.877ZM64.774 14.877C62.6544 14.877 60.2912 15.6931 59.7946 18.3796C59.7418 18.6649 59.9299 18.8011 60.1133 18.8428L62.2848 19.1031C62.4858 19.0929 62.6229 18.8743 62.6609 18.6687C62.8471 17.7441 63.6067 17.3078 64.4562 17.3078C64.9157 17.3078 65.4298 17.4653 65.7013 17.8868C66.0116 18.3565 65.9616 18.9947 65.9616 19.5367V19.8554C64.6711 20.0036 63.0018 20.0934 61.7928 20.6372C60.3977 21.257 59.4194 22.5178 59.4194 24.3715C59.4194 26.7467 60.8757 27.9325 62.7489 27.9325C64.3293 27.9325 65.2038 27.561 66.4257 26.2826C66.8296 26.8848 66.9602 27.158 67.6995 27.788C67.8662 27.8769 68.0728 27.8677 68.2201 27.7306V27.7593C68.6648 27.3535 69.4735 26.6161 69.9284 26.2252C70.109 26.0733 70.0673 25.8231 69.9284 25.6175C69.5217 25.0413 69.0891 24.5762 69.0891 23.5044V19.9434C69.0891 18.4352 69.1863 17.0447 68.1052 16.0062C67.2493 15.166 65.856 14.877 64.774 14.877ZM48.3593 14.9928C46.9901 14.9928 45.9748 15.6838 45.4356 17.1642H45.4069V15.6301C45.3996 15.5249 45.3545 15.4259 45.2799 15.3514C45.2054 15.2768 45.1064 15.2317 45.0012 15.2243H42.9168C42.8021 15.226 42.6926 15.2723 42.6114 15.3535C42.5303 15.4346 42.484 15.5441 42.4823 15.6588V27.3832C42.4922 27.4874 42.5381 27.585 42.6122 27.6591C42.6862 27.7331 42.7838 27.779 42.8881 27.7889H45.117C45.2318 27.7877 45.3416 27.7416 45.4229 27.6603C45.5041 27.5791 45.5502 27.4693 45.5514 27.3544V21.1301C45.5514 19.7729 45.4857 17.9164 47.0855 17.9164C48.665 17.9164 48.4464 19.8239 48.4464 21.1301V27.3544C48.4464 27.5759 48.627 27.7741 48.8522 27.7889H51.081C51.1959 27.7877 51.3057 27.7416 51.3869 27.6603C51.4681 27.5791 51.5143 27.4693 51.5155 27.3544V21.1301C51.5155 20.464 51.4887 19.4941 51.7184 18.9012C51.9472 18.3083 52.5095 17.9174 53.0505 17.9174C53.6953 17.9174 54.1872 18.1425 54.353 18.9308C54.4568 19.3996 54.4105 20.6381 54.4105 21.131V27.3554C54.4105 27.5768 54.5911 27.775 54.8162 27.7898H57.0451C57.16 27.7886 57.2698 27.7425 57.351 27.6613C57.4322 27.58 57.4784 27.4702 57.4796 27.3554V19.9443C57.4796 18.6853 57.6065 17.2559 56.9006 16.2675C56.2771 15.38 55.2581 14.9937 54.3243 14.9937C53.0144 14.9937 51.7962 15.6848 51.2561 17.1651C50.6317 15.6848 49.7517 14.9928 48.3593 14.9928ZM86.255 14.9928C83.0339 14.9928 81.247 17.8247 81.247 21.4775C81.247 25.1052 83.0145 28.0196 86.255 28.0196C89.3723 28.0196 91.3501 25.1719 91.3501 21.5923C91.3501 17.8933 89.5585 14.9928 86.255 14.9928ZM98.9632 14.9928C97.4244 14.9928 96.5453 15.7626 95.9237 17.3662H95.895V15.5708C95.8551 15.3892 95.6838 15.2633 95.4892 15.2521H93.4336C93.3274 15.2498 93.2241 15.2869 93.1438 15.3564C93.0635 15.4259 93.0119 15.5228 92.9991 15.6283V27.3526C93.0012 27.4623 93.0438 27.5674 93.1187 27.6476C93.1936 27.7278 93.2955 27.7775 93.4048 27.7871H95.605C95.7197 27.7854 95.8293 27.7391 95.9104 27.658C95.9915 27.5768 96.0378 27.4673 96.0395 27.3526V21.0421C96.0395 20.2509 96.1062 19.5293 96.4156 18.8132C96.6657 18.2453 97.1484 17.8868 97.6894 17.8868C99.2253 17.8868 99.079 19.759 99.079 21.0421V27.411C99.0932 27.5107 99.1413 27.6025 99.2152 27.671C99.289 27.7394 99.3842 27.7804 99.4847 27.7871H101.714C101.932 27.7871 102.122 27.6203 102.148 27.411V20.0286C102.148 18.8938 102.151 17.3171 101.569 16.3805C100.946 15.3698 99.959 14.9928 98.9632 14.9928ZM72.2138 15.1956C71.9877 15.1956 71.8089 15.3753 71.808 15.6301V17.3087C71.8089 17.5598 71.9822 17.7413 72.2138 17.7432H76.0351L71.6635 24.1992C71.3967 24.6151 71.3745 25.0867 71.3745 25.3572V27.0654C71.3745 27.3118 71.6422 27.5796 71.8951 27.4415C74.3861 26.0816 77.3719 26.202 79.6248 27.4128C79.8981 27.562 80.1751 27.2822 80.1751 27.0367V25.2414C80.1688 25.109 80.128 24.9806 80.0569 24.8688C79.9857 24.757 79.8866 24.6658 79.7694 24.604C78.491 23.8685 77.0069 23.6433 75.6006 23.6776L79.3933 18.1193C79.7444 17.62 79.9408 17.3189 79.9435 17.0771V15.6301C79.9435 15.3809 79.7731 15.1956 79.5378 15.1956H72.2138ZM86.255 17.3958C86.9609 17.3958 87.4815 17.7108 87.7317 18.5251C88.0207 19.4635 88.0503 20.6354 88.0503 21.6229C88.0503 23.1273 87.9799 25.6175 86.255 25.6175C84.5106 25.6175 84.518 22.5345 84.518 21.1013C84.518 19.6719 84.6134 17.3958 86.255 17.3958ZM36.7795 21.6803V22.1722C36.7795 23.0625 36.8119 23.8119 36.3737 24.604C36.0199 25.2478 35.464 25.6462 34.8396 25.6462C33.9874 25.6462 33.4788 24.9551 33.4788 23.9676C33.4797 22.0203 35.1713 21.6803 36.7795 21.6803ZM65.9607 21.6803V22.1722C65.9607 23.0625 65.9931 23.8119 65.5549 24.604C65.201 25.2478 64.648 25.6462 64.0208 25.6462C63.1676 25.6462 62.6599 24.9551 62.6599 23.9676C62.6609 22.0203 64.3506 21.6803 65.9607 21.6803Z" fill="white"/>
<path d="M80.4069 28.1641V29.8427H81.5362V28.1641H80.4069ZM47.6647 28.4531V40.409H48.7069V39.3381C48.9293 39.7624 49.1822 40.0802 49.4888 40.2932C49.7945 40.5063 50.1456 40.6119 50.531 40.6119C51.2962 40.6119 51.9567 40.221 52.5283 39.4252C53.0998 38.6294 53.3972 37.4761 53.3972 36.0087C53.3972 35.048 53.274 34.2523 53.0211 33.5769C52.7682 32.9035 52.4301 32.4023 52.0076 32.0716C51.5852 31.7408 51.1053 31.5509 50.5893 31.5509C50.2307 31.5471 49.8786 31.6475 49.5759 31.84C49.2748 32.0326 49.0312 32.3467 48.794 32.7376V28.4531H47.6647ZM58.3765 31.2619C57.591 31.2619 56.9675 31.4944 56.5238 31.9567C56.08 32.418 55.8577 33.0137 55.8577 33.752C55.8577 34.1809 55.954 34.5432 56.118 34.8813C56.282 35.2194 56.5182 35.4908 56.8128 35.6919C57.1092 35.8929 57.7003 36.1569 58.5785 36.4441C59.1862 36.6396 59.5493 36.8063 59.7078 36.936C59.9375 37.1259 60.0551 37.3751 60.0551 37.7179C60.0551 38.1144 59.918 38.4451 59.6494 38.7017C59.3817 38.9602 59.0093 39.0778 58.5201 39.0778C58.031 39.0778 57.628 38.9407 57.3334 38.6433C57.0388 38.346 56.8795 37.8939 56.8128 37.2825L55.6835 37.5141C55.9383 39.3715 56.8647 40.2942 58.4627 40.2932C59.315 40.2932 59.9671 40.0514 60.46 39.541C60.9528 39.0306 61.2122 38.3413 61.2122 37.5141C61.2122 37.0676 61.1335 36.6803 60.9806 36.3561C60.8278 36.0319 60.6175 35.7919 60.3433 35.6039C60.0681 35.4167 59.4548 35.1666 58.5192 34.8516C57.8392 34.6136 57.4409 34.4394 57.3038 34.331C57.0731 34.1476 56.9564 33.8975 56.9564 33.5788C56.9564 33.2527 57.0638 32.9766 57.3038 32.7682C57.5437 32.5598 57.9133 32.4495 58.4043 32.4495C59.2677 32.4495 59.7504 32.9238 59.8513 33.8678L60.9519 33.6937C60.8759 33.0961 60.7453 32.6246 60.5461 32.3041C60.347 31.9836 60.0524 31.713 59.6772 31.5222C59.3029 31.3323 58.8722 31.2619 58.3765 31.2619ZM65.2957 31.2619C64.3906 31.2619 63.6273 31.6343 63.0372 32.4199C62.4471 33.2055 62.1682 34.3431 62.1682 35.8364C62.1682 37.2751 62.4526 38.4025 63.0372 39.1658C63.6217 39.9282 64.3795 40.2951 65.3244 40.2951C66.0757 40.2951 66.6983 40.07 67.2059 39.6003C67.7145 39.1306 68.0832 38.4395 68.2768 37.5159L67.1188 37.3131C66.7863 38.496 66.173 39.0769 65.3235 39.0787C64.7825 39.0787 64.3406 38.849 63.9626 38.3552C63.5847 37.8605 63.3707 37.1268 63.3253 36.1551H68.3046V35.7493C68.3046 34.2884 68.0137 33.1916 67.4357 32.4199C66.8594 31.6482 66.1582 31.2619 65.2957 31.2619ZM72.1565 31.2619C71.886 31.2619 71.6498 31.3536 71.433 31.5509C71.2162 31.7482 70.9698 32.1577 70.7095 32.7663V31.4342H69.696V40.0904H70.8253V35.5752C70.8253 34.9452 70.8846 34.3394 71.0282 33.7798C71.1097 33.4593 71.2635 33.2064 71.4627 33.0276C71.6618 32.8488 71.8888 32.7673 72.1287 32.7673C72.3946 32.7673 72.6586 32.8738 72.9393 33.086L73.3154 31.7251C72.9208 31.4101 72.5345 31.2619 72.1565 31.2619ZM85.994 31.2619C85.1 31.2619 84.3635 31.638 83.7938 32.3912C83.2259 33.1434 82.9248 34.2736 82.9248 35.778C82.9248 37.2704 83.2287 38.4016 83.7938 39.1649C84.358 39.9273 85.0639 40.2942 85.9356 40.2942C86.6554 40.2942 87.2742 40.0264 87.7884 39.4836C88.3025 38.9407 88.6156 38.1422 88.7435 37.1102L87.6429 36.936C87.5614 37.6743 87.3687 38.2052 87.0639 38.5572C86.7591 38.9074 86.3923 39.0778 85.9634 39.0778C85.4168 39.0778 84.9518 38.8231 84.6025 38.2959C84.2533 37.7688 84.0819 36.9258 84.0819 35.7484C84.0819 34.6071 84.2662 33.7835 84.6322 33.2583C84.9981 32.733 85.4641 32.4477 86.0217 32.4477C86.3941 32.4477 86.7119 32.5922 86.9768 32.8821C87.2436 33.1712 87.4206 33.6307 87.5271 34.2143L88.6277 33.9827C88.4952 33.0711 88.2025 32.3828 87.73 31.927C87.2575 31.4703 86.6841 31.2619 85.994 31.2619ZM92.4499 31.2619C91.5449 31.2619 90.7815 31.6343 90.1914 32.4199C89.6013 33.2055 89.3225 34.3431 89.3225 35.8364C89.3225 37.2751 89.6069 38.4025 90.1914 39.1658C90.7769 39.9282 91.5337 40.2951 92.4786 40.2951C93.2281 40.2951 93.8516 40.07 94.3601 39.6003C94.8678 39.1306 95.2365 38.4395 95.431 37.5159L94.2731 37.3131C93.9405 38.496 93.3541 39.0769 92.5074 39.0787C91.9664 39.0787 91.4958 38.849 91.1178 38.3552C90.7398 37.8605 90.5268 37.1268 90.4804 36.1551H95.4598V35.7493C95.4598 34.2884 95.1689 33.1916 94.5908 32.4199C94.0164 31.6482 93.3133 31.2619 92.4499 31.2619ZM99.1375 31.2619C98.3501 31.2619 97.7285 31.4944 97.2847 31.9567C96.8401 32.418 96.6187 33.0137 96.6187 33.752C96.6187 34.1809 96.6863 34.5432 96.8503 34.8813C97.0133 35.2185 97.2486 35.4908 97.5451 35.6919C97.8397 35.8929 98.4335 36.1569 99.3107 36.4441C99.9166 36.6396 100.31 36.8063 100.469 36.936C100.698 37.1259 100.816 37.3751 100.816 37.7179C100.816 38.1144 100.679 38.4451 100.41 38.7017C100.144 38.9602 99.7702 39.0778 99.2811 39.0778C98.791 39.0778 98.389 38.9407 98.0944 38.6433C97.7998 38.346 97.6099 37.8939 97.5441 37.2825L96.4149 37.5141C96.6696 39.3715 97.5942 40.2942 99.194 40.2932C100.047 40.2932 100.727 40.0514 101.221 39.541C101.715 39.0306 101.973 38.3413 101.973 37.5141C101.973 37.0676 101.894 36.6803 101.742 36.3561C101.589 36.0319 101.351 35.7919 101.076 35.6039C100.801 35.4167 100.216 35.1666 99.2802 34.8516C98.6002 34.6136 98.1731 34.4394 98.0351 34.331C97.8044 34.1476 97.6877 33.8975 97.6877 33.5788C97.6877 33.2527 97.8239 32.9766 98.0638 32.7682C98.3038 32.5598 98.6752 32.4495 99.1644 32.4495C100.028 32.4495 100.51 32.9238 100.611 33.8678L101.712 33.6937C101.635 33.0961 101.506 32.6246 101.306 32.3041C101.094 31.9687 100.793 31.6983 100.437 31.5222C100.066 31.3323 99.6322 31.2619 99.1375 31.2619ZM73.3145 31.4351L75.8334 40.0913H76.9043L79.4231 31.4351H78.2651L76.7885 36.7331C76.6097 37.3733 76.4522 37.9263 76.354 38.383C76.2308 37.8077 76.1131 37.2037 75.9482 36.6173L74.5012 31.4351H73.3145ZM80.4069 31.4351V40.0913H81.5362V31.4351H80.4069ZM43.294 31.5509C42.3982 31.5509 41.6775 31.953 41.0939 32.7376C40.5093 33.5232 40.1962 34.6608 40.1962 36.1541C40.1962 37.5928 40.4852 38.6915 41.0652 39.4539C41.6451 40.2163 42.4168 40.6119 43.3524 40.6119C44.0954 40.6119 44.7022 40.3581 45.2052 39.8884C45.7073 39.4187 46.0547 38.7276 46.2474 37.804L45.1181 37.6299C44.7892 38.8129 44.1917 39.3937 43.3524 39.3956C42.816 39.3956 42.3658 39.1658 41.9916 38.6721C41.6173 38.1774 41.3996 37.4437 41.3542 36.4719H46.2752L46.3039 36.0661C46.3039 34.6052 46.0074 33.4797 45.4349 32.708C44.8624 31.9363 44.1472 31.5509 43.294 31.5509ZM30.585 31.7538L32.6119 40.41H33.7986L35.1307 33.7511L35.3623 35.2278L36.4332 40.41H37.5912L39.6469 31.7538H38.576L37.4467 36.7618L37.0706 38.4405L36.7232 36.7618L35.7394 31.7538H34.5814L33.5392 36.8202L33.1918 38.6156L32.7861 36.7628L31.7439 31.7547L30.585 31.7538ZM102.64 31.8409V32.2466H103.741V35.1416H104.175V32.2466H105.276V31.8409H102.64ZM105.709 31.8409V35.1407H106.115V32.3328L107.07 35.1407H107.476L108.431 32.3902V35.1407H108.865V31.8409H108.258L107.476 34.1569C107.397 34.3885 107.341 34.5561 107.302 34.6775L107.128 34.1856L106.346 31.8409H105.709ZM65.2661 32.4486C65.8284 32.4486 66.2916 32.721 66.6556 33.2592C66.9058 33.6279 67.0679 34.1893 67.1188 34.9378H63.3846C63.4198 34.1782 63.6347 33.5918 63.9923 33.1425C64.3499 32.6932 64.7612 32.4486 65.2661 32.4486ZM92.4212 32.4486C92.9817 32.4486 93.4467 32.721 93.8108 33.2592C94.0609 33.6279 94.223 34.1893 94.274 34.9378H90.5397C90.5749 34.1782 90.7899 33.5918 91.1474 33.1425C91.5041 32.695 91.9154 32.4486 92.4212 32.4486ZM43.294 32.7673C43.8499 32.7673 44.2964 33.0396 44.6549 33.5779C44.9023 33.9466 45.0672 34.508 45.1181 35.2565H41.4413C41.4765 34.4968 41.6645 33.8817 42.0203 33.4324C42.3732 32.984 42.7929 32.7673 43.294 32.7673ZM50.4735 32.7673C50.9756 32.7673 51.4027 33.0461 51.7473 33.5779C52.0919 34.1105 52.2392 34.9313 52.2392 36.068C52.2392 37.175 52.0762 38.0004 51.7186 38.5581C51.361 39.1158 50.9349 39.3974 50.4735 39.3974C50.1345 39.3974 49.826 39.2835 49.5472 39.05C49.2674 38.8166 49.0627 38.4822 48.9098 38.0366C48.7569 37.591 48.6782 36.9054 48.6782 36.0096C48.6782 34.9545 48.8663 34.1643 49.2285 33.6066C49.5907 33.0489 50.0122 32.7673 50.4735 32.7673Z" fill="white"/>
<path d="M14.358 23.5906L10.0448 25.4434L14.0394 27.1516L18.6713 25.4434L14.358 23.5906ZM7.87333 25.9066L7.72882 34.2441L14.0394 37.0232V28.3671L7.87333 25.9066ZM20.8427 25.9066L15.1399 28.078V36.2413L20.8427 33.9254V25.9066ZM27.6461 -0.0322266L23.3032 1.82055L27.3274 3.5288L31.9594 1.82055L27.6461 -0.0322266ZM21.6246 2.42918V10.7667L27.0088 12.3304L27.1829 4.74515L21.6246 2.42918ZM33.6676 2.89237L28.5725 5.06382V13.2568L33.6676 10.9408V2.89237ZM7.2508 11.7023L2.93755 13.5551L6.93212 15.2633L11.5641 13.5551L7.2508 11.7023ZM0.766098 14.0183L0.621582 22.3557L6.93212 25.1349V16.4788L0.766098 14.0183ZM13.7355 14.0183L8.03267 16.1897V24.353L13.7355 22.0371V14.0183ZM21.1466 11.3947L16.8333 13.2475L20.8279 14.9558L25.4598 13.2475L21.1466 11.3947ZM14.6619 13.7107L14.5174 22.0482L20.8279 24.8273V16.1721L14.6619 13.7107ZM27.6313 13.7107L21.9285 15.8822V24.0455L27.6313 21.7295V13.7107ZM41.2186 -0.0322266L36.9053 1.82055L40.8999 3.5288L45.5318 1.82055L41.2186 -0.0322266ZM34.7339 2.28374L34.5894 10.6212L40.8999 13.4004V4.74515L34.7339 2.28374ZM47.7033 2.28374L42.0005 4.45519V12.6185L47.7033 10.3025V2.28374Z" fill="white"/>
</g>
<path d="M169.725 28.2227V38.6875H168.458V28.2227H169.725ZM174.229 31.3158L171.013 34.7564L169.214 36.6232L169.112 35.281L170.4 33.7412L172.689 31.3158H174.229ZM173.077 38.6875L170.447 35.172L171.101 34.0478L174.563 38.6875H173.077Z" fill="white"/>
<path d="M164.99 32.4742V38.6877H163.73V31.3159H164.956L164.99 32.4742ZM167.293 31.2751L167.286 32.4469C167.182 32.4242 167.082 32.4106 166.987 32.406C166.896 32.397 166.791 32.3924 166.673 32.3924C166.383 32.3924 166.126 32.4378 165.903 32.5287C165.681 32.6195 165.492 32.7467 165.338 32.9102C165.183 33.0737 165.061 33.269 164.97 33.4961C164.884 33.7187 164.827 33.964 164.8 34.2319L164.445 34.4363C164.445 33.9912 164.489 33.5733 164.575 33.1827C164.666 32.7921 164.804 32.4469 164.99 32.1471C165.177 31.8428 165.413 31.6066 165.699 31.4386C165.99 31.266 166.335 31.1797 166.735 31.1797C166.825 31.1797 166.93 31.191 167.048 31.2138C167.166 31.2319 167.248 31.2524 167.293 31.2751Z" fill="white"/>
<path d="M155.438 35.0836V34.9269C155.438 34.3955 155.515 33.9026 155.67 33.4484C155.824 32.9897 156.047 32.5923 156.337 32.2562C156.628 31.9155 156.98 31.6521 157.393 31.4658C157.807 31.2751 158.27 31.1797 158.783 31.1797C159.301 31.1797 159.767 31.2751 160.18 31.4658C160.598 31.6521 160.952 31.9155 161.243 32.2562C161.538 32.5923 161.763 32.9897 161.917 33.4484C162.072 33.9026 162.149 34.3955 162.149 34.9269V35.0836C162.149 35.615 162.072 36.1078 161.917 36.562C161.763 37.0162 161.538 37.4136 161.243 37.7543C160.952 38.0904 160.6 38.3538 160.187 38.5446C159.778 38.7308 159.315 38.8239 158.797 38.8239C158.279 38.8239 157.813 38.7308 157.4 38.5446C156.987 38.3538 156.633 38.0904 156.337 37.7543C156.047 37.4136 155.824 37.0162 155.67 36.562C155.515 36.1078 155.438 35.615 155.438 35.0836ZM156.698 34.9269V35.0836C156.698 35.4515 156.742 35.7989 156.828 36.126C156.914 36.4485 157.044 36.7346 157.216 36.9844C157.393 37.2342 157.614 37.4318 157.877 37.5772C158.141 37.718 158.447 37.7884 158.797 37.7884C159.142 37.7884 159.444 37.718 159.703 37.5772C159.966 37.4318 160.184 37.2342 160.357 36.9844C160.53 36.7346 160.659 36.4485 160.745 36.126C160.836 35.7989 160.882 35.4515 160.882 35.0836V34.9269C160.882 34.5635 160.836 34.2206 160.745 33.8981C160.659 33.5711 160.527 33.2827 160.35 33.0328C160.178 32.7785 159.96 32.5786 159.696 32.4333C159.437 32.2879 159.133 32.2153 158.783 32.2153C158.438 32.2153 158.134 32.2879 157.87 32.4333C157.611 32.5786 157.393 32.7785 157.216 33.0328C157.044 33.2827 156.914 33.5711 156.828 33.8981C156.742 34.2206 156.698 34.5635 156.698 34.9269Z" fill="white"/>
<path d="M147.147 37.3791L149.041 31.3154H149.872L149.708 32.5213L147.78 38.6872H146.97L147.147 37.3791ZM145.873 31.3154L147.487 37.4472L147.603 38.6872H146.752L144.612 31.3154H145.873ZM151.684 37.3995L153.224 31.3154H154.478L152.338 38.6872H151.493L151.684 37.3995ZM150.056 31.3154L151.909 37.2769L152.12 38.6872H151.316L149.334 32.5077L149.17 31.3154H150.056Z" fill="white"/>
<path d="M143.802 31.3153V32.2827H139.816V31.3153H143.802ZM141.165 29.5234H142.425V36.8611C142.425 37.1109 142.464 37.2994 142.541 37.4266C142.618 37.5538 142.718 37.6378 142.841 37.6787C142.964 37.7196 143.095 37.74 143.236 37.74C143.341 37.74 143.45 37.7309 143.563 37.7127C143.681 37.69 143.77 37.6719 143.829 37.6582L143.836 38.687C143.736 38.7188 143.604 38.7483 143.44 38.7756C143.281 38.8074 143.088 38.8233 142.861 38.8233C142.552 38.8233 142.269 38.762 142.01 38.6393C141.751 38.5167 141.544 38.3123 141.39 38.0261C141.24 37.7354 141.165 37.3448 141.165 36.8543V29.5234Z" fill="white"/>
<path d="M136.375 38.8239C135.862 38.8239 135.397 38.7376 134.979 38.565C134.565 38.3879 134.209 38.1404 133.909 37.8224C133.614 37.5045 133.387 37.1275 133.228 36.6915C133.069 36.2554 132.989 35.7785 132.989 35.2607V34.9746C132.989 34.375 133.078 33.8413 133.255 33.3735C133.432 32.9011 133.673 32.5014 133.977 32.1744C134.281 31.8474 134.627 31.5998 135.013 31.4318C135.399 31.2637 135.799 31.1797 136.212 31.1797C136.739 31.1797 137.193 31.2705 137.574 31.4522C137.961 31.6339 138.276 31.8882 138.521 32.2153C138.767 32.5378 138.948 32.9193 139.067 33.3599C139.185 33.7959 139.244 34.2728 139.244 34.7906V35.3561H133.739V34.3273H137.983V34.2319C137.965 33.9049 137.897 33.587 137.779 33.2781C137.665 32.9693 137.484 32.7149 137.234 32.515C136.984 32.3152 136.643 32.2153 136.212 32.2153C135.926 32.2153 135.662 32.2766 135.422 32.3992C135.181 32.5173 134.974 32.6945 134.802 32.9306C134.629 33.1668 134.495 33.4553 134.4 33.7959C134.304 34.1366 134.256 34.5294 134.256 34.9746V35.2607C134.256 35.6104 134.304 35.9397 134.4 36.2486C134.499 36.5529 134.643 36.8209 134.829 37.0525C135.02 37.2842 135.249 37.4659 135.517 37.5976C135.789 37.7293 136.098 37.7952 136.443 37.7952C136.889 37.7952 137.266 37.7043 137.574 37.5226C137.883 37.341 138.154 37.098 138.385 36.7937L139.148 37.4C138.989 37.6407 138.787 37.8701 138.542 38.0881C138.297 38.3062 137.995 38.4833 137.636 38.6196C137.281 38.7558 136.861 38.8239 136.375 38.8239Z" fill="white"/>
<path d="M131.177 28.7676V38.6874H129.855L124.861 31.0363V38.6874H123.546V28.7676H124.861L129.876 36.4391V28.7676H131.177Z" fill="white"/>
<path d="M165.672 18.521V24.7346H164.411V17.3628H165.637L165.672 18.521ZM167.974 17.3219L167.968 18.4938C167.863 18.4711 167.763 18.4575 167.668 18.4529C167.577 18.4438 167.472 18.4393 167.354 18.4393C167.064 18.4393 166.807 18.4847 166.585 18.5755C166.362 18.6664 166.173 18.7936 166.019 18.9571C165.865 19.1206 165.742 19.3159 165.651 19.543C165.565 19.7656 165.508 20.0108 165.481 20.2788L165.127 20.4832C165.127 20.0381 165.17 19.6202 165.256 19.2296C165.347 18.839 165.485 18.4938 165.672 18.194C165.858 17.8897 166.094 17.6535 166.38 17.4855C166.671 17.3129 167.016 17.2266 167.416 17.2266C167.507 17.2266 167.611 17.2379 167.729 17.2606C167.847 17.2788 167.929 17.2992 167.974 17.3219Z" fill="white"/>
<path d="M160.071 24.8708C159.558 24.8708 159.092 24.7845 158.674 24.6119C158.261 24.4348 157.905 24.1872 157.605 23.8693C157.31 23.5514 157.082 23.1744 156.924 22.7383C156.765 22.3023 156.685 21.8254 156.685 21.3076V21.0214C156.685 20.4219 156.774 19.8882 156.951 19.4204C157.128 18.948 157.369 18.5483 157.673 18.2213C157.977 17.8942 158.322 17.6467 158.709 17.4786C159.095 17.3106 159.494 17.2266 159.908 17.2266C160.435 17.2266 160.889 17.3174 161.27 17.4991C161.656 17.6808 161.972 17.9351 162.217 18.2621C162.463 18.5846 162.644 18.9662 162.762 19.4067C162.88 19.8428 162.939 20.3197 162.939 20.8375V21.403H157.434V20.3742H161.679V20.2788C161.661 19.9518 161.593 19.6338 161.475 19.325C161.361 19.0161 161.179 18.7618 160.93 18.5619C160.68 18.3621 160.339 18.2621 159.908 18.2621C159.621 18.2621 159.358 18.3235 159.117 18.4461C158.877 18.5642 158.67 18.7413 158.497 18.9775C158.325 19.2137 158.191 19.5021 158.095 19.8428C158 20.1834 157.952 20.5763 157.952 21.0214V21.3076C157.952 21.6573 158 21.9866 158.095 22.2955C158.195 22.5998 158.338 22.8678 158.525 23.0994C158.715 23.3311 158.945 23.5127 159.213 23.6445C159.485 23.7762 159.794 23.842 160.139 23.842C160.584 23.842 160.961 23.7512 161.27 23.5695C161.579 23.3878 161.849 23.1448 162.081 22.8405L162.844 23.4469C162.685 23.6876 162.483 23.917 162.238 24.135C161.992 24.353 161.69 24.5302 161.332 24.6664C160.977 24.8027 160.557 24.8708 160.071 24.8708Z" fill="white"/>
<path d="M150.56 18.9366V24.7346H149.3V17.3628H150.492L150.56 18.9366ZM150.26 20.7694L149.736 20.7489C149.74 20.2447 149.815 19.7792 149.961 19.3522C150.106 18.9207 150.31 18.546 150.574 18.2281C150.837 17.9101 151.151 17.6649 151.514 17.4923C151.882 17.3151 152.288 17.2266 152.734 17.2266C153.097 17.2266 153.424 17.2765 153.715 17.3764C154.005 17.4718 154.253 17.6263 154.457 17.8397C154.666 18.0532 154.825 18.3303 154.934 18.6709C155.043 19.007 155.098 19.4181 155.098 19.9041V24.7346H153.83V19.8905C153.83 19.5044 153.774 19.1955 153.66 18.9639C153.547 18.7277 153.381 18.5574 153.163 18.4529C152.945 18.3439 152.677 18.2894 152.359 18.2894C152.045 18.2894 151.759 18.3553 151.5 18.487C151.246 18.6187 151.026 18.8004 150.84 19.032C150.658 19.2637 150.515 19.5294 150.41 19.8292C150.31 20.1244 150.26 20.4378 150.26 20.7694Z" fill="white"/>
<path d="M147.822 17.3631V18.3306H143.836V17.3631H147.822ZM145.185 15.5713H146.445V22.909C146.445 23.1588 146.484 23.3473 146.561 23.4744C146.638 23.6016 146.738 23.6856 146.861 23.7265C146.984 23.7674 147.115 23.7878 147.256 23.7878C147.361 23.7878 147.47 23.7788 147.583 23.7606C147.701 23.7379 147.79 23.7197 147.849 23.7061L147.856 24.7349C147.756 24.7667 147.624 24.7962 147.46 24.8234C147.302 24.8552 147.108 24.8711 146.881 24.8711C146.573 24.8711 146.289 24.8098 146.03 24.6872C145.771 24.5645 145.564 24.3601 145.41 24.074C145.26 23.7833 145.185 23.3927 145.185 22.9021V15.5713Z" fill="white"/>
<path d="M140.926 18.521V24.7346H139.666V17.3628H140.892L140.926 18.521ZM143.229 17.3219L143.222 18.4938C143.118 18.4711 143.018 18.4575 142.923 18.4529C142.832 18.4438 142.727 18.4393 142.609 18.4393C142.319 18.4393 142.062 18.4847 141.839 18.5755C141.617 18.6664 141.428 18.7936 141.274 18.9571C141.119 19.1206 140.997 19.3159 140.906 19.543C140.82 19.7656 140.763 20.0108 140.736 20.2788L140.381 20.4832C140.381 20.0381 140.425 19.6202 140.511 19.2296C140.602 18.839 140.74 18.4938 140.926 18.194C141.113 17.8897 141.349 17.6535 141.635 17.4855C141.926 17.3129 142.271 17.2266 142.671 17.2266C142.761 17.2266 142.866 17.2379 142.984 17.2606C143.102 17.2788 143.184 17.2992 143.229 17.3219Z" fill="white"/>
<path d="M136.423 23.4741V19.6793C136.423 19.3886 136.364 19.1365 136.246 18.923C136.132 18.705 135.96 18.5369 135.728 18.4188C135.497 18.3008 135.21 18.2417 134.87 18.2417C134.552 18.2417 134.272 18.2962 134.032 18.4052C133.796 18.5142 133.609 18.6573 133.473 18.8344C133.341 19.0116 133.276 19.2024 133.276 19.4067H132.015C132.015 19.1433 132.083 18.8821 132.219 18.6232C132.356 18.3643 132.551 18.1304 132.805 17.9215C133.064 17.708 133.373 17.54 133.732 17.4173C134.095 17.2902 134.5 17.2266 134.945 17.2266C135.481 17.2266 135.953 17.3174 136.362 17.4991C136.775 17.6808 137.098 17.9556 137.329 18.3235C137.565 18.6868 137.684 19.1433 137.684 19.6929V23.1267C137.684 23.3719 137.704 23.6331 137.745 23.9102C137.79 24.1872 137.856 24.4257 137.942 24.6255V24.7346H136.628C136.564 24.5892 136.514 24.3962 136.478 24.1554C136.441 23.9102 136.423 23.6831 136.423 23.4741ZM136.641 20.2652L136.655 21.1509H135.381C135.022 21.1509 134.702 21.1804 134.42 21.2395C134.139 21.294 133.902 21.378 133.712 21.4915C133.521 21.6051 133.375 21.7482 133.276 21.9208C133.176 22.0888 133.126 22.2864 133.126 22.5135C133.126 22.7451 133.178 22.9563 133.282 23.1471C133.387 23.3379 133.543 23.49 133.752 23.6036C133.966 23.7126 134.227 23.7671 134.536 23.7671C134.922 23.7671 135.263 23.6853 135.558 23.5218C135.853 23.3583 136.087 23.1585 136.26 22.9223C136.437 22.6861 136.532 22.4567 136.546 22.2342L137.084 22.8405C137.052 23.0313 136.966 23.2425 136.825 23.4741C136.684 23.7058 136.496 23.9283 136.26 24.1418C136.028 24.3508 135.751 24.5256 135.428 24.6664C135.111 24.8027 134.752 24.8708 134.352 24.8708C133.852 24.8708 133.414 24.7732 133.037 24.5779C132.665 24.3825 132.374 24.1214 132.165 23.7944C131.961 23.4628 131.858 23.0926 131.858 22.6838C131.858 22.2887 131.936 21.9412 132.09 21.6414C132.244 21.3371 132.467 21.085 132.758 20.8852C133.048 20.6808 133.398 20.5264 133.807 20.4219C134.216 20.3174 134.672 20.2652 135.176 20.2652H136.641Z" fill="white"/>
<path d="M127.205 20.844H124.555V19.7744H127.205C127.718 19.7744 128.134 19.6926 128.452 19.5291C128.77 19.3656 129.001 19.1385 129.147 18.8478C129.297 18.5571 129.372 18.2255 129.372 17.8531C129.372 17.5124 129.297 17.1922 129.147 16.8924C129.001 16.5927 128.77 16.3519 128.452 16.1703C128.134 15.984 127.718 15.8909 127.205 15.8909H124.861V24.7343H123.546V14.8145H127.205C127.954 14.8145 128.588 14.9439 129.106 15.2028C129.624 15.4617 130.017 15.8205 130.285 16.2793C130.552 16.7335 130.686 17.2535 130.686 17.8395C130.686 18.4753 130.552 19.0181 130.285 19.4678C130.017 19.9174 129.624 20.2604 129.106 20.4965C128.588 20.7282 127.954 20.844 127.205 20.844Z" fill="white"/>
<rect x="114.784" y="6.97559" width="0.634234" height="37.0234" fill="white"/>
<defs>
<clipPath id="clip0_1660_171029">
<rect width="108.243" height="40.591" fill="white" transform="translate(0.621582 -0.000976562)"/>
</clipPath>
</defs>
</svg>
