<svg width="57" height="57" viewBox="0 0 57 57" fill="none" xmlns="http://www.w3.org/2000/svg">
<path d="M46.4336 38.7246H11.4336C10.4711 38.7246 9.68359 39.5121 9.68359 40.4746V43.9746C9.68359 44.9371 10.4711 45.7246 11.4336 45.7246H46.4336C47.3961 45.7246 48.1836 44.9371 48.1836 43.9746V40.4746C48.1836 39.5121 47.3961 38.7246 46.4336 38.7246ZM11.4336 43.9746V40.4746H46.4336V43.9746H11.4336Z" fill="#E6B400"/>
<path d="M12.3086 35.2207H27.1836C28.6273 35.2207 29.8086 34.0395 29.8086 32.5957V22.0957C29.8086 20.652 28.6273 19.4707 27.1836 19.4707H12.3086C10.8648 19.4707 9.68359 20.652 9.68359 22.0957V32.5957C9.68359 34.0395 10.8648 35.2207 12.3086 35.2207ZM28.0586 32.3857L21.2248 27.3457L28.0586 22.3057V32.3857ZM26.5798 33.4707H12.9036L19.7373 28.4307L26.5711 33.4707H26.5798ZM19.7461 26.2607L12.9123 21.2207H26.5886L19.7548 26.2607H19.7461ZM18.2673 27.3457L11.4336 32.3857V22.3057L18.2673 27.3457Z" fill="#E6B400"/>
<path d="M47.3086 19.4707H33.3086C32.8273 19.4707 32.4336 19.8645 32.4336 20.3457C32.4336 20.827 32.8273 21.2207 33.3086 21.2207H47.3086C47.7898 21.2207 48.1836 20.827 48.1836 20.3457C48.1836 19.8645 47.7898 19.4707 47.3086 19.4707Z" fill="white"/>
<path d="M47.3086 26.4746H33.3086C32.8273 26.4746 32.4336 26.8684 32.4336 27.3496C32.4336 27.8309 32.8273 28.2246 33.3086 28.2246H47.3086C47.7898 28.2246 48.1836 27.8309 48.1836 27.3496C48.1836 26.8684 47.7898 26.4746 47.3086 26.4746Z" fill="white"/>
<path d="M47.3086 33.4746H33.3086C32.8273 33.4746 32.4336 33.8684 32.4336 34.3496C32.4336 34.8309 32.8273 35.2246 33.3086 35.2246H47.3086C47.7898 35.2246 48.1836 34.8309 48.1836 34.3496C48.1836 33.8684 47.7898 33.4746 47.3086 33.4746Z" fill="white"/>
<path d="M50.8086 3.72461H7.05859C4.64359 3.72461 2.68359 5.68461 2.68359 8.09961V48.3496C2.68359 50.7646 4.64359 52.7246 7.05859 52.7246H50.8086C53.2236 52.7246 55.1836 50.7646 55.1836 48.3496V8.09961C55.1836 5.68461 53.2236 3.72461 50.8086 3.72461ZM4.43359 8.09961C4.43359 6.65586 5.61484 5.47461 7.05859 5.47461H50.8086C52.2523 5.47461 53.4336 6.65586 53.4336 8.09961V14.2246H35.4786L32.2411 10.1821C32.0748 9.97211 31.8211 9.84961 31.5586 9.84961H4.43359V8.09961ZM50.8086 50.9746H7.05859C5.61484 50.9746 4.43359 49.7934 4.43359 48.3496V11.5996H31.1386L34.3761 15.6421C34.5423 15.8521 34.7961 15.9746 35.0586 15.9746H53.4336V48.3496C53.4336 49.7934 52.2523 50.9746 50.8086 50.9746Z" fill="white"/>
<path d="M48.6211 11.1621C49.346 11.1621 49.9336 10.5745 49.9336 9.84961C49.9336 9.12474 49.346 8.53711 48.6211 8.53711C47.8962 8.53711 47.3086 9.12474 47.3086 9.84961C47.3086 10.5745 47.8962 11.1621 48.6211 11.1621Z" fill="#E6B400"/>
<path d="M43.3711 11.1621C44.096 11.1621 44.6836 10.5745 44.6836 9.84961C44.6836 9.12474 44.096 8.53711 43.3711 8.53711C42.6462 8.53711 42.0586 9.12474 42.0586 9.84961C42.0586 10.5745 42.6462 11.1621 43.3711 11.1621Z" fill="white"/>
<path d="M38.1211 11.1621C38.846 11.1621 39.4336 10.5745 39.4336 9.84961C39.4336 9.12474 38.846 8.53711 38.1211 8.53711C37.3962 8.53711 36.8086 9.12474 36.8086 9.84961C36.8086 10.5745 37.3962 11.1621 38.1211 11.1621Z" fill="white"/>
</svg>
