<svg width="57" height="57" viewBox="0 0 57 57" fill="none" xmlns="http://www.w3.org/2000/svg">
<path fill-rule="evenodd" clip-rule="evenodd" d="M47.7811 16.5039C47.7811 17.5468 48.6292 18.3956 49.6723 18.3956C50.7152 18.3956 51.5634 17.5468 51.5634 16.5039C51.5634 15.4615 50.7153 14.6128 49.6723 14.6128C48.6292 14.6128 47.7811 15.4615 47.7811 16.5039ZM43.3141 22.505L40.1601 25.0105C41.2361 27.2249 39.6216 29.8542 37.12 29.8542C34.8612 29.8542 33.2369 27.6694 33.8891 25.5034L31.4962 24.1499C30.2229 25.5508 28.0589 25.6387 26.6806 24.3365L22.7804 26.9625C23.9116 31.5463 28.0574 34.9553 32.9845 34.9553C39.5661 34.9553 44.5236 28.9548 43.3141 22.505ZM15.4436 29.1163C14.4007 29.1163 13.5525 29.9644 13.5525 31.0075C13.5525 32.0505 14.4005 32.8991 15.4436 32.8991C16.4867 32.8991 17.336 32.0504 17.336 31.0075C17.336 29.9645 16.4865 29.1163 15.4436 29.1163ZM32.2424 42.0608C32.2424 42.742 31.6888 43.2958 31.0081 43.2958H6.78141C6.10023 43.2958 5.54706 42.742 5.54706 42.0608V12.9768H10.2084C11.7078 12.9768 12.9267 11.7568 12.9267 10.2572V5.596H31.008C31.6886 5.596 32.2423 6.14973 32.2423 6.83035V12.4756C25.2374 12.9051 20.0483 19.2956 21.1317 26.2836L17.759 28.5543C17.1546 27.9828 16.3387 27.6317 15.4435 27.6317C13.5822 27.6317 12.0678 29.1461 12.0678 31.0073C12.0678 32.8692 13.5823 34.3831 15.4435 34.3831C17.8186 34.3831 19.4474 31.9886 18.5891 29.7844L21.4797 27.8379C22.8792 32.5772 27.1334 36.1026 32.2423 36.416L32.2424 42.0608ZM6.59605 11.4921H10.2084C10.8896 11.4921 11.4427 10.9385 11.4427 10.2572V6.64555L6.59605 11.4921ZM28.9959 23.7751C27.953 23.7751 27.1043 22.9263 27.1043 21.8834C27.1043 20.8404 27.953 19.9923 28.9959 19.9923C30.0383 19.9923 30.8871 20.8403 30.8871 21.8834C30.8871 22.9263 30.0383 23.7751 28.9959 23.7751ZM37.12 24.5868C38.1629 24.5868 39.0122 25.4356 39.0122 26.478C39.0122 27.5209 38.1629 28.3696 37.12 28.3696C36.0776 28.3696 35.2289 27.5209 35.2289 26.478C35.2289 25.4355 36.0776 24.5868 37.12 24.5868ZM32.9844 13.9363C37.5526 13.9363 41.4475 16.865 42.8935 20.9428L39.2346 23.8494C37.841 22.7256 35.8231 22.8869 34.621 24.2117L32.2275 22.8582C32.8795 20.7203 31.2735 18.5075 28.9959 18.5075C26.6154 18.5075 24.9924 20.9112 25.8503 23.1062L22.5145 25.3519C21.9976 19.1843 26.8499 13.9363 32.9844 13.9363ZM40.7251 40.9779C40.4778 41.1206 40.3898 41.4441 40.5333 41.6919L45.6696 50.5883C45.8108 50.8332 46.1387 50.9208 46.3842 50.7796L49.0918 49.2163C49.3389 49.0733 49.4252 48.7489 49.2825 48.5017L44.1462 39.6059C44.0038 39.3587 43.6764 39.274 43.4322 39.4146L40.7251 40.9779ZM47.5577 19.1328L44.6063 21.4774C45.8943 26.4943 43.7854 31.6605 39.6112 34.4379L41.9791 38.5396L42.6895 38.129C43.6485 37.5759 44.8785 37.9055 45.4316 38.8638L50.5679 47.7596C51.1208 48.7178 50.7919 49.9483 49.8336 50.5018L47.126 52.0651C46.1765 52.6125 44.9425 52.2987 44.3838 51.3303L39.2475 42.4345C38.6941 41.4753 39.0239 40.2459 39.983 39.6923L40.6934 39.2822L38.3261 35.1824C36.9261 35.882 35.3711 36.3154 33.7268 36.416V42.0607C33.7268 43.5603 32.5075 44.7797 31.0079 44.7797H6.78141C5.28184 44.7797 4.0625 43.5603 4.0625 42.0607V12.2341C4.0625 12.0375 4.14056 11.8485 4.27944 11.7096L11.6602 4.32883C11.7997 4.18995 11.9881 4.11133 12.1847 4.11133H31.008C32.5076 4.11133 33.7269 5.33134 33.7269 6.83024V12.4755C38.4394 12.7646 42.4243 15.7869 44.1134 19.9737L46.632 17.9711C45.5579 15.7486 47.1758 13.128 49.6723 13.128C51.5336 13.128 53.0479 14.6425 53.0479 16.5038C53.0479 18.3657 51.5335 19.8801 49.6723 19.8801C48.8725 19.8801 48.1364 19.5995 47.5577 19.1328ZM27.7056 36.7648H10.0838C9.67381 36.7648 9.34128 37.0968 9.34128 37.5068C9.34128 37.9169 9.67381 38.2488 10.0838 38.2488H27.7057C28.1157 38.2488 28.4483 37.9169 28.4483 37.5068C28.4483 37.0968 28.1156 36.7648 27.7056 36.7648ZM10.0838 25.1882H16.3448C16.7548 25.1882 17.0874 24.8556 17.0874 24.4456C17.0874 24.0356 16.7549 23.7036 16.3448 23.7036H10.0838C9.67381 23.7036 9.34128 24.0356 9.34128 24.4456C9.34128 24.8556 9.67381 25.1882 10.0838 25.1882ZM10.0838 18.6578H17.9981C18.4076 18.6578 18.7401 18.3252 18.7401 17.9151C18.7401 17.5051 18.4076 17.1731 17.9981 17.1731H10.0838C9.67381 17.1731 9.34128 17.5051 9.34128 17.9151C9.34117 18.3252 9.67381 18.6578 10.0838 18.6578ZM16.2601 11.3848C16.2601 11.7949 16.5927 12.1274 17.0021 12.1274H23.4602C23.8709 12.1274 24.2022 11.7949 24.2022 11.3848C24.2022 10.9748 23.8708 10.6428 23.4602 10.6428H17.0021C16.5927 10.6428 16.2601 10.9748 16.2601 11.3848Z" fill="white"/>
<path fill-rule="evenodd" clip-rule="evenodd" d="M32.2409 12.4786C25.236 12.9081 20.0469 19.2986 21.1303 26.2867L17.7576 28.5573C17.1532 27.9858 16.3373 27.6347 15.4421 27.6347C13.5808 27.6347 12.0664 29.1492 12.0664 31.0104C12.0664 32.8723 13.5809 34.3862 15.4421 34.3862C17.8172 34.3862 19.446 31.9916 18.5877 29.7874L21.4783 27.8409C22.8778 32.5803 27.132 36.1056 32.2409 36.4191H33.7254C35.3697 36.3184 36.9247 35.8851 38.3247 35.1854L40.692 39.2853L39.9816 39.6953C39.0225 40.2489 38.6927 41.4783 39.2461 42.4375L44.3824 51.3333C44.9411 52.3017 46.1751 52.6155 47.1246 52.0682L49.8322 50.5049C50.7905 49.9514 51.1193 48.7208 50.5665 47.7627L45.4302 38.8668C44.8771 37.9086 43.647 37.5789 42.6881 38.132L41.9777 38.5426L39.6098 34.4409C43.784 31.6636 45.8929 26.4973 44.6049 21.4804L47.5563 19.1358C48.135 19.6025 48.8711 19.8832 49.6709 19.8832C51.5321 19.8832 53.0465 18.3687 53.0465 16.5068C53.0465 14.6455 51.5322 13.131 49.6709 13.131C47.1744 13.131 45.5565 15.7516 46.6306 17.9741L44.112 19.9767C42.4229 15.7899 38.438 12.7676 33.7255 12.4785L32.2409 12.4786ZM42.892 20.9458C41.4461 16.868 37.5512 13.9393 32.983 13.9393C26.8485 13.9393 21.9962 19.1873 22.5131 25.3549L25.8489 23.1092C24.991 20.9142 26.614 18.5105 28.9945 18.5105C31.2721 18.5105 32.8781 20.7233 32.2261 22.8613L34.6196 24.2148C35.8217 22.8899 37.8396 22.7286 39.2332 23.8525L42.892 20.9458ZM43.3127 22.508L40.1587 25.0136C41.2347 27.2279 39.6202 29.8572 37.1186 29.8572C34.8598 29.8572 33.2355 27.6724 33.8877 25.5065L31.4948 24.1529C30.2215 25.5538 28.0575 25.6418 26.6792 24.3395L22.779 26.9655C23.9102 31.5493 28.056 34.9584 32.9831 34.9584C39.5646 34.9584 44.5222 28.9579 43.3127 22.508ZM40.5319 41.695C40.3884 41.4471 40.4764 41.1236 40.7237 40.9809L43.4308 39.4177C43.675 39.277 44.0024 39.3618 44.1448 39.6089L49.2811 48.5048C49.4238 48.752 49.3375 49.0763 49.0904 49.2193L46.3828 50.7826C46.1373 50.9239 45.8094 50.8363 45.6682 50.5913L40.5319 41.695ZM15.4422 29.1194C14.3993 29.1194 13.5511 29.9674 13.5511 31.0105C13.5511 32.0535 14.3991 32.9022 15.4422 32.9022C16.4853 32.9022 17.3346 32.0534 17.3346 31.0105C17.3346 29.9675 16.4851 29.1194 15.4422 29.1194ZM27.1029 21.8864C27.1029 22.9293 27.9516 23.7781 28.9945 23.7781C30.0369 23.7781 30.8857 22.9293 30.8857 21.8864C30.8857 20.8433 30.0369 19.9953 28.9945 19.9953C27.9516 19.9953 27.1029 20.8435 27.1029 21.8864ZM37.1186 24.5899C38.1615 24.5899 39.0108 25.4386 39.0108 26.481C39.0108 27.5239 38.1615 28.3727 37.1186 28.3727C36.0762 28.3727 35.2274 27.5239 35.2274 26.481C35.2274 25.4385 36.0762 24.5899 37.1186 24.5899ZM49.6709 18.3986C48.6278 18.3986 47.7797 17.5499 47.7797 16.5069C47.7797 15.4645 48.6278 14.6158 49.6709 14.6158C50.7139 14.6158 51.562 15.4645 51.562 16.5069C51.562 17.5499 50.7138 18.3986 49.6709 18.3986Z" fill="#E6B400"/>
</svg>
