<svg width="57" height="57" viewBox="0 0 57 57" fill="none" xmlns="http://www.w3.org/2000/svg">
<g clip-path="url(#clip0_1760_117274)">
<path d="M55.8245 40.9724L50.0845 38.1024L46.4314 28.5999C46.3884 28.4876 46.3227 28.3853 46.2383 28.2995C46.154 28.2137 46.0529 28.1462 45.9414 28.1012L23.2745 19.0406C23.116 18.9775 22.9425 18.9621 22.7754 18.9963C22.6083 19.0305 22.4548 19.1128 22.3339 19.2331L19.3107 22.2562C19.1921 22.3773 19.1111 22.5302 19.0777 22.6964C19.0443 22.8626 19.0599 23.0349 19.1226 23.1924L28.1832 45.8593C28.2282 45.9709 28.2957 46.072 28.3815 46.1563C28.4674 46.2406 28.5696 46.3063 28.682 46.3493L38.1845 50.0024L41.0545 55.7424C41.1149 55.869 41.2049 55.9792 41.3168 56.0637C41.4287 56.1482 41.5593 56.2046 41.6976 56.2281C41.7442 56.2324 41.791 56.2324 41.8376 56.2281C42.0693 56.2271 42.2912 56.1343 42.4545 55.9699L56.052 42.3724C56.1521 42.2759 56.2277 42.1568 56.2726 42.0252C56.3175 41.8936 56.3303 41.7532 56.3101 41.6156C56.2866 41.4773 56.2303 41.3467 56.1458 41.2348C56.0612 41.1228 55.9511 41.0329 55.8245 40.9724ZM20.9557 23.0787L21.4414 22.5974L32.7245 33.8806C31.9809 34.9342 31.6597 36.2286 31.8245 37.5077C31.9893 38.7867 32.6281 39.9574 33.6145 40.7882C34.6009 41.619 35.8631 42.0494 37.1516 41.9943C38.44 41.9393 39.6609 41.4027 40.5729 40.4908C41.4848 39.5789 42.0213 38.358 42.0764 37.0695C42.1314 35.7811 41.701 34.5188 40.8702 33.5324C40.0395 32.546 38.8688 31.9073 37.5897 31.7425C36.3106 31.5777 35.0163 31.8988 33.9626 32.6424L22.6795 21.3593L23.1607 20.8737L44.9351 29.5843L48.3695 38.5181L38.6001 48.2874L29.6664 44.8531L20.9557 23.0787ZM36.9289 33.4474C37.7153 33.4486 38.4769 33.7224 39.0841 34.2222C39.6913 34.7219 40.1064 35.4167 40.2588 36.1882C40.4111 36.9597 40.2913 37.7602 39.9197 38.4532C39.548 39.1463 38.9476 39.6891 38.2207 39.9891C37.4938 40.2891 36.6853 40.3278 35.9331 40.0986C35.1808 39.8694 34.5313 39.3865 34.0951 38.7321C33.659 38.0778 33.4632 37.2924 33.5412 36.5099C33.6191 35.7274 33.966 34.9961 34.5226 34.4406C35.1614 33.8038 36.0269 33.4466 36.9289 33.4474ZM42.0782 53.8743L39.8907 49.4993L49.5726 39.8174L53.9476 42.0049L42.0782 53.8743Z" fill="white"/>
<path d="M17.0461 47.039C16.8788 46.8808 16.6573 46.7927 16.4271 46.7927C16.1969 46.7927 15.9753 46.8808 15.808 47.039L14.6968 48.1502C11.7313 44.1254 10.0954 39.2758 10.0169 34.2771C9.93852 29.2784 11.4215 24.3798 14.2593 20.264C15.1095 20.7318 16.0884 20.9115 17.0493 20.7762C18.0102 20.6408 18.9014 20.1977 19.5893 19.5133C20.2772 18.8288 20.7248 17.9399 20.8649 16.9796C21.0051 16.0194 20.8303 15.0396 20.3668 14.1871C24.4826 11.3493 29.3812 9.86634 34.3799 9.94476C39.3786 10.0232 44.2282 11.6591 48.253 14.6246L47.1243 15.7227C46.9616 15.8868 46.8703 16.1085 46.8705 16.3396C46.8699 16.4547 46.8919 16.5689 46.9355 16.6755C46.979 16.7821 47.0432 16.8791 47.1243 16.9608L50.983 20.789C51.147 20.9519 51.3687 21.0434 51.5999 21.0434C51.8311 21.0434 52.0528 20.9519 52.2168 20.789L56.0536 16.9521C56.135 16.8708 56.1995 16.7743 56.2436 16.6681C56.2876 16.5619 56.3103 16.448 56.3103 16.333C56.3103 16.218 56.2876 16.1042 56.2436 15.998C56.1995 15.8917 56.135 15.7952 56.0536 15.714L52.2168 11.8771C52.0528 11.7141 51.8311 11.6226 51.5999 11.6226C51.3687 11.6226 51.147 11.7141 50.983 11.8771L49.4999 13.3515C45.8446 10.6009 41.5231 8.87276 36.9791 8.34455C32.4351 7.81635 27.8324 8.50708 23.6437 10.3458L28.688 5.31459C29.26 5.58789 29.9103 5.64975 30.5235 5.48921C31.1367 5.32866 31.6733 4.95609 32.0379 4.43758C32.4026 3.91907 32.5718 3.28815 32.5156 2.65675C32.4593 2.02535 32.1812 1.43429 31.7306 0.988425C31.28 0.542559 30.6861 0.270713 30.0541 0.221116C29.4221 0.171518 28.7931 0.347375 28.2784 0.717488C27.7638 1.0876 27.3969 1.62804 27.2428 2.24294C27.0887 2.85783 27.1575 3.50742 27.4368 4.07647L18.923 12.6033C18.0586 12.0235 17.0196 11.7617 15.9837 11.8628C14.9477 11.9639 13.9789 12.4216 13.2429 13.1576C12.5069 13.8936 12.0492 14.8624 11.9481 15.8984C11.847 16.9343 12.1088 17.9733 12.6886 18.8377L4.16177 27.3515C3.5905 27.0731 2.93903 27.0063 2.32314 27.1629C1.70725 27.3195 1.16681 27.6893 0.797879 28.2068C0.428943 28.7242 0.255397 29.3557 0.308078 29.989C0.36076 30.6223 0.636258 31.2164 1.08562 31.6658C1.53498 32.1151 2.12909 32.3906 2.76239 32.4433C3.3957 32.496 4.02717 32.3224 4.5446 31.9535C5.06202 31.5846 5.4319 31.0441 5.5885 30.4282C5.74509 29.8123 5.67827 29.1609 5.3999 28.5896L10.4443 23.5583C8.60368 27.746 7.91076 32.348 8.43666 36.892C8.96256 41.4359 10.6883 45.7581 13.4368 49.4146L11.958 50.8977C11.7951 51.0617 11.7036 51.2834 11.7036 51.5146C11.7036 51.7458 11.7951 51.9675 11.958 52.1315L15.7949 55.9683C15.9582 56.1327 16.1801 56.2255 16.4118 56.2265C16.5272 56.2266 16.6416 56.2038 16.7482 56.1595C16.8548 56.1152 16.9516 56.0502 17.033 55.9683L20.8743 52.1315C21.0372 51.9675 21.1287 51.7458 21.1287 51.5146C21.1287 51.2834 21.0372 51.0617 20.8743 50.8977L17.0461 47.039ZM51.6086 13.7233L54.2074 16.3221L51.6086 18.9208L49.0099 16.3221L51.6086 13.7233ZM29.1868 2.25209C29.3168 2.12101 29.4828 2.0315 29.6638 1.99493C29.8448 1.95836 30.0325 1.97637 30.2032 2.04668C30.374 2.11699 30.5199 2.23642 30.6227 2.38983C30.7254 2.54324 30.7803 2.72371 30.7803 2.90834C30.7803 3.09297 30.7254 3.27344 30.6227 3.42685C30.5199 3.58026 30.374 3.6997 30.2032 3.77001C30.0325 3.84031 29.8448 3.85833 29.6638 3.82175C29.4828 3.78518 29.3168 3.69568 29.1868 3.56459C29.1005 3.47845 29.0321 3.37615 28.9854 3.26355C28.9387 3.15094 28.9147 3.03024 28.9147 2.90834C28.9147 2.78644 28.9387 2.66574 28.9854 2.55314C29.0321 2.44053 29.1005 2.33823 29.1868 2.25209ZM14.4868 14.4015C14.7409 14.1462 15.0429 13.9436 15.3755 13.8053C15.7081 13.6671 16.0647 13.5959 16.4249 13.5959C16.7851 13.5959 17.1417 13.6671 17.4743 13.8053C17.8069 13.9436 18.1089 14.1462 18.363 14.4015C18.7471 14.7849 19.0088 15.2737 19.115 15.8059C19.2212 16.3382 19.1671 16.8899 18.9596 17.3914C18.7521 17.8929 18.4006 18.3216 17.9494 18.6232C17.4982 18.9248 16.9676 19.0858 16.4249 19.0858C15.8822 19.0858 15.3516 18.9248 14.9004 18.6232C14.4492 18.3216 14.0977 17.8929 13.8902 17.3914C13.6827 16.8899 13.6286 16.3382 13.7348 15.8059C13.841 15.2737 14.1027 14.7849 14.4868 14.4015ZM3.65427 30.414C3.47564 30.5629 3.24775 30.6397 3.01539 30.6292C2.78302 30.6187 2.56299 30.5217 2.39851 30.3572C2.23404 30.1928 2.13702 29.9727 2.12652 29.7404C2.11602 29.508 2.1928 29.2801 2.34177 29.1015C2.51686 28.9294 2.75253 28.833 2.99802 28.833C3.24351 28.833 3.47918 28.9294 3.65427 29.1015C3.74052 29.1876 3.80894 29.2899 3.85563 29.4025C3.90231 29.5151 3.92634 29.6358 3.92634 29.7577C3.92634 29.8796 3.90231 30.0003 3.85563 30.1129C3.80894 30.2255 3.74052 30.3278 3.65427 30.414ZM16.4249 54.0958L13.8261 51.4971L16.4249 48.8983L19.0236 51.4971L16.4249 54.0958Z" fill="#E6B400"/>
</g>
<defs>
<clipPath id="clip0_1760_117274">
<rect width="56" height="56" fill="white" transform="translate(0.310547 0.224609)"/>
</clipPath>
</defs>
</svg>
