<svg width="57" height="57" viewBox="0 0 57 57" fill="none" xmlns="http://www.w3.org/2000/svg">
<g clip-path="url(#clip0_1760_117284)">
<path d="M49.1179 37.9028C48.4441 36.2766 48.0342 35.2872 47.3501 33.6342L50.0841 27.8807L44.3654 22.162L38.6119 24.896C36.9411 24.2047 35.8643 23.7583 34.2426 23.0865L32.109 17.0848H30.7467V11.4465C30.7467 10.0883 31.8517 8.98316 33.2101 8.98316H40.2046C40.6168 12.9755 44.0001 16.0995 48.0996 16.0995C58.6298 15.6634 58.6266 0.659034 48.0995 0.224609C44.0001 0.224609 40.6168 3.34868 40.2046 7.34093H33.2101C30.9462 7.34093 29.1045 9.18264 29.1045 11.4465V17.0848H26.9149V11.4465C26.9149 9.18264 25.0732 7.34093 22.8093 7.34093H15.9243C15.512 3.34868 12.1287 0.224609 8.02925 0.224609C-2.50094 0.660676 -2.49776 15.6651 8.02936 16.0995C12.1288 16.0995 15.5121 12.9754 15.9243 8.98316H22.8093C24.1677 8.98316 25.2727 10.0883 25.2727 11.4465V17.0848H24.0199L21.8864 23.0863C20.2643 23.7582 19.1883 24.2043 17.5171 24.8958L11.7636 22.1618L6.04489 27.8805L8.77876 33.6339L6.96914 38.0033L0.967667 40.1369V48.7251H12.0615V47.0829H2.6099V41.2961L8.20705 39.3064L10.5753 33.5882L8.02553 28.2225L12.1055 24.1426L17.4711 26.6922C19.6154 25.8048 21.1645 25.1632 23.1893 24.3239L25.1789 18.7271H30.9501L32.9397 24.324C34.9653 25.1635 36.5131 25.8047 38.6579 26.6923L44.0235 24.1427L48.1035 28.2226L45.5538 33.5882C46.4417 35.7343 47.0748 37.2616 47.9219 39.3064L53.519 41.2961V47.0829H36.943C41.7822 41.677 40.3024 32.7371 33.9495 29.1703L32.7174 28.4575V38.787L28.0644 41.4811L23.4115 38.787V28.4575L22.1792 29.1703C15.8258 32.7367 14.3475 41.6793 19.1859 47.0829H13.7037V48.7251H20.9326C21.3257 49.0256 21.7393 49.3036 22.1733 49.555C22.9371 49.9972 23.4115 50.8157 23.4115 51.691V56.2246H25.0537V51.691C25.0537 50.2318 24.2654 48.8687 22.9965 48.134C16.8471 44.6456 16.2125 35.7596 21.7692 31.4321V39.7338L28.0644 43.3787L34.3596 39.7338V31.4321C39.9176 35.7627 39.2812 44.6443 33.1324 48.1339C31.8635 48.8687 31.0752 50.2318 31.0752 51.6987L32.7174 51.6911C32.7174 50.8158 33.1918 49.9973 33.9557 49.555C34.3896 49.3036 34.8033 49.0256 35.1963 48.7252H55.1612V40.137L49.1597 38.0036L49.1179 37.9028ZM48.0996 1.86684C51.5709 1.86684 54.3948 4.69081 54.3948 8.16205C54.0491 16.5135 42.149 16.511 41.8044 8.16205C41.8044 4.69081 44.6284 1.86684 48.0996 1.86684ZM8.02925 14.4573C4.55802 14.4573 1.73404 11.6333 1.73404 8.16205C2.07978 -0.189451 13.9799 -0.186933 14.3245 8.16205C14.3245 11.6333 11.5005 14.4573 8.02925 14.4573Z" fill="white"/>
<path d="M31.0762 37.8145V34.3464L28.0654 32.6152L25.0547 34.3464V37.8145L28.0654 39.5457L31.0762 37.8145ZM26.6969 35.2964L28.0654 34.5095L29.434 35.2964V36.8644L28.0654 37.6514L26.6969 36.8644V35.2964Z" fill="#E6B400"/>
<path d="M31.0742 53.3379H32.7164V56.2216H31.0742V53.3379Z" fill="#E6B400"/>
<path d="M6.62587 9.51151L5.21585 8.1015L4.05469 9.26277L6.62587 11.834L11.7848 6.67506L10.6236 5.51367L6.62587 9.51151Z" fill="#E6B400"/>
<path d="M45.9424 11.4773L48.0989 9.32081L50.2553 11.4773L51.4165 10.3159L49.2602 8.15954L51.4165 6.00318L50.2553 4.8418L48.0989 6.99826L45.9424 4.8418L44.7812 6.00318L46.9376 8.15954L44.7812 10.3159L45.9424 11.4773Z" fill="#E6B400"/>
<path d="M27.2422 49.3691H28.8844V51.0114H27.2422V49.3691Z" fill="#E6B400"/>
<path d="M27.2422 45.9746H28.8844V47.6168H27.2422V45.9746Z" fill="#E6B400"/>
</g>
<defs>
<clipPath id="clip0_1760_117284">
<rect width="56" height="56" fill="white" transform="translate(0.0664062 0.224609)"/>
</clipPath>
</defs>
</svg>
