<svg width="57" height="57" viewBox="0 0 57 57" fill="none" xmlns="http://www.w3.org/2000/svg">
<path fill-rule="evenodd" clip-rule="evenodd" d="M50.6855 7.89599C47.6405 4.85098 42.703 4.85088 39.6579 7.89599C36.6128 10.9411 36.6128 15.8785 39.6579 18.9236C42.703 21.9686 47.6404 21.9687 50.6855 18.9236C53.7306 15.8785 53.7305 10.9411 50.6855 7.89599ZM41.1335 13.904C40.8126 13.6054 40.7946 13.1032 41.0932 12.7823C41.3918 12.4614 41.8939 12.4434 42.2148 12.742L44.1925 14.5849L48.1006 10.572C48.406 10.2579 48.9082 10.251 49.2222 10.5564C49.5361 10.8618 49.5431 11.364 49.2377 11.678L44.8 16.235C44.5014 16.5559 43.9993 16.5739 43.6784 16.2753L41.1334 13.9037L41.1335 13.904ZM21.4062 29.3489C21.7169 29.6595 21.7169 30.1631 21.4062 30.4736C21.0957 30.7842 20.592 30.7842 20.2815 30.4736L15.7931 25.9852C15.4825 25.6746 15.4825 25.171 15.7931 24.8605L20.2815 20.3721C20.5922 20.0614 21.0957 20.0614 21.4062 20.3721C21.7169 20.6827 21.7169 21.1862 21.4062 21.4968L17.4801 25.4229L21.4062 29.3489ZM31.0012 30.628C30.6905 30.9387 30.187 30.9387 29.8765 30.628C29.5658 30.3174 29.5658 29.8139 29.8765 29.5033L33.8026 25.5772L29.8765 21.6511C29.5658 21.3405 29.5658 20.8369 29.8765 20.5264C30.187 20.2158 30.6906 20.2158 31.0012 20.5264L35.4896 25.0148C35.8002 25.3254 35.8002 25.829 35.4896 26.1395L31.0012 30.628ZM24.5421 32.6712C24.4289 33.095 23.9935 33.3468 23.5697 33.2335C23.1458 33.1203 22.8941 32.6848 23.0073 32.261L26.7403 18.3288C26.8535 17.905 27.289 17.6532 27.7128 17.7664C28.1366 17.8796 28.3884 18.315 28.2752 18.7389L24.5421 32.6711V32.6712ZM37.9736 48.8349H13.4927V50.8291H37.9737V48.8349H37.9736ZM30.9798 47.2442C29.6798 46.1519 28.8008 44.5918 28.5953 42.8413H22.871C22.6656 44.5918 21.7865 46.1519 20.4865 47.2442H30.9799H30.9798ZM30.2005 42.8413C30.5873 45.3404 32.7634 47.2441 35.3338 47.2441C37.9043 47.2441 38.5466 47.2441 38.5466 47.2441C39.108 47.2441 39.5643 47.7004 39.5643 48.2617V51.402C39.5643 51.9633 39.1081 52.4196 38.5466 52.4196H12.9197C12.3583 52.4196 11.902 51.9633 11.902 51.402V48.2617C11.902 47.7004 12.3582 47.2441 12.9197 47.2441H16.1325C18.7029 47.2441 20.879 45.3403 21.2658 42.8412H5.57388C4.05466 42.8412 2.81445 41.6011 2.81445 40.0818V12.3395C2.81445 10.8201 4.05466 9.58003 5.57388 9.58003H36.5978C38.0855 6.2547 41.4036 4.02148 45.1718 4.02148C50.3567 4.02148 54.5601 8.22498 54.5601 13.4098C54.5601 17.3811 52.0784 20.8487 48.4685 22.2028V40.0819C48.4685 41.6012 47.2282 42.8413 45.709 42.8413H30.2008H30.2005ZM46.8775 38.2107H4.40509V40.0819C4.40509 40.723 4.93272 41.2505 5.57377 41.2505H45.7089C46.3501 41.2505 46.8776 40.723 46.8776 40.0819V38.2107H46.8775ZM4.40498 36.6199V12.3395C4.40498 11.6983 4.9325 11.1708 5.57366 11.1708H36.0519C35.8762 11.8883 35.7831 12.6382 35.7831 13.4098C35.7831 19.2849 41.1142 23.7021 46.8775 22.6433V36.62H4.40509L4.40498 36.6199Z" fill="white"/>
<path fill-rule="evenodd" clip-rule="evenodd" d="M41.134 13.9061C40.813 13.6075 40.795 13.1054 41.0936 12.7845C41.3922 12.4636 41.8943 12.4455 42.2152 12.7441L44.193 14.5871L48.101 10.5741C48.4064 10.2601 48.9087 10.2532 49.2226 10.5586C49.5365 10.8639 49.5435 11.3662 49.2381 11.6801L44.8004 16.2371C44.5018 16.558 43.9997 16.5761 43.6788 16.2775L41.134 13.9061ZM21.4066 29.3511C21.7173 29.6617 21.7173 30.1652 21.4066 30.4758C21.0961 30.7864 20.5925 30.7864 20.2819 30.4758L15.7935 25.9873C15.4829 25.6767 15.4829 25.1731 15.7935 24.8626L20.2819 20.3742C20.5926 20.0636 21.0961 20.0636 21.4066 20.3742C21.7173 20.6848 21.7173 21.1884 21.4066 21.4989L17.4805 25.425L21.4066 29.3511ZM31.0016 30.6302C30.6909 30.9408 30.1874 30.9408 29.8769 30.6302C29.5662 30.3196 29.5662 29.816 29.8769 29.5055L33.803 25.5794L29.8769 21.6532C29.5662 21.3426 29.5662 20.8391 29.8769 20.5285C30.1874 20.2179 30.691 20.2179 31.0016 20.5285L35.49 25.017C35.8006 25.3276 35.8006 25.8311 35.49 26.1417L31.0016 30.6302ZM24.5425 32.6733C24.4293 33.0971 23.9939 33.3489 23.5701 33.2356C23.1462 33.1224 22.8945 32.687 23.0077 32.2632L26.7407 18.331C26.854 17.9071 27.2894 17.6554 27.7132 17.7686C28.137 17.8818 28.3888 18.3172 28.2756 18.741L24.5425 32.6733Z" fill="#E6B400"/>
</svg>
