<svg width="57" height="57" viewBox="0 0 57 57" fill="none" xmlns="http://www.w3.org/2000/svg">
<path d="M28.4419 1.9707C28.2392 1.97107 28.0428 2.04324 27.8865 2.17255C27.8865 2.17255 22.3203 6.78167 22.3203 14.2192C22.3203 14.6565 22.3352 15.0781 22.3596 15.4906C21.9474 15.7926 21.3212 16.3296 20.7173 17.2355C19.7428 18.6973 18.8203 21.0749 18.8203 24.7208C18.8205 25.644 20.065 25.9378 20.478 25.1121C20.478 25.1121 21.4915 23.0675 24.0156 22.3453C24.604 23.6405 25.1231 24.3722 25.123 24.3722C25.2881 24.5914 25.546 24.7203 25.8203 24.7208C27.571 24.7209 29.3162 24.719 31.0669 24.719C31.3412 24.7186 31.5991 24.5898 31.7642 24.3704C31.7642 24.3704 32.2832 23.6387 32.8716 22.3436C35.3985 23.0649 36.4126 25.1121 36.4126 25.1121C36.8256 25.9378 38.0701 25.644 38.0703 24.7208C38.0703 21.0749 37.1479 18.6973 36.1733 17.2354C35.5675 16.3266 34.9395 15.7884 34.5276 15.4871C34.5521 15.0751 34.5669 14.6541 34.5669 14.2174C34.5669 6.77985 29.0007 2.17074 29.0007 2.17074C28.8444 2.04176 28.648 1.97124 28.4453 1.9709C28.4444 1.97087 28.4429 1.9707 28.4419 1.9707ZM28.4452 4.06074C28.7888 4.37822 29.5319 5.17711 30.3097 6.34395H26.579C27.3558 5.17933 28.0982 4.38175 28.4418 4.06418C28.4426 4.06507 28.4444 4.0653 28.4454 4.06589L28.4452 4.06074ZM11.9005 35.2224H3.94531V9.84401C3.94531 9.34411 4.32386 8.97243 4.82373 8.97243H20.5669C21.7597 8.99888 21.76 7.2224 20.5669 7.2224H4.82373C3.38462 7.2224 2.19531 8.4049 2.19531 9.84401V41.3457C2.19531 42.7848 3.38462 43.9689 4.82373 43.9689H52.072C53.5111 43.9689 54.6953 42.7848 54.6953 41.3457V9.84401C54.6953 8.4049 53.5111 7.2224 52.072 7.2224H36.322C35.1292 7.19594 35.1289 8.97243 36.322 8.97243H52.072C52.5719 8.97243 52.9436 9.34411 52.9436 9.84401V35.2224H44.99C44.5704 32.7468 42.4112 30.8456 39.8195 30.8456C38.9893 30.8474 38.3036 31.012 37.6174 31.3293C37.0316 30.01 35.8779 28.9529 34.4644 28.4855C34.3622 28.4501 34.2543 28.4336 34.1465 28.4376C33.1651 28.4743 32.9793 29.8509 33.9158 30.1465C35.097 30.5371 36.0157 31.5411 36.2571 32.8246C36.3792 33.47 37.1425 33.7556 37.6585 33.3492C38.2747 32.8625 39.0368 32.597 39.822 32.5956C41.4607 32.5964 42.8125 33.7095 43.199 35.2222H13.6916C14.0781 33.7095 15.43 32.5964 17.0686 32.5956C17.8538 32.5973 18.616 32.8624 19.2322 33.3492C19.7482 33.7556 20.5114 33.4699 20.6335 32.8246C20.875 31.5411 21.7936 30.5371 22.9749 30.1465C23.9113 29.8509 23.7255 28.4742 22.7442 28.4376C22.6363 28.4343 22.5285 28.4508 22.4263 28.4855C21.0127 28.9529 19.8591 30.01 19.2732 31.3293C18.587 31.0121 17.9013 30.8471 17.0712 30.8456C14.4794 30.8456 12.3201 32.7468 11.9005 35.2224ZM25.5809 8.0957H31.3078C32.1358 9.75734 32.8168 11.8218 32.8168 14.2173C32.8168 19.6557 30.8629 22.5282 30.5507 22.969C29.1441 22.9689 27.7429 22.9707 26.3363 22.9707C26.0241 22.53 24.0702 19.6574 24.0702 14.219C24.0702 11.8224 24.7522 9.75747 25.5809 8.0957ZM28.4418 11.5956C27.0024 11.5956 25.8202 12.7796 25.8202 14.219C25.8202 15.6584 27.0024 16.8473 28.4418 16.8473C29.8812 16.8473 31.0719 15.6583 31.0719 14.219C31.0719 12.7796 29.8812 11.5957 28.4418 11.5956ZM28.4418 13.3474C28.9354 13.3474 29.3202 13.7254 29.3202 14.219C29.3202 14.7126 28.9354 15.0974 28.4418 15.0974C27.9482 15.0974 27.5702 14.7126 27.5702 14.219C27.5702 13.7253 27.9482 13.3474 28.4418 13.3474ZM34.2865 17.6421C34.4244 17.8075 34.5649 17.9776 34.7172 18.206C35.2449 18.9976 35.7891 20.1531 36.1288 22.1196C35.4634 21.5758 34.5773 21.0518 33.5089 20.7165C33.8106 19.8295 34.0914 18.8192 34.2865 17.6421ZM22.6005 17.6454C22.7954 18.8211 23.0767 19.8303 23.3781 20.7165C22.311 21.0519 21.4264 21.5763 20.7616 22.1195C21.1013 20.153 21.6455 18.9975 22.1732 18.2059C22.3245 17.979 22.4634 17.8101 22.6005 17.6454ZM25.8219 26.4689C25.3843 26.4689 24.9469 26.7602 24.9469 27.3439C24.9469 31.3292 27.9564 33.3254 27.9564 33.3254C28.1039 33.4242 28.2752 33.4722 28.4452 33.4722C28.6153 33.4722 28.7865 33.4242 28.934 33.3254C28.934 33.3254 31.9435 31.3292 31.9435 27.3439C31.9435 26.7604 31.5061 26.4689 31.0685 26.4689C30.6309 26.4689 30.1935 26.7602 30.1935 27.3439C30.1935 29.736 28.8079 31.0823 28.4452 31.4472C28.0825 31.0823 26.6969 29.736 26.6969 27.3439C26.6969 26.7604 26.2595 26.4689 25.8219 26.4689ZM3.94521 36.9739H52.9436V41.3455C52.9436 41.8454 52.5719 42.2171 52.072 42.2171H4.82373C4.32386 42.2171 3.94531 41.8454 3.94531 41.3455L3.94521 36.9739ZM30.2431 38.7222L26.6508 38.724C25.5354 38.8573 25.612 40.4373 26.6935 40.4672H30.1952C31.3969 40.5733 31.4969 38.7463 30.2431 38.7222ZM23.537 45.6504C23.1858 45.6438 22.8641 45.8462 22.7201 46.1666C22.2988 47.0703 21.5439 48.1256 20.2404 49.2188H18.8202C17.3811 49.2188 16.1986 50.4098 16.1986 51.8489V53.5921C16.1969 54.0753 16.587 54.4686 17.0702 54.4705H39.8185C40.3044 54.4723 40.6988 54.078 40.6969 53.5921V51.8489C40.6969 50.4098 39.5076 49.2188 38.0685 49.2188H36.65C35.3467 48.1257 34.5916 47.0702 34.1703 46.1666C34.0221 45.8378 33.6878 45.6337 33.3278 45.6521C32.7027 45.6852 32.3123 46.3428 32.5844 46.9065C32.9255 47.6381 33.4464 48.423 34.1481 49.2188H22.7423C23.444 48.423 23.965 47.6381 24.3061 46.9065C24.5838 46.3327 24.1744 45.664 23.537 45.6504ZM18.8202 50.9706H38.0685C38.5684 50.9706 38.9469 51.349 38.9469 51.8489V52.7205H17.9486V51.8489C17.9486 51.349 18.3203 50.9706 18.8202 50.9706Z" fill="white"/>
<path d="M44.9879 35.2224C44.5683 32.7468 42.4091 30.8456 39.8174 30.8456C38.9873 30.8474 38.3015 31.012 37.6153 31.3293C37.0295 30.01 35.8758 28.9529 34.4623 28.4855C34.3601 28.4501 34.2522 28.4336 34.1444 28.4376C33.163 28.4743 32.9772 29.8509 33.9137 30.1465C35.0949 30.5371 36.0136 31.5411 36.255 32.8246C36.3772 33.47 37.1404 33.7556 37.6564 33.3492C38.2726 32.8625 39.0347 32.597 39.8199 32.5956C41.4586 32.5964 42.8104 33.7095 43.1969 35.2222L44.9879 35.2224Z" fill="#E6B400"/>
<path d="M13.6896 35.2222C14.076 33.7095 15.4279 32.5964 17.0665 32.5956C17.8517 32.5973 18.6139 32.8624 19.2301 33.3492C19.7461 33.7556 20.5093 33.4699 20.6315 32.8246C20.8729 31.5411 21.7915 30.5371 22.9728 30.1465C23.9093 29.8509 23.7234 28.4742 22.7421 28.4376C22.6342 28.4343 22.5264 28.4508 22.4242 28.4855C21.0106 28.9529 19.857 30.01 19.2711 31.3293C18.585 31.0121 17.8992 30.8471 17.0691 30.8456C14.4773 30.8456 12.318 32.7468 11.8984 35.2224L13.6896 35.2222Z" fill="#E6B400"/>
<path fill-rule="evenodd" clip-rule="evenodd" d="M27.8844 2.17255C28.0407 2.04324 28.2371 1.97107 28.4398 1.9707L28.4432 1.9709C28.6459 1.97124 28.8423 2.04176 28.9986 2.17074C28.9986 2.17074 34.5648 6.77985 34.5648 14.2174C34.5648 14.6541 34.55 15.0751 34.5255 15.4871C34.9374 15.7884 35.5654 16.3266 36.1712 17.2354C37.1458 18.6973 38.0682 21.0749 38.0682 24.7207C38.0681 25.644 36.8236 25.9378 36.4105 25.1121C36.4105 25.1121 35.3964 23.0649 32.8695 22.3436C32.2811 23.6387 31.7621 24.3704 31.7621 24.3704C31.597 24.5898 31.3391 24.7186 31.0648 24.719C30.2196 24.719 29.3757 24.7195 28.5319 24.7199C27.6278 24.7204 26.7237 24.7208 25.8182 24.7207C25.5439 24.7203 25.286 24.5914 25.1209 24.3722C25.1209 24.3722 24.6019 23.6404 24.0135 22.3453C21.4894 23.0675 20.4759 25.1121 20.4759 25.1121C20.0629 25.9378 18.8184 25.644 18.8182 24.7207C18.8182 21.0749 19.7407 18.6973 20.7152 17.2355C21.3191 16.3296 21.9453 15.7926 22.3575 15.4906C22.3331 15.0781 22.3182 14.6565 22.3182 14.2192C22.3182 6.78167 27.8844 2.17255 27.8844 2.17255ZM30.3076 6.34395C29.5298 5.17711 28.7867 4.37822 28.4431 4.06074L28.4433 4.06589L28.4397 4.06418C28.0961 4.38175 27.3537 5.17933 26.5769 6.34395H30.3076ZM31.3057 8.0957H25.5789C24.7501 9.75747 24.0681 11.8224 24.0681 14.219C24.0681 19.6574 26.022 22.53 26.3342 22.9707C27.0133 22.9707 27.6911 22.9703 28.3689 22.9699C29.095 22.9694 29.821 22.9689 30.5486 22.969C30.8608 22.5282 32.8147 19.6557 32.8147 14.2173C32.8147 11.8218 32.1337 9.75734 31.3057 8.0957ZM25.8181 14.219C25.8181 12.7796 27.0003 11.5956 28.4397 11.5956C29.8791 11.5957 31.0698 12.7796 31.0698 14.219C31.0698 15.6583 29.8791 16.8473 28.4397 16.8473C27.0003 16.8473 25.8181 15.6583 25.8181 14.219ZM29.3181 14.219C29.3181 13.7254 28.9333 13.3474 28.4397 13.3474C27.9461 13.3474 27.5681 13.7253 27.5681 14.219C27.5681 14.7126 27.9461 15.0974 28.4397 15.0974C28.9333 15.0974 29.3181 14.7126 29.3181 14.219ZM34.7151 18.206C34.5628 17.9776 34.4223 17.8075 34.2844 17.6421C34.0893 18.8192 33.8085 19.8295 33.5068 20.7165C34.5752 21.0518 35.4613 21.5758 36.1267 22.1196C35.787 20.1531 35.2428 18.9976 34.7151 18.206ZM23.376 20.7165C23.0746 19.8303 22.7933 18.8211 22.5984 17.6454C22.4613 17.8101 22.3224 17.979 22.1711 18.2059C21.6434 18.9975 21.0992 20.153 20.7595 22.1195C21.4243 21.5763 22.3089 21.0519 23.376 20.7165Z" fill="#E6B400"/>
</svg>
