<svg width="52" height="52" viewBox="0 0 52 52" fill="none" xmlns="http://www.w3.org/2000/svg">
<path d="M48.1406 2.96973H3.85938C2.83616 2.97088 1.85518 3.37787 1.13166 4.10139C0.408139 4.82491 0.00115589 5.80589 0 6.8291L0 39.7952C0.00115589 40.8184 0.408139 41.7994 1.13166 42.5229C1.85518 43.2464 2.83616 43.6534 3.85938 43.6545H7.3125V48.2173C7.3125 48.4328 7.3981 48.6395 7.55048 48.7919C7.70285 48.9442 7.90951 49.0298 8.125 49.0298H14.3732C14.5887 49.0298 14.7954 48.9442 14.9478 48.7919C15.1001 48.6395 15.1857 48.4328 15.1857 48.2173V43.6544H17.1464V48.2172C17.1464 48.4327 17.232 48.6394 17.3844 48.7918C17.5367 48.9441 17.7434 49.0297 17.9589 49.0297H24.2072C24.4227 49.0297 24.6294 48.9441 24.7817 48.7918C24.9341 48.6394 25.0197 48.4327 25.0197 48.2172V43.6544H26.9799V48.2172C26.9799 48.4327 27.0655 48.6394 27.2179 48.7918C27.3702 48.9441 27.5769 49.0297 27.7924 49.0297H34.0407C34.2562 49.0297 34.4629 48.9441 34.6152 48.7918C34.7676 48.6394 34.8532 48.4327 34.8532 48.2172V43.6544H36.8134V48.2172C36.8134 48.4327 36.899 48.6394 37.0513 48.7918C37.2037 48.9441 37.4104 49.0297 37.6259 49.0297H43.875C44.0905 49.0297 44.2972 48.9441 44.4495 48.7918C44.6019 48.6394 44.6875 48.4327 44.6875 48.2172V43.6544H48.1406C49.1638 43.6533 50.1448 43.2463 50.8683 42.5228C51.5919 41.7993 51.9988 40.8183 52 39.7951V6.8291C51.9988 5.80589 51.5919 4.82491 50.8683 4.10139C50.1448 3.37787 49.1638 2.97088 48.1406 2.96973ZM3.85938 4.59473H48.1406C48.733 4.5954 49.3009 4.83102 49.7198 5.2499C50.1387 5.66878 50.3743 6.23671 50.375 6.8291V13.7059H1.625V6.8291C1.62567 6.23671 1.86129 5.66878 2.28018 5.2499C2.69906 4.83102 3.26699 4.5954 3.85938 4.59473ZM13.5607 47.4047H8.9375V38.8437H13.5607V47.4047ZM23.3947 47.4047H18.7714V32.0135H23.3947V47.4047ZM33.2286 47.4047H28.6053V35.1349H33.2286V47.4047ZM43.0625 47.4047H38.4392V24.9797H43.0625V47.4047ZM48.1406 42.0294H44.6875V24.1674C44.6875 23.952 44.6019 23.7453 44.4495 23.5929C44.2972 23.4405 44.0905 23.3549 43.875 23.3549H37.6267C37.4112 23.3549 37.2045 23.4405 37.0521 23.5929C36.8998 23.7453 36.8142 23.952 36.8142 24.1674V42.0294H34.854V34.3224C34.854 34.1069 34.7684 33.9002 34.616 33.7479C34.4637 33.5955 34.257 33.5099 34.0415 33.5099H27.7928C27.5773 33.5099 27.3706 33.5955 27.2183 33.7479C27.0659 33.9002 26.9803 34.1069 26.9803 34.3224V42.0294H25.0201V31.201C25.0201 30.9855 24.9345 30.7788 24.7821 30.6264C24.6298 30.4741 24.4231 30.3885 24.2076 30.3885H17.9589C17.7434 30.3885 17.5367 30.4741 17.3844 30.6264C17.232 30.7788 17.1464 30.9855 17.1464 31.201V42.0294H15.1857V38.0312C15.1857 37.8157 15.1001 37.6091 14.9478 37.4567C14.7954 37.3043 14.5887 37.2187 14.3732 37.2187H8.125C7.90951 37.2187 7.70285 37.3043 7.55048 37.4567C7.3981 37.6091 7.3125 37.8157 7.3125 38.0312V42.0294H3.85938C3.26698 42.0288 2.69903 41.7932 2.28015 41.3743C1.86126 40.9554 1.62565 40.3875 1.625 39.7951V15.3309H50.375V39.7952C50.3743 40.3875 50.1387 40.9555 49.7198 41.3743C49.3009 41.7932 48.733 42.0288 48.1406 42.0294ZM8.04609 11.6763C8.54568 11.6763 9.03404 11.5281 9.44943 11.2505C9.86481 10.9729 10.1886 10.5784 10.3797 10.1168C10.5709 9.65527 10.6209 9.14737 10.5234 8.65738C10.4259 8.1674 10.1853 7.71732 9.832 7.36408C9.47871 7.01084 9.02861 6.77029 8.53861 6.67286C8.04861 6.57542 7.54073 6.62548 7.07918 6.8167C6.61763 7.00792 6.22315 7.33171 5.94562 7.74712C5.66809 8.16254 5.51998 8.65092 5.52002 9.15052C5.52086 9.82019 5.78727 10.4622 6.26083 10.9357C6.73439 11.4092 7.37642 11.6755 8.04609 11.6763ZM8.04609 8.24935C8.22427 8.24937 8.39844 8.30222 8.54658 8.40123C8.69473 8.50023 8.81019 8.64093 8.87837 8.80555C8.94656 8.97017 8.96439 9.15131 8.92964 9.32607C8.89488 9.50083 8.80908 9.66135 8.6831 9.78735C8.55711 9.91335 8.39659 9.99917 8.22184 10.0339C8.04709 10.0687 7.86595 10.0509 7.70132 9.98274C7.53669 9.91458 7.39597 9.79913 7.29695 9.651C7.19794 9.50286 7.14506 9.3287 7.14502 9.15052C7.14527 8.9116 7.24027 8.68255 7.4092 8.5136C7.57813 8.34465 7.80717 8.24962 8.04609 8.24935ZM14.5654 11.6763C15.065 11.6763 15.5533 11.5281 15.9687 11.2505C16.3841 10.9729 16.7079 10.5784 16.899 10.1168C17.0902 9.65527 17.1402 9.14737 17.0427 8.65738C16.9452 8.1674 16.7046 7.71732 16.3513 7.36408C15.998 7.01084 15.5479 6.77029 15.0579 6.67286C14.5679 6.57542 14.06 6.62548 13.5985 6.8167C13.1369 7.00792 12.7424 7.33171 12.4649 7.74712C12.1874 8.16254 12.0393 8.65092 12.0393 9.15052C12.0402 9.82019 12.3066 10.4622 12.7801 10.9357C13.2537 11.4092 13.8957 11.6755 14.5654 11.6763ZM14.5654 8.24935C14.7436 8.24937 14.9178 8.30223 15.0659 8.40124C15.2141 8.50025 15.3295 8.64097 15.3977 8.8056C15.4659 8.97023 15.4837 9.15138 15.4489 9.32614C15.4141 9.50091 15.3283 9.66143 15.2023 9.78742C15.0763 9.91342 14.9158 9.99921 14.741 10.034C14.5662 10.0687 14.3851 10.0509 14.2205 9.98268C14.0559 9.91449 13.9151 9.79901 13.8162 9.65085C13.7172 9.50269 13.6643 9.3285 13.6643 9.15031C13.6646 8.91143 13.7596 8.68241 13.9285 8.5135C14.0975 8.34459 14.3265 8.24959 14.5654 8.24935ZM21.0847 11.6763C21.5843 11.6763 22.0726 11.5281 22.488 11.2505C22.9034 10.9729 23.2271 10.5784 23.4183 10.1168C23.6095 9.65527 23.6595 9.14737 23.562 8.65738C23.4645 8.1674 23.2239 7.71732 22.8706 7.36408C22.5173 7.01084 22.0672 6.77029 21.5772 6.67286C21.0872 6.57542 20.5793 6.62548 20.1178 6.8167C19.6562 7.00792 19.2617 7.33171 18.9842 7.74712C18.7067 8.16254 18.5586 8.65092 18.5586 9.15052C18.5595 9.82013 18.8258 10.4621 19.2993 10.9356C19.7728 11.4091 20.4148 11.6754 21.0844 11.6763H21.0847ZM21.0847 8.24935C21.2629 8.24937 21.437 8.30223 21.5852 8.40124C21.7333 8.50025 21.8488 8.64097 21.917 8.8056C21.9852 8.97023 22.003 9.15138 21.9682 9.32614C21.9334 9.50091 21.8476 9.66143 21.7216 9.78742C21.5956 9.91342 21.4351 9.99921 21.2603 10.034C21.0855 10.0687 20.9044 10.0509 20.7398 9.98268C20.5751 9.91449 20.4344 9.79901 20.3354 9.65085C20.2365 9.50269 20.1836 9.3285 20.1836 9.15031C20.1839 8.91149 20.2789 8.68253 20.4478 8.51364C20.6166 8.34474 20.8456 8.2497 21.0844 8.24935H21.0847ZM33.0193 9.15052C33.0193 8.93503 33.1049 8.72836 33.2573 8.57599C33.4096 8.42362 33.6163 8.33802 33.8318 8.33802H45.6674C45.8829 8.33802 46.0895 8.42362 46.2419 8.57599C46.3943 8.72836 46.4799 8.93503 46.4799 9.15052C46.4799 9.366 46.3943 9.57267 46.2419 9.72504C46.0895 9.87741 45.8829 9.96302 45.6674 9.96302H33.8318C33.6163 9.96302 33.4096 9.87741 33.2573 9.72504C33.1049 9.57267 33.0193 9.366 33.0193 9.15052ZM41.7987 17.7887V21.338C41.7987 21.5535 41.7131 21.7602 41.5607 21.9125C41.4083 22.0649 41.2016 22.1505 40.9862 22.1505C40.7707 22.1505 40.564 22.0649 40.4116 21.9125C40.2593 21.7602 40.1737 21.5535 40.1737 21.338V19.9047L31.497 28.7478C31.3918 28.855 31.2589 28.931 31.1131 28.9672C30.9673 29.0035 30.8143 28.9986 30.6712 28.9532L21.2182 25.9527L11.7126 32.5549C11.625 32.6167 11.526 32.6605 11.4214 32.6839C11.3168 32.7072 11.2085 32.7097 11.103 32.691C10.9974 32.6724 10.8965 32.633 10.8063 32.5752C10.716 32.5174 10.638 32.4423 10.5769 32.3543C10.5157 32.2662 10.4726 32.1669 10.45 32.0621C10.4274 31.9573 10.4258 31.8491 10.4453 31.7436C10.4647 31.6382 10.5048 31.5376 10.5633 31.4478C10.6217 31.3579 10.6974 31.2805 10.7859 31.22L20.6198 24.3897C20.722 24.3187 20.8391 24.2722 20.962 24.2536C21.085 24.2351 21.2106 24.245 21.3291 24.2826L30.687 27.2529L39.1765 18.6007H37.4369C37.2214 18.6007 37.0147 18.5151 36.8623 18.3627C36.71 18.2104 36.6244 18.0037 36.6244 17.7882C36.6244 17.5727 36.71 17.3661 36.8623 17.2137C37.0147 17.0613 37.2214 16.9757 37.4369 16.9757H40.9862C41.0929 16.9757 41.1986 16.9967 41.2972 17.0376C41.3958 17.0784 41.4853 17.1383 41.5608 17.2138C41.6362 17.2893 41.6961 17.3789 41.7369 17.4775C41.7777 17.5761 41.7987 17.6818 41.7987 17.7885V17.7887Z" fill="white"/>
<path fill-rule="evenodd" clip-rule="evenodd" d="M8.04559 11.675C8.54519 11.6749 9.03355 11.5268 9.44894 11.2492C9.86432 10.9716 10.1881 10.5771 10.3792 10.1155C10.5704 9.65396 10.6204 9.14607 10.5229 8.65608C10.4254 8.16609 10.1848 7.71602 9.83151 7.36278C9.47822 7.00953 9.02812 6.76899 8.53812 6.67155C8.04812 6.57412 7.54023 6.62418 7.07868 6.81539C6.61713 7.00661 6.22265 7.3304 5.94513 7.74582C5.6676 8.16124 5.51949 8.64962 5.51953 9.14921C5.52036 9.81888 5.78678 10.4609 6.26034 10.9344C6.73389 11.4079 7.37592 11.6742 8.04559 11.675ZM8.04559 8.24805C8.22377 8.24807 8.39795 8.30092 8.54609 8.39992C8.69424 8.49892 8.8097 8.63963 8.87788 8.80425C8.94606 8.96887 8.9639 9.15001 8.92914 9.32476C8.89438 9.49952 8.80859 9.66005 8.6826 9.78605C8.55662 9.91205 8.3961 9.99786 8.22135 10.0326C8.0466 10.0674 7.86545 10.0496 7.70083 9.98144C7.5362 9.91327 7.39548 9.79783 7.29646 9.64969C7.19744 9.50156 7.14457 9.32739 7.14453 9.14921C7.14477 8.9103 7.23978 8.68124 7.40871 8.5123C7.57763 8.34335 7.80668 8.24832 8.04559 8.24805ZM33.0188 9.14921C33.0188 8.93372 33.1044 8.72706 33.2568 8.57469C33.4091 8.42231 33.6158 8.33671 33.8313 8.33671H45.6669C45.8824 8.33671 46.089 8.42231 46.2414 8.57469C46.3938 8.72706 46.4794 8.93372 46.4794 9.14921C46.4794 9.3647 46.3938 9.57136 46.2414 9.72374C46.089 9.87611 45.8824 9.96171 45.6669 9.96171H33.8313C33.6158 9.96171 33.4091 9.87611 33.2568 9.72374C33.1044 9.57136 33.0188 9.3647 33.0188 9.14921ZM41.7982 17.7874V21.3367C41.7982 21.5522 41.7126 21.7589 41.5602 21.9112C41.4078 22.0636 41.2012 22.1492 40.9857 22.1492C40.7702 22.1492 40.5635 22.0636 40.4111 21.9112C40.2588 21.7589 40.1732 21.5522 40.1732 21.3367V19.9034L31.4965 28.7465C31.3913 28.8537 31.2584 28.9297 31.1126 28.9659C30.9668 29.0022 30.8139 28.9973 30.6707 28.9519L21.2177 25.9514L11.7121 32.5536C11.6245 32.6154 11.5255 32.6592 11.4209 32.6826C11.3163 32.7059 11.208 32.7084 11.1025 32.6897C10.9969 32.6711 10.8961 32.6317 10.8058 32.5739C10.7155 32.5161 10.6375 32.441 10.5764 32.3529C10.5152 32.2649 10.4721 32.1656 10.4495 32.0608C10.427 31.956 10.4253 31.8477 10.4448 31.7423C10.4642 31.6369 10.5043 31.5363 10.5628 31.4465C10.6213 31.3566 10.6969 31.2792 10.7854 31.2187L20.6193 24.3884C20.7215 24.3174 20.8386 24.2709 20.9615 24.2523C21.0845 24.2338 21.2101 24.2437 21.3286 24.2813L30.6865 27.2516L39.176 18.5994H37.4364C37.2209 18.5994 37.0142 18.5138 36.8618 18.3614C36.7095 18.2091 36.6239 18.0024 36.6239 17.7869C36.6239 17.5714 36.7095 17.3647 36.8618 17.2124C37.0142 17.06 37.2209 16.9744 37.4364 16.9744H40.9857C41.0924 16.9744 41.1981 16.9954 41.2967 17.0363C41.3953 17.0771 41.4848 17.137 41.5603 17.2125C41.6357 17.288 41.6956 17.3776 41.7364 17.4762C41.7772 17.5748 41.7982 17.6807 41.7982 17.7874Z" fill="#E6B400"/>
<path fill-rule="evenodd" clip-rule="evenodd" d="M7.31201 43.6532V48.216C7.31201 48.4315 7.39761 48.6382 7.54998 48.7906C7.70236 48.9429 7.90902 49.0285 8.12451 49.0285H14.3727C14.5882 49.0285 14.7949 48.9429 14.9473 48.7906C15.0996 48.6382 15.1852 48.4315 15.1852 48.216V43.6531H17.1459V48.2159C17.1459 48.4314 17.2315 48.6381 17.3839 48.7905C17.5362 48.9428 17.7429 49.0284 17.9584 49.0284H24.2067C24.4222 49.0284 24.6289 48.9428 24.7812 48.7905C24.9336 48.6381 25.0192 48.4314 25.0192 48.2159V43.6531H26.9794V48.2159C26.9794 48.4314 27.065 48.6381 27.2174 48.7905C27.3697 48.9428 27.5764 49.0284 27.7919 49.0284H34.0402C34.2557 49.0284 34.4624 48.9428 34.6147 48.7905C34.7671 48.6381 34.8527 48.4314 34.8527 48.2159V43.6531H36.8129V48.2159C36.8129 48.4314 36.8985 48.6381 37.0508 48.7905C37.2032 48.9428 37.4099 49.0284 37.6254 49.0284H43.8745C44.09 49.0284 44.2967 48.9428 44.449 48.7905C44.6014 48.6381 44.687 48.4314 44.687 48.2159V43.6531V42.0281V24.1661C44.687 23.9507 44.6014 23.744 44.449 23.5916C44.2967 23.4392 44.09 23.3536 43.8745 23.3536H37.6262C37.4107 23.3536 37.204 23.4392 37.0517 23.5916C36.8993 23.744 36.8137 23.9507 36.8137 24.1661V42.0281H34.8535V34.3211C34.8535 34.1056 34.7679 33.8989 34.6156 33.7465C34.4632 33.5942 34.2565 33.5086 34.041 33.5086H27.7923C27.5768 33.5086 27.3701 33.5942 27.2178 33.7465C27.0654 33.8989 26.9798 34.1056 26.9798 34.3211V42.0281H25.0196V31.1996C25.0196 30.9842 24.934 30.7775 24.7817 30.6251C24.6293 30.4727 24.4226 30.3871 24.2071 30.3871H17.9584C17.7429 30.3871 17.5362 30.4727 17.3839 30.6251C17.2315 30.7775 17.1459 30.9842 17.1459 31.1996V42.0281H15.1852V38.0299C15.1852 37.8144 15.0996 37.6078 14.9473 37.4554C14.7949 37.303 14.5882 37.2174 14.3727 37.2174H8.12451C7.90902 37.2174 7.70236 37.303 7.54998 37.4554C7.39761 37.6078 7.31201 37.8144 7.31201 38.0299V42.0281V43.6532ZM8.93701 47.4034H13.5602V38.8424H8.93701V47.4034ZM18.7709 47.4034H23.3942V32.0121H18.7709V47.4034ZM28.6048 47.4034H33.2281V35.1336H28.6048V47.4034ZM38.4387 47.4034H43.062V24.9784H38.4387V47.4034Z" fill="#E6B400"/>
</svg>
