<svg width="52" height="52" viewBox="0 0 52 52" fill="none" xmlns="http://www.w3.org/2000/svg">
<g clip-path="url(#clip0_1091_296809)">
<path d="M50.3748 28.0885H49.3313V20.4349C49.3313 19.9856 48.9672 19.6215 48.518 19.6215H41.5769C41.1277 19.6215 40.7636 19.9856 40.7636 20.4349V28.0885H37.5814C36.3028 25.862 34.3201 24.1654 32.0087 23.2152V17.4379C32.0087 16.9886 31.6446 16.6245 31.1954 16.6245H24.2572C23.808 16.6245 23.4439 16.9886 23.4439 17.4379V23.1747C21.1966 24.0716 19.2938 25.6575 17.9996 27.7368C17.9273 27.8529 17.858 27.9704 17.7902 28.0885H14.6891V24.9404C14.6891 24.4912 14.325 24.1271 13.8758 24.1271H6.93469C6.48547 24.1271 6.12137 24.4912 6.12137 24.9404V28.0885H5.07782C4.62861 28.0885 4.26451 28.4526 4.26451 28.9018C4.26451 29.351 4.62861 29.7151 5.07782 29.7151H17.0181C16.267 31.6846 16.0738 33.8289 16.4805 35.9295C16.6394 36.7442 16.2923 37.5064 15.5741 37.9196L12.9921 39.4089C12.7718 39.1953 12.4999 39.039 12.1943 38.9568C11.7203 38.829 11.2263 38.8933 10.8033 39.1376L1.73062 44.3761C0.854748 44.8789 0.552091 46.0021 1.05686 46.8814L3.01539 50.2743C3.35542 50.8605 3.97231 51.1882 4.60494 51.1882C4.91613 51.1882 5.23128 51.1089 5.5189 50.942L14.5948 45.7044C15.3168 45.2858 15.6459 44.4444 15.4527 43.6701L18.0334 42.1816C18.751 41.768 19.5848 41.8472 20.2099 42.3886C22.3152 44.2106 24.9735 45.1793 27.6854 45.1792C28.6704 45.1792 29.6626 45.0514 30.6376 44.7904C36.7145 43.1597 40.3342 36.891 38.7064 30.8163C38.6055 30.4396 38.4867 30.0724 38.3513 29.7152H50.375C50.8242 29.7152 51.1883 29.3511 51.1883 28.9019C51.1883 28.4527 50.8242 28.0886 50.375 28.0886L50.3748 28.0885ZM7.74779 25.7537H13.0624V28.0885H7.74779V25.7537ZM30.382 18.2512V22.6844C28.6864 22.2687 26.8739 22.2372 25.0704 22.6623V18.2512H30.382ZM13.7801 44.2965L4.70417 49.534C4.60606 49.5909 4.47961 49.5568 4.42315 49.4597L2.46644 46.0699C2.41008 45.9717 2.4439 45.842 2.54211 45.7857L11.6165 40.5461C11.6513 40.526 11.686 40.5199 11.7151 40.5199C11.738 40.5199 11.7575 40.5236 11.7712 40.5273C11.8022 40.5356 11.8593 40.5589 11.8962 40.6229L13.6835 43.7147C13.6885 43.7242 13.6927 43.7338 13.698 43.743C13.7036 43.7527 13.7101 43.7615 13.716 43.771L13.8555 44.0123C13.9125 44.1117 13.878 44.2396 13.78 44.2965H13.7801ZM30.2163 43.2191C27.0785 44.0592 23.7357 43.289 21.2745 41.159C20.1278 40.1654 18.5365 40.0136 17.2205 40.7725L14.7014 42.2255L13.8668 40.7818L16.3857 39.3289C17.7047 38.5704 18.3685 37.1138 18.0771 35.6192C17.1063 30.6049 20.2142 25.641 25.1528 24.3182C30.3642 22.9224 35.7395 26.0262 37.135 31.2369C38.5307 36.4457 35.4268 41.8209 30.2163 43.2191ZM42.3901 21.2482H47.7046V28.0886H42.3901V21.2482ZM27.6859 25.6846C23.2276 25.6846 19.6004 29.3104 19.6004 33.7672C19.6004 38.2239 23.2275 41.8527 27.6859 41.8527C32.1443 41.8527 35.7686 38.2255 35.7686 33.7672C35.7686 29.3089 32.1427 25.6846 27.6859 25.6846ZM27.6859 40.2261C24.1245 40.2261 21.2271 37.3287 21.2271 33.7672C21.2271 30.2057 24.1245 27.3112 27.6859 27.3112C31.2473 27.3112 34.142 30.2074 34.142 33.7672C34.142 37.3269 31.2458 40.2261 27.6859 40.2261ZM6.64086 23.1051H14.1693C15.3829 23.1051 16.3702 22.1178 16.3702 20.9042V18.5837C16.3702 16.91 15.1601 15.4864 13.4849 14.9787C14.086 14.2723 14.4499 13.3579 14.4499 12.3594C14.4499 10.1282 12.636 8.31307 10.4065 8.31307C8.177 8.31307 6.36015 10.1282 6.36015 12.3594C6.36015 13.3578 6.72435 14.2721 7.3258 14.9785C5.65022 15.4861 4.4399 16.9099 4.4399 18.5837V20.9042C4.4399 22.1178 5.42729 23.1051 6.64086 23.1051ZM10.4065 9.9397C11.7392 9.9397 12.8234 11.0252 12.8234 12.3594C12.8234 13.6936 11.7392 14.7791 10.4065 14.7791C9.07379 14.7791 7.98677 13.6936 7.98677 12.3594C7.98677 11.0252 9.07227 9.9397 10.4065 9.9397ZM6.06653 18.5837C6.06653 17.3828 7.23724 16.4058 8.67628 16.4058H12.1339C13.5729 16.4058 14.7436 17.3828 14.7436 18.5837V20.9042C14.7436 21.2209 14.486 21.4785 14.1693 21.4785H6.64086C6.32419 21.4785 6.06653 21.2209 6.06653 20.9042V18.5837ZM48.3028 10.4732C48.904 9.76673 49.2679 8.85237 49.2679 7.85391C49.2679 5.6243 47.454 3.8105 45.2244 3.8105C42.9948 3.8105 41.178 5.6243 41.178 7.85391C41.178 8.85227 41.5422 9.76663 42.1437 10.473C40.4681 10.9806 39.2578 12.4044 39.2578 14.0782V16.4015C39.2578 17.6136 40.2451 18.5996 41.4586 18.5996H48.987C50.2006 18.5996 51.1879 17.6136 51.1879 16.4015V14.0782C51.1879 12.4046 49.9779 10.9809 48.3026 10.4732H48.3028ZM45.2244 5.43702C46.5571 5.43702 47.6412 6.5212 47.6412 7.85391C47.6412 9.18661 46.5571 10.2736 45.2244 10.2736C43.8917 10.2736 42.8046 9.18813 42.8046 7.85391C42.8046 6.51968 43.8901 5.43702 45.2244 5.43702ZM49.5615 16.4015C49.5615 16.7167 49.3039 16.973 48.9873 16.973H41.4588C41.1422 16.973 40.8845 16.7167 40.8845 16.4015V14.0782C40.8845 12.8773 42.0552 11.9003 43.4942 11.9003H46.9518C48.3908 11.9003 49.5615 12.8773 49.5615 14.0782V16.4015ZM23.9635 15.6026H31.4919C32.7055 15.6026 33.6929 14.6152 33.6929 13.4017V11.0783C33.6929 9.40639 32.4825 7.98401 30.8066 7.4764C31.4083 6.76993 31.7726 5.85546 31.7726 4.8569C31.7726 2.62567 29.9574 0.810547 27.7263 0.810547C25.4951 0.810547 23.6828 2.62567 23.6828 4.8569C23.6828 5.85526 24.0467 6.76962 24.6478 7.47609C22.9726 7.9835 21.7625 9.40598 21.7625 11.0783V13.4017C21.7625 14.6152 22.7499 15.6026 23.9635 15.6026ZM27.7263 2.43717C29.0605 2.43717 30.146 3.52267 30.146 4.8569C30.146 6.19112 29.0605 7.27663 27.7263 7.27663C26.392 7.27663 25.3094 6.19112 25.3094 4.8569C25.3094 3.52267 26.3936 2.43717 27.7263 2.43717ZM23.3891 11.0783C23.3891 9.87896 24.5598 8.90325 25.9989 8.90325H29.4536C30.8943 8.90325 32.0663 9.87896 32.0663 11.0783V13.4017C32.0663 13.7183 31.8087 13.976 31.492 13.976H23.9636C23.6469 13.976 23.3892 13.7183 23.3892 13.4017V11.0783H23.3891Z" fill="white"/>
<path d="M27.6874 25.6866C23.2291 25.6866 19.6019 29.3124 19.6019 33.7691C19.6019 38.2259 23.229 41.8546 27.6874 41.8546C32.1458 41.8546 35.7701 38.2274 35.7701 33.7691C35.7701 29.3108 32.1442 25.6866 27.6874 25.6866ZM27.6874 40.2281C24.126 40.2281 21.2286 37.3306 21.2286 33.7691C21.2286 30.2076 24.126 27.3132 27.6874 27.3132C31.2488 27.3132 34.1435 30.2094 34.1435 33.7691C34.1435 37.3289 31.2473 40.2281 27.6874 40.2281ZM6.64237 23.1071H14.1708C15.3844 23.1071 16.3717 22.1197 16.3717 20.9061V18.5856C16.3717 16.912 15.1616 15.4884 13.4864 14.9807C14.0875 14.2742 14.4514 13.3598 14.4514 12.3614C14.4514 10.1301 12.6375 8.31502 10.408 8.31502C8.1785 8.31502 6.36165 10.1301 6.36165 12.3614C6.36165 13.3597 6.72585 14.2741 7.3273 14.9805C5.65173 15.4881 4.44141 16.9119 4.44141 18.5856V20.9061C4.44141 22.1197 5.4288 23.1071 6.64237 23.1071ZM10.408 9.94165C11.7407 9.94165 12.8249 11.0271 12.8249 12.3614C12.8249 13.6956 11.7407 14.7811 10.408 14.7811C9.0753 14.7811 7.98827 13.6956 7.98827 12.3614C7.98827 11.0271 9.07377 9.94165 10.408 9.94165ZM6.06803 18.5856C6.06803 17.3848 7.23874 16.4077 8.67778 16.4077H12.1354C13.5744 16.4077 14.7451 17.3848 14.7451 18.5856V20.9061C14.7451 21.2228 14.4875 21.4805 14.1708 21.4805H6.64237C6.3257 21.4805 6.06803 21.2228 6.06803 20.9061V18.5856ZM48.3043 10.4752C48.9055 9.76869 49.2694 8.85432 49.2694 7.85586C49.2694 5.62626 47.4555 3.81245 45.2259 3.81245C42.9963 3.81245 41.1795 5.62626 41.1795 7.85586C41.1795 8.85422 41.5437 9.76859 42.1452 10.475C40.4696 10.9826 39.2593 12.4064 39.2593 14.0801V16.4035C39.2593 17.6155 40.2466 18.6016 41.4601 18.6016H48.9885C50.2021 18.6016 51.1894 17.6155 51.1894 16.4035V14.0801C51.1894 12.4066 49.9796 10.9829 48.3043 10.4752ZM45.2259 5.43898C46.5586 5.43898 47.6427 6.52316 47.6427 7.85586C47.6427 9.18856 46.5586 10.2756 45.2259 10.2756C43.8932 10.2756 42.8061 9.19009 42.8061 7.85586C42.8061 6.52163 43.8916 5.43898 45.2259 5.43898ZM49.563 16.4035C49.563 16.7186 49.3054 16.975 48.9888 16.975H41.4603C41.1437 16.975 40.886 16.7186 40.886 16.4035V14.0801C40.886 12.8792 42.0567 11.9022 43.4957 11.9022H46.9533C48.3923 11.9022 49.563 12.8792 49.563 14.0801V16.4035ZM23.965 15.6046H31.4934C32.707 15.6046 33.6944 14.6172 33.6944 13.4036V11.0803C33.6944 9.40834 32.484 7.98596 30.8082 7.47835C31.4098 6.77188 31.7741 5.85741 31.7741 4.85885C31.7741 2.62762 29.9589 0.8125 27.7278 0.8125C25.4966 0.8125 23.6844 2.62762 23.6844 4.85885C23.6844 5.85721 24.0483 6.77158 24.6493 7.47805C22.9741 7.98545 21.764 9.40794 21.764 11.0803V13.4036C21.764 14.6172 22.7514 15.6046 23.965 15.6046ZM27.7278 2.43913C29.062 2.43913 30.1475 3.52462 30.1475 4.85885C30.1475 6.19308 29.062 7.27858 27.7278 7.27858C26.3935 7.27858 25.3109 6.19308 25.3109 4.85885C25.3109 3.52462 26.3951 2.43913 27.7278 2.43913ZM23.3906 11.0803C23.3906 9.88091 24.5613 8.9052 26.0004 8.9052H29.4551C30.8958 8.9052 32.0678 9.88091 32.0678 11.0803V13.4036C32.0678 13.7203 31.8102 13.9779 31.4935 13.9779H23.9651C23.6484 13.9779 23.3907 13.7203 23.3907 13.4036L23.3906 11.0803Z" fill="#E6B400"/>
</g>
<defs>
<clipPath id="clip0_1091_296809">
<rect width="52" height="52" fill="white"/>
</clipPath>
</defs>
</svg>
