<svg width="32" height="32" viewBox="0 0 32 32" fill="none" xmlns="http://www.w3.org/2000/svg">
<path d="M10.53 5C10.53 4.79295 10.3621 4.625 10.155 4.625H7C5.69045 4.625 4.625 5.69045 4.625 7V16.8101C4.625 17.0171 4.79295 17.1851 5 17.1851C5.20705 17.1851 5.375 17.0171 5.375 16.8101V7C5.375 6.104 6.104 5.375 7 5.375H10.155C10.3621 5.375 10.53 5.20705 10.53 5Z" fill="white"/>
<path d="M24 20.4751C23.7929 20.4751 23.625 20.643 23.625 20.8501V28C23.625 28.896 22.896 29.625 22 29.625H7C6.104 29.625 5.375 28.896 5.375 28V18.935C5.375 18.728 5.20705 18.56 5 18.56C4.79295 18.56 4.625 18.728 4.625 18.935V26.625H4C3.104 26.625 2.375 25.896 2.375 25V4C2.375 3.104 3.104 2.375 4 2.375H12.8101C13.0171 2.375 13.1851 2.20705 13.1851 2C13.1851 1.79295 13.0171 1.625 12.8101 1.625H4C2.69045 1.625 1.625 2.69045 1.625 4V25C1.625 26.3095 2.69045 27.375 4 27.375H4.625V28C4.625 29.3095 5.69045 30.375 7 30.375H22C23.3095 30.375 24.375 29.3095 24.375 28V20.8501C24.375 20.643 24.2071 20.4751 24 20.4751Z" fill="white"/>
<path d="M8.5 27.375H10.5C10.9824 27.375 11.375 26.9824 11.375 26.5V23C11.375 22.5176 10.9824 22.125 10.5 22.125H8.5C8.0176 22.125 7.625 22.5176 7.625 23V26.5C7.625 26.9824 8.0176 27.375 8.5 27.375ZM8.375 23C8.375 22.9312 8.43115 22.875 8.5 22.875H10.5C10.5689 22.875 10.625 22.9312 10.625 23V26.5C10.625 26.5689 10.5689 26.625 10.5 26.625H8.5C8.43115 26.625 8.375 26.5689 8.375 26.5V23Z" fill="white"/>
<path d="M12.625 19.75V26.5C12.625 26.9824 13.0176 27.375 13.5 27.375H15.5C15.9824 27.375 16.375 26.9824 16.375 26.5V19.75C16.375 19.2676 15.9824 18.875 15.5 18.875H13.5C13.0176 18.875 12.625 19.2676 12.625 19.75ZM13.375 19.75C13.375 19.6812 13.4312 19.625 13.5 19.625H15.5C15.5689 19.625 15.625 19.6812 15.625 19.75V26.5C15.625 26.5689 15.5689 26.625 15.5 26.625H13.5C13.4312 26.625 13.375 26.5689 13.375 26.5V19.75Z" fill="white"/>
<path d="M18.5 27.375H20.5C20.9824 27.375 21.375 26.9824 21.375 26.5V19.7549C21.375 19.5478 21.2071 19.3799 21 19.3799C20.7929 19.3799 20.625 19.5478 20.625 19.7549V26.5C20.625 26.5678 20.5679 26.625 20.5 26.625H18.5C18.4322 26.625 18.375 26.5678 18.375 26.5V19.9651C18.375 19.758 18.207 19.5901 18 19.5901C17.793 19.5901 17.625 19.758 17.625 19.9651V26.5C17.625 26.9824 18.0176 27.375 18.5 27.375Z" fill="white"/>
<path d="M24.8152 5.09085C24.711 5.09085 24.6077 5.0479 24.5335 4.96365C24.366 4.7732 24.1861 4.5884 23.9986 4.41435C23.847 4.2735 23.8382 4.0362 23.9793 3.8843C24.1201 3.73245 24.3574 3.72415 24.5093 3.865C24.7149 4.05615 24.9126 4.25905 25.0965 4.46805C25.2334 4.62355 25.2183 4.86065 25.0628 4.99735C24.9915 5.0601 24.9031 5.09085 24.8152 5.09085Z" fill="#E6B400"/>
<path d="M29.6802 17.51L26.1653 13.9985C26.8142 12.8096 27.1836 11.4472 27.1836 10C27.1836 8.46385 26.7642 6.96165 25.9705 5.656C25.8626 5.47875 25.6316 5.4236 25.4551 5.53025C25.2781 5.6379 25.2219 5.86865 25.3293 6.04565C26.0517 7.2339 26.4336 8.6013 26.4336 10C26.4336 14.2043 23.0129 17.625 18.8086 17.625C14.6042 17.625 11.1836 14.2043 11.1836 10C11.1836 5.79565 14.6042 2.375 18.8086 2.375C20.2136 2.375 21.5864 2.76025 22.779 3.489C22.9555 3.5964 23.1865 3.54125 23.2946 3.3645C23.4025 3.18775 23.3469 2.95705 23.1701 2.8489C21.8598 2.04835 20.3515 1.625 18.8086 1.625C14.1907 1.625 10.4336 5.3821 10.4336 10C10.4336 14.6179 14.1907 18.375 18.8086 18.375C20.2558 18.375 21.6183 18.0055 22.8073 17.3566L26.3213 20.8703C26.77 21.3191 27.3664 21.5664 28.001 21.5664C28.6355 21.5664 29.2319 21.3191 29.6807 20.8703C30.1296 20.4216 30.3767 19.8249 30.3765 19.1901C30.3765 18.5554 30.1292 17.9587 29.6802 17.51ZM29.1504 20.3401C28.5362 20.9543 27.4659 20.9543 26.8516 20.3401L23.4668 16.9555C24.3735 16.3463 25.1549 15.565 25.7641 14.6583L29.1499 18.0405C29.4573 18.3477 29.6265 18.7561 29.6265 19.1902C29.6267 19.6245 29.4575 20.0329 29.1504 20.3401Z" fill="#E6B400"/>
<path d="M18.8086 3.625C15.2934 3.625 12.4336 6.48485 12.4336 10C12.4336 13.5152 15.2934 16.375 18.8086 16.375C22.3237 16.375 25.1836 13.5152 25.1836 10C25.1836 6.48485 22.3237 3.625 18.8086 3.625ZM18.8086 15.625C15.707 15.625 13.1836 13.1016 13.1836 10C13.1836 6.89845 15.707 4.375 18.8086 4.375C21.9101 4.375 24.4336 6.89845 24.4336 10C24.4336 13.1016 21.9101 15.625 18.8086 15.625Z" fill="#E6B400"/>
</svg>
