<svg width="52" height="52" viewBox="0 0 52 52" fill="none" xmlns="http://www.w3.org/2000/svg">
<path fill-rule="evenodd" clip-rule="evenodd" d="M28.3779 23.4862C28.1399 23.2476 27.754 23.2476 27.5163 23.4862L25.4329 25.5692C25.195 25.8069 25.195 26.1929 25.4329 26.4304L27.5163 28.5136C27.6351 28.6334 27.7912 28.6923 27.947 28.6923C28.1028 28.6923 28.259 28.6333 28.3779 28.5136C28.6159 28.2758 28.6159 27.8899 28.3779 27.6523L26.7257 25.9999L28.3779 24.3475C28.6159 24.1098 28.6159 23.7238 28.3779 23.4862ZM32.7239 20.1945C32.3988 20.1083 32.0646 20.3001 31.9776 20.6252L29.1819 31.0586C29.095 31.3837 29.2879 31.7178 29.613 31.8051C29.6656 31.8195 29.7189 31.8254 29.7711 31.8254C30.04 31.8254 30.2864 31.6467 30.3591 31.3746L33.1548 20.941C33.242 20.6161 33.049 20.2818 32.7239 20.1945ZM33.9588 23.4862C33.7208 23.7238 33.7208 24.1097 33.9588 24.3476L35.611 26L33.9588 27.6524C33.7208 27.89 33.7208 28.2759 33.9588 28.5137C34.0778 28.6335 34.2337 28.6924 34.3897 28.6924C34.5457 28.6924 34.7018 28.6334 34.8206 28.5137L36.9038 26.4305C37.1418 26.193 37.1418 25.807 36.9038 25.5693L34.8206 23.4863C34.5827 23.2476 34.1967 23.2476 33.9588 23.4862ZM38.5876 25.9999C38.5876 30.0908 35.2593 33.4191 31.1684 33.4191C27.0775 33.4191 23.7491 30.0908 23.7491 25.9999C23.7491 21.9091 27.0774 18.5808 31.1684 18.5808C35.2593 18.5808 38.5876 21.9091 38.5876 25.9999ZM39.8061 25.9999C39.8061 30.7632 35.9312 34.6377 31.1684 34.6377C26.4054 34.6377 22.5305 30.7632 22.5305 25.9999C22.5305 21.2366 26.4054 17.362 31.1684 17.362C35.9312 17.3621 39.8061 21.2366 39.8061 25.9999ZM48.444 25.9999C48.444 26.5992 48.4129 27.2034 48.3511 27.7965C48.2845 28.4374 47.7899 28.9269 47.1481 28.9869L44.5633 29.2265C43.6843 29.3088 42.9309 29.8654 42.5972 30.6809C42.2638 31.4955 42.41 32.4207 42.9791 33.0952L44.6523 35.0787C45.0677 35.5713 45.077 36.267 44.6751 36.7706C43.8981 37.7437 43.0141 38.6354 42.0471 39.4204C41.5467 39.8266 40.8508 39.8226 40.3552 39.4112L38.3579 37.7537C37.6785 37.1902 36.7522 37.0509 35.9401 37.3912C35.1281 37.7314 34.5773 38.4891 34.5028 39.3687L34.2831 41.9565C34.2285 42.5984 33.743 43.0969 33.1021 43.1692C31.8721 43.3053 30.6056 43.3114 29.3714 43.1824C28.7306 43.1164 28.2412 42.6218 28.1815 41.9798L27.9411 39.3951C27.8593 38.5158 27.3026 37.7631 26.4881 37.4289C26.1986 37.3101 25.8954 37.2522 25.5945 37.2522C25.0477 37.2522 24.5083 37.4441 24.0731 37.8108L22.0896 39.4835C21.5971 39.8998 20.9013 39.9091 20.3979 39.5069C19.4246 38.7299 18.5331 37.8453 17.7483 36.8785C17.3419 36.3789 17.3457 35.6831 17.7574 35.1874L19.4149 33.1898C19.9787 32.5103 20.1175 31.5841 19.7774 30.7715C19.4372 29.96 18.6794 29.4097 17.7999 29.3345L15.2123 29.115C14.5697 29.0603 14.071 28.5747 13.9997 27.9339C13.9286 27.2961 13.8926 26.6461 13.8926 26.0002C13.8926 25.401 13.924 24.7967 13.9855 24.2036C14.0521 23.5627 14.5467 23.0732 15.1885 23.0133L17.7735 22.7736C18.6525 22.6913 19.4057 22.1347 19.7394 21.3201C20.0731 20.5046 19.9268 19.5794 19.3576 18.9049L17.6844 16.9214C17.269 16.429 17.2595 15.7331 17.6615 15.2295C18.4387 14.2564 19.3228 13.3647 20.2893 12.5795C20.7897 12.1734 21.4856 12.1773 21.9814 12.5887L23.9785 14.2463C24.6579 14.8098 25.5844 14.9491 26.3963 14.6089C27.2083 14.2684 27.7593 13.5109 27.834 12.6313L28.0534 10.0435C28.1082 9.40154 28.5935 8.90287 29.2346 8.83177C30.4644 8.69477 31.7311 8.68867 32.9651 8.81756C33.6062 8.88357 34.0955 9.37818 34.1552 10.0202L34.3954 12.6047C34.4772 13.4844 35.0341 14.237 35.8489 14.5711C36.6635 14.9053 37.5888 14.7578 38.2635 14.1892L40.2469 12.5165C40.7397 12.1002 41.4352 12.091 41.9388 12.4932C42.9122 13.2701 43.8037 14.1548 44.5885 15.1216C44.9949 15.6212 44.9909 16.317 44.5794 16.8137L42.9219 18.8104C42.3581 19.4899 42.2192 20.4162 42.5594 21.2285C42.8994 22.0402 43.6573 22.5905 44.5367 22.6658L47.1245 22.8851C47.7671 22.9399 48.2656 23.4254 48.3371 24.0663C48.4081 24.7041 48.444 25.355 48.444 25.9999ZM30.559 45.9346C30.559 48.0472 28.8405 49.7656 26.7282 49.7656H7.38943C5.27703 49.7656 3.55849 48.0472 3.55849 45.9346V6.06511C3.55849 3.95271 5.27693 2.23397 7.38943 2.23397H26.7284C28.8406 2.23397 30.5591 3.95261 30.5591 6.06511V7.51644C30.0699 7.53177 29.5823 7.56631 29.0998 7.62003C27.8732 7.75613 26.9436 8.71081 26.8392 9.94073L26.6197 12.5285C26.5829 12.9602 26.3234 13.3178 25.9256 13.4843C25.5278 13.6509 25.0909 13.5857 24.7571 13.3086L22.76 11.651C21.8108 10.8629 20.4789 10.8558 19.5213 11.6339C18.4871 12.4737 17.5408 13.4274 16.7092 14.4695C15.9398 15.4332 15.9576 16.7648 16.7529 17.7073L18.4261 19.6908C18.7057 20.0219 18.7751 20.4587 18.6117 20.8578C18.4482 21.2569 18.0927 21.519 17.6606 21.5597L15.0757 21.7994C13.8477 21.9141 12.9007 22.8504 12.7735 24.0773C12.7073 24.7121 12.674 25.3591 12.674 26C12.674 26.6905 12.7127 27.3862 12.7886 28.0687C12.9252 29.2956 13.8794 30.225 15.1093 30.3295L17.6969 30.5489C18.1292 30.5853 18.4866 30.8443 18.6531 31.2426C18.82 31.6407 18.7541 32.0774 18.4769 32.4114L16.8195 34.4082C16.0317 35.3578 16.0245 36.6894 16.8021 37.6471C17.642 38.6819 18.596 39.6276 19.6376 40.4594C20.6015 41.2281 21.9329 41.2109 22.8754 40.4157L24.8591 38.7418C25.1905 38.4626 25.6268 38.3936 26.0262 38.5571C26.4252 38.7205 26.6876 39.0761 26.7277 39.5076L26.9679 42.0924C27.0821 43.3204 28.0188 44.2669 29.2455 44.3948C29.68 44.4396 30.1196 44.4691 30.559 44.4833V45.9346ZM49.6631 25.9999C49.6631 26.6408 49.6292 27.2876 49.5633 27.9226C49.4362 29.1495 48.4893 30.0858 47.261 30.2005L44.6761 30.4401C44.244 30.4808 43.8888 30.7429 43.7252 31.142C43.5615 31.541 43.6312 31.978 43.9108 32.3091L45.5839 34.2926C46.3792 35.2351 46.3971 36.5676 45.6276 37.5303C44.7964 38.5723 43.8502 39.5259 42.8155 40.3659C41.8579 41.144 40.5262 41.1367 39.577 40.3486L37.5799 38.6911C37.2461 38.4138 36.8093 38.3488 36.4114 38.5154C36.0133 38.6819 35.7539 39.0394 35.7173 39.4709L35.4976 42.0591C35.3933 43.289 34.4639 44.2436 33.2371 44.3798C32.7551 44.4335 32.2662 44.4671 31.7778 44.4834V45.9346C31.7778 48.7194 29.5126 50.9843 26.7282 50.9843H7.38943C4.60509 50.9843 2.33984 48.7193 2.33984 45.9346V6.06511C2.33984 3.28037 4.60509 1.01562 7.38943 1.01562H26.7284C29.5127 1.01562 31.7779 3.28037 31.7779 6.06511V7.51745C32.2177 7.53188 32.6565 7.56021 33.0912 7.6048C34.3181 7.73287 35.2546 8.67943 35.3689 9.90742L35.6093 12.4921C35.6492 12.9237 35.9116 13.2802 36.3108 13.4428C36.71 13.6062 37.1463 13.5373 37.4779 13.258L39.4614 11.5841C40.404 10.7889 41.7354 10.7717 42.6994 11.5404C43.741 12.3722 44.6952 13.3188 45.5348 14.3527C46.312 15.3104 46.3049 16.6418 45.5172 17.5916L43.8597 19.5884C43.5827 19.9225 43.5167 20.3591 43.6836 20.7572C43.8503 21.1555 44.2078 21.4144 44.64 21.4509L47.2276 21.6704C48.4575 21.7749 49.4117 22.7043 49.5484 23.9311C49.6244 24.6137 49.6631 25.3093 49.6631 25.9999ZM20.1279 46.6091C20.1279 46.2719 19.8551 45.9997 19.5185 45.9997H15.3099C14.9734 45.9997 14.7006 46.2718 14.7006 46.6091C14.7006 46.9451 14.9734 47.2183 15.3099 47.2183H19.5185C19.855 47.2183 20.1279 46.9451 20.1279 46.6091Z" fill="white"/>
<path fill-rule="evenodd" clip-rule="evenodd" d="M20.1257 46.6082C20.1257 46.2711 19.853 45.9989 19.5164 45.9989H15.3077C14.9713 45.9989 14.6985 46.271 14.6985 46.6082C14.6985 46.9443 14.9713 47.2175 15.3077 47.2175H19.5164C19.8529 47.2175 20.1257 46.9443 20.1257 46.6082Z" fill="#E6B400"/>
<path fill-rule="evenodd" clip-rule="evenodd" d="M39.804 25.9991C39.804 30.7624 35.9291 34.6369 31.1662 34.6369C26.4032 34.6369 22.5283 30.7624 22.5283 25.9991C22.5283 21.2358 26.4032 17.3612 31.1662 17.3612C35.9291 17.3613 39.804 21.2358 39.804 25.9991ZM31.1662 33.4183C35.2571 33.4183 38.5854 30.09 38.5854 25.9991C38.5854 21.9082 35.2571 18.5799 31.1662 18.5799C27.0753 18.5799 23.747 21.9082 23.747 25.9991C23.747 30.09 27.0754 33.4183 31.1662 33.4183Z" fill="#E6B400"/>
<path fill-rule="evenodd" clip-rule="evenodd" d="M30.5569 7.51562C30.0677 7.53096 29.5801 7.56549 29.0977 7.61922C27.871 7.75531 26.9414 8.71 26.837 9.93992L26.6175 12.5277C26.5808 12.9594 26.3213 13.317 25.9234 13.4834C25.5256 13.6501 25.0887 13.5849 24.755 13.3078L22.7578 11.6502C21.8086 10.8621 20.4768 10.855 19.5191 11.6331C18.4849 12.4729 17.5386 13.4266 16.7071 14.4687C15.9376 15.4324 15.9555 16.764 16.7507 17.7065L18.424 19.69C18.7036 20.0211 18.7729 20.4578 18.6095 20.857C18.446 21.2561 18.0905 21.5181 17.6585 21.5589L15.0735 21.7986C13.8455 21.9133 12.8986 22.8496 12.7713 24.0765C12.7052 24.7113 12.6719 25.3583 12.6719 25.9992C12.6719 26.6897 12.7106 27.3854 12.7864 28.0679C12.923 29.2948 13.8772 30.2242 15.1071 30.3287L17.6947 30.5481C18.127 30.5845 18.4844 30.8435 18.651 31.2417C18.8178 31.6399 18.7519 32.0766 18.4748 32.4106L16.8174 34.4073C16.0295 35.3569 16.0223 36.6885 16.8 37.6463C17.6398 38.6811 18.5939 39.6267 19.6354 40.4585C20.5993 41.2273 21.9307 41.2101 22.8732 40.4149L24.8569 38.741C25.1883 38.4618 25.6246 38.3928 26.0241 38.5563C26.423 38.7197 26.6855 39.0753 26.7256 39.5068L26.9658 42.0916C27.0799 43.3195 28.0167 44.2661 29.2433 44.394C29.6778 44.4388 30.1175 44.4683 30.5568 44.4824L31.7757 44.4825C32.2641 44.4663 32.7529 44.4327 33.2349 44.3789C34.4617 44.2428 35.3911 43.2882 35.4954 42.0582L35.7152 39.4701C35.7518 39.0386 36.0111 38.6811 36.4093 38.5146C36.8072 38.348 37.2439 38.413 37.5777 38.6902L39.5749 40.3477C40.5241 41.1359 41.8558 41.1432 42.8134 40.3651C43.848 39.5251 44.7943 38.5715 45.6255 37.5295C46.395 36.5668 46.377 35.2343 45.5818 34.2918L43.9086 32.3082C43.629 31.9772 43.5594 31.5402 43.7231 31.1412C43.8866 30.7421 44.2419 30.48 44.6739 30.4393L47.2589 30.1997C48.4872 30.0849 49.434 29.1486 49.5611 27.9218C49.627 27.2868 49.6609 26.6399 49.6609 25.9991C49.6609 25.3085 49.6222 24.6129 49.5463 23.9303C49.4096 22.7035 48.4554 21.7741 47.2255 21.6696L44.6379 21.4501C44.2056 21.4135 43.8481 21.1547 43.6814 20.7564C43.5146 20.3583 43.5806 19.9217 43.8576 19.5875L45.5151 17.5908C46.3028 16.641 46.3099 15.3096 45.5326 14.3519C44.693 13.318 43.7388 12.3714 42.6972 11.5396C41.7333 10.7709 40.4019 10.7881 39.4593 11.5833L37.4758 13.2572C37.1442 13.5365 36.7079 13.6054 36.3086 13.442C35.9095 13.2794 35.647 12.9229 35.6071 12.4913L35.3667 9.90661C35.2525 8.67862 34.316 7.73205 33.0891 7.60398C32.6543 7.5594 32.2155 7.53106 31.7758 7.51664L30.5569 7.51562ZM48.349 27.7957C48.4107 27.2026 48.4419 26.5984 48.4419 25.9991C48.4419 25.3542 48.4059 24.7032 48.3349 24.0654C48.2634 23.4246 47.765 22.9391 47.1224 22.8843L44.5346 22.665C43.6551 22.5897 42.8973 22.0394 42.5573 21.2277C42.217 20.4154 42.356 19.4891 42.9197 18.8096L44.5772 16.8129C44.9888 16.3162 44.9927 15.6204 44.5864 15.1208C43.8016 14.154 42.9101 13.2692 41.9366 12.4924C41.4331 12.0902 40.7376 12.0993 40.2448 12.5156L38.2614 14.1884C37.5867 14.757 36.6613 14.9045 35.8467 14.5703C35.032 14.2362 34.475 13.4835 34.3933 12.6039L34.1531 10.0193C34.0933 9.37737 33.604 8.88276 32.9629 8.81674C31.729 8.68786 30.4623 8.69395 29.2325 8.83096C28.5914 8.90205 28.106 9.40073 28.0513 10.0427L27.8318 12.6305C27.7572 13.51 27.2062 14.2676 26.3942 14.608C25.5822 14.9483 24.6557 14.809 23.9764 14.2455L21.9793 12.5879C21.4834 12.1765 20.7875 12.1726 20.2871 12.5787C19.3207 13.3639 18.4366 14.2556 17.6593 15.2287C17.2573 15.7323 17.2669 16.4281 17.6823 16.9206L19.3554 18.9041C19.9247 19.5786 20.0709 20.5037 19.7373 21.3193C19.4035 22.1339 18.6504 22.6905 17.7713 22.7727L15.1864 23.0124C14.5446 23.0724 14.05 23.5619 13.9834 24.2027C13.9218 24.7959 13.8904 25.4002 13.8904 25.9994C13.8904 26.6453 13.9265 27.2953 13.9976 27.933C14.0689 28.5739 14.5675 29.0595 15.2101 29.1142L17.7977 29.3337C18.6773 29.4088 19.435 29.9592 19.7753 30.7707C20.1154 31.5833 19.9766 32.5094 19.4128 33.189L17.7553 35.1866C17.3435 35.6823 17.3398 36.3781 17.7461 36.8776C18.5309 37.8445 19.4224 38.7291 20.3957 39.5061C20.8991 39.9083 21.595 39.899 22.0874 39.4827L24.0709 37.81C24.5061 37.4432 25.0455 37.2514 25.5924 37.2514C25.8933 37.2514 26.1964 37.3093 26.4859 37.4281C27.3004 37.7623 27.8572 38.5149 27.939 39.3943L28.1794 41.979C28.2391 42.621 28.7284 43.1156 29.3693 43.1816C30.6034 43.3106 31.8699 43.3045 33.1 43.1684C33.7408 43.0961 34.2264 42.5975 34.2809 41.9557L34.5006 39.3679C34.5751 38.4883 35.1259 37.7306 35.9379 37.3903C36.75 37.0501 37.6764 37.1893 38.3557 37.7529L40.353 39.4104C40.8487 39.8217 41.5446 39.8258 42.045 39.4196C43.0119 38.6346 43.896 37.7429 44.6729 36.7698C45.0749 36.2661 45.0655 35.5704 44.6502 35.0779L42.9769 33.0943C42.4079 32.4199 42.2616 31.4947 42.595 30.6801C42.9288 29.8646 43.6822 29.308 44.5612 29.2257L47.146 28.986C47.7877 28.9261 48.2823 28.4366 48.349 27.7957Z" fill="#E6B400"/>
<path d="M32.7217 20.1937C32.3966 20.1074 32.0625 20.2993 31.9755 20.6244L29.1797 31.0578C29.0928 31.3829 29.2858 31.7169 29.6109 31.8043C29.6635 31.8187 29.7167 31.8246 29.7689 31.8246C30.0378 31.8246 30.2842 31.6459 30.357 31.3738L33.1527 20.9402C33.2398 20.6153 33.0468 20.281 32.7217 20.1937Z" fill="#E6B400"/>
<path d="M33.9566 23.4854C33.7187 23.723 33.7187 24.1089 33.9566 24.3468L35.6089 25.9992L33.9566 27.6516C33.7187 27.8892 33.7187 28.2751 33.9566 28.5129C34.0757 28.6327 34.2316 28.6916 34.3876 28.6916C34.5436 28.6916 34.6997 28.6326 34.8185 28.5129L36.9016 26.4297C37.1396 26.1922 37.1396 25.8062 36.9016 25.5685L34.8185 23.4855C34.5805 23.2467 34.1946 23.2467 33.9566 23.4854Z" fill="#E6B400"/>
<path d="M28.3758 23.4854C28.1377 23.2467 27.7519 23.2467 27.5141 23.4854L25.4308 25.5684C25.1928 25.8061 25.1928 26.1921 25.4308 26.4296L27.5141 28.5128C27.6329 28.6326 27.789 28.6915 27.9448 28.6915C28.1006 28.6915 28.2568 28.6325 28.3758 28.5128C28.6137 28.275 28.6137 27.8891 28.3758 27.6515L26.7236 25.9991L28.3758 24.3467C28.6137 24.109 28.6137 23.723 28.3758 23.4854Z" fill="#E6B400"/>
</svg>
