<svg width="36" height="36" viewBox="0 0 36 36" fill="none" xmlns="http://www.w3.org/2000/svg">
<path fill-rule="evenodd" clip-rule="evenodd" d="M19.6475 16.2597C19.4826 16.0945 19.2155 16.0945 19.0509 16.2597L17.6086 17.7017C17.4439 17.8663 17.4439 18.1335 17.6086 18.298L19.0509 19.7402C19.1332 19.8231 19.2413 19.8639 19.3491 19.8639C19.457 19.8639 19.5651 19.8231 19.6475 19.7402C19.8122 19.5756 19.8122 19.3084 19.6475 19.1439L18.5036 17.9999L19.6475 16.8559C19.8122 16.6914 19.8122 16.4242 19.6475 16.2597ZM22.6562 13.9808C22.4311 13.9211 22.1998 14.0539 22.1395 14.279L20.2041 21.5021C20.1439 21.7272 20.2775 21.9585 20.5025 22.0189C20.539 22.0289 20.5758 22.033 20.6119 22.033C20.7981 22.033 20.9687 21.9092 21.019 21.7209L22.9545 14.4976C23.0149 14.2727 22.8813 14.0413 22.6562 13.9808ZM23.5111 16.2597C23.3464 16.4242 23.3464 16.6913 23.5111 16.856L24.655 18L23.5111 19.144C23.3464 19.3084 23.3464 19.5756 23.5111 19.7402C23.5935 19.8232 23.7015 19.864 23.8095 19.864C23.9175 19.864 24.0255 19.8231 24.1078 19.7402L25.55 18.2981C25.7147 18.1336 25.7147 17.8664 25.55 17.7018L24.1078 16.2598C23.9431 16.0945 23.6759 16.0945 23.5111 16.2597ZM26.7157 17.9999C26.7157 20.8321 24.4115 23.1363 21.5793 23.1363C18.7472 23.1363 16.4429 20.8321 16.4429 17.9999C16.4429 15.1678 18.7471 12.8636 21.5793 12.8636C24.4115 12.8636 26.7157 15.1678 26.7157 17.9999ZM27.5593 17.9999C27.5593 21.2976 24.8767 23.9799 21.5793 23.9799C18.2819 23.9799 15.5992 21.2976 15.5992 17.9999C15.5992 14.7023 18.2819 12.0199 21.5793 12.0199C24.8767 12.0199 27.5593 14.7023 27.5593 17.9999ZM33.5394 17.9999C33.5394 18.4148 33.5178 18.8331 33.475 19.2438C33.4289 19.6874 33.0865 20.0263 32.6422 20.0678L30.8527 20.2338C30.2442 20.2907 29.7226 20.676 29.4916 21.2406C29.2607 21.8046 29.362 22.4451 29.7559 22.912L30.9143 24.2852C31.2019 24.6263 31.2084 25.1079 30.9301 25.4566C30.3922 26.1302 29.7802 26.7476 29.1107 27.291C28.7643 27.5723 28.2825 27.5695 27.9394 27.2847L26.5566 26.1372C26.0863 25.747 25.445 25.6506 24.8828 25.8862C24.3206 26.1217 23.9393 26.6463 23.8877 27.2552L23.7356 29.0468C23.6979 29.4912 23.3617 29.8363 22.918 29.8864C22.0665 29.9806 21.1897 29.9848 20.3353 29.8955C19.8916 29.8498 19.5528 29.5074 19.5115 29.063L19.345 27.2735C19.2884 26.6648 18.903 26.1437 18.3391 25.9123C18.1387 25.8301 17.9288 25.79 17.7205 25.79C17.3419 25.79 16.9685 25.9228 16.6672 26.1767L15.294 27.3348C14.953 27.623 14.4713 27.6294 14.1228 27.3509C13.449 26.813 12.8318 26.2006 12.2885 25.5312C12.0072 25.1854 12.0098 24.7037 12.2948 24.3605L13.4423 22.9776C13.8326 22.5071 13.9287 21.8659 13.6933 21.3034C13.4577 20.7416 12.9331 20.3605 12.3242 20.3085L10.5328 20.1566C10.0879 20.1187 9.74268 19.7825 9.69332 19.3388C9.6441 18.8973 9.61914 18.4473 9.61914 18.0001C9.61914 17.5853 9.64087 17.1669 9.68348 16.7563C9.7296 16.3126 10.072 15.9737 10.5163 15.9323L12.3059 15.7663C12.9145 15.7094 13.4359 15.324 13.667 14.7601C13.8979 14.1955 13.7967 13.555 13.4026 13.088L12.2443 11.7148C11.9567 11.3739 11.9501 10.8922 12.2284 10.5435C12.7665 9.86984 13.3785 9.25249 14.0476 8.70891C14.3941 8.42773 14.8758 8.43047 15.2191 8.71523L16.6017 9.86281C17.0721 10.253 17.7134 10.3494 18.2756 10.1138C18.8377 9.87813 19.2192 9.35367 19.2709 8.74477L19.4228 6.9532C19.4607 6.50876 19.7967 6.16352 20.2405 6.11431C21.092 6.01945 21.9689 6.01523 22.8232 6.10446C23.267 6.15016 23.6058 6.49259 23.6471 6.93703L23.8134 8.72635C23.87 9.33532 24.2556 9.85641 24.8196 10.0877C25.3836 10.3191 26.0242 10.217 26.4913 9.82329L27.8645 8.66524C28.2056 8.37703 28.6871 8.3707 29.0357 8.64914C29.7097 9.18696 30.3269 9.79945 30.8702 10.4688C31.1515 10.8147 31.1488 11.2964 30.8638 11.6402L29.7164 13.0226C29.326 13.493 29.2299 14.1343 29.4654 14.6966C29.7008 15.2586 30.2255 15.6396 30.8343 15.6917L32.6259 15.8435C33.0707 15.8815 33.4158 16.2176 33.4653 16.6613C33.5145 17.1028 33.5394 17.5534 33.5394 17.9999ZM21.1574 31.8009C21.1574 33.2634 19.9677 34.4531 18.5054 34.4531H5.11696C3.65453 34.4531 2.46477 33.2634 2.46477 31.8009V4.19892C2.46477 2.73649 3.65446 1.54659 5.11696 1.54659H18.5054C19.9678 1.54659 21.1575 2.73642 21.1575 4.19892V5.20369C20.8188 5.21431 20.4812 5.23821 20.1472 5.27541C19.298 5.36963 18.6544 6.03056 18.5822 6.88205L18.4302 8.67361C18.4048 8.97244 18.2251 9.22001 17.9497 9.33525C17.6743 9.45063 17.3718 9.40549 17.1407 9.21368L15.7581 8.06611C15.101 7.52049 14.1789 7.51556 13.5159 8.05423C12.7999 8.63564 12.1448 9.29588 11.5691 10.0174C11.0364 10.6845 11.0488 11.6064 11.5993 12.2589L12.7577 13.6321C12.9513 13.8613 12.9993 14.1637 12.8862 14.44C12.773 14.7163 12.5269 14.8977 12.2278 14.9259L10.4382 15.0919C9.58806 15.1713 8.93247 15.8195 8.84437 16.6689C8.79859 17.1084 8.77553 17.5563 8.77553 18C8.77553 18.4781 8.80232 18.9597 8.85484 19.4322C8.94941 20.2816 9.61 20.925 10.4615 20.9974L12.2529 21.1492C12.5522 21.1745 12.7996 21.3538 12.9149 21.6295C13.0304 21.9051 12.9848 22.2074 12.7929 22.4387L11.6455 23.821C11.1001 24.4785 11.0951 25.4003 11.6335 26.0634C12.2149 26.7798 12.8754 27.4345 13.5964 28.0103C14.2638 28.5425 15.1855 28.5306 15.838 27.9801L17.2113 26.8213C17.4408 26.628 17.7428 26.5802 18.0194 26.6934C18.2956 26.8065 18.4772 27.0527 18.505 27.3514L18.6713 29.1409C18.7503 29.991 19.3988 30.6463 20.2481 30.7349C20.5489 30.7659 20.8532 30.7863 21.1574 30.7961V31.8009ZM34.3833 17.9999C34.3833 18.4436 34.3599 18.8914 34.3142 19.331C34.2263 20.1804 33.5707 20.8286 32.7204 20.9081L30.9308 21.0739C30.6317 21.1021 30.3857 21.2835 30.2725 21.5599C30.1592 21.8361 30.2074 22.1386 30.401 22.3678L31.5593 23.741C32.1099 24.3935 32.1223 25.316 31.5895 25.9825C31.0141 26.7039 30.359 27.3641 29.6427 27.9456C28.9798 28.4843 28.0578 28.4792 27.4007 27.9336L26.0181 26.7861C25.7869 26.5942 25.4846 26.5492 25.2091 26.6645C24.9335 26.7798 24.7539 27.0273 24.7286 27.326L24.5764 29.1178C24.5042 29.9693 23.8608 30.6302 23.0115 30.7245C22.6778 30.7617 22.3394 30.7849 22.0012 30.7962V31.8009C22.0012 33.7288 20.433 35.2968 18.5054 35.2968H5.11696C3.18934 35.2968 1.62109 33.7288 1.62109 31.8009V4.19892C1.62109 2.27102 3.18934 0.703125 5.11696 0.703125H18.5054C20.4331 0.703125 22.0013 2.27102 22.0013 4.19892V5.20439C22.3058 5.21438 22.6095 5.23399 22.9105 5.26486C23.7599 5.35352 24.4082 6.00884 24.4874 6.85899L24.6538 8.64837C24.6814 8.9472 24.8631 9.19399 25.1394 9.30656C25.4158 9.4197 25.7179 9.37195 25.9475 9.17859L27.3207 8.01977C27.9732 7.46923 28.895 7.45734 29.5623 7.98954C30.2834 8.5654 30.944 9.22071 31.5253 9.93649C32.0634 10.5995 32.0585 11.5213 31.5131 12.1788L30.3656 13.5612C30.1739 13.7925 30.1282 14.0948 30.2437 14.3704C30.3591 14.6461 30.6066 14.8253 30.9058 14.8506L32.6972 15.0026C33.5487 15.0749 34.2093 15.7184 34.304 16.5677C34.3566 17.0402 34.3833 17.5218 34.3833 17.9999ZM13.9359 32.2678C13.9359 32.0344 13.747 31.8459 13.514 31.8459H10.6004C10.3674 31.8459 10.1785 32.0343 10.1785 32.2678C10.1785 32.5005 10.3674 32.6896 10.6004 32.6896H13.514C13.747 32.6896 13.9359 32.5005 13.9359 32.2678Z" fill="black"/>
<path fill-rule="evenodd" clip-rule="evenodd" d="M13.9338 32.2673C13.9338 32.0338 13.745 31.8454 13.5119 31.8454H10.5983C10.3653 31.8454 10.1765 32.0337 10.1765 32.2673C10.1765 32.4999 10.3653 32.6891 10.5983 32.6891H13.5119C13.7449 32.6891 13.9338 32.4999 13.9338 32.2673Z" fill="#E6B400"/>
<path fill-rule="evenodd" clip-rule="evenodd" d="M27.5572 17.9994C27.5572 21.297 24.8746 23.9794 21.5772 23.9794C18.2798 23.9794 15.5971 21.297 15.5971 17.9994C15.5971 14.7017 18.2798 12.0193 21.5772 12.0193C24.8746 12.0194 27.5572 14.7017 27.5572 17.9994ZM21.5772 23.1358C24.4094 23.1358 26.7136 20.8316 26.7136 17.9994C26.7136 15.1672 24.4094 12.863 21.5772 12.863C18.745 12.863 16.4408 15.1672 16.4408 17.9994C16.4408 20.8316 18.7451 23.1358 21.5772 23.1358Z" fill="#E6B400"/>
<path fill-rule="evenodd" clip-rule="evenodd" d="M21.1554 5.20312C20.8167 5.21374 20.4791 5.23765 20.1451 5.27484C19.2959 5.36906 18.6523 6.03 18.5801 6.88148L18.4281 8.67305C18.4027 8.97187 18.223 9.21944 17.9476 9.33469C17.6722 9.45007 17.3697 9.40493 17.1387 9.21312L15.756 8.06555C15.0989 7.51992 14.1768 7.515 13.5138 8.05366C12.7978 8.63508 12.1427 9.29531 11.567 10.0168C11.0343 10.684 11.0467 11.6059 11.5973 12.2583L12.7557 13.6316C12.9492 13.8608 12.9972 14.1631 12.8841 14.4394C12.7709 14.7158 12.5248 14.8972 12.2257 14.9254L10.4361 15.0913C9.58597 15.1708 8.93037 15.819 8.84227 16.6684C8.7965 17.1078 8.77344 17.5558 8.77344 17.9994C8.77344 18.4775 8.80023 18.9591 8.85275 19.4316C8.94732 20.281 9.60791 20.9244 10.4594 20.9968L12.2508 21.1487C12.5501 21.1739 12.7975 21.3532 12.9128 21.6289C13.0283 21.9045 12.9827 22.2069 12.7908 22.4381L11.6434 23.8205C11.098 24.4779 11.093 25.3998 11.6314 26.0628C12.2128 26.7792 12.8733 27.4339 13.5943 28.0098C14.2617 28.542 15.1834 28.5301 15.8359 27.9795L17.2092 26.8207C17.4387 26.6274 17.7407 26.5796 18.0173 26.6928C18.2935 26.8059 18.4752 27.0521 18.5029 27.3509L18.6692 29.1403C18.7483 29.9905 19.3967 30.6458 20.246 30.7343C20.5468 30.7653 20.8512 30.7858 21.1553 30.7955L21.9991 30.7956C22.3373 30.7844 22.6757 30.7611 23.0094 30.7239C23.8587 30.6296 24.5021 29.9687 24.5743 29.1172L24.7265 27.3255C24.7518 27.0267 24.9314 26.7792 25.207 26.664C25.4825 26.5486 25.7848 26.5936 26.016 26.7855L27.3986 27.933C28.0557 28.4787 28.9777 28.4837 29.6406 27.9451C30.3569 27.3635 31.012 26.7034 31.5875 25.9819C32.1202 25.3155 32.1078 24.393 31.5572 23.7405L30.3989 22.3672C30.2053 22.138 30.1571 21.8355 30.2704 21.5593C30.3836 21.283 30.6296 21.1016 30.9287 21.0734L32.7183 20.9075C33.5687 20.828 34.2242 20.1798 34.3121 19.3305C34.3578 18.8909 34.3813 18.443 34.3813 17.9994C34.3813 17.5212 34.3545 17.0397 34.3019 16.5671C34.2072 15.7178 33.5466 15.0744 32.6952 15.002L30.9037 14.8501C30.6045 14.8248 30.357 14.6455 30.2416 14.3698C30.1261 14.0942 30.1718 13.7919 30.3635 13.5606L31.511 12.1783C32.0564 11.5207 32.0613 10.599 31.5232 9.93593C30.9419 9.22015 30.2813 8.56484 29.5602 7.98898C28.8929 7.45678 27.9711 7.46866 27.3186 8.01921L25.9454 9.17803C25.7158 9.37139 25.4137 9.41913 25.1373 9.306C24.861 9.19343 24.6793 8.94663 24.6517 8.6478L24.4853 6.85842C24.4062 6.00827 23.7578 5.35296 22.9084 5.2643C22.6074 5.23343 22.3037 5.21381 21.9992 5.20383L21.1554 5.20312ZM33.473 19.2432C33.5157 18.8326 33.5373 18.4143 33.5373 17.9994C33.5373 17.5529 33.5124 17.1022 33.4633 16.6607C33.4138 16.217 33.0687 15.8809 32.6238 15.843L30.8322 15.6911C30.2234 15.639 29.6987 15.258 29.4633 14.6961C29.2278 14.1337 29.324 13.4925 29.7143 13.022L30.8618 11.6397C31.1467 11.2958 31.1494 10.8141 30.8681 10.4683C30.3248 9.79889 29.7076 9.1864 29.0336 8.64858C28.685 8.37014 28.2035 8.37647 27.8624 8.66468L26.4892 9.82273C26.0222 10.2164 25.3815 10.3185 24.8176 10.0871C24.2535 9.85584 23.8679 9.33476 23.8113 8.72578L23.645 6.93647C23.6037 6.49202 23.2649 6.1496 22.8211 6.1039C21.9668 6.01467 21.0899 6.01889 20.2385 6.11374C19.7946 6.16296 19.4586 6.50819 19.4207 6.95264L19.2688 8.7442C19.2171 9.35311 18.8356 9.87757 18.2735 10.1133C17.7114 10.3488 17.07 10.2524 16.5996 9.86224L15.217 8.71467C14.8737 8.42991 14.392 8.42716 14.0455 8.70834C13.3764 9.25193 12.7644 9.86927 12.2263 10.5429C11.948 10.8916 11.9546 11.3733 12.2422 11.7143L13.4005 13.0875C13.7946 13.5544 13.8958 14.1949 13.6649 14.7595C13.4338 15.3235 12.9124 15.7088 12.3038 15.7657L10.5142 15.9317C10.0699 15.9732 9.72751 16.3121 9.68138 16.7557C9.63877 17.1664 9.61705 17.5847 9.61705 17.9996C9.61705 18.4468 9.64201 18.8968 9.69123 19.3383C9.74059 19.7819 10.0858 20.1181 10.5307 20.156L12.3221 20.3079C12.931 20.36 13.4556 20.741 13.6912 21.3028C13.9266 21.8654 13.8305 22.5065 13.4402 22.977L12.2927 24.36C12.0077 24.7031 12.0051 25.1848 12.2864 25.5307C12.8297 26.2001 13.4469 26.8125 14.1207 27.3504C14.4692 27.6288 14.951 27.6224 15.2919 27.3342L16.6651 26.1761C16.9664 25.9222 17.3398 25.7894 17.7184 25.7894C17.9267 25.7894 18.1366 25.8295 18.337 25.9118C18.9009 26.1431 19.2864 26.6642 19.343 27.273L19.5094 29.0624C19.5507 29.5068 19.8895 29.8493 20.3332 29.895C21.1876 29.9843 22.0644 29.9801 22.916 29.8858C23.3596 29.8358 23.6958 29.4906 23.7335 29.0462L23.8856 27.2547C23.9372 26.6458 24.3185 26.1212 24.8807 25.8856C25.4429 25.6501 26.0842 25.7465 26.5546 26.1366L27.9373 27.2841C28.2804 27.5689 28.7622 27.5717 29.1087 27.2905C29.7781 26.747 30.3901 26.1297 30.928 25.456C31.2063 25.1073 31.1998 24.6257 30.9122 24.2847L29.7538 22.9115C29.3599 22.4445 29.2586 21.804 29.4895 21.2401C29.7205 20.6755 30.2421 20.2901 30.8506 20.2332L32.6401 20.0673C33.0844 20.0258 33.4268 19.6869 33.473 19.2432Z" fill="#E6B400"/>
<path d="M22.6541 13.9802C22.429 13.9205 22.1977 14.0534 22.1375 14.2784L20.202 21.5016C20.1418 21.7266 20.2754 21.9579 20.5004 22.0184C20.5369 22.0283 20.5737 22.0324 20.6098 22.0324C20.796 22.0324 20.9666 21.9087 21.017 21.7203L22.9524 14.497C23.0128 14.2721 22.8792 14.0407 22.6541 13.9802Z" fill="#E6B400"/>
<path d="M23.509 16.2591C23.3443 16.4236 23.3443 16.6908 23.509 16.8555L24.6529 17.9994L23.509 19.1434C23.3443 19.3079 23.3443 19.5751 23.509 19.7397C23.5914 19.8226 23.6994 19.8634 23.8074 19.8634C23.9154 19.8634 24.0234 19.8226 24.1057 19.7397L25.5479 18.2975C25.7126 18.133 25.7126 17.8658 25.5479 17.7012L24.1057 16.2592C23.941 16.0939 23.6738 16.0939 23.509 16.2591Z" fill="#E6B400"/>
<path d="M19.6454 16.2591C19.4806 16.0939 19.2134 16.0939 19.0488 16.2591L17.6065 17.7012C17.4418 17.8658 17.4418 18.133 17.6065 18.2974L19.0488 19.7396C19.1311 19.8226 19.2392 19.8633 19.347 19.8633C19.4549 19.8633 19.563 19.8225 19.6454 19.7396C19.8101 19.575 19.8101 19.3078 19.6454 19.1434L18.5015 17.9994L19.6454 16.8554C19.8101 16.6909 19.8101 16.4236 19.6454 16.2591Z" fill="#E6B400"/>
</svg>
