<svg width="52" height="52" viewBox="0 0 52 52" fill="none" xmlns="http://www.w3.org/2000/svg">
<path d="M51.1672 12.9391L48.75 12.7258L49.6031 10.5727C49.725 10.2578 49.6437 9.90234 49.3898 9.67891C49.1461 9.45547 48.7805 9.40469 48.4859 9.56719L44.332 11.7305C44.0477 11.8727 43.8852 12.1773 43.9055 12.4922L44.0273 14.7367L43.4078 15.1328L43.3875 15.143C38.7563 8.19609 28.8336 5.87031 21.5719 9.99375V6.99766C21.5719 6.55078 21.2164 6.19531 20.7695 6.19531H18.4438C17.4891 6.19531 16.7172 6.96719 16.7172 7.92188V9.35391H15.6102V7.92188C15.6102 6.96719 14.8383 6.19531 13.8836 6.19531H11.7406C10.7859 6.19531 10.0141 6.96719 10.0141 7.92188V9.35391H8.92734V7.92188C8.92734 6.96719 8.15547 6.19531 7.20078 6.19531H4.875C4.42812 6.19531 4.07266 6.55078 4.07266 6.99766V11.6594C4.07266 13.4773 5.54531 14.95 7.36328 14.95H8.13516C8.02344 16.7477 7.83047 18.5859 7.57656 20.4344C4.73281 20.3937 4.03203 24.3547 6.74375 25.2586C6.11406 28.3359 5.29141 31.3219 4.26562 34.3687C2.97578 34.7141 2.02109 35.8922 2.02109 37.2938V38.3602C0.924219 38.6648 0.101562 39.8023 0.101562 41.1633V45.0023C0.101562 45.4492 0.457031 45.8047 0.903906 45.8047H24.7406C25.1875 45.8047 25.543 45.4492 25.543 45.0023V41.1633C25.543 41.1227 25.5328 41.0922 25.5328 41.0617C39.7313 44.6469 51.482 29.2195 44.2406 16.5039L44.8094 16.1484L46.8203 17.1844C47.0844 17.3164 47.3992 17.2961 47.643 17.1336L51.5531 14.4219C52.1727 14.0055 51.8984 12.9797 51.1672 12.9391ZM21.5719 11.8422C28.1531 7.56641 37.6594 9.48594 42.0367 15.9961L38.35 18.3117C33.3227 11.4055 22.5164 12.9391 19.4695 20.8711C19.0531 20.6172 18.5656 20.4547 18.068 20.4445C17.8445 18.7992 17.6617 17.1438 17.5398 15.4984C17.6719 15.3156 17.8242 15.143 17.9766 14.9602C19.7844 15.1125 21.5008 13.6602 21.5719 11.8422ZM28.925 25.1773C29.1586 25.5531 29.6664 25.6648 30.032 25.4312L32.5609 23.8469C33.018 25.3703 32.1852 27.1375 30.5703 27.6961C28.6203 28.3664 26.4773 26.8227 26.518 24.7508C26.4875 22.1406 29.8086 20.6375 31.7078 22.4859L29.1789 24.0703C28.8031 24.3039 28.6812 24.8016 28.925 25.1773ZM30.7023 20.1195C23.7453 19.1242 22.6891 29.0062 29.6055 29.443C32.9062 29.3922 34.907 26.4164 34.1555 23.2984C34.0437 23.2172 34.0133 23.075 33.9625 22.9633L37.8422 20.5258C41.0414 26.5789 36.4305 34.0641 29.6156 33.993C24.1922 34.0641 19.3984 28.8742 20.5766 23.4711C20.6781 22.9531 20.5969 22.4352 20.8102 21.9375C23.0547 14.8586 32.5406 13.193 36.9891 19.1648L33.1094 21.6023C32.4492 20.8203 31.5859 20.4852 30.7023 20.1195ZM7.36328 13.3453C6.42891 13.3453 5.67734 12.5938 5.67734 11.6594V7.8H7.20078C7.26172 7.8 7.3125 7.85078 7.3125 7.91172V10.1461C7.3125 10.593 7.66797 10.9484 8.11484 10.9484H10.8266C11.2734 10.9484 11.6289 10.593 11.6289 10.1461V7.92188C11.6289 7.86094 11.6797 7.81016 11.7406 7.81016H13.8836C13.9445 7.81016 13.9953 7.86094 13.9953 7.92188V10.1562C13.9953 10.6031 14.3508 10.9586 14.7977 10.9586H17.5094C17.9562 10.9586 18.3117 10.6031 18.3117 10.1562V7.92188C18.3117 7.86094 18.3625 7.81016 18.4234 7.81016H19.9469V11.6695C19.9469 12.6039 19.1953 13.3555 18.2609 13.3555C17.2859 13.3555 10.1258 13.3453 8.97813 13.3453C8.95781 13.3453 8.9375 13.3453 8.91719 13.3555H7.36328V13.3453ZM16.443 20.4445H9.20156C9.45547 18.6062 9.63828 16.7781 9.75 14.9602H15.8945C16.0164 16.7781 16.1992 18.6164 16.443 20.4445ZM6.88594 22.3031C7.04844 22.1406 7.26172 22.0492 7.50547 22.0492H16.6766C17.0117 22.0797 18.2 21.968 18.4844 22.1609C19.3578 22.5367 19.0633 23.7961 18.1391 23.8062H7.59688C6.73359 23.8062 6.31719 22.8313 6.88594 22.3031ZM8.35859 25.4211V25.4109H17.2859C17.8953 28.407 18.7078 31.3625 19.6523 34.2672H5.99219C6.96719 31.3117 7.74922 28.407 8.35859 25.4211ZM3.61562 37.2938C3.61562 36.5117 4.25547 35.8719 5.04766 35.8719H20.5969C21.3586 35.8617 22.0391 36.5117 22.0188 37.2938V38.2789H3.61562V37.2938ZM23.9383 44.2H1.70625V41.1633C1.71641 40.3812 2.15313 39.8023 2.75234 39.8836C2.80313 39.8938 22.8008 39.8938 22.8617 39.8836C23.532 39.782 23.9484 40.5133 23.9281 41.1531C23.9383 41.1633 23.9383 44.2 23.9383 44.2ZM29.6055 39.9445C27.9805 39.9445 26.3859 39.6906 24.8727 39.193C24.5375 38.807 24.1211 38.4922 23.6336 38.3602V37.2938C23.6539 35.943 22.6789 34.7141 21.3891 34.3687C20.8711 32.8453 20.3938 31.3016 19.9672 29.7477C23.2172 36.1055 31.9312 37.5578 37.0195 32.6625C40.493 29.5852 41.5391 23.8469 39.2031 19.6727C39.7617 19.3172 42.3922 17.6719 42.8898 17.357C48.5773 27.2391 41.0312 40.0969 29.6055 39.9445ZM47.1352 15.5188L45.6422 14.757L45.5406 12.9187L47.3281 11.9945C47.1352 12.6242 46.5969 13.3656 46.932 13.8633C47.0641 14.0766 47.2875 14.2188 47.5414 14.2391L48.8211 14.3508L47.1352 15.5188Z" fill="white"/>
<path fill-rule="evenodd" clip-rule="evenodd" d="M48.7517 12.7255L51.1689 12.9388C51.9002 12.9794 52.1744 14.0052 51.5548 14.4216L47.6447 17.1333C47.4009 17.2958 47.0861 17.3161 46.822 17.1841L44.8111 16.1482L44.2423 16.5036L42.8916 17.3568C42.6808 17.4901 42.0874 17.8621 41.4309 18.2737C40.5374 18.8339 39.5268 19.4675 39.2048 19.6724L37.8439 20.5255L33.9642 22.963C33.9761 22.9892 33.9869 23.0171 33.9979 23.0454C34.0337 23.138 34.0717 23.236 34.1572 23.2982C34.9087 26.4161 32.908 29.3919 29.6072 29.4427C22.6908 29.006 23.747 19.1239 30.7041 20.1193L30.8099 20.163C31.6563 20.5124 32.4773 20.8513 33.1111 21.6021L36.9908 19.1646L38.3517 18.3114L42.0384 15.9958L43.4095 15.1325L44.0291 14.7364L43.9072 12.4919C43.8869 12.1771 44.0494 11.8724 44.3337 11.7302L48.4876 9.56691C48.7822 9.40441 49.1478 9.4552 49.3916 9.67863C49.6455 9.90207 49.7267 10.2575 49.6048 10.5724L48.7517 12.7255ZM28.9267 25.1771C29.1603 25.5529 29.6681 25.6646 30.0337 25.431L32.5627 23.8466C33.0197 25.37 32.1869 27.1372 30.572 27.6958C28.622 28.3661 26.4791 26.8224 26.5197 24.7505C26.4892 22.1404 29.8103 20.6372 31.7095 22.4857L29.1806 24.07C28.8048 24.3036 28.683 24.8013 28.9267 25.1771ZM45.6439 14.7568L47.1369 15.5185L48.8228 14.3505L47.5431 14.2388C47.2892 14.2185 47.0658 14.0763 46.9337 13.863C46.692 13.5041 46.9046 13.0184 47.1143 12.5393C47.1954 12.3541 47.276 12.1698 47.3298 11.9943L45.5423 12.9185L45.6439 14.7568Z" fill="#E6B400"/>
</svg>
