<svg width="36" height="36" viewBox="0 0 36 36" fill="none" xmlns="http://www.w3.org/2000/svg">
<path d="M35.4234 8.95781L33.75 8.81016L34.3406 7.31953C34.425 7.10156 34.3687 6.85547 34.193 6.70078C34.0242 6.54609 33.7711 6.51094 33.5672 6.62344L30.6914 8.12109C30.4945 8.21953 30.382 8.43047 30.3961 8.64844L30.4805 10.2023L30.0516 10.4766L30.0375 10.4836C26.8313 5.67422 19.9617 4.06406 14.9344 6.91875V4.84453C14.9344 4.53516 14.6883 4.28906 14.3789 4.28906H12.7688C12.1078 4.28906 11.5734 4.82344 11.5734 5.48438V6.47578H10.807V5.48438C10.807 4.82344 10.2727 4.28906 9.61172 4.28906H8.12813C7.46719 4.28906 6.93281 4.82344 6.93281 5.48438V6.47578H6.18047V5.48438C6.18047 4.82344 5.64609 4.28906 4.98516 4.28906H3.375C3.06562 4.28906 2.81953 4.53516 2.81953 4.84453V8.07188C2.81953 9.33047 3.83906 10.35 5.09766 10.35H5.63203C5.55469 11.5945 5.42109 12.8672 5.24531 14.1469C3.27656 14.1187 2.79141 16.8609 4.66875 17.4867C4.23281 19.6172 3.66328 21.6844 2.95312 23.7937C2.06016 24.0328 1.39922 24.8484 1.39922 25.8188V26.557C0.639844 26.768 0.0703125 27.5555 0.0703125 28.4977V31.1555C0.0703125 31.4648 0.316406 31.7109 0.625781 31.7109H17.1281C17.4375 31.7109 17.6836 31.4648 17.6836 31.1555V28.4977C17.6836 28.4695 17.6766 28.4484 17.6766 28.4273C27.5063 30.9094 35.6414 20.2289 30.6281 11.4258L31.0219 11.1797L32.4141 11.8969C32.5969 11.9883 32.8148 11.9742 32.9836 11.8617L35.6906 9.98438C36.1195 9.69609 35.9297 8.98594 35.4234 8.95781ZM14.9344 8.19844C19.4906 5.23828 26.0719 6.56719 29.1023 11.0742L26.55 12.6773C23.0695 7.89609 15.5883 8.95781 13.4789 14.4492C13.1906 14.2734 12.8531 14.1609 12.5086 14.1539C12.3539 13.0148 12.2273 11.8688 12.143 10.7297C12.2344 10.6031 12.3398 10.4836 12.4453 10.357C13.6969 10.4625 14.8852 9.45703 14.9344 8.19844ZM20.025 17.4305C20.1867 17.6906 20.5383 17.768 20.7914 17.6062L22.5422 16.5094C22.8586 17.5641 22.282 18.7875 21.1641 19.1742C19.8141 19.6383 18.3305 18.5695 18.3586 17.1352C18.3375 15.3281 20.6367 14.2875 21.9516 15.5672L20.2008 16.6641C19.9406 16.8258 19.8562 17.1703 20.025 17.4305ZM21.2555 13.9289C16.4391 13.2398 15.7078 20.0812 20.4961 20.3836C22.7812 20.3484 24.1664 18.2883 23.6461 16.1297C23.5687 16.0734 23.5477 15.975 23.5125 15.8977L26.1984 14.2102C28.4133 18.4008 25.2211 23.5828 20.5031 23.5336C16.7484 23.5828 13.4297 19.9898 14.2453 16.2492C14.3156 15.8906 14.2594 15.532 14.407 15.1875C15.9609 10.2867 22.5281 9.13359 25.6078 13.268L22.9219 14.9555C22.4648 14.4141 21.8672 14.182 21.2555 13.9289ZM5.09766 9.23906C4.45078 9.23906 3.93047 8.71875 3.93047 8.07188V5.4H4.98516C5.02734 5.4 5.0625 5.43516 5.0625 5.47734V7.02422C5.0625 7.33359 5.30859 7.57969 5.61797 7.57969H7.49531C7.80469 7.57969 8.05078 7.33359 8.05078 7.02422V5.48438C8.05078 5.44219 8.08594 5.40703 8.12813 5.40703H9.61172C9.65391 5.40703 9.68906 5.44219 9.68906 5.48438V7.03125C9.68906 7.34063 9.93516 7.58672 10.2445 7.58672H12.1219C12.4312 7.58672 12.6773 7.34063 12.6773 7.03125V5.48438C12.6773 5.44219 12.7125 5.40703 12.7547 5.40703H13.8094V8.07891C13.8094 8.72578 13.2891 9.24609 12.6422 9.24609C11.9672 9.24609 7.01016 9.23906 6.21563 9.23906C6.20156 9.23906 6.1875 9.23906 6.17344 9.24609H5.09766V9.23906ZM11.3836 14.1539H6.37031C6.54609 12.8813 6.67266 11.6156 6.75 10.357H11.0039C11.0883 11.6156 11.2148 12.8883 11.3836 14.1539ZM4.76719 15.4406C4.87969 15.3281 5.02734 15.2648 5.19609 15.2648H11.5453C11.7773 15.2859 12.6 15.2086 12.7969 15.3422C13.4016 15.6023 13.1977 16.4742 12.5578 16.4812H5.25938C4.66172 16.4812 4.37344 15.8063 4.76719 15.4406ZM5.78672 17.5992V17.5922H11.9672C12.3891 19.6664 12.9516 21.7125 13.6055 23.7234H4.14844C4.82344 21.6773 5.36484 19.6664 5.78672 17.5992ZM2.50312 25.8188C2.50312 25.2773 2.94609 24.8344 3.49453 24.8344H14.2594C14.7867 24.8273 15.2578 25.2773 15.2438 25.8188V26.5008H2.50312V25.8188ZM16.5727 30.6H1.18125V28.4977C1.18828 27.9562 1.49063 27.5555 1.90547 27.6117C1.94063 27.6188 15.7852 27.6188 15.8273 27.6117C16.2914 27.5414 16.5797 28.0477 16.5656 28.4906C16.5727 28.4977 16.5727 30.6 16.5727 30.6ZM20.4961 27.6539C19.3711 27.6539 18.2672 27.4781 17.2195 27.1336C16.9875 26.8664 16.6992 26.6484 16.3617 26.557V25.8188C16.3758 24.8836 15.7008 24.0328 14.8078 23.7937C14.4492 22.7391 14.1188 21.6703 13.8234 20.5945C16.0734 24.9961 22.1063 26.0016 25.6289 22.6125C28.0336 20.482 28.7578 16.5094 27.1406 13.6195C27.5273 13.3734 29.3484 12.2344 29.693 12.0164C33.6305 18.8578 28.4062 27.7594 20.4961 27.6539ZM32.632 10.7438L31.5984 10.2164L31.5281 8.94375L32.7656 8.30391C32.632 8.73984 32.2594 9.25313 32.4914 9.59766C32.5828 9.74531 32.7375 9.84375 32.9133 9.85781L33.7992 9.93516L32.632 10.7438Z" fill="black"/>
<path fill-rule="evenodd" clip-rule="evenodd" d="M33.7515 8.80734L35.4249 8.95499C35.9312 8.98312 36.121 9.69328 35.6921 9.98156L32.9851 11.8589C32.8163 11.9714 32.5984 11.9855 32.4155 11.8941L31.0234 11.1769L30.6296 11.423L29.6945 12.0136C29.5485 12.1059 29.1377 12.3635 28.6832 12.6484C28.0646 13.0362 27.365 13.4748 27.1421 13.6167L26.1999 14.2073L23.514 15.8948C23.5222 15.913 23.5297 15.9323 23.5373 15.9519C23.5621 16.016 23.5884 16.0838 23.6476 16.1269C24.1679 18.2855 22.7827 20.3456 20.4976 20.3808C15.7093 20.0784 16.4406 13.237 21.257 13.9261L21.3302 13.9563C21.9162 14.1982 22.4846 14.4329 22.9234 14.9527L25.6093 13.2652L26.5515 12.6745L29.1038 11.0714L30.053 10.4737L30.482 10.1995L30.3976 8.64562C30.3835 8.42765 30.496 8.21671 30.6929 8.11828L33.5687 6.62062C33.7726 6.50812 34.0257 6.54328 34.1945 6.69796C34.3702 6.85265 34.4265 7.09874 34.3421 7.31671L33.7515 8.80734ZM20.0265 17.4277C20.1882 17.6878 20.5398 17.7652 20.7929 17.6034L22.5437 16.5066C22.8601 17.5612 22.2835 18.7847 21.1656 19.1714C19.8156 19.6355 18.332 18.5667 18.3601 17.1323C18.339 15.3253 20.6382 14.2847 21.9531 15.5644L20.2023 16.6612C19.9421 16.823 19.8577 17.1675 20.0265 17.4277ZM31.5999 10.2136L32.6335 10.7409L33.8007 9.93234L32.9148 9.85499C32.739 9.84093 32.5843 9.74249 32.4929 9.59484C32.3256 9.34636 32.4727 9.01012 32.6179 8.67841C32.674 8.55018 32.7299 8.42263 32.7671 8.30109L31.5296 8.94093L31.5999 10.2136Z" fill="#E6B400"/>
</svg>
