<svg width="22" height="19" viewBox="0 0 22 19" fill="none" xmlns="http://www.w3.org/2000/svg">
<path d="M17.0724 8.8929H1.81237C1.54387 8.8929 1.28637 8.99956 1.09652 9.18942C0.90666 9.37928 0.8 9.63678 0.8 9.90527C0.8 10.1738 0.90666 10.4313 1.09652 10.6211C1.28637 10.811 1.54387 10.9176 1.81237 10.9176H17.0724L13.1133 14.8753L13.1133 14.8753C12.9232 15.0653 12.8165 15.3231 12.8165 15.5919C12.8165 15.8606 12.9232 16.1184 13.1133 16.3085C13.3033 16.4985 13.5611 16.6053 13.8299 16.6053C14.0986 16.6053 14.3564 16.4985 14.5465 16.3085L20.2329 10.622L17.0724 8.8929ZM17.0724 8.8929L13.1133 4.93528L13.1133 4.93525C13.0192 4.84115 12.9445 4.72943 12.8936 4.60648C12.8427 4.48353 12.8165 4.35175 12.8165 4.21867C12.8165 4.08559 12.8427 3.95381 12.8936 3.83086C12.9445 3.70791 13.0192 3.59619 13.1133 3.50209C13.2074 3.40799 13.3191 3.33334 13.4421 3.28241L13.5186 3.46719L13.4421 3.28241C13.565 3.23149 13.6968 3.20527 13.8299 3.20527C13.963 3.20527 14.0947 3.23149 14.2177 3.28241L14.1411 3.46719L14.2177 3.28241C14.3406 3.33334 14.4524 3.40799 14.5465 3.50209L20.2329 9.18851L17.0724 8.8929ZM20.453 9.51726C20.402 9.39435 20.3273 9.2827 20.2331 9.18869V10.6219C20.3273 10.5279 20.402 10.4162 20.453 10.2933C20.504 10.1703 20.5303 10.0384 20.5303 9.90527C20.5303 9.77211 20.504 9.64026 20.453 9.51726Z" fill="white" stroke="white" stroke-width="0.4"/>
</svg>
