<svg width="96" height="96" viewBox="0 0 96 96" fill="none" xmlns="http://www.w3.org/2000/svg">
<mask id="path-1-inside-1_1760_16842" fill="white">
<path fill-rule="evenodd" clip-rule="evenodd" d="M46.8291 65.0555C47.1289 65.4029 47.5707 65.6082 48.0283 65.6082C48.4859 65.6082 48.9277 65.4029 49.2275 65.0555C49.4102 64.8434 50.5472 63.5179 52.1865 61.4272L57.5368 72.4753L50.4689 76.1578L26.7464 61.4713L31.2427 53.2616H37.9368C42.3065 59.7795 46.4647 64.6325 46.8291 65.0555ZM51.3744 79.2192C51.2277 79.3345 51.0609 79.4199 50.8837 79.4749L42.5243 83.8315H84.7166C88.393 83.8315 91.3752 80.8314 91.3752 77.1523C91.3752 75.6364 90.8545 74.1521 89.9077 72.9678C89.892 72.952 89.8446 72.8889 89.8131 72.8415C88.5192 71.3572 86.6573 70.5046 84.7166 70.5046C82.2709 70.5046 80.0461 71.8151 78.8785 73.9468C78.5945 74.4521 78.0738 74.7679 77.49 74.7679C76.9061 74.7679 76.3855 74.4521 76.1014 73.9468L71.6636 65.8327L59.0835 68.4187L61.0397 72.4595C61.4183 73.2333 61.1028 74.1491 60.3454 74.5438L51.3744 79.2192ZM57.6637 65.4859L70.0782 62.934L64.7881 53.2616H58.1235C56.8097 55.2209 55.5149 57.0297 54.3365 58.6129L57.6637 65.4859ZM74.0296 63.5812C73.9656 63.3717 73.8604 63.1836 73.7249 63.0242L67.484 51.6128C67.9989 50.6362 69.0396 49.9901 70.1725 49.9901C71.0719 49.9901 71.9398 50.4006 72.5078 51.0796L85.4702 67.3768C85.2151 67.3567 84.9584 67.3465 84.7008 67.3465C82.0184 67.3465 79.5096 68.436 77.6951 70.2835L74.0296 63.5812ZM25.2252 64.2488L47.214 77.8536L35.7402 83.8315H11.2985C7.62211 83.8315 4.63995 80.8314 4.63995 77.1523C4.63995 75.7542 5.09221 74.3699 5.92011 73.2166C6.00222 73.1475 6.0778 73.0688 6.14473 72.9807L6.53822 72.4858C8.70733 70.3577 12.192 69.9231 14.7383 71.452C15.7481 72.0678 16.5844 72.9205 17.1366 73.9468C17.4207 74.4521 17.9571 74.7679 18.5252 74.7679C19.109 74.7679 19.6297 74.4521 19.9137 73.9468L25.2252 64.2488ZM35.8921 50.1035C31.5038 43.07 27.4688 34.7799 27.4688 28.0747C27.4688 16.7215 36.6993 7.5 48.0283 7.5C59.3574 7.5 68.5879 16.7373 68.5879 28.0747C68.5879 34.7852 64.5553 43.073 60.1685 50.1035H64.701C65.7595 48.1284 67.8694 46.832 70.1725 46.832C72.0029 46.832 73.7543 47.6531 74.9377 49.0743L92.3889 71.0069C92.4686 71.1078 92.534 71.2156 92.5854 71.328C93.8261 73.0136 94.4993 75.0847 94.4993 77.1838C94.5624 82.5999 90.1602 87.0212 84.7481 87.0212H11.3143C5.90224 87.0212 1.5 82.6157 1.5 77.1838C1.5 74.9574 2.27315 72.7783 3.66167 71.0256C3.66956 71.0177 3.69322 70.9862 3.71689 70.9546C3.74056 70.923 3.76423 70.8914 3.77212 70.8835C3.80976 70.8393 3.84771 70.7955 3.88599 70.7521L21.1029 49.1058C22.3336 47.6531 24.0693 46.832 25.8996 46.832C28.2027 46.832 30.3013 48.1284 31.366 50.1035H35.8921ZM40.0255 50.6707C35.3426 43.5779 30.6245 34.7706 30.6245 28.0747C30.6245 18.4742 38.4349 10.6581 48.0283 10.6581C57.6217 10.6581 65.4322 18.4742 65.4322 28.0747C65.4322 34.7404 60.7433 43.5101 56.0748 50.5932C55.9452 50.7289 55.8394 50.8874 55.7643 51.0619C52.6753 55.701 49.641 59.5638 48.0283 61.5501C46.4035 59.5551 43.3356 55.6528 40.2227 50.9685C40.1682 50.8617 40.1019 50.7619 40.0255 50.6707ZM10.5905 67.3891C10.8305 67.3713 11.0719 67.3623 11.3143 67.3623C13.0973 67.3623 14.8645 67.8518 16.3793 68.7676C17.0893 69.194 17.7362 69.715 18.32 70.2993L28.5676 51.5745C28.0459 50.6194 27.0177 49.9901 25.8996 49.9901C25.0002 49.9901 24.1324 50.4006 23.5328 51.1112L10.5905 67.3891ZM48.0345 39.4591C41.6599 39.4591 36.4688 34.2641 36.4688 27.8848C36.4688 21.5055 41.6599 16.3105 48.0345 16.3105C54.4091 16.3105 59.6002 21.5055 59.6002 27.8848C59.6002 34.2641 54.4091 39.4591 48.0345 39.4591ZM48.0345 19.4844C43.3956 19.4844 39.6245 23.2583 39.6245 27.9006C39.6245 32.5429 43.3956 36.3168 48.0345 36.3168C52.6734 36.3168 56.4445 32.5429 56.4445 27.9006C56.4445 23.2583 52.6734 19.4844 48.0345 19.4844Z"/>
</mask>
<path fill-rule="evenodd" clip-rule="evenodd" d="M46.8291 65.0555C47.1289 65.4029 47.5707 65.6082 48.0283 65.6082C48.4859 65.6082 48.9277 65.4029 49.2275 65.0555C49.4102 64.8434 50.5472 63.5179 52.1865 61.4272L57.5368 72.4753L50.4689 76.1578L26.7464 61.4713L31.2427 53.2616H37.9368C42.3065 59.7795 46.4647 64.6325 46.8291 65.0555ZM51.3744 79.2192C51.2277 79.3345 51.0609 79.4199 50.8837 79.4749L42.5243 83.8315H84.7166C88.393 83.8315 91.3752 80.8314 91.3752 77.1523C91.3752 75.6364 90.8545 74.1521 89.9077 72.9678C89.892 72.952 89.8446 72.8889 89.8131 72.8415C88.5192 71.3572 86.6573 70.5046 84.7166 70.5046C82.2709 70.5046 80.0461 71.8151 78.8785 73.9468C78.5945 74.4521 78.0738 74.7679 77.49 74.7679C76.9061 74.7679 76.3855 74.4521 76.1014 73.9468L71.6636 65.8327L59.0835 68.4187L61.0397 72.4595C61.4183 73.2333 61.1028 74.1491 60.3454 74.5438L51.3744 79.2192ZM57.6637 65.4859L70.0782 62.934L64.7881 53.2616H58.1235C56.8097 55.2209 55.5149 57.0297 54.3365 58.6129L57.6637 65.4859ZM74.0296 63.5812C73.9656 63.3717 73.8604 63.1836 73.7249 63.0242L67.484 51.6128C67.9989 50.6362 69.0396 49.9901 70.1725 49.9901C71.0719 49.9901 71.9398 50.4006 72.5078 51.0796L85.4702 67.3768C85.2151 67.3567 84.9584 67.3465 84.7008 67.3465C82.0184 67.3465 79.5096 68.436 77.6951 70.2835L74.0296 63.5812ZM25.2252 64.2488L47.214 77.8536L35.7402 83.8315H11.2985C7.62211 83.8315 4.63995 80.8314 4.63995 77.1523C4.63995 75.7542 5.09221 74.3699 5.92011 73.2166C6.00222 73.1475 6.0778 73.0688 6.14473 72.9807L6.53822 72.4858C8.70733 70.3577 12.192 69.9231 14.7383 71.452C15.7481 72.0678 16.5844 72.9205 17.1366 73.9468C17.4207 74.4521 17.9571 74.7679 18.5252 74.7679C19.109 74.7679 19.6297 74.4521 19.9137 73.9468L25.2252 64.2488ZM35.8921 50.1035C31.5038 43.07 27.4688 34.7799 27.4688 28.0747C27.4688 16.7215 36.6993 7.5 48.0283 7.5C59.3574 7.5 68.5879 16.7373 68.5879 28.0747C68.5879 34.7852 64.5553 43.073 60.1685 50.1035H64.701C65.7595 48.1284 67.8694 46.832 70.1725 46.832C72.0029 46.832 73.7543 47.6531 74.9377 49.0743L92.3889 71.0069C92.4686 71.1078 92.534 71.2156 92.5854 71.328C93.8261 73.0136 94.4993 75.0847 94.4993 77.1838C94.5624 82.5999 90.1602 87.0212 84.7481 87.0212H11.3143C5.90224 87.0212 1.5 82.6157 1.5 77.1838C1.5 74.9574 2.27315 72.7783 3.66167 71.0256C3.66956 71.0177 3.69322 70.9862 3.71689 70.9546C3.74056 70.923 3.76423 70.8914 3.77212 70.8835C3.80976 70.8393 3.84771 70.7955 3.88599 70.7521L21.1029 49.1058C22.3336 47.6531 24.0693 46.832 25.8996 46.832C28.2027 46.832 30.3013 48.1284 31.366 50.1035H35.8921ZM40.0255 50.6707C35.3426 43.5779 30.6245 34.7706 30.6245 28.0747C30.6245 18.4742 38.4349 10.6581 48.0283 10.6581C57.6217 10.6581 65.4322 18.4742 65.4322 28.0747C65.4322 34.7404 60.7433 43.5101 56.0748 50.5932C55.9452 50.7289 55.8394 50.8874 55.7643 51.0619C52.6753 55.701 49.641 59.5638 48.0283 61.5501C46.4035 59.5551 43.3356 55.6528 40.2227 50.9685C40.1682 50.8617 40.1019 50.7619 40.0255 50.6707ZM10.5905 67.3891C10.8305 67.3713 11.0719 67.3623 11.3143 67.3623C13.0973 67.3623 14.8645 67.8518 16.3793 68.7676C17.0893 69.194 17.7362 69.715 18.32 70.2993L28.5676 51.5745C28.0459 50.6194 27.0177 49.9901 25.8996 49.9901C25.0002 49.9901 24.1324 50.4006 23.5328 51.1112L10.5905 67.3891ZM48.0345 39.4591C41.6599 39.4591 36.4688 34.2641 36.4688 27.8848C36.4688 21.5055 41.6599 16.3105 48.0345 16.3105C54.4091 16.3105 59.6002 21.5055 59.6002 27.8848C59.6002 34.2641 54.4091 39.4591 48.0345 39.4591ZM48.0345 19.4844C43.3956 19.4844 39.6245 23.2583 39.6245 27.9006C39.6245 32.5429 43.3956 36.3168 48.0345 36.3168C52.6734 36.3168 56.4445 32.5429 56.4445 27.9006C56.4445 23.2583 52.6734 19.4844 48.0345 19.4844Z" fill="white"/>
<path d="M46.8291 65.0555L46.7155 65.1534L46.7156 65.1535L46.8291 65.0555ZM49.2275 65.0555L49.3411 65.1535L49.3411 65.1534L49.2275 65.0555ZM52.1865 61.4272L52.3215 61.3619L52.2167 61.1456L52.0684 61.3347L52.1865 61.4272ZM57.5368 72.4753L57.6061 72.6084L57.7353 72.541L57.6718 72.41L57.5368 72.4753ZM50.4689 76.1578L50.39 76.2853L50.4625 76.3302L50.5382 76.2908L50.4689 76.1578ZM26.7464 61.4713L26.6148 61.3992L26.5465 61.524L26.6674 61.5988L26.7464 61.4713ZM31.2427 53.2616V53.1116H31.1539L31.1112 53.1895L31.2427 53.2616ZM37.9368 53.2616L38.0614 53.178L38.0169 53.1116H37.9368V53.2616ZM50.8837 79.4749L50.8393 79.3316L50.8264 79.3356L50.8144 79.3419L50.8837 79.4749ZM51.3744 79.2192L51.3051 79.0862L51.2927 79.0926L51.2817 79.1012L51.3744 79.2192ZM42.5243 83.8315L42.4549 83.6985L42.5243 83.9815V83.8315ZM89.9077 72.9678L90.0249 72.8742L90.0197 72.8677L90.0138 72.8618L89.9077 72.9678ZM89.8131 72.8415L89.9379 72.7583L89.9325 72.7503L89.9261 72.7429L89.8131 72.8415ZM78.8785 73.9468L79.0092 74.0203L79.01 74.0189L78.8785 73.9468ZM76.1014 73.9468L75.9698 74.0188L75.9707 74.0203L76.1014 73.9468ZM71.6636 65.8327L71.7952 65.7607L71.742 65.6634L71.6334 65.6858L71.6636 65.8327ZM59.0835 68.4187L59.0533 68.2718L58.8645 68.3106L58.9485 68.4841L59.0835 68.4187ZM61.0397 72.4595L60.9046 72.5249L60.9049 72.5255L61.0397 72.4595ZM60.3454 74.5438L60.4147 74.6769H60.4147L60.3454 74.5438ZM57.6637 65.4859L57.5287 65.5513L57.5796 65.6563L57.6939 65.6328L57.6637 65.4859ZM70.0782 62.934L70.1084 63.0809L70.3072 63.04L70.2098 62.862L70.0782 62.934ZM64.7881 53.2616L64.9197 53.1896L64.8771 53.1116H64.7881V53.2616ZM58.1235 53.2616V53.1116H58.0434L57.9989 53.178L58.1235 53.2616ZM54.3365 58.6129L54.2161 58.5233L54.1618 58.5963L54.2015 58.6782L54.3365 58.6129ZM73.7249 63.0242L73.5933 63.0961L73.6007 63.1096L73.6106 63.1213L73.7249 63.0242ZM74.0296 63.5812L73.8861 63.625L73.8906 63.6397L73.898 63.6532L74.0296 63.5812ZM67.484 51.6128L67.3513 51.5429L67.3137 51.6141L67.3524 51.6848L67.484 51.6128ZM72.5078 51.0796L72.6252 50.9862L72.6228 50.9834L72.5078 51.0796ZM85.4702 67.3768L85.4584 67.5264L85.8024 67.5535L85.5876 67.2835L85.4702 67.3768ZM77.6951 70.2835L77.5635 70.3555L77.6605 70.5328L77.8021 70.3886L77.6951 70.2835ZM47.214 77.8536L47.2833 77.9866L47.5172 77.8648L47.2929 77.726L47.214 77.8536ZM25.2252 64.2488L25.3041 64.1212L25.1696 64.038L25.0936 64.1767L25.2252 64.2488ZM35.7402 83.8315V83.9815H35.777L35.8095 83.9646L35.7402 83.8315ZM5.92011 73.2166L5.82356 73.1018L5.8092 73.1139L5.79825 73.1291L5.92011 73.2166ZM6.14473 72.9807L6.02729 72.8873L6.02527 72.89L6.14473 72.9807ZM6.53822 72.4858L6.43317 72.3787L6.42656 72.3852L6.42081 72.3925L6.53822 72.4858ZM14.7383 71.452L14.8164 71.3239L14.8155 71.3234L14.7383 71.452ZM17.1366 73.9468L17.0045 74.0179L17.0059 74.0203L17.1366 73.9468ZM19.9137 73.9468L20.0444 74.0203L20.0452 74.0189L19.9137 73.9468ZM35.8921 50.1035V50.2535H36.1625L36.0194 50.0241L35.8921 50.1035ZM60.1685 50.1035L60.0412 50.0241L59.8981 50.2535H60.1685V50.1035ZM64.701 50.1035V50.2535H64.7908L64.8332 50.1744L64.701 50.1035ZM74.9377 49.0743L75.0551 48.9808L75.053 48.9783L74.9377 49.0743ZM92.3889 71.0069L92.5066 70.9139L92.5063 70.9135L92.3889 71.0069ZM92.5854 71.328L92.449 71.3904L92.4554 71.4044L92.4646 71.4169L92.5854 71.328ZM94.4993 77.1838H94.3493L94.3493 77.1856L94.4993 77.1838ZM3.66167 71.0256L3.55555 70.9196L3.54945 70.9257L3.5441 70.9325L3.66167 71.0256ZM3.71689 70.9546L3.83692 71.0445H3.83692L3.71689 70.9546ZM3.77212 70.8835L3.87857 70.9899L3.88633 70.9808L3.77212 70.8835ZM3.88599 70.7521L3.99868 70.8513L4.00338 70.8454L3.88599 70.7521ZM21.1029 49.1058L20.9884 49.0088L20.9855 49.0125L21.1029 49.1058ZM31.366 50.1035L31.234 50.1747L31.2764 50.2535H31.366V50.1035ZM40.0255 50.6707L39.9003 50.7534L39.905 50.7605L39.9105 50.7671L40.0255 50.6707ZM56.0748 50.5932L56.1832 50.6968L56.1926 50.6871L56.2 50.6758L56.0748 50.5932ZM55.7643 51.0619L55.8891 51.1451L55.8966 51.1337L55.902 51.1213L55.7643 51.0619ZM48.0283 61.5501L47.912 61.6448L48.0285 61.7878L48.1448 61.6446L48.0283 61.5501ZM40.2227 50.9685L40.0891 51.0367L40.093 51.0444L40.0978 51.0515L40.2227 50.9685ZM10.5905 67.3891L10.4731 67.2958L10.2597 67.5641L10.6016 67.5387L10.5905 67.3891ZM16.3793 68.7676L16.3017 68.896L16.302 68.8962L16.3793 68.7676ZM18.32 70.2993L18.2139 70.4053L18.3555 70.547L18.4516 70.3713L18.32 70.2993ZM28.5676 51.5745L28.6992 51.6466L28.7385 51.5746L28.6992 51.5026L28.5676 51.5745ZM23.5328 51.1112L23.4181 51.0144L23.4154 51.0178L23.5328 51.1112ZM48.0283 65.4582C47.6151 65.4582 47.2145 65.2725 46.9427 64.9575L46.7156 65.1535C47.0434 65.5334 47.5264 65.7582 48.0283 65.7582V65.4582ZM49.1139 64.9575C48.8422 65.2725 48.4416 65.4582 48.0283 65.4582V65.7582C48.5302 65.7582 49.0132 65.5334 49.3411 65.1535L49.1139 64.9575ZM52.0684 61.3347C50.4309 63.4231 49.2955 64.7468 49.1138 64.9576L49.3411 65.1534C49.525 64.94 50.6635 63.6127 52.3045 61.5198L52.0684 61.3347ZM57.6718 72.41L52.3215 61.3619L52.0515 61.4926L57.4018 72.5407L57.6718 72.41ZM50.5382 76.2908L57.6061 72.6084L57.4675 72.3423L50.3996 76.0247L50.5382 76.2908ZM26.6674 61.5988L50.39 76.2853L50.5479 76.0302L26.8253 61.3437L26.6674 61.5988ZM31.1112 53.1895L26.6148 61.3992L26.878 61.5433L31.3743 53.3336L31.1112 53.1895ZM37.9368 53.1116H31.2427V53.4116H37.9368V53.1116ZM46.9428 64.9576C46.5803 64.5368 42.4263 59.6889 38.0614 53.178L37.8122 53.3451C42.1866 59.8701 46.3492 64.7282 46.7155 65.1534L46.9428 64.9576ZM50.9282 79.6182C51.122 79.5581 51.3052 79.4643 51.4671 79.3371L51.2817 79.1012C51.1501 79.2046 50.9999 79.2818 50.8393 79.3316L50.9282 79.6182ZM42.5936 83.9646L50.9531 79.6079L50.8144 79.3419L42.4549 83.6985L42.5936 83.9646ZM84.7166 83.6815H42.5243V83.9815H84.7166V83.6815ZM91.2252 77.1523C91.2252 80.7491 88.3096 83.6815 84.7166 83.6815V83.9815C88.4764 83.9815 91.5252 80.9137 91.5252 77.1523H91.2252ZM89.7906 73.0615C90.7161 74.2192 91.2252 75.6704 91.2252 77.1523H91.5252C91.5252 75.6023 90.9929 74.085 90.0249 72.8742L89.7906 73.0615ZM89.6882 72.9247C89.7058 72.9511 89.7272 72.981 89.7463 73.0065C89.7628 73.0285 89.7849 73.0571 89.8017 73.0739L90.0138 72.8618C90.0161 72.864 90.0145 72.8626 90.0076 72.854C90.0018 72.8469 89.9945 72.8375 89.9864 72.8266C89.9699 72.8046 89.9519 72.7793 89.9379 72.7583L89.6882 72.9247ZM84.7166 70.6546C86.6134 70.6546 88.4342 71.488 89.7 72.9401L89.9261 72.7429C88.6042 71.2265 86.7013 70.3545 84.7166 70.3545V70.6546ZM79.01 74.0189C80.1511 71.9357 82.3252 70.6546 84.7166 70.6546V70.3545C82.2166 70.3545 79.9411 71.6946 78.7469 73.8748L79.01 74.0189ZM77.49 74.9179C78.1297 74.9179 78.6995 74.5713 79.0092 74.0203L78.7477 73.8733C78.4894 74.3329 78.0178 74.6179 77.49 74.6179V74.9179ZM75.9707 74.0203C76.2804 74.5713 76.8502 74.9179 77.49 74.9179V74.6179C76.9621 74.6179 76.4905 74.3329 76.2322 73.8733L75.9707 74.0203ZM71.532 65.9047L75.9698 74.0188L76.233 73.8749L71.7952 65.7607L71.532 65.9047ZM71.6334 65.6858L59.0533 68.2718L59.1137 68.5656L71.6938 65.9796L71.6334 65.6858ZM61.1747 72.3942L59.2185 68.3533L58.9485 68.4841L60.9046 72.5249L61.1747 72.3942ZM60.4147 74.6769C61.2425 74.2454 61.5897 73.2422 61.1744 72.3936L60.9049 72.5255C61.247 73.2243 60.9631 74.0528 60.2761 74.4108L60.4147 74.6769ZM51.4437 79.3522L60.4147 74.6769L60.2761 74.4108L51.3051 79.0862L51.4437 79.3522ZM57.6939 65.6328L70.1084 63.0809L70.048 62.787L57.6335 65.339L57.6939 65.6328ZM64.6565 53.3335L69.9466 63.0059L70.2098 62.862L64.9197 53.1896L64.6565 53.3335ZM58.1235 53.4116H64.7881V53.1116H58.1235V53.4116ZM54.4568 58.7024C55.6364 57.1176 56.9327 55.3068 58.2481 53.3451L57.9989 53.178C56.6867 55.135 55.3933 56.9418 54.2161 58.5233L54.4568 58.7024ZM57.7987 65.4205L54.4715 58.5475L54.2015 58.6782L57.5287 65.5513L57.7987 65.4205ZM73.6106 63.1213C73.7331 63.2655 73.8282 63.4356 73.8861 63.625L74.173 63.5374C74.1029 63.3078 73.9876 63.1017 73.8392 62.927L73.6106 63.1213ZM67.3524 51.6848L73.5933 63.0961L73.8565 62.9522L67.6156 51.5409L67.3524 51.6848ZM70.1725 49.8401C68.9831 49.8401 67.8917 50.5178 67.3513 51.5429L67.6167 51.6828C68.106 50.7546 69.0961 50.1401 70.1725 50.1401V49.8401ZM72.6228 50.9834C72.0264 50.2705 71.1165 49.8401 70.1725 49.8401V50.1401C71.0273 50.1401 71.8531 50.5308 72.3927 51.1759L72.6228 50.9834ZM85.5876 67.2835L72.6252 50.9862L72.3904 51.173L85.3528 67.4702L85.5876 67.2835ZM84.7008 67.4965C84.9545 67.4965 85.2072 67.5065 85.4584 67.5264L85.482 67.2273C85.223 67.2068 84.9624 67.1965 84.7008 67.1965V67.4965ZM77.8021 70.3886C79.5889 68.5694 82.0594 67.4965 84.7008 67.4965V67.1965C81.9775 67.1965 79.4303 68.3027 77.5881 70.1784L77.8021 70.3886ZM73.898 63.6532L77.5635 70.3555L77.8267 70.2115L74.1612 63.5092L73.898 63.6532ZM47.2929 77.726L25.3041 64.1212L25.1463 64.3763L47.1351 77.9811L47.2929 77.726ZM35.8095 83.9646L47.2833 77.9866L47.1447 77.7206L35.6709 83.6985L35.8095 83.9646ZM11.2985 83.9815H35.7402V83.6815H11.2985V83.9815ZM4.48995 77.1523C4.48995 80.9137 7.53871 83.9815 11.2985 83.9815V83.6815C7.70552 83.6815 4.78995 80.7491 4.78995 77.1523H4.48995ZM5.79825 73.1291C4.95249 74.3073 4.48995 75.7221 4.48995 77.1523H4.78995C4.78995 75.7863 5.23194 74.4325 6.04196 73.3041L5.79825 73.1291ZM6.02527 72.89C5.96525 72.969 5.89741 73.0397 5.82356 73.1018L6.01665 73.3314C6.10704 73.2554 6.19035 73.1687 6.26418 73.0714L6.02527 72.89ZM6.42081 72.3925L6.02732 72.8874L6.26214 73.0741L6.65563 72.5792L6.42081 72.3925ZM14.8155 71.3234C12.209 69.7583 8.64969 70.2042 6.43317 72.3787L6.64327 72.5929C8.76497 70.5113 12.175 70.0878 14.6611 71.5806L14.8155 71.3234ZM17.2687 73.8758C16.7029 72.8242 15.8472 71.9525 14.8164 71.3239L14.6602 71.58C15.649 72.1831 16.4659 73.0168 17.0045 74.0179L17.2687 73.8758ZM18.5252 74.6179C18.0123 74.6179 17.5253 74.3322 17.2674 73.8733L17.0059 74.0203C17.316 74.572 17.902 74.9179 18.5252 74.9179V74.6179ZM19.7829 73.8733C19.5246 74.3329 19.053 74.6179 18.5252 74.6179V74.9179C19.165 74.9179 19.7347 74.5713 20.0444 74.0203L19.7829 73.8733ZM25.0936 64.1767L19.7821 73.8748L20.0452 74.0189L25.3567 64.3208L25.0936 64.1767ZM27.3188 28.0747C27.3188 31.4549 28.3352 35.2244 29.8961 39.023C31.4576 42.8232 33.568 46.6618 35.7649 50.1829L36.0194 50.0241C33.8279 46.5117 31.7266 42.6885 30.1736 38.909C28.6198 35.1279 27.6187 31.3997 27.6187 28.0747H27.3188ZM48.0283 7.35C36.6164 7.35 27.3188 16.6387 27.3188 28.0747H27.6187C27.6187 16.8043 36.7821 7.65 48.0283 7.65V7.35ZM68.7379 28.0747C68.7379 16.6546 59.4403 7.35 48.0283 7.35V7.65C59.2744 7.65 68.4379 16.82 68.4379 28.0747H68.7379ZM60.2957 50.1829C62.4918 46.6633 64.6012 42.826 66.162 39.0261C67.7221 35.2278 68.7379 31.4576 68.7379 28.0747H68.4379C68.4379 31.4024 67.4374 35.1313 65.8845 38.9121C64.3322 42.6913 62.2319 46.5132 60.0412 50.0241L60.2957 50.1829ZM64.701 49.9535H60.1685V50.2535H64.701V49.9535ZM70.1725 46.682C67.8135 46.682 65.6531 48.0094 64.5688 50.0327L64.8332 50.1744C65.8659 48.2474 67.9254 46.982 70.1725 46.982V46.682ZM75.053 48.9783C73.8412 47.5231 72.0477 46.682 70.1725 46.682V46.982C71.9581 46.982 73.6674 47.7831 74.8224 49.1702L75.053 48.9783ZM92.5063 70.9135L75.0551 48.9809L74.8203 49.1676L92.2715 71.1003L92.5063 70.9135ZM92.7218 71.2656C92.6655 71.1424 92.5938 71.0243 92.5066 70.9139L92.2712 71.0999C92.3434 71.1913 92.4025 71.2889 92.449 71.3904L92.7218 71.2656ZM94.6493 77.1838C94.6493 75.0531 93.9661 72.9508 92.7062 71.2391L92.4646 71.4169C93.6861 73.0765 94.3493 75.1163 94.3493 77.1838H94.6493ZM84.7481 87.1712C90.2431 87.1712 94.7134 82.6823 94.6493 77.1821L94.3493 77.1856C94.4115 82.5175 90.0773 86.8712 84.7481 86.8712V87.1712ZM11.3143 87.1712H84.7481V86.8712H11.3143V87.1712ZM1.35 77.1838C1.35 82.6983 5.81914 87.1712 11.3143 87.1712V86.8712C5.98534 86.8712 1.65 82.5331 1.65 77.1838H1.35ZM3.5441 70.9325C2.13504 72.7111 1.35 74.9229 1.35 77.1838H1.65C1.65 74.992 2.41127 72.8456 3.77925 71.1188L3.5441 70.9325ZM3.59686 70.8646C3.58485 70.8806 3.57362 70.8956 3.56444 70.9076C3.55984 70.9136 3.55629 70.9181 3.55375 70.9212C3.55249 70.9228 3.55185 70.9235 3.5517 70.9237C3.55125 70.9242 3.55276 70.9224 3.55555 70.9196L3.7678 71.1316C3.78019 71.1192 3.79472 71.1003 3.80229 71.0904C3.81282 71.0767 3.82526 71.0601 3.83692 71.0445L3.59686 70.8646ZM3.66602 70.7775C3.65361 70.7899 3.63907 70.8089 3.6315 70.8188C3.62096 70.8325 3.60852 70.8491 3.59686 70.8646L3.83692 71.0445C3.84893 71.0285 3.86016 71.0135 3.86935 71.0016C3.87395 70.9956 3.87751 70.9911 3.88004 70.9879C3.8813 70.9864 3.88195 70.9856 3.88209 70.9855C3.88254 70.9849 3.88103 70.9867 3.87823 70.9895L3.66602 70.7775ZM3.77344 70.6529C3.7346 70.697 3.69609 70.7414 3.65792 70.7863L3.88633 70.9808C3.92342 70.9372 3.96082 70.894 3.99853 70.8512L3.77344 70.6529ZM20.9855 49.0125L3.76859 70.6587L4.00338 70.8454L21.2203 49.1992L20.9855 49.0125ZM25.8996 46.682C24.0233 46.682 22.2464 47.524 20.9884 49.0089L21.2173 49.2028C22.4208 47.7823 24.1152 46.982 25.8996 46.982V46.682ZM31.498 50.0323C30.4077 48.0097 28.259 46.682 25.8996 46.682V46.982C28.1464 46.982 30.1948 48.2471 31.234 50.1747L31.498 50.0323ZM35.8921 49.9535H31.366V50.2535H35.8921V49.9535ZM30.4745 28.0747C30.4745 31.4539 31.6639 35.3526 33.4321 39.2854C35.2015 43.2208 37.5563 47.2032 39.9003 50.7534L40.1507 50.5881C37.8117 47.0455 35.4661 43.0778 33.7057 39.1624C31.9441 35.2443 30.7745 31.3914 30.7745 28.0747H30.4745ZM48.0283 10.5081C38.352 10.5081 30.4745 18.3915 30.4745 28.0747H30.7745C30.7745 18.557 38.5179 10.8081 48.0283 10.8081V10.5081ZM65.5822 28.0747C65.5822 18.3915 57.7047 10.5081 48.0283 10.5081V10.8081C57.5388 10.8081 65.2822 18.557 65.2822 28.0747H65.5822ZM56.2 50.6758C58.5368 47.1304 60.8808 43.1598 62.641 39.2389C64.4001 35.3204 65.5822 31.4388 65.5822 28.0747H65.2822C65.2822 31.3764 64.1198 35.2124 62.3673 39.116C60.616 43.0171 58.2813 46.9729 55.9495 50.5107L56.2 50.6758ZM55.902 51.1213C55.97 50.9634 56.0658 50.8198 56.1832 50.6968L55.9663 50.4896C55.8246 50.638 55.7088 50.8114 55.6265 51.0026L55.902 51.1213ZM48.1448 61.6446C49.7592 59.6562 52.7966 55.7894 55.8891 51.1451L55.6394 50.9788C52.554 55.6125 49.5229 59.4713 47.9119 61.4555L48.1448 61.6446ZM40.0978 51.0515C43.2143 55.7412 46.2854 59.6476 47.912 61.6448L48.1446 61.4554C46.5216 59.4626 43.457 55.5644 40.3476 50.8855L40.0978 51.0515ZM39.9105 50.7671C39.9797 50.8497 40.0398 50.9401 40.0891 51.0367L40.3563 50.9002C40.2966 50.7834 40.224 50.6741 40.1405 50.5744L39.9105 50.7671ZM11.3143 67.2123C11.0682 67.2123 10.8231 67.2214 10.5794 67.2396L10.6016 67.5387C10.8379 67.5212 11.0756 67.5123 11.3143 67.5123V67.2123ZM16.4569 68.6393C14.9185 67.7091 13.1244 67.2123 11.3143 67.2123V67.5123C13.0702 67.5123 14.8106 67.9944 16.3017 68.896L16.4569 68.6393ZM18.4261 70.1932C17.8347 69.6014 17.1783 69.0724 16.4565 68.639L16.302 68.8962C17.0003 69.3155 17.6377 69.8287 18.2139 70.4053L18.4261 70.1932ZM28.436 51.5025L18.1884 70.2273L18.4516 70.3713L28.6992 51.6466L28.436 51.5025ZM25.8996 50.1401C26.9618 50.1401 27.9401 50.7385 28.4359 51.6464L28.6992 51.5026C28.1518 50.5002 27.0735 49.8401 25.8996 49.8401V50.1401ZM23.6474 51.2079C24.2196 50.5299 25.046 50.1401 25.8996 50.1401V49.8401C24.9544 49.8401 24.0452 50.2714 23.4181 51.0145L23.6474 51.2079ZM10.7079 67.4825L23.6502 51.2045L23.4154 51.0178L10.4731 67.2958L10.7079 67.4825ZM36.3187 27.8848C36.3187 34.3468 41.577 39.6091 48.0345 39.6091V39.3091C41.7429 39.3091 36.6188 34.1813 36.6188 27.8848H36.3187ZM48.0345 16.1605C41.577 16.1605 36.3187 21.4228 36.3187 27.8848H36.6188C36.6188 21.5883 41.7429 16.4605 48.0345 16.4605V16.1605ZM59.7502 27.8848C59.7502 21.4228 54.492 16.1605 48.0345 16.1605V16.4605C54.3261 16.4605 59.4502 21.5883 59.4502 27.8848H59.7502ZM48.0345 39.6091C54.492 39.6091 59.7502 34.3468 59.7502 27.8848H59.4502C59.4502 34.1813 54.3261 39.3091 48.0345 39.3091V39.6091ZM39.7745 27.9006C39.7745 23.341 43.4785 19.6344 48.0345 19.6344V19.3344C43.3126 19.3344 39.4745 23.1755 39.4745 27.9006H39.7745ZM48.0345 36.1668C43.4785 36.1668 39.7745 32.4602 39.7745 27.9006H39.4745C39.4745 32.6257 43.3126 36.4668 48.0345 36.4668V36.1668ZM56.2945 27.9006C56.2945 32.4602 52.5905 36.1668 48.0345 36.1668V36.4668C52.7564 36.4668 56.5945 32.6257 56.5945 27.9006H56.2945ZM48.0345 19.6344C52.5905 19.6344 56.2945 23.341 56.2945 27.9006H56.5945C56.5945 23.1755 52.7564 19.3344 48.0345 19.3344V19.6344Z" fill="white" mask="url(#path-1-inside-1_1760_16842)"/>
<mask id="path-3-inside-2_1760_16842" fill="white">
<path fill-rule="evenodd" clip-rule="evenodd" d="M46.8213 65.0555C47.1211 65.4029 47.5629 65.6082 48.0205 65.6082C48.4781 65.6082 48.9199 65.4029 49.2197 65.0555C50.0086 64.1397 68.5801 42.4754 68.5801 28.0747C68.5801 16.7373 59.3496 7.5 48.0205 7.5C36.6914 7.5 27.4609 16.7215 27.4609 28.0747C27.4609 42.4597 46.0324 64.1397 46.8213 65.0555ZM30.6167 28.0747C30.6167 18.4742 38.4271 10.6581 48.0205 10.6581C57.6139 10.6581 65.4244 18.4742 65.4244 28.0747C65.4244 39.3016 52.123 56.4972 48.0205 61.5501C43.9181 56.513 30.6167 39.3174 30.6167 28.0747ZM36.4531 27.8848C36.4531 34.2641 41.6443 39.4591 48.0189 39.4591C54.3934 39.4591 59.5846 34.2641 59.5846 27.8848C59.5846 21.5055 54.3934 16.3105 48.0189 16.3105C41.6443 16.3105 36.4531 21.5055 36.4531 27.8848ZM39.6089 27.9006C39.6089 23.2583 43.38 19.4844 48.0189 19.4844C52.6578 19.4844 56.4289 23.2583 56.4289 27.9006C56.4289 32.5429 52.6578 36.3168 48.0189 36.3168C43.38 36.3168 39.6089 32.5429 39.6089 27.9006Z"/>
</mask>
<path fill-rule="evenodd" clip-rule="evenodd" d="M46.8213 65.0555C47.1211 65.4029 47.5629 65.6082 48.0205 65.6082C48.4781 65.6082 48.9199 65.4029 49.2197 65.0555C50.0086 64.1397 68.5801 42.4754 68.5801 28.0747C68.5801 16.7373 59.3496 7.5 48.0205 7.5C36.6914 7.5 27.4609 16.7215 27.4609 28.0747C27.4609 42.4597 46.0324 64.1397 46.8213 65.0555ZM30.6167 28.0747C30.6167 18.4742 38.4271 10.6581 48.0205 10.6581C57.6139 10.6581 65.4244 18.4742 65.4244 28.0747C65.4244 39.3016 52.123 56.4972 48.0205 61.5501C43.9181 56.513 30.6167 39.3174 30.6167 28.0747ZM36.4531 27.8848C36.4531 34.2641 41.6443 39.4591 48.0189 39.4591C54.3934 39.4591 59.5846 34.2641 59.5846 27.8848C59.5846 21.5055 54.3934 16.3105 48.0189 16.3105C41.6443 16.3105 36.4531 21.5055 36.4531 27.8848ZM39.6089 27.9006C39.6089 23.2583 43.38 19.4844 48.0189 19.4844C52.6578 19.4844 56.4289 23.2583 56.4289 27.9006C56.4289 32.5429 52.6578 36.3168 48.0189 36.3168C43.38 36.3168 39.6089 32.5429 39.6089 27.9006Z" fill="#E6B400"/>
<path d="M46.8213 65.0555L46.7077 65.1534L46.7078 65.1535L46.8213 65.0555ZM49.2197 65.0555L49.3332 65.1535L49.3333 65.1534L49.2197 65.0555ZM48.0205 61.5501L47.9042 61.6448L48.0207 61.7878L48.137 61.6446L48.0205 61.5501ZM48.0205 65.4582C47.6073 65.4582 47.2067 65.2725 46.9349 64.9575L46.7078 65.1535C47.0356 65.5334 47.5186 65.7582 48.0205 65.7582V65.4582ZM49.1061 64.9575C48.8344 65.2725 48.4338 65.4582 48.0205 65.4582V65.7582C48.5224 65.7582 49.0054 65.5334 49.3332 65.1535L49.1061 64.9575ZM68.4301 28.0747C68.4301 31.6456 67.278 35.6781 65.5282 39.7402C63.7792 43.8003 61.4378 47.8793 59.0698 51.5405C54.3337 58.8628 49.4986 64.5019 49.106 64.9576L49.3333 65.1534C49.7297 64.6934 54.5748 59.0424 59.3217 51.7034C61.6951 48.034 64.0459 43.9396 65.8037 39.8588C67.5607 35.78 68.7301 31.7042 68.7301 28.0747H68.4301ZM48.0205 7.65C59.2666 7.65 68.4301 16.82 68.4301 28.0747H68.7301C68.7301 16.6546 59.4325 7.35 48.0205 7.35V7.65ZM27.6109 28.0747C27.6109 16.8043 36.7743 7.65 48.0205 7.65V7.35C36.6086 7.35 27.3109 16.6387 27.3109 28.0747H27.6109ZM46.935 64.9576C46.5424 64.5019 41.7073 58.8589 36.9712 51.5346C34.6032 47.8724 32.2618 43.7929 30.5128 39.7335C28.763 35.6721 27.6109 31.6417 27.6109 28.0747H27.3109C27.3109 31.7003 28.4803 35.7741 30.2373 39.8522C31.9951 43.9322 34.3459 48.027 36.7193 51.6975C41.4662 59.0384 46.3113 64.6933 46.7077 65.1534L46.935 64.9576ZM48.0205 10.5081C38.3441 10.5081 30.4667 18.3915 30.4667 28.0747H30.7667C30.7667 18.557 38.51 10.8081 48.0205 10.8081V10.5081ZM65.5744 28.0747C65.5744 18.3915 57.6969 10.5081 48.0205 10.5081V10.8081C57.531 10.8081 65.2744 18.557 65.2744 28.0747H65.5744ZM48.137 61.6446C50.1901 59.1159 54.5459 53.5477 58.3891 47.2054C60.3108 44.0342 62.106 40.6668 63.4211 37.3869C64.7356 34.1086 65.5744 30.9085 65.5744 28.0747H65.2744C65.2744 30.8544 64.4504 34.0139 63.1427 37.2752C61.8356 40.5349 60.0491 43.8872 58.1326 47.0499C54.2995 53.3753 49.9534 58.9314 47.9041 61.4555L48.137 61.6446ZM30.4667 28.0747C30.4667 30.9124 31.3054 34.1154 32.6199 37.3957C33.935 40.6776 35.7302 44.046 37.6519 47.2172C41.4952 53.5596 45.851 59.1238 47.9042 61.6448L48.1368 61.4554C46.0876 58.9393 41.7415 53.3872 37.9085 47.0618C35.992 43.8991 34.2054 40.5458 32.8983 37.2841C31.5906 34.0208 30.7667 30.8584 30.7667 28.0747H30.4667ZM48.0189 39.3091C41.7272 39.3091 36.6031 34.1813 36.6031 27.8848H36.3031C36.3031 34.3468 41.5614 39.6091 48.0189 39.6091V39.3091ZM59.4346 27.8848C59.4346 34.1813 54.3105 39.3091 48.0189 39.3091V39.6091C54.4764 39.6091 59.7346 34.3468 59.7346 27.8848H59.4346ZM48.0189 16.4605C54.3105 16.4605 59.4346 21.5883 59.4346 27.8848H59.7346C59.7346 21.4228 54.4764 16.1605 48.0189 16.1605V16.4605ZM36.6031 27.8848C36.6031 21.5883 41.7272 16.4605 48.0189 16.4605V16.1605C41.5614 16.1605 36.3031 21.4228 36.3031 27.8848H36.6031ZM48.0189 19.3344C43.297 19.3344 39.4589 23.1755 39.4589 27.9006H39.7589C39.7589 23.341 43.4629 19.6344 48.0189 19.6344V19.3344ZM56.5789 27.9006C56.5789 23.1755 52.7407 19.3344 48.0189 19.3344V19.6344C52.5748 19.6344 56.2789 23.341 56.2789 27.9006H56.5789ZM48.0189 36.4668C52.7407 36.4668 56.5789 32.6257 56.5789 27.9006H56.2789C56.2789 32.4602 52.5748 36.1668 48.0189 36.1668V36.4668ZM39.4589 27.9006C39.4589 32.6257 43.297 36.4668 48.0189 36.4668V36.1668C43.4629 36.1668 39.7589 32.4602 39.7589 27.9006H39.4589Z" fill="white" mask="url(#path-3-inside-2_1760_16842)"/>
</svg>
