<svg width="33" height="33" viewBox="0 0 33 33" fill="none" xmlns="http://www.w3.org/2000/svg">
<path fill-rule="evenodd" clip-rule="evenodd" d="M21.8333 5.2334H11.1667C7.48477 5.2334 4.5 8.21817 4.5 11.9001V22.5667C4.5 26.2486 7.48477 29.2334 11.1667 29.2334H21.8333C25.5152 29.2334 28.5 26.2486 28.5 22.5667V11.9001C28.5 8.21817 25.5152 5.2334 21.8333 5.2334ZM26.1667 22.5667C26.1593 24.9569 24.2235 26.8927 21.8333 26.9001H11.1667C8.77646 26.8927 6.84065 24.9569 6.83333 22.5667V11.9001C6.84065 9.50986 8.77646 7.57405 11.1667 7.56673H21.8333C24.2235 7.57405 26.1593 9.50986 26.1667 11.9001V22.5667ZM22.8333 12.2334C23.5697 12.2334 24.1667 11.6364 24.1667 10.9001C24.1667 10.1637 23.5697 9.56673 22.8333 9.56673C22.0969 9.56673 21.5 10.1637 21.5 10.9001C21.5 11.6364 22.0969 12.2334 22.8333 12.2334ZM16.5 11.2334C13.1863 11.2334 10.5 13.9197 10.5 17.2334C10.5 20.5471 13.1863 23.2334 16.5 23.2334C19.8137 23.2334 22.5 20.5471 22.5 17.2334C22.5036 15.641 21.8725 14.1128 20.7465 12.9868C19.6205 11.8608 18.0924 11.2298 16.5 11.2334ZM12.8333 17.2334C12.8333 19.2585 14.4749 20.9001 16.5 20.9001C18.5251 20.9001 20.1667 19.2585 20.1667 17.2334C20.1667 15.2083 18.5251 13.5667 16.5 13.5667C14.4749 13.5667 12.8333 15.2083 12.8333 17.2334Z" fill="white"/>
</svg>
