<svg width="96" height="99" viewBox="0 0 96 99" fill="none" xmlns="http://www.w3.org/2000/svg">
<path d="M82.2785 14.1454C67.2436 -1.34525 42.7797 -1.34545 27.7444 14.1454C25.7054 16.2461 23.9093 18.5619 22.3823 21.0524L21.5464 19.5866C21.2594 19.083 20.7229 18.7882 20.1554 18.8272C9.51701 19.5427 5.32001 25.066 3.67226 29.5733C1.46239 35.6193 2.29489 44.0581 6.01657 53.3351C9.41314 61.8016 14.9963 70.4038 21.3344 76.9361C27.6741 83.466 36.0233 89.2184 44.2409 92.7179C49.9448 95.1469 55.3214 96.3814 59.9888 96.3814C62.6892 96.3814 65.1531 95.9678 67.3039 95.1332C71.6789 93.4357 77.0397 89.1115 77.7342 78.1508C77.7711 77.568 77.4859 77.0135 76.9971 76.7176L75.5744 75.8564C77.9918 74.2829 80.2394 72.4324 82.2783 70.3316C97.3133 54.8409 97.3133 29.6359 82.2783 14.1452L82.2785 14.1454ZM66.2468 92.2409C61.0936 94.2405 53.6854 93.3954 45.3873 89.8617C37.5207 86.5117 29.527 81.0037 23.4561 74.7508C17.3868 68.4956 12.0409 60.2597 8.78932 52.1547C5.35939 43.6049 4.53926 35.9723 6.48007 30.663C8.3412 25.5714 12.6981 22.6557 19.4361 21.9876L28.8856 38.5599L20.1869 47.5172C19.7734 47.943 19.6377 48.577 19.8389 49.1422C22.0011 55.2192 26.1186 61.6689 31.1363 66.8387C36.1609 72.0103 42.421 76.2524 48.3113 78.4773C48.8598 78.6844 49.4753 78.5443 49.8886 78.1187L58.5824 69.1564L74.6673 78.8922C74.0189 85.8346 71.1889 90.3234 66.247 92.2409H66.2468ZM72.6263 74.0722L59.1014 65.8859C58.5123 65.5293 57.7638 65.6282 57.2806 66.126L48.4548 75.2243C43.2207 73.069 37.7301 69.2567 33.2569 64.6526C28.7903 60.0504 25.0902 54.3937 22.9962 48.9943L31.8269 39.901C32.3103 39.4034 32.4059 38.632 32.0599 38.025L24.1144 24.09C25.6825 21.2626 27.6115 18.6539 29.866 16.3309C43.7314 2.04548 66.292 2.04548 80.1574 16.3309C94.0227 30.6165 94.0227 53.8605 80.1574 68.1461C77.9029 70.4689 75.3709 72.4564 72.6265 74.072L72.6263 74.0722ZM65.3686 46.6146L59.6013 43.1851C59.6609 42.8781 59.6926 42.5609 59.6926 42.236C59.6926 40.1187 58.36 38.3171 56.5141 37.6715V26.8151C56.5141 25.9616 55.8424 25.2696 55.0141 25.2696C54.1857 25.2696 53.5141 25.9616 53.5141 26.8151V37.6709C51.6651 38.3161 50.3303 40.1181 50.3303 42.2362C50.3303 44.8971 52.4314 47.0619 55.0141 47.0619C56.1949 47.0619 57.2742 46.6073 58.0983 45.8603L63.8688 49.2918C64.105 49.4322 64.3626 49.499 64.6173 49.499C65.1357 49.499 65.6401 49.2216 65.9178 48.7259C66.3318 47.9866 66.0859 47.0416 65.3684 46.6148L65.3686 46.6146ZM55.0143 43.9708C54.0858 43.9708 53.3305 43.1924 53.3305 42.236C53.3305 41.2795 54.0858 40.5066 55.0143 40.5066C55.9428 40.5066 56.6928 41.2824 56.6928 42.236C56.6928 43.1895 55.9398 43.9708 55.0143 43.9708ZM53.5143 11.9196V9.29656C53.5143 8.44308 54.1859 7.7511 55.0143 7.7511C55.8426 7.7511 56.5143 8.44308 56.5143 9.29656V11.9196C56.5143 12.7731 55.8426 13.465 55.0143 13.465C54.1859 13.465 53.5143 12.7731 53.5143 11.9196ZM78.6801 17.8526C79.2659 18.4563 79.2661 19.4345 78.6801 20.0382L76.8784 21.8947C76.5856 22.1965 76.2016 22.3473 75.8178 22.3473C75.4339 22.3473 75.0499 22.1965 74.7571 21.8947C74.1713 21.291 74.1711 20.3127 74.7571 19.7091L76.5588 17.8526C77.1447 17.2491 78.0944 17.2489 78.6801 17.8526ZM88.4849 42.2358C88.4849 43.0893 87.8133 43.7812 86.9849 43.7812H84.439C83.6106 43.7812 82.939 43.0893 82.939 42.2358C82.939 41.3823 83.6106 40.6903 84.439 40.6903H86.9849C87.8133 40.6903 88.4849 41.3823 88.4849 42.2358ZM78.6803 64.4389C79.2661 65.0426 79.2661 66.0209 78.6803 66.6246C78.3875 66.9264 78.0036 67.0772 77.6196 67.0772C77.2356 67.0772 76.8518 66.9264 76.5589 66.6246L74.7573 64.7681C74.1715 64.1644 74.1715 63.1862 74.7573 62.5825C75.3432 61.9792 76.2929 61.979 76.8786 62.5825L78.6803 64.4389ZM35.266 19.7092C35.8519 20.3127 35.8519 21.2912 35.266 21.8947C34.9731 22.1965 34.5893 22.3473 34.2053 22.3473C33.8213 22.3473 33.4375 22.1965 33.1446 21.8947L31.3428 20.0382C30.7568 19.4347 30.7568 18.4563 31.3428 17.8528C31.9285 17.2493 32.8782 17.2493 33.4639 17.8528L35.266 19.7092Z" fill="white"/>
<path d="M65.3637 46.6175L59.5964 43.1879C59.656 42.8809 59.6877 42.5637 59.6877 42.2388C59.6877 40.1215 58.3551 38.3199 56.5092 37.6743V26.8179C56.5092 25.9644 55.8376 25.2724 55.0092 25.2724C54.1808 25.2724 53.5092 25.9644 53.5092 26.8179V37.6737C51.6603 38.3189 50.3255 40.1209 50.3255 42.239C50.3255 44.8999 52.4266 47.0647 55.0092 47.0647C56.1901 47.0647 57.2693 46.6101 58.0934 45.8631L63.8639 49.2946C64.1001 49.435 64.3578 49.5018 64.6124 49.5018C65.1308 49.5018 65.6352 49.2244 65.9129 48.7287C66.3269 47.9894 66.0813 47.0442 65.3637 46.6175ZM55.0094 43.9736C54.0809 43.9736 53.3256 43.1952 53.3256 42.2388C53.3256 41.2823 54.0809 40.5094 55.0094 40.5094C55.9379 40.5094 56.6879 41.2852 56.6879 42.2388C56.6879 43.1923 55.9349 43.9736 55.0094 43.9736ZM53.5094 11.9224V9.29936C53.5094 8.44588 54.181 7.75391 55.0094 7.75391C55.8378 7.75391 56.5094 8.44588 56.5094 9.29936V11.9224C56.5094 12.7759 55.8378 13.4678 55.0094 13.4678C54.181 13.4678 53.5094 12.7759 53.5094 11.9224ZM78.6753 17.8554C79.261 18.4591 79.2612 19.4373 78.6753 20.041L76.8736 21.8975C76.5807 22.1993 76.1967 22.3501 75.8129 22.3501C75.4291 22.3501 75.0451 22.1993 74.7522 21.8975C74.1665 21.2938 74.1663 20.3156 74.7522 19.7119L76.5539 17.8554C77.1398 17.2519 78.0895 17.2517 78.6753 17.8554ZM88.48 42.2386C88.48 43.0921 87.8084 43.784 86.98 43.784H84.4342C83.6058 43.784 82.9342 43.0921 82.9342 42.2386C82.9342 41.3851 83.6058 40.6931 84.4342 40.6931H86.98C87.8084 40.6931 88.48 41.3851 88.48 42.2386ZM78.6755 64.4418C79.2612 65.0454 79.2612 66.0237 78.6755 66.6274C78.3826 66.9292 77.9988 67.08 77.6148 67.08C77.2308 67.08 76.847 66.9292 76.5541 66.6274L74.7524 64.7709C74.1666 64.1672 74.1666 63.189 74.7524 62.5853C75.3383 61.982 76.288 61.9818 76.8738 62.5853L78.6755 64.4418ZM35.2611 19.7121C35.8471 20.3156 35.8471 21.294 35.2611 21.8975C34.9683 22.1993 34.5845 22.3501 34.2005 22.3501C33.8165 22.3501 33.4326 22.1993 33.1398 21.8975L31.3379 20.041C30.752 19.4375 30.752 18.4591 31.3379 17.8556C31.9236 17.2521 32.8733 17.2521 33.4591 17.8556L35.2611 19.7121Z" fill="#E6B400"/>
</svg>
