<svg width="52" height="52" viewBox="0 0 52 52" fill="none" xmlns="http://www.w3.org/2000/svg">
<path d="M47.1091 48.4642H5.30112C3.42912 48.4642 1.76513 46.8002 1.45312 44.4082C1.45312 44.3042 1.45313 44.0962 1.55713 43.9922C1.66113 43.8882 1.76512 43.7842 1.97312 43.7842H50.3331C50.4371 43.7842 50.6451 43.8882 50.7491 43.9922C50.8531 44.0962 50.8531 44.3042 50.8531 44.4082C50.6451 46.8002 48.9811 48.4642 47.1091 48.4642ZM2.59712 44.9282C3.01312 46.3842 4.05312 47.4242 5.30112 47.4242H47.0051C48.2531 47.4242 49.2931 46.3842 49.7091 44.9282H2.59712Z" fill="white"/>
<path d="M12.5808 44.9282H6.65281C6.34081 44.9282 6.13281 44.7202 6.13281 44.4082V19.9682C6.13281 18.5122 7.27681 17.3682 8.73281 17.3682H12.4768C12.7888 17.3682 12.9968 17.5762 12.9968 17.8882V44.3042C13.1008 44.7202 12.7888 44.9282 12.5808 44.9282ZM7.17281 43.8882H11.9568V18.5122H8.73281C7.90081 18.5122 7.17281 19.2402 7.17281 20.0722V43.8882Z" fill="white"/>
<path d="M45.6528 44.9284C45.3408 44.9284 45.1328 44.7204 45.1328 44.4084V24.3364C45.1328 24.0244 45.3408 23.8164 45.6528 23.8164C45.9648 23.8164 46.1728 24.0244 46.1728 24.3364V44.4084C46.1728 44.7204 45.9648 44.9284 45.6528 44.9284Z" fill="white"/>
<path d="M44.7166 18.7202C44.6126 18.7202 44.5086 18.7202 44.4046 18.6162C44.1966 18.5122 43.8846 18.4082 43.5726 18.4082H39.8286C39.5166 18.4082 39.3086 18.2002 39.3086 17.8882C39.3086 17.5762 39.5166 17.3682 39.8286 17.3682H43.6766C44.0926 17.3682 44.6126 17.4722 45.0286 17.7842C45.2366 17.8882 45.3406 18.2002 45.2366 18.5122C45.0286 18.7202 44.9246 18.7202 44.7166 18.7202Z" fill="white"/>
<path d="M38.3735 46.6962H37.9575C37.6455 46.6962 37.4375 46.4882 37.4375 46.1762C37.4375 45.8642 37.6455 45.6562 37.9575 45.6562H38.3735C38.6855 45.6562 38.8935 45.8642 38.8935 46.1762C38.8935 46.4882 38.6855 46.6962 38.3735 46.6962Z" fill="white"/>
<path d="M43.1587 46.6962H42.7427C42.4307 46.6962 42.2227 46.4882 42.2227 46.1762C42.2227 45.8642 42.4307 45.6562 42.7427 45.6562H43.1587C43.4707 45.6562 43.6787 45.8642 43.6787 46.1762C43.6787 46.4882 43.4707 46.6962 43.1587 46.6962Z" fill="white"/>
<path d="M40.8696 46.6962H40.4536C40.1416 46.6962 39.9336 46.4882 39.9336 46.1762C39.9336 45.8642 40.1416 45.6562 40.4536 45.6562H40.8696C41.1816 45.6562 41.3896 45.8642 41.3896 46.1762C41.3896 46.4882 41.0776 46.6962 40.8696 46.6962Z" fill="white"/>
<path d="M39.8314 44.9281H12.5834C12.2714 44.9281 12.0634 44.7201 12.0634 44.4081V6.76013C12.0634 5.51213 11.0234 4.57613 9.87937 4.57613C9.56737 4.57613 9.35938 4.36813 9.35938 4.05613C9.35938 3.74413 9.56737 3.53613 9.87937 3.53613H37.2314C38.9994 3.53613 40.4554 4.99213 40.4554 6.86413V29.6401C40.4554 29.9521 40.2474 30.1601 39.9354 30.1601C39.6234 30.1601 39.4154 29.9521 39.4154 29.6401V6.76013C39.4154 5.51213 38.3754 4.47213 37.2314 4.47213H12.1674C12.6874 5.09613 12.9994 5.82413 12.9994 6.65613V43.7841H39.3114V37.9601C39.3114 37.6481 39.5194 37.4401 39.8314 37.4401C40.1434 37.4401 40.3514 37.6481 40.3514 37.9601V44.3041C40.3514 44.7201 40.1434 44.9281 39.8314 44.9281Z" fill="white"/>
<path d="M12.5822 15.0801H4.26219C3.95019 15.0801 3.74219 14.8721 3.74219 14.5601C3.74219 14.2481 3.95019 14.0401 4.26219 14.0401C5.51019 14.0401 6.44619 13.0001 6.44619 11.8561V8.84013V8.73613V6.76013C6.44619 4.99213 7.90219 3.53613 9.67019 3.53613C11.4382 3.53613 12.8942 4.99213 12.8942 6.76013V14.5601C13.1022 14.8721 12.7902 15.0801 12.5822 15.0801ZM6.65419 14.0401H11.9582V6.76013C11.9582 5.51213 10.9182 4.57613 9.77419 4.57613C8.52619 4.57613 7.59019 5.61613 7.59019 6.76013V8.63213V8.73613V11.8561C7.59019 12.6881 7.27819 13.4161 6.65419 14.0401Z" fill="white"/>
<path d="M4.26306 15.0803C2.49506 15.0803 1.03906 13.6243 1.03906 11.8563V8.4243C1.03906 8.1123 1.24706 7.9043 1.55906 7.9043H7.07106C7.38306 7.9043 7.59106 8.1123 7.59106 8.4243V11.7523C7.59106 13.6243 6.13506 15.0803 4.26306 15.0803ZM2.07906 8.9443V11.7523C2.07906 13.0003 3.11906 13.9363 4.26306 13.9363C5.40706 13.9363 6.44706 12.8963 6.44706 11.7523V8.9443H2.07906Z" fill="white"/>
<path d="M24.3332 16.9523H15.8052C15.4932 16.9523 15.2852 16.7443 15.2852 16.4323V7.59227C15.2852 7.28027 15.4932 7.07227 15.8052 7.07227H24.3332C24.6452 7.07227 24.8532 7.28027 24.8532 7.59227V16.5363C24.8532 16.7443 24.5412 16.9523 24.3332 16.9523ZM16.3252 15.9123H23.8132V8.11227H16.3252V15.9123Z" fill="#E6B400"/>
<path d="M36.6041 8.21578H27.3481C27.0361 8.21578 26.8281 8.00778 26.8281 7.69578C26.8281 7.38378 27.0361 7.17578 27.3481 7.17578H36.6041C36.9161 7.17578 37.1241 7.38378 37.1241 7.69578C37.1241 8.00778 36.9161 8.21578 36.6041 8.21578Z" fill="#E6B400"/>
<path d="M36.6041 11.1279H27.3481C27.0361 11.1279 26.8281 10.9199 26.8281 10.6079C26.8281 10.2959 27.0361 10.0879 27.3481 10.0879H36.6041C36.9161 10.0879 37.1241 10.2959 37.1241 10.6079C37.1241 10.9199 36.9161 11.1279 36.6041 11.1279Z" fill="#E6B400"/>
<path d="M36.6041 14.04H27.3481C27.0361 14.04 26.8281 13.832 26.8281 13.52C26.8281 13.208 27.0361 13 27.3481 13H36.6041C36.9161 13 37.1241 13.208 37.1241 13.52C37.1241 13.832 36.9161 14.04 36.6041 14.04Z" fill="#E6B400"/>
<path d="M36.6041 16.9521H27.3481C27.0361 16.9521 26.8281 16.7441 26.8281 16.4321C26.8281 16.1201 27.0361 15.9121 27.3481 15.9121H36.6041C36.9161 15.9121 37.1241 16.1201 37.1241 16.4321C37.1241 16.7441 36.9161 16.9521 36.6041 16.9521Z" fill="#E6B400"/>
<path d="M36.6046 19.9677H25.9966C25.6846 19.9677 25.4766 19.7597 25.4766 19.4477C25.4766 19.1357 25.6846 18.9277 25.9966 18.9277H36.6046C36.9166 18.9277 37.1246 19.1357 37.1246 19.4477C37.1246 19.7597 36.9166 19.9677 36.6046 19.9677Z" fill="#E6B400"/>
<path d="M36.6046 22.8798H25.9966C25.6846 22.8798 25.4766 22.6718 25.4766 22.3598C25.4766 22.0478 25.7886 21.8398 25.9966 21.8398H36.6046C36.9166 21.8398 37.1246 22.0478 37.1246 22.3598C37.1246 22.6718 36.9166 22.8798 36.6046 22.8798Z" fill="#E6B400"/>
<path d="M25.9996 19.9677H15.7036C15.3916 19.9677 15.1836 19.7597 15.1836 19.4477C15.1836 19.1357 15.3916 18.9277 15.7036 18.9277H25.9996C26.3116 18.9277 26.5196 19.1357 26.5196 19.4477C26.5196 19.7597 26.3116 19.9677 25.9996 19.9677Z" fill="#E6B400"/>
<path d="M25.9996 22.8798H15.7036C15.3916 22.8798 15.1836 22.6718 15.1836 22.3598C15.1836 22.0478 15.3916 21.8398 15.7036 21.8398H25.9996C26.3116 21.8398 26.5196 22.0478 26.5196 22.3598C26.5196 22.6718 26.3116 22.8798 25.9996 22.8798Z" fill="#E6B400"/>
<path d="M37.3325 40.2485C37.1245 40.2485 36.9165 40.1445 36.8125 39.9365L35.9805 37.7525C35.9805 37.6485 35.9805 37.4405 35.9805 37.3365L46.1725 13.6245C46.5885 12.5845 47.9405 12.0645 48.9805 12.4805C49.5005 12.6885 49.9165 13.1045 50.1245 13.6245C50.3325 14.1445 50.3325 14.7685 50.1245 15.2885L39.9325 39.0005C39.8285 39.1045 39.7245 39.2085 39.6205 39.3125L37.4365 40.2485H37.3325ZM37.0205 37.6485L37.6445 39.1045L39.1005 38.4805L49.1885 14.9765C49.2925 14.6645 49.2925 14.3525 49.1885 14.1445C49.0845 13.8325 48.8765 13.6245 48.5645 13.5205C48.0445 13.3125 47.3165 13.5205 47.1085 14.1445L37.0205 37.6485Z" fill="white"/>
<path d="M36.6059 41.9119C36.5019 41.9119 36.5019 41.9119 36.3979 41.9119C36.0859 41.8079 35.9819 41.4959 36.0859 41.1839L36.8139 39.5199C36.9179 39.2079 37.2299 39.1039 37.5419 39.2079C37.8539 39.3119 37.9579 39.6239 37.8539 39.9359L37.0219 41.5999C37.0219 41.8079 36.8139 41.9119 36.6059 41.9119Z" fill="white"/>
<path d="M48.0472 29.1205C47.9432 29.1205 47.9432 29.1205 47.8392 29.1205C47.4232 28.9125 47.0072 28.6005 46.7992 28.0805C46.5912 27.5605 46.5912 27.1445 46.7992 26.6245L49.7112 19.7605C49.8152 19.4485 49.8152 19.1365 49.7112 18.7205C49.6072 18.4085 49.2952 18.2005 48.9832 17.9925L45.3432 16.4325C45.0312 16.3285 44.9272 16.0165 45.0312 15.7045C45.1352 15.3925 45.4472 15.2885 45.7592 15.3925L49.3992 16.9525C50.0232 17.1605 50.4392 17.6805 50.6472 18.2005C50.8552 18.8245 50.8552 19.4485 50.6472 19.9685L47.8392 27.0405C47.7352 27.2485 47.7352 27.4565 47.8392 27.6645C47.9432 27.8725 48.0472 28.0805 48.2552 28.0805C48.5672 28.1845 48.6712 28.4965 48.5672 28.8085C48.4632 29.0165 48.2552 29.1205 48.0472 29.1205Z" fill="white"/>
<path d="M40.7703 36.4002C40.6663 36.4002 40.6663 36.4002 40.5623 36.4002L37.5463 35.1522C37.2343 35.0482 37.1303 34.7362 37.2343 34.4242C37.3383 34.1122 37.6503 34.0082 37.9623 34.1122L40.9783 35.3602C41.2903 35.4642 41.3943 35.7762 41.2903 36.0882C41.1863 36.2962 40.9783 36.4002 40.7703 36.4002Z" fill="white"/>
<path d="M27.562 41.2878C27.354 41.2878 27.146 41.1838 27.042 40.9758C26.73 40.3518 26.314 39.9358 25.794 39.9358C25.274 39.9358 24.858 40.3518 24.546 40.9758C24.442 41.1838 24.234 41.2878 23.922 41.2878C23.09 41.0798 22.258 40.7678 21.53 40.2478C21.322 40.1438 21.218 39.8318 21.322 39.6238C21.53 38.9998 21.53 38.3758 21.218 38.0638C20.906 37.8558 20.594 37.7518 20.386 37.7518C20.178 37.7518 19.866 37.7518 19.658 37.8558C19.45 37.9598 19.138 37.8558 19.034 37.6478C18.618 36.9198 18.306 36.0878 18.098 35.2558C17.994 35.0478 18.202 34.7358 18.41 34.6318C19.034 34.3198 19.346 33.9038 19.346 33.4878C19.346 33.0718 19.034 32.5518 18.41 32.3438C18.202 32.2398 18.098 32.0318 18.098 31.7198C18.306 30.8878 18.618 30.0558 19.034 29.3278C19.138 29.1198 19.45 29.0158 19.658 29.1198C19.866 29.2238 20.178 29.2238 20.386 29.2238C20.594 29.2238 21.01 29.2238 21.218 28.9118C21.53 28.5998 21.634 27.9758 21.322 27.3518C21.218 27.1438 21.322 26.8318 21.53 26.7278C22.258 26.2078 23.09 25.8958 23.922 25.6878C24.13 25.5838 24.442 25.7918 24.546 25.9998C24.858 26.6238 25.274 27.0398 25.794 27.0398C26.314 27.0398 26.834 26.6238 27.042 25.9998C27.146 25.7918 27.354 25.6878 27.666 25.6878C28.498 25.8958 29.33 26.2078 30.058 26.7278C30.266 26.8318 30.37 27.1438 30.266 27.3518C30.058 27.9758 30.058 28.5998 30.37 28.9118C30.578 29.1198 30.994 29.2238 31.202 29.2238C31.41 29.2238 31.722 29.2238 31.93 29.1198C32.138 29.0158 32.45 29.1198 32.554 29.3278C32.97 30.0558 33.386 30.8878 33.49 31.7198C33.594 31.9278 33.386 32.2398 33.178 32.3438C32.554 32.6558 32.242 33.0718 32.242 33.4878C32.242 33.9038 32.554 34.4238 33.178 34.6318C33.386 34.7358 33.49 34.9438 33.49 35.2558C33.282 36.0878 32.97 36.9198 32.554 37.6478C32.45 37.8558 32.138 37.9598 31.93 37.8558C31.722 37.7518 31.41 37.7518 31.202 37.7518C30.994 37.7518 30.578 37.8558 30.37 38.0638C30.058 38.3758 29.954 38.9998 30.266 39.6238C30.37 39.8318 30.266 40.1438 30.058 40.2478C29.33 40.7678 28.498 41.0798 27.666 41.2878C27.562 41.2878 27.562 41.2878 27.562 41.2878ZM22.466 39.6238C22.882 39.8318 23.402 40.0398 23.818 40.1438C24.338 39.3118 25.066 38.8958 25.794 38.8958C26.626 38.8958 27.354 39.4158 27.77 40.1438C28.29 40.0398 28.706 39.8318 29.122 39.6238C28.914 38.7918 29.122 37.9598 29.642 37.3358C30.162 36.8158 30.994 36.6078 31.826 36.8158C32.034 36.3998 32.242 35.9838 32.346 35.4638C31.618 34.9438 31.202 34.3198 31.202 33.4878C31.202 32.7598 31.618 32.0318 32.346 31.6158C32.242 31.1998 32.034 30.6798 31.826 30.2638C30.994 30.4718 30.162 30.2638 29.642 29.7438C29.122 29.1198 28.914 28.2878 29.122 27.4558C28.706 27.2478 28.29 27.0398 27.77 26.9358C27.25 27.7678 26.522 28.1838 25.794 28.1838C24.962 28.1838 24.234 27.6638 23.818 26.9358C23.298 27.0398 22.882 27.2478 22.466 27.4558C22.674 28.3918 22.466 29.1198 21.946 29.7438C21.426 30.2638 20.594 30.4718 19.658 30.2638C19.45 30.6798 19.242 31.0958 19.138 31.6158C19.866 32.0318 20.282 32.7598 20.282 33.5918C20.282 34.3198 19.866 35.0478 19.138 35.5678C19.242 35.9838 19.45 36.5038 19.658 36.9198C20.49 36.7118 21.322 36.9198 21.946 37.4398C22.466 37.8558 22.674 38.6878 22.466 39.6238Z" fill="#E6B400"/>
<path d="M25.7894 37.3366C23.7094 37.3366 21.9414 35.6726 21.9414 33.4886C21.9414 31.4086 23.6054 29.6406 25.7894 29.6406C27.9734 29.6406 29.6374 31.3046 29.6374 33.4886C29.6374 35.5686 27.8694 37.3366 25.7894 37.3366ZM25.7894 30.7846C24.2294 30.7846 22.9814 32.0326 22.9814 33.5926C22.9814 35.1526 24.2294 36.4006 25.7894 36.4006C27.3494 36.4006 28.5974 35.1526 28.5974 33.5926C28.5974 32.0326 27.3494 30.7846 25.7894 30.7846Z" fill="#E6B400"/>
</svg>
