<svg width="96" height="96" viewBox="0 0 96 96" fill="none" xmlns="http://www.w3.org/2000/svg">
<g clip-path="url(#clip0_1760_16866)">
<path d="M93.2256 29.6384L83.2 22.7712V4.8C83.2 3.52696 82.6943 2.30606 81.7941 1.40589C80.894 0.505713 79.673 0 78.4 0L17.6 0C16.327 0 15.1061 0.505713 14.2059 1.40589C13.3057 2.30606 12.8 3.52696 12.8 4.8V22.7712L2.78722 29.632C1.92721 30.2104 1.223 30.9919 0.736861 31.9072C0.250725 32.8225 -0.00235109 33.8436 1.64597e-05 34.88V89.632C0.00594764 91.3246 0.683155 92.9457 1.88302 94.1396C3.08289 95.3335 4.70739 96.0026 6.40002 96H89.6C91.2926 96.0026 92.9171 95.3335 94.117 94.1396C95.3169 92.9457 95.9941 91.3246 96 89.632V34.88C96.0027 33.8458 95.7511 32.8268 95.2673 31.9128C94.7835 30.9987 94.0824 30.2177 93.2256 29.6384ZM92.5008 90.9488L56.3888 63.536L92.8 35.2656V89.632C92.7978 90.0875 92.6956 90.537 92.5008 90.9488ZM91.4224 32.2832L83.2 38.6672V26.6512L91.4224 32.2832ZM17.6 3.2H78.4C78.8244 3.2 79.2313 3.36857 79.5314 3.66863C79.8314 3.96869 80 4.37565 80 4.8V41.152L53.7504 61.5328L52.7904 60.8048C51.4104 59.763 49.7284 59.1994 47.9992 59.1994C46.2701 59.1994 44.5881 59.763 43.208 60.8048L42.248 61.5312L16 41.152V4.8C16 4.37565 16.1686 3.96869 16.4686 3.66863C16.7687 3.36857 17.1757 3.2 17.6 3.2ZM3.49922 90.9488C3.3044 90.537 3.20227 90.0875 3.20002 89.632V35.2656L39.6112 63.536L3.49922 90.9488ZM12.8 26.6512V38.6672L4.57922 32.2848L12.8 26.6512ZM6.40002 92.8C6.38616 92.8008 6.37227 92.8008 6.35842 92.8L45.144 63.36C45.9662 62.7387 46.9687 62.4026 47.9992 62.4026C49.0298 62.4026 50.0322 62.7387 50.8544 63.36L89.6416 92.8C89.6278 92.8008 89.6139 92.8008 89.6 92.8H6.40002Z" fill="white"/>
<path fill-rule="evenodd" clip-rule="evenodd" d="M83.1969 22.7712V4.8C83.1969 3.52696 82.6912 2.30606 81.791 1.40589C80.8908 0.505713 79.6699 0 78.3969 0L17.5969 0C16.3238 0 15.1029 0.505713 14.2028 1.40589C13.3026 2.30606 12.7969 3.52696 12.7969 4.8V22.7712V26.6512V38.6672L15.9969 41.152V4.8C15.9969 4.37565 16.1654 3.96869 16.4655 3.66863C16.7656 3.36857 17.1725 3.2 17.5969 3.2H78.3969C78.8212 3.2 79.2282 3.36857 79.5283 3.66863C79.8283 3.96869 79.9969 4.37565 79.9969 4.8V41.152L83.1969 38.6672V26.6512V22.7712Z" fill="#E6B400"/>
<path d="M48.0031 51.1996C51.6541 51.2004 55.2409 50.2403 58.4031 48.4156C58.7569 48.1968 59.0115 47.8487 59.113 47.4453C59.2145 47.0419 59.1549 46.6148 58.9468 46.2546C58.7387 45.8944 58.3985 45.6294 57.9983 45.5158C57.5981 45.4022 57.1695 45.4489 56.8031 45.646C53.448 47.5831 49.5475 48.359 45.7064 47.8535C41.8654 47.3479 38.2985 45.5891 35.5588 42.8498C32.8192 40.1105 31.06 36.5438 30.5539 32.7029C30.0479 28.8619 30.8233 24.9612 32.76 21.6059C34.6967 18.2505 37.6863 15.6279 41.2654 14.1447C44.8444 12.6616 48.8128 12.4008 52.5552 13.4028C56.2975 14.4048 59.6047 16.6137 61.9638 19.6868C64.3229 22.7598 65.6022 26.5254 65.6031 30.3996V32.7996C65.6031 33.8605 65.1817 34.8779 64.4316 35.628C63.6814 36.3782 62.664 36.7996 61.6031 36.7996C60.5423 36.7996 59.5248 36.3782 58.7747 35.628C58.0246 34.8779 57.6031 33.8605 57.6031 32.7996V22.3996C57.6031 21.9753 57.4346 21.5683 57.1345 21.2682C56.8344 20.9682 56.4275 20.7996 56.0031 20.7996C55.5788 20.7996 55.1718 20.9682 54.8718 21.2682C54.5717 21.5683 54.4031 21.9753 54.4031 22.3996V23.2636C52.9755 21.9816 51.1964 21.1569 49.2954 20.8958C47.3945 20.6347 45.4589 20.9492 43.7385 21.7988C42.018 22.6484 40.5917 23.9941 39.6434 25.6622C38.6951 27.3303 38.2685 29.2442 38.4185 31.1571C38.5686 33.0701 39.2884 34.8941 40.4851 36.394C41.6819 37.8938 43.3006 39.0006 45.1325 39.5716C46.9643 40.1426 48.9253 40.1515 50.7623 39.5972C52.5993 39.043 54.228 37.9509 55.4383 36.462C56.2378 37.8216 57.4628 38.88 58.9241 39.4737C60.3853 40.0673 62.0014 40.1631 63.5225 39.7463C65.0437 39.3294 66.3852 38.4232 67.3397 37.1675C68.2941 35.9119 68.8085 34.3768 68.8031 32.7996V30.3996C68.8031 26.2858 67.5832 22.2643 65.2977 18.8438C63.0122 15.4232 59.7637 12.7572 55.9629 11.1829C52.1622 9.60862 47.9801 9.19671 43.9453 9.99928C39.9104 10.8019 36.2042 12.7829 33.2953 15.6918C30.3864 18.6007 28.4054 22.3069 27.6028 26.3417C26.8002 30.3765 27.2121 34.5587 28.7864 38.3594C30.3607 42.1601 33.0267 45.4087 36.4473 47.6942C39.8678 49.9797 43.8893 51.1996 48.0031 51.1996ZM48.0031 36.7996C46.7373 36.7996 45.5 36.4243 44.4475 35.721C43.395 35.0178 42.5747 34.0182 42.0903 32.8488C41.6059 31.6793 41.4792 30.3925 41.7261 29.151C41.9731 27.9096 42.5826 26.7692 43.4777 25.8741C44.3727 24.9791 45.5131 24.3695 46.7546 24.1226C47.996 23.8756 49.2829 24.0024 50.4523 24.4868C51.6218 24.9712 52.6213 25.7915 53.3245 26.844C54.0278 27.8964 54.4031 29.1338 54.4031 30.3996C54.4031 32.097 53.7288 33.7249 52.5286 34.9251C51.3284 36.1253 49.7005 36.7996 48.0031 36.7996Z" fill="#E6B400"/>
</g>
<defs>
<clipPath id="clip0_1760_16866">
<rect width="96" height="96" fill="white"/>
</clipPath>
</defs>
</svg>
