<svg width="57" height="56" viewBox="0 0 57 56" fill="none" xmlns="http://www.w3.org/2000/svg">
<g clip-path="url(#clip0_1804_227161)">
<path d="M4.24115 46.6838H6.10781V44.8171H4.24115C3.21005 44.8171 2.37448 43.9816 2.37448 42.9505V5.61712C2.37448 4.58602 3.21005 3.75046 4.24115 3.75046H45.3078C46.3389 3.75046 47.1745 4.58602 47.1745 5.61712V7.48379H49.0411V5.61712C49.0411 3.55539 47.3695 1.88379 45.3078 1.88379H4.24115C2.17941 1.88379 0.507812 3.55539 0.507812 5.61712V42.9505C0.507812 45.0122 2.17941 46.6838 4.24115 46.6838Z" fill="white"/>
<path d="M4.24219 5.61426H6.10885V7.48092H4.24219V5.61426Z" fill="white"/>
<path d="M7.97656 5.61426H9.84323V7.48092H7.97656V5.61426Z" fill="white"/>
<path d="M11.7031 5.61426H13.5698V7.48092H11.7031V5.61426Z" fill="white"/>
<path d="M7.97656 50.4182C7.97656 52.48 9.64816 54.1516 11.7099 54.1516H52.7766C54.8383 54.1516 56.5099 52.48 56.5099 50.4182V13.0849C56.5099 11.0232 54.8383 9.35156 52.7766 9.35156H11.7099C9.64816 9.35156 7.97656 11.0232 7.97656 13.0849V50.4182ZM9.84323 13.0849C9.84323 12.0538 10.6788 11.2182 11.7099 11.2182H52.7766C53.8077 11.2182 54.6432 12.0538 54.6432 13.0849V50.4182C54.6432 51.4493 53.8077 52.2849 52.7766 52.2849H11.7099C10.6788 52.2849 9.84323 51.4493 9.84323 50.4182V13.0849Z" fill="white"/>
<path d="M11.7031 13.083H13.5698V14.9497H11.7031V13.083Z" fill="white"/>
<path d="M15.4453 13.083H17.312V14.9497H15.4453V13.083Z" fill="white"/>
<path d="M19.1719 13.083H21.0385V14.9497H19.1719V13.083Z" fill="white"/>
<path d="M11.7031 16.8193H52.7698V18.686H11.7031V16.8193Z" fill="white"/>
<path d="M11.7031 21.4863H19.1698V23.353H11.7031V21.4863Z" fill="#E6B400"/>
<path d="M11.7031 25.2168H17.3031V27.0835H11.7031V25.2168Z" fill="#E6B400"/>
<path d="M32.2365 28.9482C28.628 28.9482 25.7031 31.8731 25.7031 35.4816C25.7031 39.0901 28.628 42.0149 32.2365 42.0149C35.845 42.0149 38.7698 39.0901 38.7698 35.4816C38.7656 31.8752 35.8429 28.9524 32.2365 28.9482ZM32.2365 40.1482C29.6593 40.1482 27.5698 38.0587 27.5698 35.4816C27.5698 32.9044 29.6593 30.8149 32.2365 30.8149C34.8136 30.8149 36.9031 32.9044 36.9031 35.4816C36.8999 38.0576 34.8125 40.145 32.2365 40.1482Z" fill="#E6B400"/>
<path d="M47.1792 32.6841C47.1792 32.1684 46.7615 31.7508 46.2458 31.7508H43.779C43.5814 31.1376 43.335 30.5409 43.0408 29.9681L44.7852 28.2249C45.1492 27.8602 45.1492 27.2696 44.7852 26.9049L40.825 22.9448C40.4603 22.5808 39.8698 22.5808 39.5051 22.9448L37.7618 24.6882C37.1881 24.3952 36.5919 24.1488 35.9792 23.9509V21.4841C35.9792 20.9684 35.5615 20.5508 35.0458 20.5508H29.4458C28.9302 20.5508 28.5125 20.9684 28.5125 21.4841V23.9509C27.8998 24.1488 27.3036 24.3952 26.7298 24.6882L24.9866 22.9448C24.6219 22.5808 24.0313 22.5808 23.6666 22.9448L19.7065 26.9049C19.3425 27.2696 19.3425 27.8602 19.7065 28.2249L21.45 29.9681C21.372 30.1209 21.2969 30.2742 21.226 30.4292C21.029 30.8594 20.8578 31.3004 20.7126 31.7508H18.2458C17.7302 31.7508 17.3125 32.1684 17.3125 32.6841V38.2841C17.3125 38.7998 17.7302 39.2174 18.2458 39.2174H20.7126C20.9103 39.8306 21.1567 40.4273 21.4509 41.0001L19.7065 42.7433C19.3425 43.108 19.3425 43.6986 19.7065 44.0633L23.6666 48.0234C24.0313 48.3874 24.6219 48.3874 24.9866 48.0234L26.7298 46.28C27.3036 46.573 27.8998 46.8194 28.5125 47.0173V49.4841C28.5125 49.9998 28.9302 50.4174 29.4458 50.4174H35.0458C35.5615 50.4174 35.9792 49.9998 35.9792 49.4841V47.0173C36.5919 46.8194 37.1881 46.573 37.7618 46.28L39.5051 48.0234C39.8698 48.3874 40.4603 48.3874 40.825 48.0234L44.7852 44.0633C45.1492 43.6986 45.1492 43.108 44.7852 42.7433L43.0408 41.0001C43.335 40.4273 43.5814 39.8306 43.779 39.2174H46.2458C46.7615 39.2174 47.1792 38.7998 47.1792 38.2841V32.6841ZM45.3125 37.3508H43.0781C42.6525 37.3508 42.281 37.6389 42.1746 38.0508C41.9362 38.9771 41.5687 39.8661 41.0826 40.6902C40.8663 41.0566 40.9258 41.5232 41.2264 41.8242L42.8044 43.4032L40.1649 46.0438L38.586 44.4646C38.2847 44.1636 37.8181 44.1044 37.4515 44.3209C36.6274 44.8069 35.7388 45.1747 34.8125 45.4129C34.4007 45.5193 34.1125 45.8908 34.1125 46.3164V48.5508H30.3792V46.3164C30.3792 45.8908 30.091 45.5193 29.6792 45.4129C28.7528 45.1747 27.8643 44.8069 27.0402 44.3209C26.6736 44.1044 26.2069 44.1636 25.9057 44.4646L24.3267 46.0438L21.6873 43.4032L23.2653 41.8242C23.5658 41.5232 23.6253 41.0566 23.409 40.6902C22.923 39.8661 22.5555 38.9771 22.317 38.0508C22.2106 37.6389 21.8392 37.3508 21.4136 37.3508H19.1792V33.6174H21.4136C21.8392 33.6174 22.2106 33.3293 22.317 32.9174C22.4678 32.3299 22.671 31.7578 22.9239 31.2069C23.0698 30.8874 23.2317 30.5759 23.409 30.2735C23.6246 29.907 23.5656 29.441 23.2653 29.1402L21.6873 27.5613L24.3267 24.9206L25.9057 26.5003C26.2069 26.8013 26.6736 26.8601 27.0402 26.6433C27.8643 26.1578 28.7528 25.7896 29.6792 25.5513C30.091 25.4452 30.3792 25.0732 30.3792 24.6483V22.4174H34.1125V24.6518C34.1125 25.0774 34.4007 25.4489 34.8125 25.5553C35.7388 25.7935 36.6274 26.1613 37.4515 26.6473C37.8181 26.8638 38.2847 26.8046 38.586 26.5036L40.1649 24.9244L42.8044 27.565L41.2264 29.144C40.9258 29.445 40.8663 29.9116 41.0826 30.278C41.5687 31.1021 41.9362 31.9911 42.1746 32.9174C42.281 33.3293 42.6525 33.6174 43.0781 33.6174H45.3125V37.3508Z" fill="#E6B400"/>
<path d="M47.1719 48.5508H52.7719V50.4174H47.1719V48.5508Z" fill="#E6B400"/>
</g>
<defs>
<clipPath id="clip0_1804_227161">
<rect width="56" height="56" fill="white" transform="translate(0.5)"/>
</clipPath>
</defs>
</svg>
