<svg width="57" height="56" viewBox="0 0 57 56" fill="none" xmlns="http://www.w3.org/2000/svg">
<path d="M50.746 5.22559H6.254C4.04638 5.22559 2.25 7.02196 2.25 9.22959V39.8388C2.25 42.0465 4.04638 43.8428 6.254 43.8428H22.9788L22.242 49.0342H20.1175C19.6336 49.0342 19.2425 49.4262 19.2425 49.9092C19.2425 50.3922 19.6336 50.7842 20.1175 50.7842H36.8825C37.3664 50.7842 37.7575 50.3922 37.7575 49.9092C37.7575 49.4262 37.3664 49.0342 36.8825 49.0342H34.758L34.0213 43.8428H50.746C52.9536 43.8428 54.75 42.0465 54.75 39.8388V9.22959C54.75 7.02196 52.9536 5.22559 50.746 5.22559ZM6.254 6.97559H50.746C51.9894 6.97559 53 7.98709 53 9.22959V35.7841H4V9.22959C4 7.98709 5.01063 6.97559 6.254 6.97559ZM32.9905 49.0351H24.0095L24.7463 43.8437H32.2537L32.9905 49.0351ZM50.746 42.0937H6.254C5.01063 42.0937 4 41.0822 4 39.8397V37.5341H53V39.8397C53 41.0822 51.9894 42.0937 50.746 42.0937Z" fill="white"/>
<path d="M15.1389 34.8835C15.6228 34.8835 16.0139 34.4915 16.0139 34.0085V31.2497H17.9957C18.3974 31.2497 18.7474 30.9767 18.8445 30.5864C19.0886 29.609 19.4762 28.6772 19.9942 27.817C20.2007 27.4732 20.1483 27.033 19.8656 26.7478L18.4656 25.3399L20.8789 22.9275L22.2868 24.3275C22.5711 24.6102 23.0112 24.6627 23.3525 24.4579C24.2292 23.9347 25.1611 23.547 26.1245 23.3064C26.5139 23.2093 26.7878 22.8593 26.7878 22.4577V20.4767H30.2143V22.4577C30.2143 22.8593 30.4873 23.2093 30.8775 23.3064C31.8409 23.547 32.7728 23.9347 33.6495 24.4579C33.9925 24.6627 34.4318 24.6102 34.7153 24.3275L36.1231 22.9275L38.5364 25.3399L37.1364 26.7478C36.8538 27.0322 36.8004 27.4732 37.0078 27.817C37.5266 28.6772 37.9134 29.609 38.1575 30.5864C38.2537 30.9758 38.6046 31.2497 39.0063 31.2497H40.9881V34.0085C40.9881 34.4915 41.3793 34.8835 41.8631 34.8835C42.347 34.8835 42.7381 34.4915 42.7381 34.0085V30.3747C42.7381 29.8917 42.347 29.4997 41.8631 29.4997H39.6695C39.4551 28.8128 39.1786 28.1487 38.8444 27.5125L40.3931 25.955C40.7335 25.6129 40.7326 25.0608 40.3914 24.7195L36.7444 21.0734C36.404 20.7322 35.8519 20.7313 35.5089 21.0717L33.9505 22.6213C33.31 22.2853 32.6459 22.0088 31.9651 21.7962V19.6025C31.9651 19.1195 31.574 18.7275 31.0901 18.7275H25.9136C25.4297 18.7275 25.0386 19.1195 25.0386 19.6025V21.7962C24.3587 22.0097 23.6946 22.2853 23.0533 22.6213L21.4949 21.0717C21.1519 20.7322 20.6006 20.7322 20.2594 21.0734L16.6124 24.7195C16.2711 25.0608 16.2702 25.6129 16.6106 25.955L18.1594 27.5125C17.8242 28.1487 17.5486 28.8128 17.3343 29.4997H15.1406C14.6568 29.4997 14.2656 29.8917 14.2656 30.3747V34.0085C14.2656 34.4915 14.6568 34.8835 15.1406 34.8835H15.1389Z" fill="#E6B400"/>
<path d="M28.4968 26.918C25.1604 26.918 22.4453 29.6331 22.4453 32.9695C22.4453 33.3562 22.4838 33.7508 22.5626 34.1752C22.6518 34.6495 23.1086 34.9653 23.5828 34.8752C24.0579 34.7868 24.3712 34.3301 24.2837 33.855C24.2251 33.5382 24.1953 33.2486 24.1953 32.9695C24.1953 30.5973 26.1247 28.668 28.4968 28.668C30.8689 28.668 32.7983 30.5973 32.7983 32.9695C32.7983 33.2477 32.7694 33.5373 32.7099 33.855C32.6216 34.3301 32.9357 34.7868 33.4108 34.8752C33.4651 34.8857 33.5184 34.8901 33.5718 34.8901C33.9857 34.8901 34.3532 34.5961 34.4311 34.1752C34.5098 33.7508 34.5483 33.3562 34.5483 32.9695C34.5483 29.6331 31.8332 26.918 28.4968 26.918Z" fill="#E6B400"/>
<path d="M30.1151 38.9863H26.875C26.3911 38.9863 26 39.3783 26 39.8613C26 40.3443 26.3911 40.7363 26.875 40.7363H30.1151C30.599 40.7363 30.9901 40.3443 30.9901 39.8613C30.9901 39.3783 30.599 38.9863 30.1151 38.9863Z" fill="#E6B400"/>
</svg>
