<svg width="57" height="56" viewBox="0 0 57 56" fill="none" xmlns="http://www.w3.org/2000/svg">
<g clip-path="url(#clip0_1804_227216)">
<path d="M4.93469 8.34863H4.74219C4.28916 8.34863 3.92188 8.7158 3.92188 9.16895C3.92188 9.62209 4.28916 9.98926 4.74219 9.98926H4.93469C5.38772 9.98926 5.755 9.62209 5.755 9.16895C5.755 8.7158 5.38772 8.34863 4.93469 8.34863Z" fill="white"/>
<path d="M8.4425 8.34863H8.25C7.79697 8.34863 7.42969 8.7158 7.42969 9.16895C7.42969 9.62209 7.79697 9.98926 8.25 9.98926H8.4425C8.89553 9.98926 9.26281 9.62209 9.26281 9.16895C9.26281 8.7158 8.89553 8.34863 8.4425 8.34863Z" fill="white"/>
<path d="M11.9581 8.34863H11.7656C11.3126 8.34863 10.9453 8.7158 10.9453 9.16895C10.9453 9.62209 11.3126 9.98926 11.7656 9.98926H11.9581C12.4112 9.98926 12.7784 9.62209 12.7784 9.16895C12.7784 8.7158 12.4112 8.34863 11.9581 8.34863Z" fill="white"/>
<path d="M44.1441 33.5283C44.2492 33.4847 44.3693 33.5084 44.45 33.5891L44.8615 34.0007C45.2247 34.3638 45.7074 34.5639 46.221 34.5639C46.7345 34.5639 47.2173 34.3638 47.5804 34.0008L48.7415 32.8397C49.1046 32.4767 49.3046 31.9939 49.3046 31.4803C49.3046 30.9666 49.1046 30.484 48.7415 30.1207L48.3298 29.7091C48.2492 29.6286 48.2254 29.5084 48.2688 29.4039L48.2755 29.3879C48.319 29.2826 48.4208 29.2145 48.5348 29.2145H49.117C50.177 29.2145 51.0395 28.352 51.0395 27.292V25.6499C51.0395 24.5899 50.177 23.7274 49.117 23.7274H48.5348C48.4208 23.7274 48.319 23.6594 48.2771 23.5579L48.2692 23.5388C48.2255 23.4336 48.2493 23.3134 48.3299 23.2329L48.7416 22.8211C49.491 22.0715 49.491 20.8519 48.7416 20.1023L47.5804 18.9412C46.8307 18.1918 45.6112 18.1919 44.8617 18.9413L44.4502 19.353C44.3695 19.4336 44.2492 19.4573 44.1423 19.413L44.1289 19.4075C44.0235 19.364 43.9555 19.2622 43.9555 19.1481V18.5659C43.9555 17.506 43.093 16.6436 42.033 16.6436H40.3909C39.3309 16.6436 38.4685 17.506 38.4685 18.5659V19.1481C38.4685 19.2622 38.4003 19.364 38.2987 19.4059L38.2798 19.4136C38.1743 19.4573 38.0544 19.4336 37.9738 19.3529L37.5622 18.9413C36.8126 18.1915 35.593 18.1916 34.8434 18.9411L33.6823 20.1022C33.5798 20.2047 33.4905 20.317 33.4149 20.4368C32.0008 19.8594 30.4552 19.5393 28.8362 19.5364C28.8289 19.5363 28.8215 19.536 28.8142 19.536C28.812 19.536 28.8098 19.5362 28.8076 19.5362C22.0852 19.5398 16.6172 25.0033 16.6172 31.7184C16.6172 38.4358 22.0888 43.9007 28.8142 43.9007C33.9264 43.9007 38.3134 40.7427 40.1243 36.2777C40.2123 36.29 40.3011 36.2984 40.3912 36.2984H42.0332C43.0933 36.2984 43.9557 35.4359 43.9557 34.3759V33.7937C43.9557 33.6797 44.0237 33.5779 44.1289 33.5344C44.1322 33.5332 44.1407 33.5297 44.1441 33.5283ZM33.2858 32.6459C32.832 32.617 32.4447 32.9627 32.4173 33.4149C32.3788 34.0487 32.3186 34.6687 32.2383 35.2683H25.3892C25.2391 34.1425 25.1599 32.9475 25.1599 31.7186C25.1599 30.4598 25.2441 29.2678 25.3927 28.1689H32.2381C32.3032 28.6572 32.3567 29.166 32.3953 29.6963C32.4282 30.1481 32.8216 30.4852 33.273 30.4548C33.7249 30.4217 34.0645 30.0288 34.0315 29.5769C33.9968 29.0996 33.9495 28.6297 33.8915 28.1691H38.754C39.1526 29.2788 39.3705 30.4738 39.3705 31.7187C39.3705 32.9636 39.1526 34.1586 38.754 35.2684H33.891C33.9629 34.6967 34.0185 34.1111 34.0548 33.5145C34.0823 33.0622 33.738 32.6733 33.2858 32.6459ZM28.8141 42.2603C28.0033 42.2603 27.1058 41.2105 26.4134 39.4522C26.1138 38.6913 25.8643 37.8347 25.6686 36.9089H31.957C31.713 38.0659 31.388 39.1083 30.9934 39.975C30.3324 41.4274 29.538 42.2603 28.8141 42.2603ZM28.8103 21.177H28.8141H28.816C29.9259 21.1792 31.2483 23.1609 31.9587 26.5284H25.6754C26.3639 23.2805 27.6341 21.1815 28.8103 21.177ZM39.1353 25.2346C39.5661 24.5055 40.3445 24.0516 41.2118 24.0516C42.5458 24.0516 43.6312 25.137 43.6312 26.471C43.6312 27.8049 42.5458 28.8903 41.2118 28.8903C41.0252 28.8903 40.8419 28.8665 40.6623 28.8244C40.3469 27.5358 39.8257 26.327 39.1353 25.2346ZM37.9995 26.5283H33.6292C33.3431 25.0641 32.9377 23.7436 32.4338 22.6683C32.25 22.276 32.0614 21.9315 31.8701 21.628C34.485 22.4192 36.6738 24.1981 37.9995 26.5283ZM25.7513 21.63C24.9638 22.8868 24.3776 24.6112 24.004 26.5283H19.6287C20.9532 24.2001 23.1394 22.4223 25.7513 21.63ZM18.8741 28.1689H23.7419C23.5943 29.3313 23.5193 30.5323 23.5193 31.7186C23.5193 32.9394 23.5939 34.1328 23.7359 35.2683H18.8741C18.4756 34.1585 18.2577 32.9635 18.2577 31.7186C18.2577 30.4737 18.4755 29.2787 18.8741 28.1689ZM19.6287 36.9089H23.9968C24.2204 38.0558 24.5185 39.118 24.8869 40.0533C25.1503 40.722 25.4442 41.3089 25.7631 41.8107C23.146 41.0203 20.9552 39.2406 19.6287 36.9089ZM31.8689 41.8096C32.1093 41.4288 32.3147 41.0326 32.4867 40.6548C32.9675 39.5985 33.3547 38.3208 33.6303 36.9089H37.9995C36.6736 39.2396 34.4843 41.0186 31.8689 41.8096ZM43.5216 32.0104L43.503 32.0181C42.7812 32.3159 42.3148 33.0129 42.3148 33.7938V34.376C42.3148 34.5314 42.1884 34.6578 42.033 34.6578H40.6514C40.8859 33.7161 41.0111 32.7317 41.0111 31.7185C41.0111 31.3147 40.9909 30.9155 40.9521 30.5216C41.0383 30.5271 41.1248 30.5308 41.2118 30.5308C43.4505 30.5308 45.2718 28.7096 45.2718 26.4709C45.2718 24.2322 43.4505 22.4109 41.2118 22.4109C39.9876 22.4109 38.8703 22.9499 38.1153 23.8473C37.2145 22.787 36.1359 21.8821 34.9256 21.1791L36.0034 20.1012C36.1134 19.9914 36.2922 19.9914 36.402 20.1013L36.8137 20.513C37.3657 21.0649 38.1882 21.2282 38.9092 20.9288C38.9121 20.9276 38.9183 20.925 38.9212 20.9238C39.6428 20.6258 40.1092 19.9287 40.1092 19.148V18.5658C40.1092 18.4104 40.2356 18.2841 40.391 18.2841H42.0331C42.1885 18.2841 42.315 18.4104 42.315 18.5658V19.148C42.315 19.9289 42.7812 20.6259 43.503 20.9238L43.5147 20.9286C44.2355 21.2283 45.058 21.065 45.6102 20.513L46.0219 20.1012C46.1318 19.9915 46.3106 19.9914 46.4205 20.1012L47.5816 21.2622C47.6915 21.3722 47.6915 21.5511 47.5816 21.6609L47.1699 22.0726C46.6178 22.6247 46.4546 23.4472 46.7543 24.1682L47.5118 23.8534L46.7592 24.18C47.0571 24.9017 47.7541 25.3679 48.5349 25.3679H49.1171C49.2725 25.3679 49.399 25.4943 49.399 25.6497V27.2918C49.399 27.4472 49.2725 27.5736 49.1171 27.5736H48.5349C47.7542 27.5736 47.0571 28.04 46.7602 28.7591L46.7543 28.7734C46.4547 29.4944 46.6178 30.317 47.1699 30.869L47.5815 31.2806C47.6533 31.3524 47.664 31.4363 47.664 31.4799C47.664 31.5235 47.6533 31.6074 47.5816 31.6791L46.4203 32.8404C46.3486 32.9121 46.2647 32.9229 46.2211 32.9229C46.1775 32.9229 46.0936 32.9121 46.0218 32.8402L45.6101 32.4286C45.058 31.8766 44.2354 31.7135 43.5216 32.0104Z" fill="#E6B400"/>
<path d="M8.57031 17.1113H4.74219C4.28916 17.1113 3.92188 17.4785 3.92188 17.9316C3.92188 18.3848 4.28916 18.752 4.74219 18.752H8.57031C9.02334 18.752 9.39062 18.3848 9.39062 17.9316C9.39062 17.4785 9.02334 17.1113 8.57031 17.1113Z" fill="white"/>
<path d="M8.57031 20.8848H4.74219C4.28916 20.8848 3.92188 21.2519 3.92188 21.7051C3.92188 22.1582 4.28916 22.5254 4.74219 22.5254H8.57031C9.02334 22.5254 9.39062 22.1582 9.39062 21.7051C9.39062 21.2519 9.02334 20.8848 8.57031 20.8848Z" fill="white"/>
<path d="M8.57031 24.6523H4.74219C4.28916 24.6523 3.92188 25.0195 3.92188 25.4727C3.92188 25.9258 4.28916 26.293 4.74219 26.293H8.57031C9.02334 26.293 9.39062 25.9258 9.39062 25.4727C9.39062 25.0195 9.02334 24.6523 8.57031 24.6523Z" fill="white"/>
<path d="M8.57031 30.6738H4.74219C4.28916 30.6738 3.92188 31.041 3.92188 31.4941C3.92188 31.9473 4.28916 32.3145 4.74219 32.3145H8.57031C9.02334 32.3145 9.39062 31.9473 9.39062 31.4941C9.39062 31.041 9.02334 30.6738 8.57031 30.6738Z" fill="white"/>
<path d="M8.57031 34.4473H4.74219C4.28916 34.4473 3.92188 34.8144 3.92188 35.2676C3.92188 35.7207 4.28916 36.0879 4.74219 36.0879H8.57031C9.02334 36.0879 9.39062 35.7207 9.39062 35.2676C9.39062 34.8144 9.02334 34.4473 8.57031 34.4473Z" fill="white"/>
<path d="M8.57031 38.2148H4.74219C4.28916 38.2148 3.92188 38.582 3.92188 39.0352C3.92188 39.4883 4.28916 39.8555 4.74219 39.8555H8.57031C9.02334 39.8555 9.39062 39.4883 9.39062 39.0352C9.39062 38.582 9.02334 38.2148 8.57031 38.2148Z" fill="white"/>
<path d="M8.57031 44.2363H4.74219C4.28916 44.2363 3.92188 44.6035 3.92188 45.0566C3.92188 45.5098 4.28916 45.877 4.74219 45.877H8.57031C9.02334 45.877 9.39062 45.5098 9.39062 45.0566C9.39062 44.6035 9.02334 44.2363 8.57031 44.2363Z" fill="white"/>
<path d="M52.9453 4.62402H4.05469C2.09469 4.62402 0.5 6.2186 0.5 8.17871V47.8118C0.5 49.7719 2.09469 51.3665 4.05469 51.3665H52.9453C54.9053 51.3665 56.5 49.7719 56.5 47.8118V8.17871C56.5 6.2186 54.9053 4.62402 52.9453 4.62402ZM54.8594 8.17871V12.0693H49.0546V6.26465H52.9453C54.0007 6.26465 54.8594 7.12335 54.8594 8.17871ZM52.9453 49.7259H12.8047V30.839C12.8047 30.3859 12.4374 30.0187 11.9844 30.0187C11.5313 30.0187 11.1641 30.3859 11.1641 30.839V49.7259H4.05469C2.99933 49.7259 2.14062 48.8672 2.14062 47.8118V13.71H11.1641V27.0109C11.1641 27.464 11.5313 27.8312 11.9844 27.8312C12.4374 27.8312 12.8047 27.464 12.8047 27.0109V13.71H40.0938C40.5468 13.71 40.9141 13.3429 40.9141 12.8897C40.9141 12.4366 40.5468 12.0694 40.0938 12.0694H2.14062V8.17871C2.14062 7.12335 2.99933 6.26465 4.05469 6.26465H47.414V12.0693H43.9219C43.4688 12.0693 43.1016 12.4365 43.1016 12.8896C43.1016 13.3427 43.4688 13.7099 43.9219 13.7099H54.8594V47.8118C54.8594 48.8672 54.0007 49.7259 52.9453 49.7259Z" fill="white"/>
<path d="M50.0847 38.9492H46C44.9446 38.9492 44.0859 39.8079 44.0859 40.8633V44.948C44.0859 46.0034 44.9446 46.8621 46 46.8621H50.0847C51.1401 46.8621 51.9988 46.0034 51.9988 44.948V40.8633C51.9988 39.8079 51.1401 38.9492 50.0847 38.9492ZM50.3582 44.948C50.3582 45.0988 50.2354 45.2214 50.0847 45.2214H46C45.8493 45.2214 45.7266 45.0988 45.7266 44.948V40.8633C45.7266 40.7125 45.8493 40.5898 46 40.5898H50.0847C50.2354 40.5898 50.3582 40.7125 50.3582 40.8633V44.948Z" fill="white"/>
</g>
<defs>
<clipPath id="clip0_1804_227216">
<rect width="56" height="56" fill="white" transform="translate(0.5)"/>
</clipPath>
</defs>
</svg>
