<svg width="57" height="56" viewBox="0 0 57 56" fill="none" xmlns="http://www.w3.org/2000/svg">
<g clip-path="url(#clip0_1804_227116)">
<path d="M23.3221 18.3271H16.4493C15.2615 18.3271 14.3281 19.2605 14.3281 20.4484V25.9635C14.3281 26.4726 14.6675 26.812 15.1766 26.812H24.5948C25.1039 26.812 25.4433 26.4726 25.4433 25.9635V20.4484C25.4433 19.2605 24.4251 18.3271 23.3221 18.3271ZM23.7463 25.115H22.6433V23.5029C22.6433 22.9938 22.3039 22.6544 21.7948 22.6544C21.2857 22.6544 20.9463 22.9938 20.9463 23.5029V25.115H18.7402V23.5029C18.7402 22.9938 18.4009 22.6544 17.8918 22.6544C17.3827 22.6544 17.0433 22.9938 17.0433 23.5029V25.115H15.9402V20.4484C15.9402 20.1938 16.1099 20.0241 16.3645 20.0241H23.2372C23.4918 20.0241 23.6615 20.1938 23.6615 20.4484V25.115H23.7463Z" fill="#E6B400"/>
<path d="M19.8393 17.3914C21.7059 17.3914 23.2332 15.8641 23.2332 13.9975C23.2332 12.1308 21.7059 10.6035 19.8393 10.6035C17.9726 10.6035 16.4453 12.1308 16.4453 13.9975C16.4453 15.8641 17.9726 17.3914 19.8393 17.3914ZM19.8393 12.3005C20.7726 12.3005 21.5362 13.0641 21.5362 13.9975C21.5362 14.9308 20.7726 15.6944 19.8393 15.6944C18.9059 15.6944 18.1423 14.9308 18.1423 13.9975C18.1423 13.0641 18.9059 12.3005 19.8393 12.3005Z" fill="#E6B400"/>
<path d="M52.8413 7.29265H45.7141V1.26841C45.7141 0.759316 45.3747 0.419922 44.8656 0.419922H12.1141C11.605 0.419922 11.2656 0.759316 11.2656 1.26841V7.29265H4.1383C2.35649 7.29265 0.914062 8.73507 0.914062 10.5169V39.7896V44.032C0.914062 45.8139 2.35649 47.2563 4.1383 47.2563H21.1929L19.4959 53.7896H17.0353C16.5262 53.7896 16.1868 54.129 16.1868 54.6381C16.1868 55.1472 16.5262 55.4866 17.0353 55.4866H39.9444C40.4535 55.4866 40.7929 55.1472 40.7929 54.6381C40.7929 54.129 40.4535 53.7896 39.9444 53.7896H37.4838L35.7868 47.2563H52.8413C54.6232 47.2563 56.0656 45.8139 56.0656 44.032V39.7896V10.5169C56.0656 8.73507 54.6232 7.29265 52.8413 7.29265ZM52.8413 8.98962C53.6898 8.98962 54.3686 9.66841 54.3686 10.5169V38.9411H45.7141V8.98962H52.8413ZM12.9625 8.98962H44.0171V38.9411H12.9625V8.98962ZM12.9625 2.11689H44.0171V7.29265H12.9625V2.11689ZM4.1383 8.98962H11.2656V38.9411H2.61103V10.5169C2.61103 9.66841 3.28982 8.98962 4.1383 8.98962ZM35.7019 53.8745H21.2777L22.9747 47.3411H34.0898L35.7019 53.8745ZM52.8413 45.6442H34.6838H22.2959H4.1383C3.28982 45.6442 2.61103 44.9654 2.61103 44.1169V40.723H54.3686V44.1169C54.3686 44.8805 53.6898 45.6442 52.8413 45.6442Z" fill="white"/>
<path d="M16.4513 3.3916C15.6877 3.3916 15.0938 3.98554 15.0938 4.74918C15.0938 5.51281 15.6877 6.10675 16.4513 6.10675C17.215 6.10675 17.8089 5.51281 17.8089 4.74918C17.7241 3.98554 17.215 3.3916 16.4513 3.3916Z" fill="#E6B400"/>
<path d="M21.6232 3.3916C20.8596 3.3916 20.2656 3.98554 20.2656 4.74918C20.2656 5.51281 20.8596 6.10675 21.6232 6.10675C22.3868 6.10675 22.9808 5.51281 22.9808 4.74918C22.9808 3.98554 22.3868 3.3916 21.6232 3.3916Z" fill="#E6B400"/>
<path d="M26.7951 3.3916C26.0314 3.3916 25.4375 3.98554 25.4375 4.74918C25.4375 5.51281 26.0314 6.10675 26.7951 6.10675C27.5587 6.10675 28.1527 5.51281 28.1527 4.74918C28.1527 3.98554 27.5587 3.3916 26.7951 3.3916Z" fill="#E6B400"/>
<path d="M28.4893 41.6602C27.7257 41.6602 27.0469 42.3389 27.0469 43.1026C27.0469 43.8662 27.7257 44.545 28.4893 44.545C29.2529 44.545 29.9317 43.8662 29.9317 43.1026C29.9317 42.3389 29.2529 41.6602 28.4893 41.6602Z" fill="#E6B400"/>
<path d="M28.325 11.5332C27.816 11.5332 27.4766 11.8726 27.4766 12.3817V35.5453C27.4766 36.0544 27.816 36.3938 28.325 36.3938C28.8341 36.3938 29.1735 36.0544 29.1735 35.5453V12.3817C29.1735 11.8726 28.7493 11.5332 28.325 11.5332Z" fill="#E6B400"/>
<path d="M24.5937 29.6104H15.0907C14.5816 29.6104 14.2422 29.9497 14.2422 30.4588C14.2422 30.9679 14.5816 31.3073 15.0907 31.3073H24.5089C25.0179 31.3073 25.3573 30.9679 25.3573 30.4588C25.4422 30.0346 25.0179 29.6104 24.5937 29.6104Z" fill="#E6B400"/>
<path d="M24.5937 33.4268H15.0907C14.5816 33.4268 14.2422 33.7662 14.2422 34.2752C14.2422 34.7843 14.5816 35.1237 15.0907 35.1237H24.5089C25.0179 35.1237 25.3573 34.7843 25.3573 34.2752C25.4422 33.7662 25.0179 33.4268 24.5937 33.4268Z" fill="#E6B400"/>
<path d="M41.4765 12.4697H31.9735C31.4644 12.4697 31.125 12.8091 31.125 13.3182C31.125 13.8273 31.4644 14.1667 31.9735 14.1667H41.3917C41.9008 14.1667 42.2402 13.8273 42.2402 13.3182C42.325 12.8091 41.9008 12.4697 41.4765 12.4697Z" fill="white"/>
<path d="M31.9735 17.8972H37.9977C38.5068 17.8972 38.8462 17.5578 38.8462 17.0487C38.8462 16.5396 38.5068 16.2002 37.9977 16.2002H31.9735C31.4644 16.2002 31.125 16.5396 31.125 17.0487C31.125 17.5578 31.5492 17.8972 31.9735 17.8972Z" fill="white"/>
<path d="M41.4765 21.207H31.9735C31.4644 21.207 31.125 21.5464 31.125 22.0555C31.125 22.5646 31.4644 22.904 31.9735 22.904H41.3917C41.9008 22.904 42.2402 22.5646 42.2402 22.0555C42.325 21.6313 41.9008 21.207 41.4765 21.207Z" fill="white"/>
<path d="M31.9735 26.7263H37.9977C38.5068 26.7263 38.8462 26.3869 38.8462 25.8778C38.8462 25.3687 38.5068 25.0293 37.9977 25.0293H31.9735C31.4644 25.0293 31.125 25.3687 31.125 25.8778C31.125 26.302 31.5492 26.7263 31.9735 26.7263Z" fill="white"/>
<path d="M41.4765 30.0361H31.9735C31.4644 30.0361 31.125 30.3755 31.125 30.8846C31.125 31.3937 31.4644 31.7331 31.9735 31.7331H41.3917C41.9008 31.7331 42.2402 31.3937 42.2402 30.8846C42.325 30.3755 41.9008 30.0361 41.4765 30.0361Z" fill="white"/>
<path d="M38.0759 33.7607H32.0516C31.5425 33.7607 31.2031 34.1001 31.2031 34.6092C31.2031 35.1183 31.5425 35.4577 32.0516 35.4577H38.0759C38.5849 35.4577 38.9243 35.1183 38.9243 34.6092C38.9243 34.185 38.5001 33.7607 38.0759 33.7607Z" fill="white"/>
</g>
<defs>
<clipPath id="clip0_1804_227116">
<rect width="56" height="56" fill="white" transform="translate(0.5)"/>
</clipPath>
</defs>
</svg>
