<svg width="57" height="56" viewBox="0 0 57 56" fill="none" xmlns="http://www.w3.org/2000/svg">
<path d="M50.375 4.375H6.625C4.21 4.375 2.25 6.335 2.25 8.75V38.5C2.25 40.915 4.21 42.875 6.625 42.875H20.8088L18.28 47.8188C17.8687 48.6325 17.9038 49.5775 18.3763 50.3563C18.8663 51.1525 19.715 51.625 20.66 51.625H36.3312C37.2762 51.625 38.125 51.1525 38.615 50.3563C39.0875 49.5775 39.1312 48.6325 38.7113 47.8188L36.1825 42.875H50.3663C52.7812 42.875 54.7413 40.915 54.7413 38.5V8.75C54.7413 6.335 52.7812 4.375 50.3663 4.375H50.375ZM53 8.75V35.875H32.875V6.125H50.375C51.8187 6.125 53 7.30625 53 8.75ZM6.625 6.125H31.125V35.875H4V8.75C4 7.30625 5.18125 6.125 6.625 6.125ZM37.1537 48.615C37.3462 49 37.1975 49.3237 37.1187 49.4462C37.04 49.5775 36.8037 49.875 36.3312 49.875H20.66C20.1875 49.875 19.9513 49.5687 19.8725 49.4462C19.8025 49.3237 19.645 49 19.8375 48.615L22.7688 42.875H34.2137L37.145 48.615H37.1537ZM53 38.5C53 39.9437 51.8187 41.125 50.375 41.125H6.625C5.18125 41.125 4 39.9437 4 38.5V37.625H53V38.5Z" fill="white"/>
<path d="M8.375 21H27.625C28.5875 21 29.375 20.2125 29.375 19.25V10.5C29.375 9.5375 28.5875 8.75 27.625 8.75H8.375C7.4125 8.75 6.625 9.5375 6.625 10.5V19.25C6.625 20.2125 7.4125 21 8.375 21ZM8.375 10.5H27.625V19.25H8.375V10.5Z" fill="white"/>
<path d="M8.375 33.25H15.375C16.3375 33.25 17.125 32.4625 17.125 31.5V24.5C17.125 23.5375 16.3375 22.75 15.375 22.75H8.375C7.4125 22.75 6.625 23.5375 6.625 24.5V31.5C6.625 32.4625 7.4125 33.25 8.375 33.25ZM8.375 24.5H15.375V31.5H8.375V24.5Z" fill="white"/>
<path d="M27.625 22.75H20.625C19.6625 22.75 18.875 23.5375 18.875 24.5V31.5C18.875 32.4625 19.6625 33.25 20.625 33.25H27.625C28.5875 33.25 29.375 32.4625 29.375 31.5V24.5C29.375 23.5375 28.5875 22.75 27.625 22.75ZM20.625 31.5V24.5H27.625V31.5H20.625Z" fill="white"/>
<path d="M49.5 31.5H36.375C35.8937 31.5 35.5 31.8937 35.5 32.375C35.5 32.8563 35.8937 33.25 36.375 33.25H49.5C49.9812 33.25 50.375 32.8563 50.375 32.375C50.375 31.8937 49.9812 31.5 49.5 31.5Z" fill="#E6B400"/>
<path d="M49.5 27.125H36.375C35.8937 27.125 35.5 27.5187 35.5 28C35.5 28.4813 35.8937 28.875 36.375 28.875H49.5C49.9812 28.875 50.375 28.4813 50.375 28C50.375 27.5187 49.9812 27.125 49.5 27.125Z" fill="#E6B400"/>
<path d="M49.5 22.75H36.375C35.8937 22.75 35.5 23.1437 35.5 23.625C35.5 24.1063 35.8937 24.5 36.375 24.5H49.5C49.9812 24.5 50.375 24.1063 50.375 23.625C50.375 23.1437 49.9812 22.75 49.5 22.75Z" fill="#E6B400"/>
<path d="M46.3491 18.1991C46.5066 18.3128 46.6903 18.3741 46.8741 18.3741C47.1366 18.3741 47.3991 18.2516 47.5741 18.0241L50.1991 14.5241C50.4353 14.2091 50.4353 13.7891 50.1991 13.4741L47.5741 9.97407C47.2853 9.58907 46.7341 9.51032 46.3491 9.79907C45.9641 10.0878 45.8853 10.6391 46.1741 11.0241L48.4053 13.9991L46.1741 16.9741C45.8853 17.3591 45.9641 17.9103 46.3491 18.1991Z" fill="#E6B400"/>
<path d="M34.8022 14.5241L37.4272 18.0241C37.6022 18.2516 37.8647 18.3741 38.1272 18.3741C38.3109 18.3741 38.4947 18.3128 38.6522 18.1991C39.0372 17.9103 39.1159 17.3591 38.8272 16.9741L36.5959 13.9991L38.8272 11.0241C39.1159 10.6391 39.0372 10.0878 38.6522 9.79907C38.2672 9.51032 37.7159 9.58907 37.4272 9.97407L34.8022 13.4741C34.5659 13.7891 34.5659 14.2091 34.8022 14.5241Z" fill="#E6B400"/>
<path d="M41.414 18.3507C41.484 18.3682 41.554 18.3769 41.624 18.3769C42.0178 18.3769 42.3765 18.1144 42.4728 17.7119L44.2228 10.7119C44.3365 10.2394 44.0565 9.76692 43.584 9.65317C43.1115 9.53067 42.639 9.81942 42.5253 10.2919L40.7753 17.2919C40.6615 17.7644 40.9415 18.2369 41.414 18.3507Z" fill="#E6B400"/>
</svg>
