<svg width="57" height="56" viewBox="0 0 57 56" fill="none" xmlns="http://www.w3.org/2000/svg">
<path d="M9.32709 47.1341H5.44855C3.99266 47.1341 2.8125 45.9539 2.8125 44.498V10.1946C2.8125 8.73875 3.99266 7.55859 5.44855 7.55859H52.1177C53.5735 7.55859 54.7537 8.73875 54.7537 10.1946V44.498C54.7537 45.9539 53.5735 47.1341 52.1177 47.1341H29.8768" stroke="white" stroke-width="1.64062" stroke-miterlimit="10" stroke-linecap="round" stroke-linejoin="round"/>
<path d="M6.375 13.8906H51.1969" stroke="white" stroke-width="1.64062" stroke-miterlimit="10" stroke-linecap="round" stroke-linejoin="round"/>
<path d="M8.26434 10.8216C8.26434 11.3283 7.85364 11.739 7.34702 11.739C6.84039 11.739 6.42969 11.3283 6.42969 10.8216C6.42969 10.315 6.84039 9.9043 7.34702 9.9043C7.85364 9.9043 8.26434 10.315 8.26434 10.8216Z" fill="#E6B400" stroke="#E6B400" stroke-width="0.109375"/>
<path d="M12.1081 10.8216C12.1081 11.3283 11.6974 11.739 11.1908 11.739C10.6841 11.739 10.2734 11.3283 10.2734 10.8216C10.2734 10.315 10.6841 9.9043 11.1908 9.9043C11.6974 9.9043 12.1081 10.315 12.1081 10.8216Z" fill="#E6B400" stroke="#E6B400" stroke-width="0.109375"/>
<path d="M15.9518 10.8216C15.9518 11.3283 15.5411 11.739 15.0345 11.739C14.5279 11.739 14.1172 11.3283 14.1172 10.8216C14.1172 10.315 14.5279 9.9043 15.0345 9.9043C15.5411 9.9043 15.9518 10.315 15.9518 10.8216Z" fill="#E6B400" stroke="#E6B400" stroke-width="0.109375"/>
<path d="M7.07031 36.4824H9.379L13.4144 48.3738H26.0916" stroke="#E6B400" stroke-width="1.64062" stroke-miterlimit="10" stroke-linecap="round" stroke-linejoin="round"/>
<path d="M11.25 40.5234H28.8429" stroke="#E6B400" stroke-width="1.64062" stroke-miterlimit="10" stroke-linecap="round" stroke-linejoin="round"/>
<path d="M12.5312 44.4785H27.519" stroke="#E6B400" stroke-width="1.64062" stroke-miterlimit="10" stroke-linecap="round" stroke-linejoin="round"/>
<path d="M16.8014 53.6956C17.5762 53.6956 18.2043 53.0674 18.2043 52.2926C18.2043 51.5178 17.5762 50.8896 16.8014 50.8896C16.0266 50.8896 15.3984 51.5178 15.3984 52.2926C15.3984 53.0674 16.0266 53.6956 16.8014 53.6956Z" stroke="#E6B400" stroke-width="1.64062" stroke-miterlimit="10" stroke-linecap="round" stroke-linejoin="round"/>
<path d="M22.3951 53.6956C23.17 53.6956 23.7981 53.0674 23.7981 52.2926C23.7981 51.5178 23.17 50.8896 22.3951 50.8896C21.6203 50.8896 20.9922 51.5178 20.9922 52.2926C20.9922 53.0674 21.6203 53.6956 22.3951 53.6956Z" stroke="#E6B400" stroke-width="1.64062" stroke-miterlimit="10" stroke-linecap="round" stroke-linejoin="round"/>
<path d="M7.3125 19.5049H27.5203V32.0924H7.3125V19.5049Z" stroke="white" stroke-width="1.64062" stroke-miterlimit="10" stroke-linecap="round" stroke-linejoin="round"/>
<path d="M32.9922 19.5049H35.1293" stroke="white" stroke-width="1.64062" stroke-miterlimit="10" stroke-linecap="round" stroke-linejoin="round"/>
<path d="M38.0234 19.5049H45.9912" stroke="white" stroke-width="1.64062" stroke-miterlimit="10" stroke-linecap="round" stroke-linejoin="round"/>
<path d="M48.8438 19.5049H51.1605" stroke="white" stroke-width="1.64062" stroke-miterlimit="10" stroke-linecap="round" stroke-linejoin="round"/>
<path d="M32.9922 25.6484H39.0896" stroke="white" stroke-width="1.64062" stroke-miterlimit="10" stroke-linecap="round" stroke-linejoin="round"/>
<path d="M46.5312 25.6484H51.1649" stroke="white" stroke-width="1.64062" stroke-miterlimit="10" stroke-linecap="round" stroke-linejoin="round"/>
<path d="M42.0859 25.6484H43.5515" stroke="white" stroke-width="1.64062" stroke-miterlimit="10" stroke-linecap="round" stroke-linejoin="round"/>
<path d="M41.1953 31.792H51.1632V34.9484H41.1953V31.792Z" stroke="white" stroke-width="1.64062" stroke-miterlimit="10" stroke-linecap="round" stroke-linejoin="round"/>
</svg>
