<svg width="57" height="56" viewBox="0 0 57 56" fill="none" xmlns="http://www.w3.org/2000/svg">
<g clip-path="url(#clip0_1804_227195)">
<path d="M55.6797 41.2344C55.2265 41.2344 54.8594 41.6017 54.8594 42.0547V50.8047C54.8594 52.7647 53.2648 54.3594 51.3047 54.3594H5.69531C3.7352 54.3594 2.14062 52.7647 2.14062 50.8047V24.2812C2.14062 23.8282 1.77345 23.4609 1.32031 23.4609C0.867172 23.4609 0.5 23.8282 0.5 24.2812V50.8047C0.5 53.6693 2.83067 56 5.69531 56H51.3047C54.1693 56 56.5 53.6693 56.5 50.8047V42.0547C56.5 41.6017 56.1328 41.2344 55.6797 41.2344Z" fill="white"/>
<path d="M51.3047 0H5.69531C2.83067 0 0.5 2.33067 0.5 5.19531V20.4531C0.5 20.9062 0.867172 21.2734 1.32031 21.2734C1.77345 21.2734 2.14062 20.9062 2.14062 20.4531V14.7656H54.8594V38.2266C54.8594 38.6796 55.2265 39.0469 55.6797 39.0469C56.1328 39.0469 56.5 38.6796 56.5 38.2266V5.19531C56.5 2.33067 54.1693 0 51.3047 0ZM2.14062 13.125V5.19531C2.14062 3.23531 3.7352 1.64062 5.69531 1.64062H51.3047C53.2648 1.64062 54.8594 3.23531 54.8594 5.19531V13.125H2.14062Z" fill="white"/>
<path d="M7.88281 9.84375C6.52591 9.84375 5.42188 8.73983 5.42188 7.38281C5.42188 6.0258 6.52591 4.92188 7.88281 4.92188C9.23972 4.92188 10.3438 6.0258 10.3438 7.38281C10.3438 8.73983 9.23972 9.84375 7.88281 9.84375ZM7.88281 6.5625C7.43044 6.5625 7.0625 6.93044 7.0625 7.38281C7.0625 7.83519 7.43044 8.20312 7.88281 8.20312C8.33519 8.20312 8.70312 7.83519 8.70312 7.38281C8.70312 6.93044 8.33519 6.5625 7.88281 6.5625Z" fill="#E6B400"/>
<path d="M14.4453 9.84375C13.0884 9.84375 11.9844 8.73983 11.9844 7.38281C11.9844 6.0258 13.0884 4.92188 14.4453 4.92188C15.8022 4.92188 16.9062 6.0258 16.9062 7.38281C16.9062 8.73983 15.8022 9.84375 14.4453 9.84375ZM14.4453 6.5625C13.9929 6.5625 13.625 6.93044 13.625 7.38281C13.625 7.83519 13.9929 8.20312 14.4453 8.20312C14.8977 8.20312 15.2656 7.83519 15.2656 7.38281C15.2656 6.93044 14.8977 6.5625 14.4453 6.5625Z" fill="#E6B400"/>
<path d="M21.0078 9.84375C19.6509 9.84375 18.5469 8.73983 18.5469 7.38281C18.5469 6.0258 19.6509 4.92188 21.0078 4.92188C22.3647 4.92188 23.4688 6.0258 23.4688 7.38281C23.4688 8.73983 22.3647 9.84375 21.0078 9.84375ZM21.0078 6.5625C20.5554 6.5625 20.1875 6.93044 20.1875 7.38281C20.1875 7.83519 20.5554 8.20312 21.0078 8.20312C21.4602 8.20312 21.8281 7.83519 21.8281 7.38281C21.8281 6.93044 21.4602 6.5625 21.0078 6.5625Z" fill="#E6B400"/>
<path d="M32.4922 27.3438H8.42969C6.77123 27.3438 5.42188 25.9945 5.42188 24.3359V21.0547C5.42188 19.3961 6.77123 18.0469 8.42969 18.0469H32.4922C33.9499 18.0469 35.1677 19.0662 35.4425 20.4646L37.8407 21.3639C38.4013 21.5741 38.7634 22.0967 38.7634 22.6952C38.7634 23.2938 38.4012 23.8163 37.8407 24.0265L35.4425 24.9258C35.1674 26.3247 33.9497 27.3438 32.4922 27.3438ZM8.42969 19.6875C7.67577 19.6875 7.0625 20.3008 7.0625 21.0547V24.3359C7.0625 25.0899 7.67577 25.7031 8.42969 25.7031H32.4922C33.203 25.7031 33.7884 25.1705 33.8536 24.464C33.8935 24.0276 34.1838 23.646 34.5928 23.4923L36.7184 22.6952L34.5931 21.8982C34.1838 21.7445 33.8935 21.3628 33.8535 20.9258C33.7884 20.2202 33.203 19.6875 32.4922 19.6875H8.42969Z" fill="#E6B400"/>
<path d="M51.385 24.5229C50.9506 23.6129 50.2346 22.8852 49.3722 22.4246C49.7175 21.9669 49.9224 21.3976 49.9224 20.7812C49.9224 19.2735 48.6958 18.0469 47.1881 18.0469C45.6803 18.0469 44.4537 19.2735 44.4537 20.7812C44.4537 21.3976 44.6587 21.9668 45.004 22.4246C44.1415 22.8851 43.4256 23.6129 42.9911 24.5229C42.6972 25.1383 42.7388 25.8498 43.1024 26.4261C43.4647 27.0007 44.087 27.3439 44.7665 27.3439H49.6097C50.2893 27.3439 50.9113 27.0009 51.2738 26.4263C51.6371 25.85 51.6787 25.1385 51.385 24.5229ZM46.0943 20.7814C46.0943 20.1783 46.585 19.6876 47.1881 19.6876C47.7912 19.6876 48.2818 20.1783 48.2818 20.7814C48.2818 21.3845 47.7912 21.8751 47.1881 21.8751C46.585 21.8751 46.0943 21.3845 46.0943 20.7814ZM49.886 25.551C49.8503 25.6079 49.7666 25.7032 49.6097 25.7032H44.7665C44.6096 25.7032 44.526 25.6077 44.4901 25.5509C44.4536 25.493 44.4027 25.3745 44.4718 25.2298C44.969 24.1885 46.0351 23.5157 47.1882 23.5157C48.3412 23.5157 49.4074 24.1885 49.9045 25.2296C49.9734 25.3745 49.9224 25.4931 49.886 25.551Z" fill="#E6B400"/>
<path d="M48.5681 39.2108H24.5056C23.0479 39.2108 21.8301 38.1915 21.5553 36.7931L19.1571 35.8938C18.5965 35.6836 18.2344 35.161 18.2344 34.5625C18.2344 33.964 18.5965 33.4414 19.157 33.2312L21.5553 32.3318C21.8304 30.9331 23.048 29.9141 24.5056 29.9141H48.5681C50.2266 29.9141 51.5759 31.2633 51.5759 32.9219V36.2031C51.5759 37.8616 50.2266 39.2108 48.5681 39.2108ZM20.2792 34.5624L22.4047 35.3594C22.814 35.5131 23.1043 35.8948 23.1443 36.3317C23.2095 37.0375 23.7948 37.5702 24.5056 37.5702H48.5681C49.322 37.5702 49.9353 36.9569 49.9353 36.203V32.9218C49.9353 32.1678 49.322 31.5546 48.5681 31.5546H24.5056C23.7948 31.5546 23.2094 32.0872 23.1442 32.7937C23.1043 33.2301 22.814 33.6117 22.405 33.7654L20.2792 34.5624Z" fill="white"/>
<path d="M14.0099 36.39C13.5755 35.48 12.8595 34.7524 11.9971 34.2918C12.3424 33.8341 12.5474 33.2648 12.5474 32.6484C12.5474 31.1407 11.3207 29.9141 9.81298 29.9141C8.30524 29.9141 7.0786 31.1407 7.0786 32.6484C7.0786 33.2648 7.28357 33.834 7.62887 34.2918C6.76645 34.7524 6.05048 35.4802 5.61604 36.3902C5.32226 37.0056 5.36382 37.7172 5.72738 38.2934C6.08974 38.8679 6.71187 39.2109 7.39141 39.2109H12.2346C12.9142 39.2109 13.5363 38.8678 13.8988 38.2932C14.2621 37.7171 14.3037 37.0056 14.0099 36.39ZM8.71912 32.6485C8.71912 32.0455 9.20977 31.5548 9.81287 31.5548C10.416 31.5548 10.9066 32.0455 10.9066 32.6485C10.9066 33.2516 10.416 33.7423 9.81287 33.7423C9.20977 33.7423 8.71912 33.2516 8.71912 32.6485ZM12.5109 37.4181C12.4751 37.4749 12.3914 37.5704 12.2345 37.5704H7.3913C7.23435 37.5704 7.15079 37.475 7.11502 37.4182C7.07849 37.3603 7.02752 37.2416 7.09665 37.0969C7.59376 36.0557 8.65995 35.3829 9.81298 35.3829C10.966 35.3829 12.0322 36.0557 12.5293 37.0969C12.5983 37.2416 12.5475 37.3603 12.5109 37.4181Z" fill="white"/>
<path d="M48.5681 51.0781H24.5056C23.0479 51.0781 21.8301 50.0587 21.5553 48.6604L19.1571 47.7611C18.5965 47.5509 18.2344 47.0283 18.2344 46.4298C18.2344 45.8313 18.5965 45.3087 19.157 45.0985L21.5553 44.1991C21.8304 42.8003 23.0481 41.7812 24.5056 41.7812H48.5681C50.2266 41.7812 51.5759 43.1305 51.5759 44.7891V48.0703C51.5759 49.7289 50.2266 51.0781 48.5681 51.0781ZM20.2792 46.4297L22.4047 47.2267C22.814 47.3804 23.1043 47.7621 23.1443 48.199C23.2094 48.9048 23.7948 49.4375 24.5056 49.4375H48.5681C49.322 49.4375 49.9353 48.8242 49.9353 48.0703V44.7891C49.9353 44.0351 49.322 43.4219 48.5681 43.4219H24.5056C23.7948 43.4219 23.2094 43.9545 23.1442 44.661C23.1043 45.0974 22.814 45.479 22.405 45.6327L20.2792 46.4297Z" fill="white"/>
<path d="M14.0099 48.2572C13.5755 47.3472 12.8595 46.6196 11.9971 46.159C12.3424 45.7012 12.5474 45.132 12.5474 44.5156C12.5474 43.0079 11.3207 41.7812 9.81298 41.7812C8.30524 41.7812 7.0786 43.0079 7.0786 44.5156C7.0786 45.132 7.28357 45.7011 7.62887 46.159C6.76645 46.6196 6.05048 47.3473 5.61604 48.2573C5.32226 48.8728 5.36382 49.5844 5.72738 50.1606C6.08974 50.7351 6.71187 51.0781 7.39141 51.0781H12.2346C12.9142 51.0781 13.5363 50.735 13.8988 50.1604C14.2621 49.5843 14.3037 48.8728 14.0099 48.2572ZM8.71912 44.5157C8.71912 43.9126 9.20977 43.422 9.81287 43.422C10.416 43.422 10.9066 43.9126 10.9066 44.5157C10.9066 45.1188 10.416 45.6095 9.81287 45.6095C9.20977 45.6095 8.71912 45.1188 8.71912 44.5157ZM12.5109 49.2853C12.4751 49.3421 12.3914 49.4376 12.2345 49.4376H7.3913C7.23435 49.4376 7.15079 49.3422 7.11502 49.2854C7.07849 49.2275 7.02752 49.1088 7.09665 48.9641C7.59365 47.9229 8.65984 47.2501 9.81287 47.2501C10.9659 47.2501 12.0321 47.9229 12.5292 48.9641C12.5983 49.1088 12.5475 49.2275 12.5109 49.2853Z" fill="white"/>
</g>
<defs>
<clipPath id="clip0_1804_227195">
<rect width="56" height="56" fill="white" transform="translate(0.5)"/>
</clipPath>
</defs>
</svg>
