<svg width="57" height="56" viewBox="0 0 57 56" fill="none" xmlns="http://www.w3.org/2000/svg">
<path d="M51.7438 55.0614H5.24678C3.12557 55.0614 1.34375 53.2795 1.34375 51.1583V6.52803C1.34375 4.40682 3.12557 2.625 5.24678 2.625H25.9498C26.4589 2.625 26.7983 2.96439 26.7983 3.47348C26.7983 3.98258 26.4589 4.32197 25.9498 4.32197H5.24678C3.97405 4.32197 3.04072 5.2553 3.04072 6.52803V51.1583C3.04072 52.4311 3.97405 53.3644 5.24678 53.3644H51.7438C53.0165 53.3644 53.9498 52.4311 53.9498 51.1583V6.52803C53.9498 5.2553 53.0165 4.32197 51.7438 4.32197H31.0407C30.5316 4.32197 30.1922 3.98258 30.1922 3.47348C30.1922 2.96439 30.5316 2.625 31.0407 2.625H51.7438C53.865 2.625 55.6468 4.40682 55.6468 6.52803V51.1583C55.6468 53.2795 53.865 55.0614 51.7438 55.0614Z" fill="white"/>
<path d="M25.9498 11.9583H2.19223C1.68314 11.9583 1.34375 11.6189 1.34375 11.1098V7.37651C1.34375 4.74621 3.04072 2.625 5.24678 2.625H25.9498C26.4589 2.625 26.7983 2.96439 26.7983 3.47348C26.7983 3.98258 26.4589 4.32197 25.9498 4.32197H5.24678C3.97405 4.32197 3.04072 5.67955 3.04072 7.37651V10.2614H25.9498C26.4589 10.2614 26.7983 10.6008 26.7983 11.1098C26.7983 11.6189 26.4589 11.9583 25.9498 11.9583Z" fill="white"/>
<path d="M54.8014 11.8735H31.0438C30.5347 11.8735 30.1953 11.5341 30.1953 11.025C30.1953 10.5159 30.5347 10.1765 31.0438 10.1765H53.9529V7.37652C53.9529 5.67955 52.9347 4.32197 51.7468 4.32197H31.0438C30.5347 4.32197 30.1953 3.98258 30.1953 3.47348C30.1953 2.96439 30.5347 2.625 31.0438 2.625H51.7468C53.868 2.625 55.6499 4.74621 55.6499 7.37652V11.025C55.6499 11.5341 55.3105 11.8735 54.8014 11.8735Z" fill="white"/>
<path d="M43.0843 8.13838H41.9813C41.4722 8.13838 41.1328 7.79898 41.1328 7.28989C41.1328 6.7808 41.4722 6.44141 41.9813 6.44141H43.0843C43.5934 6.44141 43.9328 6.7808 43.9328 7.28989C43.9328 7.79898 43.5934 8.13838 43.0843 8.13838Z" fill="white"/>
<path d="M46.9906 8.13838H45.8875C45.3785 8.13838 45.0391 7.79898 45.0391 7.28989C45.0391 6.7808 45.3785 6.44141 45.8875 6.44141H46.9906C47.4997 6.44141 47.8391 6.7808 47.8391 7.28989C47.8391 7.79898 47.4997 8.13838 46.9906 8.13838Z" fill="white"/>
<path d="M50.8879 8.13838H49.7C49.191 8.13838 48.8516 7.79898 48.8516 7.28989C48.8516 6.7808 49.191 6.44141 49.7 6.44141H50.8879C51.397 6.44141 51.7364 6.7808 51.7364 7.28989C51.7364 7.79898 51.397 8.13838 50.8879 8.13838Z" fill="white"/>
<path d="M28.4961 18.4875C28.2415 18.4875 27.987 18.4026 27.8173 18.1481L23.3203 12.8875C23.0658 12.6329 23.0658 12.2935 23.2355 11.9541C23.4052 11.6147 23.6597 11.445 23.9991 11.445H25.1021V1.77231C25.1021 1.26322 25.4415 0.923828 25.9506 0.923828H31.0415C31.5506 0.923828 31.89 1.26322 31.89 1.77231V11.5299H32.993C33.3324 11.5299 33.587 11.6996 33.7567 12.039C33.9264 12.3784 33.8415 12.7178 33.6718 12.9723L29.1748 18.2329C29.0052 18.4026 28.7506 18.4875 28.4961 18.4875ZM25.8658 13.2269L28.4961 16.3663L31.1264 13.2269H31.0415C30.5324 13.2269 30.193 12.8875 30.193 12.3784V2.6208H26.7991V12.3784C26.7991 12.8875 26.4597 13.2269 25.9506 13.2269H25.8658Z" fill="#E6B400"/>
<path d="M21.0118 30.706H9.38755C8.87846 30.706 8.53906 30.3666 8.53906 29.8575V18.2333C8.53906 17.7242 8.87846 17.3848 9.38755 17.3848H21.0118C21.5209 17.3848 21.8603 17.7242 21.8603 18.2333V29.8575C21.8603 30.3666 21.5209 30.706 21.0118 30.706ZM10.236 29.009H20.1633V19.0817H10.236V29.009Z" fill="#E6B400"/>
<path d="M47.5735 22.819H27.9735C27.4644 22.819 27.125 22.4796 27.125 21.9706C27.125 21.4615 27.4644 21.1221 27.9735 21.1221H47.5735C48.0826 21.1221 48.422 21.4615 48.422 21.9706C48.422 22.4796 48.0826 22.819 47.5735 22.819Z" fill="#E6B400"/>
<path d="M47.4829 27.0603H39.0829C38.5738 27.0603 38.2344 26.7209 38.2344 26.2118C38.2344 25.7027 38.5738 25.3633 39.0829 25.3633H47.4829C47.992 25.3633 48.3313 25.7027 48.3313 26.2118C48.3313 26.7209 47.992 27.0603 47.4829 27.0603Z" fill="#E6B400"/>
<path d="M35.8644 27.0603H27.9735C27.4644 27.0603 27.125 26.7209 27.125 26.2118C27.125 25.7027 27.4644 25.3633 27.9735 25.3633H35.8644C36.3735 25.3633 36.7129 25.7027 36.7129 26.2118C36.7129 26.7209 36.3735 27.0603 35.8644 27.0603Z" fill="#E6B400"/>
<path d="M17.2867 39.9543C15.5049 39.9543 14.0625 38.5119 14.0625 36.7301C14.0625 34.9483 15.5049 33.5059 17.2867 33.5059C19.0686 33.5059 20.511 34.9483 20.511 36.7301C20.511 38.5119 19.0686 39.9543 17.2867 39.9543ZM17.2867 35.2028C16.4383 35.2028 15.7595 35.8816 15.7595 36.7301C15.7595 37.5786 16.4383 38.2574 17.2867 38.2574C18.1352 38.2574 18.814 37.5786 18.814 36.7301C18.814 35.8816 18.1352 35.2028 17.2867 35.2028Z" fill="white"/>
<path d="M28.4899 39.9543C26.708 39.9543 25.2656 38.5119 25.2656 36.7301C25.2656 34.9483 26.708 33.5059 28.4899 33.5059C30.2717 33.5059 31.7141 34.9483 31.7141 36.7301C31.7141 38.5119 30.2717 39.9543 28.4899 39.9543ZM28.4899 35.2028C27.6414 35.2028 26.9626 35.8816 26.9626 36.7301C26.9626 37.5786 27.6414 38.2574 28.4899 38.2574C29.3384 38.2574 30.0171 37.5786 30.0171 36.7301C30.0171 35.8816 29.3384 35.2028 28.4899 35.2028Z" fill="white"/>
<path d="M39.693 39.9543C37.9112 39.9543 36.4688 38.5119 36.4688 36.7301C36.4688 34.9483 37.9112 33.5059 39.693 33.5059C41.4748 33.5059 42.9172 34.9483 42.9172 36.7301C42.9172 38.5119 41.4748 39.9543 39.693 39.9543ZM39.693 35.2028C38.8445 35.2028 38.1657 35.8816 38.1657 36.7301C38.1657 37.5786 38.8445 38.2574 39.693 38.2574C40.5415 38.2574 41.2203 37.5786 41.2203 36.7301C41.2203 35.8816 40.5415 35.2028 39.693 35.2028Z" fill="white"/>
<path d="M46.5759 45.7263H19.2547C18.7456 45.7263 18.4062 45.3869 18.4062 44.8778C18.4062 44.3687 18.7456 44.0293 19.2547 44.0293H46.5759C47.085 44.0293 47.4244 44.3687 47.4244 44.8778C47.4244 45.3869 47.085 45.7263 46.5759 45.7263Z" fill="white"/>
<path d="M15.9418 45.7263H10.4266C9.91752 45.7263 9.57812 45.3869 9.57812 44.8778C9.57812 44.3687 9.91752 44.0293 10.4266 44.0293H15.9418C16.4509 44.0293 16.7902 44.3687 16.7902 44.8778C16.7902 45.3869 16.4509 45.7263 15.9418 45.7263Z" fill="white"/>
<path d="M46.5729 49.9675H42.7547C42.2456 49.9675 41.9062 49.6281 41.9062 49.119C41.9062 48.6099 42.2456 48.2705 42.7547 48.2705H46.5729C47.082 48.2705 47.4214 48.6099 47.4214 49.119C47.4214 49.6281 47.082 49.9675 46.5729 49.9675Z" fill="white"/>
<path d="M38.0024 49.9675H10.4266C9.91752 49.9675 9.57812 49.6281 9.57812 49.119C9.57812 48.6099 9.91752 48.2705 10.4266 48.2705H38.0024C38.5115 48.2705 38.8509 48.6099 38.8509 49.119C38.8509 49.6281 38.5115 49.9675 38.0024 49.9675Z" fill="white"/>
<path d="M21.0326 8.13838H17.7235C17.2144 8.13838 16.875 7.79898 16.875 7.28989C16.875 6.7808 17.2144 6.44141 17.7235 6.44141H21.0326C21.5417 6.44141 21.8811 6.7808 21.8811 7.28989C21.8811 7.79898 21.5417 8.13838 21.0326 8.13838Z" fill="white"/>
<path d="M14.4996 8.13838H6.18442C5.67533 8.13838 5.33594 7.79898 5.33594 7.28989C5.33594 6.7808 5.67533 6.44141 6.18442 6.44141H14.4996C15.0087 6.44141 15.3481 6.7808 15.3481 7.28989C15.3481 7.79898 15.0087 8.13838 14.4996 8.13838Z" fill="white"/>
</svg>
