<svg width="36" height="36" viewBox="0 0 36 36" fill="none" xmlns="http://www.w3.org/2000/svg">
<g clip-path="url(#clip0_1091_307968)">
<path d="M24.6969 35.2969H11.3083C9.38068 35.2969 7.8125 33.7287 7.8125 31.8011V23.7101H8.65625V31.8011C8.65625 33.2634 9.84594 34.4531 11.3083 34.4531H24.6969C26.1592 34.4531 27.3489 33.2634 27.3489 31.8011V24.8233H28.1926V31.8011C28.1926 33.7287 26.6244 35.2969 24.6969 35.2969ZM28.1926 15.7078H27.3488V4.19892C27.3488 2.73656 26.1591 1.54688 24.6968 1.54688H11.3083C9.84594 1.54688 8.65625 2.73656 8.65625 4.19892V14.8909H7.8125V4.19892C7.8125 2.2713 9.38075 0.703125 11.3083 0.703125H24.6969C26.6245 0.703125 28.1926 2.27137 28.1926 4.19892L28.1926 15.7078Z" fill="#E6B400"/>
<path d="M19.7027 32.6953H16.7891C16.5561 32.6953 16.3672 32.5064 16.3672 32.2734C16.3672 32.0405 16.5561 31.8516 16.7891 31.8516H19.7027C19.9356 31.8516 20.1245 32.0405 20.1245 32.2734C20.1245 32.5064 19.9357 32.6953 19.7027 32.6953Z" fill="#E6B400"/>
<path d="M11.6757 26.9641C11.5798 26.9641 11.4847 26.9314 11.4077 26.8681L8.08066 24.1319H2.92233C1.69868 24.1319 0.703125 23.1363 0.703125 21.9127V16.688C0.703125 15.4643 1.69868 14.4688 2.92233 14.4688H13.196C14.4196 14.4688 15.4152 15.4643 15.4152 16.688V21.9127C15.4152 23.1363 14.4196 24.1319 13.196 24.1319H12.0975V26.5423C12.0975 26.7054 12.0034 26.854 11.8558 26.9237C11.7984 26.9508 11.7368 26.9641 11.6757 26.9641ZM2.92233 15.3126C2.16387 15.3126 1.54688 15.9296 1.54688 16.6881V21.9128C1.54688 22.6712 2.16387 23.2883 2.92233 23.2883H8.23183C8.32957 23.2883 8.42428 23.3222 8.4998 23.3843L11.2538 25.6492V23.7101C11.2538 23.4772 11.4427 23.2883 11.6757 23.2883H13.196C13.9544 23.2883 14.5714 22.6713 14.5714 21.9128V16.6881C14.5714 15.9297 13.9544 15.3126 13.196 15.3126H2.92233Z" fill="black"/>
<path d="M17.3232 10.5752C17.1664 10.5752 17.0096 10.534 16.8668 10.4515C16.5809 10.2864 16.4102 9.99025 16.4102 9.65929V7.04866C16.4102 6.7177 16.5809 6.42154 16.8668 6.25645C17.1528 6.09135 17.4947 6.09164 17.7813 6.25708L20.0421 7.56236C20.3288 7.72788 20.4999 8.02375 20.4999 8.35394C20.4999 8.68413 20.3287 8.98007 20.0421 9.14559L17.7813 10.4509C17.6377 10.5337 17.4804 10.5752 17.3232 10.5752ZM17.3236 6.97715C17.3133 6.97715 17.3016 6.97968 17.2887 6.98714C17.2539 7.00725 17.2539 7.03839 17.2539 7.04866V9.65929C17.2539 9.66956 17.2539 9.70071 17.2887 9.72082C17.3234 9.74093 17.3504 9.72532 17.3594 9.72018L19.6203 8.4149C19.6291 8.40977 19.6562 8.39423 19.6562 8.35401C19.6562 8.31386 19.6292 8.29825 19.6203 8.29312L17.3594 6.98784C17.3538 6.98453 17.341 6.97715 17.3236 6.97715Z" fill="black"/>
<path d="M22.5753 13.0573H13.418C12.41 13.0573 11.5898 12.2372 11.5898 11.2292V5.46875C11.5898 4.46075 12.41 3.64062 13.418 3.64062H22.5753C23.5833 3.64062 24.4034 4.46075 24.4034 5.46875V11.2292C24.4034 12.2372 23.5833 13.0573 22.5753 13.0573ZM13.418 4.48437C12.8752 4.48437 12.4336 4.92594 12.4336 5.46875V11.2292C12.4336 11.772 12.8752 12.2136 13.418 12.2136H22.5753C23.1181 12.2136 23.5596 11.7721 23.5596 11.2292V5.46875C23.5596 4.92594 23.1181 4.48437 22.5753 4.48437H13.418Z" fill="black"/>
<path d="M8.22734 21.705H3.69148C3.45853 21.705 3.2696 21.5161 3.2696 21.2831C3.2696 21.0502 3.45853 20.8613 3.69148 20.8613H8.22734C8.46028 20.8613 8.64921 21.0502 8.64921 21.2831C8.64921 21.5161 8.46028 21.705 8.22734 21.705ZM12.4178 19.7275H3.69141C3.45846 19.7275 3.26953 19.5386 3.26953 19.3057C3.26953 19.0727 3.45846 18.8838 3.69141 18.8838H12.4178C12.6508 18.8838 12.8397 19.0727 12.8397 19.3057C12.8397 19.5386 12.6508 19.7275 12.4178 19.7275ZM12.4178 17.75H3.69141C3.45846 17.75 3.26953 17.5611 3.26953 17.3281C3.26953 17.0952 3.45846 16.9062 3.69141 16.9062H12.4178C12.6508 16.9062 12.8397 17.0952 12.8397 17.3281C12.8397 17.5611 12.6508 17.75 12.4178 17.75Z" fill="black"/>
<path d="M22.6598 29.6841C22.2434 29.6841 21.838 29.4683 21.6153 29.0825L19.7031 25.7706L20.4339 25.3487L22.346 28.6606C22.4452 28.8325 22.6659 28.8918 22.8379 28.7924C23.0099 28.6932 23.0691 28.4725 22.9698 28.3005L21.2672 25.3516L21.998 24.9297L23.7005 27.8786C24.0324 28.4535 23.8348 29.1912 23.2599 29.5231C23.0707 29.6323 22.864 29.6841 22.6598 29.6841Z" fill="black"/>
<path d="M19.2769 26.1294C18.2944 26.1294 17.4104 25.4616 17.134 24.4301C16.8044 23.2 17.4817 21.9858 18.6759 21.6659C19.0207 21.5735 19.3713 21.4854 19.7103 21.4002C20.3792 21.232 21.071 21.0582 21.7328 20.8473C25.4343 19.668 26.8125 17.4609 27.1467 16.8125L27.8966 17.1991C26.9041 19.1245 24.6957 20.7889 21.9889 21.6512C21.3021 21.87 20.5974 22.0471 19.916 22.2184C19.5801 22.3029 19.2327 22.3902 18.8942 22.4808C18.1571 22.6783 17.7418 23.4386 17.949 24.2116C18.1561 24.9846 18.8959 25.4355 19.6331 25.238C19.9716 25.1472 20.3162 25.0491 20.6495 24.9543C21.3252 24.7619 22.0239 24.563 22.728 24.4091C25.5033 23.8026 28.2481 24.1397 30.0703 25.311L29.6142 26.0208C29.0005 25.6264 26.7035 24.4041 22.9082 25.2334C22.2297 25.3817 21.5438 25.577 20.8805 25.7658C20.5442 25.8616 20.1964 25.9606 19.8515 26.053C19.6587 26.1046 19.466 26.1294 19.2769 26.1294Z" fill="black"/>
<path d="M30.5562 22.5375L30.1278 21.8105L31.0941 21.2412L30.8207 20.2209L29.6992 20.2109L29.7067 19.3672L31.1489 19.38C31.3385 19.3816 31.5036 19.5095 31.5527 19.6926L31.9921 21.3326C32.0412 21.5157 31.9621 21.7091 31.7988 21.8053L30.5562 22.5375Z" fill="black"/>
<path d="M30.6454 27.1028C30.4519 27.1028 30.2605 27.0519 30.0879 26.9522C29.829 26.8028 29.6441 26.5623 29.5671 26.2748L26.9835 16.6327C26.8241 16.0379 27.1784 15.4243 27.7732 15.2649C28.0606 15.1879 28.3614 15.2277 28.6202 15.3772C28.8791 15.5266 29.064 15.7671 29.141 16.0545L31.7246 25.6967C31.8839 26.2915 31.5297 26.905 30.9349 27.0644C30.8392 27.0902 30.7421 27.1028 30.6454 27.1028ZM28.0612 16.0707C28.0379 16.0707 28.0146 16.0737 27.9916 16.0799C27.8486 16.1183 27.7602 16.2714 27.7985 16.4143L30.3821 26.0565C30.4008 26.1262 30.4461 26.1848 30.5097 26.2215C30.5734 26.2583 30.6468 26.2683 30.7165 26.2495C30.8595 26.2112 30.9479 26.0581 30.9096 25.9151L28.326 16.2729C28.3073 16.2033 28.2619 16.1446 28.1984 16.1079C28.1557 16.0833 28.1086 16.0707 28.0612 16.0707Z" fill="black"/>
<path d="M34.3756 23.9135C34.304 23.9135 34.2315 23.8953 34.1651 23.8569L32.5023 22.897C32.3005 22.7804 32.2314 22.5224 32.3479 22.3207C32.4643 22.1189 32.7224 22.0498 32.9242 22.1663L34.5869 23.1262C34.7887 23.2427 34.8579 23.5008 34.7413 23.7025C34.6632 23.8379 34.5214 23.9135 34.3756 23.9135ZM33.0227 20.6005C32.8364 20.6005 32.666 20.4762 32.6154 20.2877C32.5551 20.0626 32.6887 19.8313 32.9138 19.771L34.7683 19.2741C34.9932 19.2136 35.2247 19.3474 35.285 19.5724C35.3453 19.7975 35.2117 20.0288 34.9867 20.0891L33.1321 20.586C33.0956 20.5958 33.0588 20.6005 33.0227 20.6005ZM31.5778 18.7176C31.5063 18.7176 31.4337 18.6994 31.3673 18.661C31.1655 18.5445 31.0963 18.2864 31.2129 18.0847L32.1728 16.4219C32.2893 16.2201 32.5474 16.151 32.7491 16.2675C32.9509 16.384 33.02 16.6421 32.9035 16.8438L31.9435 18.5066C31.8654 18.6419 31.7236 18.7176 31.5778 18.7176Z" fill="black"/>
<path d="M21.4609 21.3516L22.276 21.133L23.2338 24.7054L22.4187 24.9239L21.4609 21.3516Z" fill="black"/>
</g>
<defs>
<clipPath id="clip0_1091_307968">
<rect width="36" height="36" fill="white"/>
</clipPath>
</defs>
</svg>
