<svg width="73" height="72" viewBox="0 0 73 72" fill="none" xmlns="http://www.w3.org/2000/svg">
<path d="M65.7316 67.1011H7.84362C5.25162 67.1011 2.94762 64.7971 2.51562 61.4851C2.51562 61.3411 2.51563 61.0531 2.65963 60.9091C2.80362 60.7651 2.94762 60.6211 3.23562 60.6211H70.1956C70.3396 60.6211 70.6276 60.7651 70.7716 60.9091C70.9156 61.0531 70.9156 61.3411 70.9156 61.4851C70.6276 64.7971 68.3236 67.1011 65.7316 67.1011ZM4.09962 62.2051C4.67562 64.2211 6.11562 65.6611 7.84362 65.6611H65.5876C67.3156 65.6611 68.7556 64.2211 69.3316 62.2051H4.09962Z" fill="white"/>
<path d="M17.9124 62.2069H9.70438C9.27237 62.2069 8.98438 61.9189 8.98438 61.4869V27.6469C8.98438 25.6309 10.5684 24.0469 12.5844 24.0469H17.7684C18.2004 24.0469 18.4884 24.3349 18.4884 24.7669V61.3429C18.6324 61.9189 18.2004 62.2069 17.9124 62.2069ZM10.4244 60.7669H17.0484V25.6309H12.5844C11.4324 25.6309 10.4244 26.6389 10.4244 27.7909V60.7669Z" fill="white"/>
<path d="M63.7044 62.2086C63.2724 62.2086 62.9844 61.9206 62.9844 61.4886V33.6966C62.9844 33.2646 63.2724 32.9766 63.7044 32.9766C64.1364 32.9766 64.4244 33.2646 64.4244 33.6966V61.4886C64.4244 61.9206 64.1364 62.2086 63.7044 62.2086Z" fill="white"/>
<path d="M62.4099 25.9189C62.2659 25.9189 62.1219 25.9189 61.9779 25.7749C61.6899 25.6309 61.2579 25.4869 60.8259 25.4869H55.6419C55.2099 25.4869 54.9219 25.1989 54.9219 24.7669C54.9219 24.3349 55.2099 24.0469 55.6419 24.0469H60.9699C61.5459 24.0469 62.2659 24.1909 62.8419 24.6229C63.1299 24.7669 63.2739 25.1989 63.1299 25.6309C62.8419 25.9189 62.6979 25.9189 62.4099 25.9189Z" fill="white"/>
<path d="M53.6241 64.6509H53.0481C52.6161 64.6509 52.3281 64.3629 52.3281 63.9309C52.3281 63.4989 52.6161 63.2109 53.0481 63.2109H53.6241C54.0561 63.2109 54.3441 63.4989 54.3441 63.9309C54.3441 64.3629 54.0561 64.6509 53.6241 64.6509Z" fill="white"/>
<path d="M60.2491 64.6509H59.6731C59.2411 64.6509 58.9531 64.3629 58.9531 63.9309C58.9531 63.4989 59.2411 63.2109 59.6731 63.2109H60.2491C60.6811 63.2109 60.9691 63.4989 60.9691 63.9309C60.9691 64.3629 60.6811 64.6509 60.2491 64.6509Z" fill="white"/>
<path d="M57.0851 64.6509H56.5091C56.0771 64.6509 55.7891 64.3629 55.7891 63.9309C55.7891 63.4989 56.0771 63.2109 56.5091 63.2109H57.0851C57.5171 63.2109 57.8051 63.4989 57.8051 63.9309C57.8051 64.3629 57.3731 64.6509 57.0851 64.6509Z" fill="white"/>
<path d="M55.6451 62.2046H17.9171C17.4851 62.2046 17.1971 61.9166 17.1971 61.4846V9.35658C17.1971 7.62858 15.7571 6.33258 14.1731 6.33258C13.7411 6.33258 13.4531 6.04458 13.4531 5.61258C13.4531 5.18058 13.7411 4.89258 14.1731 4.89258H52.0451C54.4931 4.89258 56.5091 6.90858 56.5091 9.50058V41.0366C56.5091 41.4686 56.2211 41.7566 55.7891 41.7566C55.3571 41.7566 55.0691 41.4686 55.0691 41.0366V9.35658C55.0691 7.62858 53.6291 6.18858 52.0451 6.18858H17.3411C18.0611 7.05258 18.4931 8.06058 18.4931 9.21258V60.6206H54.9251V52.5566C54.9251 52.1246 55.2131 51.8366 55.6451 51.8366C56.0771 51.8366 56.3651 52.1246 56.3651 52.5566V61.3406C56.3651 61.9166 56.0771 62.2046 55.6451 62.2046Z" fill="white"/>
<path d="M17.9197 20.8766H6.39969C5.96769 20.8766 5.67969 20.5886 5.67969 20.1566C5.67969 19.7246 5.96769 19.4366 6.39969 19.4366C8.12769 19.4366 9.42369 17.9966 9.42369 16.4126V12.2366V12.0926V9.35658C9.42369 6.90858 11.4397 4.89258 13.8877 4.89258C16.3357 4.89258 18.3517 6.90858 18.3517 9.35658V20.1566C18.6397 20.5886 18.2077 20.8766 17.9197 20.8766ZM9.71169 19.4366H17.0557V9.35658C17.0557 7.62858 15.6157 6.33258 14.0317 6.33258C12.3037 6.33258 11.0077 7.77258 11.0077 9.35658V11.9486V12.0926V16.4126C11.0077 17.5646 10.5757 18.5726 9.71169 19.4366Z" fill="white"/>
<path d="M6.39369 20.8755C3.94569 20.8755 1.92969 18.8595 1.92969 16.4115V11.6595C1.92969 11.2275 2.21769 10.9395 2.64969 10.9395H10.2817C10.7137 10.9395 11.0017 11.2275 11.0017 11.6595V16.2675C11.0017 18.8595 8.98569 20.8755 6.39369 20.8755ZM3.36969 12.3795V16.2675C3.36969 17.9955 4.80969 19.2915 6.39369 19.2915C7.97769 19.2915 9.41769 17.8515 9.41769 16.2675V12.3795H3.36969Z" fill="white"/>
<path d="M34.1921 23.4652H22.3841C21.9521 23.4652 21.6641 23.1772 21.6641 22.7452V10.5052C21.6641 10.0732 21.9521 9.78516 22.3841 9.78516H34.1921C34.6241 9.78516 34.9121 10.0732 34.9121 10.5052V22.8892C34.9121 23.1772 34.4801 23.4652 34.1921 23.4652ZM23.1041 22.0252H33.4721V11.2252H23.1041V22.0252Z" fill="#E6B400"/>
<path d="M51.1766 11.3775H38.3606C37.9286 11.3775 37.6406 11.0895 37.6406 10.6575C37.6406 10.2255 37.9286 9.9375 38.3606 9.9375H51.1766C51.6086 9.9375 51.8966 10.2255 51.8966 10.6575C51.8966 11.0895 51.6086 11.3775 51.1766 11.3775Z" fill="#E6B400"/>
<path d="M51.1766 15.4029H38.3606C37.9286 15.4029 37.6406 15.1149 37.6406 14.6829C37.6406 14.2509 37.9286 13.9629 38.3606 13.9629H51.1766C51.6086 13.9629 51.8966 14.2509 51.8966 14.6829C51.8966 15.1149 51.6086 15.4029 51.1766 15.4029Z" fill="#E6B400"/>
<path d="M51.1766 19.44H38.3606C37.9286 19.44 37.6406 19.152 37.6406 18.72C37.6406 18.288 37.9286 18 38.3606 18H51.1766C51.6086 18 51.8966 18.288 51.8966 18.72C51.8966 19.152 51.6086 19.44 51.1766 19.44Z" fill="#E6B400"/>
<path d="M51.1766 23.4712H38.3606C37.9286 23.4712 37.6406 23.1833 37.6406 22.7513C37.6406 22.3192 37.9286 22.0312 38.3606 22.0312H51.1766C51.6086 22.0312 51.8966 22.3192 51.8966 22.7513C51.8966 23.1833 51.6086 23.4712 51.1766 23.4712Z" fill="#E6B400"/>
<path d="M51.1814 27.6431H36.4934C36.0614 27.6431 35.7734 27.3551 35.7734 26.9231C35.7734 26.4911 36.0614 26.2031 36.4934 26.2031H51.1814C51.6134 26.2031 51.9014 26.4911 51.9014 26.9231C51.9014 27.3551 51.6134 27.6431 51.1814 27.6431Z" fill="#E6B400"/>
<path d="M51.1814 31.6744H36.4934C36.0614 31.6744 35.7734 31.3864 35.7734 30.9544C35.7734 30.5224 36.2054 30.2344 36.4934 30.2344H51.1814C51.6134 30.2344 51.9014 30.5224 51.9014 30.9544C51.9014 31.3864 51.6134 31.6744 51.1814 31.6744Z" fill="#E6B400"/>
<path d="M36.4994 27.6431H22.2434C21.8114 27.6431 21.5234 27.3551 21.5234 26.9231C21.5234 26.4911 21.8114 26.2031 22.2434 26.2031H36.4994C36.9314 26.2031 37.2194 26.4911 37.2194 26.9231C37.2194 27.3551 36.9314 27.6431 36.4994 27.6431Z" fill="#E6B400"/>
<path d="M36.4994 31.6744H22.2434C21.8114 31.6744 21.5234 31.3864 21.5234 30.9544C21.5234 30.5224 21.8114 30.2344 22.2434 30.2344H36.4994C36.9314 30.2344 37.2194 30.5224 37.2194 30.9544C37.2194 31.3864 36.9314 31.6744 36.4994 31.6744Z" fill="#E6B400"/>
<path d="M52.2001 55.7269C51.9121 55.7269 51.6241 55.5829 51.4801 55.2949L50.3281 52.2709C50.3281 52.1269 50.3281 51.8389 50.3281 51.6949L64.4401 18.8629C65.0161 17.4229 66.8881 16.7029 68.3281 17.2789C69.0481 17.5669 69.6241 18.1429 69.9121 18.8629C70.2001 19.5829 70.2001 20.4469 69.9121 21.1669L55.8001 53.9989C55.6561 54.1429 55.5121 54.2869 55.3681 54.4309L52.3441 55.7269H52.2001ZM51.7681 52.1269L52.6321 54.1429L54.6481 53.2789L68.6161 20.7349C68.7601 20.3029 68.7601 19.8709 68.6161 19.5829C68.4721 19.1509 68.1841 18.8629 67.7521 18.7189C67.0321 18.4309 66.0241 18.7189 65.7361 19.5829L51.7681 52.1269Z" fill="white"/>
<path d="M51.1803 58.0324C51.0363 58.0324 51.0362 58.0324 50.8922 58.0324C50.4602 57.8884 50.3163 57.4564 50.4603 57.0244L51.4683 54.7204C51.6123 54.2884 52.0442 54.1444 52.4762 54.2884C52.9082 54.4324 53.0523 54.8644 52.9083 55.2964L51.7562 57.6004C51.7562 57.8884 51.4683 58.0324 51.1803 58.0324Z" fill="white"/>
<path d="M67.0269 40.3198C66.8829 40.3198 66.8829 40.3198 66.7389 40.3198C66.1629 40.0318 65.5869 39.5998 65.2989 38.8798C65.0109 38.1598 65.0109 37.5838 65.2989 36.8638L69.3309 27.3598C69.4749 26.9278 69.4749 26.4958 69.3309 25.9198C69.1869 25.4878 68.7549 25.1998 68.3229 24.9118L63.2829 22.7518C62.8509 22.6078 62.7069 22.1758 62.8509 21.7438C62.9949 21.3118 63.4269 21.1678 63.8589 21.3118L68.8989 23.4718C69.7629 23.7598 70.3389 24.4798 70.6269 25.1998C70.9149 26.0638 70.9149 26.9278 70.6269 27.6478L66.7389 37.4398C66.5949 37.7278 66.5949 38.0158 66.7389 38.3038C66.8829 38.5918 67.0269 38.8798 67.3149 38.8798C67.7469 39.0238 67.8909 39.4558 67.7469 39.8878C67.6029 40.1758 67.3149 40.3198 67.0269 40.3198Z" fill="white"/>
<path d="M56.9422 50.3958C56.7982 50.3958 56.7982 50.3958 56.6542 50.3958L52.4782 48.6678C52.0462 48.5238 51.9022 48.0918 52.0462 47.6598C52.1902 47.2278 52.6222 47.0838 53.0542 47.2278L57.2302 48.9558C57.6622 49.0998 57.8062 49.5318 57.6622 49.9638C57.5182 50.2518 57.2302 50.3958 56.9422 50.3958Z" fill="white"/>
<path d="M38.6579 57.1696C38.3699 57.1696 38.0819 57.0256 37.9379 56.7376C37.5059 55.8736 36.9299 55.2976 36.2099 55.2976C35.4899 55.2976 34.9139 55.8736 34.4819 56.7376C34.3379 57.0256 34.0499 57.1696 33.6179 57.1696C32.4659 56.8816 31.3139 56.4496 30.3059 55.7296C30.0179 55.5856 29.8739 55.1535 30.0179 54.8655C30.3059 54.0015 30.3059 53.1375 29.8739 52.7055C29.4419 52.4175 29.0099 52.2736 28.7219 52.2736C28.4339 52.2736 28.0019 52.2736 27.7139 52.4176C27.4259 52.5616 26.9939 52.4176 26.8499 52.1296C26.2739 51.1216 25.8419 49.9696 25.5539 48.8176C25.4099 48.5296 25.6979 48.0975 25.9859 47.9535C26.8499 47.5216 27.2819 46.9456 27.2819 46.3696C27.2819 45.7936 26.8499 45.0736 25.9859 44.7856C25.6979 44.6416 25.5539 44.3536 25.5539 43.9216C25.8419 42.7696 26.2739 41.6176 26.8499 40.6096C26.9939 40.3216 27.4259 40.1776 27.7139 40.3216C28.0019 40.4656 28.4339 40.4656 28.7219 40.4656C29.0099 40.4656 29.5859 40.4655 29.8739 40.0335C30.3059 39.6015 30.4499 38.7375 30.0179 37.8735C29.8739 37.5855 30.0179 37.1536 30.3059 37.0096C31.3139 36.2896 32.4659 35.8576 33.6179 35.5696C33.9059 35.4256 34.3379 35.7136 34.4819 36.0016C34.9139 36.8656 35.4899 37.4416 36.2099 37.4416C36.9299 37.4416 37.6499 36.8656 37.9379 36.0016C38.0819 35.7136 38.3699 35.5696 38.8019 35.5696C39.9539 35.8576 41.1059 36.2896 42.1139 37.0096C42.4019 37.1536 42.5459 37.5855 42.4019 37.8735C42.1139 38.7375 42.1139 39.6015 42.5459 40.0335C42.8339 40.3215 43.4099 40.4656 43.6979 40.4656C43.9859 40.4656 44.4179 40.4656 44.7059 40.3216C44.9939 40.1776 45.4259 40.3216 45.5699 40.6096C46.1459 41.6176 46.7219 42.7696 46.8659 43.9216C47.0099 44.2096 46.7219 44.6416 46.4339 44.7856C45.5699 45.2176 45.1379 45.7936 45.1379 46.3696C45.1379 46.9456 45.5699 47.6655 46.4339 47.9535C46.7219 48.0975 46.8659 48.3856 46.8659 48.8176C46.5779 49.9696 46.1459 51.1216 45.5699 52.1296C45.4259 52.4176 44.9939 52.5616 44.7059 52.4176C44.4179 52.2736 43.9859 52.2736 43.6979 52.2736C43.4099 52.2736 42.8339 52.4175 42.5459 52.7055C42.1139 53.1375 41.9699 54.0015 42.4019 54.8655C42.5459 55.1535 42.4019 55.5856 42.1139 55.7296C41.1059 56.4496 39.9539 56.8816 38.8019 57.1696C38.6579 57.1696 38.6579 57.1696 38.6579 57.1696ZM31.6019 54.8655C32.1779 55.1535 32.8979 55.4415 33.4739 55.5855C34.1939 54.4335 35.2019 53.8576 36.2099 53.8576C37.3619 53.8576 38.3699 54.5775 38.9459 55.5855C39.6659 55.4415 40.2419 55.1535 40.8179 54.8655C40.5299 53.7135 40.8179 52.5616 41.5379 51.6976C42.2579 50.9776 43.4099 50.6896 44.5619 50.9776C44.8499 50.4016 45.1379 49.8255 45.2819 49.1055C44.2739 48.3855 43.6979 47.5216 43.6979 46.3696C43.6979 45.3616 44.2739 44.3536 45.2819 43.7776C45.1379 43.2016 44.8499 42.4816 44.5619 41.9056C43.4099 42.1936 42.2579 41.9056 41.5379 41.1856C40.8179 40.3216 40.5299 39.1696 40.8179 38.0176C40.2419 37.7296 39.6659 37.4416 38.9459 37.2976C38.2259 38.4496 37.2179 39.0256 36.2099 39.0256C35.0579 39.0256 34.0499 38.3056 33.4739 37.2976C32.7539 37.4416 32.1779 37.7296 31.6019 38.0176C31.8899 39.3136 31.6019 40.3216 30.8819 41.1856C30.1619 41.9056 29.0099 42.1936 27.7139 41.9056C27.4259 42.4816 27.1379 43.0576 26.9939 43.7776C28.0019 44.3536 28.5779 45.3615 28.5779 46.5135C28.5779 47.5216 28.0019 48.5296 26.9939 49.2496C27.1379 49.8256 27.4259 50.5456 27.7139 51.1216C28.8659 50.8336 30.0179 51.1216 30.8819 51.8416C31.6019 52.4176 31.8899 53.5695 31.6019 54.8655Z" fill="#E6B400"/>
<path d="M36.203 51.6951C33.323 51.6951 30.875 49.3911 30.875 46.3671C30.875 43.4871 33.179 41.0391 36.203 41.0391C39.227 41.0391 41.531 43.3431 41.531 46.3671C41.531 49.2471 39.083 51.6951 36.203 51.6951ZM36.203 42.6231C34.043 42.6231 32.315 44.3511 32.315 46.5111C32.315 48.6711 34.043 50.3991 36.203 50.3991C38.363 50.3991 40.091 48.6711 40.091 46.5111C40.091 44.3511 38.363 42.6231 36.203 42.6231Z" fill="#E6B400"/>
</svg>
