<svg width="73" height="72" viewBox="0 0 73 72" fill="none" xmlns="http://www.w3.org/2000/svg">
<mask id="path-1-inside-1_1760_48848" fill="white">
<path fill-rule="evenodd" clip-rule="evenodd" d="M49.3516 6.53591H57.5413C59.8302 6.53591 61.7077 8.39558 61.672 10.6844V67.8336C61.672 70.1224 59.7944 72 57.5056 72H15.7523C13.4635 72 11.5859 70.1224 11.5859 67.8336V10.7023C11.5859 8.41347 13.4635 6.53591 15.7523 6.53591H23.6738V4.58683C23.6738 3.99674 24.1566 3.51394 24.7467 3.51394H31.792C32.0245 3.51394 32.2212 3.37089 32.2927 3.15631C32.7397 1.77944 33.8305 0.688666 35.2074 0.24163C36.3697 -0.151763 37.6214 -0.0623553 38.7121 0.49197C39.8029 1.0463 40.6076 1.99401 41.001 3.15631C41.0725 3.37089 41.2692 3.51394 41.5017 3.51394H48.2787C48.8688 3.51394 49.3516 3.99674 49.3516 4.58683V6.53591ZM31.8099 5.65972H25.8375V9.68305H47.2237V5.65972H41.5195C40.3572 5.65972 39.338 4.9087 38.9804 3.81793C38.587 2.56622 37.1207 1.8152 35.8869 2.26224C35.1537 2.51258 34.5815 3.08478 34.3312 3.81793C33.9735 4.9087 32.9722 5.65972 31.8099 5.65972ZM57.5413 69.8363C58.65 69.8363 59.5619 68.9244 59.5619 67.8157V10.7023C59.5619 9.59364 58.65 8.68169 57.5413 8.68169H49.3695V10.7381C49.3695 11.3281 48.8867 11.8109 48.2966 11.8109H24.7825C24.1924 11.8109 23.7096 11.3281 23.7096 10.7381V8.66381H15.7881C14.6794 8.66381 13.7675 9.57576 13.7675 10.6844V67.8157C13.7675 68.9244 14.6794 69.8363 15.7881 69.8363H57.5413ZM30.5816 21.1418C30.5816 24.3247 27.9709 26.9354 24.7702 26.9354C21.5873 26.9354 18.9766 24.3247 18.9766 21.1418C19.2984 13.4527 30.2598 13.4527 30.5816 21.1418ZM28.4359 21.1418C28.4359 19.1212 26.7908 17.4761 24.7702 17.4761C22.7674 17.4761 21.1223 19.1033 21.1223 21.1418C21.319 25.9877 28.2392 25.9877 28.4359 21.1418ZM49.6005 19.0723C46.3998 19.0723 43.7891 21.683 43.7891 24.8837C44.1109 32.5728 55.0723 32.5728 55.3941 24.8837C55.3941 21.683 52.8013 19.0723 49.6005 19.0723ZM49.6005 28.5316C47.5799 28.5316 45.9348 26.8865 45.9348 24.8837C46.1315 20.0379 53.0517 20.0379 53.2484 24.8837C53.2484 26.8865 51.6212 28.5316 49.6005 28.5316ZM33.889 45.6588C40.8271 48.9132 42.1682 54.081 42.4185 56.2804C45.1365 56.7632 47.1929 59.1414 47.2107 61.9846C46.8889 69.6736 35.9275 69.6915 35.6057 61.9846C35.6057 59.1772 37.6084 56.8347 40.2727 56.2983C40.0224 54.4565 38.7886 50.308 32.995 47.59C29.0968 45.9091 26.057 41.1169 24.9483 36.4677L22.8919 39.7221C22.6774 40.044 22.3376 40.2228 21.98 40.2228C21.1574 40.2407 20.621 39.2751 21.068 38.5777C21.0748 38.5709 21.577 37.7709 22.1993 36.7797L22.1997 36.7791L22.2002 36.7783C23.22 35.1537 24.5617 33.0166 24.5728 33.0166C24.7337 32.7841 24.9841 32.6053 25.2523 32.5517C25.5205 32.498 25.8245 32.5517 26.057 32.6947L31.6002 36.1816C32.7804 36.9863 31.6717 38.7208 30.4558 38.0055L27.0047 35.8418C27.7378 38.7744 29.5975 43.6382 33.889 45.6588ZM37.7336 61.9846C37.7336 64.0052 39.3787 65.6503 41.3993 65.6503C43.4199 65.6503 45.0471 64.0052 45.0471 61.9846C44.8504 57.1387 37.9303 57.1387 37.7336 61.9846ZM29.1516 49.3397C28.7403 48.9284 28.0608 48.9284 27.6317 49.3397L24.4488 52.5226L21.2659 49.3397C20.8546 48.9284 20.1751 48.9284 19.746 49.3397C19.3347 49.751 19.3347 50.4305 19.746 50.8596L22.9289 54.0425L19.746 57.2254C19.3347 57.6367 19.3347 58.3162 19.746 58.7454C20.1572 59.1566 20.8367 59.1566 21.2659 58.7454L24.4488 55.5625L27.6317 58.7454C28.043 59.1566 28.7225 59.1566 29.1516 58.7454C29.5629 58.3341 29.5629 57.6546 29.1516 57.2254L25.9687 54.0425L29.1516 50.8596C29.5808 50.4305 29.5808 49.751 29.1516 49.3397ZM48.2645 36.1854C48.6937 35.7741 49.3731 35.7741 49.7844 36.1854C50.1957 36.6146 50.1957 37.2762 49.7844 37.7053L46.6015 40.8882L49.7844 44.0711C50.1957 44.5003 50.1957 45.1798 49.7844 45.5911C49.3553 46.0023 48.6758 46.0023 48.2645 45.5911L45.0816 42.4082L41.8987 45.5911C41.4695 46.0023 40.79 46.0023 40.3788 45.5911C39.9675 45.1619 39.9675 44.4824 40.3788 44.0711L43.5617 40.8882L40.3788 37.7053C39.9675 37.2762 39.9675 36.5967 40.3788 36.1854C40.8079 35.7741 41.4874 35.7741 41.8987 36.1854L45.0816 39.3683L48.2645 36.1854Z"/>
</mask>
<path fill-rule="evenodd" clip-rule="evenodd" d="M49.3516 6.53591H57.5413C59.8302 6.53591 61.7077 8.39558 61.672 10.6844V67.8336C61.672 70.1224 59.7944 72 57.5056 72H15.7523C13.4635 72 11.5859 70.1224 11.5859 67.8336V10.7023C11.5859 8.41347 13.4635 6.53591 15.7523 6.53591H23.6738V4.58683C23.6738 3.99674 24.1566 3.51394 24.7467 3.51394H31.792C32.0245 3.51394 32.2212 3.37089 32.2927 3.15631C32.7397 1.77944 33.8305 0.688666 35.2074 0.24163C36.3697 -0.151763 37.6214 -0.0623553 38.7121 0.49197C39.8029 1.0463 40.6076 1.99401 41.001 3.15631C41.0725 3.37089 41.2692 3.51394 41.5017 3.51394H48.2787C48.8688 3.51394 49.3516 3.99674 49.3516 4.58683V6.53591ZM31.8099 5.65972H25.8375V9.68305H47.2237V5.65972H41.5195C40.3572 5.65972 39.338 4.9087 38.9804 3.81793C38.587 2.56622 37.1207 1.8152 35.8869 2.26224C35.1537 2.51258 34.5815 3.08478 34.3312 3.81793C33.9735 4.9087 32.9722 5.65972 31.8099 5.65972ZM57.5413 69.8363C58.65 69.8363 59.5619 68.9244 59.5619 67.8157V10.7023C59.5619 9.59364 58.65 8.68169 57.5413 8.68169H49.3695V10.7381C49.3695 11.3281 48.8867 11.8109 48.2966 11.8109H24.7825C24.1924 11.8109 23.7096 11.3281 23.7096 10.7381V8.66381H15.7881C14.6794 8.66381 13.7675 9.57576 13.7675 10.6844V67.8157C13.7675 68.9244 14.6794 69.8363 15.7881 69.8363H57.5413ZM30.5816 21.1418C30.5816 24.3247 27.9709 26.9354 24.7702 26.9354C21.5873 26.9354 18.9766 24.3247 18.9766 21.1418C19.2984 13.4527 30.2598 13.4527 30.5816 21.1418ZM28.4359 21.1418C28.4359 19.1212 26.7908 17.4761 24.7702 17.4761C22.7674 17.4761 21.1223 19.1033 21.1223 21.1418C21.319 25.9877 28.2392 25.9877 28.4359 21.1418ZM49.6005 19.0723C46.3998 19.0723 43.7891 21.683 43.7891 24.8837C44.1109 32.5728 55.0723 32.5728 55.3941 24.8837C55.3941 21.683 52.8013 19.0723 49.6005 19.0723ZM49.6005 28.5316C47.5799 28.5316 45.9348 26.8865 45.9348 24.8837C46.1315 20.0379 53.0517 20.0379 53.2484 24.8837C53.2484 26.8865 51.6212 28.5316 49.6005 28.5316ZM33.889 45.6588C40.8271 48.9132 42.1682 54.081 42.4185 56.2804C45.1365 56.7632 47.1929 59.1414 47.2107 61.9846C46.8889 69.6736 35.9275 69.6915 35.6057 61.9846C35.6057 59.1772 37.6084 56.8347 40.2727 56.2983C40.0224 54.4565 38.7886 50.308 32.995 47.59C29.0968 45.9091 26.057 41.1169 24.9483 36.4677L22.8919 39.7221C22.6774 40.044 22.3376 40.2228 21.98 40.2228C21.1574 40.2407 20.621 39.2751 21.068 38.5777C21.0748 38.5709 21.577 37.7709 22.1993 36.7797L22.1997 36.7791L22.2002 36.7783C23.22 35.1537 24.5617 33.0166 24.5728 33.0166C24.7337 32.7841 24.9841 32.6053 25.2523 32.5517C25.5205 32.498 25.8245 32.5517 26.057 32.6947L31.6002 36.1816C32.7804 36.9863 31.6717 38.7208 30.4558 38.0055L27.0047 35.8418C27.7378 38.7744 29.5975 43.6382 33.889 45.6588ZM37.7336 61.9846C37.7336 64.0052 39.3787 65.6503 41.3993 65.6503C43.4199 65.6503 45.0471 64.0052 45.0471 61.9846C44.8504 57.1387 37.9303 57.1387 37.7336 61.9846ZM29.1516 49.3397C28.7403 48.9284 28.0608 48.9284 27.6317 49.3397L24.4488 52.5226L21.2659 49.3397C20.8546 48.9284 20.1751 48.9284 19.746 49.3397C19.3347 49.751 19.3347 50.4305 19.746 50.8596L22.9289 54.0425L19.746 57.2254C19.3347 57.6367 19.3347 58.3162 19.746 58.7454C20.1572 59.1566 20.8367 59.1566 21.2659 58.7454L24.4488 55.5625L27.6317 58.7454C28.043 59.1566 28.7225 59.1566 29.1516 58.7454C29.5629 58.3341 29.5629 57.6546 29.1516 57.2254L25.9687 54.0425L29.1516 50.8596C29.5808 50.4305 29.5808 49.751 29.1516 49.3397ZM48.2645 36.1854C48.6937 35.7741 49.3731 35.7741 49.7844 36.1854C50.1957 36.6146 50.1957 37.2762 49.7844 37.7053L46.6015 40.8882L49.7844 44.0711C50.1957 44.5003 50.1957 45.1798 49.7844 45.5911C49.3553 46.0023 48.6758 46.0023 48.2645 45.5911L45.0816 42.4082L41.8987 45.5911C41.4695 46.0023 40.79 46.0023 40.3788 45.5911C39.9675 45.1619 39.9675 44.4824 40.3788 44.0711L43.5617 40.8882L40.3788 37.7053C39.9675 37.2762 39.9675 36.5967 40.3788 36.1854C40.8079 35.7741 41.4874 35.7741 41.8987 36.1854L45.0816 39.3683L48.2645 36.1854Z" fill="white"/>
<path d="M49.3516 6.53591H48.9362V6.9513H49.3516V6.53591ZM61.672 10.6844L61.2566 10.6779V10.6844H61.672ZM23.6738 6.53591V6.9513H24.0892V6.53591H23.6738ZM32.2927 3.15631L32.6868 3.28767L32.6878 3.28458L32.2927 3.15631ZM35.2074 0.24163L35.3357 0.636743L35.3405 0.635089L35.2074 0.24163ZM38.7121 0.49197L38.9003 0.121661V0.121661L38.7121 0.49197ZM41.001 3.15631L41.395 3.02495L41.3944 3.02314L41.001 3.15631ZM25.8375 5.65972V5.24433H25.4221V5.65972H25.8375ZM25.8375 9.68305H25.4221V10.0984H25.8375V9.68305ZM47.2237 9.68305V10.0984H47.6391V9.68305H47.2237ZM47.2237 5.65972H47.6391V5.24433H47.2237V5.65972ZM38.9804 3.81793L38.5841 3.94248L38.5857 3.94734L38.9804 3.81793ZM35.8869 2.26224L36.0211 2.6554L36.0284 2.65278L35.8869 2.26224ZM34.3312 3.81793L33.938 3.68369L33.9365 3.68851L34.3312 3.81793ZM49.3695 8.68169V8.2663H48.9541V8.68169H49.3695ZM23.7096 8.66381H24.125V8.24842H23.7096V8.66381ZM30.5816 21.1418H30.997V21.1331L30.9967 21.1244L30.5816 21.1418ZM18.9766 21.1418L18.5615 21.1244L18.5612 21.1331V21.1418H18.9766ZM28.4359 21.1418L28.8509 21.1586L28.8512 21.1502V21.1418H28.4359ZM21.1223 21.1418H20.707V21.1502L20.7073 21.1586L21.1223 21.1418ZM43.7891 24.8837H43.3737V24.8924L43.374 24.9011L43.7891 24.8837ZM55.3941 24.8837L55.8092 24.9011L55.8095 24.8924V24.8837H55.3941ZM45.9348 24.8837L45.5198 24.8669L45.5195 24.8753V24.8837H45.9348ZM53.2484 24.8837H53.6637V24.8753L53.6634 24.8669L53.2484 24.8837ZM42.4185 56.2804L42.0058 56.3274L42.0408 56.6352L42.3459 56.6894L42.4185 56.2804ZM33.889 45.6588L33.7121 46.0346L33.7126 46.0348L33.889 45.6588ZM47.2107 61.9846L47.6258 62.0019L47.6262 61.992L47.6261 61.982L47.2107 61.9846ZM35.6057 61.9846H35.1903V61.9932L35.1906 62.0019L35.6057 61.9846ZM40.2727 56.2983L40.3547 56.7055L40.7368 56.6285L40.6843 56.2423L40.2727 56.2983ZM32.995 47.59L33.1715 47.2137L33.1594 47.2085L32.995 47.59ZM24.9483 36.4677L25.3524 36.3713L25.1237 35.4125L24.5971 36.2458L24.9483 36.4677ZM22.8919 39.7221L23.2377 39.9526L23.2431 39.944L22.8919 39.7221ZM21.98 40.2228V39.8073L21.971 39.8075L21.98 40.2228ZM21.068 38.5777L20.7743 38.284L20.7426 38.3157L20.7183 38.3535L21.068 38.5777ZM22.1993 36.7797L22.5511 37.0006L22.5512 37.0005L22.1993 36.7797ZM22.1997 36.7791L21.848 36.558L21.8478 36.5584L22.1997 36.7791ZM22.2002 36.7783L22.5518 36.9994L22.552 36.9992L22.2002 36.7783ZM24.5728 33.0166V33.432H24.7904L24.9143 33.253L24.5728 33.0166ZM25.2523 32.5517L25.1708 32.1443H25.1708L25.2523 32.5517ZM26.057 32.6947L26.2781 32.3431L26.2747 32.3409L26.057 32.6947ZM31.6002 36.1816L31.8342 35.8384L31.8279 35.8341L31.8214 35.83L31.6002 36.1816ZM30.4558 38.0055L30.2351 38.3576L30.2452 38.3635L30.4558 38.0055ZM27.0047 35.8418L27.2253 35.4899L26.3516 34.9421L26.6017 35.9426L27.0047 35.8418ZM37.7336 61.9846L37.3185 61.9677L37.3182 61.9761V61.9846H37.7336ZM45.0471 61.9846H45.4625V61.9761L45.4621 61.9677L45.0471 61.9846ZM27.6317 49.3397L27.3442 49.0397L27.338 49.046L27.6317 49.3397ZM29.1516 49.3397L28.8578 49.6335L28.8642 49.6396L29.1516 49.3397ZM24.4488 52.5226L24.1551 52.8163L24.4488 53.11L24.7425 52.8163L24.4488 52.5226ZM21.2659 49.3397L20.9722 49.6334L21.2659 49.3397ZM19.746 49.3397L19.4585 49.0397L19.4522 49.046L19.746 49.3397ZM19.746 50.8596L19.446 51.1471L19.4522 51.1534L19.746 50.8596ZM22.9289 54.0425L23.2226 54.3363L23.5163 54.0425L23.2226 53.7488L22.9289 54.0425ZM19.746 57.2254L20.0397 57.5192L19.746 57.2254ZM19.746 58.7454L19.446 59.0328L19.4522 59.0391L19.746 58.7454ZM21.2659 58.7454L21.5534 59.0453L21.5596 59.0391L21.2659 58.7454ZM24.4488 55.5625L24.7425 55.2687L24.4488 54.975L24.1551 55.2687L24.4488 55.5625ZM27.6317 58.7454L27.9254 58.4516H27.9254L27.6317 58.7454ZM29.1516 58.7454L29.4391 59.0453L29.4453 59.0391L29.1516 58.7454ZM29.1516 57.2254L29.4516 56.938L29.4453 56.9317L29.1516 57.2254ZM25.9687 54.0425L25.675 53.7488L25.3813 54.0425L25.675 54.3363L25.9687 54.0425ZM29.1516 50.8596L28.8579 50.5659L29.1516 50.8596ZM49.7844 36.1854L50.0844 35.8979L50.0781 35.8917L49.7844 36.1854ZM48.2645 36.1854L47.977 35.8854L47.9708 35.8917L48.2645 36.1854ZM49.7844 37.7053L50.0782 37.9991L50.0843 37.9927L49.7844 37.7053ZM46.6015 40.8882L46.3078 40.5945L46.0141 40.8882L46.3078 41.182L46.6015 40.8882ZM49.7844 44.0711L50.0844 43.7837L50.0781 43.7774L49.7844 44.0711ZM49.7844 45.5911L50.0719 45.891L50.0781 45.8848L49.7844 45.5911ZM48.2645 45.5911L47.9708 45.8848L48.2645 45.5911ZM45.0816 42.4082L45.3753 42.1144L45.0816 41.8207L44.7879 42.1144L45.0816 42.4082ZM41.8987 45.5911L42.1862 45.891L42.1924 45.8848L41.8987 45.5911ZM40.3788 45.5911L40.0788 45.8785L40.085 45.8848L40.3788 45.5911ZM43.5617 40.8882L43.8554 41.182L44.1491 40.8882L43.8554 40.5945L43.5617 40.8882ZM40.3788 37.7053L40.0788 37.9928L40.085 37.9991L40.3788 37.7053ZM40.3788 36.1854L40.0913 35.8854L40.085 35.8917L40.3788 36.1854ZM41.8987 36.1854L41.605 36.4791H41.605L41.8987 36.1854ZM45.0816 39.3683L44.7879 39.662L45.0816 39.9557L45.3753 39.662L45.0816 39.3683ZM57.5413 6.12053H49.3516V6.9513H57.5413V6.12053ZM62.0873 10.6909C62.1268 8.16401 60.0559 6.12053 57.5413 6.12053V6.9513C59.6044 6.9513 61.2887 8.62716 61.2566 10.6779L62.0873 10.6909ZM62.0873 67.8336V10.6844H61.2566V67.8336H62.0873ZM57.5056 72.4154C60.0238 72.4154 62.0873 70.3519 62.0873 67.8336H61.2566C61.2566 69.893 59.565 71.5846 57.5056 71.5846V72.4154ZM15.7523 72.4154H57.5056V71.5846H15.7523V72.4154ZM11.1706 67.8336C11.1706 70.3519 13.2341 72.4154 15.7523 72.4154V71.5846C13.6929 71.5846 12.0013 69.893 12.0013 67.8336H11.1706ZM11.1706 10.7023V67.8336H12.0013V10.7023H11.1706ZM15.7523 6.12053C13.2341 6.12053 11.1706 8.18406 11.1706 10.7023H12.0013C12.0013 8.64288 13.6929 6.9513 15.7523 6.9513V6.12053ZM23.6738 6.12053H15.7523V6.9513H23.6738V6.12053ZM23.2584 4.58683V6.53591H24.0892V4.58683H23.2584ZM24.7467 3.09856C23.9272 3.09856 23.2584 3.76733 23.2584 4.58683H24.0892C24.0892 4.22615 24.386 3.92933 24.7467 3.92933V3.09856ZM31.792 3.09856H24.7467V3.92933H31.792V3.09856ZM31.8986 3.02496C31.884 3.06872 31.8469 3.09856 31.792 3.09856V3.92933C32.202 3.92933 32.5583 3.67306 32.6868 3.28767L31.8986 3.02496ZM35.0791 -0.153453C33.5757 0.334665 32.3857 1.52463 31.8976 3.02804L32.6878 3.28458C33.0937 2.03424 34.0853 1.04267 35.3356 0.636712L35.0791 -0.153453ZM38.9003 0.121661C37.7096 -0.483467 36.342 -0.580939 35.0742 -0.151829L35.3405 0.635089C36.3973 0.277413 37.5331 0.358757 38.524 0.86228L38.9003 0.121661ZM41.3944 3.02314C40.9672 1.76101 40.0907 0.72659 38.9003 0.121661L38.524 0.86228C39.5151 1.366 40.2479 2.22702 40.6075 3.28948L41.3944 3.02314ZM41.5017 3.09856C41.4467 3.09856 41.4096 3.06871 41.395 3.02496L40.6069 3.28767C40.7354 3.67306 41.0917 3.92933 41.5017 3.92933V3.09856ZM48.2787 3.09856H41.5017V3.92933H48.2787V3.09856ZM49.767 4.58683C49.767 3.76733 49.0982 3.09856 48.2787 3.09856V3.92933C48.6394 3.92933 48.9362 4.22615 48.9362 4.58683H49.767ZM49.767 6.53591V4.58683H48.9362V6.53591H49.767ZM25.8375 6.0751H31.8099V5.24433H25.8375V6.0751ZM26.2529 9.68305V5.65972H25.4221V9.68305H26.2529ZM47.2237 9.26767H25.8375V10.0984H47.2237V9.26767ZM46.8083 5.65972V9.68305H47.6391V5.65972H46.8083ZM41.5195 6.0751H47.2237V5.24433H41.5195V6.0751ZM38.5857 3.94734C38.9986 5.20696 40.1758 6.0751 41.5195 6.0751V5.24433C40.5386 5.24433 39.6773 4.61043 39.3751 3.68851L38.5857 3.94734ZM36.0284 2.65278C37.0331 2.28873 38.2594 2.90941 38.5841 3.94247L39.3766 3.69338C38.9145 2.22303 37.2082 1.34167 35.7454 1.8717L36.0284 2.65278ZM34.7243 3.95215C34.9331 3.34073 35.4097 2.86412 36.0211 2.65534L35.7526 1.86914C34.8978 2.16104 34.23 2.82884 33.9381 3.6837L34.7243 3.95215ZM31.8099 6.0751C33.1568 6.0751 34.3139 5.20381 34.7259 3.94734L33.9365 3.68851C33.6332 4.61358 32.7875 5.24433 31.8099 5.24433V6.0751ZM59.1466 67.8157C59.1466 68.695 58.4206 69.421 57.5413 69.421V70.2517C58.8794 70.2517 59.9773 69.1538 59.9773 67.8157H59.1466ZM59.1466 10.7023V67.8157H59.9773V10.7023H59.1466ZM57.5413 9.09707C58.4206 9.09707 59.1466 9.82305 59.1466 10.7023H59.9773C59.9773 9.36423 58.8794 8.2663 57.5413 8.2663V9.09707ZM49.3695 9.09707H57.5413V8.2663H49.3695V9.09707ZM49.7849 10.7381V8.68169H48.9541V10.7381H49.7849ZM48.2966 12.2263C49.1161 12.2263 49.7849 11.5576 49.7849 10.7381H48.9541C48.9541 11.0987 48.6573 11.3956 48.2966 11.3956V12.2263ZM24.7825 12.2263H48.2966V11.3956H24.7825V12.2263ZM23.2942 10.7381C23.2942 11.5576 23.963 12.2263 24.7825 12.2263V11.3956C24.4218 11.3956 24.125 11.0987 24.125 10.7381H23.2942ZM23.2942 8.66381V10.7381H24.125V8.66381H23.2942ZM15.7881 9.07919H23.7096V8.24842H15.7881V9.07919ZM14.1829 10.6844C14.1829 9.80517 14.9088 9.07919 15.7881 9.07919V8.24842C14.45 8.24842 13.3521 9.34635 13.3521 10.6844H14.1829ZM14.1829 67.8157V10.6844H13.3521V67.8157H14.1829ZM15.7881 69.421C14.9088 69.421 14.1829 68.695 14.1829 67.8157H13.3521C13.3521 69.1538 14.45 70.2517 15.7881 70.2517V69.421ZM57.5413 69.421H15.7881V70.2517H57.5413V69.421ZM24.7702 27.3508C28.1995 27.3508 30.997 24.5549 30.997 21.1418H30.1663C30.1663 24.0944 27.7424 26.52 24.7702 26.52V27.3508ZM18.5612 21.1418C18.5612 24.5541 21.3579 27.3508 24.7702 27.3508V26.52C21.8167 26.52 19.3919 24.0953 19.3919 21.1418H18.5612ZM30.9967 21.1244C30.6526 12.9047 18.9056 12.9047 18.5615 21.1244L19.3916 21.1591C19.6912 14.0008 29.867 14.0008 30.1666 21.1591L30.9967 21.1244ZM24.7702 17.8915C26.5614 17.8915 28.0205 19.3506 28.0205 21.1418H28.8512C28.8512 18.8918 27.0202 17.0607 24.7702 17.0607V17.8915ZM21.5377 21.1418C21.5377 19.3327 22.9968 17.8915 24.7702 17.8915V17.0607C22.538 17.0607 20.707 18.8739 20.707 21.1418H21.5377ZM28.0208 21.1249C27.8457 25.4394 21.7125 25.4394 21.5374 21.1249L20.7073 21.1586C20.9256 26.5359 28.6326 26.5359 28.8509 21.1586L28.0208 21.1249ZM44.2044 24.8837C44.2044 21.9124 46.6292 19.4876 49.6005 19.4876V18.6569C46.1703 18.6569 43.3737 21.4536 43.3737 24.8837H44.2044ZM54.9791 24.8664C54.6795 32.0247 44.5037 32.0247 44.2041 24.8664L43.374 24.9011C43.7181 33.1208 55.4651 33.1208 55.8092 24.9011L54.9791 24.8664ZM49.6005 19.4876C52.5703 19.4876 54.9788 21.9107 54.9788 24.8837H55.8095C55.8095 21.4552 53.0324 18.6569 49.6005 18.6569V19.4876ZM45.5195 24.8837C45.5195 27.1172 47.3518 28.947 49.6005 28.947V28.1162C47.808 28.1162 46.3502 26.6557 46.3502 24.8837H45.5195ZM53.6634 24.8669C53.4451 19.4896 45.7381 19.4896 45.5198 24.8669L46.3499 24.9006C46.525 20.5861 52.6582 20.5861 52.8333 24.9006L53.6634 24.8669ZM49.6005 28.947C51.8519 28.947 53.6637 27.1146 53.6637 24.8837H52.833C52.833 26.6584 51.3904 28.1162 49.6005 28.1162V28.947ZM42.8312 56.2334C42.5694 53.9334 41.1687 48.6146 34.0654 45.2827L33.7126 46.0348C40.4854 49.2118 41.7669 54.2285 42.0058 56.3274L42.8312 56.2334ZM47.6261 61.982C47.607 58.9367 45.4048 56.389 42.4912 55.8714L42.3459 56.6894C44.8682 57.1374 46.7788 59.3461 46.7954 61.9872L47.6261 61.982ZM35.1906 62.0019C35.5351 70.2507 47.2822 70.2105 47.6258 62.0019L46.7957 61.9672C46.4956 69.1367 36.3199 69.1323 36.0207 61.9672L35.1906 62.0019ZM40.1907 55.891C37.3375 56.4655 35.1903 58.9743 35.1903 61.9846H36.021C36.021 59.3801 37.8793 57.2039 40.3547 56.7055L40.1907 55.891ZM32.8185 47.966C38.4579 50.6117 39.6254 54.6202 39.8611 56.3542L40.6843 56.2423C40.4193 54.2927 39.1192 50.0043 33.1714 47.2139L32.8185 47.966ZM24.5442 36.564C25.1102 38.9375 26.1682 41.346 27.5847 43.3794C28.9994 45.4101 30.7892 47.0912 32.8305 47.9714L33.1594 47.2085C31.3026 46.4079 29.6234 44.8524 28.2664 42.9045C26.9113 40.9593 25.895 38.6471 25.3524 36.3713L24.5442 36.564ZM23.2431 39.944L25.2995 36.6896L24.5971 36.2458L22.5408 39.5002L23.2431 39.944ZM21.98 40.6382C22.4802 40.6382 22.948 40.3868 23.2376 39.9525L22.5463 39.4917C22.4067 39.7011 22.195 39.8074 21.98 39.8074V40.6382ZM20.7183 38.3535C20.0949 39.3261 20.8285 40.6633 21.989 40.6381L21.971 39.8075C21.4864 39.8181 21.1471 39.224 21.4177 38.8019L20.7183 38.3535ZM21.8475 36.5589C21.5363 37.0545 21.2553 37.5022 21.0512 37.8268C20.9491 37.9891 20.8665 38.1204 20.8089 38.2115C20.7801 38.2571 20.7579 38.2921 20.7428 38.3158C20.7352 38.3278 20.7299 38.3361 20.7266 38.3411C20.7248 38.3438 20.7245 38.3443 20.725 38.3435C20.7252 38.3433 20.7268 38.3409 20.7293 38.3373C20.7304 38.3358 20.7333 38.3317 20.7372 38.3266C20.7391 38.324 20.7426 38.3195 20.747 38.3141C20.7503 38.3101 20.7602 38.2981 20.7743 38.284L21.3617 38.8714C21.3759 38.8573 21.3859 38.8451 21.3892 38.8411C21.3938 38.8356 21.3973 38.8309 21.3994 38.8282C21.4035 38.8228 21.4066 38.8184 21.4081 38.8163C21.4113 38.8118 21.4139 38.8079 21.4152 38.806C21.418 38.8017 21.421 38.7972 21.4234 38.7935C21.4286 38.7855 21.4353 38.775 21.4433 38.7625C21.4594 38.7373 21.4824 38.701 21.5113 38.6551C21.5693 38.5633 21.6524 38.4314 21.7545 38.269C21.9588 37.9441 22.24 37.4961 22.5511 37.0006L21.8475 36.5589ZM21.8478 36.5584L21.8474 36.559L22.5512 37.0005L22.5516 36.9998L21.8478 36.5584ZM21.8485 36.5572L21.848 36.558L22.5513 37.0002L22.5518 36.9994L21.8485 36.5572ZM24.5728 32.6012C24.5116 32.6057 24.417 32.6315 24.3835 32.6468C24.3631 32.658 24.3305 32.6791 24.318 32.6884C24.2944 32.7067 24.2781 32.7235 24.2721 32.7298C24.2583 32.7443 24.2484 32.7568 24.2454 32.7605C24.2376 32.7704 24.2314 32.7792 24.2288 32.7829C24.2224 32.7919 24.2156 32.8019 24.2098 32.8108C24.1973 32.8294 24.1805 32.8552 24.1604 32.8864C24.1198 32.9494 24.0619 33.0402 23.9901 33.1533C23.8464 33.3797 23.6455 33.6981 23.4133 34.0669C22.9488 34.8045 22.3582 35.7452 21.8484 36.5575L22.552 36.9992C23.0619 36.1868 23.6522 35.2466 24.1163 34.5096C24.3484 34.1409 24.5487 33.8236 24.6915 33.5985C24.763 33.4858 24.8197 33.397 24.8586 33.3367C24.8782 33.3063 24.8923 33.2846 24.9013 33.2712C24.9061 33.2639 24.9076 33.2618 24.907 33.2626C24.9067 33.2631 24.9058 33.2643 24.9045 33.2661C24.9034 33.2676 24.9008 33.2711 24.8972 33.2757C24.895 33.2785 24.8858 33.2902 24.8724 33.3041C24.8667 33.3101 24.8506 33.3267 24.8272 33.3449C24.8147 33.3542 24.7823 33.3753 24.7619 33.3864C24.7285 33.4017 24.634 33.4274 24.5728 33.432V32.6012ZM25.1708 32.1443C24.7833 32.2218 24.445 32.4714 24.2313 32.7801L24.9143 33.253C25.0225 33.0968 25.1848 32.9888 25.3338 32.959L25.1708 32.1443ZM26.2747 32.3409C25.952 32.1424 25.5411 32.0703 25.1708 32.1443L25.3337 32.959C25.5 32.9257 25.6969 32.9609 25.8393 33.0485L26.2747 32.3409ZM31.8214 35.83L26.2781 32.3431L25.8358 33.0463L31.379 36.5332L31.8214 35.83ZM30.2452 38.3635C31.9318 39.3556 33.4484 36.939 31.8342 35.8384L31.3662 36.5248C32.1123 37.0335 31.4117 38.0859 30.6664 37.6475L30.2452 38.3635ZM26.784 36.1938L30.2352 38.3574L30.6764 37.6536L27.2253 35.4899L26.784 36.1938ZM34.066 45.283C29.9572 43.3484 28.1364 38.6562 27.4077 35.7411L26.6017 35.9426C27.3392 38.8926 29.2377 43.9279 33.7121 46.0346L34.066 45.283ZM41.3993 65.2349C39.6081 65.2349 38.1489 63.7758 38.1489 61.9846H37.3182C37.3182 64.2346 39.1492 66.0657 41.3993 66.0657V65.2349ZM44.6317 61.9846C44.6317 63.7784 43.1878 65.2349 41.3993 65.2349V66.0657C43.6519 66.0657 45.4625 64.2319 45.4625 61.9846H44.6317ZM38.1486 62.0014C38.3237 57.6869 44.4569 57.6869 44.632 62.0014L45.4621 61.9677C45.2439 56.5905 37.5368 56.5905 37.3185 61.9677L38.1486 62.0014ZM27.9191 49.6396C28.1911 49.3789 28.6122 49.3877 28.8579 49.6334L29.4453 49.046C28.8685 48.4691 27.9306 48.4779 27.3443 49.0398L27.9191 49.6396ZM24.7425 52.8163L27.9254 49.6334L27.338 49.046L24.1551 52.2289L24.7425 52.8163ZM20.9722 49.6334L24.1551 52.8163L24.7425 52.2289L21.5596 49.046L20.9722 49.6334ZM20.0334 49.6396C20.3054 49.3789 20.7265 49.3877 20.9722 49.6334L21.5596 49.046C20.9827 48.4691 20.0449 48.4779 19.4585 49.0398L20.0334 49.6396ZM20.0459 50.5722C19.7852 50.3002 19.794 49.8791 20.0397 49.6334L19.4522 49.046C18.8754 49.6228 18.8842 50.5607 19.4461 51.147L20.0459 50.5722ZM23.2226 53.7488L20.0397 50.5659L19.4522 51.1534L22.6351 54.3363L23.2226 53.7488ZM20.0397 57.5192L23.2226 54.3363L22.6351 53.7488L19.4522 56.9317L20.0397 57.5192ZM20.0459 58.458C19.7852 58.186 19.794 57.7648 20.0397 57.5192L19.4522 56.9317C18.8754 57.5086 18.8842 58.4464 19.4461 59.0328L20.0459 58.458ZM20.9785 58.4455C20.7065 58.7061 20.2854 58.6973 20.0397 58.4516L19.4522 59.0391C20.0291 59.6159 20.967 59.6071 21.5533 59.0453L20.9785 58.4455ZM24.1551 55.2687L20.9722 58.4516L21.5596 59.0391L24.7425 55.8562L24.1551 55.2687ZM27.9254 58.4516L24.7425 55.2687L24.1551 55.8562L27.338 59.0391L27.9254 58.4516ZM28.8642 58.4455C28.5922 58.7061 28.1711 58.6973 27.9254 58.4516L27.338 59.0391C27.9148 59.6159 28.8527 59.6071 29.439 59.0453L28.8642 58.4455ZM28.8517 57.5128C29.1124 57.7848 29.1036 58.2059 28.8579 58.4516L29.4453 59.0391C30.0222 58.4622 30.0134 57.5243 29.4515 56.938L28.8517 57.5128ZM25.675 54.3363L28.8579 57.5192L29.4453 56.9317L26.2624 53.7488L25.675 54.3363ZM28.8579 50.5659L25.675 53.7488L26.2624 54.3363L29.4453 51.1534L28.8579 50.5659ZM28.8642 49.6396C29.1192 49.884 29.1284 50.2954 28.8579 50.5659L29.4453 51.1534C30.0332 50.5655 30.0424 49.618 29.439 49.0398L28.8642 49.6396ZM50.0781 35.8917C49.5013 35.3148 48.5634 35.3236 47.9771 35.8855L48.5519 36.4853C48.8239 36.2247 49.245 36.2334 49.4907 36.4791L50.0781 35.8917ZM50.0843 37.9927C50.6496 37.4029 50.6496 36.4878 50.0843 35.898L49.4845 36.4728C49.7418 36.7413 49.7418 37.1494 49.4845 37.4179L50.0843 37.9927ZM46.8952 41.182L50.0781 37.9991L49.4907 37.4116L46.3078 40.5945L46.8952 41.182ZM50.0781 43.7774L46.8952 40.5945L46.3078 41.182L49.4907 44.3649L50.0781 43.7774ZM50.0781 45.8848C50.655 45.3079 50.6462 44.3701 50.0843 43.7837L49.4845 44.3585C49.7452 44.6305 49.7364 45.0517 49.4907 45.2973L50.0781 45.8848ZM47.9708 45.8848C48.5476 46.4616 49.4855 46.4529 50.0718 45.891L49.497 45.2912C49.225 45.5518 48.8039 45.543 48.5582 45.2973L47.9708 45.8848ZM44.7879 42.7019L47.9708 45.8848L48.5582 45.2973L45.3753 42.1144L44.7879 42.7019ZM42.1924 45.8848L45.3753 42.7019L44.7879 42.1144L41.605 45.2973L42.1924 45.8848ZM40.085 45.8848C40.6619 46.4616 41.5998 46.4529 42.1861 45.891L41.6113 45.2912C41.3393 45.5518 40.9182 45.543 40.6725 45.2973L40.085 45.8848ZM40.085 43.7774C39.5082 44.3543 39.517 45.2922 40.0789 45.8785L40.6787 45.3037C40.418 45.0317 40.4268 44.6106 40.6725 44.3649L40.085 43.7774ZM43.268 40.5945L40.085 43.7774L40.6725 44.3649L43.8554 41.182L43.268 40.5945ZM40.085 37.9991L43.268 41.182L43.8554 40.5945L40.6725 37.4116L40.085 37.9991ZM40.085 35.8917C39.5082 36.4685 39.517 37.4064 40.0789 37.9927L40.6787 37.4179C40.418 37.1459 40.4268 36.7248 40.6725 36.4791L40.085 35.8917ZM42.1924 35.8917C41.6156 35.3148 40.6777 35.3236 40.0914 35.8855L40.6662 36.4853C40.9382 36.2247 41.3593 36.2334 41.605 36.4791L42.1924 35.8917ZM45.3753 39.0746L42.1924 35.8917L41.605 36.4791L44.7879 39.662L45.3753 39.0746ZM47.9708 35.8917L44.7879 39.0746L45.3753 39.662L48.5582 36.4791L47.9708 35.8917Z" fill="white" mask="url(#path-1-inside-1_1760_48848)"/>
<mask id="path-3-inside-2_1760_48848" fill="white">
<path fill-rule="evenodd" clip-rule="evenodd" d="M30.5738 21.1418C30.5738 24.3247 27.9631 26.9354 24.7624 26.9354C21.5794 26.9354 18.9688 24.3247 18.9688 21.1418C19.2906 13.4527 30.252 13.4527 30.5738 21.1418ZM28.4281 21.1418C28.4281 19.1212 26.783 17.4761 24.7624 17.4761C22.7596 17.4761 21.1145 19.1033 21.1145 21.1418C21.3112 25.9877 28.2314 25.9877 28.4281 21.1418ZM43.7812 24.8779C43.7812 21.6771 46.3919 19.0664 49.5927 19.0664C52.7935 19.0664 55.3863 21.6771 55.3863 24.8779C55.0645 32.5669 44.1031 32.5669 43.7812 24.8779ZM45.927 24.8779C45.927 26.8806 47.5721 28.5257 49.5927 28.5257C51.6133 28.5257 53.2406 26.8806 53.2406 24.8779C53.0439 20.032 46.1237 20.032 45.927 24.8779ZM42.4185 56.2804C42.1682 54.081 40.8271 48.9132 33.889 45.6588C29.5975 43.6382 27.7378 38.7744 27.0047 35.8418L30.4558 38.0055C31.6717 38.7208 32.7804 36.9863 31.6002 36.1816L26.057 32.6947C25.8245 32.5517 25.5205 32.498 25.2523 32.5517C24.9841 32.6053 24.7337 32.7841 24.5728 33.0166C24.5617 33.0166 23.2195 35.1546 22.1995 36.7794L22.1994 36.7796L22.1988 36.7805C21.5768 37.7713 21.0748 38.5709 21.068 38.5777C20.621 39.2751 21.1574 40.2407 21.98 40.2228C22.3376 40.2228 22.6774 40.044 22.8919 39.7221L24.9483 36.4677C26.057 41.1169 29.0968 45.9091 32.995 47.59C38.7886 50.308 40.0224 54.4565 40.2727 56.2983C37.6084 56.8347 35.6057 59.1772 35.6057 61.9846C35.9275 69.6915 46.8889 69.6736 47.2107 61.9846C47.1929 59.1414 45.1365 56.7632 42.4185 56.2804ZM41.3993 65.6503C39.3787 65.6503 37.7336 64.0052 37.7336 61.9846C37.9303 57.1387 44.8504 57.1387 45.0471 61.9846C45.0471 64.0052 43.4199 65.6503 41.3993 65.6503ZM48.2567 36.1795C48.6858 35.7683 49.3653 35.7683 49.7766 36.1795C50.1879 36.6087 50.1879 37.2703 49.7766 37.6995L46.5937 40.8824L49.7766 44.0653C50.1879 44.4944 50.1879 45.1739 49.7766 45.5852C49.3475 45.9965 48.668 45.9965 48.2567 45.5852L45.0738 42.4023L41.8909 45.5852C41.4617 45.9965 40.7822 45.9965 40.371 45.5852C39.9597 45.1561 39.9597 44.4766 40.371 44.0653L43.5539 40.8824L40.371 37.6995C39.9597 37.2703 39.9597 36.5908 40.371 36.1795C40.8001 35.7683 41.4796 35.7683 41.8909 36.1795L45.0738 39.3624L48.2567 36.1795Z"/>
</mask>
<path fill-rule="evenodd" clip-rule="evenodd" d="M30.5738 21.1418C30.5738 24.3247 27.9631 26.9354 24.7624 26.9354C21.5794 26.9354 18.9688 24.3247 18.9688 21.1418C19.2906 13.4527 30.252 13.4527 30.5738 21.1418ZM28.4281 21.1418C28.4281 19.1212 26.783 17.4761 24.7624 17.4761C22.7596 17.4761 21.1145 19.1033 21.1145 21.1418C21.3112 25.9877 28.2314 25.9877 28.4281 21.1418ZM43.7812 24.8779C43.7812 21.6771 46.3919 19.0664 49.5927 19.0664C52.7935 19.0664 55.3863 21.6771 55.3863 24.8779C55.0645 32.5669 44.1031 32.5669 43.7812 24.8779ZM45.927 24.8779C45.927 26.8806 47.5721 28.5257 49.5927 28.5257C51.6133 28.5257 53.2406 26.8806 53.2406 24.8779C53.0439 20.032 46.1237 20.032 45.927 24.8779ZM42.4185 56.2804C42.1682 54.081 40.8271 48.9132 33.889 45.6588C29.5975 43.6382 27.7378 38.7744 27.0047 35.8418L30.4558 38.0055C31.6717 38.7208 32.7804 36.9863 31.6002 36.1816L26.057 32.6947C25.8245 32.5517 25.5205 32.498 25.2523 32.5517C24.9841 32.6053 24.7337 32.7841 24.5728 33.0166C24.5617 33.0166 23.2195 35.1546 22.1995 36.7794L22.1994 36.7796L22.1988 36.7805C21.5768 37.7713 21.0748 38.5709 21.068 38.5777C20.621 39.2751 21.1574 40.2407 21.98 40.2228C22.3376 40.2228 22.6774 40.044 22.8919 39.7221L24.9483 36.4677C26.057 41.1169 29.0968 45.9091 32.995 47.59C38.7886 50.308 40.0224 54.4565 40.2727 56.2983C37.6084 56.8347 35.6057 59.1772 35.6057 61.9846C35.9275 69.6915 46.8889 69.6736 47.2107 61.9846C47.1929 59.1414 45.1365 56.7632 42.4185 56.2804ZM41.3993 65.6503C39.3787 65.6503 37.7336 64.0052 37.7336 61.9846C37.9303 57.1387 44.8504 57.1387 45.0471 61.9846C45.0471 64.0052 43.4199 65.6503 41.3993 65.6503ZM48.2567 36.1795C48.6858 35.7683 49.3653 35.7683 49.7766 36.1795C50.1879 36.6087 50.1879 37.2703 49.7766 37.6995L46.5937 40.8824L49.7766 44.0653C50.1879 44.4944 50.1879 45.1739 49.7766 45.5852C49.3475 45.9965 48.668 45.9965 48.2567 45.5852L45.0738 42.4023L41.8909 45.5852C41.4617 45.9965 40.7822 45.9965 40.371 45.5852C39.9597 45.1561 39.9597 44.4766 40.371 44.0653L43.5539 40.8824L40.371 37.6995C39.9597 37.2703 39.9597 36.5908 40.371 36.1795C40.8001 35.7683 41.4796 35.7683 41.8909 36.1795L45.0738 39.3624L48.2567 36.1795Z" fill="#E6B400"/>
<path d="M30.5738 21.1418H30.9892V21.1331L30.9889 21.1244L30.5738 21.1418ZM18.9688 21.1418L18.5537 21.1244L18.5534 21.1331V21.1418H18.9688ZM28.4281 21.1418L28.8431 21.1586L28.8434 21.1502V21.1418H28.4281ZM21.1145 21.1418H20.6991V21.1502L20.6995 21.1586L21.1145 21.1418ZM43.7812 24.8779H43.3659V24.8866L43.3662 24.8953L43.7812 24.8779ZM55.3863 24.8779L55.8013 24.8953L55.8017 24.8866V24.8779H55.3863ZM45.927 24.8779L45.512 24.861L45.5116 24.8695V24.8779H45.927ZM53.2406 24.8779H53.6559V24.8695L53.6556 24.861L53.2406 24.8779ZM33.889 45.6588L33.7121 46.0346L33.7126 46.0348L33.889 45.6588ZM42.4185 56.2804L42.0058 56.3274L42.0408 56.6352L42.3459 56.6894L42.4185 56.2804ZM27.0047 35.8418L27.2253 35.4899L26.3516 34.9421L26.6017 35.9426L27.0047 35.8418ZM30.4558 38.0055L30.2351 38.3576L30.2452 38.3635L30.4558 38.0055ZM31.6002 36.1816L31.8342 35.8384L31.8279 35.8341L31.8214 35.83L31.6002 36.1816ZM26.057 32.6947L26.2781 32.3431L26.2747 32.3409L26.057 32.6947ZM24.5728 33.0166V33.432H24.7904L24.9143 33.253L24.5728 33.0166ZM22.1995 36.7794L22.5512 37.0004L22.5513 37.0002L22.1995 36.7794ZM22.1994 36.7796L21.8477 36.5585L21.8476 36.5586L22.1994 36.7796ZM22.1988 36.7805L21.847 36.5596L21.847 36.5597L22.1988 36.7805ZM21.068 38.5777L20.7743 38.284L20.7426 38.3157L20.7183 38.3535L21.068 38.5777ZM21.98 40.2228V39.8073L21.971 39.8075L21.98 40.2228ZM22.8919 39.7221L23.2377 39.9526L23.2431 39.944L22.8919 39.7221ZM24.9483 36.4677L25.3524 36.3713L25.1237 35.4125L24.5971 36.2458L24.9483 36.4677ZM32.995 47.59L33.1715 47.2137L33.1594 47.2085L32.995 47.59ZM40.2727 56.2983L40.3547 56.7055L40.7368 56.6285L40.6843 56.2423L40.2727 56.2983ZM35.6057 61.9846H35.1903V61.9932L35.1906 62.0019L35.6057 61.9846ZM47.2107 61.9846L47.6258 62.0019L47.6262 61.992L47.6261 61.982L47.2107 61.9846ZM37.7336 61.9846L37.3185 61.9677L37.3182 61.9761V61.9846H37.7336ZM45.0471 61.9846H45.4625V61.9761L45.4621 61.9677L45.0471 61.9846ZM49.7766 36.1795L50.0766 35.8921L50.0703 35.8858L49.7766 36.1795ZM48.2567 36.1795L47.9692 35.8796L47.963 35.8858L48.2567 36.1795ZM49.7766 37.6995L50.0704 37.9933L50.0765 37.9869L49.7766 37.6995ZM46.5937 40.8824L46.3 40.5887L46.0063 40.8824L46.3 41.1761L46.5937 40.8824ZM49.7766 44.0653L50.0766 43.7778L50.0703 43.7716L49.7766 44.0653ZM49.7766 45.5852L50.0641 45.8852L50.0703 45.8789L49.7766 45.5852ZM48.2567 45.5852L47.963 45.8789L48.2567 45.5852ZM45.0738 42.4023L45.3675 42.1086L45.0738 41.8149L44.7801 42.1086L45.0738 42.4023ZM41.8909 45.5852L42.1784 45.8852L42.1846 45.8789L41.8909 45.5852ZM40.371 45.5852L40.071 45.8727L40.0772 45.8789L40.371 45.5852ZM40.371 44.0653L40.0772 43.7716L40.371 44.0653ZM43.5539 40.8824L43.8476 41.1761L44.1413 40.8824L43.8476 40.5887L43.5539 40.8824ZM40.371 37.6995L40.071 37.9869L40.0772 37.9932L40.371 37.6995ZM40.371 36.1795L40.0835 35.8796L40.0772 35.8858L40.371 36.1795ZM41.8909 36.1795L41.5972 36.4733L41.5972 36.4733L41.8909 36.1795ZM45.0738 39.3624L44.7801 39.6562L45.0738 39.9499L45.3675 39.6562L45.0738 39.3624ZM24.7624 27.3508C28.1917 27.3508 30.9892 24.5549 30.9892 21.1418H30.1584C30.1584 24.0944 27.7346 26.52 24.7624 26.52V27.3508ZM18.5534 21.1418C18.5534 24.5541 21.35 27.3508 24.7624 27.3508V26.52C21.8089 26.52 19.3841 24.0953 19.3841 21.1418H18.5534ZM30.9889 21.1244C30.6448 12.9047 18.8978 12.9047 18.5537 21.1244L19.3838 21.1592C19.6834 14.0008 29.8592 14.0008 30.1588 21.1592L30.9889 21.1244ZM24.7624 17.8915C26.5535 17.8915 28.0127 19.3506 28.0127 21.1418H28.8434C28.8434 18.8918 27.0124 17.0607 24.7624 17.0607V17.8915ZM21.5299 21.1418C21.5299 19.3327 22.989 17.8915 24.7624 17.8915V17.0607C22.5302 17.0607 20.6991 18.8739 20.6991 21.1418H21.5299ZM28.013 21.1249C27.8379 25.4394 21.7047 25.4394 21.5296 21.1249L20.6995 21.1586C20.9177 26.5359 28.6248 26.5359 28.8431 21.1586L28.013 21.1249ZM49.5927 18.651C46.1625 18.651 43.3659 21.4477 43.3659 24.8779H44.1966C44.1966 21.9065 46.6214 19.4818 49.5927 19.4818V18.651ZM55.8017 24.8779C55.8017 21.4494 53.0246 18.651 49.5927 18.651V19.4818C52.5624 19.4818 54.9709 21.9048 54.9709 24.8779H55.8017ZM43.3662 24.8953C43.7103 33.115 55.4573 33.115 55.8013 24.8953L54.9713 24.8605C54.6717 32.0189 44.4959 32.0189 44.1963 24.8605L43.3662 24.8953ZM49.5927 28.1103C47.8002 28.1103 46.3424 26.6499 46.3424 24.8779H45.5116C45.5116 27.1113 47.344 28.9411 49.5927 28.9411V28.1103ZM52.8252 24.8779C52.8252 26.6525 51.3826 28.1103 49.5927 28.1103V28.9411C51.8441 28.9411 53.6559 27.1087 53.6559 24.8779H52.8252ZM46.3421 24.8947C46.5172 20.5802 52.6504 20.5802 52.8255 24.8947L53.6556 24.861C53.4373 19.4838 45.7302 19.4838 45.512 24.861L46.3421 24.8947ZM33.7126 46.0348C40.4854 49.2118 41.7669 54.2285 42.0058 56.3274L42.8312 56.2334C42.5694 53.9334 41.1687 48.6146 34.0654 45.2827L33.7126 46.0348ZM26.6017 35.9426C27.3392 38.8926 29.2377 43.9279 33.7121 46.0346L34.066 45.283C29.9572 43.3484 28.1364 38.6562 27.4077 35.7411L26.6017 35.9426ZM30.6764 37.6536L27.2253 35.4899L26.784 36.1938L30.2352 38.3574L30.6764 37.6536ZM31.3662 36.5248C32.1123 37.0335 31.4117 38.0859 30.6664 37.6475L30.2452 38.3635C31.9318 39.3556 33.4484 36.939 31.8342 35.8384L31.3662 36.5248ZM25.8358 33.0463L31.379 36.5332L31.8214 35.83L26.2781 32.3431L25.8358 33.0463ZM25.3338 32.959C25.5 32.9257 25.6969 32.9609 25.8393 33.0485L26.2747 32.3409C25.952 32.1424 25.5411 32.0703 25.1708 32.1443L25.3338 32.959ZM24.9143 33.253C25.0225 33.0968 25.1848 32.9888 25.3338 32.959L25.1708 32.1443C24.7833 32.2218 24.445 32.4714 24.2313 32.7801L24.9143 33.253ZM22.5513 37.0002C23.0613 36.1878 23.6517 35.2473 24.116 34.51C24.3481 34.1413 24.5485 33.8238 24.6914 33.5986C24.763 33.4859 24.8196 33.3971 24.8585 33.3368C24.8782 33.3063 24.8923 33.2846 24.9013 33.2712C24.9061 33.2639 24.9076 33.2618 24.907 33.2626C24.9067 33.2631 24.9058 33.2643 24.9045 33.2661C24.9034 33.2676 24.9008 33.2711 24.8972 33.2757C24.895 33.2785 24.8858 33.2901 24.8725 33.3041C24.8667 33.3101 24.8506 33.3267 24.8272 33.3449C24.8148 33.3542 24.7823 33.3752 24.762 33.3864C24.7285 33.4016 24.634 33.4274 24.5728 33.432V32.6012C24.5116 32.6057 24.417 32.6315 24.3835 32.6468C24.3631 32.658 24.3305 32.6791 24.318 32.6885C24.2944 32.7067 24.2781 32.7236 24.2721 32.7298C24.2583 32.7443 24.2484 32.7568 24.2454 32.7605C24.2376 32.7704 24.2314 32.7792 24.2288 32.7829C24.2224 32.7919 24.2156 32.802 24.2098 32.8108C24.1973 32.8294 24.1805 32.8552 24.1604 32.8865C24.1198 32.9494 24.0618 33.0403 23.99 33.1534C23.8463 33.3799 23.6452 33.6985 23.413 34.0674C22.9483 34.8053 22.3576 35.7462 21.8477 36.5585L22.5513 37.0002ZM22.5511 37.0006L22.5512 37.0004L21.8478 36.5583L21.8477 36.5585L22.5511 37.0006ZM22.5506 37.0014L22.5511 37.0005L21.8476 36.5586L21.847 36.5596L22.5506 37.0014ZM21.3617 38.8714C21.3759 38.8573 21.3859 38.8452 21.3892 38.8411C21.3938 38.8356 21.3973 38.831 21.3994 38.8282C21.4035 38.8228 21.4066 38.8184 21.4081 38.8163C21.4113 38.8118 21.4139 38.8079 21.4151 38.806C21.418 38.8017 21.421 38.7972 21.4234 38.7935C21.4286 38.7856 21.4353 38.775 21.4433 38.7625C21.4594 38.7373 21.4823 38.701 21.5113 38.6552C21.5693 38.5634 21.6523 38.4316 21.7543 38.2692C21.9585 37.9445 22.2396 37.4967 22.5506 37.0014L21.847 36.5597C21.5359 37.0551 21.255 37.5026 21.051 37.827C20.949 37.9893 20.8664 38.1205 20.8089 38.2115C20.7801 38.2571 20.7579 38.2922 20.7428 38.3159C20.7352 38.3278 20.7299 38.3361 20.7266 38.3411C20.7248 38.3438 20.7245 38.3443 20.725 38.3435C20.7252 38.3433 20.7268 38.3408 20.7293 38.3373C20.7304 38.3357 20.7333 38.3317 20.7372 38.3266C20.7391 38.324 20.7426 38.3195 20.7471 38.314C20.7503 38.3101 20.7602 38.2981 20.7743 38.284L21.3617 38.8714ZM21.971 39.8075C21.4864 39.8181 21.1471 39.224 21.4177 38.8019L20.7183 38.3535C20.0949 39.3261 20.8285 40.6633 21.989 40.6381L21.971 39.8075ZM22.5463 39.4917C22.4067 39.7011 22.195 39.8074 21.98 39.8074V40.6382C22.4802 40.6382 22.948 40.3868 23.2376 39.9525L22.5463 39.4917ZM24.5971 36.2458L22.5408 39.5002L23.2431 39.944L25.2995 36.6896L24.5971 36.2458ZM33.1594 47.2085C31.3026 46.4079 29.6234 44.8524 28.2664 42.9045C26.9113 40.9593 25.895 38.6471 25.3524 36.3713L24.5442 36.564C25.1102 38.9375 26.1682 41.346 27.5847 43.3794C28.9994 45.4101 30.7892 47.0912 32.8305 47.9714L33.1594 47.2085ZM40.6843 56.2423C40.4193 54.2927 39.1192 50.0043 33.1714 47.2139L32.8185 47.966C38.4579 50.6117 39.6254 54.6202 39.8611 56.3542L40.6843 56.2423ZM36.021 61.9846C36.021 59.3801 37.8793 57.2039 40.3547 56.7055L40.1907 55.891C37.3375 56.4655 35.1903 58.9743 35.1903 61.9846H36.021ZM46.7957 61.9672C46.4956 69.1367 36.3199 69.1323 36.0207 61.9672L35.1906 62.0019C35.5351 70.2507 47.2822 70.2105 47.6258 62.0019L46.7957 61.9672ZM42.3459 56.6894C44.8682 57.1374 46.7788 59.3461 46.7954 61.9872L47.6261 61.982C47.607 58.9367 45.4048 56.389 42.4912 55.8714L42.3459 56.6894ZM37.3182 61.9846C37.3182 64.2346 39.1492 66.0657 41.3993 66.0657V65.2349C39.6081 65.2349 38.1489 63.7758 38.1489 61.9846H37.3182ZM45.4621 61.9677C45.2439 56.5905 37.5368 56.5905 37.3185 61.9677L38.1486 62.0014C38.3237 57.6869 44.4569 57.6869 44.632 62.0014L45.4621 61.9677ZM41.3993 66.0657C43.6519 66.0657 45.4625 64.2319 45.4625 61.9846H44.6317C44.6317 63.7784 43.1878 65.2349 41.3993 65.2349V66.0657ZM50.0703 35.8858C49.4935 35.309 48.5556 35.3178 47.9693 35.8796L48.5441 36.4795C48.8161 36.2188 49.2372 36.2276 49.4829 36.4733L50.0703 35.8858ZM50.0765 37.9869C50.6418 37.3971 50.6418 36.482 50.0765 35.8921L49.4767 36.467C49.734 36.7354 49.734 37.1436 49.4767 37.4121L50.0765 37.9869ZM46.8874 41.1761L50.0703 37.9932L49.4829 37.4058L46.3 40.5887L46.8874 41.1761ZM50.0703 43.7716L46.8874 40.5887L46.3 41.1761L49.4829 44.359L50.0703 43.7716ZM50.0703 45.8789C50.6472 45.3021 50.6384 44.3642 50.0765 43.7779L49.4767 44.3527C49.7374 44.6247 49.7286 45.0458 49.4829 45.2915L50.0703 45.8789ZM47.963 45.8789C48.5398 46.4558 49.4777 46.447 50.064 45.8851L49.4892 45.2853C49.2172 45.546 48.7961 45.5372 48.5504 45.2915L47.963 45.8789ZM44.7801 42.696L47.963 45.8789L48.5504 45.2915L45.3675 42.1086L44.7801 42.696ZM42.1846 45.8789L45.3675 42.696L44.7801 42.1086L41.5972 45.2915L42.1846 45.8789ZM40.0772 45.8789C40.6541 46.4558 41.592 46.447 42.1783 45.8851L41.6035 45.2853C41.3315 45.546 40.9104 45.5372 40.6647 45.2915L40.0772 45.8789ZM40.0772 43.7716C39.5004 44.3484 39.5092 45.2863 40.0711 45.8726L40.6709 45.2978C40.4102 45.0258 40.419 44.6047 40.6647 44.359L40.0772 43.7716ZM43.2601 40.5887L40.0772 43.7716L40.6647 44.359L43.8476 41.1761L43.2601 40.5887ZM40.0772 37.9932L43.2601 41.1761L43.8476 40.5887L40.6647 37.4058L40.0772 37.9932ZM40.0772 35.8858C39.5004 36.4627 39.5092 37.4006 40.0711 37.9869L40.6709 37.4121C40.4102 37.1401 40.419 36.719 40.6647 36.4733L40.0772 35.8858ZM42.1846 35.8858C41.6077 35.309 40.6699 35.3178 40.0835 35.8796L40.6584 36.4795C40.9304 36.2188 41.3515 36.2276 41.5972 36.4733L42.1846 35.8858ZM45.3675 39.0687L42.1846 35.8858L41.5972 36.4733L44.7801 39.6562L45.3675 39.0687ZM47.963 35.8858L44.7801 39.0687L45.3675 39.6562L48.5504 36.4733L47.963 35.8858Z" fill="white" mask="url(#path-3-inside-2_1760_48848)"/>
</svg>
