<svg width="73" height="72" viewBox="0 0 73 72" fill="none" xmlns="http://www.w3.org/2000/svg">
<mask id="path-1-inside-1_1760_48864" fill="white">
<path d="M64.196 59.3892C64.047 57.7164 63.2786 56.1595 62.0414 55.0238C60.8041 53.8881 59.1873 53.2555 57.5078 53.25H49.2578V51.75H54.5078C55.5021 51.7491 56.4554 51.3538 57.1585 50.6507C57.8616 49.9476 58.2569 48.9943 58.2578 48V45C58.2569 44.0057 57.8616 43.0524 57.1585 42.3493C56.4554 41.6462 55.5021 41.2509 54.5078 41.25H49.2578V36.75H54.5078C55.5021 36.7491 56.4554 36.3538 57.1585 35.6507C57.8616 34.9476 58.2569 33.9943 58.2578 33V30C58.2569 29.0057 57.8616 28.0524 57.1585 27.3493C56.4554 26.6462 55.5021 26.2509 54.5078 26.25H49.1819C49.0009 24.6046 48.2204 23.0835 46.9894 21.9768C45.7584 20.8702 44.1631 20.2555 42.5078 20.25H37.2578V15.75H42.5078C43.5021 15.7491 44.4554 15.3538 45.1585 14.6507C45.8616 13.9476 46.2569 12.9943 46.2578 12V9C46.2569 8.00571 45.8616 7.05239 45.1585 6.34931C44.4554 5.64624 43.5021 5.25087 42.5078 5.25H37.7501C37.1539 5.24771 36.5827 5.01058 36.1601 4.59L34.9178 3.3486C34.2131 2.64703 33.2599 2.25219 32.2655 2.25H30.5078C29.5135 2.25087 28.5602 2.64624 27.8571 3.34931C27.1541 4.05239 26.7587 5.00571 26.7578 6V9C26.7578 9.19891 26.8368 9.38968 26.9775 9.53033C27.1181 9.67098 27.3089 9.75 27.5078 9.75C27.7067 9.75 27.8975 9.67098 28.0381 9.53033C28.1788 9.38968 28.2578 9.19891 28.2578 9V6C28.2587 5.40353 28.496 4.83174 28.9178 4.40997C29.3396 3.98821 29.9113 3.75087 30.5078 3.75H32.2655C32.8617 3.75229 33.433 3.98942 33.8555 4.41L35.0978 5.6523C35.8023 6.35365 36.7552 6.74848 37.7492 6.7509H42.5078C43.1043 6.75177 43.6761 6.98911 44.0978 7.41087C44.5196 7.83264 44.7569 8.40443 44.7578 9.0009V12C44.7569 12.5965 44.5196 13.1683 44.0978 13.59C43.6761 14.0118 43.1043 14.2491 42.5078 14.25H30.5078C29.9113 14.2491 29.3396 14.0118 28.9178 13.59C28.496 13.1683 28.2587 12.5965 28.2578 12C28.2578 11.8011 28.1788 11.6103 28.0381 11.4697C27.8975 11.329 27.7067 11.25 27.5078 11.25C27.3089 11.25 27.1181 11.329 26.9775 11.4697C26.8368 11.6103 26.7578 11.8011 26.7578 12C26.7587 12.9943 27.1541 13.9476 27.8571 14.6507C28.5602 15.3538 29.5135 15.7491 30.5078 15.75H35.7578V20.25H30.5078C28.8525 20.2555 27.2572 20.8702 26.0262 21.9768C24.7952 23.0835 24.0147 24.6046 23.8337 26.25H18.5078C17.5135 26.2509 16.5602 26.6462 15.8571 27.3493C15.1541 28.0524 14.7587 29.0057 14.7578 30V33C14.7587 33.9943 15.1541 34.9476 15.8571 35.6507C16.5602 36.3538 17.5135 36.7491 18.5078 36.75H23.7578V47.25H15.5078C13.7183 47.2522 12.0027 47.9641 10.7373 49.2295C9.47191 50.4949 8.76004 52.2105 8.75781 54V59.4C7.91917 59.5618 7.16228 60.0086 6.61549 60.6647C6.06871 61.3209 5.76569 62.1459 5.75781 63C5.75869 63.9943 6.15405 64.9476 6.85713 65.6507C7.5602 66.3538 8.51352 66.7491 9.50781 66.75C10.3616 66.7418 11.1863 66.4386 11.8422 65.8918C12.498 65.3451 12.9446 64.5884 13.1063 63.75H14.7578V66C14.7587 66.9943 15.1541 67.9476 15.8571 68.6507C16.5602 69.3538 17.5135 69.7491 18.5078 69.75H30.5078C31.5021 69.7491 32.4554 69.3538 33.1585 68.6507C33.8616 67.9476 34.2569 66.9943 34.2578 66V63.75H41.8577C41.9679 64.7962 42.3215 65.802 42.8902 66.6869C43.4589 67.5719 44.227 68.3113 45.1328 68.8461C45.2182 68.8998 45.3135 68.9358 45.4131 68.9518C45.5127 68.9679 45.6145 68.9637 45.7124 68.9394C45.8104 68.9152 45.9024 68.8715 45.983 68.8109C46.0637 68.7503 46.1312 68.674 46.1817 68.5867C46.2322 68.4993 46.2645 68.4027 46.2768 68.3026C46.2891 68.2024 46.281 68.1008 46.2531 68.0039C46.2252 67.907 46.178 67.8167 46.1144 67.7384C46.0508 67.6601 45.972 67.5954 45.8828 67.5483C44.7787 66.912 43.9436 65.8959 43.5331 64.6895C43.1226 63.4831 43.1647 62.1685 43.6516 60.9909C44.1385 59.8132 45.0369 58.8527 46.1795 58.2883C47.3221 57.724 48.6309 57.5943 49.862 57.9234C51.0931 58.2525 52.1626 59.0179 52.8712 60.0771C53.5797 61.1363 53.8791 62.417 53.7134 63.6805C53.5477 64.9441 52.9283 66.1043 51.9706 66.9449C51.0129 67.7856 49.7822 68.2495 48.5078 68.25C48.3089 68.25 48.1181 68.329 47.9775 68.4697C47.8368 68.6103 47.7578 68.8011 47.7578 69C47.7578 69.1989 47.8368 69.3897 47.9775 69.5303C48.1181 69.671 48.3089 69.75 48.5078 69.75C50.1631 69.7445 51.7584 69.1298 52.9894 68.0232C54.2204 66.9165 55.0009 65.3954 55.1819 63.75H59.9096C60.0713 64.5884 60.5178 65.3451 61.1736 65.8918C61.8294 66.4386 62.654 66.7418 63.5078 66.75C64.5021 66.7491 65.4554 66.3538 66.1585 65.6507C66.8616 64.9476 67.2569 63.9943 67.2578 63C67.2496 62.1353 66.9389 61.3007 66.3796 60.6412C65.8203 59.9816 65.0478 59.5387 64.196 59.3892ZM56.7578 45V48C56.7569 48.5965 56.5196 49.1683 56.0978 49.59C55.6761 50.0118 55.1043 50.2491 54.5078 50.25H42.5078C41.9113 50.2491 41.3396 50.0118 40.9178 49.59C40.496 49.1683 40.2587 48.5965 40.2578 48V45C40.2587 44.4035 40.496 43.8317 40.9178 43.41C41.3396 42.9882 41.9113 42.7509 42.5078 42.75H54.5078C55.1043 42.7509 55.6761 42.9882 56.0978 43.41C56.5196 43.8317 56.7569 44.4035 56.7578 45ZM56.7578 30V33C56.7569 33.5965 56.5196 34.1683 56.0978 34.59C55.6761 35.0118 55.1043 35.2491 54.5078 35.25H42.5078C41.9113 35.2491 41.3396 35.0118 40.9178 34.59C40.496 34.1683 40.2587 33.5965 40.2578 33V30C40.2587 29.4035 40.496 28.8317 40.9178 28.41C41.3396 27.9882 41.9113 27.7509 42.5078 27.75H54.5078C55.1043 27.7509 55.6761 27.9882 56.0978 28.41C56.5196 28.8317 56.7569 29.4035 56.7578 30ZM9.50781 65.25C9.0628 65.25 8.62779 65.118 8.25778 64.8708C7.88777 64.6236 7.59938 64.2722 7.42908 63.861C7.25879 63.4499 7.21423 62.9975 7.30105 62.561C7.38786 62.1246 7.60215 61.7237 7.91682 61.409C8.23149 61.0943 8.6324 60.8801 9.06886 60.7932C9.50532 60.7064 9.95772 60.751 10.3689 60.9213C10.78 61.0916 11.1314 61.38 11.3786 61.75C11.6259 62.12 11.7578 62.555 11.7578 63C11.7569 63.5965 11.5196 64.1683 11.0978 64.59C10.6761 65.0118 10.1043 65.2491 9.50781 65.25ZM14.7578 60V62.25H13.1078C12.9648 61.548 12.6186 60.9035 12.1121 60.3967C11.6056 59.89 10.9613 59.5433 10.2593 59.4V54C10.2611 52.6084 10.8145 51.2743 11.7984 50.2901C12.7823 49.306 14.1162 48.7521 15.5078 48.75H23.7578V56.25H18.5078C17.5135 56.2509 16.5602 56.6462 15.8571 57.3493C15.1541 58.0524 14.7587 59.0057 14.7578 60ZM32.7578 66C32.7569 66.5965 32.5196 67.1683 32.0978 67.59C31.6761 68.0118 31.1043 68.2491 30.5078 68.25H18.5078C17.9113 68.2491 17.3396 68.0118 16.9178 67.59C16.496 67.1683 16.2587 66.5965 16.2578 66V60C16.2587 59.4035 16.496 58.8317 16.9178 58.41C17.3396 57.9882 17.9113 57.7509 18.5078 57.75H30.5078C31.1043 57.7509 31.6761 57.9882 32.0978 58.41C32.5196 58.8317 32.7569 59.4035 32.7578 60V66ZM41.8337 62.25H34.2578V60C34.2569 59.0057 33.8616 58.0524 33.1585 57.3493C32.4554 56.6462 31.5021 56.2509 30.5078 56.25H25.2578V36.75H30.5078C31.5021 36.7491 32.4554 36.3538 33.1585 35.6507C33.8616 34.9476 34.2569 33.9943 34.2578 33C34.2578 32.8011 34.1788 32.6103 34.0381 32.4697C33.8975 32.329 33.7067 32.25 33.5078 32.25C33.3089 32.25 33.1181 32.329 32.9775 32.4697C32.8368 32.6103 32.7578 32.8011 32.7578 33C32.7569 33.5965 32.5196 34.1683 32.0978 34.59C31.6761 35.0118 31.1043 35.2491 30.5078 35.25H18.5078C17.9113 35.2491 17.3396 35.0118 16.9178 34.59C16.496 34.1683 16.2587 33.5965 16.2578 33V30C16.2587 29.4035 16.496 28.8317 16.9178 28.41C17.3396 27.9882 17.9113 27.7509 18.5078 27.75H30.5078C31.1043 27.7509 31.6761 27.9882 32.0978 28.41C32.5196 28.8317 32.7569 29.4035 32.7578 30C32.7578 30.1989 32.8368 30.3897 32.9775 30.5303C33.1181 30.671 33.3089 30.75 33.5078 30.75C33.7067 30.75 33.8975 30.671 34.0381 30.5303C34.1788 30.3897 34.2578 30.1989 34.2578 30C34.2569 29.0057 33.8616 28.0524 33.1585 27.3493C32.4554 26.6462 31.5021 26.2509 30.5078 26.25H25.3337C25.5119 25.0036 26.1328 23.8629 27.0829 23.0366C28.033 22.2103 29.2487 21.7536 30.5078 21.75H42.5078C43.7669 21.7536 44.9827 22.2103 45.9327 23.0366C46.8828 23.8629 47.5037 25.0036 47.6819 26.25H42.5078C41.5135 26.2509 40.5602 26.6462 39.8571 27.3493C39.1541 28.0524 38.7587 29.0057 38.7578 30V33C38.7587 33.9943 39.1541 34.9476 39.8571 35.6507C40.5602 36.3538 41.5135 36.7491 42.5078 36.75H47.7578V41.25H42.5078C41.5135 41.2509 40.5602 41.6462 39.8571 42.3493C39.1541 43.0524 38.7587 44.0057 38.7578 45V48C38.7587 48.9943 39.1541 49.9476 39.8571 50.6507C40.5602 51.3538 41.5135 51.7491 42.5078 51.75H47.7578V56.3259C46.2452 56.496 44.8352 57.1748 43.7589 58.2511C42.6826 59.3274 42.0038 60.7374 41.8337 62.25ZM59.9096 62.25H55.1819C55.0118 60.7374 54.333 59.3274 53.2567 58.2511C52.1804 57.1748 50.7704 56.496 49.2578 56.3259V54.75H57.5078C58.7947 54.7543 60.035 55.2321 60.9922 56.0922C61.9493 56.9524 62.5565 58.1347 62.6978 59.4138C62.0087 59.5666 61.3786 59.9157 60.8838 60.4191C60.389 60.9224 60.0506 61.5584 59.9096 62.25ZM63.5078 65.25C63.0628 65.25 62.6278 65.118 62.2578 64.8708C61.8878 64.6236 61.5994 64.2722 61.4291 63.861C61.2588 63.4499 61.2142 62.9975 61.301 62.561C61.3879 62.1246 61.6022 61.7237 61.9168 61.409C62.2315 61.0943 62.6324 60.8801 63.0689 60.7932C63.5053 60.7064 63.9577 60.751 64.3689 60.9213C64.78 61.0916 65.1314 61.38 65.3786 61.75C65.6259 62.12 65.7578 62.555 65.7578 63C65.7569 63.5965 65.5196 64.1683 65.0978 64.59C64.6761 65.0118 64.1043 65.2491 63.5078 65.25Z"/>
</mask>
<path d="M64.196 59.3892C64.047 57.7164 63.2786 56.1595 62.0414 55.0238C60.8041 53.8881 59.1873 53.2555 57.5078 53.25H49.2578V51.75H54.5078C55.5021 51.7491 56.4554 51.3538 57.1585 50.6507C57.8616 49.9476 58.2569 48.9943 58.2578 48V45C58.2569 44.0057 57.8616 43.0524 57.1585 42.3493C56.4554 41.6462 55.5021 41.2509 54.5078 41.25H49.2578V36.75H54.5078C55.5021 36.7491 56.4554 36.3538 57.1585 35.6507C57.8616 34.9476 58.2569 33.9943 58.2578 33V30C58.2569 29.0057 57.8616 28.0524 57.1585 27.3493C56.4554 26.6462 55.5021 26.2509 54.5078 26.25H49.1819C49.0009 24.6046 48.2204 23.0835 46.9894 21.9768C45.7584 20.8702 44.1631 20.2555 42.5078 20.25H37.2578V15.75H42.5078C43.5021 15.7491 44.4554 15.3538 45.1585 14.6507C45.8616 13.9476 46.2569 12.9943 46.2578 12V9C46.2569 8.00571 45.8616 7.05239 45.1585 6.34931C44.4554 5.64624 43.5021 5.25087 42.5078 5.25H37.7501C37.1539 5.24771 36.5827 5.01058 36.1601 4.59L34.9178 3.3486C34.2131 2.64703 33.2599 2.25219 32.2655 2.25H30.5078C29.5135 2.25087 28.5602 2.64624 27.8571 3.34931C27.1541 4.05239 26.7587 5.00571 26.7578 6V9C26.7578 9.19891 26.8368 9.38968 26.9775 9.53033C27.1181 9.67098 27.3089 9.75 27.5078 9.75C27.7067 9.75 27.8975 9.67098 28.0381 9.53033C28.1788 9.38968 28.2578 9.19891 28.2578 9V6C28.2587 5.40353 28.496 4.83174 28.9178 4.40997C29.3396 3.98821 29.9113 3.75087 30.5078 3.75H32.2655C32.8617 3.75229 33.433 3.98942 33.8555 4.41L35.0978 5.6523C35.8023 6.35365 36.7552 6.74848 37.7492 6.7509H42.5078C43.1043 6.75177 43.6761 6.98911 44.0978 7.41087C44.5196 7.83264 44.7569 8.40443 44.7578 9.0009V12C44.7569 12.5965 44.5196 13.1683 44.0978 13.59C43.6761 14.0118 43.1043 14.2491 42.5078 14.25H30.5078C29.9113 14.2491 29.3396 14.0118 28.9178 13.59C28.496 13.1683 28.2587 12.5965 28.2578 12C28.2578 11.8011 28.1788 11.6103 28.0381 11.4697C27.8975 11.329 27.7067 11.25 27.5078 11.25C27.3089 11.25 27.1181 11.329 26.9775 11.4697C26.8368 11.6103 26.7578 11.8011 26.7578 12C26.7587 12.9943 27.1541 13.9476 27.8571 14.6507C28.5602 15.3538 29.5135 15.7491 30.5078 15.75H35.7578V20.25H30.5078C28.8525 20.2555 27.2572 20.8702 26.0262 21.9768C24.7952 23.0835 24.0147 24.6046 23.8337 26.25H18.5078C17.5135 26.2509 16.5602 26.6462 15.8571 27.3493C15.1541 28.0524 14.7587 29.0057 14.7578 30V33C14.7587 33.9943 15.1541 34.9476 15.8571 35.6507C16.5602 36.3538 17.5135 36.7491 18.5078 36.75H23.7578V47.25H15.5078C13.7183 47.2522 12.0027 47.9641 10.7373 49.2295C9.47191 50.4949 8.76004 52.2105 8.75781 54V59.4C7.91917 59.5618 7.16228 60.0086 6.61549 60.6647C6.06871 61.3209 5.76569 62.1459 5.75781 63C5.75869 63.9943 6.15405 64.9476 6.85713 65.6507C7.5602 66.3538 8.51352 66.7491 9.50781 66.75C10.3616 66.7418 11.1863 66.4386 11.8422 65.8918C12.498 65.3451 12.9446 64.5884 13.1063 63.75H14.7578V66C14.7587 66.9943 15.1541 67.9476 15.8571 68.6507C16.5602 69.3538 17.5135 69.7491 18.5078 69.75H30.5078C31.5021 69.7491 32.4554 69.3538 33.1585 68.6507C33.8616 67.9476 34.2569 66.9943 34.2578 66V63.75H41.8577C41.9679 64.7962 42.3215 65.802 42.8902 66.6869C43.4589 67.5719 44.227 68.3113 45.1328 68.8461C45.2182 68.8998 45.3135 68.9358 45.4131 68.9518C45.5127 68.9679 45.6145 68.9637 45.7124 68.9394C45.8104 68.9152 45.9024 68.8715 45.983 68.8109C46.0637 68.7503 46.1312 68.674 46.1817 68.5867C46.2322 68.4993 46.2645 68.4027 46.2768 68.3026C46.2891 68.2024 46.281 68.1008 46.2531 68.0039C46.2252 67.907 46.178 67.8167 46.1144 67.7384C46.0508 67.6601 45.972 67.5954 45.8828 67.5483C44.7787 66.912 43.9436 65.8959 43.5331 64.6895C43.1226 63.4831 43.1647 62.1685 43.6516 60.9909C44.1385 59.8132 45.0369 58.8527 46.1795 58.2883C47.3221 57.724 48.6309 57.5943 49.862 57.9234C51.0931 58.2525 52.1626 59.0179 52.8712 60.0771C53.5797 61.1363 53.8791 62.417 53.7134 63.6805C53.5477 64.9441 52.9283 66.1043 51.9706 66.9449C51.0129 67.7856 49.7822 68.2495 48.5078 68.25C48.3089 68.25 48.1181 68.329 47.9775 68.4697C47.8368 68.6103 47.7578 68.8011 47.7578 69C47.7578 69.1989 47.8368 69.3897 47.9775 69.5303C48.1181 69.671 48.3089 69.75 48.5078 69.75C50.1631 69.7445 51.7584 69.1298 52.9894 68.0232C54.2204 66.9165 55.0009 65.3954 55.1819 63.75H59.9096C60.0713 64.5884 60.5178 65.3451 61.1736 65.8918C61.8294 66.4386 62.654 66.7418 63.5078 66.75C64.5021 66.7491 65.4554 66.3538 66.1585 65.6507C66.8616 64.9476 67.2569 63.9943 67.2578 63C67.2496 62.1353 66.9389 61.3007 66.3796 60.6412C65.8203 59.9816 65.0478 59.5387 64.196 59.3892ZM56.7578 45V48C56.7569 48.5965 56.5196 49.1683 56.0978 49.59C55.6761 50.0118 55.1043 50.2491 54.5078 50.25H42.5078C41.9113 50.2491 41.3396 50.0118 40.9178 49.59C40.496 49.1683 40.2587 48.5965 40.2578 48V45C40.2587 44.4035 40.496 43.8317 40.9178 43.41C41.3396 42.9882 41.9113 42.7509 42.5078 42.75H54.5078C55.1043 42.7509 55.6761 42.9882 56.0978 43.41C56.5196 43.8317 56.7569 44.4035 56.7578 45ZM56.7578 30V33C56.7569 33.5965 56.5196 34.1683 56.0978 34.59C55.6761 35.0118 55.1043 35.2491 54.5078 35.25H42.5078C41.9113 35.2491 41.3396 35.0118 40.9178 34.59C40.496 34.1683 40.2587 33.5965 40.2578 33V30C40.2587 29.4035 40.496 28.8317 40.9178 28.41C41.3396 27.9882 41.9113 27.7509 42.5078 27.75H54.5078C55.1043 27.7509 55.6761 27.9882 56.0978 28.41C56.5196 28.8317 56.7569 29.4035 56.7578 30ZM9.50781 65.25C9.0628 65.25 8.62779 65.118 8.25778 64.8708C7.88777 64.6236 7.59938 64.2722 7.42908 63.861C7.25879 63.4499 7.21423 62.9975 7.30105 62.561C7.38786 62.1246 7.60215 61.7237 7.91682 61.409C8.23149 61.0943 8.6324 60.8801 9.06886 60.7932C9.50532 60.7064 9.95772 60.751 10.3689 60.9213C10.78 61.0916 11.1314 61.38 11.3786 61.75C11.6259 62.12 11.7578 62.555 11.7578 63C11.7569 63.5965 11.5196 64.1683 11.0978 64.59C10.6761 65.0118 10.1043 65.2491 9.50781 65.25ZM14.7578 60V62.25H13.1078C12.9648 61.548 12.6186 60.9035 12.1121 60.3967C11.6056 59.89 10.9613 59.5433 10.2593 59.4V54C10.2611 52.6084 10.8145 51.2743 11.7984 50.2901C12.7823 49.306 14.1162 48.7521 15.5078 48.75H23.7578V56.25H18.5078C17.5135 56.2509 16.5602 56.6462 15.8571 57.3493C15.1541 58.0524 14.7587 59.0057 14.7578 60ZM32.7578 66C32.7569 66.5965 32.5196 67.1683 32.0978 67.59C31.6761 68.0118 31.1043 68.2491 30.5078 68.25H18.5078C17.9113 68.2491 17.3396 68.0118 16.9178 67.59C16.496 67.1683 16.2587 66.5965 16.2578 66V60C16.2587 59.4035 16.496 58.8317 16.9178 58.41C17.3396 57.9882 17.9113 57.7509 18.5078 57.75H30.5078C31.1043 57.7509 31.6761 57.9882 32.0978 58.41C32.5196 58.8317 32.7569 59.4035 32.7578 60V66ZM41.8337 62.25H34.2578V60C34.2569 59.0057 33.8616 58.0524 33.1585 57.3493C32.4554 56.6462 31.5021 56.2509 30.5078 56.25H25.2578V36.75H30.5078C31.5021 36.7491 32.4554 36.3538 33.1585 35.6507C33.8616 34.9476 34.2569 33.9943 34.2578 33C34.2578 32.8011 34.1788 32.6103 34.0381 32.4697C33.8975 32.329 33.7067 32.25 33.5078 32.25C33.3089 32.25 33.1181 32.329 32.9775 32.4697C32.8368 32.6103 32.7578 32.8011 32.7578 33C32.7569 33.5965 32.5196 34.1683 32.0978 34.59C31.6761 35.0118 31.1043 35.2491 30.5078 35.25H18.5078C17.9113 35.2491 17.3396 35.0118 16.9178 34.59C16.496 34.1683 16.2587 33.5965 16.2578 33V30C16.2587 29.4035 16.496 28.8317 16.9178 28.41C17.3396 27.9882 17.9113 27.7509 18.5078 27.75H30.5078C31.1043 27.7509 31.6761 27.9882 32.0978 28.41C32.5196 28.8317 32.7569 29.4035 32.7578 30C32.7578 30.1989 32.8368 30.3897 32.9775 30.5303C33.1181 30.671 33.3089 30.75 33.5078 30.75C33.7067 30.75 33.8975 30.671 34.0381 30.5303C34.1788 30.3897 34.2578 30.1989 34.2578 30C34.2569 29.0057 33.8616 28.0524 33.1585 27.3493C32.4554 26.6462 31.5021 26.2509 30.5078 26.25H25.3337C25.5119 25.0036 26.1328 23.8629 27.0829 23.0366C28.033 22.2103 29.2487 21.7536 30.5078 21.75H42.5078C43.7669 21.7536 44.9827 22.2103 45.9327 23.0366C46.8828 23.8629 47.5037 25.0036 47.6819 26.25H42.5078C41.5135 26.2509 40.5602 26.6462 39.8571 27.3493C39.1541 28.0524 38.7587 29.0057 38.7578 30V33C38.7587 33.9943 39.1541 34.9476 39.8571 35.6507C40.5602 36.3538 41.5135 36.7491 42.5078 36.75H47.7578V41.25H42.5078C41.5135 41.2509 40.5602 41.6462 39.8571 42.3493C39.1541 43.0524 38.7587 44.0057 38.7578 45V48C38.7587 48.9943 39.1541 49.9476 39.8571 50.6507C40.5602 51.3538 41.5135 51.7491 42.5078 51.75H47.7578V56.3259C46.2452 56.496 44.8352 57.1748 43.7589 58.2511C42.6826 59.3274 42.0038 60.7374 41.8337 62.25ZM59.9096 62.25H55.1819C55.0118 60.7374 54.333 59.3274 53.2567 58.2511C52.1804 57.1748 50.7704 56.496 49.2578 56.3259V54.75H57.5078C58.7947 54.7543 60.035 55.2321 60.9922 56.0922C61.9493 56.9524 62.5565 58.1347 62.6978 59.4138C62.0087 59.5666 61.3786 59.9157 60.8838 60.4191C60.389 60.9224 60.0506 61.5584 59.9096 62.25ZM63.5078 65.25C63.0628 65.25 62.6278 65.118 62.2578 64.8708C61.8878 64.6236 61.5994 64.2722 61.4291 63.861C61.2588 63.4499 61.2142 62.9975 61.301 62.561C61.3879 62.1246 61.6022 61.7237 61.9168 61.409C62.2315 61.0943 62.6324 60.8801 63.0689 60.7932C63.5053 60.7064 63.9577 60.751 64.3689 60.9213C64.78 61.0916 65.1314 61.38 65.3786 61.75C65.6259 62.12 65.7578 62.555 65.7578 63C65.7569 63.5965 65.5196 64.1683 65.0978 64.59C64.6761 65.0118 64.1043 65.2491 63.5078 65.25Z" fill="white" stroke="white" stroke-width="0.138462" mask="url(#path-1-inside-1_1760_48864)"/>
<mask id="path-2-inside-2_1760_48864" fill="white">
<path d="M37.2578 15.75V20.25H35.7578V15.75H30.5078C29.5135 15.7491 28.5602 15.3538 27.8571 14.6507C27.1541 13.9476 26.7587 12.9943 26.7578 12C26.7578 11.8011 26.8368 11.6103 26.9775 11.4697C27.1181 11.329 27.3089 11.25 27.5078 11.25C27.7067 11.25 27.8975 11.329 28.0381 11.4697C28.1788 11.6103 28.2578 11.8011 28.2578 12C28.2587 12.5965 28.496 13.1683 28.9178 13.59C29.3396 14.0118 29.9113 14.2491 30.5078 14.25H42.5078C43.1043 14.2491 43.6761 14.0118 44.0978 13.59C44.5196 13.1683 44.7569 12.5965 44.7578 12V9.0009C44.7569 8.40443 44.5196 7.83264 44.0978 7.41087C43.6761 6.98911 43.1043 6.75177 42.5078 6.7509H37.7492C36.7552 6.74848 35.8023 6.35365 35.0978 5.6523L33.8555 4.41C33.433 3.98942 32.8617 3.75229 32.2655 3.75H30.5078C29.9113 3.75087 29.3396 3.98821 28.9178 4.40997C28.496 4.83174 28.2587 5.40353 28.2578 6V9C28.2578 9.19891 28.1788 9.38968 28.0381 9.53033C27.8975 9.67098 27.7067 9.75 27.5078 9.75C27.3089 9.75 27.1181 9.67098 26.9775 9.53033C26.8368 9.38968 26.7578 9.19891 26.7578 9V6C26.7587 5.00571 27.1541 4.05239 27.8571 3.34931C28.5602 2.64624 29.5135 2.25087 30.5078 2.25H32.2655C33.2599 2.25219 34.2131 2.64703 34.9178 3.3486L36.1601 4.59C36.5827 5.01058 37.1539 5.24771 37.7501 5.25H42.5078C43.5021 5.25087 44.4554 5.64624 45.1585 6.34931C45.8616 7.05239 46.2569 8.00571 46.2578 9V12C46.2569 12.9943 45.8616 13.9476 45.1585 14.6507C44.4554 15.3538 43.5021 15.7491 42.5078 15.75H37.2578Z"/>
<path fill-rule="evenodd" clip-rule="evenodd" d="M41.8577 63.75C41.9679 64.7962 42.3215 65.802 42.8902 66.6869C43.4589 67.5719 44.227 68.3113 45.1328 68.8461C45.2182 68.8998 45.3135 68.9358 45.4131 68.9518C45.5127 68.9679 45.6145 68.9637 45.7124 68.9394C45.8104 68.9152 45.9024 68.8715 45.983 68.8109C46.0637 68.7503 46.1312 68.674 46.1817 68.5867C46.2322 68.4993 46.2645 68.4027 46.2768 68.3026C46.2891 68.2024 46.281 68.1009 46.2531 68.0039C46.2252 67.907 46.178 67.8167 46.1144 67.7384C46.0508 67.6601 45.972 67.5954 45.8828 67.5483C44.7787 66.912 43.9436 65.8959 43.5331 64.6895C43.1226 63.4831 43.1647 62.1685 43.6516 60.9909C44.1385 59.8132 45.0369 58.8527 46.1795 58.2883C47.3221 57.724 48.6309 57.5943 49.862 57.9234C51.0931 58.2525 52.1626 59.0179 52.8712 60.0771C53.5797 61.1363 53.8791 62.417 53.7134 63.6805C53.5477 64.9441 52.9283 66.1043 51.9706 66.9449C51.0129 67.7856 49.7822 68.2495 48.5078 68.25C48.3089 68.25 48.1181 68.329 47.9775 68.4697C47.8368 68.6103 47.7578 68.8011 47.7578 69C47.7578 69.1989 47.8368 69.3897 47.9775 69.5303C48.1181 69.671 48.3089 69.75 48.5078 69.75C50.1631 69.7445 51.7584 69.1298 52.9894 68.0232C54.2204 66.9165 55.0009 65.3954 55.1819 63.75H59.9096C60.0713 64.5884 60.5178 65.3451 61.1736 65.8918C61.8294 66.4386 62.654 66.7418 63.5078 66.75C64.5021 66.7491 65.4554 66.3538 66.1585 65.6507C66.8616 64.9476 67.2569 63.9943 67.2578 63C67.2496 62.1353 66.9389 61.3007 66.3796 60.6412C65.8203 59.9816 65.0478 59.5387 64.196 59.3892L62.6978 59.4138C62.0087 59.5666 61.3786 59.9157 60.8838 60.4191C60.389 60.9224 60.0506 61.5584 59.9096 62.25H55.1819C55.0118 60.7374 54.333 59.3274 53.2567 58.2511C52.1804 57.1748 50.7704 56.496 49.2578 56.3259H47.7578C46.2452 56.496 44.8352 57.1748 43.7589 58.2511C42.6826 59.3274 42.0038 60.7374 41.8337 62.25L41.8577 63.75ZM62.2578 64.8708C62.6278 65.118 63.0628 65.25 63.5078 65.25C64.1043 65.2491 64.6761 65.0118 65.0978 64.59C65.5196 64.1683 65.7569 63.5965 65.7578 63C65.7578 62.555 65.6258 62.12 65.3786 61.75C65.1314 61.38 64.78 61.0916 64.3688 60.9213C63.9577 60.751 63.5053 60.7064 63.0689 60.7932C62.6324 60.8801 62.2315 61.0943 61.9168 61.409C61.6021 61.7237 61.3879 62.1246 61.301 62.5611C61.2142 62.9975 61.2588 63.4499 61.4291 63.861C61.5994 64.2722 61.8878 64.6236 62.2578 64.8708Z"/>
<path fill-rule="evenodd" clip-rule="evenodd" d="M8.75781 59.4C7.91917 59.5618 7.16228 60.0086 6.61549 60.6647C6.06871 61.3209 5.76569 62.1459 5.75781 63C5.75869 63.9943 6.15405 64.9476 6.85713 65.6507C7.5602 66.3538 8.51352 66.7491 9.50781 66.75C10.3616 66.7418 11.1863 66.4386 11.8422 65.8919C12.498 65.3451 12.9446 64.5884 13.1063 63.75L13.1078 62.25C12.9648 61.548 12.6186 60.9035 12.1121 60.3967C11.6056 59.89 10.9613 59.5433 10.2593 59.4H8.75781ZM8.25778 64.8708C8.62779 65.118 9.0628 65.25 9.50781 65.25C10.1043 65.2491 10.6761 65.0118 11.0978 64.59C11.5196 64.1683 11.7569 63.5965 11.7578 63C11.7578 62.555 11.6259 62.12 11.3786 61.75C11.1314 61.38 10.78 61.0916 10.3689 60.9213C9.95772 60.751 9.50532 60.7064 9.06886 60.7932C8.6324 60.8801 8.23149 61.0943 7.91682 61.409C7.60215 61.7237 7.38786 62.1246 7.30105 62.5611C7.21423 62.9975 7.25879 63.4499 7.42908 63.861C7.59938 64.2722 7.88777 64.6236 8.25778 64.8708Z"/>
</mask>
<path d="M37.2578 15.75V20.25H35.7578V15.75H30.5078C29.5135 15.7491 28.5602 15.3538 27.8571 14.6507C27.1541 13.9476 26.7587 12.9943 26.7578 12C26.7578 11.8011 26.8368 11.6103 26.9775 11.4697C27.1181 11.329 27.3089 11.25 27.5078 11.25C27.7067 11.25 27.8975 11.329 28.0381 11.4697C28.1788 11.6103 28.2578 11.8011 28.2578 12C28.2587 12.5965 28.496 13.1683 28.9178 13.59C29.3396 14.0118 29.9113 14.2491 30.5078 14.25H42.5078C43.1043 14.2491 43.6761 14.0118 44.0978 13.59C44.5196 13.1683 44.7569 12.5965 44.7578 12V9.0009C44.7569 8.40443 44.5196 7.83264 44.0978 7.41087C43.6761 6.98911 43.1043 6.75177 42.5078 6.7509H37.7492C36.7552 6.74848 35.8023 6.35365 35.0978 5.6523L33.8555 4.41C33.433 3.98942 32.8617 3.75229 32.2655 3.75H30.5078C29.9113 3.75087 29.3396 3.98821 28.9178 4.40997C28.496 4.83174 28.2587 5.40353 28.2578 6V9C28.2578 9.19891 28.1788 9.38968 28.0381 9.53033C27.8975 9.67098 27.7067 9.75 27.5078 9.75C27.3089 9.75 27.1181 9.67098 26.9775 9.53033C26.8368 9.38968 26.7578 9.19891 26.7578 9V6C26.7587 5.00571 27.1541 4.05239 27.8571 3.34931C28.5602 2.64624 29.5135 2.25087 30.5078 2.25H32.2655C33.2599 2.25219 34.2131 2.64703 34.9178 3.3486L36.1601 4.59C36.5827 5.01058 37.1539 5.24771 37.7501 5.25H42.5078C43.5021 5.25087 44.4554 5.64624 45.1585 6.34931C45.8616 7.05239 46.2569 8.00571 46.2578 9V12C46.2569 12.9943 45.8616 13.9476 45.1585 14.6507C44.4554 15.3538 43.5021 15.7491 42.5078 15.75H37.2578Z" fill="#E6B400"/>
<path fill-rule="evenodd" clip-rule="evenodd" d="M41.8577 63.75C41.9679 64.7962 42.3215 65.802 42.8902 66.6869C43.4589 67.5719 44.227 68.3113 45.1328 68.8461C45.2182 68.8998 45.3135 68.9358 45.4131 68.9518C45.5127 68.9679 45.6145 68.9637 45.7124 68.9394C45.8104 68.9152 45.9024 68.8715 45.983 68.8109C46.0637 68.7503 46.1312 68.674 46.1817 68.5867C46.2322 68.4993 46.2645 68.4027 46.2768 68.3026C46.2891 68.2024 46.281 68.1009 46.2531 68.0039C46.2252 67.907 46.178 67.8167 46.1144 67.7384C46.0508 67.6601 45.972 67.5954 45.8828 67.5483C44.7787 66.912 43.9436 65.8959 43.5331 64.6895C43.1226 63.4831 43.1647 62.1685 43.6516 60.9909C44.1385 59.8132 45.0369 58.8527 46.1795 58.2883C47.3221 57.724 48.6309 57.5943 49.862 57.9234C51.0931 58.2525 52.1626 59.0179 52.8712 60.0771C53.5797 61.1363 53.8791 62.417 53.7134 63.6805C53.5477 64.9441 52.9283 66.1043 51.9706 66.9449C51.0129 67.7856 49.7822 68.2495 48.5078 68.25C48.3089 68.25 48.1181 68.329 47.9775 68.4697C47.8368 68.6103 47.7578 68.8011 47.7578 69C47.7578 69.1989 47.8368 69.3897 47.9775 69.5303C48.1181 69.671 48.3089 69.75 48.5078 69.75C50.1631 69.7445 51.7584 69.1298 52.9894 68.0232C54.2204 66.9165 55.0009 65.3954 55.1819 63.75H59.9096C60.0713 64.5884 60.5178 65.3451 61.1736 65.8918C61.8294 66.4386 62.654 66.7418 63.5078 66.75C64.5021 66.7491 65.4554 66.3538 66.1585 65.6507C66.8616 64.9476 67.2569 63.9943 67.2578 63C67.2496 62.1353 66.9389 61.3007 66.3796 60.6412C65.8203 59.9816 65.0478 59.5387 64.196 59.3892L62.6978 59.4138C62.0087 59.5666 61.3786 59.9157 60.8838 60.4191C60.389 60.9224 60.0506 61.5584 59.9096 62.25H55.1819C55.0118 60.7374 54.333 59.3274 53.2567 58.2511C52.1804 57.1748 50.7704 56.496 49.2578 56.3259H47.7578C46.2452 56.496 44.8352 57.1748 43.7589 58.2511C42.6826 59.3274 42.0038 60.7374 41.8337 62.25L41.8577 63.75ZM62.2578 64.8708C62.6278 65.118 63.0628 65.25 63.5078 65.25C64.1043 65.2491 64.6761 65.0118 65.0978 64.59C65.5196 64.1683 65.7569 63.5965 65.7578 63C65.7578 62.555 65.6258 62.12 65.3786 61.75C65.1314 61.38 64.78 61.0916 64.3688 60.9213C63.9577 60.751 63.5053 60.7064 63.0689 60.7932C62.6324 60.8801 62.2315 61.0943 61.9168 61.409C61.6021 61.7237 61.3879 62.1246 61.301 62.5611C61.2142 62.9975 61.2588 63.4499 61.4291 63.861C61.5994 64.2722 61.8878 64.6236 62.2578 64.8708Z" fill="#E6B400"/>
<path fill-rule="evenodd" clip-rule="evenodd" d="M8.75781 59.4C7.91917 59.5618 7.16228 60.0086 6.61549 60.6647C6.06871 61.3209 5.76569 62.1459 5.75781 63C5.75869 63.9943 6.15405 64.9476 6.85713 65.6507C7.5602 66.3538 8.51352 66.7491 9.50781 66.75C10.3616 66.7418 11.1863 66.4386 11.8422 65.8919C12.498 65.3451 12.9446 64.5884 13.1063 63.75L13.1078 62.25C12.9648 61.548 12.6186 60.9035 12.1121 60.3967C11.6056 59.89 10.9613 59.5433 10.2593 59.4H8.75781ZM8.25778 64.8708C8.62779 65.118 9.0628 65.25 9.50781 65.25C10.1043 65.2491 10.6761 65.0118 11.0978 64.59C11.5196 64.1683 11.7569 63.5965 11.7578 63C11.7578 62.555 11.6259 62.12 11.3786 61.75C11.1314 61.38 10.78 61.0916 10.3689 60.9213C9.95772 60.751 9.50532 60.7064 9.06886 60.7932C8.6324 60.8801 8.23149 61.0943 7.91682 61.409C7.60215 61.7237 7.38786 62.1246 7.30105 62.5611C7.21423 62.9975 7.25879 63.4499 7.42908 63.861C7.59938 64.2722 7.88777 64.6236 8.25778 64.8708Z" fill="#E6B400"/>
<path d="M60.969 56.118C61.9199 56.9724 62.523 58.147 62.6634 59.4176L62.7322 59.41C62.59 58.1225 61.9788 56.9323 61.0153 56.0665L60.969 56.118ZM64.196 59.3892L64.2082 59.3198L64.1949 59.32L64.196 59.3892ZM37.2578 20.25V20.3192H37.327V20.25H37.2578ZM37.2578 15.75V15.6808H37.1886V15.75H37.2578ZM42.5078 15.75V15.8192H42.5079L42.5078 15.75ZM46.2578 12L46.327 12.0001V12H46.2578ZM46.2578 9H46.327V8.99994L46.2578 9ZM42.5078 5.25L42.5079 5.18077H42.5078V5.25ZM37.7501 5.25L37.7498 5.31923H37.7501V5.25ZM36.1601 4.59L36.1112 4.63897L36.1113 4.63907L36.1601 4.59ZM34.9178 3.3486L34.9667 3.29963L34.9667 3.29954L34.9178 3.3486ZM32.2655 2.25L32.2657 2.18077H32.2655V2.25ZM30.5078 2.25V2.18077L30.5077 2.18077L30.5078 2.25ZM26.7578 6L26.6886 5.99994V6H26.7578ZM28.2578 6L28.1886 5.9999V6H28.2578ZM30.5078 3.75V3.68077L30.5077 3.68077L30.5078 3.75ZM32.2655 3.75L32.2658 3.68077H32.2655V3.75ZM33.8555 4.41L33.9045 4.36105L33.9044 4.36093L33.8555 4.41ZM35.0978 5.6523L35.0489 5.70125L35.049 5.70136L35.0978 5.6523ZM37.7492 6.7509L37.749 6.82013H37.7492V6.7509ZM42.5078 6.7509L42.5079 6.68167H42.5078V6.7509ZM44.7578 9.0009H44.827V9.0008L44.7578 9.0009ZM44.7578 12L44.827 12.0001V12H44.7578ZM42.5078 14.25V14.3192L42.5079 14.3192L42.5078 14.25ZM30.5078 14.25L30.5077 14.3192H30.5078V14.25ZM28.2578 12H28.1886V12.0001L28.2578 12ZM26.7578 12H26.6886V12.0001L26.7578 12ZM30.5078 15.75L30.5077 15.8192H30.5078V15.75ZM35.7578 15.75H35.827V15.6808H35.7578V15.75ZM35.7578 20.25H35.6886V20.3192H35.7578V20.25ZM8.75781 59.4V59.3295L8.7447 59.332L8.75781 59.4ZM5.75781 63L5.68858 62.9994L5.68858 63.0001L5.75781 63ZM9.50781 66.75L9.50775 66.8192L9.50848 66.8192L9.50781 66.75ZM13.1063 63.75L13.1755 63.7634L13.1755 63.7501L13.1063 63.75ZM41.8577 63.75L41.7882 63.7511L41.7889 63.7573L41.8577 63.75ZM45.1328 68.8461L45.1697 68.7875L45.168 68.7865L45.1328 68.8461ZM45.8828 67.5483L45.8482 67.6083L45.8505 67.6095L45.8828 67.5483ZM48.5078 68.25V68.3192H48.5078L48.5078 68.25ZM48.5078 69.75V69.8192H48.508L48.5078 69.75ZM55.1819 63.75V63.6808H55.1199L55.1131 63.7424L55.1819 63.75ZM59.9096 63.75L59.9776 63.7369L59.9668 63.6808H59.9096V63.75ZM63.5078 66.75L63.5071 66.8192H63.5079L63.5078 66.75ZM67.2578 63L67.327 63.0001L67.327 62.9993L67.2578 63ZM9.50781 65.25V65.3192H9.50791L9.50781 65.25ZM11.7578 63L11.827 63.0001V63H11.7578ZM13.1078 62.25L13.1785 62.2501L13.1756 62.2362L13.1078 62.25ZM10.2593 59.4L10.2734 59.3308H10.2593V59.4ZM41.8337 62.25L41.7643 62.2422L41.7645 62.2511L41.8337 62.25ZM47.7578 56.3259V56.2562L47.7501 56.2571L47.7578 56.3259ZM59.9096 62.25V62.3192H59.9662L59.9774 62.2638L59.9096 62.25ZM55.1819 62.25L55.1131 62.2577L55.12 62.3192H55.1819V62.25ZM49.2578 56.3259L49.2656 56.2567H49.2578V56.3259ZM62.6978 59.4138L62.6966 59.3432L62.6828 59.3462L62.6978 59.4138ZM63.5078 65.25V65.3192H63.5079L63.5078 65.25ZM65.7578 63L65.827 63.0001V63H65.7578ZM37.327 20.25V15.75H37.1886V20.25H37.327ZM37.2578 15.8192H42.5078V15.6808H37.2578V15.8192ZM42.5079 15.8192C43.5205 15.8183 44.4914 15.4157 45.2075 14.6996L45.1095 14.6017C44.4194 15.2918 43.4837 15.6799 42.5078 15.6808L42.5079 15.8192ZM45.2075 14.6996C45.9235 13.9836 46.3262 13.0127 46.327 12.0001L46.1886 11.9999C46.1877 12.9759 45.7996 13.9116 45.1095 14.6017L45.2075 14.6996ZM46.327 12V9H46.1886V12H46.327ZM46.327 8.99994C46.3262 7.98731 45.9235 7.0164 45.2075 6.30036L45.1095 6.39827C45.7996 7.08837 46.1877 8.02411 46.1886 9.00006L46.327 8.99994ZM45.2075 6.30036C44.4914 5.58432 43.5205 5.18166 42.5079 5.18077L42.5078 5.31923C43.4837 5.32009 44.4194 5.70816 45.1095 6.39827L45.2075 6.30036ZM42.5078 5.18077H37.7501V5.31923H42.5078V5.18077ZM37.7504 5.18077C37.1724 5.17855 36.6186 4.94867 36.209 4.54093L36.1113 4.63907C36.5467 5.0725 37.1355 5.31687 37.7498 5.31923L37.7504 5.18077ZM36.209 4.54103L34.9667 3.29963L34.8689 3.39757L36.1112 4.63897L36.209 4.54103ZM34.9667 3.29954C34.249 2.58509 33.2783 2.183 32.2657 2.18077L32.2654 2.31923C33.2415 2.32138 34.1772 2.70897 34.869 3.39766L34.9667 3.29954ZM32.2655 2.18077H30.5078V2.31923H32.2655V2.18077ZM30.5077 2.18077C29.4951 2.18166 28.5242 2.58432 27.8082 3.30036L27.9061 3.39827C28.5962 2.70816 29.5319 2.32009 30.5079 2.31923L30.5077 2.18077ZM27.8082 3.30036C27.0921 4.0164 26.6895 4.98731 26.6886 5.99994L26.827 6.00006C26.8279 5.02411 27.216 4.08837 27.9061 3.39827L27.8082 3.30036ZM26.6886 6V9H26.827V6H26.6886ZM26.6886 9C26.6886 9.21727 26.7749 9.42565 26.9285 9.57928L27.0264 9.48138C26.8988 9.35371 26.827 9.18055 26.827 9H26.6886ZM26.9285 9.57928C27.0822 9.73292 27.2905 9.81923 27.5078 9.81923V9.68077C27.3273 9.68077 27.1541 9.60905 27.0264 9.48138L26.9285 9.57928ZM27.5078 9.81923C27.7251 9.81923 27.9335 9.73292 28.0871 9.57928L27.9892 9.48138C27.8615 9.60905 27.6884 9.68077 27.5078 9.68077V9.81923ZM28.0871 9.57928C28.2407 9.42565 28.327 9.21727 28.327 9H28.1886C28.1886 9.18055 28.1169 9.35371 27.9892 9.48138L28.0871 9.57928ZM28.327 9V6H28.1886V9H28.327ZM28.327 6.0001C28.3279 5.42196 28.5579 4.86774 28.9667 4.45893L28.8688 4.36102C28.4341 4.79575 28.1895 5.3851 28.1886 5.9999L28.327 6.0001ZM28.9667 4.45893C29.3755 4.05012 29.9298 3.82008 30.5079 3.81923L30.5077 3.68077C29.8929 3.68167 29.3036 3.92629 28.8688 4.36102L28.9667 4.45893ZM30.5078 3.81923H32.2655V3.68077H30.5078V3.81923ZM32.2652 3.81923C32.8432 3.82145 33.397 4.05133 33.8067 4.45907L33.9044 4.36093C33.4689 3.9275 32.8802 3.68313 32.2658 3.68077L32.2652 3.81923ZM33.8066 4.45895L35.0489 5.70125L35.1468 5.60335L33.9045 4.36105L33.8066 4.45895ZM35.049 5.70136C35.7664 6.41559 36.7367 6.81766 37.749 6.82013L37.7494 6.68167C36.7736 6.67929 35.8382 6.29171 35.1467 5.60324L35.049 5.70136ZM37.7492 6.82013H42.5078V6.68167H37.7492V6.82013ZM42.5077 6.82013C43.0859 6.82098 43.6401 7.05102 44.0489 7.45983L44.1468 7.36192C43.7121 6.92719 43.1227 6.68257 42.5079 6.68167L42.5077 6.82013ZM44.0489 7.45983C44.4577 7.86864 44.6877 8.42286 44.6886 9.001L44.827 9.0008C44.8261 8.386 44.5815 7.79665 44.1468 7.36192L44.0489 7.45983ZM44.6886 9.0009V12H44.827V9.0009H44.6886ZM44.6886 11.9999C44.6877 12.578 44.4577 13.1323 44.0489 13.5411L44.1468 13.639C44.5815 13.2043 44.8261 12.6149 44.827 12.0001L44.6886 11.9999ZM44.0489 13.5411C43.6401 13.9499 43.0859 14.1799 42.5077 14.1808L42.5079 14.3192C43.1227 14.3183 43.7121 14.0737 44.1468 13.639L44.0489 13.5411ZM42.5078 14.1808H30.5078V14.3192H42.5078V14.1808ZM30.5079 14.1808C29.9298 14.1799 29.3755 13.9499 28.9667 13.5411L28.8688 13.639C29.3036 14.0737 29.8929 14.3183 30.5077 14.3192L30.5079 14.1808ZM28.9667 13.5411C28.5579 13.1323 28.3279 12.578 28.327 11.9999L28.1886 12.0001C28.1895 12.6149 28.4341 13.2043 28.8688 13.639L28.9667 13.5411ZM28.327 12C28.327 11.7827 28.2407 11.5744 28.0871 11.4207L27.9892 11.5186C28.1169 11.6463 28.1886 11.8194 28.1886 12H28.327ZM28.0871 11.4207C27.9335 11.2671 27.7251 11.1808 27.5078 11.1808V11.3192C27.6884 11.3192 27.8615 11.391 27.9892 11.5186L28.0871 11.4207ZM27.5078 11.1808C27.2905 11.1808 27.0822 11.2671 26.9285 11.4207L27.0264 11.5186C27.1541 11.391 27.3273 11.3192 27.5078 11.3192V11.1808ZM26.9285 11.4207C26.7749 11.5744 26.6886 11.7827 26.6886 12H26.827C26.827 11.8194 26.8988 11.6463 27.0264 11.5186L26.9285 11.4207ZM26.6886 12.0001C26.6895 13.0127 27.0921 13.9836 27.8082 14.6996L27.9061 14.6017C27.216 13.9116 26.8279 12.9759 26.827 11.9999L26.6886 12.0001ZM27.8082 14.6996C28.5242 15.4157 29.4951 15.8183 30.5077 15.8192L30.5079 15.6808C29.5319 15.6799 28.5962 15.2918 27.9061 14.6017L27.8082 14.6996ZM30.5078 15.8192H35.7578V15.6808H30.5078V15.8192ZM35.6886 15.75V20.25H35.827V15.75H35.6886ZM8.7447 59.332C7.89037 59.4968 7.11932 59.952 6.56231 60.6204L6.66868 60.7091C7.20523 60.0652 7.94796 59.6267 8.77092 59.468L8.7447 59.332ZM6.56231 60.6204C6.0053 61.2888 5.69661 62.1293 5.68858 62.9994L5.82704 63.0006C5.83477 62.1625 6.13212 61.3529 6.66868 60.7091L6.56231 60.6204ZM5.68858 63.0001C5.68947 64.0127 6.09213 64.9836 6.80817 65.6996L6.90608 65.6017C6.21598 64.9116 5.8279 63.9759 5.82704 62.9999L5.68858 63.0001ZM6.80817 65.6996C7.52421 66.4157 8.49512 66.8183 9.50775 66.8192L9.50787 66.6808C8.53192 66.6799 7.59618 66.2918 6.90608 65.6017L6.80817 65.6996ZM9.50848 66.8192C10.3783 66.8109 11.2184 66.502 11.8865 65.945L11.7978 65.8387C11.1543 66.3752 10.345 66.6727 9.50715 66.6808L9.50848 66.8192ZM11.8865 65.945C12.5546 65.388 13.0096 64.6172 13.1743 63.7631L13.0383 63.7369C12.8797 64.5596 12.4414 65.3021 11.7978 65.8387L11.8865 65.945ZM41.7889 63.7573C41.9001 64.8142 42.2574 65.8303 42.8319 66.7243L42.9484 66.6495C42.3855 65.7736 42.0356 64.7782 41.9266 63.7428L41.7889 63.7573ZM42.8319 66.7243C43.4065 67.6184 44.1824 68.3654 45.0976 68.9057L45.168 68.7865C44.2715 68.2572 43.5113 67.5253 42.9484 66.6495L42.8319 66.7243ZM45.0959 68.9047C45.1892 68.9634 45.2933 69.0027 45.4021 69.0202L45.4241 68.8835C45.3337 68.8689 45.2472 68.8363 45.1697 68.7875L45.0959 68.9047ZM45.4021 69.0202C45.5109 69.0377 45.6221 69.0331 45.7291 69.0067L45.6958 68.8722C45.6069 68.8942 45.5145 68.8981 45.4241 68.8835L45.4021 69.0202ZM45.7291 69.0067C45.836 68.9802 45.9366 68.9324 46.0246 68.8662L45.9414 68.7555C45.8682 68.8106 45.7847 68.8503 45.6958 68.8722L45.7291 69.0067ZM46.0246 68.8662C46.1127 68.8 46.1865 68.7167 46.2417 68.6213L46.1218 68.552C46.076 68.6313 46.0146 68.7005 45.9414 68.7555L46.0246 68.8662ZM46.2417 68.6213C46.2968 68.5259 46.3321 68.4204 46.3455 68.311L46.2081 68.2942C46.1969 68.385 46.1676 68.4727 46.1218 68.552L46.2417 68.6213ZM46.3455 68.311C46.3589 68.2016 46.3501 68.0906 46.3196 67.9848L46.1866 68.0231C46.2119 68.1111 46.2192 68.2033 46.2081 68.2942L46.3455 68.311ZM46.3196 67.9848C46.2891 67.8789 46.2376 67.7802 46.1681 67.6947L46.0607 67.782C46.1184 67.8531 46.1612 67.9351 46.1866 68.0231L46.3196 67.9848ZM46.1681 67.6947C46.0986 67.6092 46.0126 67.5386 45.9152 67.4871L45.8505 67.6095C45.9314 67.6523 46.0029 67.711 46.0607 67.782L46.1681 67.6947ZM45.9174 67.4883C44.8278 66.8604 44.0037 65.8577 43.5987 64.6672L43.4676 64.7118C43.8835 65.9341 44.7296 66.9636 45.8482 67.6083L45.9174 67.4883ZM43.5987 64.6672C43.1936 63.4767 43.2351 62.1795 43.7156 61.0173L43.5876 60.9644C43.0944 62.1576 43.0517 63.4895 43.4676 64.7118L43.5987 64.6672ZM43.7156 61.0173C44.1961 59.8552 45.0827 58.9073 46.2102 58.3504L46.1488 58.2263C44.9912 58.7981 44.0809 59.7712 43.5876 60.9644L43.7156 61.0173ZM46.2102 58.3504C47.3377 57.7935 48.6292 57.6655 49.8441 57.9903L49.8799 57.8565C48.6325 57.5231 47.3065 57.6545 46.1488 58.2263L46.2102 58.3504ZM49.8441 57.9903C51.059 58.315 52.1144 59.0704 52.8136 60.1156L52.9287 60.0386C52.2108 58.9655 51.1272 58.1899 49.8799 57.8565L49.8441 57.9903ZM52.8136 60.1156C53.5129 61.1608 53.8082 62.4246 53.6447 63.6715L53.782 63.6895C53.9499 62.4093 53.6466 61.1118 52.9287 60.0386L52.8136 60.1156ZM53.6447 63.6715C53.4812 64.9184 52.87 66.0633 51.9249 66.8929L52.0162 66.997C52.9866 66.1452 53.6141 64.9697 53.782 63.6895L53.6447 63.6715ZM51.9249 66.8929C50.9798 67.7225 49.7653 68.1802 48.5078 68.1808L48.5078 68.3192C49.799 68.3187 51.0459 67.8487 52.0162 66.997L51.9249 66.8929ZM48.5078 68.1808C48.2905 68.1808 48.0822 68.2671 47.9285 68.4207L48.0264 68.5186C48.1541 68.391 48.3273 68.3192 48.5078 68.3192V68.1808ZM47.9285 68.4207C47.7749 68.5744 47.6886 68.7827 47.6886 69H47.827C47.827 68.8195 47.8988 68.6463 48.0264 68.5186L47.9285 68.4207ZM47.6886 69C47.6886 69.2173 47.7749 69.4257 47.9285 69.5793L48.0264 69.4814C47.8988 69.3537 47.827 69.1806 47.827 69H47.6886ZM47.9285 69.5793C48.0822 69.7329 48.2905 69.8192 48.5078 69.8192V69.6808C48.3273 69.6808 48.1541 69.609 48.0264 69.4814L47.9285 69.5793ZM48.508 69.8192C50.1803 69.8137 51.7921 69.1927 53.0357 68.0746L52.9431 67.9717C51.7248 69.067 50.1459 69.6754 48.5076 69.6808L48.508 69.8192ZM53.0357 68.0746C54.2794 66.9566 55.0678 65.4199 55.2507 63.7576L55.1131 63.7424C54.9339 65.3709 54.1615 66.8764 52.9431 67.9717L53.0357 68.0746ZM55.1819 63.8192H59.9096V63.6808H55.1819V63.8192ZM59.8416 63.7631C60.0063 64.6172 60.4612 65.388 61.1293 65.945L61.2179 65.8387C60.5744 65.3021 60.1362 64.5596 59.9776 63.7369L59.8416 63.7631ZM61.1293 65.945C61.7973 66.502 62.6374 66.8109 63.5071 66.8192L63.5085 66.6808C62.6707 66.6727 61.8614 66.3752 61.2179 65.8387L61.1293 65.945ZM63.5079 66.8192C64.5205 66.8183 65.4914 66.4157 66.2075 65.6996L66.1095 65.6017C65.4194 66.2918 64.4837 66.6799 63.5078 66.6808L63.5079 66.8192ZM66.2075 65.6996C66.9235 64.9836 67.3262 64.0127 67.327 63.0001L67.1886 62.9999C67.1877 63.9759 66.7996 64.9116 66.1095 65.6017L66.2075 65.6996ZM67.327 62.9993C67.3187 62.1184 67.0021 61.2683 66.4324 60.5964L66.3268 60.6859C66.8756 61.3332 67.1805 62.1521 67.1886 63.0007L67.327 62.9993ZM66.4324 60.5964C65.8627 59.9245 65.0757 59.4733 64.208 59.321L64.184 59.4574C65.0199 59.604 65.778 60.0387 66.3268 60.6859L66.4324 60.5964ZM9.50781 65.1808C9.0765 65.1808 8.65487 65.0529 8.29624 64.8132L8.21932 64.9284C8.60071 65.1832 9.04911 65.3192 9.50781 65.3192V65.1808ZM8.29624 64.8132C7.93762 64.5736 7.6581 64.233 7.49304 63.8345L7.36512 63.8875C7.54066 64.3113 7.83792 64.6735 8.21932 64.9284L8.29624 64.8132ZM7.49304 63.8345C7.32799 63.4361 7.2848 62.9976 7.36895 62.5746L7.23314 62.5475C7.14366 62.9974 7.18959 63.4637 7.36512 63.8875L7.49304 63.8345ZM7.36895 62.5746C7.45309 62.1515 7.66079 61.763 7.96578 61.458L7.86787 61.3601C7.54352 61.6844 7.32263 62.0977 7.23314 62.5475L7.36895 62.5746ZM7.96578 61.458C8.27076 61.153 8.65934 60.9453 9.08237 60.8611L9.05535 60.7253C8.60547 60.8148 8.19222 61.0357 7.86787 61.3601L7.96578 61.458ZM9.08237 60.8611C9.50539 60.777 9.94387 60.8202 10.3424 60.9852L10.3953 60.8573C9.97156 60.6818 9.50524 60.6358 9.05535 60.7253L9.08237 60.8611ZM10.3424 60.9852C10.7408 61.1503 11.0814 61.4298 11.3211 61.7884L11.4362 61.7115C11.1813 61.3301 10.8191 61.0329 10.3953 60.8573L10.3424 60.9852ZM11.3211 61.7884C11.5607 62.1471 11.6886 62.5687 11.6886 63H11.827C11.827 62.5413 11.691 62.0929 11.4362 61.7115L11.3211 61.7884ZM11.6886 62.9999C11.6877 63.578 11.4577 64.1323 11.0489 64.5411L11.1468 64.639C11.5815 64.2043 11.8261 63.6149 11.827 63.0001L11.6886 62.9999ZM11.0489 64.5411C10.6401 64.9499 10.0859 65.1799 9.50771 65.1808L9.50791 65.3192C10.1227 65.3183 10.7121 65.0737 11.1468 64.639L11.0489 64.5411ZM13.1756 62.2362C13.03 61.5208 12.6771 60.8641 12.1611 60.3478L12.0631 60.4456C12.56 60.9428 12.8997 61.5751 13.04 62.2638L13.1756 62.2362ZM12.1611 60.3478C11.645 59.8314 10.9884 59.4782 10.2732 59.3322L10.2455 59.4678C10.9341 59.6085 11.5662 59.9485 12.0631 60.4456L12.1611 60.3478ZM47.7501 56.2571C46.2219 56.4289 44.7974 57.1148 43.71 58.2022L43.8079 58.3001C44.8731 57.2349 46.2685 56.563 47.7655 56.3947L47.7501 56.2571ZM43.71 58.2022C42.6226 59.2896 41.9368 60.7141 41.7649 62.2423L41.9025 62.2577C42.0708 60.7607 42.7427 59.3653 43.8079 58.3001L43.71 58.2022ZM59.9096 62.1808H55.1819V62.3192H59.9096V62.1808ZM55.2507 62.2423C55.0789 60.7141 54.3931 59.2896 53.3057 58.2022L53.2077 58.3001C54.273 59.3653 54.9448 60.7607 55.1131 62.2577L55.2507 62.2423ZM53.3057 58.2022C52.2182 57.1148 50.7937 56.4289 49.2655 56.2571L49.2501 56.3947C50.7471 56.563 52.1425 57.2349 53.2077 58.3001L53.3057 58.2022ZM62.6828 59.3462C61.9806 59.5019 61.3386 59.8577 60.8344 60.3706L60.9332 60.4676C61.4186 59.9738 62.0367 59.6313 62.7128 59.4814L62.6828 59.3462ZM60.8344 60.3706C60.3302 60.8834 59.9854 61.5314 59.8418 62.2362L59.9774 62.2638C60.1157 61.5853 60.4477 60.9614 60.9332 60.4676L60.8344 60.3706ZM63.5078 65.1808C63.0765 65.1808 62.6549 65.0529 62.2962 64.8132L62.2193 64.9284C62.6007 65.1832 63.0491 65.3192 63.5078 65.3192V65.1808ZM62.2962 64.8132C61.9376 64.5736 61.6581 64.233 61.493 63.8345L61.3651 63.8875C61.5407 64.3113 61.8379 64.6735 62.2193 64.9284L62.2962 64.8132ZM61.493 63.8345C61.328 63.4361 61.2848 62.9976 61.3689 62.5746L61.2331 62.5475C61.1437 62.9974 61.1896 63.4637 61.3651 63.8875L61.493 63.8345ZM61.3689 62.5746C61.4531 62.1515 61.6608 61.763 61.9658 61.458L61.8679 61.3601C61.5435 61.6844 61.3226 62.0977 61.2331 62.5475L61.3689 62.5746ZM61.9658 61.458C62.2708 61.153 62.6593 60.9453 63.0824 60.8611L63.0554 60.7253C62.6055 60.8148 62.1922 61.0357 61.8679 61.3601L61.9658 61.458ZM63.0824 60.8611C63.5054 60.777 63.9439 60.8202 64.3424 60.9852L64.3953 60.8573C63.9716 60.6818 63.5052 60.6358 63.0554 60.7253L63.0824 60.8611ZM64.3424 60.9852C64.7408 61.1503 65.0814 61.4298 65.3211 61.7884L65.4362 61.7115C65.1813 61.3301 64.8191 61.0329 64.3953 60.8573L64.3424 60.9852ZM65.3211 61.7884C65.5607 62.1471 65.6886 62.5687 65.6886 63H65.827C65.827 62.5413 65.691 62.0929 65.4362 61.7115L65.3211 61.7884ZM65.6886 62.9999C65.6877 63.578 65.4577 64.1323 65.0489 64.5411L65.1468 64.639C65.5815 64.2043 65.8261 63.6149 65.827 63.0001L65.6886 62.9999ZM65.0489 64.5411C64.6401 64.9499 64.0859 65.1799 63.5077 65.1808L63.5079 65.3192C64.1227 65.3183 64.7121 65.0737 65.1468 64.639L65.0489 64.5411ZM35.7578 20.3192H37.2578V20.1808H35.7578V20.3192ZM62.6989 59.483L64.1971 59.4584L64.1949 59.32L62.6967 59.3446L62.6989 59.483ZM47.7578 56.3951H49.2578V56.2567H47.7578V56.3951ZM41.7645 62.2511L41.7885 63.7511L41.9269 63.7489L41.9029 62.2489L41.7645 62.2511ZM13.1755 63.7501L13.177 62.2501L13.0386 62.2499L13.0371 63.7499L13.1755 63.7501ZM8.75781 59.4692H10.2593V59.3308H8.75781V59.4692Z" fill="white" mask="url(#path-2-inside-2_1760_48864)"/>
</svg>
