<svg width="73" height="72" viewBox="0 0 73 72" fill="none" xmlns="http://www.w3.org/2000/svg">
<mask id="path-1-inside-1_1760_48831" fill="white">
<path fill-rule="evenodd" clip-rule="evenodd" d="M63.0263 32.2119C62.9004 32.2117 62.7757 32.1877 62.6587 32.1411L55.1458 29.1519C54.9643 29.0799 54.8079 28.9561 54.6961 28.796C54.5844 28.6358 54.5221 28.4464 54.5171 28.2512C54.5121 28.056 54.5646 27.8636 54.6681 27.6979C54.7715 27.5323 54.9213 27.4007 55.0989 27.3195C55.8375 26.9796 56.4177 26.3694 56.7201 25.6147C56.8735 25.2282 56.9493 24.8153 56.943 24.3996C56.9367 23.9839 56.8486 23.5735 56.6836 23.1918C56.5186 22.8102 56.28 22.4648 55.9814 22.1755C55.6828 21.8861 55.3301 21.6584 54.9435 21.5055C54.1636 21.1953 53.2925 21.2072 52.5213 21.5386C51.7502 21.87 51.142 22.4938 50.8303 23.2731C50.6779 23.6447 50.6001 24.0426 50.6015 24.4442C50.6028 24.8458 50.6833 25.2432 50.8383 25.6137C50.9156 25.7946 50.9376 25.9944 50.9014 26.1879C50.8653 26.3813 50.7727 26.5597 50.6354 26.7006C50.498 26.8415 50.322 26.9385 50.1295 26.9795C49.9371 27.0205 49.7368 27.0036 49.554 26.9309L42.0122 23.9337C41.8904 23.8854 41.7794 23.8136 41.6854 23.7223C41.5914 23.631 41.5164 23.5221 41.4646 23.4018C41.4127 23.2815 41.3851 23.1521 41.3834 23.0211C41.3816 22.8901 41.4057 22.7601 41.4542 22.6384L43.7778 16.7945C43.1292 16.7909 42.487 16.6655 41.8846 16.4248C41.1818 16.1426 40.5498 15.7091 40.0334 15.1551C39.517 14.6011 39.129 13.9402 38.8968 13.2193C38.6646 12.4984 38.594 11.7353 38.6901 10.9841C38.7861 10.2328 39.0463 9.51194 39.4523 8.87262C39.8583 8.2333 40.4001 7.69122 41.0392 7.28489C41.6783 6.87855 42.3991 6.61793 43.1503 6.52154C43.9014 6.42514 44.6646 6.49533 45.3856 6.72713C46.1066 6.95893 46.7677 7.34664 47.322 7.86273L49.6516 2.01085C49.7 1.88918 49.7719 1.77824 49.8633 1.68438C49.9546 1.59052 50.0635 1.51558 50.1838 1.46385C50.3041 1.41212 50.4334 1.38461 50.5644 1.3829C50.6953 1.38118 50.8253 1.4053 50.9469 1.45386L69.771 8.93586C70.4988 9.2262 71.0818 9.79324 71.3922 10.5127C71.7026 11.2322 71.7151 12.0453 71.427 12.774L63.954 31.5772C63.8812 31.764 63.7537 31.9246 63.5882 32.0378C63.4227 32.151 63.2269 32.2117 63.0263 32.2119ZM57.5461 27.9652L62.4674 29.9201L69.5727 12.0426C69.6634 11.8051 69.6578 11.5415 69.5571 11.3079C69.4565 11.0744 69.2686 10.8894 69.0337 10.7922L51.1362 3.67385L48.5177 10.275C48.4455 10.4572 48.3213 10.614 48.1604 10.7258C47.9996 10.8377 47.8094 10.8997 47.6136 10.9041C47.4177 10.9084 47.2249 10.855 47.0593 10.7504C46.8936 10.6457 46.7625 10.4946 46.6823 10.3159C46.4247 9.75144 46.0069 9.27516 45.4808 8.94623C44.9547 8.61729 44.3435 8.45021 43.7233 8.46575C43.103 8.48128 42.501 8.67875 41.9921 9.0336C41.4831 9.38846 41.0896 9.88506 40.8606 10.4617C40.6315 11.0383 40.577 11.6695 40.7037 12.2769C40.8304 12.8843 41.1329 13.441 41.5734 13.8779C42.0139 14.3149 42.5731 14.6127 43.1815 14.7344C43.7899 14.8561 44.4207 14.7964 44.9954 14.5626C45.1763 14.4881 45.3752 14.4685 45.5672 14.5063C45.7591 14.5441 45.9357 14.6376 46.075 14.7751C46.2141 14.9126 46.3098 15.088 46.3499 15.2795C46.3901 15.471 46.373 15.6701 46.3007 15.8519L43.6742 22.4471L48.6084 24.409C48.6118 23.5673 48.8207 22.7391 49.2171 21.9965C49.6135 21.2539 50.1852 20.6194 50.8827 20.1482C51.5802 19.6769 52.3822 19.3832 53.2191 19.2925C54.0559 19.2018 54.9022 19.317 55.6844 19.6279C56.4667 19.9388 57.1611 20.4362 57.7073 21.0766C58.2535 21.7171 58.635 22.4813 58.8186 23.3027C59.0022 24.1242 58.9823 24.9781 58.7607 25.7902C58.5392 26.6022 58.1225 27.3478 57.5471 27.9622L57.5461 27.9652ZM59.4909 40.2581H51.119C51.5705 39.2955 51.7717 38.2345 51.704 37.1734C51.6362 36.1123 51.3017 35.0855 50.7315 34.1881C50.1612 33.2908 49.3736 32.5519 48.4418 32.0399C47.5099 31.528 46.4638 31.2596 45.4006 31.2596C44.3374 31.2596 43.2913 31.528 42.3594 32.0399C41.4276 32.5519 40.64 33.2908 40.0697 34.1881C39.4995 35.0855 39.165 36.1123 39.0972 37.1734C39.0295 38.2345 39.2307 39.2955 39.6822 40.2581H32.2192V30.9337C32.2199 30.7372 32.1625 30.5448 32.0542 30.3808C31.9459 30.2168 31.7915 30.0885 31.6105 30.012C31.4294 29.9355 31.2298 29.9143 31.0367 29.951C30.8436 29.9877 30.6657 30.0807 30.5253 30.2183C29.7231 30.9917 28.6503 31.4208 27.5361 31.414C26.3923 31.414 25.2955 30.9597 24.4867 30.1509C23.678 29.3422 23.2236 28.2453 23.2236 27.1016C23.2236 25.9579 23.678 24.861 24.4867 24.0522C25.2955 23.2435 26.3923 22.7891 27.5361 22.7891C28.651 22.7837 29.7239 23.2146 30.5253 23.9898C30.6657 24.1274 30.8436 24.2204 31.0367 24.2571C31.2298 24.2938 31.4294 24.2726 31.6105 24.1961C31.7915 24.1197 31.9459 23.9913 32.0542 23.8273C32.1625 23.6633 32.2199 23.4709 32.2192 23.2744V12.9437C32.2192 12.6794 32.1142 12.426 31.9273 12.2391C31.7405 12.0522 31.487 11.9473 31.2228 11.9473H5.40494C4.47576 11.9459 3.58397 12.3132 2.92517 12.9684C2.26636 13.6237 1.89432 14.5135 1.89062 15.4427V67.1072C1.89274 68.0378 2.26396 68.9295 2.92282 69.5867C3.58168 70.2439 4.47436 70.6128 5.40494 70.6126H57.0605C57.9886 70.6104 58.878 70.2401 59.5333 69.5829C60.1887 68.9257 60.5564 68.0353 60.5559 67.1072V41.4821C60.5739 41.4068 60.5832 41.329 60.5832 41.2503C60.5832 40.986 60.4783 40.7326 60.2914 40.5457C60.1045 40.3589 59.8511 40.2539 59.5868 40.2539H59.5779C59.5488 40.254 59.5198 40.2554 59.4909 40.2581ZM49.3596 42.2459H58.5631V67.1072C58.5639 67.5069 58.4062 67.8906 58.1245 68.1741C57.8428 68.4576 57.4602 68.6179 57.0605 68.6197H32.2506V61.1292C33.0845 61.524 34.0027 61.734 34.9422 61.7337C35.9747 61.7327 36.9911 61.4783 37.9024 60.993C38.8136 60.5076 39.5919 59.806 40.1689 58.9498C40.7458 58.0936 41.1039 57.1089 41.2116 56.0821C41.3194 55.0552 41.1735 54.0177 40.7869 53.0603C40.4002 52.103 39.7846 51.2552 38.9939 50.5912C38.2033 49.9272 37.2618 49.4674 36.252 49.2521C35.2422 49.0367 34.1951 49.0724 33.2023 49.3561C32.8666 49.452 32.5405 49.5753 32.2272 49.7242V42.2429H41.5764C41.7724 42.2423 41.9638 42.1839 42.1267 42.0751C42.2897 41.9663 42.4169 41.8118 42.4925 41.631C42.5681 41.4502 42.5888 41.2512 42.5518 41.0587C42.5149 40.8663 42.422 40.689 42.2849 40.549C41.5094 39.7587 41.0793 38.6929 41.0892 37.5857C41.0902 36.8816 41.2637 36.1884 41.5944 35.5667C41.9251 34.945 42.403 34.4138 42.9864 34.0194C43.5698 33.6251 44.2408 33.3795 44.941 33.3043C45.6411 33.2291 46.349 33.3265 47.0028 33.5879C47.6567 33.8494 48.2365 34.267 48.6917 34.8042C49.147 35.3415 49.4637 35.982 49.6143 36.6699C49.7649 37.3578 49.7447 38.072 49.5556 38.7503C49.3719 39.4091 49.0343 40.0144 48.571 40.5165C48.496 40.5841 48.4315 40.6631 48.3798 40.7508C48.2886 40.9059 48.241 41.0827 48.2422 41.2627C48.2438 41.5259 48.3495 41.7778 48.5362 41.9634C48.7228 42.1489 48.9754 42.2531 49.2386 42.2531C49.2792 42.2532 49.3196 42.2508 49.3596 42.2459ZM31.16 52.5913C30.9216 52.5743 30.6963 52.472 30.5262 52.3019C30.3394 52.1151 30.2344 51.8616 30.2344 51.5974V42.2467H22.786C23.1824 43.0827 23.3911 44.0047 23.3858 44.9473C23.3816 46.6186 22.7151 48.2202 21.5323 49.4011C20.3495 50.582 18.7469 51.246 17.0756 51.2475C15.8371 51.2479 14.626 50.8832 13.5936 50.1991C12.5612 49.515 11.7533 48.5418 11.2709 47.4011C10.7886 46.2604 10.6531 45.0029 10.8815 43.7856C10.9815 43.2526 11.1493 42.7376 11.3788 42.2526H3.88343V67.1072C3.88528 67.5093 4.04646 67.8943 4.33165 68.1779C4.61685 68.4614 5.0028 68.6203 5.40494 68.6197H30.2578V59.434C30.2445 59.3737 30.2368 59.3122 30.2349 59.2502C30.2307 59.1172 30.2533 58.9847 30.3011 58.8606C30.349 58.7365 30.4213 58.6232 30.5136 58.5274C30.606 58.4317 30.7166 58.3554 30.8389 58.303C30.9612 58.2507 31.0928 58.2234 31.2258 58.2228C31.3376 58.2222 31.4486 58.2405 31.554 58.2766C31.7053 58.3244 31.8445 58.408 31.9588 58.5223C31.9863 58.5498 32.012 58.5788 32.0359 58.609C32.6272 59.1451 33.3565 59.507 34.1428 59.6531C34.9717 59.8071 35.8277 59.7146 36.6045 59.3868C37.3814 59.0591 38.045 58.5107 38.5131 57.8095C38.9813 57.1082 39.2334 56.2851 39.2383 55.4419C39.2431 54.5988 39.0005 53.7728 38.5404 53.0662C38.0803 52.3597 37.4231 51.8036 36.65 51.467C35.877 51.1304 35.0222 51.028 34.1915 51.1725C33.3609 51.3169 32.5909 51.702 31.9769 52.2799C31.8406 52.4254 31.6638 52.5267 31.4693 52.5707C31.3673 52.5938 31.263 52.6005 31.16 52.5913ZM14.2585 41.2397C14.2542 41.0148 14.1739 40.7991 14.0326 40.6268C14.0114 40.6007 13.9887 40.5756 13.9647 40.5516C13.7778 40.3647 13.5244 40.2598 13.2601 40.2598H3.88343V15.4427C3.88659 15.0418 4.04851 14.6586 4.33371 14.377C4.6189 14.0953 5.00412 13.9382 5.40494 13.9401H30.2264V21.3862C29.2655 20.9368 28.2067 20.737 27.1481 20.8055C26.0895 20.8739 25.0653 21.2084 24.1703 21.7778C23.2753 22.3473 22.5384 23.1333 22.0279 24.0632C21.5174 24.9931 21.2498 26.0368 21.2498 27.0976C21.2498 28.1584 21.5174 29.2021 22.0279 30.132C22.5384 31.0618 23.2753 31.8479 24.1703 32.4174C25.0653 32.9868 26.0895 33.3212 27.1481 33.3897C28.2067 33.4581 29.2655 33.2584 30.2264 32.809V40.2539H21.0844C21.0236 40.2405 20.9615 40.2327 20.8989 40.2309C20.7647 40.227 20.6311 40.2502 20.5061 40.2991C20.3811 40.3481 20.2673 40.4218 20.1715 40.5159C20.0757 40.6099 19.9999 40.7223 19.9487 40.8464C19.8974 40.9705 19.8718 41.1036 19.8732 41.2378C19.8747 41.3721 19.9033 41.5046 19.9573 41.6275C20.0112 41.7504 20.0895 41.8612 20.1873 41.9531C20.9676 42.7515 21.4009 43.8259 21.393 44.9423C21.3909 46.0867 20.9347 47.1836 20.1247 47.9921C19.3147 48.8006 18.217 49.2547 17.0726 49.2547C16.2261 49.2545 15.3984 49.0049 14.6929 48.5371C13.9874 48.0692 13.4354 47.4039 13.1059 46.6241C12.7764 45.8444 12.6839 44.9848 12.84 44.1529C12.9961 43.3209 13.3939 42.5533 13.9837 41.9461C14.1648 41.756 14.2635 41.5022 14.2585 41.2397Z"/>
</mask>
<path fill-rule="evenodd" clip-rule="evenodd" d="M63.0263 32.2119C62.9004 32.2117 62.7757 32.1877 62.6587 32.1411L55.1458 29.1519C54.9643 29.0799 54.8079 28.9561 54.6961 28.796C54.5844 28.6358 54.5221 28.4464 54.5171 28.2512C54.5121 28.056 54.5646 27.8636 54.6681 27.6979C54.7715 27.5323 54.9213 27.4007 55.0989 27.3195C55.8375 26.9796 56.4177 26.3694 56.7201 25.6147C56.8735 25.2282 56.9493 24.8153 56.943 24.3996C56.9367 23.9839 56.8486 23.5735 56.6836 23.1918C56.5186 22.8102 56.28 22.4648 55.9814 22.1755C55.6828 21.8861 55.3301 21.6584 54.9435 21.5055C54.1636 21.1953 53.2925 21.2072 52.5213 21.5386C51.7502 21.87 51.142 22.4938 50.8303 23.2731C50.6779 23.6447 50.6001 24.0426 50.6015 24.4442C50.6028 24.8458 50.6833 25.2432 50.8383 25.6137C50.9156 25.7946 50.9376 25.9944 50.9014 26.1879C50.8653 26.3813 50.7727 26.5597 50.6354 26.7006C50.498 26.8415 50.322 26.9385 50.1295 26.9795C49.9371 27.0205 49.7368 27.0036 49.554 26.9309L42.0122 23.9337C41.8904 23.8854 41.7794 23.8136 41.6854 23.7223C41.5914 23.631 41.5164 23.5221 41.4646 23.4018C41.4127 23.2815 41.3851 23.1521 41.3834 23.0211C41.3816 22.8901 41.4057 22.7601 41.4542 22.6384L43.7778 16.7945C43.1292 16.7909 42.487 16.6655 41.8846 16.4248C41.1818 16.1426 40.5498 15.7091 40.0334 15.1551C39.517 14.6011 39.129 13.9402 38.8968 13.2193C38.6646 12.4984 38.594 11.7353 38.6901 10.9841C38.7861 10.2328 39.0463 9.51194 39.4523 8.87262C39.8583 8.2333 40.4001 7.69122 41.0392 7.28489C41.6783 6.87855 42.3991 6.61793 43.1503 6.52154C43.9014 6.42514 44.6646 6.49533 45.3856 6.72713C46.1066 6.95893 46.7677 7.34664 47.322 7.86273L49.6516 2.01085C49.7 1.88918 49.7719 1.77824 49.8633 1.68438C49.9546 1.59052 50.0635 1.51558 50.1838 1.46385C50.3041 1.41212 50.4334 1.38461 50.5644 1.3829C50.6953 1.38118 50.8253 1.4053 50.9469 1.45386L69.771 8.93586C70.4988 9.2262 71.0818 9.79324 71.3922 10.5127C71.7026 11.2322 71.7151 12.0453 71.427 12.774L63.954 31.5772C63.8812 31.764 63.7537 31.9246 63.5882 32.0378C63.4227 32.151 63.2269 32.2117 63.0263 32.2119ZM57.5461 27.9652L62.4674 29.9201L69.5727 12.0426C69.6634 11.8051 69.6578 11.5415 69.5571 11.3079C69.4565 11.0744 69.2686 10.8894 69.0337 10.7922L51.1362 3.67385L48.5177 10.275C48.4455 10.4572 48.3213 10.614 48.1604 10.7258C47.9996 10.8377 47.8094 10.8997 47.6136 10.9041C47.4177 10.9084 47.2249 10.855 47.0593 10.7504C46.8936 10.6457 46.7625 10.4946 46.6823 10.3159C46.4247 9.75144 46.0069 9.27516 45.4808 8.94623C44.9547 8.61729 44.3435 8.45021 43.7233 8.46575C43.103 8.48128 42.501 8.67875 41.9921 9.0336C41.4831 9.38846 41.0896 9.88506 40.8606 10.4617C40.6315 11.0383 40.577 11.6695 40.7037 12.2769C40.8304 12.8843 41.1329 13.441 41.5734 13.8779C42.0139 14.3149 42.5731 14.6127 43.1815 14.7344C43.7899 14.8561 44.4207 14.7964 44.9954 14.5626C45.1763 14.4881 45.3752 14.4685 45.5672 14.5063C45.7591 14.5441 45.9357 14.6376 46.075 14.7751C46.2141 14.9126 46.3098 15.088 46.3499 15.2795C46.3901 15.471 46.373 15.6701 46.3007 15.8519L43.6742 22.4471L48.6084 24.409C48.6118 23.5673 48.8207 22.7391 49.2171 21.9965C49.6135 21.2539 50.1852 20.6194 50.8827 20.1482C51.5802 19.6769 52.3822 19.3832 53.2191 19.2925C54.0559 19.2018 54.9022 19.317 55.6844 19.6279C56.4667 19.9388 57.1611 20.4362 57.7073 21.0766C58.2535 21.7171 58.635 22.4813 58.8186 23.3027C59.0022 24.1242 58.9823 24.9781 58.7607 25.7902C58.5392 26.6022 58.1225 27.3478 57.5471 27.9622L57.5461 27.9652ZM59.4909 40.2581H51.119C51.5705 39.2955 51.7717 38.2345 51.704 37.1734C51.6362 36.1123 51.3017 35.0855 50.7315 34.1881C50.1612 33.2908 49.3736 32.5519 48.4418 32.0399C47.5099 31.528 46.4638 31.2596 45.4006 31.2596C44.3374 31.2596 43.2913 31.528 42.3594 32.0399C41.4276 32.5519 40.64 33.2908 40.0697 34.1881C39.4995 35.0855 39.165 36.1123 39.0972 37.1734C39.0295 38.2345 39.2307 39.2955 39.6822 40.2581H32.2192V30.9337C32.2199 30.7372 32.1625 30.5448 32.0542 30.3808C31.9459 30.2168 31.7915 30.0885 31.6105 30.012C31.4294 29.9355 31.2298 29.9143 31.0367 29.951C30.8436 29.9877 30.6657 30.0807 30.5253 30.2183C29.7231 30.9917 28.6503 31.4208 27.5361 31.414C26.3923 31.414 25.2955 30.9597 24.4867 30.1509C23.678 29.3422 23.2236 28.2453 23.2236 27.1016C23.2236 25.9579 23.678 24.861 24.4867 24.0522C25.2955 23.2435 26.3923 22.7891 27.5361 22.7891C28.651 22.7837 29.7239 23.2146 30.5253 23.9898C30.6657 24.1274 30.8436 24.2204 31.0367 24.2571C31.2298 24.2938 31.4294 24.2726 31.6105 24.1961C31.7915 24.1197 31.9459 23.9913 32.0542 23.8273C32.1625 23.6633 32.2199 23.4709 32.2192 23.2744V12.9437C32.2192 12.6794 32.1142 12.426 31.9273 12.2391C31.7405 12.0522 31.487 11.9473 31.2228 11.9473H5.40494C4.47576 11.9459 3.58397 12.3132 2.92517 12.9684C2.26636 13.6237 1.89432 14.5135 1.89062 15.4427V67.1072C1.89274 68.0378 2.26396 68.9295 2.92282 69.5867C3.58168 70.2439 4.47436 70.6128 5.40494 70.6126H57.0605C57.9886 70.6104 58.878 70.2401 59.5333 69.5829C60.1887 68.9257 60.5564 68.0353 60.5559 67.1072V41.4821C60.5739 41.4068 60.5832 41.329 60.5832 41.2503C60.5832 40.986 60.4783 40.7326 60.2914 40.5457C60.1045 40.3589 59.8511 40.2539 59.5868 40.2539H59.5779C59.5488 40.254 59.5198 40.2554 59.4909 40.2581ZM49.3596 42.2459H58.5631V67.1072C58.5639 67.5069 58.4062 67.8906 58.1245 68.1741C57.8428 68.4576 57.4602 68.6179 57.0605 68.6197H32.2506V61.1292C33.0845 61.524 34.0027 61.734 34.9422 61.7337C35.9747 61.7327 36.9911 61.4783 37.9024 60.993C38.8136 60.5076 39.5919 59.806 40.1689 58.9498C40.7458 58.0936 41.1039 57.1089 41.2116 56.0821C41.3194 55.0552 41.1735 54.0177 40.7869 53.0603C40.4002 52.103 39.7846 51.2552 38.9939 50.5912C38.2033 49.9272 37.2618 49.4674 36.252 49.2521C35.2422 49.0367 34.1951 49.0724 33.2023 49.3561C32.8666 49.452 32.5405 49.5753 32.2272 49.7242V42.2429H41.5764C41.7724 42.2423 41.9638 42.1839 42.1267 42.0751C42.2897 41.9663 42.4169 41.8118 42.4925 41.631C42.5681 41.4502 42.5888 41.2512 42.5518 41.0587C42.5149 40.8663 42.422 40.689 42.2849 40.549C41.5094 39.7587 41.0793 38.6929 41.0892 37.5857C41.0902 36.8816 41.2637 36.1884 41.5944 35.5667C41.9251 34.945 42.403 34.4138 42.9864 34.0194C43.5698 33.6251 44.2408 33.3795 44.941 33.3043C45.6411 33.2291 46.349 33.3265 47.0028 33.5879C47.6567 33.8494 48.2365 34.267 48.6917 34.8042C49.147 35.3415 49.4637 35.982 49.6143 36.6699C49.7649 37.3578 49.7447 38.072 49.5556 38.7503C49.3719 39.4091 49.0343 40.0144 48.571 40.5165C48.496 40.5841 48.4315 40.6631 48.3798 40.7508C48.2886 40.9059 48.241 41.0827 48.2422 41.2627C48.2438 41.5259 48.3495 41.7778 48.5362 41.9634C48.7228 42.1489 48.9754 42.2531 49.2386 42.2531C49.2792 42.2532 49.3196 42.2508 49.3596 42.2459ZM31.16 52.5913C30.9216 52.5743 30.6963 52.472 30.5262 52.3019C30.3394 52.1151 30.2344 51.8616 30.2344 51.5974V42.2467H22.786C23.1824 43.0827 23.3911 44.0047 23.3858 44.9473C23.3816 46.6186 22.7151 48.2202 21.5323 49.4011C20.3495 50.582 18.7469 51.246 17.0756 51.2475C15.8371 51.2479 14.626 50.8832 13.5936 50.1991C12.5612 49.515 11.7533 48.5418 11.2709 47.4011C10.7886 46.2604 10.6531 45.0029 10.8815 43.7856C10.9815 43.2526 11.1493 42.7376 11.3788 42.2526H3.88343V67.1072C3.88528 67.5093 4.04646 67.8943 4.33165 68.1779C4.61685 68.4614 5.0028 68.6203 5.40494 68.6197H30.2578V59.434C30.2445 59.3737 30.2368 59.3122 30.2349 59.2502C30.2307 59.1172 30.2533 58.9847 30.3011 58.8606C30.349 58.7365 30.4213 58.6232 30.5136 58.5274C30.606 58.4317 30.7166 58.3554 30.8389 58.303C30.9612 58.2507 31.0928 58.2234 31.2258 58.2228C31.3376 58.2222 31.4486 58.2405 31.554 58.2766C31.7053 58.3244 31.8445 58.408 31.9588 58.5223C31.9863 58.5498 32.012 58.5788 32.0359 58.609C32.6272 59.1451 33.3565 59.507 34.1428 59.6531C34.9717 59.8071 35.8277 59.7146 36.6045 59.3868C37.3814 59.0591 38.045 58.5107 38.5131 57.8095C38.9813 57.1082 39.2334 56.2851 39.2383 55.4419C39.2431 54.5988 39.0005 53.7728 38.5404 53.0662C38.0803 52.3597 37.4231 51.8036 36.65 51.467C35.877 51.1304 35.0222 51.028 34.1915 51.1725C33.3609 51.3169 32.5909 51.702 31.9769 52.2799C31.8406 52.4254 31.6638 52.5267 31.4693 52.5707C31.3673 52.5938 31.263 52.6005 31.16 52.5913ZM14.2585 41.2397C14.2542 41.0148 14.1739 40.7991 14.0326 40.6268C14.0114 40.6007 13.9887 40.5756 13.9647 40.5516C13.7778 40.3647 13.5244 40.2598 13.2601 40.2598H3.88343V15.4427C3.88659 15.0418 4.04851 14.6586 4.33371 14.377C4.6189 14.0953 5.00412 13.9382 5.40494 13.9401H30.2264V21.3862C29.2655 20.9368 28.2067 20.737 27.1481 20.8055C26.0895 20.8739 25.0653 21.2084 24.1703 21.7778C23.2753 22.3473 22.5384 23.1333 22.0279 24.0632C21.5174 24.9931 21.2498 26.0368 21.2498 27.0976C21.2498 28.1584 21.5174 29.2021 22.0279 30.132C22.5384 31.0618 23.2753 31.8479 24.1703 32.4174C25.0653 32.9868 26.0895 33.3212 27.1481 33.3897C28.2067 33.4581 29.2655 33.2584 30.2264 32.809V40.2539H21.0844C21.0236 40.2405 20.9615 40.2327 20.8989 40.2309C20.7647 40.227 20.6311 40.2502 20.5061 40.2991C20.3811 40.3481 20.2673 40.4218 20.1715 40.5159C20.0757 40.6099 19.9999 40.7223 19.9487 40.8464C19.8974 40.9705 19.8718 41.1036 19.8732 41.2378C19.8747 41.3721 19.9033 41.5046 19.9573 41.6275C20.0112 41.7504 20.0895 41.8612 20.1873 41.9531C20.9676 42.7515 21.4009 43.8259 21.393 44.9423C21.3909 46.0867 20.9347 47.1836 20.1247 47.9921C19.3147 48.8006 18.217 49.2547 17.0726 49.2547C16.2261 49.2545 15.3984 49.0049 14.6929 48.5371C13.9874 48.0692 13.4354 47.4039 13.1059 46.6241C12.7764 45.8444 12.6839 44.9848 12.84 44.1529C12.9961 43.3209 13.3939 42.5533 13.9837 41.9461C14.1648 41.756 14.2635 41.5022 14.2585 41.2397Z" fill="white"/>
<path d="M62.6587 32.1411L62.7611 31.8839L62.761 31.8838L62.6587 32.1411ZM63.0263 32.2119L63.026 32.4888L63.0266 32.4888L63.0263 32.2119ZM55.1458 29.1519L55.2481 28.8946L55.2479 28.8945L55.1458 29.1519ZM54.6961 28.796L54.9232 28.6375V28.6375L54.6961 28.796ZM54.5171 28.2512L54.2403 28.2583L54.5171 28.2512ZM54.6681 27.6979L54.4332 27.5513L54.4332 27.5513L54.6681 27.6979ZM55.0989 27.3195L55.2141 27.5714L55.2147 27.5711L55.0989 27.3195ZM56.7201 25.6147L56.9772 25.7177L56.9775 25.7169L56.7201 25.6147ZM56.6836 23.1918L56.4294 23.3017V23.3017L56.6836 23.1918ZM55.9814 22.1755L56.1741 21.9766V21.9766L55.9814 22.1755ZM54.9435 21.5055L54.8412 21.7628L54.8416 21.763L54.9435 21.5055ZM52.5213 21.5386L52.412 21.2841L52.5213 21.5386ZM50.8303 23.2731L51.0865 23.3783L51.0875 23.3759L50.8303 23.2731ZM50.6015 24.4442L50.8784 24.4432V24.4432L50.6015 24.4442ZM50.8383 25.6137L50.5829 25.7206L50.5836 25.7224L50.8383 25.6137ZM50.9014 26.1879L51.1737 26.2387V26.2387L50.9014 26.1879ZM50.6354 26.7006L50.8336 26.8939V26.8939L50.6354 26.7006ZM50.1295 26.9795L50.1872 27.2504H50.1872L50.1295 26.9795ZM49.554 26.9309L49.6562 26.6736L49.6562 26.6736L49.554 26.9309ZM42.0122 23.9337L42.1144 23.6764L42.1143 23.6763L42.0122 23.9337ZM41.6854 23.7223L41.8784 23.5237V23.5237L41.6854 23.7223ZM41.4646 23.4018L41.7189 23.2922L41.7189 23.2922L41.4646 23.4018ZM41.4542 22.6384L41.7114 22.741L41.7115 22.7407L41.4542 22.6384ZM43.7778 16.7945L44.0351 16.8968L44.185 16.5199L43.7794 16.5176L43.7778 16.7945ZM41.8846 16.4248L41.7814 16.6818L41.7819 16.682L41.8846 16.4248ZM40.0334 15.1551L39.8308 15.3439L40.0334 15.1551ZM38.8968 13.2193L39.1604 13.1344V13.1344L38.8968 13.2193ZM38.6901 10.9841L38.4154 10.9489V10.949L38.6901 10.9841ZM39.4523 8.87262L39.6861 9.02108V9.02108L39.4523 8.87262ZM43.1503 6.52154L43.1855 6.79621L43.1503 6.52154ZM47.322 7.86273L47.1333 8.0654L47.4296 8.34127L47.5793 7.96516L47.322 7.86273ZM49.6516 2.01085L49.9089 2.11328L49.9089 2.11323L49.6516 2.01085ZM49.8633 1.68438L49.6648 1.49127V1.49127L49.8633 1.68438ZM50.1838 1.46385L50.0744 1.20945L50.1838 1.46385ZM50.5644 1.3829L50.568 1.6598L50.5644 1.3829ZM50.9469 1.45386L50.8442 1.71104L50.8446 1.7112L50.9469 1.45386ZM69.771 8.93586L69.8736 8.67865L69.8733 8.67852L69.771 8.93586ZM71.3922 10.5127L71.1379 10.6224V10.6224L71.3922 10.5127ZM71.427 12.774L71.6844 12.8763L71.6845 12.8758L71.427 12.774ZM63.954 31.5772L63.6966 31.4749L63.696 31.4766L63.954 31.5772ZM63.5882 32.0378L63.4318 31.8092L63.4318 31.8092L63.5882 32.0378ZM62.4674 29.9201L62.3651 30.1775L62.6224 30.2797L62.7247 30.0224L62.4674 29.9201ZM57.5461 27.9652L57.2835 27.8774L57.2004 28.1258L57.4439 28.2225L57.5461 27.9652ZM69.5727 12.0426L69.8301 12.1449L69.8314 12.1414L69.5727 12.0426ZM69.5571 11.3079L69.8114 11.1983L69.5571 11.3079ZM69.0337 10.7922L69.1395 10.5362L69.136 10.5348L69.0337 10.7922ZM51.1362 3.67385L51.2386 3.41653L50.981 3.3141L50.8788 3.57174L51.1362 3.67385ZM48.5177 10.275L48.2603 10.1729L48.2603 10.173L48.5177 10.275ZM47.6136 10.9041L47.6074 10.6272H47.6074L47.6136 10.9041ZM46.6823 10.3159L46.935 10.2025L46.9342 10.2009L46.6823 10.3159ZM45.4808 8.94623L45.6276 8.71142V8.71142L45.4808 8.94623ZM43.7233 8.46575L43.7302 8.74258L43.7233 8.46575ZM41.9921 9.0336L41.8337 8.80644V8.80644L41.9921 9.0336ZM40.8606 10.4617L41.1179 10.5639L40.8606 10.4617ZM40.7037 12.2769L40.4326 12.3335V12.3335L40.7037 12.2769ZM41.5734 13.8779L41.7684 13.6813L41.7684 13.6813L41.5734 13.8779ZM44.9954 14.5626L45.0998 14.8191L45.1008 14.8186L44.9954 14.5626ZM45.5672 14.5063L45.6207 14.2346L45.5672 14.5063ZM46.075 14.7751L46.2696 14.578L46.2696 14.578L46.075 14.7751ZM46.3499 15.2795L46.621 15.2227L46.3499 15.2795ZM46.3007 15.8519L46.558 15.9544L46.558 15.9542L46.3007 15.8519ZM43.6742 22.4471L43.4169 22.3446L43.3144 22.6021L43.5719 22.7044L43.6742 22.4471ZM48.6084 24.409L48.5061 24.6663L48.8837 24.8165L48.8853 24.4101L48.6084 24.409ZM49.2171 21.9965L48.9728 21.8661L48.9728 21.8661L49.2171 21.9965ZM50.8827 20.1482L51.0377 20.3776L50.8827 20.1482ZM55.6844 19.6279L55.7867 19.3706L55.6844 19.6279ZM58.8186 23.3027L59.0889 23.2423V23.2423L58.8186 23.3027ZM58.7607 25.7902L58.4936 25.7173L58.7607 25.7902ZM57.5471 27.9622L57.345 27.7729L57.3036 27.817L57.2845 27.8744L57.5471 27.9622ZM51.119 40.2581L50.8683 40.1405L50.6832 40.535H51.119V40.2581ZM59.4909 40.2581V40.535H59.5037L59.5163 40.5339L59.4909 40.2581ZM51.704 37.1734L51.4276 37.191L51.704 37.1734ZM50.7315 34.1881L50.4978 34.3367L50.7315 34.1881ZM48.4418 32.0399L48.3084 32.2826L48.4418 32.0399ZM42.3594 32.0399L42.2261 31.7972L42.3594 32.0399ZM40.0697 34.1881L40.3035 34.3367L40.0697 34.1881ZM39.0972 37.1734L39.3736 37.191L39.0972 37.1734ZM39.6822 40.2581V40.535H40.118L39.933 40.1405L39.6822 40.2581ZM32.2192 40.2581H31.9423V40.535H32.2192V40.2581ZM32.2192 30.9337L31.9423 30.9327V30.9337H32.2192ZM31.6105 30.012L31.5027 30.2671V30.2671L31.6105 30.012ZM31.0367 29.951L30.9849 29.679H30.9849L31.0367 29.951ZM30.5253 30.2183L30.7175 30.4177L30.7191 30.4161L30.5253 30.2183ZM27.5361 31.414L27.5378 31.1371H27.5361V31.414ZM27.5361 22.7891V23.0661L27.5374 23.0661L27.5361 22.7891ZM30.5253 23.9898L30.7191 23.792L30.7178 23.7908L30.5253 23.9898ZM31.6105 24.1961L31.7182 24.4512H31.7182L31.6105 24.1961ZM32.0542 23.8273L31.8232 23.6747V23.6747L32.0542 23.8273ZM32.2192 23.2744H31.9422L31.9423 23.2755L32.2192 23.2744ZM31.9273 12.2391L32.1231 12.0433V12.0433L31.9273 12.2391ZM5.40494 11.9473L5.40455 12.2242H5.40494V11.9473ZM2.92517 12.9684L2.72988 12.7721H2.72988L2.92517 12.9684ZM1.89062 15.4427L1.6137 15.4416V15.4427H1.89062ZM1.89062 67.1072H1.6137L1.6137 67.1078L1.89062 67.1072ZM2.92282 69.5867L3.11838 69.3906H3.11838L2.92282 69.5867ZM5.40494 70.6126V70.3356H5.40487L5.40494 70.6126ZM57.0605 70.6126V70.8895H57.0612L57.0605 70.6126ZM59.5333 69.5829L59.7294 69.7785H59.7294L59.5333 69.5829ZM60.5559 67.1072H60.279V67.1074L60.5559 67.1072ZM60.5559 41.4821L60.2866 41.4177L60.279 41.4494V41.4821H60.5559ZM59.5779 40.2539V39.977L59.5766 39.977L59.5779 40.2539ZM58.5631 42.2459H58.84V41.969H58.5631V42.2459ZM49.3596 42.2459V41.969H49.3428L49.3262 41.971L49.3596 42.2459ZM58.5631 67.1072H58.2862V67.1078L58.5631 67.1072ZM58.1245 68.1741L57.928 67.9789H57.928L58.1245 68.1741ZM57.0605 68.6197V68.8967L57.0618 68.8967L57.0605 68.6197ZM32.2506 68.6197H31.9737V68.8967H32.2506V68.6197ZM32.2506 61.1292L32.3691 60.8789L31.9737 60.6917V61.1292H32.2506ZM34.9422 61.7337L34.9423 62.0107H34.9425L34.9422 61.7337ZM40.1689 58.9498L39.9392 58.7951L40.1689 58.9498ZM41.2116 56.0821L41.4871 56.111L41.2116 56.0821ZM40.7869 53.0603L40.5301 53.164L40.7869 53.0603ZM38.9939 50.5912L38.8158 50.8033L38.9939 50.5912ZM36.252 49.2521L36.3098 48.9812L36.252 49.2521ZM33.2023 49.3561L33.2784 49.6223L33.2023 49.3561ZM32.2272 49.7242H31.9503V50.1624L32.3461 49.9743L32.2272 49.7242ZM32.2272 42.2429V41.966H31.9503V42.2429H32.2272ZM41.5764 42.2429V42.5199L41.5773 42.5199L41.5764 42.2429ZM42.1267 42.0751L41.9729 41.8448V41.8448L42.1267 42.0751ZM42.4925 41.631L42.748 41.7379V41.7378L42.4925 41.631ZM42.5518 41.0587L42.2799 41.1109V41.1109L42.5518 41.0587ZM42.2849 40.549L42.4826 40.3552L42.4825 40.3551L42.2849 40.549ZM41.0892 37.5857L41.3661 37.5882L41.3661 37.5862L41.0892 37.5857ZM41.5944 35.5667L41.8389 35.6968L41.5944 35.5667ZM42.9864 34.0194L42.8313 33.79V33.79L42.9864 34.0194ZM44.941 33.3043L44.9705 33.5797L44.941 33.3043ZM47.0028 33.5879L46.9 33.8451H46.9L47.0028 33.5879ZM48.6917 34.8042L48.4805 34.9832L48.6917 34.8042ZM49.5556 38.7503L49.8223 38.8247V38.8247L49.5556 38.7503ZM48.571 40.5165L48.7565 40.7221L48.7659 40.7136L48.7745 40.7043L48.571 40.5165ZM48.3798 40.7508L48.1412 40.6104L48.1412 40.6104L48.3798 40.7508ZM48.2422 41.2627L48.5191 41.261V41.2608L48.2422 41.2627ZM48.5362 41.9634L48.7314 41.767V41.7669L48.5362 41.9634ZM49.2386 42.2531L49.2395 41.9762H49.2386L49.2386 42.2531ZM31.16 52.5913L31.1849 52.3154L31.1797 52.315L31.16 52.5913ZM30.5262 52.3019L30.722 52.1061L30.722 52.1061L30.5262 52.3019ZM30.2344 42.2467H30.5113V41.9698H30.2344V42.2467ZM22.786 42.2467V41.9698H22.3482L22.5358 42.3654L22.786 42.2467ZM23.3858 44.9473L23.1089 44.9457L23.1089 44.9466L23.3858 44.9473ZM21.5323 49.4011L21.728 49.5971L21.5323 49.4011ZM17.0756 51.2475L17.0756 51.5245H17.0758L17.0756 51.2475ZM13.5936 50.1991L13.4406 50.43L13.4406 50.43L13.5936 50.1991ZM11.2709 47.4011L11.0159 47.509H11.0159L11.2709 47.4011ZM10.8815 43.7856L11.1536 43.8367L10.8815 43.7856ZM11.3788 42.2526L11.6291 42.371L11.8162 41.9757H11.3788V42.2526ZM3.88343 42.2526V41.9757H3.60651V42.2526H3.88343ZM3.88343 67.1072H3.60651L3.60651 67.1085L3.88343 67.1072ZM4.33165 68.1779L4.52689 67.9815L4.33165 68.1779ZM5.40494 68.6197V68.3428H5.40457L5.40494 68.6197ZM30.2578 68.6197V68.8967H30.5347V68.6197H30.2578ZM30.2578 59.434H30.5347V59.4038L30.5282 59.3743L30.2578 59.434ZM30.2349 59.2502L30.5116 59.2415L30.2349 59.2502ZM30.3011 58.8606L30.0428 58.7609L30.3011 58.8606ZM30.5136 58.5274L30.3143 58.3352H30.3143L30.5136 58.5274ZM31.2258 58.2228L31.2245 57.9458H31.2245L31.2258 58.2228ZM31.554 58.2766L31.4642 58.5387L31.4707 58.5407L31.554 58.2766ZM31.9588 58.5223L32.1546 58.3265H32.1546L31.9588 58.5223ZM32.0359 58.609L31.8187 58.7807L31.8329 58.7987L31.8499 58.8141L32.0359 58.609ZM34.1428 59.6531L34.0922 59.9254L34.1428 59.6531ZM36.6045 59.3868L36.7122 59.642H36.7122L36.6045 59.3868ZM38.5131 57.8095L38.2828 57.6557L38.5131 57.8095ZM39.2383 55.4419L38.9613 55.4403L39.2383 55.4419ZM36.65 51.467L36.7606 51.2131H36.7606L36.65 51.467ZM34.1915 51.1725L34.239 51.4453L34.1915 51.1725ZM31.9769 52.2799L31.7871 52.0782L31.7807 52.0842L31.7747 52.0906L31.9769 52.2799ZM31.4693 52.5707L31.4082 52.3006L31.4693 52.5707ZM14.0326 40.6268L13.8179 40.8018L13.8185 40.8025L14.0326 40.6268ZM14.2585 41.2397L13.9816 41.245L14.2585 41.2397ZM13.9647 40.5516L14.1605 40.3558L14.1605 40.3558L13.9647 40.5516ZM3.88343 40.2598H3.60651V40.5367H3.88343V40.2598ZM3.88343 15.4427L3.60651 15.4405V15.4427H3.88343ZM4.33371 14.377L4.13912 14.1799L4.13912 14.1799L4.33371 14.377ZM5.40494 13.9401L5.40366 14.217H5.40494V13.9401ZM30.2264 13.9401H30.5033V13.6632H30.2264V13.9401ZM30.2264 21.3862L30.109 21.637L30.5033 21.8214V21.3862H30.2264ZM27.1481 20.8055L27.1302 20.5291L27.1481 20.8055ZM24.1703 21.7778L24.0216 21.5442L24.1703 21.7778ZM24.1703 32.4174L24.0216 32.651L24.1703 32.4174ZM27.1481 33.3897L27.1302 33.666L27.1481 33.3897ZM30.2264 32.809H30.5033V32.3737L30.109 32.5581L30.2264 32.809ZM30.2264 40.2539V40.5308H30.5033V40.2539H30.2264ZM21.0844 40.2539L21.0247 40.5243L21.0542 40.5308H21.0844V40.2539ZM20.8989 40.2309L20.8907 40.5077H20.8907L20.8989 40.2309ZM20.5061 40.2991L20.4051 40.0413L20.4051 40.0413L20.5061 40.2991ZM20.1715 40.5159L19.9775 40.3182L19.9775 40.3183L20.1715 40.5159ZM19.9487 40.8464L20.2046 40.9521L20.2046 40.9521L19.9487 40.8464ZM19.8732 41.2378L20.1501 41.2348L19.8732 41.2378ZM19.9573 41.6275L19.7037 41.7389L19.7037 41.7389L19.9573 41.6275ZM20.1873 41.9531L20.3856 41.7593L20.3769 41.7512L20.1873 41.9531ZM21.393 44.9423L21.1161 44.9403L21.1161 44.9418L21.393 44.9423ZM20.1247 47.9921L20.3204 48.1881L20.1247 47.9921ZM17.0726 49.2547L17.0725 49.5316H17.0726L17.0726 49.2547ZM14.6929 48.5371L14.846 48.3063L14.6929 48.5371ZM12.84 44.1529L13.1122 44.2039L12.84 44.1529ZM13.9837 41.9461L14.1824 42.139L14.1842 42.1371L13.9837 41.9461ZM62.5562 32.3984C62.7057 32.4579 62.8651 32.4886 63.026 32.4888L63.0266 31.9349C62.9357 31.9348 62.8456 31.9175 62.7611 31.8839L62.5562 32.3984ZM55.0434 29.4092L62.5563 32.3984L62.761 31.8838L55.2481 28.8946L55.0434 29.4092ZM54.469 28.9545C54.6119 29.1591 54.8117 29.3173 55.0437 29.4093L55.2479 28.8945C55.1168 28.8425 55.0039 28.7531 54.9232 28.6375L54.469 28.9545ZM54.2403 28.2583C54.2467 28.5077 54.3262 28.7498 54.469 28.9545L54.9232 28.6375C54.8425 28.5219 54.7976 28.3851 54.794 28.2441L54.2403 28.2583ZM54.4332 27.5513C54.301 27.7629 54.2339 28.0088 54.2403 28.2583L54.794 28.2441C54.7904 28.1031 54.8283 27.9642 54.903 27.8446L54.4332 27.5513ZM54.9838 27.0677C54.7568 27.1714 54.5654 27.3396 54.4332 27.5513L54.903 27.8446C54.9776 27.725 55.0858 27.63 55.2141 27.5714L54.9838 27.0677ZM56.463 25.5117C56.187 26.2007 55.6574 26.7576 54.9832 27.068L55.2147 27.5711C56.0177 27.2015 56.6484 26.5382 56.9772 25.7176L56.463 25.5117ZM56.6661 24.4038C56.6718 24.7831 56.6027 25.1599 56.4627 25.5125L56.9775 25.7169C57.1443 25.2966 57.2267 24.8476 57.2199 24.3954L56.6661 24.4038ZM56.4294 23.3017C56.58 23.6499 56.6604 24.0244 56.6661 24.4038L57.2199 24.3954C57.2131 23.9433 57.1172 23.497 56.9378 23.0819L56.4294 23.3017ZM55.7887 22.3743C56.0611 22.6383 56.2789 22.9535 56.4294 23.3017L56.9378 23.0819C56.7583 22.6669 56.4988 22.2913 56.1741 21.9766L55.7887 22.3743ZM54.8416 21.763C55.1944 21.9026 55.5162 22.1103 55.7887 22.3743L56.1741 21.9766C55.8494 21.6619 55.4658 21.4143 55.0454 21.248L54.8416 21.763ZM52.6307 21.793C53.3344 21.4905 54.1294 21.4797 54.8412 21.7628L55.0459 21.2482C54.1978 20.9108 53.2505 20.9238 52.412 21.2841L52.6307 21.793ZM51.0875 23.3759C51.3719 22.6647 51.9269 22.0954 52.6307 21.793L52.412 21.2841C51.5734 21.6445 50.9121 22.3228 50.5732 23.1703L51.0875 23.3759ZM50.8784 24.4432C50.8771 24.078 50.9479 23.7161 51.0865 23.3783L50.5742 23.168C50.4079 23.5732 50.323 24.0072 50.3245 24.4451L50.8784 24.4432ZM51.0938 25.5068C50.9528 25.1699 50.8796 24.8085 50.8784 24.4432L50.3245 24.4451C50.326 24.8831 50.4138 25.3165 50.5829 25.7206L51.0938 25.5068ZM51.1737 26.2387C51.2198 25.9915 51.1917 25.7362 51.093 25.5049L50.5836 25.7224C50.6394 25.8531 50.6553 25.9974 50.6292 26.137L51.1737 26.2387ZM50.8336 26.8939C51.0092 26.7139 51.1275 26.4859 51.1737 26.2387L50.6292 26.137C50.6031 26.2767 50.5363 26.4055 50.4371 26.5072L50.8336 26.8939ZM50.1872 27.2504C50.4332 27.198 50.6581 27.0739 50.8336 26.8939L50.4371 26.5072C50.3379 26.609 50.2108 26.6791 50.0719 26.7087L50.1872 27.2504ZM49.4517 27.1883C49.6854 27.2811 49.9413 27.3027 50.1872 27.2504L50.0719 26.7087C49.9329 26.7383 49.7883 26.7261 49.6562 26.6736L49.4517 27.1883ZM41.9099 24.1911L49.4517 27.1883L49.6562 26.6736L42.1144 23.6764L41.9099 24.1911ZM41.4925 23.9209C41.6125 24.0376 41.7544 24.1294 41.91 24.1911L42.1143 23.6763C42.0264 23.6414 41.9462 23.5896 41.8784 23.5237L41.4925 23.9209ZM41.2102 23.5113C41.2765 23.6651 41.3724 23.8043 41.4925 23.9209L41.8784 23.5237C41.8105 23.4577 41.7563 23.3791 41.7189 23.2922L41.2102 23.5113ZM41.1065 23.0249C41.1087 23.1923 41.144 23.3576 41.2102 23.5113L41.7189 23.2922C41.6815 23.2053 41.6615 23.1119 41.6603 23.0174L41.1065 23.0249ZM41.197 22.5358C41.1349 22.6913 41.1042 22.8575 41.1065 23.0249L41.6603 23.0174C41.659 22.9228 41.6764 22.8289 41.7114 22.741L41.197 22.5358ZM43.5205 16.6922L41.1969 22.5361L41.7115 22.7407L44.0351 16.8968L43.5205 16.6922ZM41.7819 16.682C42.4165 16.9355 43.093 17.0676 43.7762 17.0714L43.7794 16.5176C43.1654 16.5141 42.5575 16.3955 41.9874 16.1677L41.7819 16.682ZM39.8308 15.3439C40.375 15.9277 41.0409 16.3845 41.7814 16.6818L41.9878 16.1679C41.3228 15.9008 40.7247 15.4906 40.236 14.9663L39.8308 15.3439ZM38.6332 13.3042C38.8779 14.0638 39.2867 14.7602 39.8308 15.3439L40.236 14.9663C39.7473 14.442 39.3801 13.8166 39.1604 13.1344L38.6332 13.3042ZM38.4154 10.949C38.3142 11.7405 38.3886 12.5446 38.6332 13.3042L39.1604 13.1344C38.9407 12.4523 38.8739 11.7301 38.9647 11.0192L38.4154 10.949ZM39.2185 8.72417C38.7907 9.39781 38.5165 10.1574 38.4154 10.9489L38.9647 11.0192C39.0556 10.3083 39.3019 9.62607 39.6861 9.02108L39.2185 8.72417ZM40.8906 7.0512C40.2172 7.47934 39.6463 8.05052 39.2185 8.72417L39.6861 9.02108C40.0703 8.41608 40.583 7.9031 41.1878 7.51858L40.8906 7.0512ZM43.115 6.24687C42.3235 6.34844 41.5641 6.62305 40.8906 7.0512L41.1878 7.51858C41.7926 7.13406 42.4746 6.88743 43.1855 6.79621L43.115 6.24687ZM45.4704 6.4635C44.7107 6.21925 43.9065 6.14529 43.115 6.24687L43.1855 6.79621C43.8964 6.70499 44.6186 6.77141 45.3009 6.99076L45.4704 6.4635ZM47.5107 7.66006C46.9267 7.11626 46.2301 6.70774 45.4704 6.4635L45.3009 6.99076C45.9832 7.21012 46.6088 7.57702 47.1333 8.0654L47.5107 7.66006ZM49.3943 1.90843L47.0647 7.76031L47.5793 7.96516L49.9089 2.11328L49.3943 1.90843ZM49.6648 1.49127C49.5481 1.61121 49.4562 1.75298 49.3943 1.90848L49.9089 2.11323C49.9439 2.02537 49.9958 1.94526 50.0617 1.87749L49.6648 1.49127ZM50.0744 1.20945C49.9207 1.27556 49.7815 1.37132 49.6648 1.49127L50.0617 1.87749C50.1277 1.80971 50.2063 1.7556 50.2932 1.71825L50.0744 1.20945ZM50.5608 1.106C50.3934 1.10819 50.2282 1.14334 50.0744 1.20945L50.2932 1.71825C50.3801 1.6809 50.4734 1.66103 50.568 1.6598L50.5608 1.106ZM51.0496 1.19668C50.8942 1.13462 50.7281 1.10381 50.5608 1.106L50.568 1.6598C50.6626 1.65856 50.7564 1.67597 50.8442 1.71104L51.0496 1.19668ZM69.8733 8.67852L51.0492 1.19652L50.8446 1.7112L69.6687 9.1932L69.8733 8.67852ZM71.6465 10.403C71.307 9.61623 70.6695 8.99615 69.8736 8.67865L69.6684 9.19307C70.3281 9.45625 70.8566 9.97025 71.1379 10.6224L71.6465 10.403ZM71.6845 12.8758C71.9996 12.079 71.9859 11.1897 71.6465 10.403L71.1379 10.6224C71.4193 11.2746 71.4307 12.0117 71.1695 12.6722L71.6845 12.8758ZM64.2113 31.6794L71.6844 12.8763L71.1697 12.6717L63.6966 31.4749L64.2113 31.6794ZM63.7446 32.2663C63.9561 32.1216 64.119 31.9165 64.212 31.6777L63.696 31.4766C63.6434 31.6116 63.5513 31.7275 63.4318 31.8092L63.7446 32.2663ZM63.0266 32.4888C63.2828 32.4886 63.5331 32.4111 63.7446 32.2663L63.4318 31.8092C63.3123 31.891 63.1709 31.9348 63.0261 31.9349L63.0266 32.4888ZM62.5696 29.6628L57.6483 27.7078L57.4439 28.2225L62.3651 30.1775L62.5696 29.6628ZM69.3154 11.9404L62.21 29.8179L62.7247 30.0224L69.83 12.1449L69.3154 11.9404ZM69.3028 11.4176C69.3749 11.5849 69.3789 11.7737 69.314 11.9439L69.8314 12.1414C69.9478 11.8364 69.9406 11.4981 69.8114 11.1983L69.3028 11.4176ZM68.9278 11.0481C69.0962 11.1177 69.2307 11.2503 69.3028 11.4176L69.8114 11.1983C69.6822 10.8986 69.4411 10.661 69.1395 10.5363L68.9278 11.0481ZM51.0339 3.93117L68.9313 11.0495L69.136 10.5348L51.2386 3.41653L51.0339 3.93117ZM48.7751 10.3771L51.3937 3.77596L50.8788 3.57174L48.2603 10.1729L48.7751 10.3771ZM48.3186 10.9532C48.5241 10.8102 48.6829 10.6098 48.7751 10.3771L48.2603 10.173C48.2081 10.3045 48.1184 10.4177 48.0023 10.4985L48.3186 10.9532ZM47.6197 11.1809C47.87 11.1754 48.1131 11.0961 48.3186 10.9532L48.0023 10.4985C47.8862 10.5793 47.7488 10.6241 47.6074 10.6272L47.6197 11.1809ZM46.9114 10.9845C47.1231 11.1182 47.3694 11.1865 47.6197 11.1809L47.6074 10.6272C47.466 10.6304 47.3268 10.5918 47.2072 10.5162L46.9114 10.9845ZM46.4297 10.4293C46.5322 10.6577 46.6997 10.8508 46.9114 10.9845L47.2072 10.5162C47.0876 10.4407 46.9929 10.3316 46.935 10.2025L46.4297 10.4293ZM45.334 9.18103C45.814 9.48119 46.1953 9.91581 46.4304 10.4309L46.9342 10.2009C46.6541 9.58708 46.1997 9.06913 45.6276 8.71142L45.334 9.18103ZM43.7302 8.74258C44.2962 8.72841 44.8539 8.88087 45.334 9.18103L45.6276 8.71142C45.0555 8.35371 44.3909 8.17202 43.7164 8.18891L43.7302 8.74258ZM42.1504 9.26076C42.6149 8.93695 43.1642 8.75676 43.7302 8.74258L43.7164 8.18891C43.0418 8.2058 42.3872 8.42054 41.8337 8.80644L42.1504 9.26076ZM41.1179 10.5639C41.327 10.0377 41.686 9.58458 42.1504 9.26076L41.8337 8.80644C41.2802 9.19235 40.8523 9.73239 40.6032 10.3595L41.1179 10.5639ZM40.9748 12.2204C40.8591 11.6661 40.9089 11.0901 41.1179 10.5639L40.6032 10.3595C40.3541 10.9865 40.2948 11.673 40.4326 12.3335L40.9748 12.2204ZM41.7684 13.6813C41.3664 13.2826 41.0904 12.7746 40.9748 12.2203L40.4326 12.3335C40.5704 12.994 40.8993 13.5994 41.3784 14.0746L41.7684 13.6813ZM43.2359 14.4629C42.6807 14.3518 42.1704 14.08 41.7684 13.6813L41.3784 14.0746C41.8575 14.5497 42.4656 14.8736 43.1272 15.0059L43.2359 14.4629ZM44.8911 14.306C44.3666 14.5194 43.791 14.5739 43.2359 14.4629L43.1272 15.0059C43.7888 15.1383 44.4748 15.0733 45.0998 14.8191L44.8911 14.306ZM45.6207 14.2346C45.3753 14.1863 45.1212 14.2113 44.89 14.3065L45.1008 14.8186C45.2315 14.7648 45.3751 14.7507 45.5137 14.778L45.6207 14.2346ZM46.2696 14.578C46.0917 14.4023 45.866 14.2829 45.6207 14.2346L45.5137 14.778C45.6523 14.8053 45.7798 14.8728 45.8803 14.9721L46.2696 14.578ZM46.621 15.2227C46.5697 14.978 46.4474 14.7538 46.2696 14.578L45.8803 14.9721C45.9809 15.0714 46.0499 15.198 46.0789 15.3363L46.621 15.2227ZM46.558 15.9542C46.6504 15.7218 46.6723 15.4674 46.621 15.2227L46.0789 15.3363C46.1079 15.4746 46.0955 15.6183 46.0434 15.7496L46.558 15.9542ZM43.9314 22.5496L46.558 15.9544L46.0434 15.7494L43.4169 22.3446L43.9314 22.5496ZM48.7107 24.1517L43.7765 22.1898L43.5719 22.7044L48.5061 24.6663L48.7107 24.1517ZM48.9728 21.8661C48.5552 22.6485 48.335 23.5211 48.3314 24.4079L48.8853 24.4101C48.8885 23.6135 49.0863 22.8297 49.4614 22.1269L48.9728 21.8661ZM50.7277 19.9187C49.9928 20.4152 49.3904 21.0837 48.9728 21.8661L49.4614 22.1269C49.8365 21.4241 50.3777 20.8236 51.0377 20.3776L50.7277 19.9187ZM53.1892 19.0172C52.3075 19.1127 51.4625 19.4222 50.7277 19.9187L51.0377 20.3776C51.6978 19.9316 52.4569 19.6536 53.2489 19.5678L53.1892 19.0172ZM55.7867 19.3706C54.9626 19.043 54.0709 18.9217 53.1892 19.0172L53.2489 19.5678C54.0409 19.482 54.8419 19.591 55.5822 19.8852L55.7867 19.3706ZM57.918 20.8969C57.3425 20.2221 56.6109 19.6982 55.7867 19.3706L55.5822 19.8852C56.3224 20.1795 56.9796 20.6502 57.4966 21.2563L57.918 20.8969ZM59.0889 23.2423C58.8954 22.3768 58.4935 21.5717 57.918 20.8969L57.4966 21.2563C58.0136 21.8624 58.3746 22.5857 58.5484 23.3631L59.0889 23.2423ZM59.0279 25.8631C59.2614 25.0075 59.2823 24.1078 59.0889 23.2423L58.5484 23.3631C58.7221 24.1406 58.7033 24.9487 58.4936 25.7173L59.0279 25.8631ZM57.7492 28.1515C58.3555 27.5042 58.7944 26.7186 59.0279 25.8631L58.4936 25.7173C58.2839 26.4858 57.8896 27.1915 57.345 27.7729L57.7492 28.1515ZM57.8088 28.053L57.8098 28.05L57.2845 27.8744L57.2835 27.8774L57.8088 28.053ZM51.119 40.535H59.4909V39.9812H51.119V40.535ZM51.4276 37.191C51.4924 38.2056 51.3 39.2201 50.8683 40.1405L51.3697 40.3757C51.841 39.3709 52.051 38.2634 51.9803 37.1558L51.4276 37.191ZM50.4978 34.3367C51.043 35.1947 51.3629 36.1765 51.4276 37.191L51.9803 37.1558C51.9096 36.0482 51.5605 34.9763 50.9652 34.0396L50.4978 34.3367ZM48.3084 32.2826C49.1995 32.7721 49.9525 33.4786 50.4978 34.3367L50.9652 34.0396C50.3699 33.1029 49.5478 32.3316 48.5751 31.7972L48.3084 32.2826ZM45.4006 31.5365C46.4172 31.5365 47.4174 31.7931 48.3084 32.2826L48.5751 31.7972C47.6024 31.2628 46.5105 30.9827 45.4006 30.9827V31.5365ZM42.4928 32.2826C43.3838 31.7931 44.384 31.5365 45.4006 31.5365V30.9827C44.2907 30.9827 43.1988 31.2628 42.2261 31.7972L42.4928 32.2826ZM40.3035 34.3367C40.8487 33.4786 41.6018 32.7721 42.4928 32.2826L42.2261 31.7972C41.2534 32.3316 40.4313 33.1029 39.836 34.0396L40.3035 34.3367ZM39.3736 37.191C39.4384 36.1765 39.7582 35.1947 40.3035 34.3367L39.836 34.0396C39.2407 34.9763 38.8916 36.0482 38.8209 37.1558L39.3736 37.191ZM39.933 40.1405C39.5012 39.2201 39.3088 38.2056 39.3736 37.191L38.8209 37.1558C38.7502 38.2634 38.9602 39.3709 39.4315 40.3757L39.933 40.1405ZM32.2192 40.535H39.6822V39.9812H32.2192V40.535ZM31.9423 30.9337V40.2581H32.4961V30.9337H31.9423ZM31.8232 30.5334C31.9014 30.6518 31.9428 30.7908 31.9423 30.9327L32.4961 30.9348C32.4971 30.6836 32.4237 30.4378 32.2853 30.2282L31.8232 30.5334ZM31.5027 30.2671C31.6335 30.3223 31.7449 30.415 31.8232 30.5334L32.2853 30.2282C32.1469 30.0186 31.9496 29.8546 31.7182 29.7569L31.5027 30.2671ZM31.0884 30.2231C31.2278 30.1966 31.372 30.2119 31.5027 30.2671L31.7182 29.7569C31.4868 29.6592 31.2317 29.6321 30.9849 29.679L31.0884 30.2231ZM30.7191 30.4161C30.8205 30.3167 30.949 30.2496 31.0884 30.2231L30.9849 29.679C30.7382 29.7259 30.5108 29.8447 30.3314 30.0206L30.7191 30.4161ZM27.5344 31.6909C28.7209 31.6981 29.8632 31.2412 30.7175 30.4177L30.3331 30.019C29.5829 30.7422 28.5797 31.1434 27.5378 31.1371L27.5344 31.6909ZM24.2909 30.3467C25.1516 31.2074 26.3189 31.6909 27.5361 31.6909V31.1371C26.4658 31.1371 25.4393 30.7119 24.6825 29.9551L24.2909 30.3467ZM22.9467 27.1016C22.9467 28.3188 23.4302 29.4861 24.2909 30.3467L24.6825 29.9551C23.9257 29.1983 23.5006 28.1719 23.5006 27.1016H22.9467ZM24.2909 23.8564C23.4302 24.7171 22.9467 25.8844 22.9467 27.1016H23.5006C23.5006 26.0313 23.9257 25.0048 24.6825 24.248L24.2909 23.8564ZM27.5361 22.5122C26.3189 22.5122 25.1516 22.9957 24.2909 23.8564L24.6825 24.248C25.4393 23.4912 26.4658 23.0661 27.5361 23.0661V22.5122ZM30.7178 23.7908C29.8644 22.9653 28.722 22.5064 27.5347 22.5122L27.5374 23.0661C28.5801 23.061 29.5833 23.464 30.3328 24.1889L30.7178 23.7908ZM31.0884 23.9851C30.949 23.9585 30.8205 23.8914 30.7191 23.792L30.3314 24.1876C30.5108 24.3634 30.7382 24.4822 30.9849 24.5292L31.0884 23.9851ZM31.5027 23.941C31.372 23.9963 31.2278 24.0116 31.0884 23.9851L30.9849 24.5292C31.2317 24.5761 31.4868 24.549 31.7182 24.4512L31.5027 23.941ZM31.8232 23.6747C31.7449 23.7932 31.6335 23.8858 31.5027 23.941L31.7182 24.4512C31.9496 24.3535 32.1469 24.1895 32.2853 23.9799L31.8232 23.6747ZM31.9423 23.2755C31.9428 23.4174 31.9014 23.5563 31.8232 23.6747L32.2853 23.9799C32.4237 23.7703 32.4971 23.5245 32.4961 23.2733L31.9423 23.2755ZM31.9423 12.9437V23.2744H32.4961V12.9437H31.9423ZM31.7315 12.4349C31.8664 12.5699 31.9423 12.7529 31.9423 12.9437H32.4961C32.4961 12.606 32.3619 12.2821 32.1231 12.0433L31.7315 12.4349ZM31.2228 12.2242C31.4136 12.2242 31.5966 12.3 31.7315 12.4349L32.1231 12.0433C31.8844 11.8045 31.5605 11.6703 31.2228 11.6703V12.2242ZM5.40494 12.2242H31.2228V11.6703H5.40494V12.2242ZM3.12045 13.1648C3.72727 12.5612 4.54868 12.223 5.40455 12.2242L5.40534 11.6703C4.40283 11.6689 3.44068 12.0651 2.72988 12.7721L3.12045 13.1648ZM2.16755 15.4438C2.17095 14.5879 2.51363 13.7683 3.12045 13.1648L2.72988 12.7721C2.01909 13.4791 1.61769 14.4391 1.6137 15.4416L2.16755 15.4438ZM2.16755 67.1072V15.4427H1.6137V67.1072H2.16755ZM3.11838 69.3906C2.51145 68.7853 2.16949 67.9638 2.16755 67.1066L1.6137 67.1078C1.61598 68.1118 2.01646 69.0738 2.72726 69.7828L3.11838 69.3906ZM5.40487 70.3356C4.54763 70.3359 3.72531 69.996 3.11838 69.3906L2.72726 69.7828C3.43805 70.4917 4.40109 70.8898 5.40502 70.8895L5.40487 70.3356ZM57.0605 70.3356H5.40494V70.8895H57.0605V70.3356ZM59.3372 69.3874C58.7337 69.9927 57.9146 70.3337 57.0599 70.3356L57.0612 70.8895C58.0626 70.8872 59.0223 70.4876 59.7294 69.7785L59.3372 69.3874ZM60.279 67.1074C60.2795 67.9621 59.9408 68.7821 59.3372 69.3874L59.7294 69.7785C60.4366 69.0693 60.8334 68.1085 60.8328 67.107L60.279 67.1074ZM60.279 41.4821V67.1072H60.8328V41.4821H60.279ZM60.3063 41.2503C60.3063 41.3072 60.2996 41.3633 60.2866 41.4177L60.8252 41.5465C60.8483 41.4502 60.8602 41.3509 60.8602 41.2503H60.3063ZM60.0956 40.7416C60.2305 40.8765 60.3063 41.0595 60.3063 41.2503H60.8602C60.8602 40.9126 60.726 40.5887 60.4872 40.3499L60.0956 40.7416ZM59.5868 40.5308C59.7777 40.5308 59.9607 40.6066 60.0956 40.7416L60.4872 40.3499C60.2484 40.1111 59.9245 39.977 59.5868 39.977V40.5308ZM59.5779 40.5308H59.5868V39.977H59.5779V40.5308ZM59.5163 40.5339C59.5372 40.5319 59.5581 40.5309 59.5791 40.5308L59.5766 39.977C59.5395 39.9771 59.5024 39.9789 59.4655 39.9823L59.5163 40.5339ZM58.5631 41.969H49.3596V42.5229H58.5631V41.969ZM58.84 67.1072V42.2459H58.2862V67.1072H58.84ZM58.3209 68.3693C58.6543 68.0337 58.841 67.5796 58.84 67.1067L58.2862 67.1078C58.2868 67.4341 58.158 67.7474 57.928 67.9789L58.3209 68.3693ZM57.0618 68.8967C57.5348 68.8945 57.9876 68.7048 58.321 68.3693L57.928 67.9789C57.698 68.2104 57.3856 68.3413 57.0592 68.3428L57.0618 68.8967ZM32.2506 68.8967H57.0605V68.3428H32.2506V68.8967ZM31.9737 61.1292V68.6197H32.5275V61.1292H31.9737ZM34.9421 61.4568C34.044 61.4571 33.1662 61.2563 32.3691 60.8789L32.1321 61.3795C33.0027 61.7916 33.9614 62.011 34.9423 62.0107L34.9421 61.4568ZM37.7722 60.7486C36.9009 61.2126 35.9291 61.4558 34.9419 61.4568L34.9425 62.0107C36.0203 62.0096 37.0813 61.7441 38.0326 61.2374L37.7722 60.7486ZM39.9392 58.7951C39.3876 59.6137 38.6435 60.2845 37.7722 60.7486L38.0326 61.2374C38.9838 60.7307 39.7962 59.9984 40.3985 59.1046L39.9392 58.7951ZM40.9362 56.0532C40.8332 57.0349 40.4909 57.9764 39.9392 58.7951L40.3985 59.1046C41.0008 58.2108 41.3746 57.1829 41.4871 56.111L40.9362 56.0532ZM40.5301 53.164C40.8998 54.0794 41.0393 55.0714 40.9362 56.0532L41.4871 56.111C41.5995 55.0391 41.4473 53.956 41.0437 52.9566L40.5301 53.164ZM38.8158 50.8033C39.5718 51.4381 40.1604 52.2487 40.5301 53.164L41.0437 52.9566C40.64 51.9573 39.9974 51.0722 39.172 50.3791L38.8158 50.8033ZM36.1942 49.5229C37.1597 49.7288 38.0599 50.1684 38.8158 50.8033L39.172 50.3791C38.3467 49.686 37.3638 49.206 36.3098 48.9812L36.1942 49.5229ZM33.2784 49.6223C34.2276 49.3512 35.2288 49.317 36.1942 49.5229L36.3098 48.9812C35.2557 48.7564 34.1626 48.7937 33.1263 49.0898L33.2784 49.6223ZM32.3461 49.9743C32.6456 49.832 32.9574 49.7141 33.2784 49.6223L33.1263 49.0898C32.7758 49.1899 32.4354 49.3187 32.1083 49.4741L32.3461 49.9743ZM31.9503 42.2429V49.7242H32.5041V42.2429H31.9503ZM41.5764 41.966H32.2272V42.5199H41.5764V41.966ZM41.9729 41.8448C41.8553 41.9234 41.717 41.9656 41.5755 41.966L41.5773 42.5199C41.8277 42.5191 42.0723 42.4445 42.2806 42.3054L41.9729 41.8448ZM42.237 41.5241C42.1824 41.6547 42.0906 41.7662 41.9729 41.8448L42.2806 42.3054C42.4888 42.1663 42.6514 41.9689 42.748 41.7379L42.237 41.5241ZM42.2799 41.1109C42.3065 41.2499 42.2916 41.3936 42.237 41.5241L42.748 41.7378C42.8446 41.5068 42.871 41.2524 42.8238 41.0065L42.2799 41.1109ZM42.0871 40.7429C42.1861 40.8439 42.2532 40.972 42.2799 41.1109L42.8238 41.0065C42.7766 40.7606 42.6579 40.534 42.4826 40.3552L42.0871 40.7429ZM40.8123 37.5833C40.8018 38.7639 41.2603 39.9003 42.0872 40.743L42.4825 40.3551C41.7584 39.6172 41.3569 38.622 41.3661 37.5882L40.8123 37.5833ZM41.3499 35.4366C40.9979 36.0982 40.8133 36.836 40.8122 37.5853L41.3661 37.5862C41.3671 36.9272 41.5294 36.2785 41.8389 35.6968L41.3499 35.4366ZM42.8313 33.79C42.2105 34.2097 41.7018 34.7751 41.3499 35.4366L41.8389 35.6968C42.1483 35.115 42.5956 34.6179 43.1415 34.2488L42.8313 33.79ZM44.9114 33.029C44.1663 33.109 43.4521 33.3703 42.8313 33.79L43.1415 34.2488C43.6874 33.8798 44.3154 33.65 44.9705 33.5797L44.9114 33.029ZM47.1057 33.3308C46.4098 33.0526 45.6565 32.9489 44.9114 33.029L44.9705 33.5797C45.6257 33.5093 46.2882 33.6004 46.9 33.8451L47.1057 33.3308ZM48.903 34.6252C48.4186 34.0535 47.8015 33.6091 47.1056 33.3308L46.9 33.8451C47.5118 34.0897 48.0545 34.4805 48.4805 34.9832L48.903 34.6252ZM49.8848 36.6107C49.7245 35.8786 49.3875 35.1969 48.903 34.6252L48.4805 34.9832C48.9064 35.486 49.2028 36.0854 49.3438 36.7291L49.8848 36.6107ZM49.8223 38.8247C50.0236 38.1029 50.045 37.3427 49.8848 36.6107L49.3438 36.7291C49.4847 37.3728 49.4658 38.0412 49.2888 38.676L49.8223 38.8247ZM48.7745 40.7043C49.2676 40.1699 49.6269 39.5257 49.8223 38.8247L49.2888 38.676C49.117 39.2924 48.801 39.8588 48.3674 40.3287L48.7745 40.7043ZM48.6185 40.8913C48.6558 40.8279 48.7024 40.7709 48.7565 40.7221L48.3854 40.311C48.2897 40.3974 48.2072 40.4982 48.1412 40.6104L48.6185 40.8913ZM48.5191 41.2608C48.5183 41.1309 48.5526 41.0032 48.6185 40.8913L48.1412 40.6104C48.0246 40.8085 47.9638 41.0345 47.9653 41.2645L48.5191 41.2608ZM48.7314 41.7669C48.5966 41.633 48.5203 41.4511 48.5191 41.261L47.9653 41.2643C47.9673 41.6007 48.1023 41.9226 48.3409 42.1598L48.7314 41.7669ZM49.2386 41.9762C49.0485 41.9762 48.8662 41.9009 48.7314 41.767L48.3409 42.1598C48.5795 42.3969 48.9022 42.53 49.2386 42.53L49.2386 41.9762ZM49.3262 41.971C49.2975 41.9745 49.2685 41.9762 49.2395 41.9762L49.2378 42.53C49.2898 42.5302 49.3417 42.5271 49.3931 42.5208L49.3262 41.971ZM31.1797 52.315C31.0075 52.3028 30.8449 52.2289 30.722 52.1061L30.3304 52.4977C30.5478 52.7151 30.8357 52.8458 31.1404 52.8675L31.1797 52.315ZM30.722 52.1061C30.5871 51.9712 30.5113 51.7882 30.5113 51.5974H29.9575C29.9575 51.9351 30.0916 52.2589 30.3304 52.4977L30.722 52.1061ZM30.5113 51.5974V42.2467H29.9575V51.5974H30.5113ZM30.2344 41.9698H22.786V42.5236H30.2344V41.9698ZM22.5358 42.3654C22.9145 43.1642 23.114 44.045 23.1089 44.9457L23.6627 44.9488C23.6683 43.9643 23.4503 43.0013 23.0362 42.1281L22.5358 42.3654ZM23.1089 44.9466C23.1048 46.5447 22.4676 48.076 21.3366 49.2051L21.728 49.5971C22.9626 48.3644 23.6583 46.6926 23.6627 44.948L23.1089 44.9466ZM21.3366 49.2051C20.2057 50.3342 18.6734 50.9691 17.0753 50.9706L17.0758 51.5245C18.8205 51.5228 20.4933 50.8297 21.728 49.5971L21.3366 49.2051ZM17.0755 50.9706C15.8914 50.971 14.7335 50.6223 13.7465 49.9683L13.4406 50.43C14.5184 51.1441 15.7827 51.5248 17.0756 51.5245L17.0755 50.9706ZM13.7465 49.9683C12.7595 49.3142 11.9872 48.3838 11.526 47.2932L11.0159 47.509C11.5195 48.6998 12.3628 49.7158 13.4406 50.43L13.7465 49.9683ZM11.526 47.2932C11.0648 46.2027 10.9353 45.0004 11.1536 43.8367L10.6093 43.7345C10.3709 45.0053 10.5123 46.3181 11.0159 47.509L11.526 47.2932ZM11.1536 43.8367C11.2492 43.3271 11.4097 42.8348 11.6291 42.371L11.1285 42.1341C10.8889 42.6405 10.7137 43.1781 10.6093 43.7345L11.1536 43.8367ZM11.3788 41.9757H3.88343V42.5295H11.3788V41.9757ZM3.60651 42.2526V67.1072H4.16036V42.2526H3.60651ZM3.60651 67.1085C3.6087 67.5839 3.79925 68.0391 4.13642 68.3743L4.52689 67.9815C4.29367 67.7496 4.16186 67.4348 4.16035 67.1059L3.60651 67.1085ZM4.13642 68.3743C4.47359 68.7094 4.92988 68.8973 5.40531 68.8967L5.40457 68.3428C5.07572 68.3433 4.76011 68.2133 4.52689 67.9815L4.13642 68.3743ZM5.40494 68.8967H30.2578V68.3428H5.40494V68.8967ZM30.5347 68.6197V59.434H29.9809V68.6197H30.5347ZM30.5282 59.3743C30.5186 59.3308 30.513 59.2863 30.5116 59.2415L29.9581 59.2588C29.9605 59.338 29.9704 59.4167 29.9874 59.4937L30.5282 59.3743ZM30.5116 59.2415C30.5087 59.1455 30.5249 59.0499 30.5595 58.9602L30.0428 58.7609C29.9816 58.9196 29.9528 59.0888 29.9581 59.2588L30.5116 59.2415ZM30.5595 58.9602C30.5941 58.8706 30.6462 58.7888 30.7129 58.7197L30.3143 58.3352C30.1963 58.4575 30.1039 58.6023 30.0428 58.7609L30.5595 58.9602ZM30.7129 58.7197C30.7796 58.6505 30.8595 58.5954 30.9478 58.5577L30.73 58.0484C30.5737 58.1153 30.4323 58.2128 30.3143 58.3352L30.7129 58.7197ZM30.9478 58.5577C31.0361 58.5199 31.1311 58.5002 31.2272 58.4997L31.2245 57.9458C31.0544 57.9467 30.8863 57.9816 30.73 58.0484L30.9478 58.5577ZM31.2272 58.4997C31.3079 58.4993 31.388 58.5125 31.4642 58.5386L31.6439 58.0147C31.5091 57.9685 31.3673 57.9451 31.2245 57.9458L31.2272 58.4997ZM31.4707 58.5407C31.58 58.5752 31.6805 58.6356 31.763 58.7181L32.1546 58.3265C32.0086 58.1805 31.8307 58.0736 31.6373 58.0126L31.4707 58.5407ZM31.763 58.7181C31.7828 58.738 31.8014 58.7589 31.8187 58.7807L32.2532 58.4373C32.2226 58.3987 32.1897 58.3616 32.1546 58.3265L31.763 58.7181ZM31.8499 58.8141C32.4792 59.3847 33.2553 59.7699 34.0922 59.9254L34.1934 59.3809C33.4576 59.2441 32.7752 58.9055 32.2219 58.4038L31.8499 58.8141ZM34.0922 59.9254C34.9744 60.0893 35.8854 59.9908 36.7122 59.642L36.4969 59.1317C35.77 59.4384 34.9691 59.525 34.1934 59.3809L34.0922 59.9254ZM36.7122 59.642C37.5389 59.2932 38.2452 58.7095 38.7434 57.9632L38.2828 57.6557C37.8447 58.3118 37.2238 58.825 36.4969 59.1317L36.7122 59.642ZM38.7434 57.9632C39.2417 57.2169 39.51 56.3408 39.5152 55.4435L38.9613 55.4403C38.9568 56.2293 38.7209 56.9995 38.2828 57.6557L38.7434 57.9632ZM39.5152 55.4435C39.5203 54.5462 39.2621 53.6671 38.7725 52.9151L38.3083 53.2173C38.7388 53.8785 38.9659 54.6514 38.9613 55.4403L39.5152 55.4435ZM38.7725 52.9151C38.2828 52.1632 37.5833 51.5714 36.7606 51.2131L36.5395 51.7209C37.2628 52.0359 37.8778 52.5562 38.3083 53.2173L38.7725 52.9151ZM36.7606 51.2131C35.9379 50.8548 35.0281 50.7459 34.1441 50.8996L34.239 51.4453C35.0163 51.3101 35.8161 51.4059 36.5395 51.7209L36.7606 51.2131ZM34.1441 50.8996C33.26 51.0534 32.4405 51.4632 31.7871 52.0782L32.1667 52.4815C32.7412 51.9408 33.4617 51.5805 34.239 51.4453L34.1441 50.8996ZM31.7747 52.0906C31.6763 52.1957 31.5487 52.2689 31.4082 52.3006L31.5304 52.8408C31.7789 52.7846 32.0049 52.6551 32.1791 52.4691L31.7747 52.0906ZM31.4082 52.3006C31.3346 52.3173 31.2592 52.3222 31.1849 52.3155L31.1352 52.8671C31.2667 52.8789 31.4001 52.8703 31.5304 52.8408L31.4082 52.3006ZM13.8185 40.8025C13.9206 40.9269 13.9785 41.0826 13.9816 41.245L14.5354 41.2344C14.5299 40.9469 14.4273 40.6713 14.2467 40.4512L13.8185 40.8025ZM13.7689 40.7474C13.7862 40.7648 13.8026 40.7829 13.8179 40.8018L14.2473 40.4519C14.2201 40.4186 14.1912 40.3865 14.1605 40.3558L13.7689 40.7474ZM13.2601 40.5367C13.4509 40.5367 13.6339 40.6125 13.7689 40.7474L14.1605 40.3558C13.9217 40.117 13.5978 39.9828 13.2601 39.9828V40.5367ZM3.88343 40.5367H13.2601V39.9828H3.88343V40.5367ZM3.60651 15.4427V40.2598H4.16036V15.4427H3.60651ZM4.13912 14.1799C3.80178 14.5131 3.61026 14.9664 3.60652 15.4405L4.16035 15.4448C4.16293 15.1173 4.29524 14.8042 4.52829 14.574L4.13912 14.1799ZM5.40623 13.6632C4.93212 13.661 4.47647 13.8468 4.13912 14.1799L4.52829 14.574C4.76134 14.3439 5.07612 14.2155 5.40366 14.217L5.40623 13.6632ZM30.2264 13.6632H5.40494V14.217H30.2264V13.6632ZM30.5033 21.3862V13.9401H29.9494V21.3862H30.5033ZM27.166 21.0818C28.1781 21.0164 29.1903 21.2074 30.109 21.637L30.3437 21.1354C29.3406 20.6662 28.2353 20.4577 27.1302 20.5291L27.166 21.0818ZM24.319 22.0115C25.1747 21.467 26.1539 21.1473 27.166 21.0818L27.1302 20.5291C26.0252 20.6006 24.956 20.9497 24.0216 21.5442L24.319 22.0115ZM22.2707 24.1965C22.7587 23.3075 23.4633 22.5559 24.319 22.0115L24.0216 21.5442C23.0873 22.1387 22.3181 22.9592 21.7852 23.93L22.2707 24.1965ZM21.5267 27.0976C21.5267 26.0834 21.7826 25.0856 22.2707 24.1965L21.7852 23.93C21.2522 24.9007 20.9728 25.9902 20.9728 27.0976H21.5267ZM22.2707 29.9987C21.7826 29.1096 21.5267 28.1118 21.5267 27.0976H20.9728C20.9728 28.205 21.2522 29.2945 21.7852 30.2652L22.2707 29.9987ZM24.319 32.1837C23.4633 31.6393 22.7587 30.8877 22.2707 29.9987L21.7852 30.2652C22.3181 31.236 23.0873 32.0565 24.0216 32.651L24.319 32.1837ZM27.166 33.1133C26.1539 33.0479 25.1747 32.7282 24.319 32.1837L24.0216 32.651C24.956 33.2455 26.0252 33.5946 27.1302 33.666L27.166 33.1133ZM30.109 32.5581C29.1903 32.9878 28.1781 33.1788 27.166 33.1133L27.1302 33.666C28.2353 33.7375 29.3406 33.529 30.3437 33.0598L30.109 32.5581ZM30.5033 40.2539V32.809H29.9494V40.2539H30.5033ZM21.0844 40.5308H30.2264V39.977H21.0844V40.5308ZM20.8907 40.5077C20.9359 40.509 20.9808 40.5146 21.0247 40.5243L21.1441 39.9835C21.0664 39.9663 20.987 39.9564 20.907 39.9541L20.8907 40.5077ZM20.6071 40.557C20.6974 40.5216 20.7938 40.5049 20.8907 40.5077L20.907 39.9541C20.7355 39.9491 20.5648 39.9787 20.4051 40.0413L20.6071 40.557ZM20.3655 40.7135C20.4347 40.6456 20.5169 40.5923 20.6071 40.557L20.4051 40.0413C20.2454 40.1039 20.0999 40.1981 19.9775 40.3182L20.3655 40.7135ZM20.2046 40.9521C20.2416 40.8626 20.2964 40.7814 20.3655 40.7135L19.9775 40.3183C19.8551 40.4384 19.7582 40.5821 19.6927 40.7407L20.2046 40.9521ZM20.1501 41.2348C20.1491 41.1379 20.1676 41.0417 20.2046 40.9521L19.6927 40.7407C19.6272 40.8992 19.5944 41.0693 19.5963 41.2409L20.1501 41.2348ZM20.2108 41.5162C20.1718 41.4274 20.1512 41.3317 20.1501 41.2348L19.5963 41.2409C19.5982 41.4124 19.6347 41.5818 19.7037 41.7389L20.2108 41.5162ZM20.3769 41.7512C20.3063 41.6849 20.2498 41.6049 20.2108 41.5162L19.7037 41.7389C19.7727 41.8959 19.8727 42.0374 19.9977 42.1549L20.3769 41.7512ZM21.6699 44.9443C21.6784 43.7548 21.2167 42.6102 20.3854 41.7595L19.9893 42.1466C20.7185 42.8929 21.1235 43.8969 21.1161 44.9403L21.6699 44.9443ZM20.3204 48.1881C21.1823 47.3278 21.6677 46.1606 21.6699 44.9428L21.1161 44.9418C21.1141 46.0129 20.6872 47.0394 19.9291 47.7961L20.3204 48.1881ZM17.0726 49.5316C18.2904 49.5316 19.4585 49.0485 20.3204 48.1881L19.9291 47.7961C19.171 48.5528 18.1437 48.9778 17.0726 48.9778L17.0726 49.5316ZM14.5398 48.7678C15.2907 49.2658 16.1716 49.5314 17.0725 49.5316L17.0726 48.9778C16.2805 48.9776 15.5061 48.744 14.846 48.3063L14.5398 48.7678ZM12.8508 46.7319C13.2016 47.5618 13.789 48.2699 14.5398 48.7678L14.846 48.3063C14.1858 47.8685 13.6693 47.2459 13.361 46.5163L12.8508 46.7319ZM12.5678 44.1018C12.4017 44.9873 12.5001 45.9021 12.8508 46.7319L13.361 46.5163C13.0526 45.7867 12.9661 44.9824 13.1122 44.2039L12.5678 44.1018ZM13.7851 41.7532C13.1574 42.3994 12.734 43.2163 12.5678 44.1018L13.1122 44.2039C13.2583 43.4254 13.6305 42.7072 14.1824 42.139L13.7851 41.7532ZM13.9816 41.245C13.9853 41.4345 13.914 41.6178 13.7832 41.7551L14.1842 42.1371C14.4156 41.8942 14.5418 41.5698 14.5354 41.2344L13.9816 41.245Z" fill="white" mask="url(#path-1-inside-1_1760_48831)"/>
<mask id="path-3-inside-2_1760_48831" fill="white">
<path d="M63.0185 32.2119C62.8926 32.2117 62.7678 32.1877 62.6509 32.1411L55.138 29.1519C54.9564 29.0799 54.8001 28.9561 54.6883 28.796C54.5766 28.6358 54.5143 28.4464 54.5093 28.2512C54.5043 28.056 54.5568 27.8636 54.6603 27.6979C54.7637 27.5323 54.9135 27.4007 55.0911 27.3195C55.8297 26.9796 56.4099 26.3694 56.7123 25.6147C56.8657 25.2282 56.9415 24.8153 56.9352 24.3996C56.9289 23.9839 56.8408 23.5735 56.6758 23.1918C56.5108 22.8102 56.2722 22.4648 55.9736 22.1755C55.675 21.8861 55.3223 21.6584 54.9357 21.5055C54.1558 21.1953 53.2847 21.2072 52.5135 21.5386C51.7424 21.87 51.1342 22.4938 50.8225 23.2731C50.6701 23.6447 50.5923 24.0426 50.5936 24.4442C50.595 24.8458 50.6755 25.2432 50.8305 25.6137C50.9078 25.7946 50.9297 25.9944 50.8936 26.1879C50.8575 26.3813 50.7649 26.5597 50.6276 26.7006C50.4902 26.8415 50.3142 26.9385 50.1217 26.9795C49.9293 27.0205 49.729 27.0036 49.5461 26.9309L42.0044 23.9337C41.8826 23.8854 41.7716 23.8136 41.6776 23.7223C41.5836 23.631 41.5086 23.5221 41.4568 23.4018C41.4049 23.2815 41.3773 23.1521 41.3756 23.0211C41.3738 22.8901 41.3978 22.7601 41.4464 22.6384L43.77 16.7945C43.1214 16.7909 42.4792 16.6655 41.8768 16.4248C41.174 16.1426 40.542 15.7091 40.0256 15.1551C39.5092 14.6011 39.1212 13.9402 38.889 13.2193C38.6568 12.4984 38.5862 11.7353 38.6822 10.9841C38.7782 10.2328 39.0385 9.51194 39.4445 8.87262C39.8505 8.2333 40.3923 7.69122 41.0314 7.28489C41.6705 6.87855 42.3913 6.61793 43.1424 6.52154C43.8936 6.42514 44.6568 6.49533 45.3778 6.72713C46.0988 6.95893 46.7599 7.34664 47.3142 7.86273L49.6438 2.01085C49.6922 1.88918 49.7641 1.77824 49.8554 1.68438C49.9468 1.59052 50.0557 1.51558 50.176 1.46385C50.2963 1.41212 50.4256 1.38461 50.5566 1.3829C50.6875 1.38118 50.8175 1.4053 50.9391 1.45386L69.7632 8.93586C70.491 9.2262 71.074 9.79324 71.3844 10.5127C71.6948 11.2322 71.7073 12.0453 71.4192 12.774L63.9462 31.5772C63.8734 31.764 63.7459 31.9246 63.5804 32.0378C63.4149 32.151 63.2191 32.2117 63.0185 32.2119ZM57.5383 27.9652L62.4595 29.9201L69.5649 12.0426C69.6556 11.8051 69.65 11.5415 69.5493 11.3079C69.4486 11.0744 69.2608 10.8894 69.0258 10.7922L51.1284 3.67385L48.5099 10.275C48.4377 10.4572 48.3134 10.614 48.1526 10.7258C47.9918 10.8377 47.8016 10.8997 47.6057 10.9041C47.4099 10.9084 47.2171 10.855 47.0515 10.7504C46.8858 10.6457 46.7547 10.4946 46.6745 10.3159C46.4169 9.75144 45.9991 9.27516 45.473 8.94623C44.9469 8.61729 44.3357 8.45021 43.7155 8.46575C43.0952 8.48128 42.4932 8.67875 41.9842 9.0336C41.4753 9.38846 41.0818 9.88506 40.8528 10.4617C40.6237 11.0383 40.5692 11.6695 40.6959 12.2769C40.8226 12.8843 41.1251 13.441 41.5656 13.8779C42.0061 14.3149 42.5653 14.6127 43.1737 14.7344C43.7821 14.8561 44.4129 14.7964 44.9876 14.5626C45.1685 14.4881 45.3674 14.4685 45.5594 14.5063C45.7513 14.5441 45.9279 14.6376 46.0671 14.7751C46.2063 14.9126 46.302 15.088 46.3421 15.2795C46.3823 15.471 46.3651 15.6701 46.2929 15.8519L43.6664 22.4471L48.6006 24.409C48.6039 23.5673 48.8129 22.7391 49.2093 21.9965C49.6057 21.2539 50.1774 20.6194 50.8749 20.1482C51.5724 19.6769 52.3744 19.3832 53.2112 19.2925C54.0481 19.2018 54.8944 19.317 55.6766 19.6279C56.4588 19.9388 57.1533 20.4362 57.6995 21.0766C58.2457 21.7171 58.6272 22.4813 58.8108 23.3027C58.9944 24.1242 58.9745 24.9781 58.7529 25.7902C58.5313 26.6022 58.1147 27.3478 57.5393 27.9622L57.5383 27.9652Z"/>
</mask>
<path d="M63.0185 32.2119C62.8926 32.2117 62.7678 32.1877 62.6509 32.1411L55.138 29.1519C54.9564 29.0799 54.8001 28.9561 54.6883 28.796C54.5766 28.6358 54.5143 28.4464 54.5093 28.2512C54.5043 28.056 54.5568 27.8636 54.6603 27.6979C54.7637 27.5323 54.9135 27.4007 55.0911 27.3195C55.8297 26.9796 56.4099 26.3694 56.7123 25.6147C56.8657 25.2282 56.9415 24.8153 56.9352 24.3996C56.9289 23.9839 56.8408 23.5735 56.6758 23.1918C56.5108 22.8102 56.2722 22.4648 55.9736 22.1755C55.675 21.8861 55.3223 21.6584 54.9357 21.5055C54.1558 21.1953 53.2847 21.2072 52.5135 21.5386C51.7424 21.87 51.1342 22.4938 50.8225 23.2731C50.6701 23.6447 50.5923 24.0426 50.5936 24.4442C50.595 24.8458 50.6755 25.2432 50.8305 25.6137C50.9078 25.7946 50.9297 25.9944 50.8936 26.1879C50.8575 26.3813 50.7649 26.5597 50.6276 26.7006C50.4902 26.8415 50.3142 26.9385 50.1217 26.9795C49.9293 27.0205 49.729 27.0036 49.5461 26.9309L42.0044 23.9337C41.8826 23.8854 41.7716 23.8136 41.6776 23.7223C41.5836 23.631 41.5086 23.5221 41.4568 23.4018C41.4049 23.2815 41.3773 23.1521 41.3756 23.0211C41.3738 22.8901 41.3978 22.7601 41.4464 22.6384L43.77 16.7945C43.1214 16.7909 42.4792 16.6655 41.8768 16.4248C41.174 16.1426 40.542 15.7091 40.0256 15.1551C39.5092 14.6011 39.1212 13.9402 38.889 13.2193C38.6568 12.4984 38.5862 11.7353 38.6822 10.9841C38.7782 10.2328 39.0385 9.51194 39.4445 8.87262C39.8505 8.2333 40.3923 7.69122 41.0314 7.28489C41.6705 6.87855 42.3913 6.61793 43.1424 6.52154C43.8936 6.42514 44.6568 6.49533 45.3778 6.72713C46.0988 6.95893 46.7599 7.34664 47.3142 7.86273L49.6438 2.01085C49.6922 1.88918 49.7641 1.77824 49.8554 1.68438C49.9468 1.59052 50.0557 1.51558 50.176 1.46385C50.2963 1.41212 50.4256 1.38461 50.5566 1.3829C50.6875 1.38118 50.8175 1.4053 50.9391 1.45386L69.7632 8.93586C70.491 9.2262 71.074 9.79324 71.3844 10.5127C71.6948 11.2322 71.7073 12.0453 71.4192 12.774L63.9462 31.5772C63.8734 31.764 63.7459 31.9246 63.5804 32.0378C63.4149 32.151 63.2191 32.2117 63.0185 32.2119ZM57.5383 27.9652L62.4595 29.9201L69.5649 12.0426C69.6556 11.8051 69.65 11.5415 69.5493 11.3079C69.4486 11.0744 69.2608 10.8894 69.0258 10.7922L51.1284 3.67385L48.5099 10.275C48.4377 10.4572 48.3134 10.614 48.1526 10.7258C47.9918 10.8377 47.8016 10.8997 47.6057 10.9041C47.4099 10.9084 47.2171 10.855 47.0515 10.7504C46.8858 10.6457 46.7547 10.4946 46.6745 10.3159C46.4169 9.75144 45.9991 9.27516 45.473 8.94623C44.9469 8.61729 44.3357 8.45021 43.7155 8.46575C43.0952 8.48128 42.4932 8.67875 41.9842 9.0336C41.4753 9.38846 41.0818 9.88506 40.8528 10.4617C40.6237 11.0383 40.5692 11.6695 40.6959 12.2769C40.8226 12.8843 41.1251 13.441 41.5656 13.8779C42.0061 14.3149 42.5653 14.6127 43.1737 14.7344C43.7821 14.8561 44.4129 14.7964 44.9876 14.5626C45.1685 14.4881 45.3674 14.4685 45.5594 14.5063C45.7513 14.5441 45.9279 14.6376 46.0671 14.7751C46.2063 14.9126 46.302 15.088 46.3421 15.2795C46.3823 15.471 46.3651 15.6701 46.2929 15.8519L43.6664 22.4471L48.6006 24.409C48.6039 23.5673 48.8129 22.7391 49.2093 21.9965C49.6057 21.2539 50.1774 20.6194 50.8749 20.1482C51.5724 19.6769 52.3744 19.3832 53.2112 19.2925C54.0481 19.2018 54.8944 19.317 55.6766 19.6279C56.4588 19.9388 57.1533 20.4362 57.6995 21.0766C58.2457 21.7171 58.6272 22.4813 58.8108 23.3027C58.9944 24.1242 58.9745 24.9781 58.7529 25.7902C58.5313 26.6022 58.1147 27.3478 57.5393 27.9622L57.5383 27.9652Z" fill="#E6B400"/>
<path d="M63.0185 32.2119L63.0182 32.4888H63.0187L63.0185 32.2119ZM62.6509 32.1411L62.7533 31.8839L62.7532 31.8838L62.6509 32.1411ZM55.138 29.1519L55.2403 28.8946L55.2401 28.8945L55.138 29.1519ZM55.0911 27.3195L55.2063 27.5714L55.2069 27.5711L55.0911 27.3195ZM56.7123 25.6147L56.9693 25.7177L56.9697 25.7169L56.7123 25.6147ZM54.9357 21.5055L54.8333 21.7628L54.8338 21.763L54.9357 21.5055ZM50.8225 23.2731L51.0787 23.3783L51.0797 23.3759L50.8225 23.2731ZM50.8305 25.6137L50.575 25.7206L50.5758 25.7224L50.8305 25.6137ZM49.5461 26.9309L49.6484 26.6736L49.6484 26.6736L49.5461 26.9309ZM42.0044 23.9337L42.1066 23.6764L42.1065 23.6763L42.0044 23.9337ZM41.4464 22.6384L41.7036 22.741L41.7037 22.7407L41.4464 22.6384ZM43.77 16.7945L44.0273 16.8968L44.1772 16.5199L43.7715 16.5176L43.77 16.7945ZM41.8768 16.4248L41.7736 16.6818L41.7741 16.682L41.8768 16.4248ZM47.3142 7.86273L47.1255 8.0654L47.4218 8.34126L47.5715 7.96516L47.3142 7.86273ZM49.6438 2.01085L49.9011 2.11328L49.9011 2.11323L49.6438 2.01085ZM50.9391 1.45386L50.8364 1.71104L50.8368 1.7112L50.9391 1.45386ZM69.7632 8.93586L69.8658 8.67865L69.8655 8.67852L69.7632 8.93586ZM71.4192 12.774L71.6766 12.8763L71.6767 12.8758L71.4192 12.774ZM63.9462 31.5772L63.6888 31.4749L63.6881 31.4766L63.9462 31.5772ZM57.5383 27.9652L57.2756 27.8777L57.1929 28.1259L57.4361 28.2225L57.5383 27.9652ZM62.4595 29.9201L62.3573 30.1775L62.6146 30.2797L62.7169 30.0224L62.4595 29.9201ZM69.5649 12.0426L69.8223 12.1449L69.8236 12.1414L69.5649 12.0426ZM69.0258 10.7922L69.1317 10.5362L69.1282 10.5348L69.0258 10.7922ZM51.1284 3.67385L51.2308 3.41653L50.9732 3.3141L50.871 3.57174L51.1284 3.67385ZM48.5099 10.275L48.2525 10.1729L48.2524 10.173L48.5099 10.275ZM46.6745 10.3159L46.9272 10.2025L46.9264 10.2009L46.6745 10.3159ZM44.9876 14.5626L45.0919 14.8191L45.093 14.8186L44.9876 14.5626ZM46.2929 15.8519L46.5502 15.9544L46.5502 15.9542L46.2929 15.8519ZM43.6664 22.4471L43.4091 22.3446L43.3066 22.6021L43.564 22.7044L43.6664 22.4471ZM48.6006 24.409L48.4982 24.6663L48.8758 24.8165L48.8775 24.4101L48.6006 24.409ZM57.5393 27.9622L57.3372 27.7729L57.2957 27.8171L57.2766 27.8747L57.5393 27.9622ZM63.0188 31.9349C62.9279 31.9348 62.8378 31.9175 62.7533 31.8839L62.5484 32.3984C62.6979 32.4579 62.8573 32.4886 63.0182 32.4888L63.0188 31.9349ZM62.7532 31.8838L55.2403 28.8946L55.0356 29.4092L62.5485 32.3984L62.7532 31.8838ZM55.2401 28.8945C55.109 28.8425 54.9961 28.7531 54.9154 28.6375L54.4612 28.9545C54.6041 29.1591 54.8039 29.3173 55.0358 29.4093L55.2401 28.8945ZM54.9154 28.6375C54.8347 28.5219 54.7898 28.3851 54.7862 28.2441L54.2325 28.2583C54.2389 28.5077 54.3184 28.7498 54.4612 28.9545L54.9154 28.6375ZM54.7862 28.2441C54.7826 28.1031 54.8204 27.9642 54.8951 27.8446L54.4254 27.5513C54.2932 27.7629 54.2261 28.0088 54.2325 28.2583L54.7862 28.2441ZM54.8951 27.8446C54.9698 27.725 55.078 27.63 55.2063 27.5714L54.976 27.0677C54.749 27.1714 54.5576 27.3396 54.4254 27.5513L54.8951 27.8446ZM55.2069 27.5711C56.0099 27.2015 56.6406 26.5382 56.9693 25.7176L56.4552 25.5117C56.1792 26.2007 55.6496 26.7576 54.9754 27.068L55.2069 27.5711ZM56.9697 25.7169C57.1365 25.2966 57.2189 24.8476 57.2121 24.3954L56.6583 24.4038C56.664 24.7831 56.5949 25.1599 56.4549 25.5125L56.9697 25.7169ZM57.2121 24.3954C57.2053 23.9433 57.1094 23.497 56.93 23.0819L56.4216 23.3017C56.5722 23.6499 56.6526 24.0244 56.6583 24.4038L57.2121 24.3954ZM56.93 23.0819C56.7505 22.6669 56.491 22.2913 56.1663 21.9766L55.7809 22.3743C56.0533 22.6383 56.271 22.9535 56.4216 23.3017L56.93 23.0819ZM56.1663 21.9766C55.8416 21.6619 55.458 21.4143 55.0376 21.248L54.8338 21.763C55.1866 21.9026 55.5084 22.1103 55.7809 22.3743L56.1663 21.9766ZM55.038 21.2482C54.19 20.9108 53.2427 20.9238 52.4042 21.2841L52.6228 21.793C53.3266 21.4905 54.1216 21.4797 54.8333 21.7628L55.038 21.2482ZM52.4042 21.2841C51.5656 21.6445 50.9043 22.3228 50.5654 23.1703L51.0797 23.3759C51.3641 22.6647 51.9191 22.0954 52.6228 21.793L52.4042 21.2841ZM50.5663 23.168C50.4001 23.5732 50.3152 24.0072 50.3167 24.4451L50.8706 24.4432C50.8693 24.078 50.9401 23.7161 51.0787 23.3783L50.5663 23.168ZM50.3167 24.4451C50.3182 24.8831 50.406 25.3165 50.575 25.7206L51.086 25.5068C50.945 25.1699 50.8718 24.8085 50.8706 24.4432L50.3167 24.4451ZM50.5758 25.7224C50.6316 25.8531 50.6475 25.9974 50.6214 26.137L51.1658 26.2387C51.212 25.9915 51.1839 25.7362 51.0852 25.5049L50.5758 25.7224ZM50.6214 26.137C50.5953 26.2767 50.5285 26.4055 50.4293 26.5072L50.8258 26.8939C51.0014 26.7139 51.1197 26.4859 51.1658 26.2387L50.6214 26.137ZM50.4293 26.5072C50.3301 26.609 50.203 26.6791 50.064 26.7087L50.1794 27.2504C50.4254 27.198 50.6503 27.0739 50.8258 26.8939L50.4293 26.5072ZM50.064 26.7087C49.9251 26.7383 49.7805 26.7261 49.6484 26.6736L49.4439 27.1883C49.6775 27.2811 49.9335 27.3027 50.1794 27.2504L50.064 26.7087ZM49.6484 26.6736L42.1066 23.6764L41.9021 24.1911L49.4439 27.1883L49.6484 26.6736ZM42.1065 23.6763C42.0186 23.6414 41.9384 23.5896 41.8705 23.5237L41.4846 23.9209C41.6047 24.0376 41.7466 24.1294 41.9022 24.1911L42.1065 23.6763ZM41.8705 23.5237C41.8027 23.4577 41.7485 23.3791 41.7111 23.2922L41.2024 23.5113C41.2687 23.6651 41.3646 23.8043 41.4846 23.9209L41.8705 23.5237ZM41.7111 23.2922C41.6737 23.2053 41.6537 23.1119 41.6525 23.0174L41.0987 23.0249C41.1009 23.1923 41.1362 23.3576 41.2024 23.5113L41.7111 23.2922ZM41.6525 23.0174C41.6512 22.9228 41.6685 22.8289 41.7036 22.741L41.1892 22.5358C41.1271 22.6913 41.0964 22.8575 41.0987 23.0249L41.6525 23.0174ZM41.7037 22.7407L44.0273 16.8968L43.5127 16.6922L41.189 22.5361L41.7037 22.7407ZM43.7715 16.5176C43.1576 16.5141 42.5497 16.3955 41.9796 16.1677L41.7741 16.682C42.4086 16.9355 43.0851 17.0676 43.7684 17.0714L43.7715 16.5176ZM41.98 16.1679C41.3149 15.9008 40.7168 15.4906 40.2282 14.9663L39.823 15.3439C40.3671 15.9277 41.0331 16.3845 41.7736 16.6818L41.98 16.1679ZM40.2282 14.9663C39.7395 14.442 39.3723 13.8166 39.1526 13.1344L38.6254 13.3042C38.87 14.0638 39.2789 14.7602 39.823 15.3439L40.2282 14.9663ZM39.1526 13.1344C38.9329 12.4523 38.8661 11.7301 38.9569 11.0192L38.4076 10.9489C38.3064 11.7405 38.3808 12.5446 38.6254 13.3042L39.1526 13.1344ZM38.9569 11.0192C39.0478 10.3083 39.2941 9.62608 39.6783 9.02108L39.2107 8.72417C38.7829 9.39781 38.5087 10.1574 38.4076 10.9489L38.9569 11.0192ZM39.6783 9.02108C40.0625 8.41608 40.5752 7.9031 41.18 7.51858L40.8828 7.0512C40.2094 7.47934 39.6385 8.05052 39.2107 8.72417L39.6783 9.02108ZM41.18 7.51858C41.7848 7.13406 42.4668 6.88743 43.1777 6.79621L43.1072 6.24687C42.3157 6.34844 41.5562 6.62305 40.8828 7.0512L41.18 7.51858ZM43.1777 6.79621C43.8885 6.70499 44.6108 6.77141 45.2931 6.99076L45.4626 6.4635C44.7029 6.21925 43.8987 6.14529 43.1072 6.24687L43.1777 6.79621ZM45.2931 6.99076C45.9754 7.21012 46.601 7.57702 47.1255 8.0654L47.5029 7.66006C46.9189 7.11626 46.2223 6.70774 45.4626 6.4635L45.2931 6.99076ZM47.5715 7.96516L49.9011 2.11328L49.3865 1.90843L47.0569 7.76031L47.5715 7.96516ZM49.9011 2.11323C49.9361 2.02537 49.988 1.94526 50.0539 1.87749L49.657 1.49127C49.5403 1.61121 49.4484 1.75298 49.3865 1.90847L49.9011 2.11323ZM50.0539 1.87749C50.1199 1.80971 50.1985 1.7556 50.2854 1.71825L50.0666 1.20945C49.9129 1.27556 49.7737 1.37132 49.657 1.49127L50.0539 1.87749ZM50.2854 1.71825C50.3723 1.6809 50.4656 1.66103 50.5602 1.6598L50.5529 1.106C50.3856 1.10819 50.2203 1.14334 50.0666 1.20945L50.2854 1.71825ZM50.5602 1.6598C50.6547 1.65856 50.7486 1.67597 50.8364 1.71104L51.0418 1.19669C50.8864 1.13462 50.7203 1.10381 50.5529 1.106L50.5602 1.6598ZM50.8368 1.7112L69.6609 9.1932L69.8655 8.67852L51.0414 1.19652L50.8368 1.7112ZM69.6606 9.19307C70.3203 9.45625 70.8488 9.97025 71.1301 10.6224L71.6387 10.403C71.2992 9.61623 70.6617 8.99615 69.8658 8.67865L69.6606 9.19307ZM71.1301 10.6224C71.4115 11.2746 71.4229 12.0117 71.1617 12.6722L71.6767 12.8758C71.9918 12.079 71.9781 11.1898 71.6387 10.403L71.1301 10.6224ZM71.1619 12.6717L63.6888 31.4749L64.2035 31.6794L71.6766 12.8763L71.1619 12.6717ZM63.6881 31.4766C63.6356 31.6116 63.5435 31.7275 63.424 31.8092L63.7368 32.2663C63.9483 32.1216 64.1112 31.9165 64.2042 31.6777L63.6881 31.4766ZM63.424 31.8092C63.3045 31.891 63.1631 31.9348 63.0183 31.9349L63.0187 32.4888C63.275 32.4886 63.5253 32.4111 63.7368 32.2663L63.424 31.8092ZM57.4361 28.2225L62.3573 30.1775L62.5618 29.6628L57.6405 27.7078L57.4361 28.2225ZM62.7169 30.0224L69.8222 12.1449L69.3076 11.9404L62.2022 29.8179L62.7169 30.0224ZM69.8236 12.1414C69.94 11.8364 69.9328 11.4981 69.8036 11.1983L69.295 11.4176C69.3671 11.5849 69.3711 11.7737 69.3062 11.9439L69.8236 12.1414ZM69.8036 11.1983C69.6744 10.8986 69.4333 10.661 69.1317 10.5363L68.92 11.0481C69.0883 11.1177 69.2229 11.2503 69.295 11.4176L69.8036 11.1983ZM69.1282 10.5348L51.2308 3.41653L51.0261 3.93117L68.9235 11.0495L69.1282 10.5348ZM50.871 3.57174L48.2525 10.1729L48.7673 10.3771L51.3858 3.77596L50.871 3.57174ZM48.2524 10.173C48.2003 10.3045 48.1106 10.4177 47.9945 10.4985L48.3108 10.9532C48.5163 10.8102 48.6751 10.6098 48.7673 10.3771L48.2524 10.173ZM47.9945 10.4985C47.8784 10.5793 47.741 10.6241 47.5996 10.6272L47.6119 11.1809C47.8622 11.1754 48.1053 11.0961 48.3108 10.9532L47.9945 10.4985ZM47.5996 10.6272C47.4582 10.6304 47.3189 10.5918 47.1993 10.5162L46.9036 10.9845C47.1152 11.1182 47.3616 11.1865 47.6119 11.1809L47.5996 10.6272ZM47.1993 10.5162C47.0798 10.4407 46.9851 10.3316 46.9272 10.2025L46.4219 10.4293C46.5244 10.6577 46.6919 10.8508 46.9036 10.9845L47.1993 10.5162ZM46.9264 10.2009C46.6463 9.58708 46.1919 9.06913 45.6198 8.71142L45.3262 9.18103C45.8062 9.48119 46.1875 9.91581 46.4226 10.4309L46.9264 10.2009ZM45.6198 8.71142C45.0477 8.35371 44.3831 8.17202 43.7085 8.18891L43.7224 8.74258C44.2884 8.72841 44.8461 8.88087 45.3262 9.18103L45.6198 8.71142ZM43.7085 8.18891C43.034 8.2058 42.3793 8.42054 41.8259 8.80644L42.1426 9.26076C42.6071 8.93695 43.1564 8.75676 43.7224 8.74258L43.7085 8.18891ZM41.8259 8.80644C41.2724 9.19234 40.8445 9.73239 40.5954 10.3595L41.1101 10.5639C41.3191 10.0377 41.6782 9.58458 42.1426 9.26076L41.8259 8.80644ZM40.5954 10.3595C40.3463 10.9865 40.287 11.673 40.4248 12.3335L40.967 12.2203C40.8513 11.6661 40.9011 11.0901 41.1101 10.5639L40.5954 10.3595ZM40.4248 12.3335C40.5626 12.994 40.8915 13.5994 41.3706 14.0746L41.7606 13.6813C41.3586 13.2826 41.0826 12.7746 40.967 12.2203L40.4248 12.3335ZM41.3706 14.0746C41.8496 14.5497 42.4578 14.8736 43.1194 15.0059L43.2281 14.4629C42.6729 14.3518 42.1626 14.08 41.7606 13.6813L41.3706 14.0746ZM43.1194 15.0059C43.781 15.1383 44.467 15.0733 45.0919 14.8191L44.8832 14.306C44.3588 14.5194 43.7832 14.5739 43.2281 14.4629L43.1194 15.0059ZM45.093 14.8186C45.2237 14.7648 45.3673 14.7507 45.5059 14.778L45.6128 14.2346C45.3675 14.1863 45.1134 14.2113 44.8822 14.3065L45.093 14.8186ZM45.5059 14.778C45.6445 14.8053 45.772 14.8728 45.8725 14.9721L46.2617 14.578C46.0839 14.4023 45.8582 14.2829 45.6128 14.2346L45.5059 14.778ZM45.8725 14.9721C45.973 15.0714 46.0421 15.198 46.0711 15.3363L46.6132 15.2227C46.5618 14.978 46.4396 14.7538 46.2617 14.578L45.8725 14.9721ZM46.0711 15.3363C46.1001 15.4746 46.0877 15.6183 46.0355 15.7496L46.5502 15.9542C46.6426 15.7218 46.6645 15.4674 46.6132 15.2227L46.0711 15.3363ZM46.0356 15.7494L43.4091 22.3446L43.9236 22.5496L46.5502 15.9544L46.0356 15.7494ZM43.564 22.7044L48.4982 24.6663L48.7029 24.1517L43.7687 22.1898L43.564 22.7044ZM48.8775 24.4101C48.8807 23.6135 49.0784 22.8297 49.4536 22.1269L48.965 21.8661C48.5474 22.6485 48.3272 23.5211 48.3236 24.4079L48.8775 24.4101ZM49.4536 22.1269C49.8287 21.4241 50.3698 20.8236 51.0299 20.3776L50.7199 19.9187C49.985 20.4152 49.3826 21.0837 48.965 21.8661L49.4536 22.1269ZM51.0299 20.3776C51.69 19.9316 52.4491 19.6536 53.2411 19.5678L53.1814 19.0172C52.2997 19.1127 51.4547 19.4222 50.7199 19.9187L51.0299 20.3776ZM53.2411 19.5678C54.0331 19.482 54.834 19.591 55.5743 19.8852L55.7789 19.3706C54.9548 19.043 54.0631 18.9217 53.1814 19.0172L53.2411 19.5678ZM55.5743 19.8852C56.3146 20.1795 56.9718 20.6502 57.4888 21.2563L57.9102 20.8969C57.3347 20.2221 56.6031 19.6982 55.7789 19.3706L55.5743 19.8852ZM57.4888 21.2563C58.0057 21.8624 58.3668 22.5857 58.5405 23.3631L59.0811 23.2423C58.8876 22.3768 58.4857 21.5717 57.9102 20.8969L57.4888 21.2563ZM58.5405 23.3631C58.7143 24.1406 58.6955 24.9487 58.4858 25.7173L59.0201 25.8631C59.2536 25.0075 59.2745 24.1078 59.0811 23.2423L58.5405 23.3631ZM58.4858 25.7173C58.2761 26.4858 57.8818 27.1915 57.3372 27.7729L57.7414 28.1515C58.3477 27.5042 58.7866 26.7186 59.0201 25.8631L58.4858 25.7173ZM57.2766 27.8747L57.2756 27.8777L57.801 28.0527L57.802 28.0497L57.2766 27.8747Z" fill="white" mask="url(#path-3-inside-2_1760_48831)"/>
</svg>
