<svg width="73" height="72" viewBox="0 0 73 72" fill="none" xmlns="http://www.w3.org/2000/svg">
<path d="M13.6137 13.9643C13.3278 13.7017 13.309 13.2569 13.5717 12.971C20.377 5.56397 31.3298 3.88097 40.006 8.77303L38.8987 5.69925C38.767 5.33391 38.9565 4.93116 39.322 4.79953C39.687 4.66819 40.09 4.85719 40.2217 5.22282L41.9293 9.96272C42.0582 10.3206 41.8791 10.716 41.525 10.8554L36.8361 12.6987C36.4747 12.8408 36.0666 12.663 35.9246 12.3016C35.7826 11.9403 35.9603 11.5321 36.3217 11.3901L39.5381 10.1256C31.3938 5.39803 21.0264 6.93577 14.6073 13.9226C14.4687 14.0735 14.2793 14.15 14.0893 14.15C13.9192 14.1498 13.7489 14.0885 13.6137 13.9643ZM27.33 49.2054C25.8817 49.8618 24.3519 50.3041 22.7831 50.5198C22.6572 50.5371 22.5323 50.5457 22.409 50.5457C21.2335 50.5457 20.1961 49.7796 19.8633 48.6163C19.5453 47.5057 18.6523 46.6429 17.5324 46.3651C16.4126 46.0875 15.22 46.4324 14.4198 47.266C13.4938 48.2302 12.0341 48.3642 10.9489 47.5843C9.66274 46.6606 8.51707 45.5546 7.54324 44.2973C6.72677 43.2426 6.80651 41.7807 7.7328 40.821C8.53479 39.9905 8.83474 38.7863 8.51538 37.6784C8.19602 36.57 7.30122 35.7098 6.18002 35.4333C4.88191 35.1134 4.03662 33.9154 4.17007 32.5851C4.32813 31.0089 4.71105 29.4656 5.30772 27.998C5.81144 26.7597 7.11771 26.0963 8.4161 26.4192C9.5366 26.6991 10.7298 26.3568 11.5302 25.5261C12.3301 24.6957 12.6278 23.4908 12.3069 22.382C11.9364 21.1008 12.5492 19.7712 13.7638 19.2205C15.2119 18.5639 16.7418 18.1216 18.3108 17.9058C19.6366 17.7238 20.8628 18.5243 21.2306 19.8091C21.5484 20.9199 22.4415 21.7827 23.5614 22.0607C24.6813 22.3384 25.874 21.9933 26.6743 21.1597C27.5996 20.1954 29.0593 20.0614 30.1451 20.8415C31.4313 21.7655 32.5773 22.8715 33.5506 24.1287C34.3673 25.183 34.2876 26.6449 33.3611 27.6047C32.5592 28.4352 32.2592 29.6394 32.5784 30.7474C32.8976 31.8558 33.7926 32.716 34.9139 32.9925C36.2122 33.3124 37.0575 34.5104 36.9237 35.8408C36.7657 37.4168 36.3828 38.9602 35.7861 40.4277C35.2825 41.6661 33.9758 42.3295 32.6778 42.0065C31.5568 41.7263 30.3639 42.0691 29.5637 42.8998C28.7638 43.7299 28.4661 44.9348 28.7869 46.0439C29.1574 47.3251 28.5447 48.6547 27.33 49.2054ZM27.4362 46.4344C26.9762 44.8435 27.4034 43.1152 28.5512 41.9241C29.6993 40.7322 31.4117 40.241 33.0184 40.642C33.6303 40.7948 34.246 40.4819 34.4835 39.898C35.0297 38.555 35.38 37.1427 35.5247 35.7003C35.5877 35.0731 35.1891 34.5085 34.5774 34.3578C32.9689 33.9612 31.6852 32.727 31.2272 31.1366C30.7693 29.5469 31.1993 27.8193 32.3495 26.628C32.786 26.1757 32.8237 25.4867 32.4388 24.9898C31.5485 23.8399 30.5008 22.8285 29.3246 21.9836C28.8132 21.6163 28.1251 21.6793 27.6888 22.1335C26.541 23.3291 24.8298 23.8243 23.2228 23.4256C21.6157 23.0269 20.3345 21.7894 19.8787 20.1961C19.7053 19.5906 19.1258 19.213 18.5024 19.299C17.0681 19.4963 15.6691 19.9008 14.3446 20.5013C13.7721 20.7609 13.4832 21.3875 13.6578 21.9915C14.1179 23.5821 13.6907 25.3105 12.5429 26.5019C11.3947 27.694 9.68327 28.1856 8.07551 27.7837C7.46351 27.6317 6.84785 27.944 6.61047 28.5279C6.06429 29.8709 5.71399 31.2832 5.56929 32.7255C5.50643 33.3526 5.90482 33.9173 6.51668 34.0681C8.12501 34.4645 9.40863 35.6989 9.86679 37.2893C10.3248 38.8789 9.89477 40.6065 8.7446 41.7978C8.3081 42.2502 8.27041 42.9393 8.65516 43.4364C9.54574 44.5864 10.5935 45.5977 11.7694 46.4423C12.2812 46.8097 12.9691 46.7466 13.4055 46.2922C14.2906 45.3701 15.5111 44.8647 16.7602 44.8647C17.1306 44.8647 17.5036 44.9092 17.871 45.0004C19.4779 45.399 20.7593 46.6365 21.2151 48.2297C21.3883 48.8353 21.9655 49.2131 22.5912 49.1269C24.0258 48.9296 25.4247 48.5252 26.7494 47.9249C27.3219 47.6651 27.6107 47.0384 27.4362 46.4344ZM26.4334 35.673C25.7494 38.4304 23.2678 40.2784 20.5464 40.2784C20.0645 40.2784 19.5751 40.2204 19.0867 40.0994C15.841 39.2941 13.8553 35.9985 14.6606 32.7527C15.0504 31.1804 16.0294 29.8541 17.4171 29.018C18.8046 28.1821 20.4346 27.9363 22.0072 28.3264C25.2528 29.1316 27.2385 32.4273 26.4334 35.673ZM21.6685 29.6911C21.2938 29.5983 20.915 29.5523 20.5387 29.5523C19.7018 29.5523 18.878 29.7795 18.1428 30.2226C17.0769 30.8647 16.325 31.8836 16.0253 33.0913C15.7256 34.299 15.9144 35.5511 16.5565 36.6171C17.1986 37.6829 18.2175 38.4349 19.4252 38.7346C21.9185 39.3528 24.4499 37.8277 25.0685 35.3344C25.687 32.8413 24.1616 30.3098 21.6685 29.6911ZM68.7985 41.1258C68.7733 40.7381 68.4374 40.4438 68.0515 40.4695C67.6639 40.4945 67.37 40.8291 67.3952 41.2165C68.0073 50.6848 61.9526 59.24 52.907 61.8577L54.2164 58.6595C54.3636 58.3 54.1915 57.8894 53.8322 57.7425C53.4728 57.5955 53.0621 57.7675 52.9152 58.1266L51.0065 62.7891C50.8623 63.1412 51.0243 63.5439 51.3722 63.6982L55.9779 65.7404C56.0704 65.7816 56.1673 65.801 56.2623 65.801C56.5319 65.801 56.7891 65.6452 56.9054 65.3826C57.0629 65.0277 56.9026 64.6123 56.5477 64.4549L53.5612 63.1305C63.0932 60.2421 69.4476 51.1636 68.7985 41.1258ZM51.0833 45.2437C50.0526 45.2437 49.1432 44.5721 48.8517 43.5526C48.5986 42.6686 47.8878 41.9819 46.9966 41.7608C46.106 41.5399 45.1563 41.8144 44.5195 42.4779C43.7079 43.3231 42.4285 43.4405 41.4767 42.757C40.3968 41.9809 39.4349 41.0527 38.618 39.9976C37.9021 39.0732 37.972 37.7914 38.7841 36.9502C39.4224 36.2893 39.661 35.3308 39.4072 34.4492C39.1531 33.5672 38.4408 32.8823 37.5483 32.6624C36.4103 32.382 35.6694 31.332 35.7864 30.1656C35.9191 28.8422 36.2404 27.5468 36.7413 26.3152C37.1829 25.2294 38.3287 24.6475 39.4661 24.9311C40.3578 25.1539 41.3076 24.8813 41.9445 24.2203C42.5809 23.5596 42.8179 22.6007 42.5627 21.718C42.2375 20.595 42.7749 19.4293 43.8398 18.9466C45.0555 18.3953 46.3397 18.024 47.6571 17.8429C48.8175 17.6829 49.8941 18.3852 50.2164 19.5116C50.4694 20.3955 51.1803 21.0822 52.0714 21.3033C52.962 21.5243 53.9118 21.2497 54.5485 20.5862C55.3601 19.7408 56.6395 19.6237 57.5912 20.3072C58.6707 21.0825 59.6326 22.0108 60.4502 23.0666C61.1659 23.9911 61.0962 25.2727 60.2841 26.1139C59.6458 26.7749 59.407 27.7334 59.661 28.6149C59.9151 29.4969 60.6273 30.1818 61.5199 30.4017C62.658 30.6821 63.3988 31.7323 63.2816 32.8987C63.1489 34.2217 62.8276 35.5171 62.3267 36.749C61.8851 37.8347 60.7394 38.4162 59.6019 38.133C58.7096 37.9101 57.7604 38.1828 57.1235 38.8439C56.4871 39.5047 56.2501 40.4634 56.5053 41.346C56.8302 42.4692 56.293 43.6348 55.228 44.1177C54.0121 44.6688 52.7279 45.0401 51.4109 45.2211C51.301 45.2363 51.1913 45.2437 51.0833 45.2437ZM51.2195 43.828C52.4019 43.6655 53.5553 43.332 54.6477 42.837C55.0703 42.6454 55.2835 42.1827 55.1546 41.7368C54.7599 40.3726 55.1264 38.8903 56.1109 37.8683C57.0958 36.8459 58.5638 36.4246 59.9425 36.7687C60.3938 36.8819 60.8488 36.6505 61.0239 36.2195C61.4742 35.1122 61.763 33.9477 61.8824 32.7585C61.9288 32.2955 61.6348 31.8787 61.1831 31.7673C59.8034 31.4273 58.7023 30.3685 58.3094 29.0045C57.9167 27.641 58.2855 26.1592 59.2721 25.1376C59.5945 24.8036 59.6222 24.2949 59.3381 23.9278C58.6036 22.9795 57.7399 22.1456 56.7706 21.4495C56.3928 21.1781 55.8849 21.2245 55.5627 21.5603C54.5784 22.5858 53.1108 23.0103 51.7325 22.6683C50.3543 22.3265 49.2551 21.265 48.8642 19.8987C48.7364 19.4515 48.3104 19.1724 47.8482 19.2362C46.6655 19.3988 45.5123 19.7324 44.4202 20.2275C43.9973 20.419 43.7843 20.8817 43.9132 21.3275C44.3078 22.692 43.9412 24.1743 42.9568 25.1961C41.972 26.2184 40.5039 26.6397 39.1252 26.2958C38.6737 26.1823 38.2189 26.4142 38.0438 26.845C37.5935 27.952 37.3047 29.1164 37.1853 30.306C37.1389 30.7689 37.4331 31.1857 37.8848 31.2971C39.2644 31.6373 40.3655 32.6959 40.7584 34.0599C41.1511 35.4234 40.7822 36.9052 39.7957 37.9268C39.4734 38.2608 39.4457 38.7695 39.7298 39.1365C40.4637 40.0843 41.3274 40.9182 42.2972 41.6149C42.675 41.886 43.1827 41.8396 43.5048 41.5042C44.2639 40.7133 45.3109 40.2798 46.3823 40.2798C46.7001 40.2798 47.0199 40.3179 47.3352 40.3961C48.7135 40.7379 49.8126 41.7994 50.2035 43.1657C50.3315 43.6127 50.7591 43.8912 51.2195 43.828ZM40.0704 53.5417C40.6748 54.5449 40.8524 55.7234 40.5703 56.86C40.2883 57.9967 39.5807 58.9555 38.5775 59.5599C37.8856 59.9767 37.1102 60.1905 36.3228 60.1905C35.9685 60.1905 35.6118 60.1471 35.2593 60.0597C34.1226 59.7777 33.1638 59.0701 32.5594 58.0669C31.955 57.0638 31.7774 55.8852 32.0594 54.7486C32.6414 52.4022 35.0243 50.9663 37.3705 51.5486H37.3706C38.5072 51.8307 39.4661 52.5385 40.0704 53.5417ZM38.8659 54.2673C38.4554 53.5859 37.8041 53.1051 37.0319 52.9135C36.7923 52.854 36.5518 52.8256 36.3151 52.8256C34.9786 52.8256 33.7601 53.7331 33.424 55.0873C33.2326 55.8593 33.3531 56.6599 33.7638 57.3413C34.1742 58.0227 34.8256 58.5034 35.5976 58.6949C36.3698 58.886 37.1702 58.7658 37.8517 58.3553C38.5332 57.9448 39.0138 57.2934 39.2054 56.5214C39.397 55.7492 39.2765 54.9488 38.8659 54.2673ZM52.1997 35.9568C51.3845 36.4479 50.4708 36.6999 49.543 36.6999C49.1256 36.6999 48.7056 36.649 48.29 36.5458C45.5256 35.8599 43.8343 33.0529 44.5202 30.2882C44.8523 28.9491 45.6862 27.8193 46.868 27.1073C48.0498 26.3953 49.4378 26.1858 50.7775 26.5184C52.1167 26.8505 53.2465 27.6844 53.9585 28.8662C54.6705 30.048 54.8797 31.4366 54.5474 32.7759C54.2151 34.1152 53.3816 35.2447 52.1997 35.9568ZM51.4741 34.7522C52.3341 34.2339 52.9411 33.4119 53.1828 32.4371C53.4245 31.4625 53.2724 30.4521 52.754 29.5919C52.2357 28.7318 51.4137 28.1249 50.4389 27.8831C50.1367 27.8082 49.8307 27.771 49.5271 27.771C48.8518 27.771 48.1871 27.9544 47.5938 28.3119C46.7337 28.8302 46.1268 29.6522 45.8851 30.627C45.386 32.6391 46.6167 34.6819 48.6288 35.1811C49.6032 35.4229 50.6139 35.2704 51.4741 34.7522ZM47.7784 56.9438C47.6678 58.0469 47.3999 59.1269 46.9822 60.1543C46.5945 61.1075 45.5886 61.6184 44.5905 61.369C43.8979 61.1963 43.1595 61.4077 42.6645 61.9215C42.1698 62.435 41.9858 63.1801 42.1841 63.8663C42.4693 64.852 41.9979 65.8751 41.063 66.2989C40.0495 66.7583 38.9787 67.0679 37.88 67.2189C37.7832 67.2323 37.6872 67.2387 37.5923 67.2387C36.6878 67.2387 35.8897 66.6495 35.6335 65.7546C35.4369 65.0673 34.8845 64.5337 34.192 64.362C33.4991 64.1898 32.7617 64.4037 32.2669 64.9194C31.5545 65.6612 30.4314 65.7641 29.5963 65.1642C28.6958 64.5172 27.8938 63.7432 27.2123 62.8633C26.584 62.0518 26.6455 60.9268 27.3583 60.1885C27.8541 59.6748 28.0398 58.93 27.8423 58.2448C27.645 57.5594 27.0914 57.0274 26.3978 56.8564C25.399 56.61 24.7486 55.6883 24.8512 54.6649C24.9619 53.5615 25.2299 52.4814 25.6476 51.4543C26.0351 50.5013 27.0403 49.9899 28.0393 50.2397C28.7319 50.4125 29.4703 50.2009 29.9652 49.6872C30.4599 49.1738 30.6438 48.4286 30.4456 47.7425C30.1604 46.7567 30.6318 45.7336 31.5666 45.3098C32.5804 44.8502 33.6513 44.5407 34.7495 44.3897C35.7696 44.2493 36.7132 44.8657 36.9962 45.8542C37.1928 46.5414 37.7451 47.0751 38.4378 47.2468C39.13 47.4188 39.868 47.2051 40.3629 46.6893C41.075 45.9475 42.1983 45.8445 43.0335 46.4446C43.9336 47.0912 44.7357 47.8654 45.4173 48.7454C46.0457 49.557 45.9842 50.682 45.2717 51.4202C44.7755 51.9339 44.5899 52.6788 44.7875 53.364C44.9848 54.0494 45.5384 54.5813 46.2318 54.7523C47.2306 54.9987 47.881 55.9204 47.7784 56.9438ZM45.8952 56.1177C44.7145 55.8267 43.7723 54.9205 43.4361 53.7532C43.0998 52.5863 43.4155 51.3181 44.2599 50.4436C44.4829 50.2124 44.502 49.8606 44.3054 49.6065C43.7069 48.8339 43.003 48.1542 42.2129 47.5868C41.9515 47.3991 41.6001 47.4313 41.3773 47.6633C40.5348 48.5409 39.2788 48.9047 38.0989 48.6117C36.9194 48.3192 35.9787 47.4107 35.6441 46.2413C35.5555 45.9319 35.2587 45.7386 34.9411 45.7829C33.9772 45.9153 33.0371 46.1872 32.1471 46.5906C31.8546 46.7232 31.707 47.0434 31.7963 47.3518C32.1339 48.5197 31.8205 49.7883 30.9778 50.6628C30.1348 51.5378 28.8779 51.8982 27.6986 51.604C27.3864 51.5258 27.0716 51.6857 26.9503 51.9839C26.5833 52.8865 26.3478 53.8358 26.2503 54.8052C26.2182 55.1254 26.4219 55.414 26.7343 55.4911C27.915 55.782 28.8573 56.6882 29.1936 57.8555C29.5297 59.0226 29.2141 60.2907 28.3698 61.1651C28.1468 61.3963 28.1275 61.7482 28.3241 62.0023C28.9225 62.7747 29.6266 63.4542 30.4167 64.0221C30.678 64.2098 31.0294 64.1775 31.2525 63.9453C31.9022 63.2685 32.7981 62.8975 33.7152 62.8975C33.9872 62.8975 34.2609 62.93 34.5307 62.9971C35.7103 63.2897 36.6509 64.198 36.9855 65.3676C37.0742 65.6769 37.3716 65.8686 37.6885 65.8257C38.6526 65.6933 39.5927 65.4214 40.4824 65.0181C40.7749 64.8855 40.9225 64.5653 40.8332 64.2569C40.4956 63.089 40.8092 61.8204 41.6517 60.9459C42.4945 60.0709 43.7514 59.7108 44.9309 60.0047C45.2434 60.0829 45.5581 59.9228 45.6793 59.6247C46.0464 58.7219 46.2818 57.7727 46.3792 56.8035C46.4113 56.4833 46.2078 56.1947 45.8952 56.1177Z" fill="white"/>
<path d="M13.6258 13.9643C13.3399 13.7017 13.3211 13.2569 13.5838 12.971C20.389 5.56397 31.3419 3.88097 40.018 8.77303L38.9107 5.69925C38.7791 5.33391 38.9685 4.93116 39.334 4.79953C39.6991 4.66819 40.1021 4.85719 40.2337 5.22282L41.9414 9.96272C42.0703 10.3206 41.8912 10.716 41.5371 10.8554L36.8482 12.6987C36.4868 12.8408 36.0787 12.663 35.9367 12.3016C35.7946 11.9403 35.9724 11.5321 36.3338 11.3901L39.5502 10.1256C31.4059 5.39803 21.0384 6.93577 14.6193 13.9226C14.4808 14.0735 14.2914 14.15 14.1014 14.15C13.9312 14.1498 13.761 14.0885 13.6258 13.9643ZM68.8106 41.1258C68.7854 40.7381 68.4494 40.4437 68.0636 40.4695C67.676 40.4945 67.3821 40.8291 67.4073 41.2165C68.0194 50.6848 61.9647 59.24 52.9191 61.8577L54.2285 58.6595C54.3757 58.3 54.2036 57.8894 53.8443 57.7425C53.4848 57.5955 53.0742 57.7675 52.9273 58.1266L51.0186 62.7891C50.8744 63.1412 51.0364 63.5439 51.3843 63.6982L55.9899 65.7404C56.0825 65.7816 56.1794 65.801 56.2744 65.801C56.544 65.801 56.8012 65.6452 56.9175 65.3826C57.075 65.0277 56.9147 64.6123 56.5597 64.4549L53.5733 63.1305C63.1053 60.2421 69.4597 51.1636 68.8106 41.1258ZM40.0824 53.5417C40.6868 54.5449 40.8644 55.7234 40.5824 56.86C40.3004 57.9967 39.5928 58.9555 38.5896 59.5599C37.8977 59.9767 37.1223 60.1905 36.3349 60.1905C35.9805 60.1905 35.6239 60.1471 35.2714 60.0597C34.1347 59.7777 33.1759 59.0701 32.5715 58.0669C31.9671 57.0638 31.7895 55.8852 32.0715 54.7486C32.6535 52.4022 35.0364 50.9663 37.3826 51.5486C38.5191 51.8307 39.4782 52.5385 40.0824 53.5417ZM38.878 54.2673C38.4675 53.5859 37.8161 53.1051 37.044 52.9135C36.8043 52.854 36.5639 52.8256 36.3272 52.8256C34.9907 52.8256 33.7722 53.7331 33.4361 55.0873C33.2447 55.8593 33.3652 56.6599 33.7758 57.3413C34.1863 58.0227 34.8377 58.5034 35.6097 58.6949C36.3819 58.886 37.1823 58.7658 37.8638 58.3553C38.5453 57.9448 39.0259 57.2934 39.2175 56.5214C39.4091 55.7492 39.2886 54.9488 38.878 54.2673ZM47.7905 56.9438C47.6798 58.0469 47.4119 59.1269 46.9943 60.1543C46.6066 61.1075 45.6007 61.6184 44.6025 61.369C43.91 61.1963 43.1715 61.4077 42.6765 61.9215C42.1818 62.435 41.9979 63.1801 42.1962 63.8662C42.4814 64.852 42.01 65.8751 41.0751 66.2989C40.0616 66.7583 38.9908 67.0679 37.8921 67.2189C37.7953 67.2323 37.6993 67.2387 37.6043 67.2387C36.6998 67.2387 35.9018 66.6495 35.6456 65.7546C35.449 65.0673 34.8966 64.5337 34.204 64.3619C33.5112 64.1898 32.7737 64.4037 32.279 64.9194C31.5666 65.6612 30.4434 65.7641 29.6084 65.1642C28.7078 64.5172 27.9059 63.7432 27.2244 62.8633C26.5961 62.0518 26.6575 60.9268 27.3704 60.1885C27.8662 59.6748 28.0518 58.93 27.8544 58.2448C27.6571 57.5594 27.1034 57.0274 26.4099 56.8564C25.411 56.61 24.7606 55.6883 24.8633 54.6649C24.974 53.5615 25.242 52.4814 25.6597 51.4543C26.0472 50.5013 27.0524 49.9899 28.0514 50.2397C28.744 50.4125 29.4824 50.2009 29.9773 49.6872C30.472 49.1738 30.6559 48.4286 30.4576 47.7425C30.1725 46.7567 30.6438 45.7336 31.5787 45.3098C32.5925 44.8502 33.6633 44.5407 34.7616 44.3897C35.7817 44.2493 36.7253 44.8657 37.0082 45.8542C37.2048 46.5414 37.7572 47.0751 38.4499 47.2468C39.1421 47.4187 39.8801 47.2051 40.3749 46.6893C41.0871 45.9475 42.2104 45.8445 43.0455 46.4446C43.9457 47.0912 44.7478 47.8654 45.4294 48.7454C46.0577 49.557 45.9963 50.682 45.2837 51.4202C44.7876 51.9339 44.602 52.6788 44.7996 53.364C44.9969 54.0494 45.5505 54.5813 46.2439 54.7523C47.2426 54.9987 47.893 55.9204 47.7905 56.9438ZM45.9073 56.1177C44.7266 55.8267 43.7844 54.9205 43.4482 53.7532C43.1119 52.5863 43.4276 51.3181 44.2719 50.4436C44.495 50.2124 44.5141 49.8606 44.3175 49.6064C43.719 48.8339 43.015 48.1542 42.225 47.5868C41.9636 47.3991 41.6122 47.4313 41.3894 47.6633C40.5469 48.5409 39.2909 48.9047 38.111 48.6117C36.9314 48.3192 35.9908 47.4107 35.6561 46.2413C35.5675 45.9319 35.2708 45.7386 34.9531 45.7829C33.9893 45.9153 33.0492 46.1872 32.1592 46.5906C31.8667 46.7232 31.719 47.0434 31.8083 47.3518C32.146 48.5197 31.8325 49.7883 30.9899 50.6628C30.1469 51.5378 28.8899 51.8982 27.7107 51.604C27.3985 51.5258 27.0836 51.6857 26.9624 51.9839C26.5954 52.8865 26.3598 53.8358 26.2624 54.8052C26.2303 55.1254 26.4339 55.414 26.7464 55.491C27.9271 55.782 28.8694 56.6882 29.2057 57.8555C29.5417 59.0226 29.2262 60.2907 28.3819 61.1651C28.1588 61.3963 28.1396 61.7482 28.3362 62.0023C28.9345 62.7747 29.6386 63.4542 30.4288 64.0221C30.6901 64.2098 31.0415 64.1774 31.2645 63.9453C31.9142 63.2685 32.8102 62.8975 33.7273 62.8975C33.9993 62.8975 34.2729 62.93 34.5428 62.997C35.7224 63.2897 36.663 64.198 36.9975 65.3676C37.0863 65.6769 37.3837 65.8686 37.7005 65.8257C38.6647 65.6933 39.6047 65.4214 40.4945 65.0181C40.787 64.8855 40.9346 64.5653 40.8453 64.2569C40.5077 63.089 40.8213 61.8204 41.6638 60.9459C42.5065 60.0709 43.7634 59.7108 44.943 60.0047C45.2555 60.0829 45.5702 59.9228 45.6914 59.6247C46.0584 58.7219 46.2938 57.7727 46.3913 56.8035C46.4234 56.4833 46.2199 56.1947 45.9073 56.1177Z" fill="#E6B400"/>
</svg>
