<svg width="96" height="96" viewBox="0 0 96 96" fill="none" xmlns="http://www.w3.org/2000/svg">
<path d="M19.3437 44.2531H16.3438V30.1531C16.3438 21.6031 16.4938 12.4531 16.4938 12.4531C16.4938 11.7031 17.2438 10.9531 17.9938 10.9531H37.7938V13.9531H19.3437V30.1531V44.2531Z" fill="#E6B400"/>
<path d="M79.95 44.2281H76.95V14.0781H58.5V11.0781H78.45C79.35 11.0781 79.95 11.6781 79.95 12.5781V44.2281Z" fill="#E6B400"/>
<path d="M81.1609 88.8062H14.8609C13.0609 88.8062 11.2609 88.0563 10.0609 86.8563C8.71094 85.6563 7.96094 83.8562 7.96094 81.9062V37.6562H10.9609V81.9062C10.9609 82.9562 11.4109 84.0062 12.1609 84.7562C12.9109 85.5062 13.9609 85.9562 14.8609 85.9562H81.1609C83.2609 85.9562 85.0609 84.1562 85.0609 82.0563V37.6562H88.0609V81.9062C88.2109 85.6562 85.0609 88.8062 81.1609 88.8062Z" fill="white"/>
<path d="M48.0109 67.9281C47.7109 67.9281 47.4109 67.7781 47.1109 67.6281L8.56094 38.8281C8.26094 38.5281 7.96094 38.0781 7.96094 37.6281C7.96094 37.1781 8.11094 36.7281 8.41094 36.4281L47.1109 2.22812C47.7109 1.77813 48.6109 1.77813 49.0609 2.22812L87.4609 36.4281C87.7609 36.7281 87.9109 37.1781 87.9109 37.6281C87.9109 38.0781 87.6109 38.5281 87.3109 38.8281L48.9109 67.6281C48.6109 67.9281 48.3109 67.9281 48.0109 67.9281ZM11.8609 37.4781L48.0109 64.6281L84.3109 37.4781L48.1609 5.37812L11.8609 37.4781Z" fill="white"/>
<path d="M10.1016 84.5625L38.7891 59.2792L40.7721 61.5292L12.0846 86.8125L10.1016 84.5625Z" fill="white"/>
<path d="M54.6641 61.4688L56.6471 59.2188L85.3346 84.502L83.3516 86.752L54.6641 61.4688Z" fill="white"/>
<path d="M47.4109 43.65C43.3609 43.65 40.2109 40.35 40.2109 36.45C40.2109 32.55 43.5109 29.25 47.4109 29.25C51.3109 29.25 54.6109 32.55 54.6109 36.45C54.6109 40.35 51.3109 43.65 47.4109 43.65ZM47.4109 32.1C45.0109 32.1 43.2109 34.05 43.2109 36.3C43.2109 38.55 45.1609 40.5 47.4109 40.5C49.6609 40.5 51.6109 38.55 51.6109 36.3C51.6109 34.05 49.6609 32.1 47.4109 32.1Z" fill="#E6B400"/>
<path d="M52.6609 50.7031H43.9609C39.0109 50.7031 34.9609 46.6531 34.9609 41.7031V31.9531C34.9609 27.0031 39.0109 22.9531 43.9609 22.9531H53.8609C58.8109 22.9531 62.8609 27.0031 62.8609 31.9531V34.2031C62.8609 39.1531 58.8109 43.2031 53.8609 43.2031C52.9609 43.2031 52.3609 42.6031 52.3609 41.7031V29.8531H55.3609V40.0531C57.9109 39.4531 59.8609 37.0531 59.8609 34.2031V31.9531C59.8609 28.6531 57.1609 25.9531 53.8609 25.9531H43.9609C40.6609 25.9531 37.9609 28.6531 37.9609 31.9531V41.7031C37.9609 45.0031 40.6609 47.7031 43.9609 47.7031H52.6609C53.2609 47.7031 53.7109 47.2531 53.7109 46.6531V44.4031H56.7109V46.6531C56.7109 48.9031 54.9109 50.7031 52.6609 50.7031Z" fill="#E6B400"/>
</svg>
