<svg width="96" height="96" viewBox="0 0 96 96" fill="none" xmlns="http://www.w3.org/2000/svg">
<path d="M83.0469 75.7906H78.1906C77.6844 75.7906 77.2719 75.3781 77.2719 74.8719C77.2719 74.3656 77.6844 73.9531 78.1906 73.9531H83.0469C84.9406 73.9531 86.4781 72.4156 86.4781 70.5219V15.5656C86.4781 13.6719 84.9406 12.1531 83.0469 12.1531H12.9594C11.0281 12.1531 9.52812 13.6531 9.52812 15.5656V70.5031C9.52812 72.3969 11.0656 73.9344 12.9594 73.9344H65.2719C65.7781 73.9344 66.1906 74.3469 66.1906 74.8531C66.1906 75.3594 65.7781 75.7719 65.2719 75.7719H12.9594C10.0531 75.7719 7.67188 73.4094 7.67188 70.4844V15.5656C7.67188 12.6781 10.0344 10.2969 12.9594 10.2969H83.0281C85.9344 10.2969 88.3156 12.6594 88.3156 15.5656V70.5031C88.2969 73.4094 85.9344 75.7906 83.0469 75.7906Z" fill="white"/>
<path d="M87.4016 26.8688H8.61406C8.10781 26.8688 7.69531 26.4562 7.69531 25.95C7.69531 25.4437 8.10781 25.0312 8.61406 25.0312H87.4016C87.9078 25.0312 88.3203 25.4437 88.3203 25.95C88.3016 26.4562 87.9078 26.8688 87.4016 26.8688Z" fill="white"/>
<path d="M29.325 22.4234C27.225 22.4234 25.5 20.6984 25.5 18.5984C25.5 16.4984 27.225 14.7734 29.325 14.7734C31.425 14.7734 33.15 16.4984 33.15 18.5984C33.15 20.6984 31.4438 22.4234 29.325 22.4234ZM29.325 16.5922C28.2188 16.5922 27.3188 17.4922 27.3188 18.5984C27.3188 19.7047 28.2188 20.6047 29.325 20.6047C30.4313 20.6047 31.3313 19.7047 31.3313 18.5984C31.3125 17.4734 30.4313 16.5922 29.325 16.5922Z" fill="white"/>
<path d="M18.4266 22.4234C16.3266 22.4234 14.6016 20.6984 14.6016 18.5984C14.6016 16.4984 16.3266 14.7734 18.4266 14.7734C20.5266 14.7734 22.2516 16.4984 22.2516 18.5984C22.2516 20.6984 20.5266 22.4234 18.4266 22.4234ZM18.4266 16.5922C17.3203 16.5922 16.4203 17.4922 16.4203 18.5984C16.4203 19.7047 17.3203 20.6047 18.4266 20.6047C19.5328 20.6047 20.4328 19.7047 20.4328 18.5984C20.4328 17.4734 19.5141 16.5922 18.4266 16.5922Z" fill="white"/>
<path d="M40.2312 22.4234C38.1312 22.4234 36.4062 20.6984 36.4062 18.5984C36.4062 16.4984 38.1312 14.7734 40.2312 14.7734C42.3312 14.7734 44.0562 16.4984 44.0562 18.5984C44.0562 20.6984 42.3312 22.4234 40.2312 22.4234ZM40.2312 16.5922C39.125 16.5922 38.225 17.4922 38.225 18.5984C38.225 19.7047 39.125 20.6047 40.2312 20.6047C41.3375 20.6047 42.2375 19.7047 42.2375 18.5984C42.2187 17.4734 41.3375 16.5922 40.2312 16.5922Z" fill="white"/>
<path d="M62.0071 70.1539C61.7821 70.1539 61.5383 70.0602 61.3508 69.8915L57.4696 66.0289C57.1133 65.6727 57.0946 65.0915 57.4696 64.7352C57.8258 64.379 58.4071 64.3602 58.7633 64.7352L62.6446 68.5977C63.0008 68.9539 63.0196 69.5352 62.6446 69.8915C62.4946 70.079 62.2508 70.1539 62.0071 70.1539Z" fill="#E6B400"/>
<path d="M66.1031 66.0656C65.8781 66.0656 65.6344 65.9719 65.4469 65.8031L61.6031 61.9594C61.2469 61.6031 61.2469 61.0219 61.6031 60.6656C61.9594 60.3094 62.5406 60.3094 62.8969 60.6656L66.7406 64.5094C67.0969 64.8656 67.0969 65.4469 66.7406 65.8031C66.5719 65.9719 66.3469 66.0656 66.1031 66.0656Z" fill="#E6B400"/>
<path d="M47.9984 69.5156C37.7984 69.5156 29.4922 61.2281 29.4922 51.0094C29.4922 40.7906 37.7797 32.4844 47.9984 32.4844C58.2172 32.4844 66.5047 40.7719 66.5047 50.9906C66.5047 61.2094 58.1984 69.5156 47.9984 69.5156ZM47.9984 34.3219C38.8109 34.3219 31.3109 41.7844 31.3109 51.0094C31.3109 60.2344 38.7734 67.6969 47.9984 67.6969C57.2234 67.6969 64.6859 60.2344 64.6859 51.0094C64.6859 41.7844 57.1859 34.3219 47.9984 34.3219Z" fill="#E6B400"/>
<path d="M77.0984 85.7188C75.6922 85.7188 74.2859 85.1938 73.2172 84.125L60.6734 71.5813C60.0359 70.9438 60.0359 69.9125 60.6734 69.275L66.1109 63.8375C66.7484 63.2 67.7797 63.2 68.4172 63.8375L80.9609 76.3812C83.0797 78.5 83.0797 81.9688 80.9609 84.125C79.8922 85.175 78.5047 85.7188 77.0984 85.7188ZM62.1359 70.4188L74.5109 82.7938C75.1859 83.4688 76.1047 83.8625 77.0984 83.8625C78.0734 83.8625 78.9922 83.4688 79.6859 82.7938C81.1109 81.35 81.1109 79.0625 79.6859 77.6375L67.3109 65.2625L62.1359 70.4188Z" fill="#E6B400"/>
<path d="M47.9953 56.3578C45.0328 56.3578 42.6328 53.9578 42.6328 50.9953C42.6328 48.0328 45.0328 45.6328 47.9953 45.6328C50.9578 45.6328 53.3578 48.0328 53.3578 50.9953C53.3578 53.9578 50.9578 56.3578 47.9953 56.3578ZM47.9953 47.4703C46.0453 47.4703 44.4516 49.0453 44.4516 51.0141C44.4516 52.9641 46.0266 54.5578 47.9953 54.5578C49.9453 54.5578 51.5391 52.9828 51.5391 51.0141C51.5391 49.0453 49.9453 47.4703 47.9953 47.4703Z" fill="#E6B400"/>
<path d="M28.0922 32.8219H14.4422C13.9359 32.8219 13.5234 32.4094 13.5234 31.9031C13.5234 31.3969 13.9359 30.9844 14.4422 30.9844H28.1109C28.6172 30.9844 29.0297 31.3969 29.0297 31.9031C29.0297 32.4094 28.5984 32.8219 28.0922 32.8219Z" fill="#E6B400"/>
<path d="M24.3234 37.4234H14.4422C13.9359 37.4234 13.5234 37.0109 13.5234 36.5047C13.5234 35.9984 13.9359 35.5859 14.4422 35.5859H24.3422C24.8484 35.5859 25.2609 35.9984 25.2609 36.5047C25.2609 37.0109 24.8297 37.4234 24.3234 37.4234Z" fill="#E6B400"/>
<path d="M20.9859 42.0406H14.4422C13.9359 42.0406 13.5234 41.6281 13.5234 41.1219C13.5234 40.6156 13.9359 40.2031 14.4422 40.2031H20.9859C21.4922 40.2031 21.9047 40.6156 21.9047 41.1219C21.8859 41.6281 21.4922 42.0406 20.9859 42.0406Z" fill="#E6B400"/>
</svg>
