<svg width="96" height="96" viewBox="0 0 96 96" fill="none" xmlns="http://www.w3.org/2000/svg">
<mask id="path-1-outside-1_1760_90017" maskUnits="userSpaceOnUse" x="1.8125" y="1.8125" width="92" height="92" fill="black">
<rect fill="white" x="1.8125" y="1.8125" width="92" height="92"/>
<path d="M23.6944 32.9119C28.7756 32.9119 32.91 28.7775 32.91 23.6962C32.91 18.615 28.7756 14.4806 23.6944 14.4806C18.6131 14.4806 14.4788 18.615 14.4788 23.6962C14.4788 28.7775 18.6131 32.9119 23.6944 32.9119ZM23.6944 16.7288C27.5363 16.7288 30.66 19.8544 30.66 23.6944C30.66 27.5363 27.5344 30.66 23.6944 30.66C19.8525 30.66 16.7288 27.5344 16.7288 23.6944C16.7288 19.8544 19.8544 16.7288 23.6944 16.7288ZM16.6125 37.7081C17.3137 38.0625 18.0469 38.3681 18.7931 38.6138C18.8944 38.6475 18.9469 38.7206 18.9469 38.8275V42.1031C18.9469 43.4681 20.0569 44.5781 21.4219 44.5781H25.965C27.33 44.5781 28.44 43.4681 28.44 42.1031V38.8275C28.44 38.7206 28.4944 38.6475 28.5938 38.6138C29.34 38.3681 30.0731 38.0644 30.7744 37.7081C30.87 37.6594 30.96 37.6744 31.035 37.7494L33.3525 40.0669C33.8194 40.5337 34.44 40.7906 35.1019 40.7906C35.7638 40.7906 36.3844 40.5337 36.8512 40.0669L40.0631 36.855C41.0288 35.8894 41.0288 34.32 40.0631 33.3544L37.7456 31.0369C37.6706 30.9619 37.6556 30.8719 37.7044 30.7762C38.0606 30.075 38.3644 29.34 38.61 28.5956C38.6437 28.4944 38.7169 28.4419 38.8237 28.4419H42.0994C43.4644 28.4419 44.5744 27.3319 44.5744 25.9669V21.4237C44.5744 20.0588 43.4644 18.9487 42.0994 18.9487H38.8237C38.7169 18.9487 38.6437 18.8944 38.61 18.7931C38.3644 18.0469 38.0606 17.3137 37.7044 16.6125C37.6556 16.5169 37.6706 16.4269 37.7456 16.3519L40.0631 14.0344C40.53 13.5675 40.7869 12.9469 40.7869 12.285C40.7869 11.6231 40.53 11.0025 40.0631 10.5356L36.8512 7.32375C36.3844 6.85688 35.7638 6.6 35.1019 6.6C34.44 6.6 33.8194 6.85688 33.3525 7.32375L31.035 9.64125C30.96 9.71625 30.87 9.73125 30.7744 9.6825C30.0731 9.32812 29.34 9.0225 28.5938 8.77688C28.4925 8.74313 28.44 8.67 28.44 8.56312V5.2875C28.44 3.9225 27.33 2.8125 25.965 2.8125H21.4219C20.0569 2.8125 18.9469 3.9225 18.9469 5.2875V8.56312C18.9469 8.67 18.8925 8.74313 18.7913 8.77688C18.045 9.0225 17.3119 9.32625 16.6106 9.6825C16.515 9.73125 16.425 9.71625 16.35 9.64125L14.0344 7.32187C13.0687 6.35625 11.4994 6.35625 10.5338 7.32187L7.32187 10.5356C6.855 11.0025 6.59812 11.6231 6.59812 12.285C6.59812 12.9469 6.855 13.5675 7.32187 14.0344L9.63937 16.3519C9.71438 16.4269 9.72938 16.5169 9.68062 16.6125C9.32625 17.3137 9.02063 18.0469 8.77688 18.7931C8.74313 18.8944 8.67 18.9469 8.56312 18.9469H5.2875C3.9225 18.9469 2.8125 20.0569 2.8125 21.4219V25.965C2.8125 27.33 3.9225 28.44 5.2875 28.44H8.56312C8.67 28.44 8.74313 28.4944 8.77688 28.5938C9.0225 29.34 9.32625 30.0731 9.6825 30.7744C9.73125 30.87 9.71625 30.96 9.64125 31.035L7.32187 33.3562C6.35625 34.3219 6.35625 35.8913 7.32187 36.8569L10.5338 40.0687C11.0006 40.5356 11.6213 40.7925 12.2831 40.7925C12.945 40.7925 13.5656 40.5356 14.0325 40.0687L16.35 37.7513C16.4287 37.6744 16.5187 37.6594 16.6125 37.7081ZM12.4444 38.4769C12.39 38.5312 12.3281 38.5425 12.285 38.5425C12.2419 38.5425 12.18 38.5312 12.1256 38.4769L8.91375 35.265C8.8275 35.1787 8.8275 35.0325 8.91375 34.9463L11.2313 32.6287C11.9906 31.8694 12.1744 30.7181 11.6888 29.76C11.385 29.16 11.1244 28.5319 10.9144 27.8925C10.5806 26.8744 9.63562 26.19 8.56312 26.19H5.2875C5.16563 26.19 5.0625 26.0869 5.0625 25.965V21.4219C5.0625 21.3 5.16563 21.1969 5.2875 21.1969H8.56312C9.63562 21.1969 10.5806 20.5125 10.9144 19.4944C11.1244 18.8569 11.385 18.2287 11.6888 17.6287C12.1744 16.6725 11.9888 15.5194 11.2313 14.76L8.91375 12.4444C8.85938 12.39 8.84812 12.3281 8.84812 12.285C8.84812 12.2419 8.85938 12.18 8.91375 12.1256L12.1256 8.91375C12.2119 8.8275 12.3581 8.8275 12.4444 8.91375L14.7619 11.2313C15.5213 11.9906 16.6725 12.1744 17.6306 11.6888C18.2306 11.385 18.8588 11.1244 19.4963 10.9144C20.5144 10.5806 21.1987 9.63562 21.1987 8.56312V5.2875C21.1987 5.16563 21.3019 5.0625 21.4237 5.0625H25.9669C26.0888 5.0625 26.1919 5.16563 26.1919 5.2875V8.56312C26.1919 9.63562 26.8763 10.5806 27.8944 10.9144C28.5338 11.1244 29.1619 11.385 29.76 11.6888C30.7162 12.1744 31.8694 11.9888 32.6287 11.2313L34.9463 8.91375C35.0006 8.85938 35.0625 8.84812 35.1056 8.84812C35.1488 8.84812 35.2106 8.85938 35.265 8.91375L38.4769 12.1256C38.5312 12.18 38.5425 12.2419 38.5425 12.285C38.5425 12.3281 38.5312 12.39 38.4769 12.4444L36.1594 14.7619C35.4 15.5213 35.2163 16.6725 35.7019 17.6306C36.0056 18.2306 36.2663 18.8588 36.4762 19.4963C36.81 20.5144 37.755 21.1987 38.8275 21.1987H42.1031C42.225 21.1987 42.3281 21.3019 42.3281 21.4237V25.9669C42.3281 26.0888 42.225 26.1919 42.1031 26.1919H38.8275C37.755 26.1919 36.81 26.8763 36.4762 27.8944C36.2663 28.5319 36.0056 29.16 35.7019 29.7619C35.2163 30.7181 35.4019 31.8713 36.1594 32.6306L38.4769 34.9481C38.5631 35.0344 38.5631 35.1806 38.4769 35.2669L35.265 38.4788C35.2106 38.5331 35.1488 38.5444 35.1056 38.5444C35.0625 38.5444 35.0006 38.5331 34.9463 38.4788L32.6287 36.1613C31.8694 35.4019 30.7181 35.2181 29.76 35.7038C29.16 36.0075 28.5319 36.2681 27.8944 36.4781C26.8763 36.8119 26.1919 37.7569 26.1919 38.8294V42.105C26.1919 42.2269 26.0888 42.33 25.9669 42.33H21.4237C21.3019 42.33 21.1987 42.2269 21.1987 42.105V38.8294C21.1987 37.7569 20.5144 36.8119 19.4963 36.4781C18.8588 36.2681 18.2306 36.0075 17.6287 35.7038C17.2725 35.5238 16.89 35.4356 16.5094 35.4356C15.8681 35.4356 15.2362 35.685 14.76 36.1613L12.4444 38.4769ZM76.6744 39.4144C74.2331 38.0044 71.4375 37.5094 68.6944 37.98L65.2781 25.23C64.3988 21.9469 61.0125 19.9912 57.7294 20.8706C54.6506 21.6956 52.74 24.7256 53.2388 27.8063C50.61 33.1331 39.525 44.2088 35.625 45.3263L23.0531 48.6956C17.505 50.1825 14.1413 55.6912 15.5569 60.9731L17.5106 68.2669C18.1987 70.8319 19.8994 72.96 22.305 74.2612C23.8538 75.0994 25.5713 75.5269 27.3169 75.5269C27.3862 75.5269 27.4556 75.525 27.5231 75.5231L38.8425 91.2206C39.7687 92.505 41.2219 93.1875 42.6956 93.1875C43.6575 93.1875 44.6269 92.8969 45.4631 92.2931C47.5144 90.8138 47.9925 87.9938 46.5769 85.7325L38.5406 72.9019L43.005 71.7056C46.9031 70.7344 62.0681 74.8462 66.8269 78.1331C67.8788 80.1994 70.02 81.5025 72.3225 81.5025C72.8494 81.5025 73.3838 81.435 73.9163 81.2925C77.1994 80.4131 79.155 77.0269 78.2756 73.7437L74.8594 60.9937C77.4694 60.0281 79.6444 58.2019 81.0525 55.7606C82.65 52.9931 83.0756 49.7681 82.2487 46.68C81.4219 43.5919 79.4419 41.0119 76.6744 39.4144ZM44.6737 86.9287C45.4519 88.1719 45.2269 89.6944 44.1506 90.4706C43.035 91.275 41.4731 91.0219 40.6706 89.9062L30.0487 75.1781C30.0806 75.1706 30.1106 75.1631 30.1425 75.1537L36.27 73.5112L44.6737 86.9287ZM29.5594 72.9806C27.4481 73.5469 25.2506 73.2994 23.3756 72.285C21.5212 71.2819 20.2106 69.6488 19.6838 67.6875L17.73 60.3938C16.635 56.3081 19.2844 52.0369 23.6344 50.8706L35.16 47.7825L38.4731 59.0794L41.3512 69.8213L29.5594 72.9806ZM43.5563 69.3562L40.6425 58.485C40.6406 58.4756 40.6388 58.4681 40.635 58.4587L37.2975 47.0775C40.5881 45.5044 45.2194 41.0138 46.6781 39.5513C49.1981 37.0275 52.1437 33.7162 54.0281 30.885L65.8462 74.9906C59.895 72.0319 48.6319 68.94 43.5563 69.3562ZM73.335 79.1194C71.25 79.6781 69.0994 78.4369 68.5406 76.3519L55.5413 27.8381C54.9825 25.7531 56.2238 23.6025 58.3088 23.0438C59.3138 22.7738 60.3675 22.9144 61.275 23.4394C62.1844 23.9644 62.8331 24.8063 63.1012 25.8113L76.1006 74.325C76.6612 76.41 75.42 78.5606 73.335 79.1194ZM74.2744 58.8075L69.2794 40.1663C71.4394 39.8456 73.6294 40.2562 75.5494 41.3644C77.7975 42.6619 79.4044 44.7581 80.0775 47.265C81.3637 52.0706 78.795 57.0169 74.2744 58.8075ZM85.3744 44.6794L91.7719 42.9656C92.3719 42.8044 92.9887 43.1606 93.15 43.7606C93.3112 44.3606 92.955 44.9775 92.355 45.1388L85.9575 46.8525C85.86 46.8787 85.7625 46.8919 85.665 46.8919C85.1681 46.8919 84.7144 46.56 84.5794 46.0575C84.4163 45.4556 84.7725 44.8387 85.3744 44.6794ZM93.15 55.7962C93.015 56.2987 92.5612 56.6306 92.0644 56.6306C91.9688 56.6306 91.8694 56.6175 91.7719 56.5913L85.3744 54.8775C84.7744 54.7162 84.4181 54.0994 84.5794 53.4994C84.7406 52.8994 85.3575 52.545 85.9575 52.7044L92.355 54.4181C92.9531 54.5794 93.3094 55.1962 93.15 55.7962ZM80.8575 39.6112C80.4187 39.1725 80.4187 38.46 80.8575 38.0194L85.5413 33.3356C85.98 32.8969 86.6925 32.8969 87.1331 33.3356C87.5719 33.7744 87.5719 34.4869 87.1331 34.9275L82.4494 39.6112C82.23 39.8306 81.9412 39.9412 81.6544 39.9412C81.3675 39.9412 81.0769 39.8306 80.8575 39.6112Z"/>
</mask>
<path d="M23.6944 32.9119C28.7756 32.9119 32.91 28.7775 32.91 23.6962C32.91 18.615 28.7756 14.4806 23.6944 14.4806C18.6131 14.4806 14.4788 18.615 14.4788 23.6962C14.4788 28.7775 18.6131 32.9119 23.6944 32.9119ZM23.6944 16.7288C27.5363 16.7288 30.66 19.8544 30.66 23.6944C30.66 27.5363 27.5344 30.66 23.6944 30.66C19.8525 30.66 16.7288 27.5344 16.7288 23.6944C16.7288 19.8544 19.8544 16.7288 23.6944 16.7288ZM16.6125 37.7081C17.3137 38.0625 18.0469 38.3681 18.7931 38.6138C18.8944 38.6475 18.9469 38.7206 18.9469 38.8275V42.1031C18.9469 43.4681 20.0569 44.5781 21.4219 44.5781H25.965C27.33 44.5781 28.44 43.4681 28.44 42.1031V38.8275C28.44 38.7206 28.4944 38.6475 28.5938 38.6138C29.34 38.3681 30.0731 38.0644 30.7744 37.7081C30.87 37.6594 30.96 37.6744 31.035 37.7494L33.3525 40.0669C33.8194 40.5337 34.44 40.7906 35.1019 40.7906C35.7638 40.7906 36.3844 40.5337 36.8512 40.0669L40.0631 36.855C41.0288 35.8894 41.0288 34.32 40.0631 33.3544L37.7456 31.0369C37.6706 30.9619 37.6556 30.8719 37.7044 30.7762C38.0606 30.075 38.3644 29.34 38.61 28.5956C38.6437 28.4944 38.7169 28.4419 38.8237 28.4419H42.0994C43.4644 28.4419 44.5744 27.3319 44.5744 25.9669V21.4237C44.5744 20.0588 43.4644 18.9487 42.0994 18.9487H38.8237C38.7169 18.9487 38.6437 18.8944 38.61 18.7931C38.3644 18.0469 38.0606 17.3137 37.7044 16.6125C37.6556 16.5169 37.6706 16.4269 37.7456 16.3519L40.0631 14.0344C40.53 13.5675 40.7869 12.9469 40.7869 12.285C40.7869 11.6231 40.53 11.0025 40.0631 10.5356L36.8512 7.32375C36.3844 6.85688 35.7638 6.6 35.1019 6.6C34.44 6.6 33.8194 6.85688 33.3525 7.32375L31.035 9.64125C30.96 9.71625 30.87 9.73125 30.7744 9.6825C30.0731 9.32812 29.34 9.0225 28.5938 8.77688C28.4925 8.74313 28.44 8.67 28.44 8.56312V5.2875C28.44 3.9225 27.33 2.8125 25.965 2.8125H21.4219C20.0569 2.8125 18.9469 3.9225 18.9469 5.2875V8.56312C18.9469 8.67 18.8925 8.74313 18.7913 8.77688C18.045 9.0225 17.3119 9.32625 16.6106 9.6825C16.515 9.73125 16.425 9.71625 16.35 9.64125L14.0344 7.32187C13.0687 6.35625 11.4994 6.35625 10.5338 7.32187L7.32187 10.5356C6.855 11.0025 6.59812 11.6231 6.59812 12.285C6.59812 12.9469 6.855 13.5675 7.32187 14.0344L9.63937 16.3519C9.71438 16.4269 9.72938 16.5169 9.68062 16.6125C9.32625 17.3137 9.02063 18.0469 8.77688 18.7931C8.74313 18.8944 8.67 18.9469 8.56312 18.9469H5.2875C3.9225 18.9469 2.8125 20.0569 2.8125 21.4219V25.965C2.8125 27.33 3.9225 28.44 5.2875 28.44H8.56312C8.67 28.44 8.74313 28.4944 8.77688 28.5938C9.0225 29.34 9.32625 30.0731 9.6825 30.7744C9.73125 30.87 9.71625 30.96 9.64125 31.035L7.32187 33.3562C6.35625 34.3219 6.35625 35.8913 7.32187 36.8569L10.5338 40.0687C11.0006 40.5356 11.6213 40.7925 12.2831 40.7925C12.945 40.7925 13.5656 40.5356 14.0325 40.0687L16.35 37.7513C16.4287 37.6744 16.5187 37.6594 16.6125 37.7081ZM12.4444 38.4769C12.39 38.5312 12.3281 38.5425 12.285 38.5425C12.2419 38.5425 12.18 38.5312 12.1256 38.4769L8.91375 35.265C8.8275 35.1787 8.8275 35.0325 8.91375 34.9463L11.2313 32.6287C11.9906 31.8694 12.1744 30.7181 11.6888 29.76C11.385 29.16 11.1244 28.5319 10.9144 27.8925C10.5806 26.8744 9.63562 26.19 8.56312 26.19H5.2875C5.16563 26.19 5.0625 26.0869 5.0625 25.965V21.4219C5.0625 21.3 5.16563 21.1969 5.2875 21.1969H8.56312C9.63562 21.1969 10.5806 20.5125 10.9144 19.4944C11.1244 18.8569 11.385 18.2287 11.6888 17.6287C12.1744 16.6725 11.9888 15.5194 11.2313 14.76L8.91375 12.4444C8.85938 12.39 8.84812 12.3281 8.84812 12.285C8.84812 12.2419 8.85938 12.18 8.91375 12.1256L12.1256 8.91375C12.2119 8.8275 12.3581 8.8275 12.4444 8.91375L14.7619 11.2313C15.5213 11.9906 16.6725 12.1744 17.6306 11.6888C18.2306 11.385 18.8588 11.1244 19.4963 10.9144C20.5144 10.5806 21.1987 9.63562 21.1987 8.56312V5.2875C21.1987 5.16563 21.3019 5.0625 21.4237 5.0625H25.9669C26.0888 5.0625 26.1919 5.16563 26.1919 5.2875V8.56312C26.1919 9.63562 26.8763 10.5806 27.8944 10.9144C28.5338 11.1244 29.1619 11.385 29.76 11.6888C30.7162 12.1744 31.8694 11.9888 32.6287 11.2313L34.9463 8.91375C35.0006 8.85938 35.0625 8.84812 35.1056 8.84812C35.1488 8.84812 35.2106 8.85938 35.265 8.91375L38.4769 12.1256C38.5312 12.18 38.5425 12.2419 38.5425 12.285C38.5425 12.3281 38.5312 12.39 38.4769 12.4444L36.1594 14.7619C35.4 15.5213 35.2163 16.6725 35.7019 17.6306C36.0056 18.2306 36.2663 18.8588 36.4762 19.4963C36.81 20.5144 37.755 21.1987 38.8275 21.1987H42.1031C42.225 21.1987 42.3281 21.3019 42.3281 21.4237V25.9669C42.3281 26.0888 42.225 26.1919 42.1031 26.1919H38.8275C37.755 26.1919 36.81 26.8763 36.4762 27.8944C36.2663 28.5319 36.0056 29.16 35.7019 29.7619C35.2163 30.7181 35.4019 31.8713 36.1594 32.6306L38.4769 34.9481C38.5631 35.0344 38.5631 35.1806 38.4769 35.2669L35.265 38.4788C35.2106 38.5331 35.1488 38.5444 35.1056 38.5444C35.0625 38.5444 35.0006 38.5331 34.9463 38.4788L32.6287 36.1613C31.8694 35.4019 30.7181 35.2181 29.76 35.7038C29.16 36.0075 28.5319 36.2681 27.8944 36.4781C26.8763 36.8119 26.1919 37.7569 26.1919 38.8294V42.105C26.1919 42.2269 26.0888 42.33 25.9669 42.33H21.4237C21.3019 42.33 21.1987 42.2269 21.1987 42.105V38.8294C21.1987 37.7569 20.5144 36.8119 19.4963 36.4781C18.8588 36.2681 18.2306 36.0075 17.6287 35.7038C17.2725 35.5238 16.89 35.4356 16.5094 35.4356C15.8681 35.4356 15.2362 35.685 14.76 36.1613L12.4444 38.4769ZM76.6744 39.4144C74.2331 38.0044 71.4375 37.5094 68.6944 37.98L65.2781 25.23C64.3988 21.9469 61.0125 19.9912 57.7294 20.8706C54.6506 21.6956 52.74 24.7256 53.2388 27.8063C50.61 33.1331 39.525 44.2088 35.625 45.3263L23.0531 48.6956C17.505 50.1825 14.1413 55.6912 15.5569 60.9731L17.5106 68.2669C18.1987 70.8319 19.8994 72.96 22.305 74.2612C23.8538 75.0994 25.5713 75.5269 27.3169 75.5269C27.3862 75.5269 27.4556 75.525 27.5231 75.5231L38.8425 91.2206C39.7687 92.505 41.2219 93.1875 42.6956 93.1875C43.6575 93.1875 44.6269 92.8969 45.4631 92.2931C47.5144 90.8138 47.9925 87.9938 46.5769 85.7325L38.5406 72.9019L43.005 71.7056C46.9031 70.7344 62.0681 74.8462 66.8269 78.1331C67.8788 80.1994 70.02 81.5025 72.3225 81.5025C72.8494 81.5025 73.3838 81.435 73.9163 81.2925C77.1994 80.4131 79.155 77.0269 78.2756 73.7437L74.8594 60.9937C77.4694 60.0281 79.6444 58.2019 81.0525 55.7606C82.65 52.9931 83.0756 49.7681 82.2487 46.68C81.4219 43.5919 79.4419 41.0119 76.6744 39.4144ZM44.6737 86.9287C45.4519 88.1719 45.2269 89.6944 44.1506 90.4706C43.035 91.275 41.4731 91.0219 40.6706 89.9062L30.0487 75.1781C30.0806 75.1706 30.1106 75.1631 30.1425 75.1537L36.27 73.5112L44.6737 86.9287ZM29.5594 72.9806C27.4481 73.5469 25.2506 73.2994 23.3756 72.285C21.5212 71.2819 20.2106 69.6488 19.6838 67.6875L17.73 60.3938C16.635 56.3081 19.2844 52.0369 23.6344 50.8706L35.16 47.7825L38.4731 59.0794L41.3512 69.8213L29.5594 72.9806ZM43.5563 69.3562L40.6425 58.485C40.6406 58.4756 40.6388 58.4681 40.635 58.4587L37.2975 47.0775C40.5881 45.5044 45.2194 41.0138 46.6781 39.5513C49.1981 37.0275 52.1437 33.7162 54.0281 30.885L65.8462 74.9906C59.895 72.0319 48.6319 68.94 43.5563 69.3562ZM73.335 79.1194C71.25 79.6781 69.0994 78.4369 68.5406 76.3519L55.5413 27.8381C54.9825 25.7531 56.2238 23.6025 58.3088 23.0438C59.3138 22.7738 60.3675 22.9144 61.275 23.4394C62.1844 23.9644 62.8331 24.8063 63.1012 25.8113L76.1006 74.325C76.6612 76.41 75.42 78.5606 73.335 79.1194ZM74.2744 58.8075L69.2794 40.1663C71.4394 39.8456 73.6294 40.2562 75.5494 41.3644C77.7975 42.6619 79.4044 44.7581 80.0775 47.265C81.3637 52.0706 78.795 57.0169 74.2744 58.8075ZM85.3744 44.6794L91.7719 42.9656C92.3719 42.8044 92.9887 43.1606 93.15 43.7606C93.3112 44.3606 92.955 44.9775 92.355 45.1388L85.9575 46.8525C85.86 46.8787 85.7625 46.8919 85.665 46.8919C85.1681 46.8919 84.7144 46.56 84.5794 46.0575C84.4163 45.4556 84.7725 44.8387 85.3744 44.6794ZM93.15 55.7962C93.015 56.2987 92.5612 56.6306 92.0644 56.6306C91.9688 56.6306 91.8694 56.6175 91.7719 56.5913L85.3744 54.8775C84.7744 54.7162 84.4181 54.0994 84.5794 53.4994C84.7406 52.8994 85.3575 52.545 85.9575 52.7044L92.355 54.4181C92.9531 54.5794 93.3094 55.1962 93.15 55.7962ZM80.8575 39.6112C80.4187 39.1725 80.4187 38.46 80.8575 38.0194L85.5413 33.3356C85.98 32.8969 86.6925 32.8969 87.1331 33.3356C87.5719 33.7744 87.5719 34.4869 87.1331 34.9275L82.4494 39.6112C82.23 39.8306 81.9412 39.9412 81.6544 39.9412C81.3675 39.9412 81.0769 39.8306 80.8575 39.6112Z" fill="white"/>
<path d="M23.6944 32.9119C28.7756 32.9119 32.91 28.7775 32.91 23.6962C32.91 18.615 28.7756 14.4806 23.6944 14.4806C18.6131 14.4806 14.4788 18.615 14.4788 23.6962C14.4788 28.7775 18.6131 32.9119 23.6944 32.9119ZM23.6944 16.7288C27.5363 16.7288 30.66 19.8544 30.66 23.6944C30.66 27.5363 27.5344 30.66 23.6944 30.66C19.8525 30.66 16.7288 27.5344 16.7288 23.6944C16.7288 19.8544 19.8544 16.7288 23.6944 16.7288ZM16.6125 37.7081C17.3137 38.0625 18.0469 38.3681 18.7931 38.6138C18.8944 38.6475 18.9469 38.7206 18.9469 38.8275V42.1031C18.9469 43.4681 20.0569 44.5781 21.4219 44.5781H25.965C27.33 44.5781 28.44 43.4681 28.44 42.1031V38.8275C28.44 38.7206 28.4944 38.6475 28.5938 38.6138C29.34 38.3681 30.0731 38.0644 30.7744 37.7081C30.87 37.6594 30.96 37.6744 31.035 37.7494L33.3525 40.0669C33.8194 40.5337 34.44 40.7906 35.1019 40.7906C35.7638 40.7906 36.3844 40.5337 36.8512 40.0669L40.0631 36.855C41.0288 35.8894 41.0288 34.32 40.0631 33.3544L37.7456 31.0369C37.6706 30.9619 37.6556 30.8719 37.7044 30.7762C38.0606 30.075 38.3644 29.34 38.61 28.5956C38.6437 28.4944 38.7169 28.4419 38.8237 28.4419H42.0994C43.4644 28.4419 44.5744 27.3319 44.5744 25.9669V21.4237C44.5744 20.0588 43.4644 18.9487 42.0994 18.9487H38.8237C38.7169 18.9487 38.6437 18.8944 38.61 18.7931C38.3644 18.0469 38.0606 17.3137 37.7044 16.6125C37.6556 16.5169 37.6706 16.4269 37.7456 16.3519L40.0631 14.0344C40.53 13.5675 40.7869 12.9469 40.7869 12.285C40.7869 11.6231 40.53 11.0025 40.0631 10.5356L36.8512 7.32375C36.3844 6.85688 35.7638 6.6 35.1019 6.6C34.44 6.6 33.8194 6.85688 33.3525 7.32375L31.035 9.64125C30.96 9.71625 30.87 9.73125 30.7744 9.6825C30.0731 9.32812 29.34 9.0225 28.5938 8.77688C28.4925 8.74313 28.44 8.67 28.44 8.56312V5.2875C28.44 3.9225 27.33 2.8125 25.965 2.8125H21.4219C20.0569 2.8125 18.9469 3.9225 18.9469 5.2875V8.56312C18.9469 8.67 18.8925 8.74313 18.7913 8.77688C18.045 9.0225 17.3119 9.32625 16.6106 9.6825C16.515 9.73125 16.425 9.71625 16.35 9.64125L14.0344 7.32187C13.0687 6.35625 11.4994 6.35625 10.5338 7.32187L7.32187 10.5356C6.855 11.0025 6.59812 11.6231 6.59812 12.285C6.59812 12.9469 6.855 13.5675 7.32187 14.0344L9.63937 16.3519C9.71438 16.4269 9.72938 16.5169 9.68062 16.6125C9.32625 17.3137 9.02063 18.0469 8.77688 18.7931C8.74313 18.8944 8.67 18.9469 8.56312 18.9469H5.2875C3.9225 18.9469 2.8125 20.0569 2.8125 21.4219V25.965C2.8125 27.33 3.9225 28.44 5.2875 28.44H8.56312C8.67 28.44 8.74313 28.4944 8.77688 28.5938C9.0225 29.34 9.32625 30.0731 9.6825 30.7744C9.73125 30.87 9.71625 30.96 9.64125 31.035L7.32187 33.3562C6.35625 34.3219 6.35625 35.8913 7.32187 36.8569L10.5338 40.0687C11.0006 40.5356 11.6213 40.7925 12.2831 40.7925C12.945 40.7925 13.5656 40.5356 14.0325 40.0687L16.35 37.7513C16.4287 37.6744 16.5187 37.6594 16.6125 37.7081ZM12.4444 38.4769C12.39 38.5312 12.3281 38.5425 12.285 38.5425C12.2419 38.5425 12.18 38.5312 12.1256 38.4769L8.91375 35.265C8.8275 35.1787 8.8275 35.0325 8.91375 34.9463L11.2313 32.6287C11.9906 31.8694 12.1744 30.7181 11.6888 29.76C11.385 29.16 11.1244 28.5319 10.9144 27.8925C10.5806 26.8744 9.63562 26.19 8.56312 26.19H5.2875C5.16563 26.19 5.0625 26.0869 5.0625 25.965V21.4219C5.0625 21.3 5.16563 21.1969 5.2875 21.1969H8.56312C9.63562 21.1969 10.5806 20.5125 10.9144 19.4944C11.1244 18.8569 11.385 18.2287 11.6888 17.6287C12.1744 16.6725 11.9888 15.5194 11.2313 14.76L8.91375 12.4444C8.85938 12.39 8.84812 12.3281 8.84812 12.285C8.84812 12.2419 8.85938 12.18 8.91375 12.1256L12.1256 8.91375C12.2119 8.8275 12.3581 8.8275 12.4444 8.91375L14.7619 11.2313C15.5213 11.9906 16.6725 12.1744 17.6306 11.6888C18.2306 11.385 18.8588 11.1244 19.4963 10.9144C20.5144 10.5806 21.1987 9.63562 21.1987 8.56312V5.2875C21.1987 5.16563 21.3019 5.0625 21.4237 5.0625H25.9669C26.0888 5.0625 26.1919 5.16563 26.1919 5.2875V8.56312C26.1919 9.63562 26.8763 10.5806 27.8944 10.9144C28.5338 11.1244 29.1619 11.385 29.76 11.6888C30.7162 12.1744 31.8694 11.9888 32.6287 11.2313L34.9463 8.91375C35.0006 8.85938 35.0625 8.84812 35.1056 8.84812C35.1488 8.84812 35.2106 8.85938 35.265 8.91375L38.4769 12.1256C38.5312 12.18 38.5425 12.2419 38.5425 12.285C38.5425 12.3281 38.5312 12.39 38.4769 12.4444L36.1594 14.7619C35.4 15.5213 35.2163 16.6725 35.7019 17.6306C36.0056 18.2306 36.2663 18.8588 36.4762 19.4963C36.81 20.5144 37.755 21.1987 38.8275 21.1987H42.1031C42.225 21.1987 42.3281 21.3019 42.3281 21.4237V25.9669C42.3281 26.0888 42.225 26.1919 42.1031 26.1919H38.8275C37.755 26.1919 36.81 26.8763 36.4762 27.8944C36.2663 28.5319 36.0056 29.16 35.7019 29.7619C35.2163 30.7181 35.4019 31.8713 36.1594 32.6306L38.4769 34.9481C38.5631 35.0344 38.5631 35.1806 38.4769 35.2669L35.265 38.4788C35.2106 38.5331 35.1488 38.5444 35.1056 38.5444C35.0625 38.5444 35.0006 38.5331 34.9463 38.4788L32.6287 36.1613C31.8694 35.4019 30.7181 35.2181 29.76 35.7038C29.16 36.0075 28.5319 36.2681 27.8944 36.4781C26.8763 36.8119 26.1919 37.7569 26.1919 38.8294V42.105C26.1919 42.2269 26.0888 42.33 25.9669 42.33H21.4237C21.3019 42.33 21.1987 42.2269 21.1987 42.105V38.8294C21.1987 37.7569 20.5144 36.8119 19.4963 36.4781C18.8588 36.2681 18.2306 36.0075 17.6287 35.7038C17.2725 35.5238 16.89 35.4356 16.5094 35.4356C15.8681 35.4356 15.2362 35.685 14.76 36.1613L12.4444 38.4769ZM76.6744 39.4144C74.2331 38.0044 71.4375 37.5094 68.6944 37.98L65.2781 25.23C64.3988 21.9469 61.0125 19.9912 57.7294 20.8706C54.6506 21.6956 52.74 24.7256 53.2388 27.8063C50.61 33.1331 39.525 44.2088 35.625 45.3263L23.0531 48.6956C17.505 50.1825 14.1413 55.6912 15.5569 60.9731L17.5106 68.2669C18.1987 70.8319 19.8994 72.96 22.305 74.2612C23.8538 75.0994 25.5713 75.5269 27.3169 75.5269C27.3862 75.5269 27.4556 75.525 27.5231 75.5231L38.8425 91.2206C39.7687 92.505 41.2219 93.1875 42.6956 93.1875C43.6575 93.1875 44.6269 92.8969 45.4631 92.2931C47.5144 90.8138 47.9925 87.9938 46.5769 85.7325L38.5406 72.9019L43.005 71.7056C46.9031 70.7344 62.0681 74.8462 66.8269 78.1331C67.8788 80.1994 70.02 81.5025 72.3225 81.5025C72.8494 81.5025 73.3838 81.435 73.9163 81.2925C77.1994 80.4131 79.155 77.0269 78.2756 73.7437L74.8594 60.9937C77.4694 60.0281 79.6444 58.2019 81.0525 55.7606C82.65 52.9931 83.0756 49.7681 82.2487 46.68C81.4219 43.5919 79.4419 41.0119 76.6744 39.4144ZM44.6737 86.9287C45.4519 88.1719 45.2269 89.6944 44.1506 90.4706C43.035 91.275 41.4731 91.0219 40.6706 89.9062L30.0487 75.1781C30.0806 75.1706 30.1106 75.1631 30.1425 75.1537L36.27 73.5112L44.6737 86.9287ZM29.5594 72.9806C27.4481 73.5469 25.2506 73.2994 23.3756 72.285C21.5212 71.2819 20.2106 69.6488 19.6838 67.6875L17.73 60.3938C16.635 56.3081 19.2844 52.0369 23.6344 50.8706L35.16 47.7825L38.4731 59.0794L41.3512 69.8213L29.5594 72.9806ZM43.5563 69.3562L40.6425 58.485C40.6406 58.4756 40.6388 58.4681 40.635 58.4587L37.2975 47.0775C40.5881 45.5044 45.2194 41.0138 46.6781 39.5513C49.1981 37.0275 52.1437 33.7162 54.0281 30.885L65.8462 74.9906C59.895 72.0319 48.6319 68.94 43.5563 69.3562ZM73.335 79.1194C71.25 79.6781 69.0994 78.4369 68.5406 76.3519L55.5413 27.8381C54.9825 25.7531 56.2238 23.6025 58.3088 23.0438C59.3138 22.7738 60.3675 22.9144 61.275 23.4394C62.1844 23.9644 62.8331 24.8063 63.1012 25.8113L76.1006 74.325C76.6612 76.41 75.42 78.5606 73.335 79.1194ZM74.2744 58.8075L69.2794 40.1663C71.4394 39.8456 73.6294 40.2562 75.5494 41.3644C77.7975 42.6619 79.4044 44.7581 80.0775 47.265C81.3637 52.0706 78.795 57.0169 74.2744 58.8075ZM85.3744 44.6794L91.7719 42.9656C92.3719 42.8044 92.9887 43.1606 93.15 43.7606C93.3112 44.3606 92.955 44.9775 92.355 45.1388L85.9575 46.8525C85.86 46.8787 85.7625 46.8919 85.665 46.8919C85.1681 46.8919 84.7144 46.56 84.5794 46.0575C84.4163 45.4556 84.7725 44.8387 85.3744 44.6794ZM93.15 55.7962C93.015 56.2987 92.5612 56.6306 92.0644 56.6306C91.9688 56.6306 91.8694 56.6175 91.7719 56.5913L85.3744 54.8775C84.7744 54.7162 84.4181 54.0994 84.5794 53.4994C84.7406 52.8994 85.3575 52.545 85.9575 52.7044L92.355 54.4181C92.9531 54.5794 93.3094 55.1962 93.15 55.7962ZM80.8575 39.6112C80.4187 39.1725 80.4187 38.46 80.8575 38.0194L85.5413 33.3356C85.98 32.8969 86.6925 32.8969 87.1331 33.3356C87.5719 33.7744 87.5719 34.4869 87.1331 34.9275L82.4494 39.6112C82.23 39.8306 81.9412 39.9412 81.6544 39.9412C81.3675 39.9412 81.0769 39.8306 80.8575 39.6112Z" stroke="white" stroke-width="1.10769" mask="url(#path-1-outside-1_1760_90017)"/>
<mask id="path-2-outside-2_1760_90017" maskUnits="userSpaceOnUse" x="1.8125" y="1.8125" width="44" height="44" fill="black">
<rect fill="white" x="1.8125" y="1.8125" width="44" height="44"/>
<path d="M23.6944 32.9119C28.7756 32.9119 32.91 28.7775 32.91 23.6962C32.91 18.615 28.7756 14.4806 23.6944 14.4806C18.6131 14.4806 14.4788 18.615 14.4788 23.6962C14.4788 28.7775 18.6131 32.9119 23.6944 32.9119ZM23.6944 16.7288C27.5363 16.7288 30.66 19.8544 30.66 23.6944C30.66 27.5363 27.5344 30.66 23.6944 30.66C19.8525 30.66 16.7288 27.5344 16.7288 23.6944C16.7288 19.8544 19.8544 16.7288 23.6944 16.7288ZM16.6125 37.7081C17.3138 38.0625 18.0469 38.3681 18.7931 38.6138C18.8944 38.6475 18.9469 38.7206 18.9469 38.8275V42.1031C18.9469 43.4681 20.0569 44.5781 21.4219 44.5781H25.965C27.33 44.5781 28.44 43.4681 28.44 42.1031V38.8275C28.44 38.7206 28.4944 38.6475 28.5938 38.6138C29.34 38.3681 30.0731 38.0644 30.7744 37.7081C30.87 37.6594 30.96 37.6744 31.035 37.7494L33.3525 40.0669C33.8194 40.5337 34.44 40.7906 35.1019 40.7906C35.7637 40.7906 36.3844 40.5337 36.8512 40.0669L40.0631 36.855C41.0288 35.8894 41.0288 34.32 40.0631 33.3544L37.7456 31.0369C37.6706 30.9619 37.6556 30.8719 37.7044 30.7762C38.0606 30.075 38.3644 29.34 38.61 28.5956C38.6437 28.4944 38.7169 28.4419 38.8237 28.4419H42.0994C43.4644 28.4419 44.5744 27.3319 44.5744 25.9669V21.4237C44.5744 20.0588 43.4644 18.9488 42.0994 18.9488H38.8237C38.7169 18.9488 38.6437 18.8944 38.61 18.7931C38.3644 18.0469 38.0606 17.3138 37.7044 16.6125C37.6556 16.5169 37.6706 16.4269 37.7456 16.3519L40.0631 14.0344C40.53 13.5675 40.7869 12.9469 40.7869 12.285C40.7869 11.6231 40.53 11.0025 40.0631 10.5356L36.8512 7.32375C36.3844 6.85688 35.7637 6.6 35.1019 6.6C34.44 6.6 33.8194 6.85688 33.3525 7.32375L31.035 9.64125C30.96 9.71625 30.87 9.73125 30.7744 9.6825C30.0731 9.32812 29.34 9.0225 28.5938 8.77688C28.4925 8.74313 28.44 8.67 28.44 8.56312V5.2875C28.44 3.9225 27.33 2.8125 25.965 2.8125H21.4219C20.0569 2.8125 18.9469 3.9225 18.9469 5.2875V8.56312C18.9469 8.67 18.8925 8.74313 18.7913 8.77688C18.045 9.0225 17.3119 9.32625 16.6106 9.6825C16.515 9.73125 16.425 9.71625 16.35 9.64125L14.0344 7.32188C13.0687 6.35625 11.4994 6.35625 10.5338 7.32188L7.32188 10.5356C6.855 11.0025 6.59812 11.6231 6.59812 12.285C6.59812 12.9469 6.855 13.5675 7.32188 14.0344L9.63937 16.3519C9.71438 16.4269 9.72937 16.5169 9.68062 16.6125C9.32625 17.3138 9.02063 18.0469 8.77688 18.7931C8.74313 18.8944 8.67 18.9469 8.56312 18.9469H5.2875C3.9225 18.9469 2.8125 20.0569 2.8125 21.4219V25.965C2.8125 27.33 3.9225 28.44 5.2875 28.44H8.56312C8.67 28.44 8.74313 28.4944 8.77688 28.5938C9.0225 29.34 9.32625 30.0731 9.6825 30.7744C9.73125 30.87 9.71625 30.96 9.64125 31.035L7.32188 33.3562C6.35625 34.3219 6.35625 35.8913 7.32188 36.8569L10.5338 40.0687C11.0006 40.5356 11.6213 40.7925 12.2831 40.7925C12.945 40.7925 13.5656 40.5356 14.0325 40.0687L16.35 37.7512C16.4288 37.6744 16.5188 37.6594 16.6125 37.7081ZM12.4444 38.4769C12.39 38.5312 12.3281 38.5425 12.285 38.5425C12.2419 38.5425 12.18 38.5312 12.1256 38.4769L8.91375 35.265C8.8275 35.1787 8.8275 35.0325 8.91375 34.9463L11.2312 32.6287C11.9906 31.8694 12.1744 30.7181 11.6888 29.76C11.385 29.16 11.1244 28.5319 10.9144 27.8925C10.5806 26.8744 9.63562 26.19 8.56312 26.19H5.2875C5.16563 26.19 5.0625 26.0869 5.0625 25.965V21.4219C5.0625 21.3 5.16563 21.1969 5.2875 21.1969H8.56312C9.63562 21.1969 10.5806 20.5125 10.9144 19.4944C11.1244 18.8569 11.385 18.2288 11.6888 17.6287C12.1744 16.6725 11.9888 15.5194 11.2312 14.76L8.91375 12.4444C8.85938 12.39 8.84812 12.3281 8.84812 12.285C8.84812 12.2419 8.85938 12.18 8.91375 12.1256L12.1256 8.91375C12.2119 8.8275 12.3581 8.8275 12.4444 8.91375L14.7619 11.2312C15.5213 11.9906 16.6725 12.1744 17.6306 11.6888C18.2306 11.385 18.8587 11.1244 19.4963 10.9144C20.5144 10.5806 21.1988 9.63562 21.1988 8.56312V5.2875C21.1988 5.16563 21.3019 5.0625 21.4237 5.0625H25.9669C26.0888 5.0625 26.1919 5.16563 26.1919 5.2875V8.56312C26.1919 9.63562 26.8763 10.5806 27.8944 10.9144C28.5338 11.1244 29.1619 11.385 29.76 11.6888C30.7162 12.1744 31.8694 11.9888 32.6287 11.2312L34.9463 8.91375C35.0006 8.85938 35.0625 8.84812 35.1056 8.84812C35.1488 8.84812 35.2106 8.85938 35.265 8.91375L38.4769 12.1256C38.5312 12.18 38.5425 12.2419 38.5425 12.285C38.5425 12.3281 38.5312 12.39 38.4769 12.4444L36.1594 14.7619C35.4 15.5213 35.2163 16.6725 35.7019 17.6306C36.0056 18.2306 36.2663 18.8587 36.4762 19.4963C36.81 20.5144 37.755 21.1988 38.8275 21.1988H42.1031C42.225 21.1988 42.3281 21.3019 42.3281 21.4237V25.9669C42.3281 26.0888 42.225 26.1919 42.1031 26.1919H38.8275C37.755 26.1919 36.81 26.8763 36.4762 27.8944C36.2663 28.5319 36.0056 29.16 35.7019 29.7619C35.2163 30.7181 35.4019 31.8712 36.1594 32.6306L38.4769 34.9481C38.5631 35.0344 38.5631 35.1806 38.4769 35.2669L35.265 38.4788C35.2106 38.5331 35.1488 38.5444 35.1056 38.5444C35.0625 38.5444 35.0006 38.5331 34.9463 38.4788L32.6287 36.1613C31.8694 35.4019 30.7181 35.2181 29.76 35.7038C29.16 36.0075 28.5319 36.2681 27.8944 36.4781C26.8763 36.8119 26.1919 37.7569 26.1919 38.8294V42.105C26.1919 42.2269 26.0888 42.33 25.9669 42.33H21.4237C21.3019 42.33 21.1988 42.2269 21.1988 42.105V38.8294C21.1988 37.7569 20.5144 36.8119 19.4963 36.4781C18.8587 36.2681 18.2306 36.0075 17.6287 35.7038C17.2725 35.5238 16.89 35.4356 16.5094 35.4356C15.8681 35.4356 15.2362 35.685 14.76 36.1613L12.4444 38.4769Z"/>
</mask>
<path d="M23.6944 32.9119C28.7756 32.9119 32.91 28.7775 32.91 23.6962C32.91 18.615 28.7756 14.4806 23.6944 14.4806C18.6131 14.4806 14.4788 18.615 14.4788 23.6962C14.4788 28.7775 18.6131 32.9119 23.6944 32.9119ZM23.6944 16.7288C27.5363 16.7288 30.66 19.8544 30.66 23.6944C30.66 27.5363 27.5344 30.66 23.6944 30.66C19.8525 30.66 16.7288 27.5344 16.7288 23.6944C16.7288 19.8544 19.8544 16.7288 23.6944 16.7288ZM16.6125 37.7081C17.3138 38.0625 18.0469 38.3681 18.7931 38.6138C18.8944 38.6475 18.9469 38.7206 18.9469 38.8275V42.1031C18.9469 43.4681 20.0569 44.5781 21.4219 44.5781H25.965C27.33 44.5781 28.44 43.4681 28.44 42.1031V38.8275C28.44 38.7206 28.4944 38.6475 28.5938 38.6138C29.34 38.3681 30.0731 38.0644 30.7744 37.7081C30.87 37.6594 30.96 37.6744 31.035 37.7494L33.3525 40.0669C33.8194 40.5337 34.44 40.7906 35.1019 40.7906C35.7637 40.7906 36.3844 40.5337 36.8512 40.0669L40.0631 36.855C41.0288 35.8894 41.0288 34.32 40.0631 33.3544L37.7456 31.0369C37.6706 30.9619 37.6556 30.8719 37.7044 30.7762C38.0606 30.075 38.3644 29.34 38.61 28.5956C38.6437 28.4944 38.7169 28.4419 38.8237 28.4419H42.0994C43.4644 28.4419 44.5744 27.3319 44.5744 25.9669V21.4237C44.5744 20.0588 43.4644 18.9488 42.0994 18.9488H38.8237C38.7169 18.9488 38.6437 18.8944 38.61 18.7931C38.3644 18.0469 38.0606 17.3138 37.7044 16.6125C37.6556 16.5169 37.6706 16.4269 37.7456 16.3519L40.0631 14.0344C40.53 13.5675 40.7869 12.9469 40.7869 12.285C40.7869 11.6231 40.53 11.0025 40.0631 10.5356L36.8512 7.32375C36.3844 6.85688 35.7637 6.6 35.1019 6.6C34.44 6.6 33.8194 6.85688 33.3525 7.32375L31.035 9.64125C30.96 9.71625 30.87 9.73125 30.7744 9.6825C30.0731 9.32812 29.34 9.0225 28.5938 8.77688C28.4925 8.74313 28.44 8.67 28.44 8.56312V5.2875C28.44 3.9225 27.33 2.8125 25.965 2.8125H21.4219C20.0569 2.8125 18.9469 3.9225 18.9469 5.2875V8.56312C18.9469 8.67 18.8925 8.74313 18.7913 8.77688C18.045 9.0225 17.3119 9.32625 16.6106 9.6825C16.515 9.73125 16.425 9.71625 16.35 9.64125L14.0344 7.32188C13.0687 6.35625 11.4994 6.35625 10.5338 7.32188L7.32188 10.5356C6.855 11.0025 6.59812 11.6231 6.59812 12.285C6.59812 12.9469 6.855 13.5675 7.32188 14.0344L9.63937 16.3519C9.71438 16.4269 9.72937 16.5169 9.68062 16.6125C9.32625 17.3138 9.02063 18.0469 8.77688 18.7931C8.74313 18.8944 8.67 18.9469 8.56312 18.9469H5.2875C3.9225 18.9469 2.8125 20.0569 2.8125 21.4219V25.965C2.8125 27.33 3.9225 28.44 5.2875 28.44H8.56312C8.67 28.44 8.74313 28.4944 8.77688 28.5938C9.0225 29.34 9.32625 30.0731 9.6825 30.7744C9.73125 30.87 9.71625 30.96 9.64125 31.035L7.32188 33.3562C6.35625 34.3219 6.35625 35.8913 7.32188 36.8569L10.5338 40.0687C11.0006 40.5356 11.6213 40.7925 12.2831 40.7925C12.945 40.7925 13.5656 40.5356 14.0325 40.0687L16.35 37.7512C16.4288 37.6744 16.5188 37.6594 16.6125 37.7081ZM12.4444 38.4769C12.39 38.5312 12.3281 38.5425 12.285 38.5425C12.2419 38.5425 12.18 38.5312 12.1256 38.4769L8.91375 35.265C8.8275 35.1787 8.8275 35.0325 8.91375 34.9463L11.2312 32.6287C11.9906 31.8694 12.1744 30.7181 11.6888 29.76C11.385 29.16 11.1244 28.5319 10.9144 27.8925C10.5806 26.8744 9.63562 26.19 8.56312 26.19H5.2875C5.16563 26.19 5.0625 26.0869 5.0625 25.965V21.4219C5.0625 21.3 5.16563 21.1969 5.2875 21.1969H8.56312C9.63562 21.1969 10.5806 20.5125 10.9144 19.4944C11.1244 18.8569 11.385 18.2288 11.6888 17.6287C12.1744 16.6725 11.9888 15.5194 11.2312 14.76L8.91375 12.4444C8.85938 12.39 8.84812 12.3281 8.84812 12.285C8.84812 12.2419 8.85938 12.18 8.91375 12.1256L12.1256 8.91375C12.2119 8.8275 12.3581 8.8275 12.4444 8.91375L14.7619 11.2312C15.5213 11.9906 16.6725 12.1744 17.6306 11.6888C18.2306 11.385 18.8587 11.1244 19.4963 10.9144C20.5144 10.5806 21.1988 9.63562 21.1988 8.56312V5.2875C21.1988 5.16563 21.3019 5.0625 21.4237 5.0625H25.9669C26.0888 5.0625 26.1919 5.16563 26.1919 5.2875V8.56312C26.1919 9.63562 26.8763 10.5806 27.8944 10.9144C28.5338 11.1244 29.1619 11.385 29.76 11.6888C30.7162 12.1744 31.8694 11.9888 32.6287 11.2312L34.9463 8.91375C35.0006 8.85938 35.0625 8.84812 35.1056 8.84812C35.1488 8.84812 35.2106 8.85938 35.265 8.91375L38.4769 12.1256C38.5312 12.18 38.5425 12.2419 38.5425 12.285C38.5425 12.3281 38.5312 12.39 38.4769 12.4444L36.1594 14.7619C35.4 15.5213 35.2163 16.6725 35.7019 17.6306C36.0056 18.2306 36.2663 18.8587 36.4762 19.4963C36.81 20.5144 37.755 21.1988 38.8275 21.1988H42.1031C42.225 21.1988 42.3281 21.3019 42.3281 21.4237V25.9669C42.3281 26.0888 42.225 26.1919 42.1031 26.1919H38.8275C37.755 26.1919 36.81 26.8763 36.4762 27.8944C36.2663 28.5319 36.0056 29.16 35.7019 29.7619C35.2163 30.7181 35.4019 31.8712 36.1594 32.6306L38.4769 34.9481C38.5631 35.0344 38.5631 35.1806 38.4769 35.2669L35.265 38.4788C35.2106 38.5331 35.1488 38.5444 35.1056 38.5444C35.0625 38.5444 35.0006 38.5331 34.9463 38.4788L32.6287 36.1613C31.8694 35.4019 30.7181 35.2181 29.76 35.7038C29.16 36.0075 28.5319 36.2681 27.8944 36.4781C26.8763 36.8119 26.1919 37.7569 26.1919 38.8294V42.105C26.1919 42.2269 26.0888 42.33 25.9669 42.33H21.4237C21.3019 42.33 21.1988 42.2269 21.1988 42.105V38.8294C21.1988 37.7569 20.5144 36.8119 19.4963 36.4781C18.8587 36.2681 18.2306 36.0075 17.6287 35.7038C17.2725 35.5238 16.89 35.4356 16.5094 35.4356C15.8681 35.4356 15.2362 35.685 14.76 36.1613L12.4444 38.4769Z" fill="#E6B400"/>
<path d="M23.6944 32.9119C28.7756 32.9119 32.91 28.7775 32.91 23.6962C32.91 18.615 28.7756 14.4806 23.6944 14.4806C18.6131 14.4806 14.4788 18.615 14.4788 23.6962C14.4788 28.7775 18.6131 32.9119 23.6944 32.9119ZM23.6944 16.7288C27.5363 16.7288 30.66 19.8544 30.66 23.6944C30.66 27.5363 27.5344 30.66 23.6944 30.66C19.8525 30.66 16.7288 27.5344 16.7288 23.6944C16.7288 19.8544 19.8544 16.7288 23.6944 16.7288ZM16.6125 37.7081C17.3138 38.0625 18.0469 38.3681 18.7931 38.6138C18.8944 38.6475 18.9469 38.7206 18.9469 38.8275V42.1031C18.9469 43.4681 20.0569 44.5781 21.4219 44.5781H25.965C27.33 44.5781 28.44 43.4681 28.44 42.1031V38.8275C28.44 38.7206 28.4944 38.6475 28.5938 38.6138C29.34 38.3681 30.0731 38.0644 30.7744 37.7081C30.87 37.6594 30.96 37.6744 31.035 37.7494L33.3525 40.0669C33.8194 40.5337 34.44 40.7906 35.1019 40.7906C35.7637 40.7906 36.3844 40.5337 36.8512 40.0669L40.0631 36.855C41.0288 35.8894 41.0288 34.32 40.0631 33.3544L37.7456 31.0369C37.6706 30.9619 37.6556 30.8719 37.7044 30.7762C38.0606 30.075 38.3644 29.34 38.61 28.5956C38.6437 28.4944 38.7169 28.4419 38.8237 28.4419H42.0994C43.4644 28.4419 44.5744 27.3319 44.5744 25.9669V21.4237C44.5744 20.0588 43.4644 18.9488 42.0994 18.9488H38.8237C38.7169 18.9488 38.6437 18.8944 38.61 18.7931C38.3644 18.0469 38.0606 17.3138 37.7044 16.6125C37.6556 16.5169 37.6706 16.4269 37.7456 16.3519L40.0631 14.0344C40.53 13.5675 40.7869 12.9469 40.7869 12.285C40.7869 11.6231 40.53 11.0025 40.0631 10.5356L36.8512 7.32375C36.3844 6.85688 35.7637 6.6 35.1019 6.6C34.44 6.6 33.8194 6.85688 33.3525 7.32375L31.035 9.64125C30.96 9.71625 30.87 9.73125 30.7744 9.6825C30.0731 9.32812 29.34 9.0225 28.5938 8.77688C28.4925 8.74313 28.44 8.67 28.44 8.56312V5.2875C28.44 3.9225 27.33 2.8125 25.965 2.8125H21.4219C20.0569 2.8125 18.9469 3.9225 18.9469 5.2875V8.56312C18.9469 8.67 18.8925 8.74313 18.7913 8.77688C18.045 9.0225 17.3119 9.32625 16.6106 9.6825C16.515 9.73125 16.425 9.71625 16.35 9.64125L14.0344 7.32188C13.0687 6.35625 11.4994 6.35625 10.5338 7.32188L7.32188 10.5356C6.855 11.0025 6.59812 11.6231 6.59812 12.285C6.59812 12.9469 6.855 13.5675 7.32188 14.0344L9.63937 16.3519C9.71438 16.4269 9.72937 16.5169 9.68062 16.6125C9.32625 17.3138 9.02063 18.0469 8.77688 18.7931C8.74313 18.8944 8.67 18.9469 8.56312 18.9469H5.2875C3.9225 18.9469 2.8125 20.0569 2.8125 21.4219V25.965C2.8125 27.33 3.9225 28.44 5.2875 28.44H8.56312C8.67 28.44 8.74313 28.4944 8.77688 28.5938C9.0225 29.34 9.32625 30.0731 9.6825 30.7744C9.73125 30.87 9.71625 30.96 9.64125 31.035L7.32188 33.3562C6.35625 34.3219 6.35625 35.8913 7.32188 36.8569L10.5338 40.0687C11.0006 40.5356 11.6213 40.7925 12.2831 40.7925C12.945 40.7925 13.5656 40.5356 14.0325 40.0687L16.35 37.7512C16.4288 37.6744 16.5188 37.6594 16.6125 37.7081ZM12.4444 38.4769C12.39 38.5312 12.3281 38.5425 12.285 38.5425C12.2419 38.5425 12.18 38.5312 12.1256 38.4769L8.91375 35.265C8.8275 35.1787 8.8275 35.0325 8.91375 34.9463L11.2312 32.6287C11.9906 31.8694 12.1744 30.7181 11.6888 29.76C11.385 29.16 11.1244 28.5319 10.9144 27.8925C10.5806 26.8744 9.63562 26.19 8.56312 26.19H5.2875C5.16563 26.19 5.0625 26.0869 5.0625 25.965V21.4219C5.0625 21.3 5.16563 21.1969 5.2875 21.1969H8.56312C9.63562 21.1969 10.5806 20.5125 10.9144 19.4944C11.1244 18.8569 11.385 18.2288 11.6888 17.6287C12.1744 16.6725 11.9888 15.5194 11.2312 14.76L8.91375 12.4444C8.85938 12.39 8.84812 12.3281 8.84812 12.285C8.84812 12.2419 8.85938 12.18 8.91375 12.1256L12.1256 8.91375C12.2119 8.8275 12.3581 8.8275 12.4444 8.91375L14.7619 11.2312C15.5213 11.9906 16.6725 12.1744 17.6306 11.6888C18.2306 11.385 18.8587 11.1244 19.4963 10.9144C20.5144 10.5806 21.1988 9.63562 21.1988 8.56312V5.2875C21.1988 5.16563 21.3019 5.0625 21.4237 5.0625H25.9669C26.0888 5.0625 26.1919 5.16563 26.1919 5.2875V8.56312C26.1919 9.63562 26.8763 10.5806 27.8944 10.9144C28.5338 11.1244 29.1619 11.385 29.76 11.6888C30.7162 12.1744 31.8694 11.9888 32.6287 11.2312L34.9463 8.91375C35.0006 8.85938 35.0625 8.84812 35.1056 8.84812C35.1488 8.84812 35.2106 8.85938 35.265 8.91375L38.4769 12.1256C38.5312 12.18 38.5425 12.2419 38.5425 12.285C38.5425 12.3281 38.5312 12.39 38.4769 12.4444L36.1594 14.7619C35.4 15.5213 35.2163 16.6725 35.7019 17.6306C36.0056 18.2306 36.2663 18.8587 36.4762 19.4963C36.81 20.5144 37.755 21.1988 38.8275 21.1988H42.1031C42.225 21.1988 42.3281 21.3019 42.3281 21.4237V25.9669C42.3281 26.0888 42.225 26.1919 42.1031 26.1919H38.8275C37.755 26.1919 36.81 26.8763 36.4762 27.8944C36.2663 28.5319 36.0056 29.16 35.7019 29.7619C35.2163 30.7181 35.4019 31.8712 36.1594 32.6306L38.4769 34.9481C38.5631 35.0344 38.5631 35.1806 38.4769 35.2669L35.265 38.4788C35.2106 38.5331 35.1488 38.5444 35.1056 38.5444C35.0625 38.5444 35.0006 38.5331 34.9463 38.4788L32.6287 36.1613C31.8694 35.4019 30.7181 35.2181 29.76 35.7038C29.16 36.0075 28.5319 36.2681 27.8944 36.4781C26.8763 36.8119 26.1919 37.7569 26.1919 38.8294V42.105C26.1919 42.2269 26.0888 42.33 25.9669 42.33H21.4237C21.3019 42.33 21.1988 42.2269 21.1988 42.105V38.8294C21.1988 37.7569 20.5144 36.8119 19.4963 36.4781C18.8587 36.2681 18.2306 36.0075 17.6287 35.7038C17.2725 35.5238 16.89 35.4356 16.5094 35.4356C15.8681 35.4356 15.2362 35.685 14.76 36.1613L12.4444 38.4769Z" stroke="#E6B400" stroke-width="1.10769" mask="url(#path-2-outside-2_1760_90017)"/>
</svg>
