<svg width="96" height="96" viewBox="0 0 96 96" fill="none" xmlns="http://www.w3.org/2000/svg">
<path d="M65.8531 94.125H30.1503C25.0099 94.125 20.8281 89.9432 20.8281 84.8029V63.2271H23.0781V84.8029C23.0781 88.7025 26.2506 91.875 30.1503 91.875H65.8531C69.7527 91.875 72.9252 88.7025 72.9252 84.8029V66.1956H75.1752V84.8029C75.175 89.9432 70.9932 94.125 65.8531 94.125ZM75.175 41.8875H72.925V11.1971C72.925 7.2975 69.7525 4.125 65.8529 4.125H30.1503C26.2506 4.125 23.0781 7.2975 23.0781 11.1971V39.7089H20.8281V11.1971C20.8281 6.05681 25.0101 1.875 30.1503 1.875H65.8531C70.9934 1.875 75.1752 6.057 75.1752 11.1971L75.175 41.8875Z" fill="#E6B400"/>
<path d="M52.5431 87.1797H44.7734C44.1523 87.1797 43.6484 86.6759 43.6484 86.0547C43.6484 85.4335 44.1523 84.9297 44.7734 84.9297H52.5431C53.1643 84.9297 53.6681 85.4335 53.6681 86.0547C53.6681 86.6759 53.1644 87.1797 52.5431 87.1797Z" fill="#E6B400"/>
<path d="M31.1353 71.8991C30.8794 71.8991 30.6259 71.8119 30.4206 71.643L21.5484 64.3464H7.79287C4.52981 64.3464 1.875 61.6916 1.875 58.4286V44.496C1.875 41.2329 4.52981 38.5781 7.79287 38.5781H35.1892C38.4523 38.5781 41.1071 41.2329 41.1071 44.496V58.4286C41.1071 61.6916 38.4523 64.3464 35.1892 64.3464H32.2601V70.7741C32.2601 71.2093 32.0091 71.6055 31.6155 71.7913C31.4623 71.8637 31.2982 71.8991 31.1353 71.8991ZM7.79287 40.8285C5.77031 40.8285 4.125 42.4738 4.125 44.4964V58.4289C4.125 60.4513 5.77031 62.0968 7.79287 62.0968H21.9516C22.2122 62.0968 22.4647 62.1874 22.6661 62.3529L30.0101 68.3927V63.2218C30.0101 62.6006 30.5139 62.0968 31.1351 62.0968H35.1892C37.2118 62.0968 38.8571 60.4515 38.8571 58.4289V44.4964C38.8571 42.474 37.2118 40.8285 35.1892 40.8285H7.79287Z" fill="white"/>
<path d="M46.2081 28.1901C45.79 28.1901 45.3721 28.0802 44.9913 27.8603C44.2289 27.42 43.7734 26.6303 43.7734 25.7477V18.786C43.7734 17.9034 44.2287 17.1137 44.9913 16.6734C45.7538 16.2332 46.6654 16.2339 47.4297 16.6751L53.4588 20.1559C54.2232 20.5973 54.6794 21.3863 54.6794 22.2668C54.6794 23.1473 54.223 23.9364 53.4588 24.3778L47.4297 27.8586C47.047 28.0794 46.6274 28.1901 46.2081 28.1901ZM46.2092 18.5953C46.1819 18.5953 46.1506 18.6021 46.1163 18.6219C46.0234 18.6756 46.0234 18.7586 46.0234 18.786V25.7477C46.0234 25.7751 46.0234 25.8581 46.1163 25.9118C46.2089 25.9654 46.2809 25.9238 46.3047 25.9101L52.3338 22.4293C52.3574 22.4156 52.4296 22.3742 52.4296 22.2669C52.4296 22.1599 52.3576 22.1183 52.3338 22.1046L46.3047 18.6238C46.2897 18.615 46.2557 18.5953 46.2092 18.5953Z" fill="white"/>
<path d="M60.2085 34.8221H35.7891C33.1011 34.8221 30.9141 32.6351 30.9141 29.9471V14.5859C30.9141 11.8979 33.1011 9.71094 35.7891 9.71094H60.2085C62.8965 9.71094 65.0835 11.8979 65.0835 14.5859V29.9472C65.0835 32.6352 62.8965 34.8221 60.2085 34.8221ZM35.7891 11.9609C34.3416 11.9609 33.1641 13.1384 33.1641 14.5859V29.9472C33.1641 31.3946 34.3416 32.5722 35.7891 32.5722H60.2085C61.656 32.5722 62.8335 31.3947 62.8335 29.9472V14.5859C62.8335 13.1384 61.656 11.9609 60.2085 11.9609H35.7891Z" fill="white"/>
<path d="M21.9474 57.8748H9.85175C9.23056 57.8748 8.72675 57.371 8.72675 56.7498C8.72675 56.1286 9.23056 55.6248 9.85175 55.6248H21.9474C22.5686 55.6248 23.0724 56.1286 23.0724 56.7498C23.0724 57.371 22.5686 57.8748 21.9474 57.8748ZM33.122 52.6016H9.85156C9.23037 52.6016 8.72656 52.0978 8.72656 51.4766C8.72656 50.8554 9.23037 50.3516 9.85156 50.3516H33.122C33.7432 50.3516 34.247 50.8554 34.247 51.4766C34.247 52.0978 33.7434 52.6016 33.122 52.6016ZM33.122 47.3281H9.85156C9.23037 47.3281 8.72656 46.8243 8.72656 46.2031C8.72656 45.5819 9.23037 45.0781 9.85156 45.0781H33.122C33.7432 45.0781 34.247 45.5819 34.247 46.2031C34.247 46.8243 33.7434 47.3281 33.122 47.3281Z" fill="white"/>
<path d="M60.408 79.1629C59.2976 79.1629 58.2163 78.5873 57.6225 77.5585L52.5234 68.7269L54.4721 67.6019L59.571 76.4335C59.8358 76.8919 60.4241 77.05 60.8829 76.7851C61.3416 76.5203 61.4993 75.9318 61.2345 75.4731L56.6944 67.6094L58.6431 66.4844L63.1832 74.3481C64.0682 75.8811 63.5411 77.8484 62.0081 78.7336C61.5036 79.0247 60.9523 79.1629 60.408 79.1629Z" fill="white"/>
<path d="M51.3972 69.6732C48.7773 69.6732 46.42 67.8923 45.6828 65.1417C44.804 61.8616 46.6101 58.6236 49.7946 57.7705C50.7141 57.5241 51.649 57.2892 52.553 57.0619C54.3368 56.6134 56.1815 56.1499 57.9464 55.5876C67.817 52.4429 71.4921 46.5571 72.3833 44.8281L74.3832 45.859C71.7365 50.9935 65.8473 55.4318 58.6293 57.7313C56.7978 58.3148 54.9186 58.7871 53.1014 59.2439C52.2057 59.4691 51.2795 59.7019 50.3768 59.9436C48.4111 60.4703 47.3037 62.4978 47.8561 64.5591C48.4085 66.6205 50.3811 67.8227 52.3471 67.2961C53.2499 67.054 54.1688 66.7924 55.0574 66.5395C56.8593 66.0265 58.7226 65.4963 60.6003 65.0858C68.0011 63.4684 75.3203 64.3673 80.1798 67.4907L78.9633 69.3835C77.327 68.3318 71.2015 65.0723 61.0806 67.2839C59.2715 67.6793 57.4422 68.2 55.6735 68.7036C54.7767 68.959 53.8493 69.223 52.9295 69.4694C52.4155 69.6072 51.9014 69.6732 51.3972 69.6732Z" fill="white"/>
<path d="M81.4728 60.0948L80.3305 58.1562L82.9073 56.6381L82.1781 53.9171L79.1875 53.8904L79.2074 51.6406L83.0534 51.6748C83.5589 51.6791 83.9991 52.0201 84.13 52.5084L85.3019 56.8818C85.4328 57.3701 85.2218 57.8857 84.7863 58.1424L81.4728 60.0948Z" fill="white"/>
<path d="M81.7029 72.256C81.1868 72.256 80.6764 72.1202 80.2161 71.8543C79.5259 71.4559 79.0328 70.8145 78.8274 70.048L71.9378 44.3355C71.5127 42.7495 72.4575 41.1132 74.0436 40.6881C74.8101 40.4828 75.6122 40.5891 76.3024 40.9875C76.9926 41.386 77.4857 42.0274 77.691 42.7937L84.5807 68.5063C85.0056 70.0924 84.061 71.7285 82.4749 72.1536C82.2197 72.2222 81.9606 72.256 81.7029 72.256ZM74.8118 42.837C74.7495 42.837 74.6873 42.8451 74.626 42.8616C74.2448 42.9638 74.0089 43.3722 74.1111 43.7533L81.0008 69.4658C81.0506 69.6516 81.1714 69.808 81.3411 69.9058C81.5108 70.0039 81.7065 70.0305 81.8925 69.9805C82.2737 69.8783 82.5096 69.4699 82.4074 69.0887L75.5177 43.3763C75.4678 43.1905 75.3469 43.0341 75.1774 42.9362C75.0636 42.8706 74.9381 42.837 74.8118 42.837Z" fill="white"/>
<path d="M91.6474 63.759C91.4565 63.759 91.2632 63.7104 91.086 63.6081L86.652 61.0481C86.1139 60.7374 85.9296 60.0493 86.2403 59.5114C86.5508 58.9734 87.2389 58.7889 87.777 59.0996L92.211 61.6596C92.7491 61.9703 92.9334 62.6584 92.6228 63.1963C92.4144 63.5573 92.0362 63.759 91.6474 63.759ZM88.0397 54.9242C87.543 54.9242 87.0885 54.5927 86.9537 54.09C86.7928 53.4898 87.1491 52.8729 87.7493 52.7123L92.6948 51.3872C93.2944 51.2259 93.9116 51.5826 94.0725 52.1828C94.2334 52.7829 93.8771 53.3998 93.2769 53.5605L88.3314 54.8856C88.2341 54.9118 88.1361 54.9242 88.0397 54.9242ZM84.1868 49.9031C83.9959 49.9031 83.8024 49.8546 83.6252 49.7522C83.0871 49.4415 82.9028 48.7534 83.2134 48.2154L85.7734 43.7814C86.0841 43.2433 86.7722 43.059 87.3101 43.3697C87.8483 43.6804 88.0326 44.3685 87.7219 44.9064L85.1619 49.3404C84.9536 49.7014 84.5754 49.9031 84.1868 49.9031Z" fill="white"/>
<path d="M57.2109 56.9609L59.3844 56.3782L61.9386 65.9045L59.7651 66.4872L57.2109 56.9609Z" fill="white"/>
</svg>
