<svg width="96" height="96" viewBox="0 0 96 96" fill="none" xmlns="http://www.w3.org/2000/svg">
<path d="M93 1.5H57C56.1705 1.5 55.5 2.172 55.5 3V51C55.5 51.828 56.1705 52.5 57 52.5H93C93.8295 52.5 94.5 51.828 94.5 51V3C94.5 2.172 93.8295 1.5 93 1.5ZM91.5 49.5H58.5V4.5H91.5V49.5Z" fill="white"/>
<path d="M90 57H51C48.519 57 46.5 59.019 46.5 61.5V90C46.5 92.481 48.519 94.5 51 94.5H90C92.481 94.5 94.5 92.481 94.5 90V61.5C94.5 59.019 92.481 57 90 57ZM91.5 90C91.5 90.8265 90.828 91.5 90 91.5H51C50.172 91.5 49.5 90.8265 49.5 90V61.5C49.5 60.6735 50.172 60 51 60H90C90.828 60 91.5 60.6735 91.5 61.5V90Z" fill="white"/>
<path d="M85.5046 84H82.5046C82.5046 83.172 81.8341 82.5 81.0046 82.5C80.1751 82.5 79.5046 83.172 79.5046 84H55.5046C53.5186 84 53.5201 87 55.5046 87H79.5046C79.5046 87.828 80.1751 88.5 81.0046 88.5C81.8341 88.5 82.5046 87.828 82.5046 87H85.5046C87.4906 87 87.4891 84 85.5046 84Z" fill="#E6B400"/>
<path d="M49.5 46.5V10.5C49.5 8.019 47.481 6 45 6H6C3.519 6 1.5 8.019 1.5 10.5V46.5C1.5 48.981 3.519 51 6 51H45C47.481 51 49.5 48.981 49.5 46.5ZM46.5 46.5C46.5 47.3265 45.828 48 45 48H6C5.172 48 4.5 47.3265 4.5 46.5V10.5C4.5 9.6735 5.172 9 6 9H45C45.828 9 46.5 9.6735 46.5 10.5V46.5Z" fill="white"/>
<path d="M31.5 25.5C34.809 25.5 37.5 22.809 37.5 19.5C37.5 16.191 34.809 13.5 31.5 13.5C28.191 13.5 25.5 16.191 25.5 19.5C25.5 22.809 28.191 25.5 31.5 25.5ZM31.5 16.5C33.1545 16.5 34.5 17.8455 34.5 19.5C34.5 21.1545 33.1545 22.5 31.5 22.5C29.8455 22.5 28.5 21.1545 28.5 19.5C28.5 17.8455 29.8455 16.5 31.5 16.5Z" fill="#E6B400"/>
<path d="M37.0662 30.4399C36.4797 29.8534 35.5317 29.8534 34.9452 30.4399L30.0057 35.3794L20.5662 25.9399C19.9797 25.3534 19.0317 25.3534 18.4452 25.9399L7.94516 36.4399C6.54116 37.8439 8.66366 39.9634 10.0662 38.5609L19.5057 29.1214L28.9452 38.5609C29.5317 39.1474 30.4797 39.1474 31.0662 38.5609L36.0057 33.6214L40.9452 38.5609C42.3282 39.9439 44.4882 37.8604 43.0662 36.4399L37.0662 30.4399Z" fill="#E6B400"/>
<path d="M64.5046 12H79.5046C81.4906 12 81.4891 9 79.5046 9H64.5046C62.5186 9 62.5201 12 64.5046 12Z" fill="#E6B400"/>
<path d="M64.5046 25.5H85.5046C87.4906 25.5 87.4891 22.5 85.5046 22.5H64.5046C62.5186 22.5 62.5201 25.5 64.5046 25.5Z" fill="white"/>
<path d="M64.5046 39H85.5046C87.4906 39 87.4891 36 85.5046 36H64.5046C62.5186 36 62.5201 39 64.5046 39Z" fill="white"/>
<path d="M64.5046 45H72.0046C73.9906 45 73.9891 42 72.0046 42H64.5046C62.5186 42 62.5201 45 64.5046 45Z" fill="#E6B400"/>
<path d="M64.5046 19.5H67.5046C69.4906 19.5 69.4891 16.5 67.5046 16.5H64.5046C62.5186 16.5 62.5201 19.5 64.5046 19.5Z" fill="#E6B400"/>
<path d="M75.0046 19.5H85.5046C87.4906 19.5 87.4891 16.5 85.5046 16.5H75.0046C73.0186 16.5 73.0201 19.5 75.0046 19.5Z" fill="#E6B400"/>
<path d="M64.5046 33H75.0046C76.9906 33 76.9891 30 75.0046 30H64.5046C62.5186 30 62.5201 33 64.5046 33Z" fill="white"/>
<path d="M85.5046 30H82.5046C80.5186 30 80.5201 33 82.5046 33H85.5046C87.4906 33 87.4891 30 85.5046 30Z" fill="white"/>
<path d="M22.5 55.5C10.92 55.5 1.5 62.9025 1.5 72C1.5 75.7035 3.093 79.311 6 82.221V93C6 94.344 7.6245 94.9965 8.5605 94.0605L15.159 87.462C17.475 88.152 19.941 88.5 22.5 88.5C34.08 88.5 43.5 81.0975 43.5 72C43.5 62.9025 34.08 55.5 22.5 55.5ZM22.5 85.5C19.9365 85.5 17.4915 85.1085 15.2295 84.336C14.691 84.15 14.088 84.288 13.6845 84.6945L9 89.379V81.585C9 81.168 8.8275 80.7705 8.523 80.487C5.8905 78.039 4.5 75.1035 4.5 72C4.5 64.557 12.5745 58.5 22.5 58.5C32.4255 58.5 40.5 64.557 40.5 72C40.5 79.443 32.4255 85.5 22.5 85.5Z" fill="white"/>
<path d="M22.5 74.25C23.7426 74.25 24.75 73.2426 24.75 72C24.75 70.7574 23.7426 69.75 22.5 69.75C21.2574 69.75 20.25 70.7574 20.25 72C20.25 73.2426 21.2574 74.25 22.5 74.25Z" fill="#E6B400"/>
<path d="M33 74.25C34.2426 74.25 35.25 73.2426 35.25 72C35.25 70.7574 34.2426 69.75 33 69.75C31.7574 69.75 30.75 70.7574 30.75 72C30.75 73.2426 31.7574 74.25 33 74.25Z" fill="#E6B400"/>
<path d="M12 74.25C13.2426 74.25 14.25 73.2426 14.25 72C14.25 70.7574 13.2426 69.75 12 69.75C10.7574 69.75 9.75 70.7574 9.75 72C9.75 73.2426 10.7574 74.25 12 74.25Z" fill="#E6B400"/>
<path d="M67.893 80.5736L77.8635 74.8286C80.0355 73.5791 80.0355 70.4336 77.8635 69.1826L67.8945 63.4406C65.7285 62.1866 63 63.7601 63 66.2621V77.7491C63 80.2841 65.7525 81.8021 67.893 80.5736ZM66 66.2621C66 66.0686 66.219 65.9366 66.396 66.0401L76.3665 71.7836C76.5375 71.8826 76.5375 72.1301 76.3665 72.2291L66.3975 77.9726C66.2205 78.0716 66 77.9501 66 77.7506V66.2621Z" fill="#E6B400"/>
</svg>
