<svg width="96" height="96" viewBox="0 0 96 96" fill="none" xmlns="http://www.w3.org/2000/svg">
<path d="M87.6032 80.4277L76.0039 70.5403C74.0252 68.8569 71.2031 68.6935 69.0304 69.9647L68.9689 70.0007L68.9185 69.9503L64.8235 65.8553L64.7624 65.7942L64.8193 65.7292C68.2703 61.7852 70.3764 56.6465 70.3764 51C70.3764 48.7591 70.0478 46.5632 69.4055 44.4569L69.4034 44.4501L69.4036 44.45C69.263 43.8171 68.7003 43.3523 68.0237 43.3523C67.2503 43.3523 66.6161 43.9854 66.6161 44.775C66.6161 44.9127 66.6436 45.0531 66.687 45.1979C66.687 45.1981 66.6871 45.1983 66.6872 45.1985L66.5988 45.225L87.6032 80.4277ZM87.6032 80.4277H87.5578L87.7489 80.5903C89.0344 81.6837 89.8024 83.2644 89.8615 84.9333C89.9206 86.603 89.2851 88.2431 88.1035 89.4247L86.3785 91.1497C85.2559 92.2723 83.7194 92.9077 82.1237 92.9077H81.8858L87.6032 80.4277ZM87.091 85.0168L87.0909 85.0152C87.0447 84.121 86.6588 83.3018 85.9635 82.7146C85.9634 82.7146 85.9634 82.7145 85.9633 82.7145L74.1743 72.6653C74.1741 72.6652 74.174 72.6651 74.1738 72.6649C73.5857 72.1544 72.8439 71.9077 72.1037 71.9077C71.2857 71.9077 70.4668 72.2164 69.8485 72.8347C68.6744 74.0088 68.5972 75.9083 69.6785 77.1749L79.7282 88.9646C79.7283 88.9646 79.7283 88.9647 79.7283 88.9647C80.3148 89.6592 81.1341 90.0613 82.0306 90.0923C82.9413 90.1231 83.791 89.7833 84.424 89.1503L86.149 87.4253L86.164 87.4103L86.1648 87.4095C86.7975 86.7613 87.1219 85.9118 87.091 85.0168Z" fill="#E6B400" stroke="#252525" stroke-width="0.184615"/>
<mask id="path-2-inside-1_1760_90074" fill="white">
<path fill-rule="evenodd" clip-rule="evenodd" d="M62.46 81H10.5C6.36 81 3 77.64 3 73.5V13.5V10.5C3 6.36 6.36 3 10.5 3H85.5C89.64 3 93 6.36 93 10.5V13.5V73.5C93 75 92.565 76.44 91.725 77.685C91.26 78.375 90.33 78.555 89.64 78.09C88.95 77.625 88.77 76.695 89.235 76.005C89.73 75.255 90 74.385 90 73.5V15H6V73.5C6 75.975 8.025 78 10.5 78H62.46C63.285 78 63.96 78.675 63.96 79.5C63.96 80.325 63.285 81 62.46 81ZM6 12H66V6H10.5C8.025 6 6 8.025 6 10.5V12ZM69 6V12H90V10.5C90 8.025 87.975 6 85.5 6H69ZM77.9888 24H68.9888C68.1637 24 67.4888 24.675 67.4888 25.5C67.4888 26.325 68.1637 27 68.9888 27H74.5088L52.4588 50.355L46.0537 43.95C45.4688 43.365 44.5238 43.365 43.9388 43.95L34.9387 52.95C34.3538 53.535 34.3538 54.48 34.9387 55.065C35.2388 55.365 35.6138 55.5 36.0037 55.5C36.3938 55.5 36.7687 55.35 37.0687 55.065L45.0038 47.13L51.4388 53.565C51.7238 53.85 52.1288 53.985 52.5188 54C52.9238 54 53.3138 53.82 53.5838 53.535L76.4888 29.28V34.515C76.4888 35.34 77.1638 36.015 77.9888 36.015C78.8138 36.015 79.4888 35.34 79.4888 34.515V25.515C79.4888 24.69 78.8138 24.015 77.9888 24.015V24Z"/>
</mask>
<path fill-rule="evenodd" clip-rule="evenodd" d="M62.46 81H10.5C6.36 81 3 77.64 3 73.5V13.5V10.5C3 6.36 6.36 3 10.5 3H85.5C89.64 3 93 6.36 93 10.5V13.5V73.5C93 75 92.565 76.44 91.725 77.685C91.26 78.375 90.33 78.555 89.64 78.09C88.95 77.625 88.77 76.695 89.235 76.005C89.73 75.255 90 74.385 90 73.5V15H6V73.5C6 75.975 8.025 78 10.5 78H62.46C63.285 78 63.96 78.675 63.96 79.5C63.96 80.325 63.285 81 62.46 81ZM6 12H66V6H10.5C8.025 6 6 8.025 6 10.5V12ZM69 6V12H90V10.5C90 8.025 87.975 6 85.5 6H69ZM77.9888 24H68.9888C68.1637 24 67.4888 24.675 67.4888 25.5C67.4888 26.325 68.1637 27 68.9888 27H74.5088L52.4588 50.355L46.0537 43.95C45.4688 43.365 44.5238 43.365 43.9388 43.95L34.9387 52.95C34.3538 53.535 34.3538 54.48 34.9387 55.065C35.2388 55.365 35.6138 55.5 36.0037 55.5C36.3938 55.5 36.7687 55.35 37.0687 55.065L45.0038 47.13L51.4388 53.565C51.7238 53.85 52.1288 53.985 52.5188 54C52.9238 54 53.3138 53.82 53.5838 53.535L76.4888 29.28V34.515C76.4888 35.34 77.1638 36.015 77.9888 36.015C78.8138 36.015 79.4888 35.34 79.4888 34.515V25.515C79.4888 24.69 78.8138 24.015 77.9888 24.015V24Z" fill="white"/>
<path d="M91.725 77.685L91.572 77.5817L91.5719 77.5818L91.725 77.685ZM89.64 78.09L89.5368 78.2431V78.2431L89.64 78.09ZM89.235 76.005L89.3881 76.1082L89.3891 76.1067L89.235 76.005ZM90 15H90.1846V14.8154H90V15ZM6 15V14.8154H5.81538V15H6ZM66 12V12.1846H66.1846V12H66ZM6 12H5.81538V12.1846H6V12ZM66 6H66.1846V5.81538H66V6ZM69 12H68.8154V12.1846H69V12ZM69 6V5.81538H68.8154V6H69ZM90 12V12.1846H90.1846V12H90ZM77.9888 24H78.1734V23.8154H77.9888V24ZM74.5088 27L74.643 27.1267L74.9369 26.8154H74.5088V27ZM52.4588 50.355L52.3282 50.4855L52.4626 50.6199L52.593 50.4817L52.4588 50.355ZM43.9388 43.95L44.0693 44.0805L43.9388 43.95ZM34.9387 52.95L34.8082 52.8195L34.9387 52.95ZM34.9387 55.065L34.8082 55.1955L34.9387 55.065ZM37.0687 55.065L37.1959 55.1989L37.1993 55.1955L37.0687 55.065ZM45.0038 47.13L45.1343 46.9995L45.0038 46.8689L44.8732 46.9995L45.0038 47.13ZM52.5188 54L52.5117 54.1846H52.5188V54ZM53.5838 53.535L53.7178 53.662L53.718 53.6618L53.5838 53.535ZM76.4888 29.28H76.6734V28.8156L76.3545 29.1532L76.4888 29.28ZM77.9888 24.015H77.8041V24.1996H77.9888V24.015ZM10.5 81.1846H62.46V80.8154H10.5V81.1846ZM2.81538 73.5C2.81538 77.742 6.25804 81.1846 10.5 81.1846V80.8154C6.46196 80.8154 3.18462 77.538 3.18462 73.5H2.81538ZM2.81538 13.5V73.5H3.18462V13.5H2.81538ZM2.81538 10.5V13.5H3.18462V10.5H2.81538ZM10.5 2.81538C6.25804 2.81538 2.81538 6.25804 2.81538 10.5H3.18462C3.18462 6.46196 6.46196 3.18462 10.5 3.18462V2.81538ZM85.5 2.81538H10.5V3.18462H85.5V2.81538ZM93.1846 10.5C93.1846 6.25804 89.742 2.81538 85.5 2.81538V3.18462C89.538 3.18462 92.8154 6.46196 92.8154 10.5H93.1846ZM93.1846 13.5V10.5H92.8154V13.5H93.1846ZM93.1846 73.5V13.5H92.8154V73.5H93.1846ZM91.878 77.7883C92.7389 76.5124 93.1846 75.0364 93.1846 73.5H92.8154C92.8154 74.9636 92.3911 76.3676 91.572 77.5817L91.878 77.7883ZM89.5368 78.2431C90.3112 78.7649 91.356 78.5629 91.8781 77.7882L91.5719 77.5818C91.164 78.1871 90.3488 78.3451 89.7432 77.9369L89.5368 78.2431ZM89.0819 75.9018C88.5601 76.6762 88.7621 77.721 89.5368 78.2431L89.7432 77.9369C89.1379 77.529 88.9799 76.7138 89.3881 76.1082L89.0819 75.9018ZM89.8154 73.5C89.8154 74.3474 89.5568 75.1822 89.0809 75.9033L89.3891 76.1067C89.9032 75.3278 90.1846 74.4227 90.1846 73.5H89.8154ZM89.8154 15V73.5H90.1846V15H89.8154ZM6 15.1846H90V14.8154H6V15.1846ZM6.18462 73.5V15H5.81538V73.5H6.18462ZM10.5 77.8154C8.12696 77.8154 6.18462 75.873 6.18462 73.5H5.81538C5.81538 76.077 7.92304 78.1846 10.5 78.1846V77.8154ZM62.46 77.8154H10.5V78.1846H62.46V77.8154ZM64.1446 79.5C64.1446 78.573 63.387 77.8154 62.46 77.8154V78.1846C63.183 78.1846 63.7754 78.777 63.7754 79.5H64.1446ZM62.46 81.1846C63.387 81.1846 64.1446 80.427 64.1446 79.5H63.7754C63.7754 80.223 63.183 80.8154 62.46 80.8154V81.1846ZM66 11.8154H6V12.1846H66V11.8154ZM65.8154 6V12H66.1846V6H65.8154ZM10.5 6.18462H66V5.81538H10.5V6.18462ZM6.18462 10.5C6.18462 8.12696 8.12696 6.18462 10.5 6.18462V5.81538C7.92304 5.81538 5.81538 7.92304 5.81538 10.5H6.18462ZM6.18462 12V10.5H5.81538V12H6.18462ZM69.1846 12V6H68.8154V12H69.1846ZM90 11.8154H69V12.1846H90V11.8154ZM89.8154 10.5V12H90.1846V10.5H89.8154ZM85.5 6.18462C87.873 6.18462 89.8154 8.12696 89.8154 10.5H90.1846C90.1846 7.92304 88.077 5.81538 85.5 5.81538V6.18462ZM69 6.18462H85.5V5.81538H69V6.18462ZM68.9888 24.1846H77.9888V23.8154H68.9888V24.1846ZM67.6734 25.5C67.6734 24.777 68.2657 24.1846 68.9888 24.1846V23.8154C68.0618 23.8154 67.3041 24.573 67.3041 25.5H67.6734ZM68.9888 26.8154C68.2657 26.8154 67.6734 26.223 67.6734 25.5H67.3041C67.3041 26.427 68.0618 27.1846 68.9888 27.1846V26.8154ZM74.5088 26.8154H68.9888V27.1846H74.5088V26.8154ZM52.593 50.4817L74.643 27.1267L74.3745 26.8733L52.3245 50.2283L52.593 50.4817ZM45.9232 44.0805L52.3282 50.4855L52.5893 50.2245L46.1843 43.8195L45.9232 44.0805ZM44.0693 44.0805C44.5822 43.5676 45.4103 43.5676 45.9232 44.0805L46.1843 43.8195C45.5272 43.1624 44.4653 43.1624 43.8082 43.8195L44.0693 44.0805ZM35.0693 53.0805L44.0693 44.0805L43.8082 43.8195L34.8082 52.8195L35.0693 53.0805ZM35.0693 54.9345C34.5564 54.4216 34.5564 53.5934 35.0693 53.0805L34.8082 52.8195C34.1511 53.4766 34.1511 54.5384 34.8082 55.1955L35.0693 54.9345ZM36.0037 55.3154C35.6584 55.3154 35.3318 55.1969 35.0693 54.9345L34.8082 55.1955C35.1457 55.5331 35.5691 55.6846 36.0037 55.6846V55.3154ZM36.9416 54.9312C36.6747 55.1847 36.3448 55.3154 36.0037 55.3154V55.6846C36.4427 55.6846 36.8628 55.5153 37.1959 55.1988L36.9416 54.9312ZM44.8732 46.9995L36.9382 54.9345L37.1993 55.1955L45.1343 47.2605L44.8732 46.9995ZM51.5693 53.4345L45.1343 46.9995L44.8732 47.2605L51.3082 53.6955L51.5693 53.4345ZM52.5258 53.8155C52.1696 53.8018 51.8134 53.6786 51.5693 53.4345L51.3082 53.6955C51.6341 54.0214 52.0879 54.1682 52.5117 54.1845L52.5258 53.8155ZM53.4497 53.408C53.2125 53.6584 52.8701 53.8154 52.5188 53.8154V54.1846C52.9774 54.1846 53.415 53.9816 53.7178 53.662L53.4497 53.408ZM76.3545 29.1532L53.4495 53.4082L53.718 53.6618L76.623 29.4068L76.3545 29.1532ZM76.6734 34.515V29.28H76.3041V34.515H76.6734ZM77.9888 35.8304C77.2657 35.8304 76.6734 35.238 76.6734 34.515H76.3041C76.3041 35.442 77.0618 36.1996 77.9888 36.1996V35.8304ZM79.3041 34.515C79.3041 35.238 78.7118 35.8304 77.9888 35.8304V36.1996C78.9157 36.1996 79.6734 35.442 79.6734 34.515H79.3041ZM79.3041 25.515V34.515H79.6734V25.515H79.3041ZM77.9888 24.1996C78.7118 24.1996 79.3041 24.792 79.3041 25.515H79.6734C79.6734 24.588 78.9157 23.8304 77.9888 23.8304V24.1996ZM77.8041 24V24.015H78.1734V24H77.8041Z" fill="#252525" mask="url(#path-2-inside-1_1760_90074)"/>
</svg>
