<svg width="60" height="60" viewBox="0 0 60 60" fill="none" xmlns="http://www.w3.org/2000/svg">
<path d="M19.7438 9.375C19.7438 8.98678 19.4289 8.67188 19.0407 8.67188H13.125C10.6696 8.67188 8.67188 10.6696 8.67188 13.125V31.5188C8.67188 31.9071 8.98678 32.222 9.375 32.222C9.76322 32.222 10.0781 31.9071 10.0781 31.5188V13.125C10.0781 11.445 11.445 10.0781 13.125 10.0781H19.0407C19.4289 10.0781 19.7438 9.76322 19.7438 9.375Z" fill="white"/>
<path d="M45 38.3908C44.6118 38.3908 44.2969 38.7057 44.2969 39.0939V52.5C44.2969 54.18 42.93 55.5469 41.25 55.5469H13.125C11.445 55.5469 10.0781 54.18 10.0781 52.5V35.5032C10.0781 35.115 9.76322 34.8001 9.375 34.8001C8.98678 34.8001 8.67188 35.115 8.67188 35.5032V49.9219H7.5C5.82 49.9219 4.45312 48.555 4.45312 46.875V7.5C4.45312 5.82 5.82 4.45312 7.5 4.45312H24.0188C24.4071 4.45312 24.722 4.13822 24.722 3.75C24.722 3.36178 24.4071 3.04688 24.0188 3.04688H7.5C5.04459 3.04688 3.04688 5.04459 3.04688 7.5V46.875C3.04688 49.3304 5.04459 51.3281 7.5 51.3281H8.67188V52.5C8.67188 54.9554 10.6696 56.9531 13.125 56.9531H41.25C43.7054 56.9531 45.7031 54.9554 45.7031 52.5V39.0939C45.7031 38.7057 45.3882 38.3908 45 38.3908Z" fill="white"/>
<path d="M15.9375 51.3281H19.6875C20.592 51.3281 21.3281 50.592 21.3281 49.6875V43.125C21.3281 42.2205 20.592 41.4844 19.6875 41.4844H15.9375C15.033 41.4844 14.2969 42.2205 14.2969 43.125V49.6875C14.2969 50.592 15.033 51.3281 15.9375 51.3281ZM15.7031 43.125C15.7031 42.9959 15.8084 42.8906 15.9375 42.8906H19.6875C19.8166 42.8906 19.9219 42.9959 19.9219 43.125V49.6875C19.9219 49.8166 19.8166 49.9219 19.6875 49.9219H15.9375C15.8084 49.9219 15.7031 49.8166 15.7031 49.6875V43.125Z" fill="white"/>
<path d="M23.6719 37.0312V49.6875C23.6719 50.592 24.408 51.3281 25.3125 51.3281H29.0625C29.967 51.3281 30.7031 50.592 30.7031 49.6875V37.0312C30.7031 36.1267 29.967 35.3906 29.0625 35.3906H25.3125C24.408 35.3906 23.6719 36.1267 23.6719 37.0312ZM25.0781 37.0312C25.0781 36.9022 25.1834 36.7969 25.3125 36.7969H29.0625C29.1916 36.7969 29.2969 36.9022 29.2969 37.0312V49.6875C29.2969 49.8166 29.1916 49.9219 29.0625 49.9219H25.3125C25.1834 49.9219 25.0781 49.8166 25.0781 49.6875V37.0312Z" fill="white"/>
<path d="M34.6875 51.3346H38.4375C39.342 51.3346 40.0781 50.5984 40.0781 49.6939V37.0469C40.0781 36.6587 39.7632 36.3438 39.375 36.3438C38.9868 36.3438 38.6719 36.6587 38.6719 37.0469V49.6939C38.6719 49.8212 38.5647 49.9283 38.4375 49.9283H34.6875C34.5603 49.9283 34.4531 49.8212 34.4531 49.6939V37.441C34.4531 37.0528 34.1382 36.7379 33.75 36.7379C33.3618 36.7379 33.0469 37.0528 33.0469 37.441V49.6939C33.0469 50.5984 33.783 51.3346 34.6875 51.3346Z" fill="white"/>
<path d="M46.5251 9.54914C46.3297 9.54914 46.1361 9.46861 45.9968 9.31064C45.6828 8.95354 45.3455 8.60704 44.9939 8.2807C44.7097 8.01661 44.6932 7.57167 44.9577 7.28686C45.2218 7.00214 45.6667 6.98657 45.9516 7.25067C46.337 7.60907 46.7077 7.98951 47.0525 8.38139C47.3092 8.67295 47.2809 9.11751 46.9893 9.37382C46.8556 9.49148 46.6899 9.54914 46.5251 9.54914Z" fill="#E6B400"/>
<path d="M55.6461 32.8312L49.0556 26.2473C50.2722 24.018 50.9649 21.4635 50.9649 18.75C50.9649 15.8697 50.1785 13.0531 48.6903 10.605C48.488 10.2727 48.0549 10.1692 47.7239 10.3692C47.392 10.5711 47.2868 11.0037 47.4881 11.3356C48.8426 13.5636 49.5586 16.1274 49.5586 18.75C49.5586 26.6332 43.1449 33.0469 35.2617 33.0469C27.3786 33.0469 20.9648 26.6332 20.9648 18.75C20.9648 10.8668 27.3786 4.45312 35.2617 4.45312C37.8962 4.45312 40.4702 5.17547 42.7063 6.54187C43.0372 6.74325 43.4703 6.63984 43.6731 6.30844C43.8754 5.97703 43.771 5.54447 43.4396 5.34169C40.9828 3.84066 38.1548 3.04688 35.2617 3.04688C26.6032 3.04688 19.5586 10.0914 19.5586 18.75C19.5586 27.4086 26.6032 34.4531 35.2617 34.4531C37.9753 34.4531 40.5299 33.7603 42.7593 32.5436L49.348 39.1319C50.1894 39.9733 51.3077 40.437 52.4975 40.437C53.6872 40.437 54.8055 39.9733 55.6469 39.1319C56.4887 38.2905 56.952 37.1718 56.9515 35.9815C56.9515 34.7914 56.4879 33.6727 55.6461 32.8312ZM54.6527 38.1377C53.501 39.2894 51.4942 39.2894 50.3423 38.1377L43.9959 31.7917C45.696 30.6494 47.161 29.1844 48.3033 27.4843L54.6517 33.826C55.228 34.4019 55.5453 35.1678 55.5453 35.9816C55.5457 36.796 55.2285 37.5618 54.6527 38.1377Z" fill="#E6B400"/>
<path d="M35.2617 6.79688C28.6708 6.79688 23.3086 12.1591 23.3086 18.75C23.3086 25.3409 28.6708 30.7031 35.2617 30.7031C41.8526 30.7031 47.2148 25.3409 47.2148 18.75C47.2148 12.1591 41.8526 6.79688 35.2617 6.79688ZM35.2617 29.2969C29.4463 29.2969 24.7148 24.5654 24.7148 18.75C24.7148 12.9346 29.4463 8.20312 35.2617 8.20312C41.0771 8.20312 45.8086 12.9346 45.8086 18.75C45.8086 24.5654 41.0771 29.2969 35.2617 29.2969Z" fill="#E6B400"/>
</svg>
