<svg width="60" height="60" viewBox="0 0 60 60" fill="none" xmlns="http://www.w3.org/2000/svg">
<path fill-rule="evenodd" clip-rule="evenodd" d="M14.9125 58.7109C14.6371 58.7109 14.3605 58.6734 14.0922 58.5996C13.3164 58.3828 12.6801 57.8812 12.2992 57.1875L6.71875 47.0227L7.74531 46.459L13.3258 56.6238C13.5543 57.0387 13.9375 57.3387 14.4074 57.4711C14.8926 57.607 15.4188 57.5414 15.8512 57.2918C16.7172 56.7914 17.0184 55.6512 16.5238 54.7488L11.5715 45.7277L12.598 45.1641L17.5504 54.184C18.3496 55.6406 17.8504 57.4898 16.4371 58.3055C15.9742 58.5738 15.4445 58.7109 14.9125 58.7109Z" fill="white"/>
<path fill-rule="evenodd" clip-rule="evenodd" d="M31.9512 47.6664C29.5687 45.9461 24.1933 43.3586 14.9695 45.3473C13.1812 45.7328 12.0351 46.0668 10.7086 46.4535C9.95155 46.6738 9.16874 46.9023 8.17264 47.1695C7.70038 47.2961 7.22811 47.3559 6.76522 47.3559C4.34999 47.3559 2.17499 45.7094 1.49295 43.1664C1.10038 41.7016 1.2785 40.191 1.99452 38.9148C2.70702 37.6434 3.87303 36.7363 5.27577 36.3602C6.27069 36.093 7.06288 35.8996 7.82811 35.7121C9.17108 35.384 10.3312 35.1004 12.0738 34.5391C21.0562 31.6492 24.4172 26.7203 25.6207 24.0391L26.6894 24.5195C25.4062 27.3777 21.8472 32.6254 12.4324 35.6547C10.65 36.2289 9.47108 36.5172 8.10702 36.8512C7.34764 37.0363 6.56249 37.2285 5.57928 37.4922C4.48358 37.7852 3.5742 38.4941 3.01639 39.4879C2.45038 40.4969 2.31092 41.6957 2.62381 42.8629C3.266 45.2594 5.56991 46.6527 7.86795 46.0375C8.85116 45.7738 9.62811 45.5477 10.3793 45.3285C11.7281 44.9348 12.8918 44.5961 14.7211 44.2012C24.389 42.1164 30.0949 44.882 32.6355 46.716L31.9512 47.6664Z" fill="white"/>
<path fill-rule="evenodd" clip-rule="evenodd" d="M34.0227 38.4969L33.4273 37.4867L35.8906 36.0359C36.2059 35.8508 36.3488 35.5016 36.2539 35.1477L35.6059 32.7301C35.5109 32.3762 35.2133 32.1453 34.8465 32.143L31.9883 32.1172L31.9988 30.9453L34.8582 30.9711C35.7512 30.9793 36.507 31.5641 36.7379 32.4277L37.3859 34.8453C37.6168 35.7078 37.2559 36.5926 36.4859 37.0461L34.0227 38.4969Z" fill="white"/>
<path fill-rule="evenodd" clip-rule="evenodd" d="M27.5373 20.8908C27.426 20.8908 27.3135 20.906 27.2033 20.9353C26.8705 21.0244 26.5916 21.24 26.4181 21.5412C26.2447 21.8424 26.1978 22.1904 26.2869 22.5244L33.2865 48.6455C33.3756 48.9783 33.5912 49.2572 33.8924 49.4306C34.1935 49.6053 34.5428 49.651 34.8756 49.5619C35.5658 49.3767 35.9771 48.6642 35.792 47.974L28.7924 21.8529C28.7033 21.5201 28.4877 21.2412 28.1865 21.0678C27.9849 20.9506 27.7623 20.8908 27.5373 20.8908ZM34.5381 50.7771C34.1103 50.7771 33.6873 50.6646 33.3053 50.4443C32.7334 50.1138 32.3244 49.5818 32.1545 48.9478L25.1549 22.8267C24.9849 22.1916 25.0728 21.5271 25.4033 20.9541C25.7338 20.3822 26.2658 19.9732 26.8998 19.8033C27.5349 19.6334 28.1994 19.7213 28.7713 20.0517C29.3431 20.3822 29.7521 20.9142 29.922 21.5494L36.9217 47.6705C37.2744 48.9853 36.4904 50.3412 35.1767 50.6939C34.9658 50.749 34.7513 50.7771 34.5381 50.7771Z" fill="white"/>
<path fill-rule="evenodd" clip-rule="evenodd" d="M37.0613 28.075C36.9617 28.075 36.861 28.0492 36.7695 27.9965C36.4895 27.8348 36.3934 27.4774 36.5551 27.1961L39.1555 22.6914C39.3172 22.4113 39.6758 22.3152 39.9559 22.477C40.236 22.6387 40.332 22.9973 40.1703 23.2774L37.5699 27.782C37.4609 27.9707 37.2641 28.075 37.0613 28.075ZM40.9766 33.1762C40.7176 33.1762 40.4809 33.0027 40.4106 32.7414C40.3274 32.4285 40.5125 32.1074 40.8254 32.0242L45.8492 30.6789C46.1609 30.5957 46.4832 30.7809 46.5664 31.0926C46.6496 31.4055 46.4645 31.7266 46.1527 31.811L41.1289 33.1563C41.0774 33.1703 41.0258 33.1762 40.9766 33.1762ZM44.641 42.1516C44.5414 42.1516 44.4406 42.127 44.3481 42.0731L39.8445 39.4727C39.5645 39.311 39.4684 38.9524 39.6301 38.6723C39.7918 38.3922 40.1504 38.2961 40.4305 38.4578L44.9352 41.0582C45.2152 41.2199 45.3113 41.5785 45.1496 41.8586C45.0406 42.0473 44.8438 42.1516 44.641 42.1516Z" fill="white"/>
<path fill-rule="evenodd" clip-rule="evenodd" d="M10.1875 35.6484L11.3195 35.3449L13.9143 45.0227L12.7823 45.3262L10.1875 35.6484Z" fill="white"/>
<path fill-rule="evenodd" clip-rule="evenodd" d="M44.4691 46.2254C42.8168 46.2254 41.4738 47.7102 41.4738 49.5348C41.4738 51.3008 44.5723 54.4191 46.4227 56.2824C46.8867 56.75 47.2875 57.1531 47.5957 57.4871C47.6613 57.5586 47.7527 57.5586 47.8184 57.4871C48.1266 57.1531 48.5273 56.75 48.9914 56.2824C50.8418 54.4191 53.9402 51.302 53.9402 49.5348C53.9402 47.7102 52.5961 46.2254 50.9438 46.2254C49.8 46.2254 48.7406 46.9613 48.2426 48.1016C48.15 48.3148 47.9391 48.4531 47.7059 48.4531C47.4727 48.4531 47.2617 48.3148 47.1691 48.1016C46.6723 46.9625 45.6117 46.2254 44.4691 46.2254ZM47.7059 58.7129C47.3355 58.7129 46.991 58.5594 46.7344 58.2816C46.4402 57.9641 46.0465 57.568 45.5906 57.1086C42.8027 54.3031 40.3008 51.6125 40.3008 49.5348C40.3008 47.0645 42.1699 45.0547 44.468 45.0547C45.7359 45.0547 46.9242 45.6828 47.7059 46.7152C48.4875 45.6828 49.6758 45.0547 50.9438 45.0547C53.2418 45.0547 55.1109 47.0645 55.1109 49.5348C55.1109 51.6113 52.609 54.302 49.8211 57.1086C49.3652 57.568 48.9715 57.9641 48.6773 58.2816C48.4219 58.5594 48.0762 58.7129 47.7059 58.7129Z" fill="#E6B400"/>
<path fill-rule="evenodd" clip-rule="evenodd" d="M10.0977 13.339C10.0602 13.339 10.0297 13.3519 10.0098 13.3636C9.97695 13.3824 9.92305 13.4281 9.92305 13.5171V17.5589C9.92305 17.648 9.97812 17.6937 10.0098 17.7125C10.0426 17.7312 10.1094 17.7558 10.1867 17.7113L13.6859 15.691C13.7633 15.6464 13.775 15.5761 13.775 15.5386C13.775 15.5011 13.7633 15.4308 13.6859 15.3863L10.1867 13.366C10.1539 13.3449 10.1246 13.339 10.0977 13.339ZM10.0965 18.9078C9.86562 18.9078 9.63477 18.8468 9.42383 18.725C9.00195 18.4812 8.75 18.0453 8.75 17.5566V13.5148C8.75 13.0273 9.00195 12.5902 9.42266 12.3464C9.84453 12.1027 10.3484 12.1039 10.7715 12.3464L14.2707 14.3679C14.6937 14.6117 14.9457 15.0476 14.9457 15.5351C14.9457 16.0226 14.6937 16.4585 14.2707 16.7023L10.7715 18.7226C10.5605 18.8468 10.3285 18.9078 10.0965 18.9078Z" fill="#E6B400"/>
<path fill-rule="evenodd" clip-rule="evenodd" d="M4.05117 9.49102C3.17344 9.49102 2.45977 10.2047 2.45977 11.0824V19.9992C2.45977 20.8758 3.17344 21.5895 4.05 21.5895H18.2238C19.1004 21.5895 19.8141 20.8758 19.8141 19.9992V11.0824C19.8141 10.2047 19.1004 9.49102 18.2238 9.49102H4.05117ZM18.225 22.7613H4.05117C2.52773 22.7613 1.28906 21.5215 1.28906 19.998V11.0824C1.28906 9.55898 2.52891 8.32031 4.05117 8.32031H18.225C19.7484 8.32031 20.9871 9.56016 20.9871 11.0824V19.9992C20.9871 21.5227 19.7473 22.7613 18.225 22.7613Z" fill="#E6B400"/>
<path fill-rule="evenodd" clip-rule="evenodd" d="M53.3645 9.00781H40.7199C40.3965 9.00781 40.134 8.74531 40.134 8.42188C40.134 8.09727 40.3965 7.83594 40.7199 7.83594H53.3656C53.6891 7.83594 53.9516 8.09844 53.9516 8.42188C53.9504 8.74648 53.6879 9.00781 53.3645 9.00781ZM40.7187 12.4062C40.3965 12.4062 40.134 12.1461 40.1328 11.8227C40.1328 11.8227 40.1328 11.8215 40.1328 11.8203C40.1328 11.498 40.3941 11.2355 40.7164 11.2344L49.0613 11.2063H49.0637C49.3859 11.2063 49.6484 11.4676 49.6496 11.791V11.7922C49.6496 12.1156 49.3883 12.377 49.066 12.3781L40.7211 12.4062C40.7211 12.4062 40.7199 12.4062 40.7187 12.4062Z" fill="white"/>
<path fill-rule="evenodd" clip-rule="evenodd" d="M46.534 2.46094C40.4672 2.46094 35.5301 5.89688 35.5301 10.1191C35.5301 11.8652 36.3609 13.5129 37.9348 14.8852C38.1281 15.0527 38.1891 15.3281 38.0859 15.5625L36.7055 18.702L39.8133 16.5199C39.9855 16.3992 40.2094 16.3805 40.3992 16.4695C42.2168 17.3238 44.3379 17.7762 46.534 17.7762C52.6008 17.7762 57.5379 14.3402 57.5379 10.118C57.5379 5.89687 52.602 2.46094 46.534 2.46094ZM36.041 20.407C35.8418 20.407 35.6426 20.3391 35.4773 20.2031C35.1645 19.9477 35.0637 19.527 35.2266 19.1578L36.8449 15.477C35.2383 13.9477 34.3594 12.0598 34.3594 10.1191C34.3594 7.72266 35.652 5.48203 38.0004 3.81211C40.2879 2.18437 43.3184 1.28906 46.5352 1.28906C49.7508 1.28906 52.7824 2.18437 55.0699 3.81211C57.4172 5.48203 58.7098 7.72266 58.7098 10.1191C58.7098 12.5156 57.4172 14.7551 55.0688 16.4262C52.7812 18.0527 49.7508 18.9492 46.534 18.9492C44.291 18.9492 42.1137 18.5086 40.2129 17.6719L36.552 20.243C36.3961 20.3531 36.218 20.407 36.041 20.407Z" fill="white"/>
</svg>
