<svg width="60" height="60" viewBox="0 0 60 60" fill="none" xmlns="http://www.w3.org/2000/svg">
<path d="M38.5078 29.9922H37.3359V12.3203C37.3359 11.9969 37.5984 11.7344 37.9219 11.7344H42.8449V12.9062H38.5078V29.9922Z" fill="#E6B400"/>
<path d="M22.6652 29.9922H21.4934V12.9062H17.1562V11.7344H22.0793C22.4027 11.7344 22.6652 11.9969 22.6652 12.3203V29.9922Z" fill="#E6B400"/>
<path d="M30 6.5625C28.5457 6.5625 27.3633 5.38008 27.3633 3.92578C27.3633 2.47148 28.5457 1.28906 30 1.28906C31.4543 1.28906 32.6367 2.47148 32.6367 3.92578C32.6367 5.38008 31.4543 6.5625 30 6.5625ZM30 2.46094C29.1926 2.46094 28.5352 3.11836 28.5352 3.92578C28.5352 4.7332 29.1926 5.39062 30 5.39062C30.8074 5.39062 31.4648 4.7332 31.4648 3.92578C31.4648 3.11836 30.8074 2.46094 30 2.46094Z" fill="#E6B400"/>
<path d="M29.4141 5.97656H30.5859V30H29.4141V5.97656Z" fill="#E6B400"/>
<path d="M11.4855 29.9922H10.3137V22.2812H5.97656V21.1094H10.8996C11.223 21.1094 11.4855 21.3719 11.4855 21.6953V29.9922Z" fill="#E6B400"/>
<path d="M3.92578 24.3359C2.47148 24.3359 1.28906 23.1535 1.28906 21.6992C1.28906 20.2449 2.47148 19.0625 3.92578 19.0625C5.38008 19.0625 6.5625 20.2449 6.5625 21.6992C6.5625 23.1535 5.38008 24.3359 3.92578 24.3359ZM3.92578 20.2344C3.11836 20.2344 2.46094 20.8918 2.46094 21.6992C2.46094 22.5066 3.11836 23.1641 3.92578 23.1641C4.7332 23.1641 5.39062 22.5066 5.39062 21.6992C5.39062 20.8918 4.7332 20.2344 3.92578 20.2344Z" fill="#E6B400"/>
<path d="M49.6875 29.9922H48.5156V21.6953C48.5156 21.3719 48.7781 21.1094 49.1016 21.1094H54.0246V22.2812H49.6875V29.9922Z" fill="#E6B400"/>
<path d="M56.0742 24.3359C54.6199 24.3359 53.4375 23.1535 53.4375 21.6992C53.4375 20.2449 54.6199 19.0625 56.0742 19.0625C57.5285 19.0625 58.7109 20.2449 58.7109 21.6992C58.7109 23.1535 57.5285 24.3359 56.0742 24.3359ZM56.0742 20.2344C55.2668 20.2344 54.6094 20.8918 54.6094 21.6992C54.6094 22.5066 55.2668 23.1641 56.0742 23.1641C56.8816 23.1641 57.5391 22.5066 57.5391 21.6992C57.5391 20.8918 56.8816 20.2344 56.0742 20.2344Z" fill="#E6B400"/>
<path d="M30.0038 58.709C29.0054 58.709 28.0069 58.6574 27.0155 58.5543C25.2647 58.3727 23.9288 57.0215 23.7659 55.2695L23.3886 51.2031C23.3124 50.3828 22.8144 49.7078 22.055 49.3973C21.2968 49.0867 20.4671 49.218 19.8378 49.7488L16.7159 52.3809C15.3706 53.5152 13.471 53.541 12.0952 52.443C10.478 51.1516 8.99678 49.682 7.69248 48.0766C6.58272 46.7102 6.59326 44.8094 7.71709 43.4559L10.3245 40.3141C10.8507 39.6801 10.9749 38.8504 10.6585 38.0945C10.3421 37.3387 9.6624 36.8453 8.84209 36.7762L4.77217 36.4305C3.01787 36.2816 1.65615 34.9551 1.46045 33.2055C1.36436 32.3465 1.30693 31.4711 1.28936 30.6027C1.28232 30.284 1.40186 29.984 1.62334 29.7578C1.84482 29.5316 2.14248 29.4062 2.46123 29.4062H15.7479C16.0714 29.4062 16.3339 29.6687 16.3339 29.9922C16.3339 37.5273 22.4651 43.6586 30.0003 43.6586C37.5354 43.6586 43.6667 37.5273 43.6667 29.9922C43.6667 29.6687 43.9292 29.4062 44.2526 29.4062H57.5394C57.8581 29.4062 58.1558 29.5305 58.3772 29.7578C58.5987 29.984 58.7171 30.2852 58.7112 30.6027C58.6948 31.3938 58.6444 32.193 58.5636 32.9781C58.3819 34.7289 57.0308 36.0648 55.2788 36.2277L51.2124 36.6051C50.3921 36.6813 49.7171 37.1793 49.4065 37.9387C49.096 38.6969 49.2272 39.5266 49.7581 40.1559L52.3901 43.2754C53.5245 44.6207 53.5503 46.5203 52.4522 47.8949C51.1608 49.5121 49.6925 50.9934 48.0858 52.2977C46.7194 53.4074 44.8186 53.3969 43.4651 52.273L40.3233 49.6656C39.6894 49.1395 38.8597 49.0152 38.1038 49.3316C37.3479 49.648 36.8546 50.3277 36.7854 51.148L36.4397 55.218C36.2909 56.9723 34.9644 58.334 33.2147 58.5297C32.1483 58.6492 31.0749 58.709 30.0038 58.709ZM21.2335 48.0637C21.6589 48.0637 22.0878 48.1457 22.4979 48.3133C23.6511 48.7855 24.4386 49.8508 24.5546 51.0953L24.9319 55.1617C25.0421 56.35 25.9491 57.2664 27.1362 57.3895C29.1085 57.5945 31.1101 57.5863 33.0835 57.3672C34.2706 57.2348 35.1706 56.3113 35.2714 55.1219L35.6171 51.052C35.7226 49.8074 36.5019 48.7352 37.6503 48.2535C38.7987 47.7719 40.1101 47.9688 41.071 48.7668L44.2128 51.3742C45.1315 52.1371 46.4194 52.1441 47.3464 51.3906C48.8874 50.1391 50.2972 48.7176 51.5358 47.166C52.28 46.2332 52.2636 44.9453 51.4936 44.0324L48.8616 40.9129C48.0565 39.9578 47.8491 38.6488 48.3214 37.4957C48.7936 36.3426 49.8589 35.5551 51.1034 35.4391L55.1698 35.0617C56.3581 34.9516 57.2745 34.0445 57.3976 32.8574C57.4761 32.1039 57.5241 31.3375 57.5394 30.5781H44.8269C44.5187 38.4895 37.9854 44.8305 30.0003 44.8305C22.0151 44.8305 15.4819 38.4895 15.1737 30.5781H2.46123C2.47881 31.4102 2.53389 32.2504 2.62529 33.0754C2.75772 34.2625 3.68115 35.1625 4.87061 35.2633L8.94053 35.609C10.1851 35.7145 11.2573 36.4938 11.739 37.6422C12.2206 38.7906 12.0237 40.102 11.2257 41.0629L8.61826 44.2047C7.85537 45.1234 7.84951 46.4125 8.60186 47.3383C9.85342 48.8793 11.2749 50.2891 12.8265 51.5277C13.7593 52.2719 15.0472 52.2543 15.9601 51.4855L19.0796 48.8535C19.696 48.3344 20.4601 48.0637 21.2335 48.0637Z" fill="white"/>
<path d="M29.9988 41.5926C23.6027 41.5926 18.3984 36.3883 18.3984 29.9922C18.3984 29.6687 18.6609 29.4062 18.9844 29.4062H41.0121C41.3355 29.4062 41.598 29.6687 41.598 29.9922C41.5992 36.3895 36.3949 41.5926 29.9988 41.5926ZM19.5867 30.5793C19.8914 36.0578 24.4453 40.4219 29.9988 40.4219C35.5523 40.4219 40.1063 36.0578 40.4109 30.5793H19.5867Z" fill="white"/>
<path d="M15.1055 14.9609C13.6512 14.9609 12.4688 13.7785 12.4688 12.3242C12.4688 10.8699 13.6512 9.6875 15.1055 9.6875C16.5598 9.6875 17.7422 10.8699 17.7422 12.3242C17.7422 13.7785 16.5586 14.9609 15.1055 14.9609ZM15.1055 10.8594C14.298 10.8594 13.6406 11.5168 13.6406 12.3242C13.6406 13.1316 14.298 13.7891 15.1055 13.7891C15.9129 13.7891 16.5703 13.1316 16.5703 12.3242C16.5703 11.5168 15.9129 10.8594 15.1055 10.8594Z" fill="#E6B400"/>
<path d="M44.8945 14.9609C43.4402 14.9609 42.2578 13.7785 42.2578 12.3242C42.2578 10.8699 43.4402 9.6875 44.8945 9.6875C46.3488 9.6875 47.5312 10.8699 47.5312 12.3242C47.5312 13.7785 46.3488 14.9609 44.8945 14.9609ZM44.8945 10.8594C44.0871 10.8594 43.4297 11.5168 43.4297 12.3242C43.4297 13.1316 44.0871 13.7891 44.8945 13.7891C45.702 13.7891 46.3594 13.1316 46.3594 12.3242C46.3594 11.5168 45.7031 10.8594 44.8945 10.8594Z" fill="#E6B400"/>
</svg>
