<svg width="60" height="60" viewBox="0 0 60 60" fill="none" xmlns="http://www.w3.org/2000/svg">
<path d="M54.6094 54.9773H5.39062C3.12891 54.9773 1.28906 53.1375 1.28906 50.8758V9.14062C1.28906 6.87891 3.12891 5.03906 5.39062 5.03906H54.6094C56.8711 5.03906 58.7109 6.87891 58.7109 9.14062V50.8769C58.7109 53.1375 56.8711 54.9773 54.6094 54.9773ZM5.39062 6.21094C3.77461 6.21094 2.46094 7.52461 2.46094 9.14062V50.8769C2.46094 52.493 3.77461 53.8066 5.39062 53.8066H54.6094C56.2254 53.8066 57.5391 52.493 57.5391 50.8769V9.14062C57.5391 7.52578 56.2254 6.21094 54.6094 6.21094H5.39062Z" fill="white"/>
<path d="M1.875 15.2422H58.125V16.4141H1.875V15.2422Z" fill="white"/>
<path d="M7.46094 12.8516C6.29141 12.8516 5.33984 11.9 5.33984 10.7305C5.33984 9.56094 6.29141 8.60938 7.46094 8.60938C8.63047 8.60938 9.58203 9.56094 9.58203 10.7305C9.58203 11.9 8.63047 12.8516 7.46094 12.8516ZM7.46094 9.78008C6.93711 9.78008 6.51172 10.2055 6.51172 10.7293C6.51172 11.2531 6.93711 11.6785 7.46094 11.6785C7.98477 11.6785 8.41016 11.2531 8.41016 10.7293C8.41016 10.2066 7.98359 9.78008 7.46094 9.78008Z" fill="white"/>
<path d="M14.2148 12.8516C13.0453 12.8516 12.0938 11.9 12.0938 10.7305C12.0938 9.56094 13.0453 8.60938 14.2148 8.60938C15.3844 8.60938 16.3359 9.56094 16.3359 10.7305C16.3359 11.9 15.3844 12.8516 14.2148 12.8516ZM14.2148 9.78008C13.691 9.78008 13.2656 10.2055 13.2656 10.7293C13.2656 11.2531 13.691 11.6785 14.2148 11.6785C14.7387 11.6785 15.1641 11.2531 15.1641 10.7293C15.1641 10.2066 14.7375 9.78008 14.2148 9.78008Z" fill="white"/>
<path d="M20.9688 12.8516C19.7992 12.8516 18.8477 11.9 18.8477 10.7305C18.8477 9.56094 19.7992 8.60938 20.9688 8.60938C22.1383 8.60938 23.0898 9.56094 23.0898 10.7305C23.0898 11.9 22.1383 12.8516 20.9688 12.8516ZM20.9688 9.78008C20.4449 9.78008 20.0195 10.2055 20.0195 10.7293C20.0195 11.2531 20.4449 11.6785 20.9688 11.6785C21.4926 11.6785 21.918 11.2531 21.918 10.7293C21.918 10.2066 21.4914 9.78008 20.9688 9.78008Z" fill="white"/>
<path d="M52.543 12.8516H39.0313C37.8617 12.8516 36.9102 11.9 36.9102 10.7305C36.9102 9.56094 37.8617 8.60938 39.0313 8.60938H52.543C53.7125 8.60938 54.6641 9.56094 54.6641 10.7305C54.6641 11.9 53.7125 12.8516 52.543 12.8516ZM39.0313 9.78008C38.5074 9.78008 38.082 10.2055 38.082 10.7293C38.082 11.2531 38.5074 11.6785 39.0313 11.6785H52.543C53.0668 11.6785 53.4922 11.2531 53.4922 10.7293C53.4922 10.2055 53.0668 9.78008 52.543 9.78008H39.0313Z" fill="#E6B400"/>
<path d="M30.002 50.2286C29.4758 50.2286 28.9508 50.2016 28.4293 50.1477C27.3887 50.0399 26.5942 49.2372 26.4981 48.1954L26.3024 46.0954C26.2731 45.7789 26.0809 45.5176 25.7879 45.3981C25.4961 45.2786 25.1762 45.3289 24.9325 45.534L23.3211 46.8934C22.5219 47.5672 21.3922 47.5825 20.5754 46.9309C19.7247 46.2512 18.9442 45.4778 18.2575 44.6317C17.5977 43.8196 17.6047 42.6899 18.2727 41.8848L19.6192 40.2618C19.8219 40.0168 19.8711 39.6969 19.7481 39.4051C19.6262 39.1133 19.3637 38.9235 19.0473 38.8965L16.945 38.7184C15.902 38.6293 15.0922 37.8418 14.9762 36.8012C14.8555 35.7184 14.852 34.6204 14.9645 33.5387C15.0723 32.4981 15.875 31.7036 16.9168 31.6075L19.0168 31.4118C19.3332 31.3825 19.5946 31.1903 19.7141 30.8973C19.8336 30.6043 19.7832 30.2856 19.5782 30.0418L18.2188 28.4305C17.545 27.6313 17.5286 26.5016 18.1813 25.6848C18.861 24.8329 19.6344 24.0536 20.4805 23.3668C21.2926 22.7071 22.4223 22.7141 23.2274 23.3821L24.8504 24.7286C25.0954 24.9313 25.4153 24.9793 25.7071 24.8575C25.9989 24.7356 26.1887 24.4731 26.2157 24.1567L26.3938 22.0543C26.4829 21.0114 27.2704 20.2016 28.311 20.0856C29.3938 19.9649 30.4918 19.9614 31.5735 20.0739C32.6141 20.1817 33.4086 20.9844 33.5047 22.0262L33.7004 24.1262C33.7297 24.4426 33.9219 24.7039 34.2149 24.8235C34.5079 24.943 34.8278 24.8926 35.0704 24.6875L36.6817 23.3282C37.4809 22.6543 38.6106 22.6391 39.4274 23.2907C40.2782 23.9704 41.0586 24.7438 41.7454 25.5899C42.4051 26.402 42.3993 27.5317 41.7301 28.3368L40.3836 29.9586C40.1809 30.2036 40.1317 30.5235 40.2547 30.8153C40.3766 31.1071 40.6391 31.2969 40.9555 31.3239L43.0579 31.502C44.1008 31.5899 44.9106 32.3786 45.0266 33.4192C45.1473 34.502 45.1508 35.6 45.0383 36.6817C44.9305 37.7223 44.1278 38.5168 43.086 38.6129L40.986 38.8086C40.6696 38.8379 40.4082 39.0301 40.2887 39.3231C40.1692 39.6161 40.2196 39.9348 40.4247 40.1786L41.784 41.7899C42.4579 42.5891 42.4743 43.7188 41.8215 44.5356C41.1418 45.3875 40.3684 46.1668 39.5223 46.8536C38.7102 47.5133 37.5805 47.5075 36.7754 46.8383L35.1524 45.4918C34.9075 45.2891 34.5875 45.2411 34.2957 45.3629C34.004 45.4848 33.8141 45.7473 33.7872 46.0637L33.609 48.1661C33.52 49.209 32.7325 50.0188 31.6918 50.1348C31.1317 50.1969 30.5668 50.2286 30.002 50.2286ZM25.4715 44.1629C25.7282 44.1629 25.986 44.2122 26.2321 44.3129C26.9258 44.5965 27.3993 45.2375 27.4696 45.9864L27.6653 48.0864C27.7098 48.5645 28.0743 48.9325 28.5512 48.9817C29.5497 49.086 30.5633 49.0813 31.5629 48.97C32.0399 48.9172 32.402 48.5457 32.4418 48.0676L32.62 45.9653C32.6832 45.2164 33.152 44.5719 33.8434 44.2825C34.5348 43.993 35.3235 44.1114 35.9012 44.5907L37.5243 45.9372C37.8934 46.2442 38.4114 46.2465 38.784 45.9442C39.5645 45.3102 40.2782 44.5907 40.9063 43.8055C41.2051 43.4305 41.1981 42.9125 40.8887 42.5457L39.5293 40.9344C39.0454 40.3602 38.92 39.5727 39.2047 38.8789C39.4883 38.1852 40.1293 37.7118 40.8782 37.6414L42.9782 37.4457C43.4563 37.4012 43.8243 37.0368 43.8735 36.5598C43.9778 35.5602 43.9731 34.5477 43.8618 33.5481C43.809 33.0711 43.4375 32.709 42.9594 32.6692L40.8571 32.4911C40.1082 32.4278 39.4637 31.959 39.1743 31.2676C38.8848 30.5762 39.0032 29.7887 39.4825 29.2098L40.8289 27.5868C41.136 27.2176 41.1383 26.6997 40.836 26.327C40.202 25.5465 39.4825 24.8329 38.6973 24.2059C38.3223 23.9071 37.8043 23.9141 37.4375 24.2223L35.8262 25.5817C35.252 26.0657 34.4645 26.1911 33.7707 25.9063C33.077 25.6227 32.6036 24.9817 32.5344 24.2329L32.3387 22.1329C32.2942 21.6547 31.9297 21.2868 31.4528 21.2375C30.4532 21.1332 29.4407 21.1379 28.4411 21.2493C27.9641 21.302 27.602 21.6735 27.5622 22.1516L27.384 24.254C27.3207 25.0028 26.852 25.6473 26.1606 25.9368C25.4692 26.2262 24.6805 26.1079 24.1028 25.6286L22.4797 24.2821C22.1106 23.975 21.5926 23.9727 21.22 24.275C20.4395 24.909 19.7258 25.6286 19.0989 26.4137C18.8 26.7887 18.8071 27.3067 19.1164 27.6735L20.4758 29.2848C20.9598 29.859 21.0852 30.6465 20.8004 31.3403C20.5168 32.034 19.8758 32.5075 19.127 32.5766L17.027 32.7723C16.5489 32.8168 16.1809 33.1813 16.1317 33.6582C16.0274 34.6567 16.0321 35.6704 16.1434 36.67C16.1961 37.1469 16.5676 37.509 17.0457 37.5489L19.1481 37.727C19.8969 37.7903 20.5415 38.259 20.8309 38.9504C21.1204 39.6418 21.002 40.4305 20.5227 41.0082L19.1762 42.6313C18.8704 43.0004 18.8668 43.5184 19.1692 43.8911C19.8032 44.6715 20.5227 45.3852 21.3079 46.0121C21.6829 46.311 22.2008 46.3039 22.5676 45.9946L24.179 44.6352C24.5469 44.3246 25.0063 44.1629 25.4715 44.1629Z" fill="white"/>
<path d="M33.7933 39.0784C33.6433 39.0784 33.4933 39.021 33.3784 38.9073C33.1499 38.6788 33.1499 38.3073 33.3784 38.0788L36.3397 35.1175L33.3784 32.1562C33.1499 31.9276 33.1499 31.5562 33.3784 31.3276C33.6069 31.0991 33.9784 31.0991 34.2069 31.3276L37.5819 34.7026C37.6921 34.8128 37.753 34.9616 37.753 35.1175C37.753 35.2733 37.6909 35.4222 37.5819 35.5323L34.2069 38.9073C34.0933 39.021 33.9433 39.0784 33.7933 39.0784Z" fill="#E6B400"/>
<path d="M26.2073 39.0772C26.0573 39.0772 25.9073 39.0198 25.7925 38.9061L22.4175 35.5312C22.189 35.3026 22.189 34.9312 22.4175 34.7026L25.7925 31.3276C26.021 31.0991 26.3925 31.0991 26.621 31.3276C26.8495 31.5562 26.8495 31.9276 26.621 32.1561L23.6597 35.1175L26.621 38.0788C26.8495 38.3073 26.8495 38.6788 26.621 38.9073C26.5073 39.0198 26.3573 39.0772 26.2073 39.0772Z" fill="#E6B400"/>
<path d="M28.5129 41.2414C28.4625 41.2414 28.4121 41.2355 28.3605 41.2215C28.0476 41.1383 27.8625 40.816 27.9457 40.5043L30.9176 29.4113C31.0008 29.0984 31.323 28.9133 31.6347 28.9965C31.9476 29.0797 32.1328 29.4019 32.0496 29.7137L29.0777 40.8066C29.0086 41.068 28.7719 41.2414 28.5129 41.2414Z" fill="#E6B400"/>
</svg>
