<svg width="22" height="18" viewBox="0 0 22 18" fill="none" xmlns="http://www.w3.org/2000/svg">
<path d="M17.0724 8.48763H1.81237C1.54387 8.48763 1.28637 8.59429 1.09652 8.78415C0.90666 8.974 0.8 9.2315 0.8 9.5C0.8 9.7685 0.90666 10.026 1.09652 10.2159C1.28637 10.4057 1.54387 10.5124 1.81237 10.5124H17.0724L13.1133 14.47L13.1133 14.47C12.9232 14.6601 12.8165 14.9178 12.8165 15.1866C12.8165 15.4554 12.9232 15.7131 13.1133 15.9032C13.3033 16.0932 13.5611 16.2 13.8299 16.2C14.0986 16.2 14.3564 16.0932 14.5465 15.9032L20.2329 10.2168L17.0724 8.48763ZM17.0724 8.48763L13.1133 4.53001L13.1133 4.52998C13.0192 4.43588 12.9445 4.32416 12.8936 4.20121C12.8427 4.07826 12.8165 3.94648 12.8165 3.8134C12.8165 3.68032 12.8427 3.54854 12.8936 3.42559C12.9445 3.30264 13.0192 3.19092 13.1133 3.09682C13.2074 3.00271 13.3191 2.92807 13.4421 2.87714L13.5186 3.06192L13.4421 2.87714C13.565 2.82621 13.6968 2.8 13.8299 2.8C13.963 2.8 14.0947 2.82621 14.2177 2.87714L14.1411 3.06192L14.2177 2.87714C14.3406 2.92807 14.4524 3.00271 14.5465 3.09682L20.2329 8.78324L17.0724 8.48763ZM20.453 9.11199C20.402 8.98908 20.3273 8.87742 20.2331 8.78342V10.2166C20.3273 10.1226 20.402 10.0109 20.453 9.88801C20.504 9.76502 20.5303 9.63316 20.5303 9.5C20.5303 9.36684 20.504 9.23498 20.453 9.11199Z" fill="white" stroke="white" stroke-width="0.4"/>
</svg>
