<svg width="52" height="52" viewBox="0 0 52 52" fill="none" xmlns="http://www.w3.org/2000/svg">
<mask id="path-1-inside-1_1091_291270" fill="white">
<path fill-rule="evenodd" clip-rule="evenodd" d="M35.2752 4.72038H41.19C42.8431 4.72038 44.1991 6.06348 44.1732 7.71652V48.9909C44.1732 50.644 42.8172 52 41.1642 52H11.0091C9.35601 52 8 50.644 8 48.9909V7.72943C8 6.07639 9.35601 4.72038 11.0091 4.72038H16.7301V3.31271C16.7301 2.88653 17.0788 2.53785 17.505 2.53785H22.5933C22.7612 2.53785 22.9032 2.43453 22.9549 2.27956C23.2777 1.28515 24.0655 0.49737 25.0599 0.17451C25.8994 -0.109607 26.8034 -0.0450344 27.5911 0.355312C28.3789 0.755658 28.9601 1.44012 29.2442 2.27956C29.2958 2.43453 29.4379 2.53785 29.6058 2.53785H34.5003C34.9265 2.53785 35.2752 2.88653 35.2752 3.31271V4.72038ZM22.6062 4.08757H18.2928V6.99331H33.7384V4.08757H29.6187C28.7793 4.08757 28.0431 3.54517 27.7849 2.75739C27.5007 1.85338 26.4418 1.31098 25.5507 1.63384C25.0212 1.81464 24.6079 2.2279 24.4271 2.75739C24.1688 3.54517 23.4456 4.08757 22.6062 4.08757ZM41.19 50.4374C41.9907 50.4374 42.6493 49.7787 42.6493 48.978V7.72943C42.6493 6.92874 41.9907 6.27011 41.19 6.27011H35.2881V7.75526C35.2881 8.18144 34.9394 8.53013 34.5133 8.53013H17.5308C17.1047 8.53013 16.756 8.18144 16.756 7.75526V6.25719H11.0349C10.2342 6.25719 9.57556 6.91583 9.57556 7.71652V48.978C9.57556 49.7787 10.2342 50.4374 11.0349 50.4374H41.19ZM21.7174 15.2714C21.7174 17.5702 19.8319 19.4557 17.5202 19.4557C15.2214 19.4557 13.3359 17.5702 13.3359 15.2714C13.5684 9.71821 21.4849 9.71821 21.7174 15.2714ZM20.1677 15.2714C20.1677 13.8121 18.9795 12.6239 17.5202 12.6239C16.0738 12.6239 14.8857 13.7992 14.8857 15.2714C15.0277 18.7712 20.0256 18.7712 20.1677 15.2714ZM35.455 13.7734C33.1433 13.7734 31.2578 15.6589 31.2578 17.9706C31.4903 23.5238 39.4068 23.5238 39.6393 17.9706C39.6393 15.6589 37.7667 13.7734 35.455 13.7734ZM35.455 20.6052C33.9957 20.6052 32.8075 19.417 32.8075 17.9706C32.9496 14.4708 37.9475 14.4708 38.0895 17.9706C38.0895 19.417 36.9143 20.6052 35.455 20.6052ZM24.1147 32.9771C29.1255 35.3275 30.0941 39.0598 30.2749 40.6482C32.2379 40.9969 33.7231 42.7145 33.736 44.7679C33.5035 50.3211 25.587 50.334 25.3545 44.7679C25.3545 42.7404 26.8009 41.0486 28.7252 40.6612C28.5444 39.331 27.6533 36.3348 23.469 34.3718C20.6537 33.1579 18.4582 29.6968 17.6575 26.3391L16.1724 28.6895C16.0174 28.922 15.772 29.0511 15.5138 29.0511C14.9197 29.064 14.5323 28.3666 14.8551 27.863C14.86 27.8581 15.2223 27.2811 15.6712 26.5659L15.6722 26.5643L15.6723 26.5642C16.4089 25.3908 17.3783 23.8466 17.3863 23.8466C17.5026 23.6787 17.6834 23.5496 17.8771 23.5108C18.0708 23.4721 18.2903 23.5108 18.4582 23.6141L22.4617 26.1325C23.314 26.7136 22.5134 27.9663 21.6352 27.4497L19.1427 25.8871C19.6722 28.005 21.0153 31.5178 24.1147 32.9771ZM26.8913 44.7679C26.8913 46.2273 28.0795 47.4154 29.5388 47.4154C30.9981 47.4154 32.1733 46.2273 32.1733 44.7679C32.0313 41.2681 27.0334 41.2681 26.8913 44.7679ZM20.6915 35.6374C20.3945 35.3404 19.9037 35.3404 19.5938 35.6374L17.295 37.9361L14.9963 35.6374C14.6992 35.3404 14.2085 35.3404 13.8986 35.6374C13.6015 35.9344 13.6015 36.4252 13.8986 36.7351L16.1973 39.0339L13.8986 41.3326C13.6015 41.6297 13.6015 42.1204 13.8986 42.4304C14.1956 42.7274 14.6863 42.7274 14.9963 42.4304L17.295 40.1316L19.5938 42.4304C19.8908 42.7274 20.3816 42.7274 20.6915 42.4304C20.9886 42.1333 20.9886 41.6426 20.6915 41.3326L18.3928 39.0339L20.6915 36.7351C21.0015 36.4252 21.0015 35.9344 20.6915 35.6374ZM34.4883 26.1324C34.7983 25.8354 35.289 25.8354 35.5861 26.1324C35.8831 26.4424 35.8831 26.9202 35.5861 27.2302L33.2873 29.5289L35.5861 31.8277C35.8831 32.1376 35.8831 32.6284 35.5861 32.9254C35.2761 33.2224 34.7854 33.2224 34.4883 32.9254L32.1896 30.6266L29.8908 32.9254C29.5809 33.2224 29.0901 33.2224 28.7931 32.9254C28.4961 32.6155 28.4961 32.1247 28.7931 31.8277L31.0919 29.5289L28.7931 27.2302C28.4961 26.9202 28.4961 26.4295 28.7931 26.1324C29.103 25.8354 29.5938 25.8354 29.8908 26.1324L32.1896 28.4312L34.4883 26.1324Z"/>
</mask>
<path fill-rule="evenodd" clip-rule="evenodd" d="M35.2752 4.72038H41.19C42.8431 4.72038 44.1991 6.06348 44.1732 7.71652V48.9909C44.1732 50.644 42.8172 52 41.1642 52H11.0091C9.35601 52 8 50.644 8 48.9909V7.72943C8 6.07639 9.35601 4.72038 11.0091 4.72038H16.7301V3.31271C16.7301 2.88653 17.0788 2.53785 17.505 2.53785H22.5933C22.7612 2.53785 22.9032 2.43453 22.9549 2.27956C23.2777 1.28515 24.0655 0.49737 25.0599 0.17451C25.8994 -0.109607 26.8034 -0.0450344 27.5911 0.355312C28.3789 0.755658 28.9601 1.44012 29.2442 2.27956C29.2958 2.43453 29.4379 2.53785 29.6058 2.53785H34.5003C34.9265 2.53785 35.2752 2.88653 35.2752 3.31271V4.72038ZM22.6062 4.08757H18.2928V6.99331H33.7384V4.08757H29.6187C28.7793 4.08757 28.0431 3.54517 27.7849 2.75739C27.5007 1.85338 26.4418 1.31098 25.5507 1.63384C25.0212 1.81464 24.6079 2.2279 24.4271 2.75739C24.1688 3.54517 23.4456 4.08757 22.6062 4.08757ZM41.19 50.4374C41.9907 50.4374 42.6493 49.7787 42.6493 48.978V7.72943C42.6493 6.92874 41.9907 6.27011 41.19 6.27011H35.2881V7.75526C35.2881 8.18144 34.9394 8.53013 34.5133 8.53013H17.5308C17.1047 8.53013 16.756 8.18144 16.756 7.75526V6.25719H11.0349C10.2342 6.25719 9.57556 6.91583 9.57556 7.71652V48.978C9.57556 49.7787 10.2342 50.4374 11.0349 50.4374H41.19ZM21.7174 15.2714C21.7174 17.5702 19.8319 19.4557 17.5202 19.4557C15.2214 19.4557 13.3359 17.5702 13.3359 15.2714C13.5684 9.71821 21.4849 9.71821 21.7174 15.2714ZM20.1677 15.2714C20.1677 13.8121 18.9795 12.6239 17.5202 12.6239C16.0738 12.6239 14.8857 13.7992 14.8857 15.2714C15.0277 18.7712 20.0256 18.7712 20.1677 15.2714ZM35.455 13.7734C33.1433 13.7734 31.2578 15.6589 31.2578 17.9706C31.4903 23.5238 39.4068 23.5238 39.6393 17.9706C39.6393 15.6589 37.7667 13.7734 35.455 13.7734ZM35.455 20.6052C33.9957 20.6052 32.8075 19.417 32.8075 17.9706C32.9496 14.4708 37.9475 14.4708 38.0895 17.9706C38.0895 19.417 36.9143 20.6052 35.455 20.6052ZM24.1147 32.9771C29.1255 35.3275 30.0941 39.0598 30.2749 40.6482C32.2379 40.9969 33.7231 42.7145 33.736 44.7679C33.5035 50.3211 25.587 50.334 25.3545 44.7679C25.3545 42.7404 26.8009 41.0486 28.7252 40.6612C28.5444 39.331 27.6533 36.3348 23.469 34.3718C20.6537 33.1579 18.4582 29.6968 17.6575 26.3391L16.1724 28.6895C16.0174 28.922 15.772 29.0511 15.5138 29.0511C14.9197 29.064 14.5323 28.3666 14.8551 27.863C14.86 27.8581 15.2223 27.2811 15.6712 26.5659L15.6722 26.5643L15.6723 26.5642C16.4089 25.3908 17.3783 23.8466 17.3863 23.8466C17.5026 23.6787 17.6834 23.5496 17.8771 23.5108C18.0708 23.4721 18.2903 23.5108 18.4582 23.6141L22.4617 26.1325C23.314 26.7136 22.5134 27.9663 21.6352 27.4497L19.1427 25.8871C19.6722 28.005 21.0153 31.5178 24.1147 32.9771ZM26.8913 44.7679C26.8913 46.2273 28.0795 47.4154 29.5388 47.4154C30.9981 47.4154 32.1733 46.2273 32.1733 44.7679C32.0313 41.2681 27.0334 41.2681 26.8913 44.7679ZM20.6915 35.6374C20.3945 35.3404 19.9037 35.3404 19.5938 35.6374L17.295 37.9361L14.9963 35.6374C14.6992 35.3404 14.2085 35.3404 13.8986 35.6374C13.6015 35.9344 13.6015 36.4252 13.8986 36.7351L16.1973 39.0339L13.8986 41.3326C13.6015 41.6297 13.6015 42.1204 13.8986 42.4304C14.1956 42.7274 14.6863 42.7274 14.9963 42.4304L17.295 40.1316L19.5938 42.4304C19.8908 42.7274 20.3816 42.7274 20.6915 42.4304C20.9886 42.1333 20.9886 41.6426 20.6915 41.3326L18.3928 39.0339L20.6915 36.7351C21.0015 36.4252 21.0015 35.9344 20.6915 35.6374ZM34.4883 26.1324C34.7983 25.8354 35.289 25.8354 35.5861 26.1324C35.8831 26.4424 35.8831 26.9202 35.5861 27.2302L33.2873 29.5289L35.5861 31.8277C35.8831 32.1376 35.8831 32.6284 35.5861 32.9254C35.2761 33.2224 34.7854 33.2224 34.4883 32.9254L32.1896 30.6266L29.8908 32.9254C29.5809 33.2224 29.0901 33.2224 28.7931 32.9254C28.4961 32.6155 28.4961 32.1247 28.7931 31.8277L31.0919 29.5289L28.7931 27.2302C28.4961 26.9202 28.4961 26.4295 28.7931 26.1324C29.103 25.8354 29.5938 25.8354 29.8908 26.1324L32.1896 28.4312L34.4883 26.1324Z" fill="white"/>
<path d="M35.2752 4.72038H34.9752V5.02038H35.2752V4.72038ZM44.1732 7.71652L43.8732 7.71183V7.71652H44.1732ZM16.7301 4.72038V5.02038H17.0301V4.72038H16.7301ZM22.9549 2.27956L23.2395 2.37443L23.2402 2.3722L22.9549 2.27956ZM25.0599 0.17451L25.1526 0.45987L25.1561 0.458675L25.0599 0.17451ZM27.5911 0.355312L27.7271 0.0878664L27.5911 0.355312ZM29.2442 2.27956L29.5288 2.18469L29.5284 2.18338L29.2442 2.27956ZM18.2928 4.08757V3.78757H17.9928V4.08757H18.2928ZM18.2928 6.99331H17.9928V7.29331H18.2928V6.99331ZM33.7384 6.99331V7.29331H34.0384V6.99331H33.7384ZM33.7384 4.08757H34.0384V3.78757H33.7384V4.08757ZM27.7849 2.75739L27.4986 2.84735L27.4998 2.85086L27.7849 2.75739ZM25.5507 1.63384L25.6476 1.91779L25.6529 1.9159L25.5507 1.63384ZM24.4271 2.75739L24.1432 2.66044L24.142 2.66393L24.4271 2.75739ZM35.2881 6.27011V5.97011H34.9881V6.27011H35.2881ZM16.756 6.25719H17.056V5.95719H16.756V6.25719ZM21.7174 15.2714H22.0176L22.0171 15.2589L21.7174 15.2714ZM13.3359 15.2714L13.0359 15.2588V15.2714H13.3359ZM20.1677 15.2714L20.4677 15.2836V15.2714H20.1677ZM14.8857 15.2714H14.5854L14.5859 15.2836L14.8857 15.2714ZM31.2578 17.9706H30.9576L30.9581 17.9832L31.2578 17.9706ZM39.6393 17.9706L39.9393 17.9832V17.9706H39.6393ZM32.8075 17.9706L32.5075 17.9584V17.9706H32.8075ZM38.0895 17.9706H38.3898L38.3893 17.9585L38.0895 17.9706ZM30.2749 40.6482L29.9768 40.6822L30.0021 40.9045L30.2224 40.9436L30.2749 40.6482ZM24.1147 32.9771L23.9869 33.2485L23.9873 33.2487L24.1147 32.9771ZM33.736 44.7679L34.0357 44.7805L34.036 44.7733L34.036 44.766L33.736 44.7679ZM25.3545 44.7679H25.0543L25.0548 44.7805L25.3545 44.7679ZM28.7252 40.6612L28.7844 40.9553L29.0604 40.8997L29.0224 40.6208L28.7252 40.6612ZM23.469 34.3718L23.5965 34.1001L23.5878 34.0964L23.469 34.3718ZM17.6575 26.3391L17.9494 26.2695L17.7842 25.577L17.4039 26.1788L17.6575 26.3391ZM16.1724 28.6895L16.4221 28.856L16.426 28.8498L16.1724 28.6895ZM15.5138 29.0511V28.751L15.5072 28.7512L15.5138 29.0511ZM14.8551 27.863L14.643 27.6509L14.62 27.6738L14.6026 27.7011L14.8551 27.863ZM15.6712 26.5659L15.4172 26.4062L15.4172 26.4064L15.6712 26.5659ZM15.6722 26.5643L15.9264 26.724L15.9314 26.7154L15.6722 26.5643ZM15.6723 26.5642L15.418 26.4046L15.4131 26.4131L15.6723 26.5642ZM17.3863 23.8466V24.1466H17.5435L17.633 24.0174L17.3863 23.8466ZM17.8771 23.5108L17.8183 23.2167H17.8182L17.8771 23.5108ZM18.4582 23.6141L18.618 23.3602L18.6155 23.3587L18.4582 23.6141ZM22.4617 26.1325L22.6308 25.8844L22.6214 25.8785L22.4617 26.1325ZM21.6352 27.4497L21.4758 27.704L21.4831 27.7083L21.6352 27.4497ZM19.1427 25.8871L19.3021 25.6329L18.671 25.2373L18.8517 25.9598L19.1427 25.8871ZM26.8913 44.7679L26.5913 44.7558V44.7679H26.8913ZM32.1733 44.7679H32.4736L32.4731 44.7558L32.1733 44.7679ZM19.5938 35.6374L19.3862 35.4207L19.3817 35.4253L19.5938 35.6374ZM20.6915 35.6374L20.4793 35.8496L20.484 35.854L20.6915 35.6374ZM17.295 37.9361L17.0829 38.1483L17.295 38.3604L17.5072 38.1483L17.295 37.9361ZM14.9963 35.6374L14.7841 35.8495L14.9963 35.6374ZM13.8986 35.6374L13.6909 35.4207L13.6864 35.4253L13.8986 35.6374ZM13.8986 36.7351L13.6819 36.9427L13.6864 36.9472L13.8986 36.7351ZM16.1973 39.0339L16.4094 39.246L16.6216 39.0339L16.4094 38.8217L16.1973 39.0339ZM13.8986 41.3326L14.1107 41.5448H14.1107L13.8986 41.3326ZM13.8986 42.4304L13.6819 42.638L13.6864 42.6425L13.8986 42.4304ZM14.9963 42.4304L15.2039 42.647L15.2084 42.6425L14.9963 42.4304ZM17.295 40.1316L17.5072 39.9195L17.295 39.7073L17.0829 39.9195L17.295 40.1316ZM19.5938 42.4304L19.8059 42.2182H19.8059L19.5938 42.4304ZM20.6915 42.4304L20.8991 42.647L20.9037 42.6425L20.6915 42.4304ZM20.6915 41.3326L20.9082 41.125L20.9037 41.1205L20.6915 41.3326ZM18.3928 39.0339L18.1806 38.8217L17.9685 39.0339L18.1806 39.246L18.3928 39.0339ZM20.6915 36.7351L20.4794 36.523H20.4794L20.6915 36.7351ZM35.5861 26.1324L35.8027 25.9248L35.7982 25.9203L35.5861 26.1324ZM34.4883 26.1324L34.2807 25.9158L34.2762 25.9203L34.4883 26.1324ZM35.5861 27.2302L35.7982 27.4423L35.8027 27.4377L35.5861 27.2302ZM33.2873 29.5289L33.0752 29.3168L32.863 29.5289L33.0752 29.7411L33.2873 29.5289ZM35.5861 31.8277L35.8027 31.6201L35.7982 31.6156L35.5861 31.8277ZM35.5861 32.9254L35.7937 33.1421L35.7982 33.1375L35.5861 32.9254ZM34.4883 32.9254L34.2762 33.1375L34.4883 32.9254ZM32.1896 30.6266L32.4017 30.4145L32.1896 30.2024L31.9774 30.4145L32.1896 30.6266ZM29.8908 32.9254L30.0984 33.1421L30.1029 33.1375L29.8908 32.9254ZM28.7931 32.9254L28.5764 33.133L28.581 33.1375L28.7931 32.9254ZM28.7931 31.8277L28.581 31.6156H28.581L28.7931 31.8277ZM31.0919 29.5289L31.304 29.7411L31.5161 29.5289L31.304 29.3168L31.0919 29.5289ZM28.7931 27.2302L28.5764 27.4378L28.581 27.4423L28.7931 27.2302ZM28.7931 26.1324L28.5855 25.9158L28.581 25.9203L28.7931 26.1324ZM29.8908 26.1324L30.1029 25.9203V25.9203L29.8908 26.1324ZM32.1896 28.4312L31.9774 28.6433L32.1896 28.8555L32.4017 28.6433L32.1896 28.4312ZM41.19 4.42038H35.2752V5.02038H41.19V4.42038ZM44.4732 7.72121C44.5017 5.89623 43.0061 4.42038 41.19 4.42038V5.02038C42.68 5.02038 43.8964 6.23073 43.8733 7.71183L44.4732 7.72121ZM44.4732 48.9909V7.71652H43.8732V48.9909H44.4732ZM41.1642 52.3C42.9829 52.3 44.4732 50.8097 44.4732 48.9909H43.8732C43.8732 50.4783 42.6515 51.7 41.1642 51.7V52.3ZM11.0091 52.3H41.1642V51.7H11.0091V52.3ZM7.7 48.9909C7.7 50.8097 9.19033 52.3 11.0091 52.3V51.7C9.5217 51.7 8.3 50.4783 8.3 48.9909H7.7ZM7.7 7.72943V48.9909H8.3V7.72943H7.7ZM11.0091 4.42038C9.19033 4.42038 7.7 5.91071 7.7 7.72943H8.3C8.3 6.24208 9.5217 5.02038 11.0091 5.02038V4.42038ZM16.7301 4.42038H11.0091V5.02038H16.7301V4.42038ZM16.4301 3.31271V4.72038H17.0301V3.31271H16.4301ZM17.505 2.23785C16.9131 2.23785 16.4301 2.72085 16.4301 3.31271H17.0301C17.0301 3.05222 17.2445 2.83785 17.505 2.83785V2.23785ZM22.5933 2.23785H17.505V2.83785H22.5933V2.23785ZM22.6703 2.18469C22.6597 2.2163 22.6329 2.23785 22.5933 2.23785V2.83785C22.8894 2.83785 23.1467 2.65277 23.2395 2.37443L22.6703 2.18469ZM24.9673 -0.110827C23.8815 0.241702 23.0221 1.10112 22.6695 2.18692L23.2402 2.3722C23.5334 1.46917 24.2495 0.753038 25.1526 0.459848L24.9673 -0.110827ZM27.7271 0.0878664C26.8671 -0.349171 25.8794 -0.419567 24.9637 -0.109655L25.1561 0.458675C25.9193 0.200354 26.7397 0.259102 27.4552 0.622758L27.7271 0.0878664ZM29.5284 2.18338C29.2198 1.27184 28.5868 0.52476 27.7271 0.0878664L27.4552 0.622758C28.1711 0.986557 28.7003 1.6084 28.96 2.37574L29.5284 2.18338ZM29.6058 2.23785C29.5661 2.23785 29.5393 2.21629 29.5288 2.18469L28.9596 2.37442C29.0524 2.65277 29.3097 2.83785 29.6058 2.83785V2.23785ZM34.5003 2.23785H29.6058V2.83785H34.5003V2.23785ZM35.5752 3.31271C35.5752 2.72085 35.0922 2.23785 34.5003 2.23785V2.83785C34.7608 2.83785 34.9752 3.05222 34.9752 3.31271H35.5752ZM35.5752 4.72038V3.31271H34.9752V4.72038H35.5752ZM18.2928 4.38757H22.6062V3.78757H18.2928V4.38757ZM18.5928 6.99331V4.08757H17.9928V6.99331H18.5928ZM33.7384 6.69331H18.2928V7.29331H33.7384V6.69331ZM33.4384 4.08757V6.99331H34.0384V4.08757H33.4384ZM29.6187 4.38757H33.7384V3.78757H29.6187V4.38757ZM27.4998 2.85086C27.7981 3.76058 28.6483 4.38757 29.6187 4.38757V3.78757C28.9103 3.78757 28.2882 3.32976 28.0699 2.66393L27.4998 2.85086ZM25.6529 1.9159C26.3785 1.65297 27.2642 2.10124 27.4987 2.84734L28.0711 2.66744C27.7373 1.60552 26.505 0.968987 25.4485 1.35178L25.6529 1.9159ZM24.711 2.85433C24.8618 2.41275 25.206 2.06853 25.6476 1.91774L25.4537 1.34993C24.8363 1.56075 24.354 2.04305 24.1432 2.66045L24.711 2.85433ZM22.6062 4.38757C23.579 4.38757 24.4147 3.75831 24.7122 2.85086L24.142 2.66393C23.923 3.33203 23.3123 3.78757 22.6062 3.78757V4.38757ZM42.3493 48.978C42.3493 49.613 41.825 50.1374 41.19 50.1374V50.7374C42.1564 50.7374 42.9493 49.9444 42.9493 48.978H42.3493ZM42.3493 7.72943V48.978H42.9493V7.72943H42.3493ZM41.19 6.57011C41.825 6.57011 42.3493 7.09443 42.3493 7.72943H42.9493C42.9493 6.76306 42.1564 5.97011 41.19 5.97011V6.57011ZM35.2881 6.57011H41.19V5.97011H35.2881V6.57011ZM35.5881 7.75526V6.27011H34.9881V7.75526H35.5881ZM34.5133 8.83013C35.1051 8.83013 35.5881 8.34713 35.5881 7.75526H34.9881C34.9881 8.01575 34.7738 8.23013 34.5133 8.23013V8.83013ZM17.5308 8.83013H34.5133V8.23013H17.5308V8.83013ZM16.456 7.75526C16.456 8.34713 16.939 8.83013 17.5308 8.83013V8.23013C17.2703 8.23013 17.056 8.01575 17.056 7.75526H16.456ZM16.456 6.25719V7.75526H17.056V6.25719H16.456ZM11.0349 6.55719H16.756V5.95719H11.0349V6.55719ZM9.87556 7.71652C9.87556 7.08151 10.3999 6.55719 11.0349 6.55719V5.95719C10.0685 5.95719 9.27556 6.75014 9.27556 7.71652H9.87556ZM9.87556 48.978V7.71652H9.27556V48.978H9.87556ZM11.0349 50.1374C10.3999 50.1374 9.87556 49.613 9.87556 48.978H9.27556C9.27556 49.9444 10.0685 50.7374 11.0349 50.7374V50.1374ZM41.19 50.1374H11.0349V50.7374H41.19V50.1374ZM17.5202 19.7557C19.997 19.7557 22.0174 17.7365 22.0174 15.2714H21.4174C21.4174 17.4039 19.6668 19.1557 17.5202 19.1557V19.7557ZM13.0359 15.2714C13.0359 17.7358 15.0558 19.7557 17.5202 19.7557V19.1557C15.3871 19.1557 13.6359 17.4045 13.6359 15.2714H13.0359ZM22.0171 15.2589C21.7686 9.32239 13.2847 9.32239 13.0362 15.2589L13.6357 15.2839C13.8521 10.114 21.2012 10.114 21.4176 15.2839L22.0171 15.2589ZM17.5202 12.9239C18.8138 12.9239 19.8677 13.9778 19.8677 15.2714H20.4677C20.4677 13.6464 19.1452 12.3239 17.5202 12.3239V12.9239ZM15.1857 15.2714C15.1857 13.9648 16.2395 12.9239 17.5202 12.9239V12.3239C15.9081 12.3239 14.5857 13.6335 14.5857 15.2714H15.1857ZM19.8679 15.2592C19.7414 18.3753 15.3119 18.3753 15.1854 15.2592L14.5859 15.2836C14.7435 19.1671 20.3098 19.1671 20.4674 15.2836L19.8679 15.2592ZM31.5578 17.9706C31.5578 15.8246 33.309 14.0734 35.455 14.0734V13.4734C32.9776 13.4734 30.9578 15.4933 30.9578 17.9706H31.5578ZM39.3395 17.9581C39.1231 23.128 31.774 23.128 31.5576 17.9581L30.9581 17.9832C31.2066 23.9196 39.6905 23.9196 39.939 17.9832L39.3395 17.9581ZM35.455 14.0734C37.5998 14.0734 39.3393 15.8234 39.3393 17.9706H39.9393C39.9393 15.4945 37.9336 13.4734 35.455 13.4734V14.0734ZM32.5075 17.9706C32.5075 19.5837 33.8309 20.9052 35.455 20.9052V20.3052C34.1604 20.3052 33.1075 19.2504 33.1075 17.9706H32.5075ZM38.3893 17.9585C38.2316 14.0749 32.6654 14.0749 32.5078 17.9585L33.1073 17.9828C33.2338 14.8668 37.6633 14.8668 37.7898 17.9828L38.3893 17.9585ZM35.455 20.9052C37.081 20.9052 38.3895 19.5818 38.3895 17.9706H37.7895C37.7895 19.2523 36.7477 20.3052 35.455 20.3052V20.9052ZM30.573 40.6143C30.3839 38.9532 29.3723 35.1119 24.2421 32.7055L23.9873 33.2487C28.8788 35.5431 29.8043 39.1664 29.9768 40.6822L30.573 40.6143ZM34.036 44.766C34.0221 42.5667 32.4317 40.7267 30.3274 40.3529L30.2224 40.9436C32.0441 41.2672 33.424 42.8624 33.436 44.7698L34.036 44.766ZM25.0548 44.7805C25.3036 50.7379 33.7875 50.7089 34.0357 44.7805L33.4362 44.7554C33.2195 49.9333 25.8704 49.9302 25.6543 44.7554L25.0548 44.7805ZM28.666 40.3671C26.6053 40.782 25.0545 42.5938 25.0545 44.7679H25.6545C25.6545 42.8869 26.9966 41.3152 28.7844 40.9553L28.666 40.3671ZM23.3416 34.6434C27.4145 36.5542 28.2577 39.4493 28.4279 40.7016L29.0224 40.6208C28.8311 39.2127 27.8921 36.1155 23.5964 34.1002L23.3416 34.6434ZM17.3657 26.4087C17.7745 28.1228 18.5386 29.8623 19.5616 31.3309C20.5833 32.7975 21.8759 34.0116 23.3502 34.6473L23.5878 34.0964C22.2468 33.5181 21.034 32.3947 20.0539 30.9879C19.0753 29.583 18.3413 27.9131 17.9494 26.2695L17.3657 26.4087ZM16.426 28.8498L17.9112 26.4993L17.4039 26.1788L15.9188 28.5293L16.426 28.8498ZM15.5138 29.3511C15.875 29.3511 16.2129 29.1696 16.422 28.8559L15.9228 28.5231C15.8219 28.6744 15.669 28.7511 15.5138 28.7511V29.3511ZM14.6026 27.7011C14.1523 28.4035 14.6821 29.3693 15.5203 29.351L15.5072 28.7512C15.1573 28.7588 14.9122 28.3298 15.1077 28.0249L14.6026 27.7011ZM15.4172 26.4064C15.1926 26.764 14.9899 27.0869 14.8427 27.3211C14.769 27.4382 14.7094 27.5329 14.6679 27.5986C14.6471 27.6315 14.6311 27.6568 14.6202 27.6739C14.6147 27.6825 14.6109 27.6885 14.6085 27.6921C14.6073 27.6941 14.607 27.6944 14.6074 27.6938C14.6075 27.6937 14.6087 27.6919 14.6105 27.6894C14.6113 27.6882 14.6134 27.6853 14.6162 27.6816C14.6176 27.6798 14.6201 27.6765 14.6233 27.6726C14.6256 27.6697 14.6328 27.6611 14.643 27.6509L15.0673 28.0751C15.0775 28.0649 15.0847 28.0561 15.0871 28.0532C15.0904 28.0492 15.0929 28.0459 15.0944 28.0439C15.0974 28.04 15.0997 28.0368 15.1007 28.0353C15.103 28.032 15.1049 28.0293 15.1058 28.0279C15.1079 28.0248 15.11 28.0215 15.1118 28.0188C15.1155 28.0131 15.1204 28.0055 15.1261 27.9965C15.1377 27.9783 15.1543 27.9521 15.1752 27.919C15.217 27.8528 15.2769 27.7576 15.3506 27.6405C15.498 27.4061 15.7008 27.0829 15.9253 26.7254L15.4172 26.4064ZM15.4182 26.4046L15.4172 26.4062L15.9252 26.7255L15.9262 26.7239L15.4182 26.4046ZM15.4131 26.4131L15.4131 26.4131L15.9314 26.7154L15.9314 26.7154L15.4131 26.4131ZM17.3863 23.5466C17.3421 23.5499 17.2738 23.5685 17.2496 23.5796C17.2349 23.5876 17.2114 23.6029 17.2023 23.6096C17.1853 23.6228 17.1735 23.635 17.1692 23.6395C17.1592 23.65 17.1521 23.659 17.1499 23.6617C17.1443 23.6688 17.1398 23.6752 17.1379 23.6778C17.1333 23.6843 17.1284 23.6916 17.1241 23.698C17.1152 23.7114 17.103 23.7301 17.0885 23.7526C17.0592 23.7981 17.0173 23.8638 16.9654 23.9455C16.8616 24.109 16.7164 24.3391 16.5487 24.6055C16.2131 25.1385 15.7865 25.8181 15.4182 26.4047L15.9263 26.7237C16.2947 26.137 16.7211 25.4578 17.0564 24.9252C17.2241 24.6589 17.3688 24.4296 17.472 24.267C17.5237 24.1856 17.5646 24.1214 17.5927 24.0779C17.6069 24.0559 17.6171 24.0402 17.6236 24.0305C17.6271 24.0253 17.6282 24.0237 17.6277 24.0243C17.6275 24.0246 17.6269 24.0255 17.6259 24.0268C17.6251 24.0279 17.6232 24.0304 17.6206 24.0338C17.6191 24.0357 17.6124 24.0442 17.6028 24.0543C17.5986 24.0586 17.587 24.0706 17.5701 24.0837C17.5611 24.0904 17.5376 24.1056 17.523 24.1137C17.4988 24.1247 17.4305 24.1433 17.3863 24.1466V23.5466ZM17.8182 23.2167C17.5384 23.2726 17.294 23.4529 17.1397 23.6758L17.633 24.0174C17.7111 23.9046 17.8284 23.8265 17.9359 23.805L17.8182 23.2167ZM18.6155 23.3587C18.3825 23.2153 18.0856 23.1632 17.8183 23.2167L17.9359 23.805C18.056 23.781 18.1982 23.8064 18.301 23.8696L18.6155 23.3587ZM22.6214 25.8785L18.618 23.3602L18.2985 23.8681L22.302 26.3864L22.6214 25.8785ZM21.4831 27.7083C22.7012 28.4248 23.7965 26.6795 22.6307 25.8846L22.2927 26.3803C22.8316 26.7477 22.3256 27.5078 21.7873 27.1911L21.4831 27.7083ZM18.9833 26.1413L21.4758 27.7039L21.7945 27.1955L19.3021 25.6329L18.9833 26.1413ZM24.2425 32.7057C21.2751 31.3085 19.9601 27.9196 19.4337 25.8143L18.8517 25.9598C19.3843 28.0904 20.7555 31.727 23.9869 33.2485L24.2425 32.7057ZM29.5388 47.1154C28.2452 47.1154 27.1913 46.0616 27.1913 44.7679H26.5913C26.5913 46.3929 27.9138 47.7154 29.5388 47.7154V47.1154ZM31.8733 44.7679C31.8733 46.0635 30.8305 47.1154 29.5388 47.1154V47.7154C31.1657 47.7154 32.4733 46.391 32.4733 44.7679H31.8733ZM27.1911 44.7801C27.3176 41.6641 31.7471 41.6641 31.8736 44.7801L32.4731 44.7558C32.3154 40.8722 26.7492 40.8722 26.5916 44.7558L27.1911 44.7801ZM19.8014 35.854C19.9978 35.6657 20.3019 35.6721 20.4794 35.8495L20.9037 35.4253C20.487 35.0086 19.8097 35.015 19.3862 35.4208L19.8014 35.854ZM17.5072 38.1483L19.8059 35.8495L19.3817 35.4253L17.0829 37.724L17.5072 38.1483ZM14.7841 35.8495L17.0829 38.1483L17.5072 37.724L15.2084 35.4253L14.7841 35.8495ZM14.1061 35.854C14.3026 35.6657 14.6067 35.6721 14.7841 35.8495L15.2084 35.4253C14.7918 35.0086 14.1144 35.015 13.691 35.4208L14.1061 35.854ZM14.1152 36.5275C13.9269 36.3311 13.9332 36.027 14.1107 35.8495L13.6864 35.4253C13.2698 35.8419 13.2762 36.5192 13.682 36.9427L14.1152 36.5275ZM16.4094 38.8217L14.1107 36.523L13.6864 36.9472L15.9852 39.246L16.4094 38.8217ZM14.1107 41.5448L16.4094 39.246L15.9852 38.8217L13.6864 41.1205L14.1107 41.5448ZM14.1152 42.2228C13.9269 42.0263 13.9332 41.7222 14.1107 41.5448L13.6864 41.1205C13.2698 41.5371 13.2762 42.2145 13.682 42.6379L14.1152 42.2228ZM14.7887 42.2138C14.5923 42.402 14.2881 42.3957 14.1107 42.2182L13.6864 42.6425C14.103 43.0591 14.7804 43.0528 15.2039 42.6469L14.7887 42.2138ZM17.0829 39.9195L14.7841 42.2182L15.2084 42.6425L17.5072 40.3437L17.0829 39.9195ZM19.8059 42.2182L17.5072 39.9195L17.0829 40.3437L19.3817 42.6425L19.8059 42.2182ZM20.484 42.2138C20.2875 42.402 19.9834 42.3957 19.8059 42.2182L19.3817 42.6425C19.7983 43.0591 20.4756 43.0528 20.8991 42.6469L20.484 42.2138ZM20.4749 41.5402C20.6632 41.7366 20.6568 42.0408 20.4794 42.2182L20.9037 42.6425C21.3203 42.2259 21.3139 41.5485 20.9081 41.1251L20.4749 41.5402ZM18.1806 39.246L20.4794 41.5448L20.9037 41.1205L18.6049 38.8217L18.1806 39.246ZM20.4794 36.523L18.1806 38.8217L18.6049 39.246L20.9037 36.9472L20.4794 36.523ZM20.484 35.854C20.6681 36.0305 20.6747 36.3276 20.4794 36.523L20.9037 36.9472C21.3282 36.5227 21.3348 35.8384 20.8991 35.4208L20.484 35.854ZM35.7982 25.9203C35.3816 25.5037 34.7042 25.51 34.2808 25.9158L34.6959 26.349C34.8923 26.1608 35.1965 26.1671 35.3739 26.3446L35.7982 25.9203ZM35.8027 27.4377C36.2109 27.0118 36.2109 26.3509 35.8027 25.9249L35.3695 26.34C35.5553 26.5339 35.5553 26.8287 35.3695 27.0226L35.8027 27.4377ZM33.4994 29.7411L35.7982 27.4423L35.3739 27.018L33.0752 29.3168L33.4994 29.7411ZM35.7982 31.6156L33.4994 29.3168L33.0752 29.7411L35.3739 32.0398L35.7982 31.6156ZM35.7982 33.1375C36.2148 32.7209 36.2085 32.0436 35.8027 31.6201L35.3695 32.0353C35.5577 32.2317 35.5514 32.5358 35.3739 32.7133L35.7982 33.1375ZM34.2762 33.1375C34.6928 33.5542 35.3702 33.5478 35.7936 33.142L35.3785 32.7088C35.182 32.8971 34.8779 32.8907 34.7005 32.7133L34.2762 33.1375ZM31.9774 30.8388L34.2762 33.1375L34.7005 32.7133L32.4017 30.4145L31.9774 30.8388ZM30.1029 33.1375L32.4017 30.8388L31.9774 30.4145L29.6787 32.7133L30.1029 33.1375ZM28.581 33.1375C28.9976 33.5542 29.6749 33.5478 30.0984 33.142L29.6832 32.7088C29.4868 32.8971 29.1827 32.8907 29.0052 32.7133L28.581 33.1375ZM28.581 31.6156C28.1643 32.0322 28.1707 32.7095 28.5765 33.133L29.0097 32.7178C28.8214 32.5214 28.8278 32.2173 29.0052 32.0398L28.581 31.6156ZM30.8797 29.3168L28.581 31.6156L29.0052 32.0398L31.304 29.7411L30.8797 29.3168ZM28.581 27.4423L30.8797 29.7411L31.304 29.3168L29.0052 27.018L28.581 27.4423ZM28.581 25.9203C28.1643 26.3369 28.1707 27.0143 28.5765 27.4377L29.0097 27.0226C28.8214 26.8262 28.8278 26.522 29.0052 26.3446L28.581 25.9203ZM30.1029 25.9203C29.6863 25.5037 29.009 25.51 28.5855 25.9158L29.0007 26.349C29.1971 26.1608 29.5012 26.1671 29.6787 26.3446L30.1029 25.9203ZM32.4017 28.2191L30.1029 25.9203L29.6787 26.3446L31.9774 28.6433L32.4017 28.2191ZM34.2762 25.9203L31.9774 28.2191L32.4017 28.6433L34.7005 26.3446L34.2762 25.9203Z" fill="white" mask="url(#path-1-inside-1_1091_291270)"/>
<mask id="path-3-inside-2_1091_291270" fill="white">
<path fill-rule="evenodd" clip-rule="evenodd" d="M21.7174 15.2713C21.7174 17.5701 19.8319 19.4556 17.5202 19.4556C15.2214 19.4556 13.3359 17.5701 13.3359 15.2713C13.5684 9.71815 21.4849 9.71815 21.7174 15.2713ZM20.1677 15.2713C20.1677 13.812 18.9795 12.6239 17.5202 12.6239C16.0738 12.6239 14.8857 13.7991 14.8857 15.2713C15.0277 18.7711 20.0256 18.7711 20.1677 15.2713ZM31.2578 17.9706C31.2578 15.6589 33.1433 13.7734 35.455 13.7734C37.7667 13.7734 39.6393 15.6589 39.6393 17.9706C39.4068 23.5237 31.4903 23.5237 31.2578 17.9706ZM32.8075 17.9706C32.8075 19.417 33.9957 20.6051 35.455 20.6051C36.9143 20.6051 38.0895 19.417 38.0895 17.9706C37.9475 14.4708 32.9496 14.4708 32.8075 17.9706ZM30.2749 40.6482C30.0941 39.0597 29.1255 35.3274 24.1147 32.977C21.0153 31.5177 19.6722 28.005 19.1427 25.887L21.6352 27.4497C22.5134 27.9662 23.314 26.7135 22.4617 26.1324L18.4582 23.6141C18.2903 23.5108 18.0708 23.472 17.8771 23.5108C17.6834 23.5495 17.5026 23.6787 17.3863 23.8465C17.3783 23.8465 16.4089 25.3908 15.6722 26.5643L15.6722 26.5643C15.2228 27.2802 14.86 27.858 14.8551 27.8629C14.5323 28.3666 14.9197 29.064 15.5138 29.051C15.772 29.051 16.0174 28.9219 16.1724 28.6894L17.6575 26.339C18.4582 29.6968 20.6537 33.1578 23.469 34.3718C27.6533 36.3348 28.5444 39.3309 28.7252 40.6611C26.8009 41.0485 25.3545 42.7403 25.3545 44.7679C25.587 50.334 33.5035 50.3211 33.736 44.7679C33.7231 42.7145 32.2379 40.9969 30.2749 40.6482ZM29.5388 47.4153C28.0795 47.4153 26.8913 46.2272 26.8913 44.7679C27.0334 41.2681 32.0313 41.2681 32.1733 44.7679C32.1733 46.2272 30.9981 47.4153 29.5388 47.4153ZM34.4883 26.1324C34.7983 25.8353 35.289 25.8353 35.5861 26.1324C35.8831 26.4423 35.8831 26.9202 35.5861 27.2301L33.2873 29.5289L35.5861 31.8276C35.8831 32.1376 35.8831 32.6283 35.5861 32.9254C35.2761 33.2224 34.7854 33.2224 34.4883 32.9254L32.1896 30.6266L29.8908 32.9254C29.5809 33.2224 29.0901 33.2224 28.7931 32.9254C28.4961 32.6154 28.4961 32.1247 28.7931 31.8276L31.0919 29.5289L28.7931 27.2301C28.4961 26.9202 28.4961 26.4294 28.7931 26.1324C29.103 25.8353 29.5938 25.8353 29.8908 26.1324L32.1896 28.4311L34.4883 26.1324Z"/>
</mask>
<path fill-rule="evenodd" clip-rule="evenodd" d="M21.7174 15.2713C21.7174 17.5701 19.8319 19.4556 17.5202 19.4556C15.2214 19.4556 13.3359 17.5701 13.3359 15.2713C13.5684 9.71815 21.4849 9.71815 21.7174 15.2713ZM20.1677 15.2713C20.1677 13.812 18.9795 12.6239 17.5202 12.6239C16.0738 12.6239 14.8857 13.7991 14.8857 15.2713C15.0277 18.7711 20.0256 18.7711 20.1677 15.2713ZM31.2578 17.9706C31.2578 15.6589 33.1433 13.7734 35.455 13.7734C37.7667 13.7734 39.6393 15.6589 39.6393 17.9706C39.4068 23.5237 31.4903 23.5237 31.2578 17.9706ZM32.8075 17.9706C32.8075 19.417 33.9957 20.6051 35.455 20.6051C36.9143 20.6051 38.0895 19.417 38.0895 17.9706C37.9475 14.4708 32.9496 14.4708 32.8075 17.9706ZM30.2749 40.6482C30.0941 39.0597 29.1255 35.3274 24.1147 32.977C21.0153 31.5177 19.6722 28.005 19.1427 25.887L21.6352 27.4497C22.5134 27.9662 23.314 26.7135 22.4617 26.1324L18.4582 23.6141C18.2903 23.5108 18.0708 23.472 17.8771 23.5108C17.6834 23.5495 17.5026 23.6787 17.3863 23.8465C17.3783 23.8465 16.4089 25.3908 15.6722 26.5643L15.6722 26.5643C15.2228 27.2802 14.86 27.858 14.8551 27.8629C14.5323 28.3666 14.9197 29.064 15.5138 29.051C15.772 29.051 16.0174 28.9219 16.1724 28.6894L17.6575 26.339C18.4582 29.6968 20.6537 33.1578 23.469 34.3718C27.6533 36.3348 28.5444 39.3309 28.7252 40.6611C26.8009 41.0485 25.3545 42.7403 25.3545 44.7679C25.587 50.334 33.5035 50.3211 33.736 44.7679C33.7231 42.7145 32.2379 40.9969 30.2749 40.6482ZM29.5388 47.4153C28.0795 47.4153 26.8913 46.2272 26.8913 44.7679C27.0334 41.2681 32.0313 41.2681 32.1733 44.7679C32.1733 46.2272 30.9981 47.4153 29.5388 47.4153ZM34.4883 26.1324C34.7983 25.8353 35.289 25.8353 35.5861 26.1324C35.8831 26.4423 35.8831 26.9202 35.5861 27.2301L33.2873 29.5289L35.5861 31.8276C35.8831 32.1376 35.8831 32.6283 35.5861 32.9254C35.2761 33.2224 34.7854 33.2224 34.4883 32.9254L32.1896 30.6266L29.8908 32.9254C29.5809 33.2224 29.0901 33.2224 28.7931 32.9254C28.4961 32.6154 28.4961 32.1247 28.7931 31.8276L31.0919 29.5289L28.7931 27.2301C28.4961 26.9202 28.4961 26.4294 28.7931 26.1324C29.103 25.8353 29.5938 25.8353 29.8908 26.1324L32.1896 28.4311L34.4883 26.1324Z" fill="#E6B400"/>
<path d="M21.7174 15.2713H22.0176L22.0171 15.2588L21.7174 15.2713ZM13.3359 15.2713L13.0359 15.2588V15.2713H13.3359ZM20.1677 15.2713L20.4677 15.2835V15.2713H20.1677ZM14.8857 15.2713H14.5854L14.5859 15.2835L14.8857 15.2713ZM31.2578 17.9706H30.9576L30.9581 17.9831L31.2578 17.9706ZM39.6393 17.9706L39.9393 17.9831V17.9706H39.6393ZM32.8075 17.9706L32.5075 17.9584V17.9706H32.8075ZM38.0895 17.9706H38.3898L38.3893 17.9584L38.0895 17.9706ZM24.1147 32.977L23.9869 33.2484L23.9873 33.2486L24.1147 32.977ZM30.2749 40.6482L29.9768 40.6821L30.0021 40.9044L30.2224 40.9436L30.2749 40.6482ZM19.1427 25.887L19.3021 25.6328L18.671 25.2372L18.8517 25.9598L19.1427 25.887ZM21.6352 27.4497L21.4758 27.7039L21.4831 27.7082L21.6352 27.4497ZM22.4617 26.1324L22.6308 25.8844L22.6214 25.8785L22.4617 26.1324ZM18.4582 23.6141L18.618 23.3601L18.6155 23.3586L18.4582 23.6141ZM17.3863 23.8465V24.1465H17.5435L17.633 24.0173L17.3863 23.8465ZM15.6722 26.5643L15.4181 26.4047L15.4178 26.4053L15.6722 26.5643ZM15.6722 26.5643L15.9263 26.7238L15.9266 26.7233L15.6722 26.5643ZM14.8551 27.8629L14.643 27.6508L14.62 27.6737L14.6026 27.701L14.8551 27.8629ZM15.5138 29.051V28.751L15.5072 28.7511L15.5138 29.051ZM16.1724 28.6894L16.4221 28.8559L16.426 28.8497L16.1724 28.6894ZM17.6575 26.339L17.9494 26.2694L17.7842 25.5769L17.4039 26.1788L17.6575 26.339ZM23.469 34.3718L23.5965 34.1L23.5878 34.0963L23.469 34.3718ZM28.7252 40.6611L28.7844 40.9552L29.0604 40.8996L29.0225 40.6207L28.7252 40.6611ZM25.3545 44.7679H25.0543L25.0548 44.7804L25.3545 44.7679ZM33.736 44.7679L34.0357 44.7804L34.036 44.7732L34.036 44.766L33.736 44.7679ZM26.8913 44.7679L26.5913 44.7557V44.7679H26.8913ZM32.1733 44.7679H32.4736L32.4731 44.7557L32.1733 44.7679ZM35.5861 26.1324L35.8027 25.9248L35.7982 25.9202L35.5861 26.1324ZM34.4883 26.1324L34.2807 25.9157L34.2762 25.9202L34.4883 26.1324ZM35.5861 27.2301L35.7982 27.4423L35.8027 27.4377L35.5861 27.2301ZM33.2873 29.5289L33.0752 29.3167L32.863 29.5289L33.0752 29.741L33.2873 29.5289ZM35.5861 31.8276L35.8027 31.62L35.7982 31.6155L35.5861 31.8276ZM35.5861 32.9254L35.7937 33.142L35.7982 33.1375L35.5861 32.9254ZM34.4883 32.9254L34.2762 33.1375L34.4883 32.9254ZM32.1896 30.6266L32.4017 30.4145L32.1896 30.2023L31.9774 30.4145L32.1896 30.6266ZM29.8908 32.9254L30.0984 33.142L30.1029 33.1375L29.8908 32.9254ZM28.7931 32.9254L28.5764 33.133L28.581 33.1375L28.7931 32.9254ZM28.7931 31.8276L28.581 31.6155L28.7931 31.8276ZM31.0919 29.5289L31.304 29.741L31.5161 29.5289L31.304 29.3167L31.0919 29.5289ZM28.7931 27.2301L28.5764 27.4377L28.581 27.4422L28.7931 27.2301ZM28.7931 26.1324L28.5855 25.9157L28.581 25.9202L28.7931 26.1324ZM29.8908 26.1324L29.6787 26.3445L29.8908 26.1324ZM32.1896 28.4311L31.9774 28.6433L32.1896 28.8554L32.4017 28.6433L32.1896 28.4311ZM17.5202 19.7556C19.997 19.7556 22.0174 17.7364 22.0174 15.2713H21.4174C21.4174 17.4038 19.6668 19.1556 17.5202 19.1556V19.7556ZM13.0359 15.2713C13.0359 17.7358 15.0558 19.7556 17.5202 19.7556V19.1556C15.3871 19.1556 13.6359 17.4044 13.6359 15.2713H13.0359ZM22.0171 15.2588C21.7686 9.32233 13.2847 9.32233 13.0362 15.2588L13.6357 15.2839C13.8521 10.114 21.2012 10.114 21.4176 15.2839L22.0171 15.2588ZM17.5202 12.9239C18.8138 12.9239 19.8677 13.9777 19.8677 15.2713H20.4677C20.4677 13.6463 19.1452 12.3239 17.5202 12.3239V12.9239ZM15.1857 15.2713C15.1857 13.9648 16.2395 12.9239 17.5202 12.9239V12.3239C15.9081 12.3239 14.5857 13.6334 14.5857 15.2713H15.1857ZM19.8679 15.2592C19.7414 18.3752 15.3119 18.3752 15.1854 15.2592L14.5859 15.2835C14.7435 19.1671 20.3098 19.1671 20.4674 15.2835L19.8679 15.2592ZM35.455 13.4734C32.9776 13.4734 30.9578 15.4932 30.9578 17.9706H31.5578C31.5578 15.8246 33.309 14.0734 35.455 14.0734V13.4734ZM39.9393 17.9706C39.9393 15.4944 37.9336 13.4734 35.455 13.4734V14.0734C37.5998 14.0734 39.3393 15.8234 39.3393 17.9706H39.9393ZM30.9581 17.9831C31.2066 23.9196 39.6905 23.9196 39.939 17.9831L39.3395 17.958C39.1231 23.1279 31.774 23.1279 31.5576 17.958L30.9581 17.9831ZM35.455 20.3051C34.1604 20.3051 33.1075 19.2503 33.1075 17.9706H32.5075C32.5075 19.5836 33.8309 20.9051 35.455 20.9051V20.3051ZM37.7895 17.9706C37.7895 19.2522 36.7477 20.3051 35.455 20.3051V20.9051C37.081 20.9051 38.3895 19.5817 38.3895 17.9706H37.7895ZM33.1073 17.9827C33.2338 14.8667 37.6633 14.8667 37.7898 17.9827L38.3893 17.9584C38.2316 14.0748 32.6654 14.0748 32.5078 17.9584L33.1073 17.9827ZM23.9873 33.2486C28.8788 35.5431 29.8043 39.1663 29.9768 40.6821L30.573 40.6143C30.3839 38.9531 29.3723 35.1118 24.2421 32.7054L23.9873 33.2486ZM18.8517 25.9598C19.3843 28.0904 20.7555 31.727 23.9869 33.2484L24.2425 32.7056C21.2751 31.3084 19.9601 27.9196 19.4337 25.8143L18.8517 25.9598ZM21.7945 27.1955L19.3021 25.6328L18.9833 26.1412L21.4758 27.7038L21.7945 27.1955ZM22.2927 26.3803C22.8316 26.7477 22.3256 27.5077 21.7873 27.1911L21.4831 27.7082C22.7012 28.4248 23.7965 26.6794 22.6307 25.8845L22.2927 26.3803ZM18.2985 23.868L22.302 26.3863L22.6214 25.8785L18.618 23.3601L18.2985 23.868ZM17.9359 23.8049C18.056 23.7809 18.1982 23.8063 18.301 23.8696L18.6155 23.3586C18.3825 23.2152 18.0856 23.1631 17.8183 23.2166L17.9359 23.8049ZM17.633 24.0173C17.7111 23.9045 17.8284 23.8265 17.9359 23.8049L17.8183 23.2166C17.5384 23.2726 17.294 23.4528 17.1397 23.6758L17.633 24.0173ZM15.9263 26.7238C16.2946 26.137 16.7211 25.4578 17.0564 24.9252C17.2241 24.6589 17.3688 24.4296 17.472 24.2669C17.5237 24.1855 17.5646 24.1214 17.5927 24.0778C17.6069 24.0558 17.6171 24.0402 17.6236 24.0304C17.6271 24.0252 17.6282 24.0236 17.6277 24.0242C17.6275 24.0246 17.6269 24.0255 17.6259 24.0267C17.6251 24.0278 17.6232 24.0304 17.6206 24.0337C17.6191 24.0357 17.6124 24.0441 17.6028 24.0542C17.5986 24.0585 17.587 24.0705 17.5701 24.0836C17.5611 24.0904 17.5376 24.1056 17.523 24.1136C17.4988 24.1247 17.4305 24.1433 17.3863 24.1465V23.5465C17.3421 23.5498 17.2738 23.5684 17.2496 23.5795C17.2349 23.5876 17.2114 23.6028 17.2023 23.6096C17.1853 23.6228 17.1735 23.6349 17.1692 23.6394C17.1592 23.6499 17.1521 23.6589 17.1499 23.6616C17.1443 23.6688 17.1398 23.6751 17.1379 23.6778C17.1333 23.6843 17.1284 23.6915 17.1241 23.6979C17.1152 23.7114 17.103 23.73 17.0885 23.7526C17.0592 23.7981 17.0173 23.8637 16.9654 23.9454C16.8616 24.109 16.7164 24.3391 16.5486 24.6055C16.2131 25.1385 15.7864 25.8181 15.4181 26.4047L15.9263 26.7238ZM15.9266 26.7233L15.9266 26.7233L15.4178 26.4053L15.4178 26.4053L15.9266 26.7233ZM15.0673 28.075C15.0775 28.0648 15.0847 28.0561 15.0871 28.0532C15.0904 28.0491 15.093 28.0458 15.0944 28.0438C15.0974 28.0399 15.0997 28.0367 15.1007 28.0352C15.103 28.032 15.1049 28.0292 15.1058 28.0278C15.1079 28.0247 15.11 28.0215 15.1118 28.0187C15.1155 28.013 15.1204 28.0054 15.1261 27.9964C15.1378 27.9781 15.1544 27.9519 15.1753 27.9188C15.2172 27.8525 15.2772 27.7572 15.3509 27.6399C15.4985 27.4052 15.7016 27.0817 15.9263 26.7238L15.4181 26.4048C15.1934 26.7628 14.9904 27.0861 14.843 27.3205C14.7693 27.4378 14.7096 27.5326 14.668 27.5984C14.6472 27.6313 14.6312 27.6567 14.6202 27.6738C14.6147 27.6824 14.6109 27.6884 14.6085 27.692C14.6073 27.694 14.607 27.6944 14.6074 27.6938C14.6075 27.6937 14.6087 27.6919 14.6105 27.6893C14.6113 27.6882 14.6134 27.6853 14.6162 27.6816C14.6176 27.6797 14.62 27.6765 14.6233 27.6725C14.6256 27.6697 14.6328 27.661 14.643 27.6508L15.0673 28.075ZM15.5072 28.7511C15.1573 28.7587 14.9122 28.3297 15.1077 28.0248L14.6026 27.701C14.1523 28.4034 14.6821 29.3692 15.5203 29.351L15.5072 28.7511ZM15.9228 28.523C15.8219 28.6743 15.669 28.751 15.5138 28.751V29.351C15.875 29.351 16.2129 29.1695 16.422 28.8559L15.9228 28.523ZM17.4039 26.1788L15.9188 28.5292L16.426 28.8497L17.9112 26.4993L17.4039 26.1788ZM23.5878 34.0963C22.2468 33.5181 21.034 32.3947 20.0539 30.9878C19.0753 29.583 18.3413 27.913 17.9494 26.2694L17.3657 26.4086C17.7745 28.1227 18.5386 29.8622 19.5616 31.3308C20.5833 32.7974 21.8759 34.0116 23.3502 34.6473L23.5878 34.0963ZM29.0225 40.6207C28.8311 39.2126 27.8921 36.1154 23.5964 34.1002L23.3416 34.6434C27.4145 36.5541 28.2577 39.4492 28.4279 40.7015L29.0225 40.6207ZM25.6545 44.7679C25.6545 42.8868 26.9966 41.3152 28.7844 40.9552L28.666 40.367C26.6053 40.7819 25.0545 42.5938 25.0545 44.7679H25.6545ZM33.4362 44.7553C33.2195 49.9333 25.8704 49.9301 25.6543 44.7554L25.0548 44.7804C25.3036 50.7378 33.7875 50.7089 34.0357 44.7804L33.4362 44.7553ZM30.2224 40.9436C32.0441 41.2671 33.424 42.8623 33.436 44.7698L34.036 44.766C34.0221 42.5667 32.4317 40.7266 30.3274 40.3528L30.2224 40.9436ZM26.5913 44.7679C26.5913 46.3929 27.9138 47.7153 29.5388 47.7153V47.1153C28.2452 47.1153 27.1913 46.0615 27.1913 44.7679H26.5913ZM32.4731 44.7557C32.3154 40.8721 26.7492 40.8721 26.5916 44.7557L27.1911 44.78C27.3176 41.664 31.7471 41.664 31.8736 44.78L32.4731 44.7557ZM29.5388 47.7153C31.1657 47.7153 32.4733 46.391 32.4733 44.7679H31.8733C31.8733 46.0634 30.8305 47.1153 29.5388 47.1153V47.7153ZM35.7982 25.9202C35.3816 25.5036 34.7042 25.51 34.2808 25.9158L34.6959 26.349C34.8923 26.1607 35.1965 26.1671 35.3739 26.3445L35.7982 25.9202ZM35.8027 27.4377C36.2109 27.0117 36.2109 26.3508 35.8027 25.9248L35.3695 26.34C35.5553 26.5339 35.5553 26.8286 35.3695 27.0225L35.8027 27.4377ZM33.4994 29.741L35.7982 27.4422L35.3739 27.018L33.0752 29.3167L33.4994 29.741ZM35.7982 31.6155L33.4994 29.3167L33.0752 29.741L35.3739 32.0398L35.7982 31.6155ZM35.7982 33.1375C36.2148 32.7209 36.2085 32.0435 35.8027 31.6201L35.3695 32.0352C35.5577 32.2316 35.5514 32.5358 35.3739 32.7132L35.7982 33.1375ZM34.2762 33.1375C34.6928 33.5541 35.3702 33.5478 35.7936 33.142L35.3785 32.7088C35.182 32.897 34.8779 32.8907 34.7005 32.7132L34.2762 33.1375ZM31.9774 30.8387L34.2762 33.1375L34.7005 32.7132L32.4017 30.4145L31.9774 30.8387ZM30.1029 33.1375L32.4017 30.8387L31.9774 30.4145L29.6787 32.7132L30.1029 33.1375ZM28.581 33.1375C28.9976 33.5541 29.6749 33.5478 30.0984 33.142L29.6832 32.7088C29.4868 32.897 29.1827 32.8907 29.0052 32.7132L28.581 33.1375ZM28.581 31.6155C28.1643 32.0321 28.1707 32.7095 28.5765 33.1329L29.0097 32.7178C28.8214 32.5213 28.8278 32.2172 29.0052 32.0398L28.581 31.6155ZM30.8797 29.3167L28.581 31.6155L29.0052 32.0398L31.304 29.741L30.8797 29.3167ZM28.581 27.4422L30.8797 29.741L31.304 29.3167L29.0052 27.018L28.581 27.4422ZM28.581 25.9202C28.1643 26.3369 28.1707 27.0142 28.5765 27.4377L29.0097 27.0225C28.8214 26.8261 28.8278 26.522 29.0052 26.3445L28.581 25.9202ZM30.1029 25.9202C29.6863 25.5036 29.009 25.51 28.5855 25.9158L29.0007 26.349C29.1971 26.1607 29.5012 26.1671 29.6787 26.3445L30.1029 25.9202ZM32.4017 28.219L30.1029 25.9202L29.6787 26.3445L31.9774 28.6433L32.4017 28.219ZM34.2762 25.9202L31.9774 28.219L32.4017 28.6433L34.7005 26.3445L34.2762 25.9202Z" fill="white" mask="url(#path-3-inside-2_1091_291270)"/>
</svg>
