<svg width="36" height="36" viewBox="0 0 36 36" fill="none" xmlns="http://www.w3.org/2000/svg">
<mask id="path-1-inside-1_1091_303988" fill="white">
<path fill-rule="evenodd" clip-rule="evenodd" d="M24.4219 3.26796H28.5168C29.6612 3.26796 30.6 4.19779 30.5821 5.34221V33.9168C30.5821 35.0612 29.6433 36 28.4989 36H7.62225C6.47784 36 5.53906 35.0612 5.53906 33.9168V5.35115C5.53906 4.20673 6.47784 3.26796 7.62225 3.26796H11.583V2.29341C11.583 1.99837 11.8244 1.75697 12.1194 1.75697H15.6421C15.7583 1.75697 15.8567 1.68544 15.8924 1.57816C16.116 0.889719 16.6613 0.344333 17.3498 0.120815C17.9309 -0.0758815 18.5568 -0.0311777 19.1022 0.245985C19.6475 0.523148 20.0499 0.997007 20.2466 1.57816C20.2823 1.68544 20.3807 1.75697 20.4969 1.75697H23.8855C24.1805 1.75697 24.4219 1.99837 24.4219 2.29341V3.26796ZM15.651 2.82986H12.6648V4.84153H23.358V2.82986H20.5059C19.9247 2.82986 19.4151 2.45435 19.2363 1.90896C19.0396 1.28311 18.3064 0.9076 17.6895 1.13112C17.323 1.25629 17.0369 1.54239 16.9117 1.90896C16.7329 2.45435 16.2322 2.82986 15.651 2.82986ZM28.5168 34.9182C29.0711 34.9182 29.5271 34.4622 29.5271 33.9079V5.35115C29.5271 4.79682 29.0711 4.34084 28.5168 4.34084H24.4308V5.36903C24.4308 5.66407 24.1894 5.90547 23.8944 5.90547H12.1373C11.8423 5.90547 11.6009 5.66407 11.6009 5.36903V4.3319H7.64014C7.08581 4.3319 6.62983 4.78788 6.62983 5.34221V33.9079C6.62983 34.4622 7.08581 34.9182 7.64014 34.9182H28.5168ZM15.0369 10.5709C15.0369 12.1623 13.7316 13.4677 12.1312 13.4677C10.5397 13.4677 9.23438 12.1623 9.23438 10.5709C9.39531 6.72637 14.876 6.72637 15.0369 10.5709ZM13.964 10.5709C13.964 9.56059 13.1415 8.73804 12.1312 8.73804C11.1298 8.73804 10.3073 9.55164 10.3073 10.5709C10.4056 12.9938 13.8657 12.9938 13.964 10.5709ZM24.5464 9.53906C22.946 9.53906 21.6406 10.8444 21.6406 12.4448C21.8016 16.2893 27.2822 16.2893 27.4432 12.4448C27.4432 10.8444 26.1468 9.53906 24.5464 9.53906ZM24.5464 14.2687C23.5361 14.2687 22.7135 13.4462 22.7135 12.4448C22.8119 10.0219 26.2719 10.0219 26.3703 12.4448C26.3703 13.4462 25.5567 14.2687 24.5464 14.2687ZM16.6945 22.8294C20.1635 24.4566 20.8341 27.0405 20.9593 28.1402C22.3182 28.3816 23.3464 29.5707 23.3554 30.9923C23.1944 34.8368 17.7138 34.8457 17.5528 30.9923C17.5528 29.5886 18.5542 28.4174 19.8864 28.1491C19.7612 27.2282 19.1443 25.154 16.2475 23.795C14.2984 22.9546 12.7785 20.5584 12.2242 18.2338L11.196 19.8611C11.0887 20.022 10.9188 20.1114 10.74 20.1114C10.3287 20.1203 10.0605 19.6375 10.284 19.2889C10.2874 19.2855 10.5385 18.8855 10.8496 18.3899L10.8498 18.3895L10.8501 18.3892C11.36 17.5769 12.0308 16.5083 12.0364 16.5083C12.1169 16.3921 12.242 16.3027 12.3761 16.2758C12.5103 16.249 12.6622 16.2758 12.7785 16.3474L15.5501 18.0908C16.1402 18.4931 15.5859 19.3604 14.9779 19.0028L13.2523 17.9209C13.6189 19.3872 14.5487 21.8191 16.6945 22.8294ZM18.6168 30.9923C18.6168 32.0026 19.4393 32.8251 20.4496 32.8251C21.4599 32.8251 22.2735 32.0026 22.2735 30.9923C22.1752 28.5693 18.7151 28.5693 18.6168 30.9923ZM14.3258 24.6699C14.1202 24.4642 13.7804 24.4642 13.5658 24.6699L11.9744 26.2613L10.3829 24.6699C10.1773 24.4642 9.83756 24.4642 9.62298 24.6699C9.41734 24.8755 9.41734 25.2152 9.62298 25.4298L11.2144 27.0213L9.62298 28.6127C9.41734 28.8184 9.41734 29.1581 9.62298 29.3727C9.82861 29.5783 10.1684 29.5783 10.3829 29.3727L11.9744 27.7812L13.5658 29.3727C13.7715 29.5783 14.1112 29.5783 14.3258 29.3727C14.5314 29.167 14.5314 28.8273 14.3258 28.6127L12.7344 27.0213L14.3258 25.4298C14.5404 25.2152 14.5404 24.8755 14.3258 24.6699ZM23.8783 18.0917C24.0929 17.8861 24.4327 17.8861 24.6383 18.0917C24.8439 18.3063 24.8439 18.6371 24.6383 18.8517L23.0469 20.4431L24.6383 22.0346C24.8439 22.2492 24.8439 22.5889 24.6383 22.7946C24.4237 23.0002 24.084 23.0002 23.8783 22.7946L22.2869 21.2031L20.6954 22.7946C20.4809 23.0002 20.1411 23.0002 19.9355 22.7946C19.7298 22.58 19.7298 22.2402 19.9355 22.0346L21.5269 20.4431L19.9355 18.8517C19.7298 18.6371 19.7298 18.2974 19.9355 18.0917C20.1501 17.8861 20.4898 17.8861 20.6954 18.0917L22.2869 19.6832L23.8783 18.0917Z"/>
</mask>
<path fill-rule="evenodd" clip-rule="evenodd" d="M24.4219 3.26796H28.5168C29.6612 3.26796 30.6 4.19779 30.5821 5.34221V33.9168C30.5821 35.0612 29.6433 36 28.4989 36H7.62225C6.47784 36 5.53906 35.0612 5.53906 33.9168V5.35115C5.53906 4.20673 6.47784 3.26796 7.62225 3.26796H11.583V2.29341C11.583 1.99837 11.8244 1.75697 12.1194 1.75697H15.6421C15.7583 1.75697 15.8567 1.68544 15.8924 1.57816C16.116 0.889719 16.6613 0.344333 17.3498 0.120815C17.9309 -0.0758815 18.5568 -0.0311777 19.1022 0.245985C19.6475 0.523148 20.0499 0.997007 20.2466 1.57816C20.2823 1.68544 20.3807 1.75697 20.4969 1.75697H23.8855C24.1805 1.75697 24.4219 1.99837 24.4219 2.29341V3.26796ZM15.651 2.82986H12.6648V4.84153H23.358V2.82986H20.5059C19.9247 2.82986 19.4151 2.45435 19.2363 1.90896C19.0396 1.28311 18.3064 0.9076 17.6895 1.13112C17.323 1.25629 17.0369 1.54239 16.9117 1.90896C16.7329 2.45435 16.2322 2.82986 15.651 2.82986ZM28.5168 34.9182C29.0711 34.9182 29.5271 34.4622 29.5271 33.9079V5.35115C29.5271 4.79682 29.0711 4.34084 28.5168 4.34084H24.4308V5.36903C24.4308 5.66407 24.1894 5.90547 23.8944 5.90547H12.1373C11.8423 5.90547 11.6009 5.66407 11.6009 5.36903V4.3319H7.64014C7.08581 4.3319 6.62983 4.78788 6.62983 5.34221V33.9079C6.62983 34.4622 7.08581 34.9182 7.64014 34.9182H28.5168ZM15.0369 10.5709C15.0369 12.1623 13.7316 13.4677 12.1312 13.4677C10.5397 13.4677 9.23438 12.1623 9.23438 10.5709C9.39531 6.72637 14.876 6.72637 15.0369 10.5709ZM13.964 10.5709C13.964 9.56059 13.1415 8.73804 12.1312 8.73804C11.1298 8.73804 10.3073 9.55164 10.3073 10.5709C10.4056 12.9938 13.8657 12.9938 13.964 10.5709ZM24.5464 9.53906C22.946 9.53906 21.6406 10.8444 21.6406 12.4448C21.8016 16.2893 27.2822 16.2893 27.4432 12.4448C27.4432 10.8444 26.1468 9.53906 24.5464 9.53906ZM24.5464 14.2687C23.5361 14.2687 22.7135 13.4462 22.7135 12.4448C22.8119 10.0219 26.2719 10.0219 26.3703 12.4448C26.3703 13.4462 25.5567 14.2687 24.5464 14.2687ZM16.6945 22.8294C20.1635 24.4566 20.8341 27.0405 20.9593 28.1402C22.3182 28.3816 23.3464 29.5707 23.3554 30.9923C23.1944 34.8368 17.7138 34.8457 17.5528 30.9923C17.5528 29.5886 18.5542 28.4174 19.8864 28.1491C19.7612 27.2282 19.1443 25.154 16.2475 23.795C14.2984 22.9546 12.7785 20.5584 12.2242 18.2338L11.196 19.8611C11.0887 20.022 10.9188 20.1114 10.74 20.1114C10.3287 20.1203 10.0605 19.6375 10.284 19.2889C10.2874 19.2855 10.5385 18.8855 10.8496 18.3899L10.8498 18.3895L10.8501 18.3892C11.36 17.5769 12.0308 16.5083 12.0364 16.5083C12.1169 16.3921 12.242 16.3027 12.3761 16.2758C12.5103 16.249 12.6622 16.2758 12.7785 16.3474L15.5501 18.0908C16.1402 18.4931 15.5859 19.3604 14.9779 19.0028L13.2523 17.9209C13.6189 19.3872 14.5487 21.8191 16.6945 22.8294ZM18.6168 30.9923C18.6168 32.0026 19.4393 32.8251 20.4496 32.8251C21.4599 32.8251 22.2735 32.0026 22.2735 30.9923C22.1752 28.5693 18.7151 28.5693 18.6168 30.9923ZM14.3258 24.6699C14.1202 24.4642 13.7804 24.4642 13.5658 24.6699L11.9744 26.2613L10.3829 24.6699C10.1773 24.4642 9.83756 24.4642 9.62298 24.6699C9.41734 24.8755 9.41734 25.2152 9.62298 25.4298L11.2144 27.0213L9.62298 28.6127C9.41734 28.8184 9.41734 29.1581 9.62298 29.3727C9.82861 29.5783 10.1684 29.5783 10.3829 29.3727L11.9744 27.7812L13.5658 29.3727C13.7715 29.5783 14.1112 29.5783 14.3258 29.3727C14.5314 29.167 14.5314 28.8273 14.3258 28.6127L12.7344 27.0213L14.3258 25.4298C14.5404 25.2152 14.5404 24.8755 14.3258 24.6699ZM23.8783 18.0917C24.0929 17.8861 24.4327 17.8861 24.6383 18.0917C24.8439 18.3063 24.8439 18.6371 24.6383 18.8517L23.0469 20.4431L24.6383 22.0346C24.8439 22.2492 24.8439 22.5889 24.6383 22.7946C24.4237 23.0002 24.084 23.0002 23.8783 22.7946L22.2869 21.2031L20.6954 22.7946C20.4809 23.0002 20.1411 23.0002 19.9355 22.7946C19.7298 22.58 19.7298 22.2402 19.9355 22.0346L21.5269 20.4431L19.9355 18.8517C19.7298 18.6371 19.7298 18.2974 19.9355 18.0917C20.1501 17.8861 20.4898 17.8861 20.6954 18.0917L22.2869 19.6832L23.8783 18.0917Z" fill="black"/>
<path d="M24.4219 3.26796H24.2142V3.47565H24.4219V3.26796ZM30.5821 5.34221L30.3744 5.33896V5.34221H30.5821ZM11.583 3.26796V3.47565H11.7907V3.26796H11.583ZM15.8924 1.57816L16.0895 1.64384L16.09 1.64229L15.8924 1.57816ZM17.3498 0.120815L17.4139 0.318371L17.4164 0.317544L17.3498 0.120815ZM19.1022 0.245985L19.1963 0.0608307V0.0608306L19.1022 0.245985ZM20.2466 1.57816L20.4436 1.51248L20.4433 1.51157L20.2466 1.57816ZM12.6648 2.82986V2.62217H12.4571V2.82986H12.6648ZM12.6648 4.84153H12.4571V5.04922H12.6648V4.84153ZM23.358 4.84153V5.04922H23.5656V4.84153H23.358ZM23.358 2.82986H23.5656V2.62217H23.358V2.82986ZM19.2363 1.90896L19.0381 1.97124L19.0389 1.97367L19.2363 1.90896ZM17.6895 1.13112L17.7567 1.3277L17.7603 1.32639L17.6895 1.13112ZM16.9117 1.90896L16.7151 1.84184L16.7143 1.84426L16.9117 1.90896ZM24.4308 4.34084V4.13315H24.2232V4.34084H24.4308ZM11.6009 4.3319H11.8086V4.12421H11.6009V4.3319ZM15.0369 10.5709H15.2448L15.2444 10.5622L15.0369 10.5709ZM9.23438 10.5709L9.02668 10.5622V10.5709H9.23438ZM13.964 10.5709L14.1717 10.5793V10.5709H13.964ZM10.3073 10.5709H10.0994L10.0997 10.5793L10.3073 10.5709ZM21.6406 12.4448H21.4328L21.4331 12.4535L21.6406 12.4448ZM27.4432 12.4448L27.6509 12.4535V12.4448H27.4432ZM22.7135 12.4448L22.5058 12.4364V12.4448H22.7135ZM26.3703 12.4448H26.5781L26.5778 12.4364L26.3703 12.4448ZM20.9593 28.1402L20.7529 28.1637L20.7704 28.3176L20.9229 28.3447L20.9593 28.1402ZM16.6945 22.8294L16.606 23.0173L16.6063 23.0174L16.6945 22.8294ZM23.3554 30.9923L23.5631 31.001L23.5631 30.991L23.3554 30.9923ZM17.5528 30.9923H17.345L17.3453 31.0009L17.5528 30.9923ZM19.8864 28.1491L19.9274 28.3527L20.1184 28.3143L20.0922 28.1212L19.8864 28.1491ZM16.2475 23.795L16.3357 23.6069L16.3297 23.6043L16.2475 23.795ZM12.2242 18.2338L12.4262 18.1857L12.3119 17.7062L12.0486 18.1229L12.2242 18.2338ZM11.196 19.8611L11.3688 19.9763L11.3715 19.972L11.196 19.8611ZM10.74 20.1114V19.9037L10.7355 19.9038L10.74 20.1114ZM10.284 19.2889L10.1372 19.142L10.1213 19.1579L10.1092 19.1768L10.284 19.2889ZM10.8496 18.3899L11.0255 18.5003L11.0256 18.5002L10.8496 18.3899ZM10.8498 18.3895L10.674 18.279L10.6739 18.2792L10.8498 18.3895ZM10.8501 18.3892L11.0259 18.4997L11.026 18.4996L10.8501 18.3892ZM12.0364 16.5083V16.716H12.1452L12.2072 16.6265L12.0364 16.5083ZM12.3761 16.2758L12.3354 16.0722H12.3354L12.3761 16.2758ZM12.7785 16.3474L12.8891 16.1715L12.8873 16.1705L12.7785 16.3474ZM15.5501 18.0908L15.6672 17.9191L15.6607 17.915L15.5501 18.0908ZM14.9779 19.0028L14.8675 19.1788L14.8726 19.1818L14.9779 19.0028ZM13.2523 17.9209L13.3627 17.745L12.9258 17.4711L13.0508 17.9713L13.2523 17.9209ZM18.6168 30.9923L18.4091 30.9839V30.9923H18.6168ZM22.2735 30.9923H22.4814L22.4811 30.9839L22.2735 30.9923ZM13.5658 24.6699L13.4221 24.5199L13.419 24.523L13.5658 24.6699ZM14.3258 24.6699L14.1789 24.8167L14.1821 24.8198L14.3258 24.6699ZM11.9744 26.2613L11.8275 26.4082L11.9744 26.555L12.1213 26.4082L11.9744 26.2613ZM10.3829 24.6699L10.2361 24.8167L10.3829 24.6699ZM9.62298 24.6699L9.47924 24.5199L9.47612 24.523L9.62298 24.6699ZM9.62298 25.4298L9.47299 25.5736L9.47612 25.5767L9.62298 25.4298ZM11.2144 27.0213L11.3613 27.1681L11.5081 27.0213L11.3613 26.8744L11.2144 27.0213ZM9.62298 28.6127L9.76984 28.7596L9.62298 28.6127ZM9.62298 29.3727L9.47299 29.5164L9.47612 29.5195L9.62298 29.3727ZM10.3829 29.3727L10.5267 29.5227L10.5298 29.5195L10.3829 29.3727ZM11.9744 27.7812L12.1213 27.6344L11.9744 27.4875L11.8275 27.6344L11.9744 27.7812ZM13.5658 29.3727L13.7127 29.2258H13.7127L13.5658 29.3727ZM14.3258 29.3727L14.4695 29.5227L14.4727 29.5195L14.3258 29.3727ZM14.3258 28.6127L14.4758 28.469L14.4727 28.4659L14.3258 28.6127ZM12.7344 27.0213L12.5875 26.8744L12.4406 27.0213L12.5875 27.1681L12.7344 27.0213ZM14.3258 25.4298L14.1789 25.283L14.3258 25.4298ZM24.6383 18.0917L24.7883 17.948L24.7852 17.9449L24.6383 18.0917ZM23.8783 18.0917L23.7346 17.9417L23.7315 17.9449L23.8783 18.0917ZM24.6383 18.8517L24.7852 18.9986L24.7883 18.9954L24.6383 18.8517ZM23.0469 20.4431L22.9 20.2963L22.7531 20.4431L22.9 20.59L23.0469 20.4431ZM24.6383 22.0346L24.7883 21.8909L24.7852 21.8877L24.6383 22.0346ZM24.6383 22.7946L24.782 22.9445L24.7852 22.9414L24.6383 22.7946ZM23.8783 22.7946L23.7315 22.9414L23.8783 22.7946ZM22.2869 21.2031L22.4338 21.0562L22.2869 20.9094L22.14 21.0562L22.2869 21.2031ZM20.6954 22.7946L20.8392 22.9445L20.8423 22.9414L20.6954 22.7946ZM19.9355 22.7946L19.7855 22.9383L19.7886 22.9414L19.9355 22.7946ZM21.5269 20.4431L21.6738 20.59L21.8207 20.4431L21.6738 20.2963L21.5269 20.4431ZM19.9355 18.8517L19.7855 18.9954L19.7886 18.9986L19.9355 18.8517ZM19.9355 18.0917L19.7917 17.9417L19.7886 17.9449L19.9355 18.0917ZM20.6954 18.0917L20.5486 18.2386H20.5486L20.6954 18.0917ZM22.2869 19.6832L22.14 19.83L22.2869 19.9769L22.4338 19.83L22.2869 19.6832ZM28.5168 3.06026H24.4219V3.47565H28.5168V3.06026ZM30.7897 5.34545C30.8095 4.08201 29.7741 3.06026 28.5168 3.06026V3.47565C29.5483 3.47565 30.3904 4.31358 30.3744 5.33896L30.7897 5.34545ZM30.7898 33.9168V5.34221H30.3744V33.9168H30.7898ZM28.4989 36.2077C29.758 36.2077 30.7898 35.1759 30.7898 33.9168H30.3744C30.3744 34.9465 29.5286 35.7923 28.4989 35.7923V36.2077ZM7.62225 36.2077H28.4989V35.7923H7.62225V36.2077ZM5.33137 33.9168C5.33137 35.1759 6.36313 36.2077 7.62225 36.2077V35.7923C6.59254 35.7923 5.74675 34.9465 5.74675 33.9168H5.33137ZM5.33137 5.35115V33.9168H5.74675V5.35115H5.33137ZM7.62225 3.06026C6.36313 3.06026 5.33137 4.09203 5.33137 5.35115H5.74675C5.74675 4.32144 6.59254 3.47565 7.62225 3.47565V3.06026ZM11.583 3.06026H7.62225V3.47565H11.583V3.06026ZM11.3753 2.29341V3.26796H11.7907V2.29341H11.3753ZM12.1194 1.54928C11.7097 1.54928 11.3753 1.88367 11.3753 2.29341H11.7907C11.7907 2.11308 11.9391 1.96466 12.1194 1.96466V1.54928ZM15.6421 1.54928H12.1194V1.96466H15.6421V1.54928ZM15.6954 1.51248C15.6881 1.53436 15.6696 1.54928 15.6421 1.54928V1.96466C15.8471 1.96466 16.0252 1.83653 16.0895 1.64383L15.6954 1.51248ZM17.2856 -0.0767266C16.5339 0.167332 15.939 0.762317 15.6949 1.51402L16.09 1.64229C16.293 1.01712 16.7887 0.521334 17.4139 0.318356L17.2856 -0.0767266ZM19.1963 0.0608306C18.6009 -0.241734 17.9171 -0.290469 17.2832 -0.0759147L17.4164 0.317544C17.9447 0.138707 18.5127 0.179378 19.0081 0.43114L19.1963 0.0608306ZM20.4433 1.51157C20.2297 0.880507 19.7914 0.363295 19.1963 0.0608307L19.0081 0.43114C19.5037 0.683001 19.87 1.11351 20.0498 1.64474L20.4433 1.51157ZM20.4969 1.54928C20.4695 1.54928 20.4509 1.53436 20.4436 1.51248L20.0495 1.64383C20.1138 1.83653 20.2919 1.96466 20.4969 1.96466V1.54928ZM23.8855 1.54928H20.4969V1.96466H23.8855V1.54928ZM24.6296 2.29341C24.6296 1.88366 24.2952 1.54928 23.8855 1.54928V1.96466C24.0658 1.96466 24.2142 2.11308 24.2142 2.29341H24.6296ZM24.6296 3.26796V2.29341H24.2142V3.26796H24.6296ZM12.6648 3.03755H15.651V2.62217H12.6648V3.03755ZM12.8725 4.84153V2.82986H12.4571V4.84153H12.8725ZM23.358 4.63383H12.6648V5.04922H23.358V4.63383ZM23.1503 2.82986V4.84153H23.5656V2.82986H23.1503ZM20.5059 3.03755H23.358V2.62217H20.5059V3.03755ZM19.0389 1.97367C19.2454 2.60348 19.834 3.03755 20.5059 3.03755V2.62217C20.0154 2.62217 19.5848 2.30522 19.4336 1.84426L19.0389 1.97367ZM17.7603 1.32639C18.2627 1.14436 18.8758 1.45471 19.0381 1.97123L19.4344 1.84669C19.2034 1.11151 18.3502 0.670837 17.6188 0.935848L17.7603 1.32639ZM17.1082 1.97608C17.2126 1.67036 17.4509 1.43206 17.7566 1.32767L17.6224 0.934569C17.195 1.08052 16.8611 1.41442 16.7151 1.84185L17.1082 1.97608ZM15.651 3.03755C16.3245 3.03755 16.9031 2.6019 17.109 1.97367L16.7143 1.84426C16.5627 2.30679 16.1399 2.62217 15.651 2.62217V3.03755ZM29.3194 33.9079C29.3194 34.3475 28.9564 34.7105 28.5168 34.7105V35.1259C29.1858 35.1259 29.7348 34.5769 29.7348 33.9079H29.3194ZM29.3194 5.35115V33.9079H29.7348V5.35115H29.3194ZM28.5168 4.54854C28.9564 4.54854 29.3194 4.91153 29.3194 5.35115H29.7348C29.7348 4.68212 29.1858 4.13315 28.5168 4.13315V4.54854ZM24.4308 4.54854H28.5168V4.13315H24.4308V4.54854ZM24.6385 5.36903V4.34084H24.2232V5.36903H24.6385ZM23.8944 6.11317C24.3041 6.11317 24.6385 5.77878 24.6385 5.36903H24.2232C24.2232 5.54937 24.0747 5.69778 23.8944 5.69778V6.11317ZM12.1373 6.11317H23.8944V5.69778H12.1373V6.11317ZM11.3932 5.36903C11.3932 5.77878 11.7276 6.11317 12.1373 6.11317V5.69778C11.957 5.69778 11.8086 5.54937 11.8086 5.36903H11.3932ZM11.3932 4.3319V5.36903H11.8086V4.3319H11.3932ZM7.64014 4.5396H11.6009V4.12421H7.64014V4.5396ZM6.83752 5.34221C6.83752 4.90259 7.20052 4.5396 7.64014 4.5396V4.12421C6.9711 4.12421 6.42214 4.67318 6.42214 5.34221H6.83752ZM6.83752 33.9079V5.34221H6.42214V33.9079H6.83752ZM7.64014 34.7105C7.20052 34.7105 6.83752 34.3475 6.83752 33.9079H6.42214C6.42214 34.5769 6.9711 35.1259 7.64014 35.1259V34.7105ZM28.5168 34.7105H7.64014V35.1259H28.5168V34.7105ZM12.1312 13.6754C13.8459 13.6754 15.2446 12.2775 15.2446 10.5709H14.8292C14.8292 12.0472 13.6173 13.26 12.1312 13.26V13.6754ZM9.02668 10.5709C9.02668 12.277 10.425 13.6754 12.1312 13.6754V13.26C10.6544 13.26 9.44207 12.0476 9.44207 10.5709H9.02668ZM15.2444 10.5622C15.0724 6.45234 9.1989 6.45234 9.02686 10.5622L9.44189 10.5796C9.59171 7.0004 14.6796 7.0004 14.8294 10.5796L15.2444 10.5622ZM12.1312 8.94573C13.0268 8.94573 13.7563 9.67529 13.7563 10.5709H14.1717C14.1717 9.44588 13.2562 8.53034 12.1312 8.53034V8.94573ZM10.515 10.5709C10.515 9.66635 11.2445 8.94573 12.1312 8.94573V8.53034C11.0151 8.53034 10.0996 9.43694 10.0996 10.5709H10.515ZM13.7565 10.5625C13.6689 12.7197 10.6023 12.7197 10.5148 10.5625L10.0997 10.5793C10.2089 13.2679 14.0624 13.2679 14.1715 10.5793L13.7565 10.5625ZM21.8483 12.4448C21.8483 10.9591 23.0607 9.74675 24.5464 9.74675V9.33137C22.8313 9.33137 21.4329 10.7297 21.4329 12.4448H21.8483ZM27.2357 12.4361C27.0858 16.0153 21.998 16.0153 21.8481 12.4361L21.4331 12.4535C21.6052 16.5633 27.4786 16.5633 27.6507 12.4535L27.2357 12.4361ZM24.5464 9.74675C26.0312 9.74675 27.2355 10.9583 27.2355 12.4448H27.6509C27.6509 10.7305 26.2623 9.33137 24.5464 9.33137V9.74675ZM22.5058 12.4448C22.5058 13.5615 23.422 14.4764 24.5464 14.4764V14.061C23.6501 14.061 22.9212 13.3308 22.9212 12.4448H22.5058ZM26.5778 12.4364C26.4687 9.74775 22.6151 9.74774 22.506 12.4364L22.921 12.4532C23.0086 10.296 26.0752 10.296 26.1628 12.4532L26.5778 12.4364ZM24.5464 14.4764C25.672 14.4764 26.578 13.5602 26.578 12.4448H26.1626C26.1626 13.3321 25.4413 14.061 24.5464 14.061V14.4764ZM21.1656 28.1167C21.0347 26.9667 20.3343 24.3073 16.7827 22.6414L16.6063 23.0174C19.9927 24.6059 20.6334 27.1143 20.7529 28.1637L21.1656 28.1167ZM23.5631 30.991C23.5535 29.4684 22.4524 28.1945 20.9956 27.9357L20.9229 28.3447C22.1841 28.5687 23.1394 29.673 23.1477 30.9936L23.5631 30.991ZM17.3453 31.0009C17.5176 35.1253 23.3911 35.1053 23.5629 31.001L23.1479 30.9836C22.9978 34.5683 17.91 34.5662 17.7603 30.9836L17.3453 31.0009ZM19.8454 27.9455C18.4188 28.2328 17.3451 29.4871 17.3451 30.9923H17.7605C17.7605 29.69 18.6896 28.6019 19.9274 28.3527L19.8454 27.9455ZM16.1593 23.983C18.9789 25.3058 19.5627 27.3101 19.6806 28.1771L20.0922 28.1212C19.9597 27.1463 19.3096 25.0021 16.3357 23.607L16.1593 23.983ZM12.0221 18.282C12.3051 19.4687 12.8341 20.673 13.5424 21.6897C14.2497 22.7051 15.1446 23.5456 16.1652 23.9857L16.3297 23.6043C15.4013 23.2039 14.5617 22.4262 13.8832 21.4523C13.2057 20.4797 12.6975 19.3236 12.4262 18.1857L12.0221 18.282ZM11.3715 19.972L12.3997 18.3448L12.0486 18.1229L11.0204 19.7501L11.3715 19.972ZM10.74 20.3191C10.9901 20.3191 11.224 20.1934 11.3688 19.9763L11.0232 19.7459C10.9533 19.8506 10.8475 19.9037 10.74 19.9037V20.3191ZM10.1092 19.1768C9.79743 19.6631 10.1642 20.3317 10.7445 20.319L10.7355 19.9038C10.4932 19.909 10.3236 19.612 10.4589 19.4009L10.1092 19.1768ZM10.6737 18.2794C10.5182 18.5273 10.3776 18.7511 10.2756 18.9134C10.2246 18.9946 10.1832 19.0602 10.1545 19.1057C10.1401 19.1285 10.129 19.1461 10.1214 19.1579C10.1176 19.1639 10.1149 19.168 10.1133 19.1706C10.1124 19.1719 10.1123 19.1722 10.1125 19.1718C10.1126 19.1717 10.1134 19.1704 10.1146 19.1687C10.1152 19.1679 10.1166 19.1659 10.1186 19.1633C10.1196 19.162 10.1213 19.1598 10.1235 19.157C10.1251 19.1551 10.1301 19.1491 10.1372 19.142L10.4309 19.4357C10.438 19.4286 10.443 19.4226 10.4446 19.4206C10.4469 19.4178 10.4487 19.4155 10.4497 19.4141C10.4517 19.4114 10.4533 19.4092 10.4541 19.4081C10.4556 19.4059 10.4569 19.404 10.4576 19.403C10.459 19.4009 10.4605 19.3986 10.4617 19.3967C10.4643 19.3928 10.4677 19.3875 10.4716 19.3812C10.4797 19.3686 10.4912 19.3505 10.5057 19.3276C10.5347 19.2817 10.5762 19.2157 10.6273 19.1345C10.7294 18.972 10.87 18.7481 11.0255 18.5003L10.6737 18.2794ZM10.6739 18.2792L10.6737 18.2795L11.0256 18.5002L11.0258 18.4999L10.6739 18.2792ZM10.6742 18.2786L10.674 18.279L11.0257 18.5001L11.0259 18.4997L10.6742 18.2786ZM12.0364 16.3006C12.0058 16.3029 11.9585 16.3157 11.9417 16.3234C11.9316 16.329 11.9153 16.3396 11.909 16.3442C11.8972 16.3534 11.8891 16.3618 11.8861 16.3649C11.8791 16.3721 11.8742 16.3784 11.8727 16.3803C11.8688 16.3852 11.8657 16.3896 11.8644 16.3914C11.8612 16.396 11.8578 16.401 11.8549 16.4054C11.8487 16.4147 11.8403 16.4276 11.8302 16.4432C11.8099 16.4747 11.7809 16.5201 11.745 16.5766C11.6732 16.6898 11.5727 16.8491 11.4566 17.0334C11.2244 17.4023 10.9291 17.8726 10.6742 18.2787L11.026 18.4996C11.281 18.0934 11.5761 17.6233 11.8081 17.2548C11.9242 17.0705 12.0243 16.9118 12.0958 16.7992C12.1315 16.7429 12.1598 16.6985 12.1793 16.6684C12.1891 16.6532 12.1962 16.6423 12.2006 16.6356C12.203 16.632 12.2038 16.6309 12.2035 16.6313C12.2034 16.6315 12.2029 16.6321 12.2023 16.633C12.2017 16.6338 12.2004 16.6356 12.1986 16.6379C12.1975 16.6392 12.1929 16.6451 12.1862 16.6521C12.1833 16.6551 12.1753 16.6634 12.1636 16.6724C12.1574 16.6771 12.1411 16.6876 12.131 16.6932C12.1142 16.7008 12.067 16.7137 12.0364 16.716V16.3006ZM12.3354 16.0722C12.1416 16.1109 11.9725 16.2357 11.8656 16.3901L12.2072 16.6265C12.2612 16.5484 12.3424 16.4944 12.4169 16.4795L12.3354 16.0722ZM12.8873 16.1705C12.726 16.0712 12.5205 16.0351 12.3354 16.0722L12.4169 16.4795C12.5 16.4629 12.5985 16.4804 12.6696 16.5242L12.8873 16.1705ZM15.6607 17.915L12.8891 16.1715L12.6679 16.5232L15.4395 18.2666L15.6607 17.915ZM14.8726 19.1818C15.7159 19.6778 16.4742 18.4695 15.6671 17.9192L15.4331 18.2624C15.8062 18.5168 15.4559 19.0429 15.0832 18.8237L14.8726 19.1818ZM13.142 18.0969L14.8676 19.1787L15.0882 18.8268L13.3627 17.745L13.142 18.0969ZM16.783 22.6415C14.7286 21.6742 13.8182 19.3281 13.4538 17.8706L13.0508 17.9713C13.4196 19.4463 14.3689 21.964 16.606 23.0173L16.783 22.6415ZM20.4496 32.6174C19.554 32.6174 18.8245 31.8879 18.8245 30.9923H18.4091C18.4091 32.1173 19.3246 33.0328 20.4496 33.0328V32.6174ZM22.0658 30.9923C22.0658 31.8892 21.3439 32.6174 20.4496 32.6174V33.0328C21.576 33.0328 22.4812 32.116 22.4812 30.9923H22.0658ZM18.8243 31.0007C18.9119 28.8435 21.9785 28.8435 22.066 31.0007L22.4811 30.9839C22.3719 28.2952 18.5184 28.2952 18.4093 30.9839L18.8243 31.0007ZM13.7095 24.8198C13.8455 24.6895 14.0561 24.6939 14.1789 24.8167L14.4727 24.523C14.1842 24.2346 13.7153 24.239 13.4221 24.5199L13.7095 24.8198ZM12.1213 26.4082L13.7127 24.8167L13.419 24.523L11.8275 26.1144L12.1213 26.4082ZM10.2361 24.8167L11.8275 26.4082L12.1213 26.1144L10.5298 24.523L10.2361 24.8167ZM9.76668 24.8198C9.90268 24.6895 10.1132 24.6939 10.2361 24.8167L10.5298 24.523C10.2414 24.2346 9.77243 24.239 9.47927 24.5199L9.76668 24.8198ZM9.77293 25.2861C9.6426 25.1501 9.64699 24.9396 9.76984 24.8167L9.47612 24.523C9.18769 24.8114 9.19208 25.2804 9.47303 25.5735L9.77293 25.2861ZM11.3613 26.8744L9.76984 25.283L9.47612 25.5767L11.0676 27.1681L11.3613 26.8744ZM9.76984 28.7596L11.3613 27.1681L11.0676 26.8744L9.47612 28.4659L9.76984 28.7596ZM9.77293 29.229C9.6426 29.093 9.64699 28.8824 9.76984 28.7596L9.47612 28.4659C9.18769 28.7543 9.19208 29.2232 9.47303 29.5164L9.77293 29.229ZM10.2392 29.2227C10.1032 29.3531 9.89268 29.3487 9.76984 29.2258L9.47612 29.5195C9.76454 29.808 10.2335 29.8036 10.5266 29.5226L10.2392 29.2227ZM11.8275 27.6344L10.2361 29.2258L10.5298 29.5195L12.1213 27.9281L11.8275 27.6344ZM13.7127 29.2258L12.1213 27.6344L11.8275 27.9281L13.419 29.5195L13.7127 29.2258ZM14.1821 29.2227C14.0461 29.3531 13.8355 29.3487 13.7127 29.2258L13.419 29.5195C13.7074 29.808 14.1763 29.8036 14.4695 29.5226L14.1821 29.2227ZM14.1759 28.7564C14.3062 28.8924 14.3018 29.103 14.1789 29.2258L14.4727 29.5195C14.7611 29.2311 14.7567 28.7622 14.4758 28.469L14.1759 28.7564ZM12.5875 27.1681L14.1789 28.7596L14.4727 28.4659L12.8812 26.8744L12.5875 27.1681ZM14.1789 25.283L12.5875 26.8744L12.8812 27.1681L14.4727 25.5767L14.1789 25.283ZM14.1821 24.8198C14.3096 24.942 14.3142 25.1477 14.1789 25.283L14.4727 25.5767C14.7666 25.2828 14.7712 24.809 14.4695 24.5199L14.1821 24.8198ZM24.7852 17.9449C24.4967 17.6564 24.0278 17.6608 23.7346 17.9418L24.022 18.2417C24.158 18.1113 24.3686 18.1157 24.4914 18.2386L24.7852 17.9449ZM24.7883 18.9954C25.0709 18.7005 25.0709 18.2429 24.7883 17.948L24.4884 18.2354C24.617 18.3697 24.617 18.5737 24.4884 18.708L24.7883 18.9954ZM23.1937 20.59L24.7852 18.9986L24.4914 18.7048L22.9 20.2963L23.1937 20.59ZM24.7852 21.8877L23.1937 20.2963L22.9 20.59L24.4914 22.1815L24.7852 21.8877ZM24.7852 22.9414C25.0736 22.653 25.0692 22.184 24.7883 21.8909L24.4884 22.1783C24.6187 22.3143 24.6143 22.5248 24.4914 22.6477L24.7852 22.9414ZM23.7315 22.9414C24.0199 23.2298 24.4889 23.2255 24.782 22.9445L24.4946 22.6446C24.3586 22.7749 24.1481 22.7705 24.0252 22.6477L23.7315 22.9414ZM22.14 21.35L23.7315 22.9414L24.0252 22.6477L22.4338 21.0562L22.14 21.35ZM20.8423 22.9414L22.4338 21.35L22.14 21.0562L20.5486 22.6477L20.8423 22.9414ZM19.7886 22.9414C20.077 23.2298 20.546 23.2255 20.8391 22.9445L20.5517 22.6446C20.4157 22.7749 20.2052 22.7705 20.0823 22.6477L19.7886 22.9414ZM19.7886 21.8877C19.5002 22.1762 19.5046 22.6451 19.7855 22.9383L20.0854 22.6509C19.9551 22.5149 19.9595 22.3043 20.0823 22.1815L19.7886 21.8877ZM21.3801 20.2963L19.7886 21.8877L20.0823 22.1815L21.6738 20.59L21.3801 20.2963ZM19.7886 18.9986L21.3801 20.59L21.6738 20.2963L20.0823 18.7048L19.7886 18.9986ZM19.7886 17.9449C19.5002 18.2333 19.5046 18.7022 19.7855 18.9954L20.0854 18.708C19.9551 18.572 19.9595 18.3614 20.0823 18.2386L19.7886 17.9449ZM20.8423 17.9449C20.5539 17.6564 20.0849 17.6608 19.7918 17.9418L20.0792 18.2417C20.2152 18.1113 20.4257 18.1157 20.5486 18.2386L20.8423 17.9449ZM22.4338 19.5363L20.8423 17.9449L20.5486 18.2386L22.14 19.83L22.4338 19.5363ZM23.7315 17.9449L22.14 19.5363L22.4338 19.83L24.0252 18.2386L23.7315 17.9449Z" fill="white" mask="url(#path-1-inside-1_1091_303988)"/>
<mask id="path-3-inside-2_1091_303988" fill="white">
<path fill-rule="evenodd" clip-rule="evenodd" d="M15.0369 10.5709C15.0369 12.1623 13.7316 13.4677 12.1312 13.4677C10.5397 13.4677 9.23438 12.1623 9.23438 10.5709C9.39531 6.72637 14.876 6.72637 15.0369 10.5709ZM13.964 10.5709C13.964 9.56058 13.1415 8.73804 12.1312 8.73804C11.1298 8.73804 10.3073 9.55164 10.3073 10.5709C10.4056 12.9938 13.8657 12.9938 13.964 10.5709ZM21.6406 12.437C21.6406 10.8366 22.946 9.53125 24.5464 9.53125C26.1468 9.53125 27.4432 10.8366 27.4432 12.437C27.2822 16.2815 21.8016 16.2815 21.6406 12.437ZM22.7135 12.437C22.7135 13.4384 23.5361 14.2609 24.5464 14.2609C25.5567 14.2609 26.3703 13.4384 26.3703 12.437C26.2719 10.014 22.8119 10.014 22.7135 12.437ZM20.9593 28.1402C20.8341 27.0405 20.1635 24.4566 16.6945 22.8294C14.5487 21.8191 13.6189 19.3872 13.2523 17.9209L14.9779 19.0028C15.5859 19.3604 16.1402 18.4931 15.5501 18.0908L12.7785 16.3474C12.6622 16.2758 12.5103 16.249 12.3761 16.2758C12.242 16.3026 12.1169 16.3921 12.0364 16.5083C12.0308 16.5083 11.3597 17.5773 10.8498 18.3897L10.8497 18.3898L10.8494 18.3903C10.5384 18.8857 10.2874 19.2855 10.284 19.2889C10.0605 19.6375 10.3287 20.1203 10.74 20.1114C10.9188 20.1114 11.0887 20.022 11.196 19.8611L12.2242 18.2338C12.7785 20.5584 14.2984 22.9546 16.2475 23.795C19.1443 25.154 19.7612 27.2282 19.8864 28.1491C18.5542 28.4174 17.5528 29.5886 17.5528 30.9923C17.7138 34.8457 23.1944 34.8368 23.3554 30.9923C23.3464 29.5707 22.3182 28.3816 20.9593 28.1402ZM20.4496 32.8251C19.4393 32.8251 18.6168 32.0026 18.6168 30.9923C18.7151 28.5693 22.1752 28.5693 22.2735 30.9923C22.2735 32.0026 21.4599 32.8251 20.4496 32.8251ZM23.8783 18.0917C24.0929 17.8861 24.4327 17.8861 24.6383 18.0917C24.8439 18.3063 24.8439 18.6371 24.6383 18.8517L23.0469 20.4431L24.6383 22.0346C24.8439 22.2492 24.8439 22.5889 24.6383 22.7946C24.4237 23.0002 24.084 23.0002 23.8783 22.7946L22.2869 21.2031L20.6954 22.7946C20.4809 23.0002 20.1411 23.0002 19.9355 22.7946C19.7298 22.58 19.7298 22.2402 19.9355 22.0346L21.5269 20.4431L19.9355 18.8517C19.7298 18.6371 19.7298 18.2974 19.9355 18.0917C20.1501 17.8861 20.4898 17.8861 20.6954 18.0917L22.2869 19.6832L23.8783 18.0917Z"/>
</mask>
<path fill-rule="evenodd" clip-rule="evenodd" d="M15.0369 10.5709C15.0369 12.1623 13.7316 13.4677 12.1312 13.4677C10.5397 13.4677 9.23438 12.1623 9.23438 10.5709C9.39531 6.72637 14.876 6.72637 15.0369 10.5709ZM13.964 10.5709C13.964 9.56058 13.1415 8.73804 12.1312 8.73804C11.1298 8.73804 10.3073 9.55164 10.3073 10.5709C10.4056 12.9938 13.8657 12.9938 13.964 10.5709ZM21.6406 12.437C21.6406 10.8366 22.946 9.53125 24.5464 9.53125C26.1468 9.53125 27.4432 10.8366 27.4432 12.437C27.2822 16.2815 21.8016 16.2815 21.6406 12.437ZM22.7135 12.437C22.7135 13.4384 23.5361 14.2609 24.5464 14.2609C25.5567 14.2609 26.3703 13.4384 26.3703 12.437C26.2719 10.014 22.8119 10.014 22.7135 12.437ZM20.9593 28.1402C20.8341 27.0405 20.1635 24.4566 16.6945 22.8294C14.5487 21.8191 13.6189 19.3872 13.2523 17.9209L14.9779 19.0028C15.5859 19.3604 16.1402 18.4931 15.5501 18.0908L12.7785 16.3474C12.6622 16.2758 12.5103 16.249 12.3761 16.2758C12.242 16.3026 12.1169 16.3921 12.0364 16.5083C12.0308 16.5083 11.3597 17.5773 10.8498 18.3897L10.8497 18.3898L10.8494 18.3903C10.5384 18.8857 10.2874 19.2855 10.284 19.2889C10.0605 19.6375 10.3287 20.1203 10.74 20.1114C10.9188 20.1114 11.0887 20.022 11.196 19.8611L12.2242 18.2338C12.7785 20.5584 14.2984 22.9546 16.2475 23.795C19.1443 25.154 19.7612 27.2282 19.8864 28.1491C18.5542 28.4174 17.5528 29.5886 17.5528 30.9923C17.7138 34.8457 23.1944 34.8368 23.3554 30.9923C23.3464 29.5707 22.3182 28.3816 20.9593 28.1402ZM20.4496 32.8251C19.4393 32.8251 18.6168 32.0026 18.6168 30.9923C18.7151 28.5693 22.1752 28.5693 22.2735 30.9923C22.2735 32.0026 21.4599 32.8251 20.4496 32.8251ZM23.8783 18.0917C24.0929 17.8861 24.4327 17.8861 24.6383 18.0917C24.8439 18.3063 24.8439 18.6371 24.6383 18.8517L23.0469 20.4431L24.6383 22.0346C24.8439 22.2492 24.8439 22.5889 24.6383 22.7946C24.4237 23.0002 24.084 23.0002 23.8783 22.7946L22.2869 21.2031L20.6954 22.7946C20.4809 23.0002 20.1411 23.0002 19.9355 22.7946C19.7298 22.58 19.7298 22.2402 19.9355 22.0346L21.5269 20.4431L19.9355 18.8517C19.7298 18.6371 19.7298 18.2974 19.9355 18.0917C20.1501 17.8861 20.4898 17.8861 20.6954 18.0917L22.2869 19.6832L23.8783 18.0917Z" fill="#E6B400"/>
<path d="M15.0369 10.5709H15.2448L15.2444 10.5622L15.0369 10.5709ZM9.23438 10.5709L9.02668 10.5622V10.5709H9.23438ZM13.964 10.5709L14.1717 10.5793V10.5709H13.964ZM10.3073 10.5709H10.0994L10.0997 10.5793L10.3073 10.5709ZM21.6406 12.437H21.4328L21.4331 12.4457L21.6406 12.437ZM27.4432 12.437L27.6509 12.4457V12.437H27.4432ZM22.7135 12.437L22.5058 12.4286V12.437H22.7135ZM26.3703 12.437H26.5781L26.5778 12.4286L26.3703 12.437ZM16.6945 22.8294L16.606 23.0173L16.6063 23.0174L16.6945 22.8294ZM20.9593 28.1402L20.7529 28.1637L20.7704 28.3176L20.9229 28.3447L20.9593 28.1402ZM13.2523 17.9209L13.3627 17.745L12.9258 17.4711L13.0508 17.9713L13.2523 17.9209ZM14.9779 19.0028L14.8675 19.1788L14.8726 19.1818L14.9779 19.0028ZM15.5501 18.0908L15.6672 17.9191L15.6607 17.915L15.5501 18.0908ZM12.7785 16.3474L12.8891 16.1715L12.8873 16.1705L12.7785 16.3474ZM12.0364 16.5083V16.716H12.1452L12.2072 16.6265L12.0364 16.5083ZM10.8498 18.3897L11.0256 18.5002L11.0257 18.5001L10.8498 18.3897ZM10.8497 18.3898L10.6738 18.2793L10.6738 18.2793L10.8497 18.3898ZM10.8494 18.3903L10.6735 18.2798L10.6735 18.2798L10.8494 18.3903ZM10.284 19.2889L10.1372 19.142L10.1213 19.1579L10.1092 19.1768L10.284 19.2889ZM10.74 20.1114V19.9037L10.7355 19.9038L10.74 20.1114ZM11.196 19.8611L11.3688 19.9763L11.3715 19.972L11.196 19.8611ZM12.2242 18.2338L12.4262 18.1857L12.3119 17.7062L12.0486 18.1229L12.2242 18.2338ZM16.2475 23.795L16.3357 23.6069L16.3297 23.6043L16.2475 23.795ZM19.8864 28.1491L19.9274 28.3527L20.1184 28.3143L20.0922 28.1212L19.8864 28.1491ZM17.5528 30.9923H17.345L17.3453 31.0009L17.5528 30.9923ZM23.3554 30.9923L23.5631 31.001L23.5631 30.991L23.3554 30.9923ZM18.6168 30.9923L18.4091 30.9839V30.9923H18.6168ZM22.2735 30.9923H22.4814L22.4811 30.9839L22.2735 30.9923ZM24.6383 18.0917L24.7883 17.948L24.7852 17.9449L24.6383 18.0917ZM23.8783 18.0917L23.7346 17.9417L23.7315 17.9449L23.8783 18.0917ZM24.6383 18.8517L24.7852 18.9986L24.7883 18.9954L24.6383 18.8517ZM23.0469 20.4431L22.9 20.2963L22.7531 20.4431L22.9 20.59L23.0469 20.4431ZM24.6383 22.0346L24.7883 21.8909L24.7852 21.8877L24.6383 22.0346ZM24.6383 22.7946L24.782 22.9445L24.7852 22.9414L24.6383 22.7946ZM23.8783 22.7946L23.7315 22.9414V22.9414L23.8783 22.7946ZM22.2869 21.2031L22.4338 21.0562L22.2869 20.9094L22.14 21.0562L22.2869 21.2031ZM20.6954 22.7946L20.8392 22.9445L20.8423 22.9414L20.6954 22.7946ZM19.9355 22.7946L19.7855 22.9383L19.7886 22.9414L19.9355 22.7946ZM19.9355 22.0346L19.7886 21.8877L19.9355 22.0346ZM21.5269 20.4431L21.6738 20.59L21.8207 20.4431L21.6738 20.2963L21.5269 20.4431ZM19.9355 18.8517L19.7855 18.9954L19.7886 18.9986L19.9355 18.8517ZM19.9355 18.0917L19.7917 17.9417L19.7886 17.9449L19.9355 18.0917ZM20.6954 18.0917L20.5486 18.2386H20.5486L20.6954 18.0917ZM22.2869 19.6832L22.14 19.83L22.2869 19.9769L22.4338 19.83L22.2869 19.6832ZM12.1312 13.6754C13.8459 13.6754 15.2446 12.2775 15.2446 10.5709H14.8292C14.8292 12.0472 13.6173 13.26 12.1312 13.26V13.6754ZM9.02668 10.5709C9.02668 12.277 10.425 13.6754 12.1312 13.6754V13.26C10.6544 13.26 9.44207 12.0476 9.44207 10.5709H9.02668ZM15.2444 10.5622C15.0724 6.45234 9.1989 6.45234 9.02686 10.5622L9.44189 10.5796C9.59171 7.0004 14.6796 7.0004 14.8294 10.5796L15.2444 10.5622ZM12.1312 8.94573C13.0268 8.94573 13.7563 9.67529 13.7563 10.5709H14.1717C14.1717 9.44588 13.2562 8.53034 12.1312 8.53034V8.94573ZM10.515 10.5709C10.515 9.66635 11.2445 8.94573 12.1312 8.94573V8.53034C11.0151 8.53034 10.0996 9.43694 10.0996 10.5709H10.515ZM13.7565 10.5625C13.6689 12.7197 10.6023 12.7197 10.5148 10.5625L10.0997 10.5793C10.2089 13.2679 14.0624 13.2679 14.1715 10.5793L13.7565 10.5625ZM24.5464 9.32356C22.8313 9.32356 21.4329 10.7219 21.4329 12.437H21.8483C21.8483 10.9513 23.0607 9.73894 24.5464 9.73894V9.32356ZM27.6509 12.437C27.6509 10.7227 26.2623 9.32356 24.5464 9.32356V9.73894C26.0312 9.73894 27.2355 10.9505 27.2355 12.437H27.6509ZM21.4331 12.4457C21.6052 16.5555 27.4786 16.5555 27.6507 12.4457L27.2357 12.4283C27.0858 16.0075 21.998 16.0075 21.8481 12.4283L21.4331 12.4457ZM24.5464 14.0532C23.6501 14.0532 22.9212 13.323 22.9212 12.437H22.5058C22.5058 13.5537 23.422 14.4686 24.5464 14.4686V14.0532ZM26.1626 12.437C26.1626 13.3243 25.4413 14.0532 24.5464 14.0532V14.4686C25.672 14.4686 26.578 13.5524 26.578 12.437H26.1626ZM22.921 12.4454C23.0086 10.2882 26.0752 10.2882 26.1628 12.4454L26.5778 12.4286C26.4687 9.73993 22.6151 9.73993 22.506 12.4286L22.921 12.4454ZM16.6063 23.0174C19.9927 24.6059 20.6334 27.1143 20.7529 28.1637L21.1656 28.1167C21.0347 26.9667 20.3343 24.3073 16.7827 22.6414L16.6063 23.0174ZM13.0508 17.9713C13.4196 19.4463 14.3689 21.964 16.606 23.0173L16.783 22.6415C14.7286 21.6742 13.8182 19.3281 13.4538 17.8706L13.0508 17.9713ZM15.0882 18.8268L13.3627 17.745L13.142 18.0969L14.8676 19.1787L15.0882 18.8268ZM15.4331 18.2624C15.8062 18.5168 15.4559 19.0429 15.0832 18.8237L14.8726 19.1818C15.7159 19.6778 16.4742 18.4695 15.6671 17.9192L15.4331 18.2624ZM12.6679 16.5232L15.4395 18.2666L15.6607 17.915L12.8891 16.1716L12.6679 16.5232ZM12.4169 16.4795C12.5 16.4629 12.5985 16.4805 12.6696 16.5242L12.8873 16.1705C12.726 16.0712 12.5205 16.0351 12.3354 16.0722L12.4169 16.4795ZM12.2072 16.6265C12.2612 16.5484 12.3424 16.4944 12.4169 16.4795L12.3354 16.0722C12.1416 16.1109 11.9725 16.2357 11.8656 16.3901L12.2072 16.6265ZM11.0257 18.5001C11.2807 18.0939 11.5759 17.6237 11.808 17.255C11.9241 17.0707 12.0243 16.9119 12.0957 16.7993C12.1315 16.7429 12.1598 16.6985 12.1793 16.6684C12.1891 16.6532 12.1962 16.6423 12.2006 16.6356C12.203 16.632 12.2038 16.6309 12.2035 16.6313C12.2034 16.6315 12.2029 16.6321 12.2023 16.633C12.2017 16.6338 12.2004 16.6356 12.1986 16.6379C12.1975 16.6392 12.1929 16.6451 12.1862 16.652C12.1834 16.655 12.1753 16.6634 12.1636 16.6724C12.1574 16.6771 12.1411 16.6876 12.131 16.6932C12.1143 16.7008 12.067 16.7137 12.0364 16.716V16.3006C12.0058 16.3029 11.9585 16.3158 11.9417 16.3234C11.9315 16.329 11.9153 16.3396 11.909 16.3442C11.8972 16.3534 11.8891 16.3618 11.8861 16.3649C11.8791 16.3722 11.8742 16.3784 11.8727 16.3803C11.8688 16.3852 11.8657 16.3896 11.8644 16.3914C11.8612 16.396 11.8578 16.401 11.8549 16.4054C11.8487 16.4147 11.8403 16.4276 11.8302 16.4432C11.8099 16.4747 11.7809 16.5202 11.745 16.5767C11.6731 16.69 11.5726 16.8492 11.4565 17.0337C11.2242 17.4026 10.9288 17.8731 10.6739 18.2792L11.0257 18.5001ZM11.0255 18.5003L11.0256 18.5002L10.6739 18.2792L10.6738 18.2793L11.0255 18.5003ZM11.0253 18.5007L11.0256 18.5002L10.6738 18.2793L10.6735 18.2798L11.0253 18.5007ZM10.4309 19.4357C10.438 19.4286 10.443 19.4226 10.4446 19.4206C10.4469 19.4178 10.4487 19.4155 10.4497 19.4141C10.4517 19.4114 10.4533 19.4092 10.4541 19.4081C10.4556 19.4059 10.4569 19.404 10.4576 19.403C10.459 19.4009 10.4605 19.3986 10.4617 19.3967C10.4643 19.3928 10.4677 19.3875 10.4716 19.3813C10.4797 19.3686 10.4912 19.3505 10.5056 19.3276C10.5346 19.2817 10.5761 19.2158 10.6272 19.1346C10.7293 18.9722 10.8698 18.7484 11.0253 18.5007L10.6735 18.2798C10.518 18.5276 10.3775 18.7513 10.2755 18.9135C10.2245 18.9946 10.1832 19.0603 10.1544 19.1058C10.1401 19.1286 10.1289 19.1461 10.1214 19.1579C10.1176 19.1639 10.1149 19.1681 10.1133 19.1706C10.1124 19.1719 10.1123 19.1722 10.1125 19.1718C10.1126 19.1717 10.1134 19.1704 10.1146 19.1687C10.1152 19.1679 10.1166 19.1659 10.1186 19.1633C10.1196 19.162 10.1213 19.1598 10.1235 19.157C10.1251 19.1551 10.1301 19.1491 10.1372 19.142L10.4309 19.4357ZM10.7355 19.9038C10.4932 19.909 10.3236 19.612 10.4589 19.4009L10.1092 19.1768C9.79743 19.6631 10.1642 20.3317 10.7445 20.319L10.7355 19.9038ZM11.0232 19.7459C10.9533 19.8506 10.8475 19.9037 10.74 19.9037V20.3191C10.9901 20.3191 11.224 20.1934 11.3688 19.9763L11.0232 19.7459ZM12.0486 18.1229L11.0204 19.7501L11.3715 19.972L12.3997 18.3448L12.0486 18.1229ZM16.3297 23.6043C15.4013 23.2039 14.5617 22.4262 13.8832 21.4523C13.2057 20.4797 12.6975 19.3236 12.4262 18.1857L12.0221 18.282C12.3051 19.4687 12.8341 20.673 13.5424 21.6897C14.2497 22.7051 15.1446 23.5456 16.1652 23.9857L16.3297 23.6043ZM20.0922 28.1212C19.9597 27.1463 19.3096 25.0021 16.3357 23.607L16.1593 23.983C18.9789 25.3058 19.5627 27.3101 19.6806 28.1771L20.0922 28.1212ZM17.7605 30.9923C17.7605 29.69 18.6896 28.6019 19.9274 28.3527L19.8454 27.9455C18.4188 28.2328 17.3451 29.4871 17.3451 30.9923H17.7605ZM23.1479 30.9836C22.9978 34.5683 17.91 34.5662 17.7603 30.9836L17.3453 31.0009C17.5176 35.1253 23.3911 35.1053 23.5629 31.001L23.1479 30.9836ZM20.9229 28.3447C22.1841 28.5687 23.1394 29.673 23.1477 30.9936L23.5631 30.991C23.5535 29.4684 22.4524 28.1945 20.9956 27.9357L20.9229 28.3447ZM18.4091 30.9923C18.4091 32.1173 19.3246 33.0328 20.4496 33.0328V32.6174C19.554 32.6174 18.8245 31.8879 18.8245 30.9923H18.4091ZM22.4811 30.9839C22.3719 28.2952 18.5184 28.2952 18.4093 30.9839L18.8243 31.0007C18.9119 28.8435 21.9785 28.8435 22.066 31.0007L22.4811 30.9839ZM20.4496 33.0328C21.576 33.0328 22.4812 32.116 22.4812 30.9923H22.0659C22.0659 31.8892 21.3439 32.6174 20.4496 32.6174V33.0328ZM24.7852 17.9449C24.4967 17.6564 24.0278 17.6608 23.7346 17.9418L24.022 18.2417C24.158 18.1113 24.3686 18.1157 24.4914 18.2386L24.7852 17.9449ZM24.7883 18.9954C25.0709 18.7005 25.0709 18.2429 24.7883 17.948L24.4884 18.2354C24.617 18.3697 24.617 18.5737 24.4884 18.708L24.7883 18.9954ZM23.1937 20.59L24.7852 18.9986L24.4914 18.7048L22.9 20.2963L23.1937 20.59ZM24.7852 21.8877L23.1937 20.2963L22.9 20.59L24.4914 22.1815L24.7852 21.8877ZM24.7852 22.9414C25.0736 22.653 25.0692 22.184 24.7883 21.8909L24.4884 22.1783C24.6187 22.3143 24.6143 22.5248 24.4914 22.6477L24.7852 22.9414ZM23.7315 22.9414C24.0199 23.2298 24.4889 23.2255 24.782 22.9445L24.4946 22.6446C24.3586 22.7749 24.1481 22.7705 24.0252 22.6477L23.7315 22.9414ZM22.14 21.35L23.7315 22.9414L24.0252 22.6477L22.4338 21.0562L22.14 21.35ZM20.8423 22.9414L22.4338 21.35L22.14 21.0562L20.5486 22.6477L20.8423 22.9414ZM19.7886 22.9414C20.077 23.2298 20.546 23.2255 20.8391 22.9445L20.5517 22.6446C20.4157 22.7749 20.2052 22.7705 20.0823 22.6477L19.7886 22.9414ZM19.7886 21.8877C19.5002 22.1762 19.5046 22.6451 19.7855 22.9383L20.0854 22.6509C19.9551 22.5149 19.9595 22.3043 20.0823 22.1815L19.7886 21.8877ZM21.3801 20.2963L19.7886 21.8877L20.0823 22.1815L21.6738 20.59L21.3801 20.2963ZM19.7886 18.9986L21.3801 20.59L21.6738 20.2963L20.0823 18.7048L19.7886 18.9986ZM19.7886 17.9449C19.5002 18.2333 19.5046 18.7022 19.7855 18.9954L20.0854 18.708C19.9551 18.572 19.9595 18.3614 20.0823 18.2386L19.7886 17.9449ZM20.8423 17.9449C20.5539 17.6564 20.0849 17.6608 19.7918 17.9418L20.0792 18.2417C20.2152 18.1113 20.4257 18.1157 20.5486 18.2386L20.8423 17.9449ZM22.4338 19.5363L20.8423 17.9449L20.5486 18.2386L22.14 19.83L22.4338 19.5363ZM23.7315 17.9449L22.14 19.5363L22.4338 19.83L24.0252 18.2386L23.7315 17.9449Z" fill="white" mask="url(#path-3-inside-2_1091_303988)"/>
</svg>
