<svg width="52" height="52" viewBox="0 0 52 52" fill="none" xmlns="http://www.w3.org/2000/svg">
<g clip-path="url(#clip0_1091_300274)">
<path d="M19.912 26.8073C20.1791 26.8073 20.4268 26.6673 20.5645 26.4384L21.9387 24.1558L23.7598 27.0495C23.9022 27.2759 24.151 27.4102 24.4204 27.4054C24.6878 27.3998 24.9327 27.2543 25.0656 27.0222L27.9972 21.8998L31.9345 29.0752C32.066 29.3146 32.3156 29.4655 32.5888 29.4703C32.5933 29.4703 32.5978 29.4704 32.6023 29.4704C32.8703 29.4704 33.1192 29.3294 33.2567 29.0985L35.7097 24.9806H41.6249C42.0456 24.9806 42.3866 24.6395 42.3866 24.2188C42.3866 23.7982 42.0456 23.4571 41.6249 23.4571H35.2768C35.0084 23.4571 34.7598 23.5984 34.6225 23.829L32.6294 27.1747L28.6789 19.9754C28.5463 19.7337 28.2936 19.5826 28.018 19.5801C28.0156 19.5801 28.0134 19.5801 28.0111 19.5801C27.7381 19.5801 27.4858 19.7262 27.35 19.9634L24.3734 25.1644L22.569 22.2972C22.4295 22.0755 22.1861 21.9412 21.9243 21.9412C21.9219 21.9412 21.9194 21.9412 21.9168 21.9412C21.6523 21.9437 21.4082 22.0834 21.2718 22.31L19.4814 25.2838H15.1523C14.7317 25.2838 14.3906 25.6249 14.3906 26.0455C14.3906 26.4662 14.7317 26.8073 15.1523 26.8073H19.912Z" fill="#E6B400"/>
<path d="M42.9694 5.66602C42.5488 5.66602 42.2077 6.00706 42.2077 6.42773V8.6747H39.9609C39.5403 8.6747 39.1992 9.01575 39.1992 9.43642C39.1992 9.85709 39.5403 10.1981 39.9609 10.1981H42.2077V12.4452C42.2077 12.8659 42.5488 13.2069 42.9694 13.2069C43.3901 13.2069 43.7311 12.8659 43.7311 12.4452V10.1981H45.9779C46.3986 10.1981 46.7396 9.85709 46.7396 9.43642C46.7396 9.01575 46.3986 8.6747 45.9779 8.6747H43.7311V6.42773C43.7311 6.00706 43.3901 5.66602 42.9694 5.66602Z" fill="#E6B400"/>
<path d="M45.6584 31.7646C49.3694 27.7973 50.433 21.7981 48.3931 16.655C50.5821 15.0052 52 12.3838 52 9.43705C52 4.45794 47.9495 0.407227 42.9707 0.407227C40.9255 0.407227 38.9228 1.10912 37.3313 2.38363C37.003 2.64658 36.95 3.12595 37.2129 3.4543C37.4758 3.78255 37.9552 3.83567 38.2836 3.57273C39.625 2.4984 41.2458 1.93066 42.9706 1.93066C47.1093 1.93066 50.4765 5.29807 50.4765 9.43705C50.4765 13.5777 47.1094 16.9464 42.9706 16.9464C39.117 16.9464 35.9337 14.0277 35.511 10.285C35.5102 10.2764 35.5088 10.2676 35.5077 10.2589C35.4781 9.98884 35.4618 9.71482 35.4618 9.43705C35.4618 8.26136 35.7259 7.13706 36.2467 6.09523C36.4348 5.71895 36.2823 5.26141 35.9061 5.07321C35.5295 4.88522 35.0723 5.03766 34.8841 5.41385C34.2565 6.66906 33.9383 8.02269 33.9383 9.43694C33.9383 9.56491 33.9417 9.69207 33.947 9.81882C32.0236 10.5063 30.2282 11.637 28.7237 13.1167L27.8818 13.9444C27.8777 13.9403 27.8746 13.9373 27.8706 13.9332L27.0428 13.1177C24.3646 10.477 20.8587 9.00134 17.4228 9.07244C14.5639 9.13134 12.0339 10.2516 10.1073 12.3113C9.81987 12.619 9.83612 13.1014 10.1439 13.3888C10.4516 13.6752 10.933 13.66 11.2204 13.3523C12.8596 11.5993 15.0148 10.6456 17.4543 10.5959C20.4809 10.5339 23.5857 11.8492 25.9734 14.2024L26.8021 15.0189C27.2023 15.413 27.5435 15.609 27.8838 15.609C28.221 15.609 28.5571 15.416 28.9502 15.0301L29.7921 14.2024C31.0573 12.9588 32.5496 11.9905 34.1471 11.3695C35.0345 15.4247 38.6533 18.4697 42.9705 18.4697C44.4485 18.4697 45.8447 18.1126 47.0774 17.4801C48.7652 22.02 47.7961 27.2429 44.5512 30.7173L33.6162 41.9107L32.7113 42.0875C32.4919 42.1301 32.2979 42.1687 32.1212 42.2043C30.9735 42.4368 30.6993 42.4917 29.3556 42.2845L22.8404 41.0932C21.9527 40.7864 22.0421 40.0796 22.0919 39.8673C22.1701 39.5372 22.4768 39.004 23.1359 39.1036C23.142 39.1046 23.1481 39.1056 23.1542 39.1066C23.4477 39.1442 23.7626 39.1848 24.0916 39.2264C25.3256 39.3859 26.7231 39.5657 27.9642 39.6926C30.5033 39.9496 31.9394 38.6171 32.238 37.181C32.5416 35.7175 31.7078 33.7715 29.1586 32.958C29.1281 32.9489 29.0966 32.9407 29.0641 32.9346L24.8686 32.1648C22.5916 31.7474 20.8203 32.0693 18.1391 32.5568C17.4302 32.6858 16.6258 32.8311 15.73 32.9783L13.7414 33.3054L13.129 32.6787L11.2145 30.7186C7.63648 26.8825 6.84328 20.8741 9.28891 16.1037C9.48086 15.73 9.33258 15.2709 8.95883 15.0789C8.58406 14.887 8.125 15.0343 7.93305 15.409C5.19898 20.7431 6.09273 27.4686 10.1075 31.7646C10.1116 31.7687 10.1156 31.7728 10.1187 31.7768L11.9062 33.607L8.57716 34.1542V34.0673C8.57716 33.4791 8.05827 33.0007 7.42046 33.0007H1.15375C0.517562 33.0007 0 33.4791 0 34.0673V47.47C0 48.0581 0.517562 48.5366 1.15375 48.5366H7.42056C8.05838 48.5366 8.57726 48.0581 8.57726 47.47V47.3776L15.4273 49.2415L21.7506 50.96C23.1938 51.4079 24.3567 51.5927 25.418 51.5927C27.0979 51.5927 28.5248 51.1316 30.4098 50.5222C30.5774 50.4684 30.7491 50.4125 30.9258 50.3557L43.3865 46.3602C44.8307 45.8971 45.8585 44.8571 46.1348 43.5784C46.3491 42.5871 46.0505 41.6081 45.3355 40.9591C44.7566 40.434 43.3956 39.6804 40.7723 40.5102L36.2487 41.3948L45.6473 31.7768C45.6513 31.7728 45.6544 31.7687 45.6584 31.7646ZM1.52344 47.0131V34.524H7.05372V35.0474C7.05372 35.049 7.05352 35.0505 7.05352 35.0521V46.3804C7.05352 46.3813 7.05372 46.3821 7.05372 46.383V47.0131H1.52344ZM41.1938 41.9747C42.5994 41.5238 43.7359 41.5644 44.3127 42.0875C44.6235 42.3698 44.7454 42.7964 44.6459 43.2554C44.4854 43.9958 43.8405 44.6143 42.9213 44.9089L30.4596 48.9053C30.2819 48.9622 30.1092 49.0181 29.9406 49.0729C26.9598 50.0357 25.4637 50.5202 22.1894 49.5015C22.1812 49.4985 22.1721 49.4964 22.163 49.4934L8.57716 45.7987V35.6982L15.9768 34.4825C16.8848 34.3332 17.6962 34.1849 18.4123 34.0549C21.0173 33.5816 22.5905 33.2962 24.5934 33.6639L28.7402 34.4246C30.357 34.9557 30.9146 36.0618 30.746 36.8712C30.552 37.8066 29.5202 38.3195 28.1186 38.1773C26.8978 38.0524 25.5105 37.8736 24.2866 37.7162C23.9596 37.6736 23.6458 37.6329 23.3543 37.5964C21.8979 37.3811 20.8711 38.3997 20.6091 39.52C20.5532 39.7586 20.5309 40.0125 20.5471 40.2685C20.603 41.1947 21.1565 42.1555 22.4199 42.5587C22.4514 42.5689 22.8719 42.6471 22.8719 42.6471L29.0926 43.7846C29.0987 43.7856 29.1058 43.7866 29.1129 43.7876C30.3966 43.9877 30.9522 43.9704 31.7393 43.8313C31.9455 43.7947 32.7864 43.6241 33.0027 43.5825L34.3738 43.3143C34.3738 43.3143 41.1653 41.9839 41.1938 41.9747Z" fill="white"/>
</g>
<defs>
<clipPath id="clip0_1091_300274">
<rect width="52" height="52" fill="white"/>
</clipPath>
</defs>
</svg>
