<svg width="14" height="14" viewBox="0 0 14 14" fill="none" xmlns="http://www.w3.org/2000/svg">
<path fill-rule="evenodd" clip-rule="evenodd" d="M9.33333 1.8916H4.66666C3.05584 1.8916 1.75 3.19744 1.75 4.80827V9.47493C1.75 11.0857 3.05584 12.3916 4.66666 12.3916H9.33333C10.9441 12.3916 12.25 11.0857 12.25 9.47493V4.80827C12.25 3.19744 10.9441 1.8916 9.33333 1.8916ZM11.2292 9.47493C11.226 10.5206 10.379 11.3676 9.33333 11.3708H4.66666C3.62095 11.3676 2.77404 10.5206 2.77083 9.47493V4.80827C2.77404 3.76255 3.62095 2.91564 4.66666 2.91243H9.33333C10.379 2.91564 11.226 3.76255 11.2292 4.80827V9.47493ZM9.77083 4.9541C10.093 4.9541 10.3542 4.69293 10.3542 4.37077C10.3542 4.0486 10.093 3.78743 9.77083 3.78743C9.44865 3.78743 9.1875 4.0486 9.1875 4.37077C9.1875 4.69293 9.44865 4.9541 9.77083 4.9541ZM7 4.5166C5.55025 4.5166 4.375 5.69185 4.375 7.1416C4.375 8.59136 5.55025 9.7666 7 9.7666C8.44975 9.7666 9.62499 8.59136 9.62499 7.1416C9.62657 6.44492 9.35048 5.77635 8.85785 5.28373C8.36523 4.79111 7.69667 4.51505 7 4.5166ZM5.39583 7.1416C5.39583 8.02756 6.11403 8.74576 7 8.74576C7.88596 8.74576 8.60416 8.02756 8.60416 7.1416C8.60416 6.25563 7.88596 5.53743 7 5.53743C6.11403 5.53743 5.39583 6.25563 5.39583 7.1416Z" fill="white"/>
</svg>
