<svg width="33" height="33" viewBox="0 0 33 33" fill="none" xmlns="http://www.w3.org/2000/svg">
<path d="M29.2784 29.71V20.334C29.2784 15.7261 28.2864 12.2061 22.9104 12.2061C20.3184 12.2061 18.5904 13.6141 17.8864 14.9581H17.8224V12.6221H12.7344V29.71H18.0464V21.23C18.0464 18.9901 18.4624 16.8461 21.2144 16.8461C23.9344 16.8461 23.9664 19.3741 23.9664 21.358V29.678H29.2784V29.71Z" fill="white"/>
<path d="M4.09375 12.6279H9.40575V29.7159H4.09375V12.6279Z" fill="white"/>
<path d="M6.7595 4.1123C5.0635 4.1123 3.6875 5.4883 3.6875 7.1843C3.6875 8.8803 5.0635 10.2883 6.7595 10.2883C8.4555 10.2883 9.8315 8.8803 9.8315 7.1843C9.8315 5.4883 8.4555 4.1123 6.7595 4.1123Z" fill="white"/>
</svg>
