<svg width="36" height="36" viewBox="0 0 36 36" fill="none" xmlns="http://www.w3.org/2000/svg">
<g clip-path="url(#clip0_1091_307903)">
<mask id="path-1-outside-1_1091_307903" maskUnits="userSpaceOnUse" x="0.0546875" y="0.0546875" width="36" height="36" fill="black">
<rect fill="white" x="0.0546875" y="0.0546875" width="36" height="36"/>
<path d="M8.88539 12.342C10.7909 12.342 12.3413 10.7916 12.3413 8.88609C12.3413 6.98062 10.7909 5.43023 8.88539 5.43023C6.97992 5.43023 5.42953 6.98062 5.42953 8.88609C5.42953 10.7916 6.97992 12.342 8.88539 12.342ZM8.88539 6.27328C10.3261 6.27328 11.4975 7.44539 11.4975 8.88539C11.4975 10.3261 10.3254 11.4975 8.88539 11.4975C7.44469 11.4975 6.27328 10.3254 6.27328 8.88539C6.27328 7.44539 7.44539 6.27328 8.88539 6.27328ZM6.22969 14.1405C6.49266 14.2734 6.76758 14.388 7.04742 14.4802C7.08539 14.4928 7.10508 14.5202 7.10508 14.5603V15.7887C7.10508 16.3005 7.52133 16.7168 8.0332 16.7168H9.73687C10.2487 16.7168 10.665 16.3005 10.665 15.7887V14.5603C10.665 14.5202 10.6854 14.4928 10.7227 14.4802C11.0025 14.388 11.2774 14.2741 11.5404 14.1405C11.5763 14.1223 11.61 14.1279 11.6381 14.156L12.5072 15.0251C12.6823 15.2002 12.915 15.2965 13.1632 15.2965C13.4114 15.2965 13.6441 15.2002 13.8192 15.0251L15.0237 13.8206C15.3858 13.4585 15.3858 12.87 15.0237 12.5079L14.1546 11.6388C14.1265 11.6107 14.1209 11.577 14.1391 11.5411C14.2727 11.2781 14.3866 11.0025 14.4788 10.7234C14.4914 10.6854 14.5188 10.6657 14.5589 10.6657H15.7873C16.2991 10.6657 16.7154 10.2495 16.7154 9.73758V8.03391C16.7154 7.52203 16.2991 7.10578 15.7873 7.10578H14.5589C14.5188 7.10578 14.4914 7.08539 14.4788 7.04742C14.3866 6.76758 14.2727 6.49266 14.1391 6.22969C14.1209 6.19383 14.1265 6.16008 14.1546 6.13195L15.0237 5.26289C15.1987 5.08781 15.2951 4.85508 15.2951 4.60687C15.2951 4.35867 15.1987 4.12594 15.0237 3.95086L13.8192 2.74641C13.6441 2.57133 13.4114 2.475 13.1632 2.475C12.915 2.475 12.6823 2.57133 12.5072 2.74641L11.6381 3.61547C11.61 3.64359 11.5763 3.64922 11.5404 3.63094C11.2774 3.49805 11.0025 3.38344 10.7227 3.29133C10.6847 3.27867 10.665 3.25125 10.665 3.21117V1.98281C10.665 1.47094 10.2487 1.05469 9.73687 1.05469H8.0332C7.52133 1.05469 7.10508 1.47094 7.10508 1.98281V3.21117C7.10508 3.25125 7.08469 3.27867 7.04672 3.29133C6.76688 3.38344 6.49195 3.49734 6.22898 3.63094C6.19312 3.64922 6.15937 3.64359 6.13125 3.61547L5.26289 2.7457C4.90078 2.38359 4.31227 2.38359 3.95016 2.7457L2.7457 3.95086C2.57062 4.12594 2.4743 4.35867 2.4743 4.60687C2.4743 4.85508 2.57062 5.08781 2.7457 5.26289L3.61477 6.13195C3.64289 6.16008 3.64852 6.19383 3.63023 6.22969C3.49734 6.49266 3.38273 6.76758 3.29133 7.04742C3.27867 7.08539 3.25125 7.10508 3.21117 7.10508H1.98281C1.47094 7.10508 1.05469 7.52133 1.05469 8.0332V9.73687C1.05469 10.2487 1.47094 10.665 1.98281 10.665H3.21117C3.25125 10.665 3.27867 10.6854 3.29133 10.7227C3.38344 11.0025 3.49734 11.2774 3.63094 11.5404C3.64922 11.5763 3.64359 11.61 3.61547 11.6381L2.7457 12.5086C2.38359 12.8707 2.38359 13.4592 2.7457 13.8213L3.95016 15.0258C4.12523 15.2009 4.35797 15.2972 4.60617 15.2972C4.85438 15.2972 5.08711 15.2009 5.26219 15.0258L6.13125 14.1567C6.16078 14.1279 6.19453 14.1223 6.22969 14.1405ZM4.66664 14.4288C4.64625 14.4492 4.62305 14.4534 4.60687 14.4534C4.5907 14.4534 4.5675 14.4492 4.54711 14.4288L3.34266 13.2244C3.31031 13.192 3.31031 13.1372 3.34266 13.1048L4.21172 12.2358C4.49648 11.951 4.56539 11.5193 4.38328 11.16C4.26938 10.935 4.17164 10.6995 4.09289 10.4597C3.96773 10.0779 3.61336 9.82125 3.21117 9.82125H1.98281C1.93711 9.82125 1.89844 9.78258 1.89844 9.73687V8.0332C1.89844 7.9875 1.93711 7.94883 1.98281 7.94883H3.21117C3.61336 7.94883 3.96773 7.69219 4.09289 7.31039C4.17164 7.07133 4.26938 6.83578 4.38328 6.61078C4.56539 6.25219 4.49578 5.81977 4.21172 5.535L3.34266 4.66664C3.32227 4.64625 3.31805 4.62305 3.31805 4.60687C3.31805 4.5907 3.32227 4.5675 3.34266 4.54711L4.54711 3.34266C4.57945 3.31031 4.6343 3.31031 4.66664 3.34266L5.5357 4.21172C5.82047 4.49648 6.25219 4.56539 6.61148 4.38328C6.83648 4.26938 7.07203 4.17164 7.31109 4.09289C7.69289 3.96773 7.94953 3.61336 7.94953 3.21117V1.98281C7.94953 1.93711 7.9882 1.89844 8.03391 1.89844H9.73758C9.78328 1.89844 9.82195 1.93711 9.82195 1.98281V3.21117C9.82195 3.61336 10.0786 3.96773 10.4604 4.09289C10.7002 4.17164 10.9357 4.26938 11.16 4.38328C11.5186 4.56539 11.951 4.49578 12.2358 4.21172L13.1048 3.34266C13.1252 3.32227 13.1484 3.31805 13.1646 3.31805C13.1808 3.31805 13.204 3.32227 13.2244 3.34266L14.4288 4.54711C14.4492 4.5675 14.4534 4.5907 14.4534 4.60687C14.4534 4.62305 14.4492 4.64625 14.4288 4.66664L13.5598 5.5357C13.275 5.82047 13.2061 6.25219 13.3882 6.61148C13.5021 6.83648 13.5998 7.07203 13.6786 7.31109C13.8037 7.69289 14.1581 7.94953 14.5603 7.94953H15.7887C15.8344 7.94953 15.873 7.9882 15.873 8.03391V9.73758C15.873 9.78328 15.8344 9.82195 15.7887 9.82195H14.5603C14.1581 9.82195 13.8037 10.0786 13.6786 10.4604C13.5998 10.6995 13.5021 10.935 13.3882 11.1607C13.2061 11.5193 13.2757 11.9517 13.5598 12.2365L14.4288 13.1055C14.4612 13.1379 14.4612 13.1927 14.4288 13.2251L13.2244 14.4295C13.204 14.4499 13.1808 14.4541 13.1646 14.4541C13.1484 14.4541 13.1252 14.4499 13.1048 14.4295L12.2358 13.5605C11.951 13.2757 11.5193 13.2068 11.16 13.3889C10.935 13.5028 10.6995 13.6005 10.4604 13.6793C10.0786 13.8045 9.82195 14.1588 9.82195 14.561V15.7894C9.82195 15.8351 9.78328 15.8737 9.73758 15.8737H8.03391C7.9882 15.8737 7.94953 15.8351 7.94953 15.7894V14.561C7.94953 14.1588 7.69289 13.8045 7.31109 13.6793C7.07203 13.6005 6.83648 13.5028 6.61078 13.3889C6.47719 13.3214 6.33375 13.2884 6.19102 13.2884C5.95055 13.2884 5.71359 13.3819 5.535 13.5605L4.66664 14.4288ZM28.7529 14.7804C27.8374 14.2516 26.7891 14.066 25.7604 14.2425L24.4793 9.46125C24.1495 8.23008 22.8797 7.49672 21.6485 7.82648C20.494 8.13586 19.7775 9.27211 19.9645 10.4273C18.9788 12.4249 14.8219 16.5783 13.3594 16.9973L8.64492 18.2609C6.56437 18.8184 5.30297 20.8842 5.83383 22.8649L6.56648 25.6001C6.82453 26.562 7.46227 27.36 8.36438 27.848C8.94516 28.1623 9.58922 28.3226 10.2438 28.3226C10.2698 28.3226 10.2959 28.3219 10.3212 28.3212L14.5659 34.2077C14.9133 34.6894 15.4582 34.9453 16.0109 34.9453C16.3716 34.9453 16.7351 34.8363 17.0487 34.6099C17.8179 34.0552 17.9972 32.9977 17.4663 32.1497L14.4527 27.3382L16.1269 26.8896C17.5887 26.5254 23.2755 28.0673 25.0601 29.2999C25.4545 30.0748 26.2575 30.5634 27.1209 30.5634C27.3185 30.5634 27.5189 30.5381 27.7186 30.4847C28.9498 30.1549 29.6831 28.8851 29.3534 27.6539L28.0723 22.8727C29.051 22.5105 29.8666 21.8257 30.3947 20.9102C30.9937 19.8724 31.1534 18.663 30.8433 17.505C30.5332 16.347 29.7907 15.3795 28.7529 14.7804ZM16.7527 32.5983C17.0445 33.0645 16.9601 33.6354 16.5565 33.9265C16.1381 34.2281 15.5524 34.1332 15.2515 33.7148L11.2683 28.1918C11.2802 28.189 11.2915 28.1862 11.3034 28.1827L13.6012 27.5667L16.7527 32.5983ZM11.0848 27.3677C10.293 27.5801 9.46898 27.4873 8.76586 27.1069C8.07047 26.7307 7.57898 26.1183 7.38141 25.3828L6.64875 22.6477C6.23812 21.1155 7.23164 19.5138 8.86289 19.0765L13.185 17.9184L14.4274 22.1548L15.5067 26.183L11.0848 27.3677ZM16.3336 26.0086L15.2409 21.9319C15.2402 21.9284 15.2395 21.9255 15.2381 21.922L13.9866 17.6541C15.2205 17.0641 16.9573 15.3802 17.5043 14.8317C18.4493 13.8853 19.5539 12.6436 20.2605 11.5819L24.6923 28.1215C22.4606 27.012 18.237 25.8525 16.3336 26.0086ZM27.5006 29.6698C26.7188 29.8793 25.9123 29.4138 25.7027 28.632L20.828 10.4393C20.6184 9.65742 21.0839 8.85094 21.8658 8.64141C22.2427 8.54016 22.6378 8.59289 22.9781 8.78977C23.3191 8.98664 23.5624 9.30234 23.663 9.67922L28.5377 27.8719C28.748 28.6537 28.2825 29.4602 27.5006 29.6698ZM27.8529 22.0528L25.9798 15.0623C26.7898 14.9421 27.611 15.0961 28.331 15.5116C29.1741 15.9982 29.7766 16.7843 30.0291 17.7244C30.5114 19.5265 29.5481 21.3813 27.8529 22.0528ZM32.0154 16.7548L34.4145 16.1121C34.6395 16.0516 34.8708 16.1852 34.9312 16.4102C34.9917 16.6352 34.8581 16.8666 34.6331 16.927L32.2341 17.5697C32.1975 17.5795 32.1609 17.5845 32.1244 17.5845C31.938 17.5845 31.7679 17.46 31.7173 17.2716C31.6561 17.0459 31.7897 16.8145 32.0154 16.7548ZM34.9312 20.9236C34.8806 21.112 34.7105 21.2365 34.5241 21.2365C34.4883 21.2365 34.451 21.2316 34.4145 21.2217L32.0154 20.5791C31.7904 20.5186 31.6568 20.2873 31.7173 20.0623C31.7777 19.8373 32.0091 19.7044 32.2341 19.7641L34.6331 20.4068C34.8574 20.4673 34.991 20.6986 34.9312 20.9236ZM30.3216 14.8542C30.157 14.6897 30.157 14.4225 30.3216 14.2573L32.078 12.5009C32.2425 12.3363 32.5097 12.3363 32.6749 12.5009C32.8395 12.6654 32.8395 12.9326 32.6749 13.0978L30.9185 14.8542C30.8363 14.9365 30.728 14.978 30.6204 14.978C30.5128 14.978 30.4038 14.9365 30.3216 14.8542Z"/>
</mask>
<path d="M8.88539 12.342C10.7909 12.342 12.3413 10.7916 12.3413 8.88609C12.3413 6.98062 10.7909 5.43023 8.88539 5.43023C6.97992 5.43023 5.42953 6.98062 5.42953 8.88609C5.42953 10.7916 6.97992 12.342 8.88539 12.342ZM8.88539 6.27328C10.3261 6.27328 11.4975 7.44539 11.4975 8.88539C11.4975 10.3261 10.3254 11.4975 8.88539 11.4975C7.44469 11.4975 6.27328 10.3254 6.27328 8.88539C6.27328 7.44539 7.44539 6.27328 8.88539 6.27328ZM6.22969 14.1405C6.49266 14.2734 6.76758 14.388 7.04742 14.4802C7.08539 14.4928 7.10508 14.5202 7.10508 14.5603V15.7887C7.10508 16.3005 7.52133 16.7168 8.0332 16.7168H9.73687C10.2487 16.7168 10.665 16.3005 10.665 15.7887V14.5603C10.665 14.5202 10.6854 14.4928 10.7227 14.4802C11.0025 14.388 11.2774 14.2741 11.5404 14.1405C11.5763 14.1223 11.61 14.1279 11.6381 14.156L12.5072 15.0251C12.6823 15.2002 12.915 15.2965 13.1632 15.2965C13.4114 15.2965 13.6441 15.2002 13.8192 15.0251L15.0237 13.8206C15.3858 13.4585 15.3858 12.87 15.0237 12.5079L14.1546 11.6388C14.1265 11.6107 14.1209 11.577 14.1391 11.5411C14.2727 11.2781 14.3866 11.0025 14.4788 10.7234C14.4914 10.6854 14.5188 10.6657 14.5589 10.6657H15.7873C16.2991 10.6657 16.7154 10.2495 16.7154 9.73758V8.03391C16.7154 7.52203 16.2991 7.10578 15.7873 7.10578H14.5589C14.5188 7.10578 14.4914 7.08539 14.4788 7.04742C14.3866 6.76758 14.2727 6.49266 14.1391 6.22969C14.1209 6.19383 14.1265 6.16008 14.1546 6.13195L15.0237 5.26289C15.1987 5.08781 15.2951 4.85508 15.2951 4.60687C15.2951 4.35867 15.1987 4.12594 15.0237 3.95086L13.8192 2.74641C13.6441 2.57133 13.4114 2.475 13.1632 2.475C12.915 2.475 12.6823 2.57133 12.5072 2.74641L11.6381 3.61547C11.61 3.64359 11.5763 3.64922 11.5404 3.63094C11.2774 3.49805 11.0025 3.38344 10.7227 3.29133C10.6847 3.27867 10.665 3.25125 10.665 3.21117V1.98281C10.665 1.47094 10.2487 1.05469 9.73687 1.05469H8.0332C7.52133 1.05469 7.10508 1.47094 7.10508 1.98281V3.21117C7.10508 3.25125 7.08469 3.27867 7.04672 3.29133C6.76688 3.38344 6.49195 3.49734 6.22898 3.63094C6.19312 3.64922 6.15937 3.64359 6.13125 3.61547L5.26289 2.7457C4.90078 2.38359 4.31227 2.38359 3.95016 2.7457L2.7457 3.95086C2.57062 4.12594 2.4743 4.35867 2.4743 4.60687C2.4743 4.85508 2.57062 5.08781 2.7457 5.26289L3.61477 6.13195C3.64289 6.16008 3.64852 6.19383 3.63023 6.22969C3.49734 6.49266 3.38273 6.76758 3.29133 7.04742C3.27867 7.08539 3.25125 7.10508 3.21117 7.10508H1.98281C1.47094 7.10508 1.05469 7.52133 1.05469 8.0332V9.73687C1.05469 10.2487 1.47094 10.665 1.98281 10.665H3.21117C3.25125 10.665 3.27867 10.6854 3.29133 10.7227C3.38344 11.0025 3.49734 11.2774 3.63094 11.5404C3.64922 11.5763 3.64359 11.61 3.61547 11.6381L2.7457 12.5086C2.38359 12.8707 2.38359 13.4592 2.7457 13.8213L3.95016 15.0258C4.12523 15.2009 4.35797 15.2972 4.60617 15.2972C4.85438 15.2972 5.08711 15.2009 5.26219 15.0258L6.13125 14.1567C6.16078 14.1279 6.19453 14.1223 6.22969 14.1405ZM4.66664 14.4288C4.64625 14.4492 4.62305 14.4534 4.60687 14.4534C4.5907 14.4534 4.5675 14.4492 4.54711 14.4288L3.34266 13.2244C3.31031 13.192 3.31031 13.1372 3.34266 13.1048L4.21172 12.2358C4.49648 11.951 4.56539 11.5193 4.38328 11.16C4.26938 10.935 4.17164 10.6995 4.09289 10.4597C3.96773 10.0779 3.61336 9.82125 3.21117 9.82125H1.98281C1.93711 9.82125 1.89844 9.78258 1.89844 9.73687V8.0332C1.89844 7.9875 1.93711 7.94883 1.98281 7.94883H3.21117C3.61336 7.94883 3.96773 7.69219 4.09289 7.31039C4.17164 7.07133 4.26938 6.83578 4.38328 6.61078C4.56539 6.25219 4.49578 5.81977 4.21172 5.535L3.34266 4.66664C3.32227 4.64625 3.31805 4.62305 3.31805 4.60687C3.31805 4.5907 3.32227 4.5675 3.34266 4.54711L4.54711 3.34266C4.57945 3.31031 4.6343 3.31031 4.66664 3.34266L5.5357 4.21172C5.82047 4.49648 6.25219 4.56539 6.61148 4.38328C6.83648 4.26938 7.07203 4.17164 7.31109 4.09289C7.69289 3.96773 7.94953 3.61336 7.94953 3.21117V1.98281C7.94953 1.93711 7.9882 1.89844 8.03391 1.89844H9.73758C9.78328 1.89844 9.82195 1.93711 9.82195 1.98281V3.21117C9.82195 3.61336 10.0786 3.96773 10.4604 4.09289C10.7002 4.17164 10.9357 4.26938 11.16 4.38328C11.5186 4.56539 11.951 4.49578 12.2358 4.21172L13.1048 3.34266C13.1252 3.32227 13.1484 3.31805 13.1646 3.31805C13.1808 3.31805 13.204 3.32227 13.2244 3.34266L14.4288 4.54711C14.4492 4.5675 14.4534 4.5907 14.4534 4.60687C14.4534 4.62305 14.4492 4.64625 14.4288 4.66664L13.5598 5.5357C13.275 5.82047 13.2061 6.25219 13.3882 6.61148C13.5021 6.83648 13.5998 7.07203 13.6786 7.31109C13.8037 7.69289 14.1581 7.94953 14.5603 7.94953H15.7887C15.8344 7.94953 15.873 7.9882 15.873 8.03391V9.73758C15.873 9.78328 15.8344 9.82195 15.7887 9.82195H14.5603C14.1581 9.82195 13.8037 10.0786 13.6786 10.4604C13.5998 10.6995 13.5021 10.935 13.3882 11.1607C13.2061 11.5193 13.2757 11.9517 13.5598 12.2365L14.4288 13.1055C14.4612 13.1379 14.4612 13.1927 14.4288 13.2251L13.2244 14.4295C13.204 14.4499 13.1808 14.4541 13.1646 14.4541C13.1484 14.4541 13.1252 14.4499 13.1048 14.4295L12.2358 13.5605C11.951 13.2757 11.5193 13.2068 11.16 13.3889C10.935 13.5028 10.6995 13.6005 10.4604 13.6793C10.0786 13.8045 9.82195 14.1588 9.82195 14.561V15.7894C9.82195 15.8351 9.78328 15.8737 9.73758 15.8737H8.03391C7.9882 15.8737 7.94953 15.8351 7.94953 15.7894V14.561C7.94953 14.1588 7.69289 13.8045 7.31109 13.6793C7.07203 13.6005 6.83648 13.5028 6.61078 13.3889C6.47719 13.3214 6.33375 13.2884 6.19102 13.2884C5.95055 13.2884 5.71359 13.3819 5.535 13.5605L4.66664 14.4288ZM28.7529 14.7804C27.8374 14.2516 26.7891 14.066 25.7604 14.2425L24.4793 9.46125C24.1495 8.23008 22.8797 7.49672 21.6485 7.82648C20.494 8.13586 19.7775 9.27211 19.9645 10.4273C18.9788 12.4249 14.8219 16.5783 13.3594 16.9973L8.64492 18.2609C6.56437 18.8184 5.30297 20.8842 5.83383 22.8649L6.56648 25.6001C6.82453 26.562 7.46227 27.36 8.36438 27.848C8.94516 28.1623 9.58922 28.3226 10.2438 28.3226C10.2698 28.3226 10.2959 28.3219 10.3212 28.3212L14.5659 34.2077C14.9133 34.6894 15.4582 34.9453 16.0109 34.9453C16.3716 34.9453 16.7351 34.8363 17.0487 34.6099C17.8179 34.0552 17.9972 32.9977 17.4663 32.1497L14.4527 27.3382L16.1269 26.8896C17.5887 26.5254 23.2755 28.0673 25.0601 29.2999C25.4545 30.0748 26.2575 30.5634 27.1209 30.5634C27.3185 30.5634 27.5189 30.5381 27.7186 30.4847C28.9498 30.1549 29.6831 28.8851 29.3534 27.6539L28.0723 22.8727C29.051 22.5105 29.8666 21.8257 30.3947 20.9102C30.9937 19.8724 31.1534 18.663 30.8433 17.505C30.5332 16.347 29.7907 15.3795 28.7529 14.7804ZM16.7527 32.5983C17.0445 33.0645 16.9601 33.6354 16.5565 33.9265C16.1381 34.2281 15.5524 34.1332 15.2515 33.7148L11.2683 28.1918C11.2802 28.189 11.2915 28.1862 11.3034 28.1827L13.6012 27.5667L16.7527 32.5983ZM11.0848 27.3677C10.293 27.5801 9.46898 27.4873 8.76586 27.1069C8.07047 26.7307 7.57898 26.1183 7.38141 25.3828L6.64875 22.6477C6.23812 21.1155 7.23164 19.5138 8.86289 19.0765L13.185 17.9184L14.4274 22.1548L15.5067 26.183L11.0848 27.3677ZM16.3336 26.0086L15.2409 21.9319C15.2402 21.9284 15.2395 21.9255 15.2381 21.922L13.9866 17.6541C15.2205 17.0641 16.9573 15.3802 17.5043 14.8317C18.4493 13.8853 19.5539 12.6436 20.2605 11.5819L24.6923 28.1215C22.4606 27.012 18.237 25.8525 16.3336 26.0086ZM27.5006 29.6698C26.7188 29.8793 25.9123 29.4138 25.7027 28.632L20.828 10.4393C20.6184 9.65742 21.0839 8.85094 21.8658 8.64141C22.2427 8.54016 22.6378 8.59289 22.9781 8.78977C23.3191 8.98664 23.5624 9.30234 23.663 9.67922L28.5377 27.8719C28.748 28.6537 28.2825 29.4602 27.5006 29.6698ZM27.8529 22.0528L25.9798 15.0623C26.7898 14.9421 27.611 15.0961 28.331 15.5116C29.1741 15.9982 29.7766 16.7843 30.0291 17.7244C30.5114 19.5265 29.5481 21.3813 27.8529 22.0528ZM32.0154 16.7548L34.4145 16.1121C34.6395 16.0516 34.8708 16.1852 34.9312 16.4102C34.9917 16.6352 34.8581 16.8666 34.6331 16.927L32.2341 17.5697C32.1975 17.5795 32.1609 17.5845 32.1244 17.5845C31.938 17.5845 31.7679 17.46 31.7173 17.2716C31.6561 17.0459 31.7897 16.8145 32.0154 16.7548ZM34.9312 20.9236C34.8806 21.112 34.7105 21.2365 34.5241 21.2365C34.4883 21.2365 34.451 21.2316 34.4145 21.2217L32.0154 20.5791C31.7904 20.5186 31.6568 20.2873 31.7173 20.0623C31.7777 19.8373 32.0091 19.7044 32.2341 19.7641L34.6331 20.4068C34.8574 20.4673 34.991 20.6986 34.9312 20.9236ZM30.3216 14.8542C30.157 14.6897 30.157 14.4225 30.3216 14.2573L32.078 12.5009C32.2425 12.3363 32.5097 12.3363 32.6749 12.5009C32.8395 12.6654 32.8395 12.9326 32.6749 13.0978L30.9185 14.8542C30.8363 14.9365 30.728 14.978 30.6204 14.978C30.5128 14.978 30.4038 14.9365 30.3216 14.8542Z" fill="black"/>
<path d="M8.88539 12.342C10.7909 12.342 12.3413 10.7916 12.3413 8.88609C12.3413 6.98062 10.7909 5.43023 8.88539 5.43023C6.97992 5.43023 5.42953 6.98062 5.42953 8.88609C5.42953 10.7916 6.97992 12.342 8.88539 12.342ZM8.88539 6.27328C10.3261 6.27328 11.4975 7.44539 11.4975 8.88539C11.4975 10.3261 10.3254 11.4975 8.88539 11.4975C7.44469 11.4975 6.27328 10.3254 6.27328 8.88539C6.27328 7.44539 7.44539 6.27328 8.88539 6.27328ZM6.22969 14.1405C6.49266 14.2734 6.76758 14.388 7.04742 14.4802C7.08539 14.4928 7.10508 14.5202 7.10508 14.5603V15.7887C7.10508 16.3005 7.52133 16.7168 8.0332 16.7168H9.73687C10.2487 16.7168 10.665 16.3005 10.665 15.7887V14.5603C10.665 14.5202 10.6854 14.4928 10.7227 14.4802C11.0025 14.388 11.2774 14.2741 11.5404 14.1405C11.5763 14.1223 11.61 14.1279 11.6381 14.156L12.5072 15.0251C12.6823 15.2002 12.915 15.2965 13.1632 15.2965C13.4114 15.2965 13.6441 15.2002 13.8192 15.0251L15.0237 13.8206C15.3858 13.4585 15.3858 12.87 15.0237 12.5079L14.1546 11.6388C14.1265 11.6107 14.1209 11.577 14.1391 11.5411C14.2727 11.2781 14.3866 11.0025 14.4788 10.7234C14.4914 10.6854 14.5188 10.6657 14.5589 10.6657H15.7873C16.2991 10.6657 16.7154 10.2495 16.7154 9.73758V8.03391C16.7154 7.52203 16.2991 7.10578 15.7873 7.10578H14.5589C14.5188 7.10578 14.4914 7.08539 14.4788 7.04742C14.3866 6.76758 14.2727 6.49266 14.1391 6.22969C14.1209 6.19383 14.1265 6.16008 14.1546 6.13195L15.0237 5.26289C15.1987 5.08781 15.2951 4.85508 15.2951 4.60687C15.2951 4.35867 15.1987 4.12594 15.0237 3.95086L13.8192 2.74641C13.6441 2.57133 13.4114 2.475 13.1632 2.475C12.915 2.475 12.6823 2.57133 12.5072 2.74641L11.6381 3.61547C11.61 3.64359 11.5763 3.64922 11.5404 3.63094C11.2774 3.49805 11.0025 3.38344 10.7227 3.29133C10.6847 3.27867 10.665 3.25125 10.665 3.21117V1.98281C10.665 1.47094 10.2487 1.05469 9.73687 1.05469H8.0332C7.52133 1.05469 7.10508 1.47094 7.10508 1.98281V3.21117C7.10508 3.25125 7.08469 3.27867 7.04672 3.29133C6.76688 3.38344 6.49195 3.49734 6.22898 3.63094C6.19312 3.64922 6.15937 3.64359 6.13125 3.61547L5.26289 2.7457C4.90078 2.38359 4.31227 2.38359 3.95016 2.7457L2.7457 3.95086C2.57062 4.12594 2.4743 4.35867 2.4743 4.60687C2.4743 4.85508 2.57062 5.08781 2.7457 5.26289L3.61477 6.13195C3.64289 6.16008 3.64852 6.19383 3.63023 6.22969C3.49734 6.49266 3.38273 6.76758 3.29133 7.04742C3.27867 7.08539 3.25125 7.10508 3.21117 7.10508H1.98281C1.47094 7.10508 1.05469 7.52133 1.05469 8.0332V9.73687C1.05469 10.2487 1.47094 10.665 1.98281 10.665H3.21117C3.25125 10.665 3.27867 10.6854 3.29133 10.7227C3.38344 11.0025 3.49734 11.2774 3.63094 11.5404C3.64922 11.5763 3.64359 11.61 3.61547 11.6381L2.7457 12.5086C2.38359 12.8707 2.38359 13.4592 2.7457 13.8213L3.95016 15.0258C4.12523 15.2009 4.35797 15.2972 4.60617 15.2972C4.85438 15.2972 5.08711 15.2009 5.26219 15.0258L6.13125 14.1567C6.16078 14.1279 6.19453 14.1223 6.22969 14.1405ZM4.66664 14.4288C4.64625 14.4492 4.62305 14.4534 4.60687 14.4534C4.5907 14.4534 4.5675 14.4492 4.54711 14.4288L3.34266 13.2244C3.31031 13.192 3.31031 13.1372 3.34266 13.1048L4.21172 12.2358C4.49648 11.951 4.56539 11.5193 4.38328 11.16C4.26938 10.935 4.17164 10.6995 4.09289 10.4597C3.96773 10.0779 3.61336 9.82125 3.21117 9.82125H1.98281C1.93711 9.82125 1.89844 9.78258 1.89844 9.73687V8.0332C1.89844 7.9875 1.93711 7.94883 1.98281 7.94883H3.21117C3.61336 7.94883 3.96773 7.69219 4.09289 7.31039C4.17164 7.07133 4.26938 6.83578 4.38328 6.61078C4.56539 6.25219 4.49578 5.81977 4.21172 5.535L3.34266 4.66664C3.32227 4.64625 3.31805 4.62305 3.31805 4.60687C3.31805 4.5907 3.32227 4.5675 3.34266 4.54711L4.54711 3.34266C4.57945 3.31031 4.6343 3.31031 4.66664 3.34266L5.5357 4.21172C5.82047 4.49648 6.25219 4.56539 6.61148 4.38328C6.83648 4.26938 7.07203 4.17164 7.31109 4.09289C7.69289 3.96773 7.94953 3.61336 7.94953 3.21117V1.98281C7.94953 1.93711 7.9882 1.89844 8.03391 1.89844H9.73758C9.78328 1.89844 9.82195 1.93711 9.82195 1.98281V3.21117C9.82195 3.61336 10.0786 3.96773 10.4604 4.09289C10.7002 4.17164 10.9357 4.26938 11.16 4.38328C11.5186 4.56539 11.951 4.49578 12.2358 4.21172L13.1048 3.34266C13.1252 3.32227 13.1484 3.31805 13.1646 3.31805C13.1808 3.31805 13.204 3.32227 13.2244 3.34266L14.4288 4.54711C14.4492 4.5675 14.4534 4.5907 14.4534 4.60687C14.4534 4.62305 14.4492 4.64625 14.4288 4.66664L13.5598 5.5357C13.275 5.82047 13.2061 6.25219 13.3882 6.61148C13.5021 6.83648 13.5998 7.07203 13.6786 7.31109C13.8037 7.69289 14.1581 7.94953 14.5603 7.94953H15.7887C15.8344 7.94953 15.873 7.9882 15.873 8.03391V9.73758C15.873 9.78328 15.8344 9.82195 15.7887 9.82195H14.5603C14.1581 9.82195 13.8037 10.0786 13.6786 10.4604C13.5998 10.6995 13.5021 10.935 13.3882 11.1607C13.2061 11.5193 13.2757 11.9517 13.5598 12.2365L14.4288 13.1055C14.4612 13.1379 14.4612 13.1927 14.4288 13.2251L13.2244 14.4295C13.204 14.4499 13.1808 14.4541 13.1646 14.4541C13.1484 14.4541 13.1252 14.4499 13.1048 14.4295L12.2358 13.5605C11.951 13.2757 11.5193 13.2068 11.16 13.3889C10.935 13.5028 10.6995 13.6005 10.4604 13.6793C10.0786 13.8045 9.82195 14.1588 9.82195 14.561V15.7894C9.82195 15.8351 9.78328 15.8737 9.73758 15.8737H8.03391C7.9882 15.8737 7.94953 15.8351 7.94953 15.7894V14.561C7.94953 14.1588 7.69289 13.8045 7.31109 13.6793C7.07203 13.6005 6.83648 13.5028 6.61078 13.3889C6.47719 13.3214 6.33375 13.2884 6.19102 13.2884C5.95055 13.2884 5.71359 13.3819 5.535 13.5605L4.66664 14.4288ZM28.7529 14.7804C27.8374 14.2516 26.7891 14.066 25.7604 14.2425L24.4793 9.46125C24.1495 8.23008 22.8797 7.49672 21.6485 7.82648C20.494 8.13586 19.7775 9.27211 19.9645 10.4273C18.9788 12.4249 14.8219 16.5783 13.3594 16.9973L8.64492 18.2609C6.56437 18.8184 5.30297 20.8842 5.83383 22.8649L6.56648 25.6001C6.82453 26.562 7.46227 27.36 8.36438 27.848C8.94516 28.1623 9.58922 28.3226 10.2438 28.3226C10.2698 28.3226 10.2959 28.3219 10.3212 28.3212L14.5659 34.2077C14.9133 34.6894 15.4582 34.9453 16.0109 34.9453C16.3716 34.9453 16.7351 34.8363 17.0487 34.6099C17.8179 34.0552 17.9972 32.9977 17.4663 32.1497L14.4527 27.3382L16.1269 26.8896C17.5887 26.5254 23.2755 28.0673 25.0601 29.2999C25.4545 30.0748 26.2575 30.5634 27.1209 30.5634C27.3185 30.5634 27.5189 30.5381 27.7186 30.4847C28.9498 30.1549 29.6831 28.8851 29.3534 27.6539L28.0723 22.8727C29.051 22.5105 29.8666 21.8257 30.3947 20.9102C30.9937 19.8724 31.1534 18.663 30.8433 17.505C30.5332 16.347 29.7907 15.3795 28.7529 14.7804ZM16.7527 32.5983C17.0445 33.0645 16.9601 33.6354 16.5565 33.9265C16.1381 34.2281 15.5524 34.1332 15.2515 33.7148L11.2683 28.1918C11.2802 28.189 11.2915 28.1862 11.3034 28.1827L13.6012 27.5667L16.7527 32.5983ZM11.0848 27.3677C10.293 27.5801 9.46898 27.4873 8.76586 27.1069C8.07047 26.7307 7.57898 26.1183 7.38141 25.3828L6.64875 22.6477C6.23812 21.1155 7.23164 19.5138 8.86289 19.0765L13.185 17.9184L14.4274 22.1548L15.5067 26.183L11.0848 27.3677ZM16.3336 26.0086L15.2409 21.9319C15.2402 21.9284 15.2395 21.9255 15.2381 21.922L13.9866 17.6541C15.2205 17.0641 16.9573 15.3802 17.5043 14.8317C18.4493 13.8853 19.5539 12.6436 20.2605 11.5819L24.6923 28.1215C22.4606 27.012 18.237 25.8525 16.3336 26.0086ZM27.5006 29.6698C26.7188 29.8793 25.9123 29.4138 25.7027 28.632L20.828 10.4393C20.6184 9.65742 21.0839 8.85094 21.8658 8.64141C22.2427 8.54016 22.6378 8.59289 22.9781 8.78977C23.3191 8.98664 23.5624 9.30234 23.663 9.67922L28.5377 27.8719C28.748 28.6537 28.2825 29.4602 27.5006 29.6698ZM27.8529 22.0528L25.9798 15.0623C26.7898 14.9421 27.611 15.0961 28.331 15.5116C29.1741 15.9982 29.7766 16.7843 30.0291 17.7244C30.5114 19.5265 29.5481 21.3813 27.8529 22.0528ZM32.0154 16.7548L34.4145 16.1121C34.6395 16.0516 34.8708 16.1852 34.9312 16.4102C34.9917 16.6352 34.8581 16.8666 34.6331 16.927L32.2341 17.5697C32.1975 17.5795 32.1609 17.5845 32.1244 17.5845C31.938 17.5845 31.7679 17.46 31.7173 17.2716C31.6561 17.0459 31.7897 16.8145 32.0154 16.7548ZM34.9312 20.9236C34.8806 21.112 34.7105 21.2365 34.5241 21.2365C34.4883 21.2365 34.451 21.2316 34.4145 21.2217L32.0154 20.5791C31.7904 20.5186 31.6568 20.2873 31.7173 20.0623C31.7777 19.8373 32.0091 19.7044 32.2341 19.7641L34.6331 20.4068C34.8574 20.4673 34.991 20.6986 34.9312 20.9236ZM30.3216 14.8542C30.157 14.6897 30.157 14.4225 30.3216 14.2573L32.078 12.5009C32.2425 12.3363 32.5097 12.3363 32.6749 12.5009C32.8395 12.6654 32.8395 12.9326 32.6749 13.0978L30.9185 14.8542C30.8363 14.9365 30.728 14.978 30.6204 14.978C30.5128 14.978 30.4038 14.9365 30.3216 14.8542Z" stroke="black" stroke-width="0.415385" mask="url(#path-1-outside-1_1091_307903)"/>
<mask id="path-2-outside-2_1091_307903" maskUnits="userSpaceOnUse" x="0.0546875" y="0.0546875" width="17" height="17" fill="black">
<rect fill="white" x="0.0546875" y="0.0546875" width="17" height="17"/>
<path d="M8.88539 12.342C10.7909 12.342 12.3412 10.7916 12.3412 8.88609C12.3412 6.98062 10.7909 5.43023 8.88539 5.43023C6.97992 5.43023 5.42953 6.98062 5.42953 8.88609C5.42953 10.7916 6.97992 12.342 8.88539 12.342ZM8.88539 6.27328C10.3261 6.27328 11.4975 7.44539 11.4975 8.88539C11.4975 10.3261 10.3254 11.4975 8.88539 11.4975C7.44469 11.4975 6.27328 10.3254 6.27328 8.88539C6.27328 7.44539 7.44539 6.27328 8.88539 6.27328ZM6.22969 14.1405C6.49266 14.2734 6.76758 14.388 7.04742 14.4802C7.08539 14.4928 7.10508 14.5202 7.10508 14.5603V15.7887C7.10508 16.3005 7.52133 16.7168 8.0332 16.7168H9.73687C10.2487 16.7168 10.665 16.3005 10.665 15.7887V14.5603C10.665 14.5202 10.6854 14.4928 10.7227 14.4802C11.0025 14.388 11.2774 14.2741 11.5404 14.1405C11.5763 14.1223 11.61 14.1279 11.6381 14.156L12.5072 15.0251C12.6823 15.2002 12.915 15.2965 13.1632 15.2965C13.4114 15.2965 13.6441 15.2002 13.8192 15.0251L15.0237 13.8206C15.3858 13.4585 15.3858 12.87 15.0237 12.5079L14.1546 11.6388C14.1265 11.6107 14.1209 11.577 14.1391 11.5411C14.2727 11.2781 14.3866 11.0025 14.4787 10.7234C14.4914 10.6854 14.5188 10.6657 14.5589 10.6657H15.7873C16.2991 10.6657 16.7154 10.2495 16.7154 9.73758V8.03391C16.7154 7.52203 16.2991 7.10578 15.7873 7.10578H14.5589C14.5188 7.10578 14.4914 7.08539 14.4787 7.04742C14.3866 6.76758 14.2727 6.49266 14.1391 6.22969C14.1209 6.19383 14.1265 6.16008 14.1546 6.13195L15.0237 5.26289C15.1987 5.08781 15.2951 4.85508 15.2951 4.60687C15.2951 4.35867 15.1987 4.12594 15.0237 3.95086L13.8192 2.74641C13.6441 2.57133 13.4114 2.475 13.1632 2.475C12.915 2.475 12.6823 2.57133 12.5072 2.74641L11.6381 3.61547C11.61 3.64359 11.5763 3.64922 11.5404 3.63094C11.2774 3.49805 11.0025 3.38344 10.7227 3.29133C10.6847 3.27867 10.665 3.25125 10.665 3.21117V1.98281C10.665 1.47094 10.2487 1.05469 9.73687 1.05469H8.0332C7.52133 1.05469 7.10508 1.47094 7.10508 1.98281V3.21117C7.10508 3.25125 7.08469 3.27867 7.04672 3.29133C6.76687 3.38344 6.49195 3.49734 6.22898 3.63094C6.19312 3.64922 6.15937 3.64359 6.13125 3.61547L5.26289 2.7457C4.90078 2.38359 4.31227 2.38359 3.95016 2.7457L2.7457 3.95086C2.57062 4.12594 2.4743 4.35867 2.4743 4.60687C2.4743 4.85508 2.57062 5.08781 2.7457 5.26289L3.61477 6.13195C3.64289 6.16008 3.64852 6.19383 3.63023 6.22969C3.49734 6.49266 3.38273 6.76758 3.29133 7.04742C3.27867 7.08539 3.25125 7.10508 3.21117 7.10508H1.98281C1.47094 7.10508 1.05469 7.52133 1.05469 8.0332V9.73688C1.05469 10.2487 1.47094 10.665 1.98281 10.665H3.21117C3.25125 10.665 3.27867 10.6854 3.29133 10.7227C3.38344 11.0025 3.49734 11.2774 3.63094 11.5404C3.64922 11.5763 3.64359 11.61 3.61547 11.6381L2.7457 12.5086C2.38359 12.8707 2.38359 13.4592 2.7457 13.8213L3.95016 15.0258C4.12523 15.2009 4.35797 15.2972 4.60617 15.2972C4.85437 15.2972 5.08711 15.2009 5.26219 15.0258L6.13125 14.1567C6.16078 14.1279 6.19453 14.1223 6.22969 14.1405ZM4.66664 14.4288C4.64625 14.4492 4.62305 14.4534 4.60687 14.4534C4.5907 14.4534 4.5675 14.4492 4.54711 14.4288L3.34266 13.2244C3.31031 13.192 3.31031 13.1372 3.34266 13.1048L4.21172 12.2358C4.49648 11.951 4.56539 11.5193 4.38328 11.16C4.26937 10.935 4.17164 10.6995 4.09289 10.4597C3.96773 10.0779 3.61336 9.82125 3.21117 9.82125H1.98281C1.93711 9.82125 1.89844 9.78258 1.89844 9.73688V8.0332C1.89844 7.9875 1.93711 7.94883 1.98281 7.94883H3.21117C3.61336 7.94883 3.96773 7.69219 4.09289 7.31039C4.17164 7.07133 4.26937 6.83578 4.38328 6.61078C4.56539 6.25219 4.49578 5.81977 4.21172 5.535L3.34266 4.66664C3.32227 4.64625 3.31805 4.62305 3.31805 4.60687C3.31805 4.5907 3.32227 4.5675 3.34266 4.54711L4.54711 3.34266C4.57945 3.31031 4.6343 3.31031 4.66664 3.34266L5.5357 4.21172C5.82047 4.49648 6.25219 4.56539 6.61148 4.38328C6.83648 4.26938 7.07203 4.17164 7.31109 4.09289C7.69289 3.96773 7.94953 3.61336 7.94953 3.21117V1.98281C7.94953 1.93711 7.9882 1.89844 8.03391 1.89844H9.73758C9.78328 1.89844 9.82195 1.93711 9.82195 1.98281V3.21117C9.82195 3.61336 10.0786 3.96773 10.4604 4.09289C10.7002 4.17164 10.9357 4.26938 11.16 4.38328C11.5186 4.56539 11.951 4.49578 12.2358 4.21172L13.1048 3.34266C13.1252 3.32227 13.1484 3.31805 13.1646 3.31805C13.1808 3.31805 13.204 3.32227 13.2244 3.34266L14.4288 4.54711C14.4492 4.5675 14.4534 4.5907 14.4534 4.60687C14.4534 4.62305 14.4492 4.64625 14.4288 4.66664L13.5598 5.5357C13.275 5.82047 13.2061 6.25219 13.3882 6.61148C13.5021 6.83648 13.5998 7.07203 13.6786 7.31109C13.8037 7.69289 14.1581 7.94953 14.5603 7.94953H15.7887C15.8344 7.94953 15.873 7.9882 15.873 8.03391V9.73758C15.873 9.78328 15.8344 9.82195 15.7887 9.82195H14.5603C14.1581 9.82195 13.8037 10.0786 13.6786 10.4604C13.5998 10.6995 13.5021 10.935 13.3882 11.1607C13.2061 11.5193 13.2757 11.9517 13.5598 12.2365L14.4288 13.1055C14.4612 13.1379 14.4612 13.1927 14.4288 13.2251L13.2244 14.4295C13.204 14.4499 13.1808 14.4541 13.1646 14.4541C13.1484 14.4541 13.1252 14.4499 13.1048 14.4295L12.2358 13.5605C11.951 13.2757 11.5193 13.2068 11.16 13.3889C10.935 13.5028 10.6995 13.6005 10.4604 13.6793C10.0786 13.8045 9.82195 14.1588 9.82195 14.561V15.7894C9.82195 15.8351 9.78328 15.8737 9.73758 15.8737H8.03391C7.9882 15.8737 7.94953 15.8351 7.94953 15.7894V14.561C7.94953 14.1588 7.69289 13.8045 7.31109 13.6793C7.07203 13.6005 6.83648 13.5028 6.61078 13.3889C6.47719 13.3214 6.33375 13.2884 6.19102 13.2884C5.95055 13.2884 5.71359 13.3819 5.535 13.5605L4.66664 14.4288Z"/>
</mask>
<path d="M8.88539 12.342C10.7909 12.342 12.3412 10.7916 12.3412 8.88609C12.3412 6.98062 10.7909 5.43023 8.88539 5.43023C6.97992 5.43023 5.42953 6.98062 5.42953 8.88609C5.42953 10.7916 6.97992 12.342 8.88539 12.342ZM8.88539 6.27328C10.3261 6.27328 11.4975 7.44539 11.4975 8.88539C11.4975 10.3261 10.3254 11.4975 8.88539 11.4975C7.44469 11.4975 6.27328 10.3254 6.27328 8.88539C6.27328 7.44539 7.44539 6.27328 8.88539 6.27328ZM6.22969 14.1405C6.49266 14.2734 6.76758 14.388 7.04742 14.4802C7.08539 14.4928 7.10508 14.5202 7.10508 14.5603V15.7887C7.10508 16.3005 7.52133 16.7168 8.0332 16.7168H9.73687C10.2487 16.7168 10.665 16.3005 10.665 15.7887V14.5603C10.665 14.5202 10.6854 14.4928 10.7227 14.4802C11.0025 14.388 11.2774 14.2741 11.5404 14.1405C11.5763 14.1223 11.61 14.1279 11.6381 14.156L12.5072 15.0251C12.6823 15.2002 12.915 15.2965 13.1632 15.2965C13.4114 15.2965 13.6441 15.2002 13.8192 15.0251L15.0237 13.8206C15.3858 13.4585 15.3858 12.87 15.0237 12.5079L14.1546 11.6388C14.1265 11.6107 14.1209 11.577 14.1391 11.5411C14.2727 11.2781 14.3866 11.0025 14.4787 10.7234C14.4914 10.6854 14.5188 10.6657 14.5589 10.6657H15.7873C16.2991 10.6657 16.7154 10.2495 16.7154 9.73758V8.03391C16.7154 7.52203 16.2991 7.10578 15.7873 7.10578H14.5589C14.5188 7.10578 14.4914 7.08539 14.4787 7.04742C14.3866 6.76758 14.2727 6.49266 14.1391 6.22969C14.1209 6.19383 14.1265 6.16008 14.1546 6.13195L15.0237 5.26289C15.1987 5.08781 15.2951 4.85508 15.2951 4.60687C15.2951 4.35867 15.1987 4.12594 15.0237 3.95086L13.8192 2.74641C13.6441 2.57133 13.4114 2.475 13.1632 2.475C12.915 2.475 12.6823 2.57133 12.5072 2.74641L11.6381 3.61547C11.61 3.64359 11.5763 3.64922 11.5404 3.63094C11.2774 3.49805 11.0025 3.38344 10.7227 3.29133C10.6847 3.27867 10.665 3.25125 10.665 3.21117V1.98281C10.665 1.47094 10.2487 1.05469 9.73687 1.05469H8.0332C7.52133 1.05469 7.10508 1.47094 7.10508 1.98281V3.21117C7.10508 3.25125 7.08469 3.27867 7.04672 3.29133C6.76687 3.38344 6.49195 3.49734 6.22898 3.63094C6.19312 3.64922 6.15937 3.64359 6.13125 3.61547L5.26289 2.7457C4.90078 2.38359 4.31227 2.38359 3.95016 2.7457L2.7457 3.95086C2.57062 4.12594 2.4743 4.35867 2.4743 4.60687C2.4743 4.85508 2.57062 5.08781 2.7457 5.26289L3.61477 6.13195C3.64289 6.16008 3.64852 6.19383 3.63023 6.22969C3.49734 6.49266 3.38273 6.76758 3.29133 7.04742C3.27867 7.08539 3.25125 7.10508 3.21117 7.10508H1.98281C1.47094 7.10508 1.05469 7.52133 1.05469 8.0332V9.73688C1.05469 10.2487 1.47094 10.665 1.98281 10.665H3.21117C3.25125 10.665 3.27867 10.6854 3.29133 10.7227C3.38344 11.0025 3.49734 11.2774 3.63094 11.5404C3.64922 11.5763 3.64359 11.61 3.61547 11.6381L2.7457 12.5086C2.38359 12.8707 2.38359 13.4592 2.7457 13.8213L3.95016 15.0258C4.12523 15.2009 4.35797 15.2972 4.60617 15.2972C4.85437 15.2972 5.08711 15.2009 5.26219 15.0258L6.13125 14.1567C6.16078 14.1279 6.19453 14.1223 6.22969 14.1405ZM4.66664 14.4288C4.64625 14.4492 4.62305 14.4534 4.60687 14.4534C4.5907 14.4534 4.5675 14.4492 4.54711 14.4288L3.34266 13.2244C3.31031 13.192 3.31031 13.1372 3.34266 13.1048L4.21172 12.2358C4.49648 11.951 4.56539 11.5193 4.38328 11.16C4.26937 10.935 4.17164 10.6995 4.09289 10.4597C3.96773 10.0779 3.61336 9.82125 3.21117 9.82125H1.98281C1.93711 9.82125 1.89844 9.78258 1.89844 9.73688V8.0332C1.89844 7.9875 1.93711 7.94883 1.98281 7.94883H3.21117C3.61336 7.94883 3.96773 7.69219 4.09289 7.31039C4.17164 7.07133 4.26937 6.83578 4.38328 6.61078C4.56539 6.25219 4.49578 5.81977 4.21172 5.535L3.34266 4.66664C3.32227 4.64625 3.31805 4.62305 3.31805 4.60687C3.31805 4.5907 3.32227 4.5675 3.34266 4.54711L4.54711 3.34266C4.57945 3.31031 4.6343 3.31031 4.66664 3.34266L5.5357 4.21172C5.82047 4.49648 6.25219 4.56539 6.61148 4.38328C6.83648 4.26938 7.07203 4.17164 7.31109 4.09289C7.69289 3.96773 7.94953 3.61336 7.94953 3.21117V1.98281C7.94953 1.93711 7.9882 1.89844 8.03391 1.89844H9.73758C9.78328 1.89844 9.82195 1.93711 9.82195 1.98281V3.21117C9.82195 3.61336 10.0786 3.96773 10.4604 4.09289C10.7002 4.17164 10.9357 4.26938 11.16 4.38328C11.5186 4.56539 11.951 4.49578 12.2358 4.21172L13.1048 3.34266C13.1252 3.32227 13.1484 3.31805 13.1646 3.31805C13.1808 3.31805 13.204 3.32227 13.2244 3.34266L14.4288 4.54711C14.4492 4.5675 14.4534 4.5907 14.4534 4.60687C14.4534 4.62305 14.4492 4.64625 14.4288 4.66664L13.5598 5.5357C13.275 5.82047 13.2061 6.25219 13.3882 6.61148C13.5021 6.83648 13.5998 7.07203 13.6786 7.31109C13.8037 7.69289 14.1581 7.94953 14.5603 7.94953H15.7887C15.8344 7.94953 15.873 7.9882 15.873 8.03391V9.73758C15.873 9.78328 15.8344 9.82195 15.7887 9.82195H14.5603C14.1581 9.82195 13.8037 10.0786 13.6786 10.4604C13.5998 10.6995 13.5021 10.935 13.3882 11.1607C13.2061 11.5193 13.2757 11.9517 13.5598 12.2365L14.4288 13.1055C14.4612 13.1379 14.4612 13.1927 14.4288 13.2251L13.2244 14.4295C13.204 14.4499 13.1808 14.4541 13.1646 14.4541C13.1484 14.4541 13.1252 14.4499 13.1048 14.4295L12.2358 13.5605C11.951 13.2757 11.5193 13.2068 11.16 13.3889C10.935 13.5028 10.6995 13.6005 10.4604 13.6793C10.0786 13.8045 9.82195 14.1588 9.82195 14.561V15.7894C9.82195 15.8351 9.78328 15.8737 9.73758 15.8737H8.03391C7.9882 15.8737 7.94953 15.8351 7.94953 15.7894V14.561C7.94953 14.1588 7.69289 13.8045 7.31109 13.6793C7.07203 13.6005 6.83648 13.5028 6.61078 13.3889C6.47719 13.3214 6.33375 13.2884 6.19102 13.2884C5.95055 13.2884 5.71359 13.3819 5.535 13.5605L4.66664 14.4288Z" fill="#E6B400"/>
<path d="M8.88539 12.342C10.7909 12.342 12.3412 10.7916 12.3412 8.88609C12.3412 6.98062 10.7909 5.43023 8.88539 5.43023C6.97992 5.43023 5.42953 6.98062 5.42953 8.88609C5.42953 10.7916 6.97992 12.342 8.88539 12.342ZM8.88539 6.27328C10.3261 6.27328 11.4975 7.44539 11.4975 8.88539C11.4975 10.3261 10.3254 11.4975 8.88539 11.4975C7.44469 11.4975 6.27328 10.3254 6.27328 8.88539C6.27328 7.44539 7.44539 6.27328 8.88539 6.27328ZM6.22969 14.1405C6.49266 14.2734 6.76758 14.388 7.04742 14.4802C7.08539 14.4928 7.10508 14.5202 7.10508 14.5603V15.7887C7.10508 16.3005 7.52133 16.7168 8.0332 16.7168H9.73687C10.2487 16.7168 10.665 16.3005 10.665 15.7887V14.5603C10.665 14.5202 10.6854 14.4928 10.7227 14.4802C11.0025 14.388 11.2774 14.2741 11.5404 14.1405C11.5763 14.1223 11.61 14.1279 11.6381 14.156L12.5072 15.0251C12.6823 15.2002 12.915 15.2965 13.1632 15.2965C13.4114 15.2965 13.6441 15.2002 13.8192 15.0251L15.0237 13.8206C15.3858 13.4585 15.3858 12.87 15.0237 12.5079L14.1546 11.6388C14.1265 11.6107 14.1209 11.577 14.1391 11.5411C14.2727 11.2781 14.3866 11.0025 14.4787 10.7234C14.4914 10.6854 14.5188 10.6657 14.5589 10.6657H15.7873C16.2991 10.6657 16.7154 10.2495 16.7154 9.73758V8.03391C16.7154 7.52203 16.2991 7.10578 15.7873 7.10578H14.5589C14.5188 7.10578 14.4914 7.08539 14.4787 7.04742C14.3866 6.76758 14.2727 6.49266 14.1391 6.22969C14.1209 6.19383 14.1265 6.16008 14.1546 6.13195L15.0237 5.26289C15.1987 5.08781 15.2951 4.85508 15.2951 4.60687C15.2951 4.35867 15.1987 4.12594 15.0237 3.95086L13.8192 2.74641C13.6441 2.57133 13.4114 2.475 13.1632 2.475C12.915 2.475 12.6823 2.57133 12.5072 2.74641L11.6381 3.61547C11.61 3.64359 11.5763 3.64922 11.5404 3.63094C11.2774 3.49805 11.0025 3.38344 10.7227 3.29133C10.6847 3.27867 10.665 3.25125 10.665 3.21117V1.98281C10.665 1.47094 10.2487 1.05469 9.73687 1.05469H8.0332C7.52133 1.05469 7.10508 1.47094 7.10508 1.98281V3.21117C7.10508 3.25125 7.08469 3.27867 7.04672 3.29133C6.76687 3.38344 6.49195 3.49734 6.22898 3.63094C6.19312 3.64922 6.15937 3.64359 6.13125 3.61547L5.26289 2.7457C4.90078 2.38359 4.31227 2.38359 3.95016 2.7457L2.7457 3.95086C2.57062 4.12594 2.4743 4.35867 2.4743 4.60687C2.4743 4.85508 2.57062 5.08781 2.7457 5.26289L3.61477 6.13195C3.64289 6.16008 3.64852 6.19383 3.63023 6.22969C3.49734 6.49266 3.38273 6.76758 3.29133 7.04742C3.27867 7.08539 3.25125 7.10508 3.21117 7.10508H1.98281C1.47094 7.10508 1.05469 7.52133 1.05469 8.0332V9.73688C1.05469 10.2487 1.47094 10.665 1.98281 10.665H3.21117C3.25125 10.665 3.27867 10.6854 3.29133 10.7227C3.38344 11.0025 3.49734 11.2774 3.63094 11.5404C3.64922 11.5763 3.64359 11.61 3.61547 11.6381L2.7457 12.5086C2.38359 12.8707 2.38359 13.4592 2.7457 13.8213L3.95016 15.0258C4.12523 15.2009 4.35797 15.2972 4.60617 15.2972C4.85437 15.2972 5.08711 15.2009 5.26219 15.0258L6.13125 14.1567C6.16078 14.1279 6.19453 14.1223 6.22969 14.1405ZM4.66664 14.4288C4.64625 14.4492 4.62305 14.4534 4.60687 14.4534C4.5907 14.4534 4.5675 14.4492 4.54711 14.4288L3.34266 13.2244C3.31031 13.192 3.31031 13.1372 3.34266 13.1048L4.21172 12.2358C4.49648 11.951 4.56539 11.5193 4.38328 11.16C4.26937 10.935 4.17164 10.6995 4.09289 10.4597C3.96773 10.0779 3.61336 9.82125 3.21117 9.82125H1.98281C1.93711 9.82125 1.89844 9.78258 1.89844 9.73688V8.0332C1.89844 7.9875 1.93711 7.94883 1.98281 7.94883H3.21117C3.61336 7.94883 3.96773 7.69219 4.09289 7.31039C4.17164 7.07133 4.26937 6.83578 4.38328 6.61078C4.56539 6.25219 4.49578 5.81977 4.21172 5.535L3.34266 4.66664C3.32227 4.64625 3.31805 4.62305 3.31805 4.60687C3.31805 4.5907 3.32227 4.5675 3.34266 4.54711L4.54711 3.34266C4.57945 3.31031 4.6343 3.31031 4.66664 3.34266L5.5357 4.21172C5.82047 4.49648 6.25219 4.56539 6.61148 4.38328C6.83648 4.26938 7.07203 4.17164 7.31109 4.09289C7.69289 3.96773 7.94953 3.61336 7.94953 3.21117V1.98281C7.94953 1.93711 7.9882 1.89844 8.03391 1.89844H9.73758C9.78328 1.89844 9.82195 1.93711 9.82195 1.98281V3.21117C9.82195 3.61336 10.0786 3.96773 10.4604 4.09289C10.7002 4.17164 10.9357 4.26938 11.16 4.38328C11.5186 4.56539 11.951 4.49578 12.2358 4.21172L13.1048 3.34266C13.1252 3.32227 13.1484 3.31805 13.1646 3.31805C13.1808 3.31805 13.204 3.32227 13.2244 3.34266L14.4288 4.54711C14.4492 4.5675 14.4534 4.5907 14.4534 4.60687C14.4534 4.62305 14.4492 4.64625 14.4288 4.66664L13.5598 5.5357C13.275 5.82047 13.2061 6.25219 13.3882 6.61148C13.5021 6.83648 13.5998 7.07203 13.6786 7.31109C13.8037 7.69289 14.1581 7.94953 14.5603 7.94953H15.7887C15.8344 7.94953 15.873 7.9882 15.873 8.03391V9.73758C15.873 9.78328 15.8344 9.82195 15.7887 9.82195H14.5603C14.1581 9.82195 13.8037 10.0786 13.6786 10.4604C13.5998 10.6995 13.5021 10.935 13.3882 11.1607C13.2061 11.5193 13.2757 11.9517 13.5598 12.2365L14.4288 13.1055C14.4612 13.1379 14.4612 13.1927 14.4288 13.2251L13.2244 14.4295C13.204 14.4499 13.1808 14.4541 13.1646 14.4541C13.1484 14.4541 13.1252 14.4499 13.1048 14.4295L12.2358 13.5605C11.951 13.2757 11.5193 13.2068 11.16 13.3889C10.935 13.5028 10.6995 13.6005 10.4604 13.6793C10.0786 13.8045 9.82195 14.1588 9.82195 14.561V15.7894C9.82195 15.8351 9.78328 15.8737 9.73758 15.8737H8.03391C7.9882 15.8737 7.94953 15.8351 7.94953 15.7894V14.561C7.94953 14.1588 7.69289 13.8045 7.31109 13.6793C7.07203 13.6005 6.83648 13.5028 6.61078 13.3889C6.47719 13.3214 6.33375 13.2884 6.19102 13.2884C5.95055 13.2884 5.71359 13.3819 5.535 13.5605L4.66664 14.4288Z" stroke="#E6B400" stroke-width="0.415385" mask="url(#path-2-outside-2_1091_307903)"/>
</g>
<defs>
<clipPath id="clip0_1091_307903">
<rect width="36" height="36" fill="white"/>
</clipPath>
</defs>
</svg>
