<svg width="42" height="42" viewBox="0 0 42 42" fill="none" xmlns="http://www.w3.org/2000/svg">
<g clip-path="url(#clip0_1091_294876)">
<path fill-rule="evenodd" clip-rule="evenodd" d="M10.4387 41.0961C10.246 41.0961 10.0524 41.0698 9.86453 41.0182C9.32148 40.8664 8.87605 40.5153 8.60945 40.0297L4.70312 32.9143L5.42172 32.5197L9.32805 39.6351C9.48801 39.9255 9.75625 40.1355 10.0852 40.2282C10.4248 40.3234 10.7931 40.2774 11.0958 40.1027C11.702 39.7524 11.9129 38.9543 11.5667 38.3226L8.10004 32.0079L8.81863 31.6133L12.2853 37.9272C12.8447 38.9469 12.4953 40.2413 11.506 40.8123C11.182 41.0001 10.8112 41.0961 10.4387 41.0961Z" fill="black"/>
<path fill-rule="evenodd" clip-rule="evenodd" d="M22.3658 33.3624C20.6981 32.1582 16.9353 30.3469 10.4787 31.739C9.22686 32.0089 8.4246 32.2427 7.49601 32.5134C6.96608 32.6676 6.41811 32.8275 5.72085 33.0146C5.39026 33.1032 5.05968 33.145 4.73565 33.145C3.04499 33.145 1.52249 31.9925 1.04507 30.2124C0.770263 29.187 0.894951 28.1296 1.39616 27.2363C1.89491 26.3463 2.71112 25.7113 3.69304 25.448C4.38948 25.261 4.94401 25.1256 5.47968 24.9944C6.41976 24.7647 7.23186 24.5662 8.45167 24.1732C14.7394 22.1504 17.092 18.7001 17.9345 16.8232L18.6826 17.1596C17.7844 19.1603 15.2931 22.8337 8.70268 24.9542C7.45499 25.3561 6.62976 25.5579 5.67491 25.7917C5.14335 25.9213 4.59374 26.0559 3.9055 26.2404C3.13851 26.4455 2.50194 26.9418 2.11147 27.6374C1.71526 28.3437 1.61765 29.1829 1.83667 29.9999C2.2862 31.6775 3.89893 32.6528 5.50757 32.2221C6.19581 32.0376 6.73968 31.8793 7.2655 31.7259C8.20968 31.4502 9.02425 31.2132 10.3048 30.9367C17.0723 29.4774 21.0664 31.4133 22.8449 32.6971L22.3658 33.3624Z" fill="black"/>
<path fill-rule="evenodd" clip-rule="evenodd" d="M23.8147 26.9443L23.398 26.2372L25.1223 25.2216C25.3429 25.092 25.443 24.8476 25.3766 24.5998L24.9229 22.9075C24.8565 22.6598 24.6481 22.4982 24.3914 22.4966L22.3906 22.4785L22.398 21.6582L24.3996 21.6763C25.0246 21.682 25.5538 22.0913 25.7154 22.6959L26.169 24.3882C26.3306 24.992 26.0779 25.6113 25.539 25.9288L23.8147 26.9443Z" fill="black"/>
<path fill-rule="evenodd" clip-rule="evenodd" d="M19.2777 14.6202C19.1997 14.6202 19.121 14.6309 19.0439 14.6514C18.8109 14.7138 18.6157 14.8647 18.4943 15.0755C18.3729 15.2863 18.34 15.53 18.4024 15.7638L23.3021 34.0485C23.3645 34.2815 23.5154 34.4767 23.7262 34.5981C23.937 34.7204 24.1815 34.7523 24.4145 34.69C24.8976 34.5604 25.1856 34.0616 25.0559 33.5785L20.1562 15.2937C20.0939 15.0607 19.9429 14.8655 19.7321 14.7441C19.591 14.6621 19.4352 14.6202 19.2777 14.6202ZM24.1782 35.5407C23.8788 35.5407 23.5827 35.4619 23.3152 35.3077C22.9149 35.0764 22.6286 34.7039 22.5097 34.2602L17.61 15.9754C17.491 15.5308 17.5525 15.0657 17.7839 14.6645C18.0152 14.2642 18.3876 13.9779 18.8314 13.859C19.276 13.74 19.7411 13.8016 20.1414 14.0329C20.5418 14.2642 20.8281 14.6366 20.947 15.0813L25.8467 33.366C26.0936 34.2864 25.5448 35.2355 24.6253 35.4824C24.4776 35.521 24.3275 35.5407 24.1782 35.5407Z" fill="black"/>
<path fill-rule="evenodd" clip-rule="evenodd" d="M25.9406 19.6465C25.8709 19.6465 25.8003 19.6284 25.7363 19.5915C25.5403 19.4783 25.473 19.2281 25.5862 19.0312L27.4065 15.8779C27.5197 15.6819 27.7707 15.6146 27.9668 15.7278C28.1628 15.841 28.2301 16.092 28.1169 16.2881L26.2966 19.4414C26.2203 19.5734 26.0825 19.6465 25.9406 19.6465ZM28.6813 23.2173C28.5 23.2173 28.3343 23.0959 28.285 22.9129C28.2268 22.6939 28.3564 22.4692 28.5754 22.4109L32.0921 21.4692C32.3103 21.4109 32.5359 21.5406 32.5941 21.7588C32.6524 21.9778 32.5228 22.2025 32.3046 22.2616L28.7879 23.2033C28.7518 23.2132 28.7157 23.2173 28.6813 23.2173ZM31.2464 29.5C31.1766 29.5 31.1061 29.4828 31.0413 29.4451L27.8888 27.6248C27.6928 27.5116 27.6255 27.2606 27.7387 27.0645C27.8519 26.8685 28.1029 26.8012 28.299 26.9144L31.4523 28.7347C31.6483 28.8479 31.7156 29.0989 31.6024 29.295C31.5261 29.427 31.3883 29.5 31.2464 29.5Z" fill="black"/>
<path fill-rule="evenodd" clip-rule="evenodd" d="M7.12891 24.9531L7.92133 24.7407L9.73766 31.5151L8.94523 31.7275L7.12891 24.9531Z" fill="black"/>
<path fill-rule="evenodd" clip-rule="evenodd" d="M31.1288 32.3547C29.9721 32.3547 29.0321 33.394 29.0321 34.6712C29.0321 35.9074 31.201 38.0903 32.4962 39.3946C32.8211 39.7219 33.1016 40.0041 33.3174 40.2379C33.3633 40.2879 33.4273 40.2879 33.4732 40.2379C33.689 40.0041 33.9695 39.7219 34.2944 39.3946C35.5896 38.0903 37.7586 35.9082 37.7586 34.6712C37.7586 33.394 36.8177 32.3547 35.661 32.3547C34.8604 32.3547 34.1188 32.8698 33.7702 33.668C33.7054 33.8173 33.5577 33.9141 33.3945 33.9141C33.2312 33.9141 33.0836 33.8173 33.0188 33.668C32.671 32.8706 31.9286 32.3547 31.1288 32.3547ZM33.3945 41.0959C33.1353 41.0959 32.8941 40.9884 32.7145 40.794C32.5086 40.5717 32.2329 40.2945 31.9138 39.9729C29.9623 38.0091 28.2109 36.1256 28.2109 34.6712C28.2109 32.942 29.5193 31.5352 31.128 31.5352C32.0155 31.5352 32.8473 31.9748 33.3945 32.6975C33.9416 31.9748 34.7734 31.5352 35.661 31.5352C37.2696 31.5352 38.578 32.942 38.578 34.6712C38.578 36.1248 36.8267 38.0082 34.8752 39.9729C34.5561 40.2945 34.2804 40.5717 34.0745 40.794C33.8957 40.9884 33.6537 41.0959 33.3945 41.0959Z" fill="#E6B400"/>
<path fill-rule="evenodd" clip-rule="evenodd" d="M7.06836 9.33809C7.04211 9.33809 7.02078 9.34711 7.00684 9.35532C6.98387 9.36844 6.94613 9.40043 6.94613 9.46278V12.292C6.94613 12.3544 6.98469 12.3864 7.00684 12.3995C7.0298 12.4126 7.07656 12.4298 7.1307 12.3987L9.58016 10.9845C9.6343 10.9533 9.6425 10.9041 9.6425 10.8778C9.6425 10.8516 9.6343 10.8023 9.58016 10.7712L7.1307 9.35696C7.10773 9.34219 7.08723 9.33809 7.06836 9.33809ZM7.06754 13.2362C6.90594 13.2362 6.74434 13.1936 6.59668 13.1082C6.30137 12.9376 6.125 12.6325 6.125 12.2904V9.46114C6.125 9.11989 6.30137 8.81391 6.59586 8.64329C6.89117 8.47266 7.24391 8.47348 7.54004 8.64329L9.98949 10.0583C10.2856 10.229 10.462 10.5341 10.462 10.8754C10.462 11.2166 10.2856 11.5218 9.98949 11.6924L7.54004 13.1066C7.39238 13.1936 7.22996 13.2362 7.06754 13.2362Z" fill="#E6B400"/>
<path fill-rule="evenodd" clip-rule="evenodd" d="M2.83582 6.64176C2.22141 6.64176 1.72184 7.14133 1.72184 7.75574V13.9975C1.72184 14.6111 2.22141 15.1107 2.835 15.1107H12.7567C13.3703 15.1107 13.8698 14.6111 13.8698 13.9975V7.75574C13.8698 7.14133 13.3703 6.64176 12.7567 6.64176H2.83582ZM12.7575 15.931H2.83582C1.76941 15.931 0.902344 15.0631 0.902344 13.9967V7.75574C0.902344 6.68934 1.77023 5.82227 2.83582 5.82227H12.7575C13.8239 5.82227 14.691 6.69016 14.691 7.75574V13.9975C14.691 15.0639 13.8231 15.931 12.7575 15.931Z" fill="#E6B400"/>
<path fill-rule="evenodd" clip-rule="evenodd" d="M37.3559 6.30469H28.5047C28.2783 6.30469 28.0946 6.12094 28.0946 5.89453C28.0946 5.6673 28.2783 5.48438 28.5047 5.48438H37.3567C37.5831 5.48438 37.7669 5.66813 37.7669 5.89453C37.7661 6.12176 37.5823 6.30469 37.3559 6.30469ZM28.5039 8.68359C28.2783 8.68359 28.0946 8.50148 28.0938 8.27508C28.0938 8.27508 28.0938 8.27426 28.0938 8.27344C28.0938 8.04785 28.2767 7.8641 28.5023 7.86328L34.3437 7.84359H34.3454C34.5709 7.84359 34.7547 8.02652 34.7555 8.25293V8.25375C34.7555 8.48016 34.5726 8.66309 34.347 8.66391L28.5055 8.68359C28.5055 8.68359 28.5047 8.68359 28.5039 8.68359Z" fill="black"/>
<path fill-rule="evenodd" clip-rule="evenodd" d="M32.573 1.72266C28.3263 1.72266 24.8703 4.12781 24.8703 7.0834C24.8703 8.30566 25.4519 9.45902 26.5536 10.4196C26.6889 10.5369 26.7316 10.7297 26.6594 10.8938L25.693 13.0914L27.8685 11.5639C27.9891 11.4795 28.1458 11.4663 28.2787 11.5287C29.551 12.1267 31.0357 12.4433 32.573 12.4433C36.8198 12.4433 40.2757 10.0382 40.2757 7.08258C40.2757 4.12781 36.8206 1.72266 32.573 1.72266ZM25.2279 14.2849C25.0885 14.2849 24.949 14.2373 24.8334 14.1422C24.6143 13.9634 24.5438 13.6689 24.6578 13.4105L25.7907 10.8339C24.666 9.76336 24.0508 8.44184 24.0508 7.0834C24.0508 5.40586 24.9556 3.83742 26.5995 2.66848C28.2007 1.52906 30.3221 0.902344 32.5738 0.902344C34.8248 0.902344 36.9469 1.52906 38.5482 2.66848C40.1913 3.83742 41.0961 5.40586 41.0961 7.0834C41.0961 8.76094 40.1912 10.3286 38.5473 11.4983C36.9461 12.6369 34.8248 13.2645 32.573 13.2645C31.0029 13.2645 29.4788 12.956 28.1482 12.3703L25.5856 14.1701C25.4765 14.2472 25.3518 14.2849 25.2279 14.2849Z" fill="black"/>
</g>
<defs>
<clipPath id="clip0_1091_294876">
<rect width="42" height="42" fill="white"/>
</clipPath>
</defs>
</svg>
