<svg width="52" height="52" viewBox="0 0 52 52" fill="none" xmlns="http://www.w3.org/2000/svg">
<mask id="path-1-outside-1_1091_294911" maskUnits="userSpaceOnUse" x="0.523438" y="0.523438" width="51" height="51" fill="black">
<rect fill="white" x="0.523438" y="0.523438" width="51" height="51"/>
<path d="M12.8345 17.8273C15.5868 17.8273 17.8263 15.5878 17.8263 12.8355C17.8263 10.0831 15.5868 7.84367 12.8345 7.84367C10.0821 7.84367 7.84266 10.0831 7.84266 12.8355C7.84266 15.5878 10.0821 17.8273 12.8345 17.8273ZM12.8345 9.06141C14.9155 9.06141 16.6075 10.7545 16.6075 12.8345C16.6075 14.9155 14.9145 16.6075 12.8345 16.6075C10.7534 16.6075 9.06141 14.9145 9.06141 12.8345C9.06141 10.7545 10.7545 9.06141 12.8345 9.06141ZM8.99844 20.4252C9.37828 20.6172 9.77539 20.7827 10.1796 20.9158C10.2345 20.9341 10.2629 20.9737 10.2629 21.0316V22.8059C10.2629 23.5452 10.8641 24.1465 11.6035 24.1465H14.0644C14.8038 24.1465 15.405 23.5452 15.405 22.8059V21.0316C15.405 20.9737 15.4345 20.9341 15.4883 20.9158C15.8925 20.7827 16.2896 20.6182 16.6695 20.4252C16.7213 20.3988 16.77 20.407 16.8106 20.4476L18.0659 21.7029C18.3188 21.9558 18.655 22.0949 19.0135 22.0949C19.372 22.0949 19.7082 21.9558 19.9611 21.7029L21.7009 19.9631C22.2239 19.4401 22.2239 18.59 21.7009 18.067L20.4455 16.8116C20.4049 16.771 20.3968 16.7223 20.4232 16.6705C20.6162 16.2906 20.7807 15.8925 20.9137 15.4893C20.932 15.4345 20.9716 15.406 21.0295 15.406H22.8038C23.5432 15.406 24.1445 14.8048 24.1445 14.0654V11.6045C24.1445 10.8652 23.5432 10.2639 22.8038 10.2639H21.0295C20.9716 10.2639 20.932 10.2345 20.9137 10.1796C20.7807 9.77539 20.6162 9.37828 20.4232 8.99844C20.3968 8.94664 20.4049 8.89789 20.4455 8.85727L21.7009 7.60195C21.9538 7.34906 22.0929 7.01289 22.0929 6.65437C22.0929 6.29586 21.9538 5.95969 21.7009 5.7068L19.9611 3.96703C19.7082 3.71414 19.372 3.575 19.0135 3.575C18.655 3.575 18.3188 3.71414 18.0659 3.96703L16.8106 5.22234C16.77 5.26297 16.7213 5.27109 16.6695 5.24469C16.2896 5.05273 15.8925 4.88719 15.4883 4.75414C15.4334 4.73586 15.405 4.69625 15.405 4.63836V2.86406C15.405 2.12469 14.8038 1.52344 14.0644 1.52344H11.6035C10.8641 1.52344 10.2629 2.12469 10.2629 2.86406V4.63836C10.2629 4.69625 10.2334 4.73586 10.1786 4.75414C9.77437 4.88719 9.37727 5.05172 8.99742 5.24469C8.94562 5.27109 8.89687 5.26297 8.85625 5.22234L7.60195 3.96602C7.07891 3.44297 6.22883 3.44297 5.70578 3.96602L3.96602 5.7068C3.71312 5.95969 3.57398 6.29586 3.57398 6.65437C3.57398 7.01289 3.71312 7.34906 3.96602 7.60195L5.22133 8.85727C5.26195 8.89789 5.27008 8.94664 5.24367 8.99844C5.05172 9.37828 4.88617 9.77539 4.75414 10.1796C4.73586 10.2345 4.69625 10.2629 4.63836 10.2629H2.86406C2.12469 10.2629 1.52344 10.8641 1.52344 11.6035V14.0644C1.52344 14.8038 2.12469 15.405 2.86406 15.405H4.63836C4.69625 15.405 4.73586 15.4345 4.75414 15.4883C4.88719 15.8925 5.05172 16.2896 5.24469 16.6695C5.27109 16.7213 5.26297 16.77 5.22234 16.8106L3.96602 18.068C3.44297 18.591 3.44297 19.4411 3.96602 19.9641L5.70578 21.7039C5.95867 21.9568 6.29484 22.0959 6.65336 22.0959C7.01188 22.0959 7.34805 21.9568 7.60094 21.7039L8.85625 20.4486C8.89891 20.407 8.94766 20.3988 8.99844 20.4252ZM6.7407 20.8416C6.71125 20.8711 6.67773 20.8772 6.65437 20.8772C6.63102 20.8772 6.5975 20.8711 6.56805 20.8416L4.82828 19.1019C4.78156 19.0552 4.78156 18.9759 4.82828 18.9292L6.08359 17.6739C6.49492 17.2626 6.59445 16.639 6.33141 16.12C6.16687 15.795 6.0257 15.4548 5.91195 15.1084C5.73117 14.557 5.2193 14.1862 4.63836 14.1862H2.86406C2.79805 14.1862 2.74219 14.1304 2.74219 14.0644V11.6035C2.74219 11.5375 2.79805 11.4816 2.86406 11.4816H4.63836C5.2193 11.4816 5.73117 11.1109 5.91195 10.5595C6.0257 10.2141 6.16687 9.87391 6.33141 9.54891C6.59445 9.03094 6.49391 8.40633 6.08359 7.995L4.82828 6.7407C4.79883 6.71125 4.79273 6.67773 4.79273 6.65437C4.79273 6.63102 4.79883 6.5975 4.82828 6.56805L6.56805 4.82828C6.61477 4.78156 6.69398 4.78156 6.7407 4.82828L7.99602 6.08359C8.40734 6.49492 9.03094 6.59445 9.54992 6.33141C9.87492 6.16687 10.2152 6.0257 10.5605 5.91195C11.112 5.73117 11.4827 5.2193 11.4827 4.63836V2.86406C11.4827 2.79805 11.5385 2.74219 11.6045 2.74219H14.0654C14.1314 2.74219 14.1873 2.79805 14.1873 2.86406V4.63836C14.1873 5.2193 14.558 5.73117 15.1095 5.91195C15.4558 6.0257 15.796 6.16687 16.12 6.33141C16.638 6.59445 17.2626 6.49391 17.6739 6.08359L18.9292 4.82828C18.9587 4.79883 18.9922 4.79273 19.0155 4.79273C19.0389 4.79273 19.0724 4.79883 19.1019 4.82828L20.8416 6.56805C20.8711 6.5975 20.8772 6.63102 20.8772 6.65437C20.8772 6.67773 20.8711 6.71125 20.8416 6.7407L19.5863 7.99602C19.175 8.40734 19.0755 9.03094 19.3385 9.54992C19.503 9.87492 19.6442 10.2152 19.758 10.5605C19.9387 11.112 20.4506 11.4827 21.0316 11.4827H22.8059C22.8719 11.4827 22.9277 11.5385 22.9277 11.6045V14.0654C22.9277 14.1314 22.8719 14.1873 22.8059 14.1873H21.0316C20.4506 14.1873 19.9387 14.558 19.758 15.1095C19.6442 15.4548 19.503 15.795 19.3385 16.121C19.0755 16.639 19.176 17.2636 19.5863 17.6749L20.8416 18.9302C20.8884 18.977 20.8884 19.0562 20.8416 19.1029L19.1019 20.8427C19.0724 20.8721 19.0389 20.8782 19.0155 20.8782C18.9922 20.8782 18.9587 20.8721 18.9292 20.8427L17.6739 19.5873C17.2626 19.176 16.639 19.0765 16.12 19.3395C15.795 19.5041 15.4548 19.6452 15.1095 19.759C14.558 19.9398 14.1873 20.4516 14.1873 21.0326V22.8069C14.1873 22.8729 14.1314 22.9287 14.0654 22.9287H11.6045C11.5385 22.9287 11.4827 22.8729 11.4827 22.8069V21.0326C11.4827 20.4516 11.112 19.9398 10.5605 19.759C10.2152 19.6452 9.87492 19.5041 9.54891 19.3395C9.35594 19.242 9.14875 19.1943 8.94258 19.1943C8.59523 19.1943 8.25297 19.3294 7.995 19.5873L6.7407 20.8416ZM41.532 21.3495C40.2096 20.5857 38.6953 20.3176 37.2095 20.5725L35.359 13.6663C34.8827 11.8879 33.0484 10.8286 31.2701 11.3049C29.6024 11.7518 28.5675 13.393 28.8377 15.0617C27.4137 17.9471 21.4094 23.9464 19.2969 24.5517L12.4871 26.3768C9.48187 27.1822 7.65984 30.1661 8.42664 33.0271L9.48492 36.9779C9.85766 38.3673 10.7788 39.52 12.0819 40.2248C12.9208 40.6788 13.8511 40.9104 14.7966 40.9104C14.8342 40.9104 14.8718 40.9094 14.9084 40.9084L21.0397 49.4112C21.5414 50.1069 22.3285 50.4766 23.1268 50.4766C23.6478 50.4766 24.1729 50.3191 24.6259 49.9921C25.737 49.1908 25.9959 47.6633 25.2291 46.4384L20.8762 39.4885L23.2944 38.8405C25.4059 38.3145 33.6202 40.5417 36.1979 42.3221C36.7677 43.4413 37.9275 44.1472 39.1747 44.1472C39.4601 44.1472 39.7495 44.1106 40.038 44.0334C41.8163 43.5571 42.8756 41.7229 42.3993 39.9445L40.5488 33.0383C41.9626 32.5152 43.1407 31.526 43.9034 30.2037C44.7687 28.7046 44.9993 26.9577 44.5514 25.285C44.1035 23.6123 43.031 22.2148 41.532 21.3495ZM24.1983 47.0864C24.6198 47.7598 24.4979 48.5845 23.9149 49.0049C23.3106 49.4406 22.4646 49.3035 22.0299 48.6992L16.2764 40.7215C16.2937 40.7174 16.3099 40.7134 16.3272 40.7083L19.6462 39.8186L24.1983 47.0864ZM16.0113 39.5312C14.8677 39.8379 13.6774 39.7038 12.6618 39.1544C11.6573 38.611 10.9474 37.7264 10.662 36.6641L9.60375 32.7133C9.01062 30.5002 10.4457 28.1866 12.802 27.5549L19.045 25.8822L20.8396 32.0013L22.3986 37.8198L16.0113 39.5312ZM23.593 37.568L22.0147 31.6794C22.0137 31.6743 22.0127 31.6702 22.0106 31.6652L20.2028 25.5003C21.9852 24.6482 24.4938 22.2158 25.284 21.4236C26.649 20.0566 28.2445 18.263 29.2652 16.7294L35.6667 40.6199C32.4431 39.0173 26.3423 37.3425 23.593 37.568ZM39.7231 42.8563C38.5938 43.159 37.4288 42.4866 37.1262 41.3573L30.0848 15.079C29.7822 13.9496 30.4545 12.7847 31.5839 12.482C32.1283 12.3358 32.6991 12.412 33.1906 12.6963C33.6832 12.9807 34.0346 13.4367 34.1798 13.9811L41.2212 40.2594C41.5248 41.3887 40.8525 42.5537 39.7231 42.8563ZM40.232 31.8541L37.5263 21.7567C38.6963 21.583 39.8826 21.8055 40.9226 22.4057C42.1403 23.1085 43.0107 24.244 43.3753 25.6019C44.072 28.2049 42.6806 30.8841 40.232 31.8541ZM46.2445 24.2013L49.7098 23.273C50.0348 23.1857 50.3689 23.3787 50.4562 23.7037C50.5436 24.0287 50.3506 24.3628 50.0256 24.4502L46.5603 25.3784C46.5075 25.3927 46.4547 25.3998 46.4019 25.3998C46.1327 25.3998 45.887 25.22 45.8138 24.9478C45.7255 24.6218 45.9184 24.2877 46.2445 24.2013ZM50.4562 30.223C50.3831 30.4952 50.1373 30.6749 49.8682 30.6749C49.8164 30.6749 49.7626 30.6678 49.7098 30.6536L46.2445 29.7253C45.9195 29.638 45.7265 29.3038 45.8138 28.9788C45.9012 28.6538 46.2353 28.4619 46.5603 28.5482L50.0256 29.4765C50.3496 29.5638 50.5426 29.898 50.4562 30.223ZM43.7978 21.4561C43.5602 21.2184 43.5602 20.8325 43.7978 20.5938L46.3348 18.0568C46.5725 17.8191 46.9584 17.8191 47.1971 18.0568C47.4348 18.2945 47.4348 18.6804 47.1971 18.9191L44.6601 21.4561C44.5413 21.5749 44.3848 21.6348 44.2295 21.6348C44.0741 21.6348 43.9166 21.5749 43.7978 21.4561Z"/>
</mask>
<path d="M12.8345 17.8273C15.5868 17.8273 17.8263 15.5878 17.8263 12.8355C17.8263 10.0831 15.5868 7.84367 12.8345 7.84367C10.0821 7.84367 7.84266 10.0831 7.84266 12.8355C7.84266 15.5878 10.0821 17.8273 12.8345 17.8273ZM12.8345 9.06141C14.9155 9.06141 16.6075 10.7545 16.6075 12.8345C16.6075 14.9155 14.9145 16.6075 12.8345 16.6075C10.7534 16.6075 9.06141 14.9145 9.06141 12.8345C9.06141 10.7545 10.7545 9.06141 12.8345 9.06141ZM8.99844 20.4252C9.37828 20.6172 9.77539 20.7827 10.1796 20.9158C10.2345 20.9341 10.2629 20.9737 10.2629 21.0316V22.8059C10.2629 23.5452 10.8641 24.1465 11.6035 24.1465H14.0644C14.8038 24.1465 15.405 23.5452 15.405 22.8059V21.0316C15.405 20.9737 15.4345 20.9341 15.4883 20.9158C15.8925 20.7827 16.2896 20.6182 16.6695 20.4252C16.7213 20.3988 16.77 20.407 16.8106 20.4476L18.0659 21.7029C18.3188 21.9558 18.655 22.0949 19.0135 22.0949C19.372 22.0949 19.7082 21.9558 19.9611 21.7029L21.7009 19.9631C22.2239 19.4401 22.2239 18.59 21.7009 18.067L20.4455 16.8116C20.4049 16.771 20.3968 16.7223 20.4232 16.6705C20.6162 16.2906 20.7807 15.8925 20.9137 15.4893C20.932 15.4345 20.9716 15.406 21.0295 15.406H22.8038C23.5432 15.406 24.1445 14.8048 24.1445 14.0654V11.6045C24.1445 10.8652 23.5432 10.2639 22.8038 10.2639H21.0295C20.9716 10.2639 20.932 10.2345 20.9137 10.1796C20.7807 9.77539 20.6162 9.37828 20.4232 8.99844C20.3968 8.94664 20.4049 8.89789 20.4455 8.85727L21.7009 7.60195C21.9538 7.34906 22.0929 7.01289 22.0929 6.65437C22.0929 6.29586 21.9538 5.95969 21.7009 5.7068L19.9611 3.96703C19.7082 3.71414 19.372 3.575 19.0135 3.575C18.655 3.575 18.3188 3.71414 18.0659 3.96703L16.8106 5.22234C16.77 5.26297 16.7213 5.27109 16.6695 5.24469C16.2896 5.05273 15.8925 4.88719 15.4883 4.75414C15.4334 4.73586 15.405 4.69625 15.405 4.63836V2.86406C15.405 2.12469 14.8038 1.52344 14.0644 1.52344H11.6035C10.8641 1.52344 10.2629 2.12469 10.2629 2.86406V4.63836C10.2629 4.69625 10.2334 4.73586 10.1786 4.75414C9.77437 4.88719 9.37727 5.05172 8.99742 5.24469C8.94562 5.27109 8.89687 5.26297 8.85625 5.22234L7.60195 3.96602C7.07891 3.44297 6.22883 3.44297 5.70578 3.96602L3.96602 5.7068C3.71312 5.95969 3.57398 6.29586 3.57398 6.65437C3.57398 7.01289 3.71312 7.34906 3.96602 7.60195L5.22133 8.85727C5.26195 8.89789 5.27008 8.94664 5.24367 8.99844C5.05172 9.37828 4.88617 9.77539 4.75414 10.1796C4.73586 10.2345 4.69625 10.2629 4.63836 10.2629H2.86406C2.12469 10.2629 1.52344 10.8641 1.52344 11.6035V14.0644C1.52344 14.8038 2.12469 15.405 2.86406 15.405H4.63836C4.69625 15.405 4.73586 15.4345 4.75414 15.4883C4.88719 15.8925 5.05172 16.2896 5.24469 16.6695C5.27109 16.7213 5.26297 16.77 5.22234 16.8106L3.96602 18.068C3.44297 18.591 3.44297 19.4411 3.96602 19.9641L5.70578 21.7039C5.95867 21.9568 6.29484 22.0959 6.65336 22.0959C7.01188 22.0959 7.34805 21.9568 7.60094 21.7039L8.85625 20.4486C8.89891 20.407 8.94766 20.3988 8.99844 20.4252ZM6.7407 20.8416C6.71125 20.8711 6.67773 20.8772 6.65437 20.8772C6.63102 20.8772 6.5975 20.8711 6.56805 20.8416L4.82828 19.1019C4.78156 19.0552 4.78156 18.9759 4.82828 18.9292L6.08359 17.6739C6.49492 17.2626 6.59445 16.639 6.33141 16.12C6.16687 15.795 6.0257 15.4548 5.91195 15.1084C5.73117 14.557 5.2193 14.1862 4.63836 14.1862H2.86406C2.79805 14.1862 2.74219 14.1304 2.74219 14.0644V11.6035C2.74219 11.5375 2.79805 11.4816 2.86406 11.4816H4.63836C5.2193 11.4816 5.73117 11.1109 5.91195 10.5595C6.0257 10.2141 6.16687 9.87391 6.33141 9.54891C6.59445 9.03094 6.49391 8.40633 6.08359 7.995L4.82828 6.7407C4.79883 6.71125 4.79273 6.67773 4.79273 6.65437C4.79273 6.63102 4.79883 6.5975 4.82828 6.56805L6.56805 4.82828C6.61477 4.78156 6.69398 4.78156 6.7407 4.82828L7.99602 6.08359C8.40734 6.49492 9.03094 6.59445 9.54992 6.33141C9.87492 6.16687 10.2152 6.0257 10.5605 5.91195C11.112 5.73117 11.4827 5.2193 11.4827 4.63836V2.86406C11.4827 2.79805 11.5385 2.74219 11.6045 2.74219H14.0654C14.1314 2.74219 14.1873 2.79805 14.1873 2.86406V4.63836C14.1873 5.2193 14.558 5.73117 15.1095 5.91195C15.4558 6.0257 15.796 6.16687 16.12 6.33141C16.638 6.59445 17.2626 6.49391 17.6739 6.08359L18.9292 4.82828C18.9587 4.79883 18.9922 4.79273 19.0155 4.79273C19.0389 4.79273 19.0724 4.79883 19.1019 4.82828L20.8416 6.56805C20.8711 6.5975 20.8772 6.63102 20.8772 6.65437C20.8772 6.67773 20.8711 6.71125 20.8416 6.7407L19.5863 7.99602C19.175 8.40734 19.0755 9.03094 19.3385 9.54992C19.503 9.87492 19.6442 10.2152 19.758 10.5605C19.9387 11.112 20.4506 11.4827 21.0316 11.4827H22.8059C22.8719 11.4827 22.9277 11.5385 22.9277 11.6045V14.0654C22.9277 14.1314 22.8719 14.1873 22.8059 14.1873H21.0316C20.4506 14.1873 19.9387 14.558 19.758 15.1095C19.6442 15.4548 19.503 15.795 19.3385 16.121C19.0755 16.639 19.176 17.2636 19.5863 17.6749L20.8416 18.9302C20.8884 18.977 20.8884 19.0562 20.8416 19.1029L19.1019 20.8427C19.0724 20.8721 19.0389 20.8782 19.0155 20.8782C18.9922 20.8782 18.9587 20.8721 18.9292 20.8427L17.6739 19.5873C17.2626 19.176 16.639 19.0765 16.12 19.3395C15.795 19.5041 15.4548 19.6452 15.1095 19.759C14.558 19.9398 14.1873 20.4516 14.1873 21.0326V22.8069C14.1873 22.8729 14.1314 22.9287 14.0654 22.9287H11.6045C11.5385 22.9287 11.4827 22.8729 11.4827 22.8069V21.0326C11.4827 20.4516 11.112 19.9398 10.5605 19.759C10.2152 19.6452 9.87492 19.5041 9.54891 19.3395C9.35594 19.242 9.14875 19.1943 8.94258 19.1943C8.59523 19.1943 8.25297 19.3294 7.995 19.5873L6.7407 20.8416ZM41.532 21.3495C40.2096 20.5857 38.6953 20.3176 37.2095 20.5725L35.359 13.6663C34.8827 11.8879 33.0484 10.8286 31.2701 11.3049C29.6024 11.7518 28.5675 13.393 28.8377 15.0617C27.4137 17.9471 21.4094 23.9464 19.2969 24.5517L12.4871 26.3768C9.48187 27.1822 7.65984 30.1661 8.42664 33.0271L9.48492 36.9779C9.85766 38.3673 10.7788 39.52 12.0819 40.2248C12.9208 40.6788 13.8511 40.9104 14.7966 40.9104C14.8342 40.9104 14.8718 40.9094 14.9084 40.9084L21.0397 49.4112C21.5414 50.1069 22.3285 50.4766 23.1268 50.4766C23.6478 50.4766 24.1729 50.3191 24.6259 49.9921C25.737 49.1908 25.9959 47.6633 25.2291 46.4384L20.8762 39.4885L23.2944 38.8405C25.4059 38.3145 33.6202 40.5417 36.1979 42.3221C36.7677 43.4413 37.9275 44.1472 39.1747 44.1472C39.4601 44.1472 39.7495 44.1106 40.038 44.0334C41.8163 43.5571 42.8756 41.7229 42.3993 39.9445L40.5488 33.0383C41.9626 32.5152 43.1407 31.526 43.9034 30.2037C44.7687 28.7046 44.9993 26.9577 44.5514 25.285C44.1035 23.6123 43.031 22.2148 41.532 21.3495ZM24.1983 47.0864C24.6198 47.7598 24.4979 48.5845 23.9149 49.0049C23.3106 49.4406 22.4646 49.3035 22.0299 48.6992L16.2764 40.7215C16.2937 40.7174 16.3099 40.7134 16.3272 40.7083L19.6462 39.8186L24.1983 47.0864ZM16.0113 39.5312C14.8677 39.8379 13.6774 39.7038 12.6618 39.1544C11.6573 38.611 10.9474 37.7264 10.662 36.6641L9.60375 32.7133C9.01062 30.5002 10.4457 28.1866 12.802 27.5549L19.045 25.8822L20.8396 32.0013L22.3986 37.8198L16.0113 39.5312ZM23.593 37.568L22.0147 31.6794C22.0137 31.6743 22.0127 31.6702 22.0106 31.6652L20.2028 25.5003C21.9852 24.6482 24.4938 22.2158 25.284 21.4236C26.649 20.0566 28.2445 18.263 29.2652 16.7294L35.6667 40.6199C32.4431 39.0173 26.3423 37.3425 23.593 37.568ZM39.7231 42.8563C38.5938 43.159 37.4288 42.4866 37.1262 41.3573L30.0848 15.079C29.7822 13.9496 30.4545 12.7847 31.5839 12.482C32.1283 12.3358 32.6991 12.412 33.1906 12.6963C33.6832 12.9807 34.0346 13.4367 34.1798 13.9811L41.2212 40.2594C41.5248 41.3887 40.8525 42.5537 39.7231 42.8563ZM40.232 31.8541L37.5263 21.7567C38.6963 21.583 39.8826 21.8055 40.9226 22.4057C42.1403 23.1085 43.0107 24.244 43.3753 25.6019C44.072 28.2049 42.6806 30.8841 40.232 31.8541ZM46.2445 24.2013L49.7098 23.273C50.0348 23.1857 50.3689 23.3787 50.4562 23.7037C50.5436 24.0287 50.3506 24.3628 50.0256 24.4502L46.5603 25.3784C46.5075 25.3927 46.4547 25.3998 46.4019 25.3998C46.1327 25.3998 45.887 25.22 45.8138 24.9478C45.7255 24.6218 45.9184 24.2877 46.2445 24.2013ZM50.4562 30.223C50.3831 30.4952 50.1373 30.6749 49.8682 30.6749C49.8164 30.6749 49.7626 30.6678 49.7098 30.6536L46.2445 29.7253C45.9195 29.638 45.7265 29.3038 45.8138 28.9788C45.9012 28.6538 46.2353 28.4619 46.5603 28.5482L50.0256 29.4765C50.3496 29.5638 50.5426 29.898 50.4562 30.223ZM43.7978 21.4561C43.5602 21.2184 43.5602 20.8325 43.7978 20.5938L46.3348 18.0568C46.5725 17.8191 46.9584 17.8191 47.1971 18.0568C47.4348 18.2945 47.4348 18.6804 47.1971 18.9191L44.6601 21.4561C44.5413 21.5749 44.3848 21.6348 44.2295 21.6348C44.0741 21.6348 43.9166 21.5749 43.7978 21.4561Z" fill="white"/>
<path d="M12.8345 17.8273C15.5868 17.8273 17.8263 15.5878 17.8263 12.8355C17.8263 10.0831 15.5868 7.84367 12.8345 7.84367C10.0821 7.84367 7.84266 10.0831 7.84266 12.8355C7.84266 15.5878 10.0821 17.8273 12.8345 17.8273ZM12.8345 9.06141C14.9155 9.06141 16.6075 10.7545 16.6075 12.8345C16.6075 14.9155 14.9145 16.6075 12.8345 16.6075C10.7534 16.6075 9.06141 14.9145 9.06141 12.8345C9.06141 10.7545 10.7545 9.06141 12.8345 9.06141ZM8.99844 20.4252C9.37828 20.6172 9.77539 20.7827 10.1796 20.9158C10.2345 20.9341 10.2629 20.9737 10.2629 21.0316V22.8059C10.2629 23.5452 10.8641 24.1465 11.6035 24.1465H14.0644C14.8038 24.1465 15.405 23.5452 15.405 22.8059V21.0316C15.405 20.9737 15.4345 20.9341 15.4883 20.9158C15.8925 20.7827 16.2896 20.6182 16.6695 20.4252C16.7213 20.3988 16.77 20.407 16.8106 20.4476L18.0659 21.7029C18.3188 21.9558 18.655 22.0949 19.0135 22.0949C19.372 22.0949 19.7082 21.9558 19.9611 21.7029L21.7009 19.9631C22.2239 19.4401 22.2239 18.59 21.7009 18.067L20.4455 16.8116C20.4049 16.771 20.3968 16.7223 20.4232 16.6705C20.6162 16.2906 20.7807 15.8925 20.9137 15.4893C20.932 15.4345 20.9716 15.406 21.0295 15.406H22.8038C23.5432 15.406 24.1445 14.8048 24.1445 14.0654V11.6045C24.1445 10.8652 23.5432 10.2639 22.8038 10.2639H21.0295C20.9716 10.2639 20.932 10.2345 20.9137 10.1796C20.7807 9.77539 20.6162 9.37828 20.4232 8.99844C20.3968 8.94664 20.4049 8.89789 20.4455 8.85727L21.7009 7.60195C21.9538 7.34906 22.0929 7.01289 22.0929 6.65437C22.0929 6.29586 21.9538 5.95969 21.7009 5.7068L19.9611 3.96703C19.7082 3.71414 19.372 3.575 19.0135 3.575C18.655 3.575 18.3188 3.71414 18.0659 3.96703L16.8106 5.22234C16.77 5.26297 16.7213 5.27109 16.6695 5.24469C16.2896 5.05273 15.8925 4.88719 15.4883 4.75414C15.4334 4.73586 15.405 4.69625 15.405 4.63836V2.86406C15.405 2.12469 14.8038 1.52344 14.0644 1.52344H11.6035C10.8641 1.52344 10.2629 2.12469 10.2629 2.86406V4.63836C10.2629 4.69625 10.2334 4.73586 10.1786 4.75414C9.77437 4.88719 9.37727 5.05172 8.99742 5.24469C8.94562 5.27109 8.89687 5.26297 8.85625 5.22234L7.60195 3.96602C7.07891 3.44297 6.22883 3.44297 5.70578 3.96602L3.96602 5.7068C3.71312 5.95969 3.57398 6.29586 3.57398 6.65437C3.57398 7.01289 3.71312 7.34906 3.96602 7.60195L5.22133 8.85727C5.26195 8.89789 5.27008 8.94664 5.24367 8.99844C5.05172 9.37828 4.88617 9.77539 4.75414 10.1796C4.73586 10.2345 4.69625 10.2629 4.63836 10.2629H2.86406C2.12469 10.2629 1.52344 10.8641 1.52344 11.6035V14.0644C1.52344 14.8038 2.12469 15.405 2.86406 15.405H4.63836C4.69625 15.405 4.73586 15.4345 4.75414 15.4883C4.88719 15.8925 5.05172 16.2896 5.24469 16.6695C5.27109 16.7213 5.26297 16.77 5.22234 16.8106L3.96602 18.068C3.44297 18.591 3.44297 19.4411 3.96602 19.9641L5.70578 21.7039C5.95867 21.9568 6.29484 22.0959 6.65336 22.0959C7.01188 22.0959 7.34805 21.9568 7.60094 21.7039L8.85625 20.4486C8.89891 20.407 8.94766 20.3988 8.99844 20.4252ZM6.7407 20.8416C6.71125 20.8711 6.67773 20.8772 6.65437 20.8772C6.63102 20.8772 6.5975 20.8711 6.56805 20.8416L4.82828 19.1019C4.78156 19.0552 4.78156 18.9759 4.82828 18.9292L6.08359 17.6739C6.49492 17.2626 6.59445 16.639 6.33141 16.12C6.16687 15.795 6.0257 15.4548 5.91195 15.1084C5.73117 14.557 5.2193 14.1862 4.63836 14.1862H2.86406C2.79805 14.1862 2.74219 14.1304 2.74219 14.0644V11.6035C2.74219 11.5375 2.79805 11.4816 2.86406 11.4816H4.63836C5.2193 11.4816 5.73117 11.1109 5.91195 10.5595C6.0257 10.2141 6.16687 9.87391 6.33141 9.54891C6.59445 9.03094 6.49391 8.40633 6.08359 7.995L4.82828 6.7407C4.79883 6.71125 4.79273 6.67773 4.79273 6.65437C4.79273 6.63102 4.79883 6.5975 4.82828 6.56805L6.56805 4.82828C6.61477 4.78156 6.69398 4.78156 6.7407 4.82828L7.99602 6.08359C8.40734 6.49492 9.03094 6.59445 9.54992 6.33141C9.87492 6.16687 10.2152 6.0257 10.5605 5.91195C11.112 5.73117 11.4827 5.2193 11.4827 4.63836V2.86406C11.4827 2.79805 11.5385 2.74219 11.6045 2.74219H14.0654C14.1314 2.74219 14.1873 2.79805 14.1873 2.86406V4.63836C14.1873 5.2193 14.558 5.73117 15.1095 5.91195C15.4558 6.0257 15.796 6.16687 16.12 6.33141C16.638 6.59445 17.2626 6.49391 17.6739 6.08359L18.9292 4.82828C18.9587 4.79883 18.9922 4.79273 19.0155 4.79273C19.0389 4.79273 19.0724 4.79883 19.1019 4.82828L20.8416 6.56805C20.8711 6.5975 20.8772 6.63102 20.8772 6.65437C20.8772 6.67773 20.8711 6.71125 20.8416 6.7407L19.5863 7.99602C19.175 8.40734 19.0755 9.03094 19.3385 9.54992C19.503 9.87492 19.6442 10.2152 19.758 10.5605C19.9387 11.112 20.4506 11.4827 21.0316 11.4827H22.8059C22.8719 11.4827 22.9277 11.5385 22.9277 11.6045V14.0654C22.9277 14.1314 22.8719 14.1873 22.8059 14.1873H21.0316C20.4506 14.1873 19.9387 14.558 19.758 15.1095C19.6442 15.4548 19.503 15.795 19.3385 16.121C19.0755 16.639 19.176 17.2636 19.5863 17.6749L20.8416 18.9302C20.8884 18.977 20.8884 19.0562 20.8416 19.1029L19.1019 20.8427C19.0724 20.8721 19.0389 20.8782 19.0155 20.8782C18.9922 20.8782 18.9587 20.8721 18.9292 20.8427L17.6739 19.5873C17.2626 19.176 16.639 19.0765 16.12 19.3395C15.795 19.5041 15.4548 19.6452 15.1095 19.759C14.558 19.9398 14.1873 20.4516 14.1873 21.0326V22.8069C14.1873 22.8729 14.1314 22.9287 14.0654 22.9287H11.6045C11.5385 22.9287 11.4827 22.8729 11.4827 22.8069V21.0326C11.4827 20.4516 11.112 19.9398 10.5605 19.759C10.2152 19.6452 9.87492 19.5041 9.54891 19.3395C9.35594 19.242 9.14875 19.1943 8.94258 19.1943C8.59523 19.1943 8.25297 19.3294 7.995 19.5873L6.7407 20.8416ZM41.532 21.3495C40.2096 20.5857 38.6953 20.3176 37.2095 20.5725L35.359 13.6663C34.8827 11.8879 33.0484 10.8286 31.2701 11.3049C29.6024 11.7518 28.5675 13.393 28.8377 15.0617C27.4137 17.9471 21.4094 23.9464 19.2969 24.5517L12.4871 26.3768C9.48187 27.1822 7.65984 30.1661 8.42664 33.0271L9.48492 36.9779C9.85766 38.3673 10.7788 39.52 12.0819 40.2248C12.9208 40.6788 13.8511 40.9104 14.7966 40.9104C14.8342 40.9104 14.8718 40.9094 14.9084 40.9084L21.0397 49.4112C21.5414 50.1069 22.3285 50.4766 23.1268 50.4766C23.6478 50.4766 24.1729 50.3191 24.6259 49.9921C25.737 49.1908 25.9959 47.6633 25.2291 46.4384L20.8762 39.4885L23.2944 38.8405C25.4059 38.3145 33.6202 40.5417 36.1979 42.3221C36.7677 43.4413 37.9275 44.1472 39.1747 44.1472C39.4601 44.1472 39.7495 44.1106 40.038 44.0334C41.8163 43.5571 42.8756 41.7229 42.3993 39.9445L40.5488 33.0383C41.9626 32.5152 43.1407 31.526 43.9034 30.2037C44.7687 28.7046 44.9993 26.9577 44.5514 25.285C44.1035 23.6123 43.031 22.2148 41.532 21.3495ZM24.1983 47.0864C24.6198 47.7598 24.4979 48.5845 23.9149 49.0049C23.3106 49.4406 22.4646 49.3035 22.0299 48.6992L16.2764 40.7215C16.2937 40.7174 16.3099 40.7134 16.3272 40.7083L19.6462 39.8186L24.1983 47.0864ZM16.0113 39.5312C14.8677 39.8379 13.6774 39.7038 12.6618 39.1544C11.6573 38.611 10.9474 37.7264 10.662 36.6641L9.60375 32.7133C9.01062 30.5002 10.4457 28.1866 12.802 27.5549L19.045 25.8822L20.8396 32.0013L22.3986 37.8198L16.0113 39.5312ZM23.593 37.568L22.0147 31.6794C22.0137 31.6743 22.0127 31.6702 22.0106 31.6652L20.2028 25.5003C21.9852 24.6482 24.4938 22.2158 25.284 21.4236C26.649 20.0566 28.2445 18.263 29.2652 16.7294L35.6667 40.6199C32.4431 39.0173 26.3423 37.3425 23.593 37.568ZM39.7231 42.8563C38.5938 43.159 37.4288 42.4866 37.1262 41.3573L30.0848 15.079C29.7822 13.9496 30.4545 12.7847 31.5839 12.482C32.1283 12.3358 32.6991 12.412 33.1906 12.6963C33.6832 12.9807 34.0346 13.4367 34.1798 13.9811L41.2212 40.2594C41.5248 41.3887 40.8525 42.5537 39.7231 42.8563ZM40.232 31.8541L37.5263 21.7567C38.6963 21.583 39.8826 21.8055 40.9226 22.4057C42.1403 23.1085 43.0107 24.244 43.3753 25.6019C44.072 28.2049 42.6806 30.8841 40.232 31.8541ZM46.2445 24.2013L49.7098 23.273C50.0348 23.1857 50.3689 23.3787 50.4562 23.7037C50.5436 24.0287 50.3506 24.3628 50.0256 24.4502L46.5603 25.3784C46.5075 25.3927 46.4547 25.3998 46.4019 25.3998C46.1327 25.3998 45.887 25.22 45.8138 24.9478C45.7255 24.6218 45.9184 24.2877 46.2445 24.2013ZM50.4562 30.223C50.3831 30.4952 50.1373 30.6749 49.8682 30.6749C49.8164 30.6749 49.7626 30.6678 49.7098 30.6536L46.2445 29.7253C45.9195 29.638 45.7265 29.3038 45.8138 28.9788C45.9012 28.6538 46.2353 28.4619 46.5603 28.5482L50.0256 29.4765C50.3496 29.5638 50.5426 29.898 50.4562 30.223ZM43.7978 21.4561C43.5602 21.2184 43.5602 20.8325 43.7978 20.5938L46.3348 18.0568C46.5725 17.8191 46.9584 17.8191 47.1971 18.0568C47.4348 18.2945 47.4348 18.6804 47.1971 18.9191L44.6601 21.4561C44.5413 21.5749 44.3848 21.6348 44.2295 21.6348C44.0741 21.6348 43.9166 21.5749 43.7978 21.4561Z" stroke="white" stroke-width="0.6" mask="url(#path-1-outside-1_1091_294911)"/>
<mask id="path-2-outside-2_1091_294911" maskUnits="userSpaceOnUse" x="0.523438" y="0.523438" width="24" height="24" fill="black">
<rect fill="white" x="0.523438" y="0.523438" width="24" height="24"/>
<path d="M12.8345 17.8273C15.5868 17.8273 17.8263 15.5878 17.8263 12.8355C17.8263 10.0831 15.5868 7.84367 12.8345 7.84367C10.0821 7.84367 7.84266 10.0831 7.84266 12.8355C7.84266 15.5878 10.0821 17.8273 12.8345 17.8273ZM12.8345 9.06141C14.9155 9.06141 16.6075 10.7545 16.6075 12.8345C16.6075 14.9155 14.9145 16.6075 12.8345 16.6075C10.7534 16.6075 9.06141 14.9145 9.06141 12.8345C9.06141 10.7545 10.7545 9.06141 12.8345 9.06141ZM8.99844 20.4252C9.37828 20.6172 9.77539 20.7827 10.1796 20.9158C10.2345 20.9341 10.2629 20.9737 10.2629 21.0316V22.8059C10.2629 23.5452 10.8641 24.1465 11.6035 24.1465H14.0644C14.8038 24.1465 15.405 23.5452 15.405 22.8059V21.0316C15.405 20.9737 15.4345 20.9341 15.4883 20.9158C15.8925 20.7827 16.2896 20.6182 16.6695 20.4252C16.7213 20.3988 16.77 20.407 16.8106 20.4476L18.0659 21.7029C18.3188 21.9558 18.655 22.0949 19.0135 22.0949C19.372 22.0949 19.7082 21.9558 19.9611 21.7029L21.7009 19.9631C22.2239 19.4401 22.2239 18.59 21.7009 18.067L20.4455 16.8116C20.4049 16.771 20.3968 16.7223 20.4232 16.6705C20.6162 16.2906 20.7807 15.8925 20.9137 15.4893C20.932 15.4345 20.9716 15.406 21.0295 15.406H22.8038C23.5432 15.406 24.1445 14.8048 24.1445 14.0654V11.6045C24.1445 10.8652 23.5432 10.2639 22.8038 10.2639H21.0295C20.9716 10.2639 20.932 10.2345 20.9137 10.1796C20.7807 9.77539 20.6162 9.37828 20.4232 8.99844C20.3968 8.94664 20.4049 8.89789 20.4455 8.85727L21.7009 7.60195C21.9538 7.34906 22.0929 7.01289 22.0929 6.65437C22.0929 6.29586 21.9538 5.95969 21.7009 5.7068L19.9611 3.96703C19.7082 3.71414 19.372 3.575 19.0135 3.575C18.655 3.575 18.3188 3.71414 18.0659 3.96703L16.8106 5.22234C16.77 5.26297 16.7213 5.27109 16.6695 5.24469C16.2896 5.05273 15.8925 4.88719 15.4883 4.75414C15.4334 4.73586 15.405 4.69625 15.405 4.63836V2.86406C15.405 2.12469 14.8038 1.52344 14.0644 1.52344H11.6035C10.8641 1.52344 10.2629 2.12469 10.2629 2.86406V4.63836C10.2629 4.69625 10.2334 4.73586 10.1786 4.75414C9.77437 4.88719 9.37726 5.05172 8.99742 5.24469C8.94562 5.27109 8.89687 5.26297 8.85625 5.22234L7.60195 3.96602C7.07891 3.44297 6.22883 3.44297 5.70578 3.96602L3.96602 5.7068C3.71312 5.95969 3.57398 6.29586 3.57398 6.65437C3.57398 7.01289 3.71312 7.34906 3.96602 7.60195L5.22133 8.85727C5.26195 8.89789 5.27008 8.94664 5.24367 8.99844C5.05172 9.37828 4.88617 9.77539 4.75414 10.1796C4.73586 10.2345 4.69625 10.2629 4.63836 10.2629H2.86406C2.12469 10.2629 1.52344 10.8641 1.52344 11.6035V14.0644C1.52344 14.8038 2.12469 15.405 2.86406 15.405H4.63836C4.69625 15.405 4.73586 15.4345 4.75414 15.4883C4.88719 15.8925 5.05172 16.2896 5.24469 16.6695C5.27109 16.7213 5.26297 16.77 5.22234 16.8106L3.96602 18.068C3.44297 18.591 3.44297 19.4411 3.96602 19.9641L5.70578 21.7039C5.95867 21.9568 6.29484 22.0959 6.65336 22.0959C7.01188 22.0959 7.34805 21.9568 7.60094 21.7039L8.85625 20.4486C8.89891 20.407 8.94766 20.3988 8.99844 20.4252ZM6.7407 20.8416C6.71125 20.8711 6.67773 20.8772 6.65437 20.8772C6.63102 20.8772 6.5975 20.8711 6.56805 20.8416L4.82828 19.1019C4.78156 19.0552 4.78156 18.9759 4.82828 18.9292L6.08359 17.6739C6.49492 17.2626 6.59445 16.639 6.33141 16.12C6.16687 15.795 6.0257 15.4548 5.91195 15.1084C5.73117 14.557 5.2193 14.1862 4.63836 14.1862H2.86406C2.79805 14.1862 2.74219 14.1304 2.74219 14.0644V11.6035C2.74219 11.5375 2.79805 11.4816 2.86406 11.4816H4.63836C5.2193 11.4816 5.73117 11.1109 5.91195 10.5595C6.0257 10.2141 6.16687 9.87391 6.33141 9.54891C6.59445 9.03094 6.49391 8.40633 6.08359 7.995L4.82828 6.7407C4.79883 6.71125 4.79273 6.67773 4.79273 6.65437C4.79273 6.63102 4.79883 6.5975 4.82828 6.56805L6.56805 4.82828C6.61477 4.78156 6.69398 4.78156 6.7407 4.82828L7.99602 6.08359C8.40734 6.49492 9.03094 6.59445 9.54992 6.33141C9.87492 6.16687 10.2152 6.0257 10.5605 5.91195C11.112 5.73117 11.4827 5.2193 11.4827 4.63836V2.86406C11.4827 2.79805 11.5385 2.74219 11.6045 2.74219H14.0654C14.1314 2.74219 14.1873 2.79805 14.1873 2.86406V4.63836C14.1873 5.2193 14.558 5.73117 15.1095 5.91195C15.4558 6.0257 15.796 6.16687 16.12 6.33141C16.638 6.59445 17.2626 6.49391 17.6739 6.08359L18.9292 4.82828C18.9587 4.79883 18.9922 4.79273 19.0155 4.79273C19.0389 4.79273 19.0724 4.79883 19.1019 4.82828L20.8416 6.56805C20.8711 6.5975 20.8772 6.63102 20.8772 6.65437C20.8772 6.67773 20.8711 6.71125 20.8416 6.7407L19.5863 7.99602C19.175 8.40734 19.0755 9.03094 19.3385 9.54992C19.503 9.87492 19.6442 10.2152 19.758 10.5605C19.9387 11.112 20.4506 11.4827 21.0316 11.4827H22.8059C22.8719 11.4827 22.9277 11.5385 22.9277 11.6045V14.0654C22.9277 14.1314 22.8719 14.1873 22.8059 14.1873H21.0316C20.4506 14.1873 19.9387 14.558 19.758 15.1095C19.6442 15.4548 19.503 15.795 19.3385 16.121C19.0755 16.639 19.176 17.2636 19.5863 17.6749L20.8416 18.9302C20.8884 18.977 20.8884 19.0562 20.8416 19.1029L19.1019 20.8427C19.0724 20.8721 19.0389 20.8782 19.0155 20.8782C18.9922 20.8782 18.9587 20.8721 18.9292 20.8427L17.6739 19.5873C17.2626 19.176 16.639 19.0765 16.12 19.3395C15.795 19.5041 15.4548 19.6452 15.1095 19.759C14.558 19.9398 14.1873 20.4516 14.1873 21.0326V22.8069C14.1873 22.8729 14.1314 22.9287 14.0654 22.9287H11.6045C11.5385 22.9287 11.4827 22.8729 11.4827 22.8069V21.0326C11.4827 20.4516 11.112 19.9398 10.5605 19.759C10.2152 19.6452 9.87492 19.5041 9.54891 19.3395C9.35594 19.242 9.14875 19.1943 8.94258 19.1943C8.59523 19.1943 8.25297 19.3294 7.995 19.5873L6.7407 20.8416Z"/>
</mask>
<path d="M12.8345 17.8273C15.5868 17.8273 17.8263 15.5878 17.8263 12.8355C17.8263 10.0831 15.5868 7.84367 12.8345 7.84367C10.0821 7.84367 7.84266 10.0831 7.84266 12.8355C7.84266 15.5878 10.0821 17.8273 12.8345 17.8273ZM12.8345 9.06141C14.9155 9.06141 16.6075 10.7545 16.6075 12.8345C16.6075 14.9155 14.9145 16.6075 12.8345 16.6075C10.7534 16.6075 9.06141 14.9145 9.06141 12.8345C9.06141 10.7545 10.7545 9.06141 12.8345 9.06141ZM8.99844 20.4252C9.37828 20.6172 9.77539 20.7827 10.1796 20.9158C10.2345 20.9341 10.2629 20.9737 10.2629 21.0316V22.8059C10.2629 23.5452 10.8641 24.1465 11.6035 24.1465H14.0644C14.8038 24.1465 15.405 23.5452 15.405 22.8059V21.0316C15.405 20.9737 15.4345 20.9341 15.4883 20.9158C15.8925 20.7827 16.2896 20.6182 16.6695 20.4252C16.7213 20.3988 16.77 20.407 16.8106 20.4476L18.0659 21.7029C18.3188 21.9558 18.655 22.0949 19.0135 22.0949C19.372 22.0949 19.7082 21.9558 19.9611 21.7029L21.7009 19.9631C22.2239 19.4401 22.2239 18.59 21.7009 18.067L20.4455 16.8116C20.4049 16.771 20.3968 16.7223 20.4232 16.6705C20.6162 16.2906 20.7807 15.8925 20.9137 15.4893C20.932 15.4345 20.9716 15.406 21.0295 15.406H22.8038C23.5432 15.406 24.1445 14.8048 24.1445 14.0654V11.6045C24.1445 10.8652 23.5432 10.2639 22.8038 10.2639H21.0295C20.9716 10.2639 20.932 10.2345 20.9137 10.1796C20.7807 9.77539 20.6162 9.37828 20.4232 8.99844C20.3968 8.94664 20.4049 8.89789 20.4455 8.85727L21.7009 7.60195C21.9538 7.34906 22.0929 7.01289 22.0929 6.65437C22.0929 6.29586 21.9538 5.95969 21.7009 5.7068L19.9611 3.96703C19.7082 3.71414 19.372 3.575 19.0135 3.575C18.655 3.575 18.3188 3.71414 18.0659 3.96703L16.8106 5.22234C16.77 5.26297 16.7213 5.27109 16.6695 5.24469C16.2896 5.05273 15.8925 4.88719 15.4883 4.75414C15.4334 4.73586 15.405 4.69625 15.405 4.63836V2.86406C15.405 2.12469 14.8038 1.52344 14.0644 1.52344H11.6035C10.8641 1.52344 10.2629 2.12469 10.2629 2.86406V4.63836C10.2629 4.69625 10.2334 4.73586 10.1786 4.75414C9.77437 4.88719 9.37726 5.05172 8.99742 5.24469C8.94562 5.27109 8.89687 5.26297 8.85625 5.22234L7.60195 3.96602C7.07891 3.44297 6.22883 3.44297 5.70578 3.96602L3.96602 5.7068C3.71312 5.95969 3.57398 6.29586 3.57398 6.65437C3.57398 7.01289 3.71312 7.34906 3.96602 7.60195L5.22133 8.85727C5.26195 8.89789 5.27008 8.94664 5.24367 8.99844C5.05172 9.37828 4.88617 9.77539 4.75414 10.1796C4.73586 10.2345 4.69625 10.2629 4.63836 10.2629H2.86406C2.12469 10.2629 1.52344 10.8641 1.52344 11.6035V14.0644C1.52344 14.8038 2.12469 15.405 2.86406 15.405H4.63836C4.69625 15.405 4.73586 15.4345 4.75414 15.4883C4.88719 15.8925 5.05172 16.2896 5.24469 16.6695C5.27109 16.7213 5.26297 16.77 5.22234 16.8106L3.96602 18.068C3.44297 18.591 3.44297 19.4411 3.96602 19.9641L5.70578 21.7039C5.95867 21.9568 6.29484 22.0959 6.65336 22.0959C7.01188 22.0959 7.34805 21.9568 7.60094 21.7039L8.85625 20.4486C8.89891 20.407 8.94766 20.3988 8.99844 20.4252ZM6.7407 20.8416C6.71125 20.8711 6.67773 20.8772 6.65437 20.8772C6.63102 20.8772 6.5975 20.8711 6.56805 20.8416L4.82828 19.1019C4.78156 19.0552 4.78156 18.9759 4.82828 18.9292L6.08359 17.6739C6.49492 17.2626 6.59445 16.639 6.33141 16.12C6.16687 15.795 6.0257 15.4548 5.91195 15.1084C5.73117 14.557 5.2193 14.1862 4.63836 14.1862H2.86406C2.79805 14.1862 2.74219 14.1304 2.74219 14.0644V11.6035C2.74219 11.5375 2.79805 11.4816 2.86406 11.4816H4.63836C5.2193 11.4816 5.73117 11.1109 5.91195 10.5595C6.0257 10.2141 6.16687 9.87391 6.33141 9.54891C6.59445 9.03094 6.49391 8.40633 6.08359 7.995L4.82828 6.7407C4.79883 6.71125 4.79273 6.67773 4.79273 6.65437C4.79273 6.63102 4.79883 6.5975 4.82828 6.56805L6.56805 4.82828C6.61477 4.78156 6.69398 4.78156 6.7407 4.82828L7.99602 6.08359C8.40734 6.49492 9.03094 6.59445 9.54992 6.33141C9.87492 6.16687 10.2152 6.0257 10.5605 5.91195C11.112 5.73117 11.4827 5.2193 11.4827 4.63836V2.86406C11.4827 2.79805 11.5385 2.74219 11.6045 2.74219H14.0654C14.1314 2.74219 14.1873 2.79805 14.1873 2.86406V4.63836C14.1873 5.2193 14.558 5.73117 15.1095 5.91195C15.4558 6.0257 15.796 6.16687 16.12 6.33141C16.638 6.59445 17.2626 6.49391 17.6739 6.08359L18.9292 4.82828C18.9587 4.79883 18.9922 4.79273 19.0155 4.79273C19.0389 4.79273 19.0724 4.79883 19.1019 4.82828L20.8416 6.56805C20.8711 6.5975 20.8772 6.63102 20.8772 6.65437C20.8772 6.67773 20.8711 6.71125 20.8416 6.7407L19.5863 7.99602C19.175 8.40734 19.0755 9.03094 19.3385 9.54992C19.503 9.87492 19.6442 10.2152 19.758 10.5605C19.9387 11.112 20.4506 11.4827 21.0316 11.4827H22.8059C22.8719 11.4827 22.9277 11.5385 22.9277 11.6045V14.0654C22.9277 14.1314 22.8719 14.1873 22.8059 14.1873H21.0316C20.4506 14.1873 19.9387 14.558 19.758 15.1095C19.6442 15.4548 19.503 15.795 19.3385 16.121C19.0755 16.639 19.176 17.2636 19.5863 17.6749L20.8416 18.9302C20.8884 18.977 20.8884 19.0562 20.8416 19.1029L19.1019 20.8427C19.0724 20.8721 19.0389 20.8782 19.0155 20.8782C18.9922 20.8782 18.9587 20.8721 18.9292 20.8427L17.6739 19.5873C17.2626 19.176 16.639 19.0765 16.12 19.3395C15.795 19.5041 15.4548 19.6452 15.1095 19.759C14.558 19.9398 14.1873 20.4516 14.1873 21.0326V22.8069C14.1873 22.8729 14.1314 22.9287 14.0654 22.9287H11.6045C11.5385 22.9287 11.4827 22.8729 11.4827 22.8069V21.0326C11.4827 20.4516 11.112 19.9398 10.5605 19.759C10.2152 19.6452 9.87492 19.5041 9.54891 19.3395C9.35594 19.242 9.14875 19.1943 8.94258 19.1943C8.59523 19.1943 8.25297 19.3294 7.995 19.5873L6.7407 20.8416Z" fill="#E6B400"/>
<path d="M12.8345 17.8273C15.5868 17.8273 17.8263 15.5878 17.8263 12.8355C17.8263 10.0831 15.5868 7.84367 12.8345 7.84367C10.0821 7.84367 7.84266 10.0831 7.84266 12.8355C7.84266 15.5878 10.0821 17.8273 12.8345 17.8273ZM12.8345 9.06141C14.9155 9.06141 16.6075 10.7545 16.6075 12.8345C16.6075 14.9155 14.9145 16.6075 12.8345 16.6075C10.7534 16.6075 9.06141 14.9145 9.06141 12.8345C9.06141 10.7545 10.7545 9.06141 12.8345 9.06141ZM8.99844 20.4252C9.37828 20.6172 9.77539 20.7827 10.1796 20.9158C10.2345 20.9341 10.2629 20.9737 10.2629 21.0316V22.8059C10.2629 23.5452 10.8641 24.1465 11.6035 24.1465H14.0644C14.8038 24.1465 15.405 23.5452 15.405 22.8059V21.0316C15.405 20.9737 15.4345 20.9341 15.4883 20.9158C15.8925 20.7827 16.2896 20.6182 16.6695 20.4252C16.7213 20.3988 16.77 20.407 16.8106 20.4476L18.0659 21.7029C18.3188 21.9558 18.655 22.0949 19.0135 22.0949C19.372 22.0949 19.7082 21.9558 19.9611 21.7029L21.7009 19.9631C22.2239 19.4401 22.2239 18.59 21.7009 18.067L20.4455 16.8116C20.4049 16.771 20.3968 16.7223 20.4232 16.6705C20.6162 16.2906 20.7807 15.8925 20.9137 15.4893C20.932 15.4345 20.9716 15.406 21.0295 15.406H22.8038C23.5432 15.406 24.1445 14.8048 24.1445 14.0654V11.6045C24.1445 10.8652 23.5432 10.2639 22.8038 10.2639H21.0295C20.9716 10.2639 20.932 10.2345 20.9137 10.1796C20.7807 9.77539 20.6162 9.37828 20.4232 8.99844C20.3968 8.94664 20.4049 8.89789 20.4455 8.85727L21.7009 7.60195C21.9538 7.34906 22.0929 7.01289 22.0929 6.65437C22.0929 6.29586 21.9538 5.95969 21.7009 5.7068L19.9611 3.96703C19.7082 3.71414 19.372 3.575 19.0135 3.575C18.655 3.575 18.3188 3.71414 18.0659 3.96703L16.8106 5.22234C16.77 5.26297 16.7213 5.27109 16.6695 5.24469C16.2896 5.05273 15.8925 4.88719 15.4883 4.75414C15.4334 4.73586 15.405 4.69625 15.405 4.63836V2.86406C15.405 2.12469 14.8038 1.52344 14.0644 1.52344H11.6035C10.8641 1.52344 10.2629 2.12469 10.2629 2.86406V4.63836C10.2629 4.69625 10.2334 4.73586 10.1786 4.75414C9.77437 4.88719 9.37726 5.05172 8.99742 5.24469C8.94562 5.27109 8.89687 5.26297 8.85625 5.22234L7.60195 3.96602C7.07891 3.44297 6.22883 3.44297 5.70578 3.96602L3.96602 5.7068C3.71312 5.95969 3.57398 6.29586 3.57398 6.65437C3.57398 7.01289 3.71312 7.34906 3.96602 7.60195L5.22133 8.85727C5.26195 8.89789 5.27008 8.94664 5.24367 8.99844C5.05172 9.37828 4.88617 9.77539 4.75414 10.1796C4.73586 10.2345 4.69625 10.2629 4.63836 10.2629H2.86406C2.12469 10.2629 1.52344 10.8641 1.52344 11.6035V14.0644C1.52344 14.8038 2.12469 15.405 2.86406 15.405H4.63836C4.69625 15.405 4.73586 15.4345 4.75414 15.4883C4.88719 15.8925 5.05172 16.2896 5.24469 16.6695C5.27109 16.7213 5.26297 16.77 5.22234 16.8106L3.96602 18.068C3.44297 18.591 3.44297 19.4411 3.96602 19.9641L5.70578 21.7039C5.95867 21.9568 6.29484 22.0959 6.65336 22.0959C7.01188 22.0959 7.34805 21.9568 7.60094 21.7039L8.85625 20.4486C8.89891 20.407 8.94766 20.3988 8.99844 20.4252ZM6.7407 20.8416C6.71125 20.8711 6.67773 20.8772 6.65437 20.8772C6.63102 20.8772 6.5975 20.8711 6.56805 20.8416L4.82828 19.1019C4.78156 19.0552 4.78156 18.9759 4.82828 18.9292L6.08359 17.6739C6.49492 17.2626 6.59445 16.639 6.33141 16.12C6.16687 15.795 6.0257 15.4548 5.91195 15.1084C5.73117 14.557 5.2193 14.1862 4.63836 14.1862H2.86406C2.79805 14.1862 2.74219 14.1304 2.74219 14.0644V11.6035C2.74219 11.5375 2.79805 11.4816 2.86406 11.4816H4.63836C5.2193 11.4816 5.73117 11.1109 5.91195 10.5595C6.0257 10.2141 6.16687 9.87391 6.33141 9.54891C6.59445 9.03094 6.49391 8.40633 6.08359 7.995L4.82828 6.7407C4.79883 6.71125 4.79273 6.67773 4.79273 6.65437C4.79273 6.63102 4.79883 6.5975 4.82828 6.56805L6.56805 4.82828C6.61477 4.78156 6.69398 4.78156 6.7407 4.82828L7.99602 6.08359C8.40734 6.49492 9.03094 6.59445 9.54992 6.33141C9.87492 6.16687 10.2152 6.0257 10.5605 5.91195C11.112 5.73117 11.4827 5.2193 11.4827 4.63836V2.86406C11.4827 2.79805 11.5385 2.74219 11.6045 2.74219H14.0654C14.1314 2.74219 14.1873 2.79805 14.1873 2.86406V4.63836C14.1873 5.2193 14.558 5.73117 15.1095 5.91195C15.4558 6.0257 15.796 6.16687 16.12 6.33141C16.638 6.59445 17.2626 6.49391 17.6739 6.08359L18.9292 4.82828C18.9587 4.79883 18.9922 4.79273 19.0155 4.79273C19.0389 4.79273 19.0724 4.79883 19.1019 4.82828L20.8416 6.56805C20.8711 6.5975 20.8772 6.63102 20.8772 6.65437C20.8772 6.67773 20.8711 6.71125 20.8416 6.7407L19.5863 7.99602C19.175 8.40734 19.0755 9.03094 19.3385 9.54992C19.503 9.87492 19.6442 10.2152 19.758 10.5605C19.9387 11.112 20.4506 11.4827 21.0316 11.4827H22.8059C22.8719 11.4827 22.9277 11.5385 22.9277 11.6045V14.0654C22.9277 14.1314 22.8719 14.1873 22.8059 14.1873H21.0316C20.4506 14.1873 19.9387 14.558 19.758 15.1095C19.6442 15.4548 19.503 15.795 19.3385 16.121C19.0755 16.639 19.176 17.2636 19.5863 17.6749L20.8416 18.9302C20.8884 18.977 20.8884 19.0562 20.8416 19.1029L19.1019 20.8427C19.0724 20.8721 19.0389 20.8782 19.0155 20.8782C18.9922 20.8782 18.9587 20.8721 18.9292 20.8427L17.6739 19.5873C17.2626 19.176 16.639 19.0765 16.12 19.3395C15.795 19.5041 15.4548 19.6452 15.1095 19.759C14.558 19.9398 14.1873 20.4516 14.1873 21.0326V22.8069C14.1873 22.8729 14.1314 22.9287 14.0654 22.9287H11.6045C11.5385 22.9287 11.4827 22.8729 11.4827 22.8069V21.0326C11.4827 20.4516 11.112 19.9398 10.5605 19.759C10.2152 19.6452 9.87492 19.5041 9.54891 19.3395C9.35594 19.242 9.14875 19.1943 8.94258 19.1943C8.59523 19.1943 8.25297 19.3294 7.995 19.5873L6.7407 20.8416Z" stroke="#E6B400" stroke-width="0.6" mask="url(#path-2-outside-2_1091_294911)"/>
</svg>
