<svg width="52" height="52" viewBox="0 0 52 52" fill="none" xmlns="http://www.w3.org/2000/svg">
<path d="M10.4805 23.9711H8.85547V16.3336C8.85547 11.7023 8.93672 6.74609 8.93672 6.74609C8.93672 6.33984 9.34297 5.93359 9.74922 5.93359H20.4742V7.55859H10.4805V16.3336V23.9711Z" fill="#E6B400"/>
<path d="M43.3062 23.9602H41.6812V7.62891H31.6875V6.00391H42.4937C42.9812 6.00391 43.3062 6.32891 43.3062 6.81641V23.9602Z" fill="#E6B400"/>
<path d="M43.9586 48.1047H8.04609C7.07109 48.1047 6.09609 47.6984 5.44609 47.0484C4.71484 46.3984 4.30859 45.4234 4.30859 44.3672V20.3984H5.93359V44.3672C5.93359 44.9359 6.17734 45.5047 6.58359 45.9109C6.98984 46.3172 7.55859 46.5609 8.04609 46.5609H43.9586C45.0961 46.5609 46.0711 45.5859 46.0711 44.4484V20.3984H47.6961V44.3672C47.7773 46.3984 46.0711 48.1047 43.9586 48.1047Z" fill="white"/>
<path d="M26.0023 36.7977C25.8398 36.7977 25.6773 36.7164 25.5148 36.6352L4.63359 21.0352C4.47109 20.8727 4.30859 20.6289 4.30859 20.3852C4.30859 20.1414 4.38984 19.8977 4.55234 19.7352L25.5148 1.21016C25.8398 0.966406 26.3273 0.966406 26.5711 1.21016L47.3711 19.7352C47.5336 19.8977 47.6148 20.1414 47.6148 20.3852C47.6148 20.6289 47.4523 20.8727 47.2898 21.0352L26.4898 36.6352C26.3273 36.7977 26.1648 36.7977 26.0023 36.7977ZM6.42109 20.3039L26.0023 35.0102L45.6648 20.3039L26.0836 2.91641L6.42109 20.3039Z" fill="white"/>
<path d="M5.46484 45.8047L21.0039 32.1096L22.078 33.3283L6.53897 47.0234L5.46484 45.8047Z" fill="white"/>
<path d="M29.6094 33.2959L30.6835 32.0771L46.2226 45.7722L45.1484 46.991L29.6094 33.2959Z" fill="white"/>
<path d="M25.6773 23.6438C23.4836 23.6438 21.7773 21.8562 21.7773 19.7437C21.7773 17.6312 23.5648 15.8438 25.6773 15.8438C27.7898 15.8438 29.5773 17.6312 29.5773 19.7437C29.5773 21.8562 27.7898 23.6438 25.6773 23.6438ZM25.6773 17.3875C24.3773 17.3875 23.4023 18.4438 23.4023 19.6625C23.4023 20.8813 24.4586 21.9375 25.6773 21.9375C26.8961 21.9375 27.9523 20.8813 27.9523 19.6625C27.9523 18.4438 26.8961 17.3875 25.6773 17.3875Z" fill="#E6B400"/>
<path d="M28.5211 27.4648H23.8086C21.1273 27.4648 18.9336 25.2711 18.9336 22.5898V17.3086C18.9336 14.6273 21.1273 12.4336 23.8086 12.4336H29.1711C31.8523 12.4336 34.0461 14.6273 34.0461 17.3086V18.5273C34.0461 21.2086 31.8523 23.4023 29.1711 23.4023C28.6836 23.4023 28.3586 23.0773 28.3586 22.5898V16.1711H29.9836V21.6961C31.3648 21.3711 32.4211 20.0711 32.4211 18.5273V17.3086C32.4211 15.5211 30.9586 14.0586 29.1711 14.0586H23.8086C22.0211 14.0586 20.5586 15.5211 20.5586 17.3086V22.5898C20.5586 24.3773 22.0211 25.8398 23.8086 25.8398H28.5211C28.8461 25.8398 29.0898 25.5961 29.0898 25.2711V24.0523H30.7148V25.2711C30.7148 26.4898 29.7398 27.4648 28.5211 27.4648Z" fill="#E6B400"/>
</svg>
