<svg width="33" height="33" viewBox="0 0 33 33" fill="none" xmlns="http://www.w3.org/2000/svg">
<g clip-path="url(#clip0_1760_16893)">
<path d="M18.5497 16.9022C18.5497 21.9207 14.5092 25.9891 9.52487 25.9891C4.54056 25.9891 0.5 21.9207 0.5 16.9022C0.5 11.8837 4.54056 7.81543 9.52487 7.81543C14.5091 7.81543 18.5497 11.8837 18.5497 16.9022Z" fill="white"/>
<path d="M28.4468 16.9003C28.4468 21.6244 26.4264 25.4539 23.9343 25.4539C21.4422 25.4539 19.4219 21.6244 19.4219 16.9003C19.4219 12.1762 21.4422 8.34668 23.9343 8.34668C26.4265 8.34668 28.4468 12.1762 28.4468 16.9003Z" fill="white"/>
<path d="M32.5022 16.901C32.5022 21.1336 31.7916 24.5647 30.9151 24.5647C30.0386 24.5647 29.3281 21.1336 29.3281 16.901C29.3281 12.6684 30.0386 9.2373 30.9151 9.2373C31.7916 9.2373 32.5022 12.6684 32.5022 16.901Z" fill="white"/>
</g>
<defs>
<clipPath id="clip0_1760_16893">
<rect width="32" height="32" fill="white" transform="translate(0.5 0.90918)"/>
</clipPath>
</defs>
</svg>
