<svg width="19" height="14" viewBox="0 0 19 14" fill="none" xmlns="http://www.w3.org/2000/svg">
<path d="M17.5704 7.96575H4.00587L7.52508 11.4836L7.52511 11.4837C7.69404 11.6526 7.78895 11.8817 7.78895 12.1206C7.78895 12.3595 7.69404 12.5886 7.52511 12.7576C7.35618 12.9265 7.12706 13.0214 6.88815 13.0214C6.64924 13.0214 6.42012 12.9265 6.25119 12.7576L1.19659 7.70298C1.11279 7.61939 1.0463 7.52009 1.00093 7.41076C0.955564 7.30143 0.932213 7.18423 0.932213 7.06586C0.932213 6.9475 0.955564 6.83029 1.00093 6.72097C1.0463 6.61164 1.11279 6.51234 1.19659 6.42874L6.25119 1.37415C6.33484 1.2905 6.43414 1.22415 6.54343 1.17888C6.65272 1.13361 6.76985 1.11031 6.88815 1.11031C7.00644 1.11031 7.12358 1.13361 7.23287 1.17888C7.34216 1.22415 7.44146 1.2905 7.52511 1.37415C7.60876 1.45779 7.67511 1.5571 7.72038 1.66638C7.76565 1.77568 7.78895 1.89281 7.78895 2.01111C7.78895 2.1294 7.76565 2.24654 7.72038 2.35583C7.67511 2.46512 7.60876 2.56442 7.52511 2.64807L7.52508 2.64809L4.00587 6.16598H17.5704C17.809 6.16598 18.0379 6.26079 18.2067 6.42955L18.0823 6.55393L18.2067 6.42955C18.3754 6.59831 18.4703 6.8272 18.4703 7.06586C18.4703 7.30453 18.3754 7.53342 18.2067 7.70218C18.0379 7.87094 17.809 7.96575 17.5704 7.96575Z" fill="white" stroke="white" stroke-width="0.355556"/>
</svg>
