<svg width="20" height="17" viewBox="0 0 20 17" fill="none" xmlns="http://www.w3.org/2000/svg">
<g clip-path="url(#clip0_1760_34930)">
<path d="M1.8349 9.96575H15.3994L11.8802 13.4836L11.8802 13.4837C11.7112 13.6526 11.6163 13.8817 11.6163 14.1206C11.6163 14.3595 11.7112 14.5886 11.8802 14.7576C12.0491 14.9265 12.2782 15.0214 12.5171 15.0214C12.756 15.0214 12.9852 14.9265 13.1541 14.7576L18.2087 9.70298C18.2925 9.61939 18.359 9.52009 18.4043 9.41076C18.4497 9.30143 18.4731 9.18423 18.4731 9.06586C18.4731 8.9475 18.4497 8.83029 18.4043 8.72097C18.359 8.61164 18.2925 8.51234 18.2087 8.42874L13.1541 3.37415C13.0704 3.2905 12.9711 3.22415 12.8618 3.17888C12.7526 3.13361 12.6354 3.11031 12.5171 3.11031C12.3988 3.11031 12.2817 3.13361 12.1724 3.17888C12.0631 3.22415 11.9638 3.2905 11.8802 3.37415C11.7965 3.45779 11.7302 3.5571 11.6849 3.66638C11.6396 3.77568 11.6163 3.89281 11.6163 4.01111C11.6163 4.1294 11.6396 4.24654 11.6849 4.35583C11.7302 4.46512 11.7965 4.56442 11.8802 4.64807L11.8802 4.64809L15.3994 8.16598H1.8349C1.59624 8.16598 1.36735 8.26079 1.19859 8.42955L1.32297 8.55393L1.19859 8.42955C1.02982 8.59831 0.935015 8.8272 0.935015 9.06586C0.935015 9.30453 1.02982 9.53342 1.19859 9.70218C1.36735 9.87094 1.59624 9.96575 1.8349 9.96575Z" fill="white" stroke="white" stroke-width="0.355556"/>
</g>
<defs>
<clipPath id="clip0_1760_34930">
<rect width="19.5556" height="16" fill="white" transform="translate(0.222168 0.621094)"/>
</clipPath>
</defs>
</svg>
