<svg width="72" height="72" viewBox="0 0 72 72" fill="none" xmlns="http://www.w3.org/2000/svg">
<path d="M5.07938 38.2245C9.01406 37.9222 12.9881 38.6352 16.5712 40.2875C17.0648 40.5153 17.28 41.1003 17.0536 41.5939C16.8877 41.9539 16.5319 42.1662 16.1592 42.1662C16.0214 42.1662 15.8808 42.1367 15.7472 42.0748C12.4678 40.5631 8.83125 39.9092 5.23125 40.1877C4.69125 40.2284 4.21594 39.8234 4.17375 39.282C4.13156 38.7406 4.53797 38.2667 5.07938 38.2245ZM16.5712 45.1827C12.9881 43.5303 9.01406 42.8173 5.07938 43.1197C4.53797 43.1619 4.13156 43.6344 4.17375 44.1772C4.21594 44.7186 4.68984 45.1236 5.23125 45.0828C8.83125 44.8058 12.4678 45.4583 15.7472 46.97C15.8808 47.0319 16.0214 47.0614 16.1592 47.0614C16.5319 47.0614 16.8877 46.8491 17.0536 46.4891C17.2814 45.9955 17.0648 45.4105 16.5712 45.1827ZM16.5712 50.0778C12.9881 48.4255 9.01406 47.7125 5.07938 48.0148C4.53797 48.057 4.13156 48.5295 4.17375 49.0723C4.21594 49.6152 4.68984 50.0202 5.23125 49.978C8.83125 49.7009 12.4678 50.3534 15.7472 51.8652C15.8808 51.927 16.0214 51.9566 16.1592 51.9566C16.5319 51.9566 16.8877 51.7442 17.0536 51.3842C17.2814 50.8906 17.0648 50.3056 16.5712 50.0778ZM16.5712 54.973C12.9881 53.3206 9.01406 52.6077 5.07938 52.91C4.53797 52.9522 4.13156 53.4247 4.17375 53.9675C4.21594 54.5103 4.68984 54.9139 5.23125 54.8731C8.83125 54.5961 12.4678 55.2486 15.7472 56.7603C15.8808 56.8222 16.0214 56.8517 16.1592 56.8517C16.5319 56.8517 16.8877 56.6394 17.0536 56.2794C17.2814 55.7858 17.0648 55.2008 16.5712 54.973ZM37.5863 34.2392V59.4603C37.5863 59.7626 37.447 60.0481 37.2108 60.2337C36.9731 60.4208 36.6638 60.4883 36.3698 60.4166C31.957 59.345 26.3573 59.8709 19.7241 61.9817C19.627 62.0126 19.5272 62.0281 19.4259 62.0281C19.3247 62.0281 19.2248 62.0126 19.1278 61.9817C12.4945 59.8709 6.89484 59.3436 2.48203 60.4166C2.18812 60.4883 1.87875 60.4208 1.64109 60.2337C1.40344 60.0467 1.26562 59.7612 1.26562 59.4603V34.2392C1.26562 33.7456 1.63125 33.3294 2.12063 33.2633C3.5775 33.0692 5.01891 32.9764 6.44484 32.9834V32.9497C6.44484 28.0784 9.95344 24.013 14.5744 23.1411C12.9656 21.7672 11.9433 19.7267 11.9433 17.4514C11.9433 13.3255 15.3 9.96875 19.4259 9.96875C23.5519 9.96875 26.9086 13.3255 26.9086 17.4514C26.9086 19.7267 25.8862 21.7672 24.2775 23.1411C28.8998 24.013 32.407 28.077 32.407 32.9497V32.9834C33.833 32.9764 35.2744 33.0692 36.7313 33.2633C37.2206 33.328 37.5863 33.7456 37.5863 34.2392ZM19.4259 22.9667C22.4662 22.9667 24.9398 20.4931 24.9398 17.4528C24.9398 14.4125 22.4662 11.9389 19.4259 11.9389C16.3856 11.9389 13.912 14.4125 13.912 17.4528C13.912 20.4931 16.3856 22.9667 19.4259 22.9667ZM8.41219 33.0566C12.2259 33.3252 15.9117 34.325 19.4259 36.0519C22.9402 34.3264 26.6259 33.3252 30.4397 33.0566V32.9511C30.4397 28.5327 26.8439 24.9369 22.4255 24.9369H16.4264C12.008 24.9369 8.41219 28.5327 8.41219 32.9511V33.0566ZM18.4416 37.7605C13.6702 35.443 8.56125 34.5542 3.23438 35.1139V58.2495C4.51688 58.0231 5.87953 57.9106 7.31672 57.9106C10.6341 57.9106 14.3536 58.5125 18.443 59.7148V37.7619L18.4416 37.7605ZM35.6175 35.1139C30.292 34.5556 25.1817 35.4444 20.4103 37.7619V59.7148C26.2702 57.9936 31.3734 57.5014 35.6175 58.2509V35.1153V35.1139ZM22.2806 40.2889C21.787 40.5167 21.5719 41.1017 21.7983 41.5953C21.9642 41.9553 22.32 42.1677 22.6927 42.1677C22.8305 42.1677 22.9711 42.1381 23.1047 42.0762C26.3841 40.5645 30.0206 39.9106 33.6206 40.1891C34.1606 40.227 34.6359 39.8248 34.6781 39.2834C34.7203 38.742 34.3139 38.2681 33.7725 38.2259C29.8378 37.9236 25.8638 38.6366 22.2806 40.2889ZM33.7725 43.1211C29.8378 42.8187 25.8638 43.5317 22.2806 45.1841C21.787 45.4119 21.5719 45.9969 21.7983 46.4905C21.9642 46.8505 22.32 47.0628 22.6927 47.0628C22.8305 47.0628 22.9711 47.0333 23.1047 46.9714C26.3841 45.4597 30.0206 44.8058 33.6206 45.0842C34.1606 45.125 34.6359 44.72 34.6781 44.1786C34.7203 43.6372 34.3139 43.1633 33.7725 43.1211ZM33.7725 48.0162C29.8378 47.7139 25.8638 48.4269 22.2806 50.0792C21.787 50.307 21.5719 50.892 21.7983 51.3856C21.9642 51.7456 22.32 51.958 22.6927 51.958C22.8305 51.958 22.9711 51.9284 23.1047 51.8666C26.3841 50.3548 30.0206 49.7009 33.6206 49.9794C34.1606 50.0187 34.6359 49.6152 34.6781 49.0737C34.7203 48.5323 34.3139 48.0584 33.7725 48.0162ZM33.7725 52.9114C29.8378 52.6091 25.8638 53.322 22.2806 54.9744C21.787 55.2022 21.5719 55.7872 21.7983 56.2808C21.9642 56.6408 22.32 56.8531 22.6927 56.8531C22.8305 56.8531 22.9711 56.8236 23.1047 56.7617C26.3841 55.25 30.0206 54.5961 33.6206 54.8745C34.1606 54.9153 34.6359 54.5103 34.6781 53.9689C34.7203 53.4275 34.3139 52.9536 33.7725 52.9114ZM70.7344 34.2969V37.7028C70.7344 38.1092 70.4841 38.4734 70.1058 38.6211L67.3664 39.6814C67.1794 40.2552 66.9473 40.8134 66.6745 41.3506L67.8628 44.038C68.0273 44.4092 67.9458 44.8438 67.6589 45.132L65.25 47.5409C64.9631 47.8278 64.5272 47.9094 64.1559 47.7448L61.4686 46.5566C60.93 46.8294 60.3717 47.0614 59.7994 47.2484L58.7391 49.9878C58.5928 50.3675 58.2272 50.6164 57.8208 50.6164H54.4148C54.0084 50.6164 53.6442 50.3661 53.4966 49.9878L52.4362 47.2484C51.8639 47.0614 51.3042 46.8294 50.767 46.5566L48.0797 47.7448C47.7084 47.9094 47.2739 47.8278 46.9856 47.5409L44.5767 45.132C44.2898 44.8452 44.2083 44.4106 44.3728 44.038L45.5611 41.3506C45.2883 40.812 45.0562 40.2537 44.8692 39.6814L42.1298 38.6211C41.7502 38.4748 41.5013 38.1092 41.5013 37.7028V34.2969C41.5013 33.8905 41.7516 33.5262 42.1298 33.3786L44.8692 32.3183C45.0562 31.7445 45.2883 31.1862 45.5611 30.6491L44.3728 27.9617C44.2083 27.5905 44.2898 27.1559 44.5767 26.8677L46.9856 24.4587C47.2725 24.1719 47.7084 24.0903 48.0797 24.2548L50.7684 25.4431C51.307 25.1703 51.8653 24.9383 52.4377 24.7512L53.498 22.0119C53.6442 21.6322 54.0098 21.3833 54.4162 21.3833H57.8222C58.2286 21.3833 58.5928 21.6336 58.7405 22.0119L59.8008 24.7512C60.3731 24.9383 60.9328 25.1703 61.47 25.4431L64.1573 24.2548C64.5286 24.0903 64.9645 24.1719 65.2514 24.4587L67.6603 26.8677C67.9472 27.1545 68.0287 27.5891 67.8642 27.9617L66.6759 30.6491C66.9487 31.1877 67.1808 31.7459 67.3678 32.3183L70.1072 33.3786C70.4869 33.5248 70.7358 33.8905 70.7358 34.2969H70.7344ZM68.7656 34.9719L66.2091 33.9819C65.9194 33.8694 65.7 33.6289 65.617 33.3294C65.4061 32.5798 65.1052 31.8542 64.7227 31.1722C64.5708 30.9022 64.5553 30.5759 64.6805 30.2919L65.7886 27.7831L64.3345 26.3291L61.8258 27.4386C61.5417 27.5637 61.2155 27.5483 60.9455 27.3964C60.2648 27.0139 59.5392 26.713 58.7883 26.502C58.4902 26.4177 58.2483 26.1983 58.1358 25.91L57.1458 23.3534H55.0884L54.0984 25.91C53.9859 26.1997 53.7455 26.4191 53.4459 26.502C52.6964 26.713 51.9708 27.0139 51.2887 27.3964C51.0187 27.5483 50.6925 27.5637 50.4084 27.4386L47.8983 26.3291L46.4442 27.7831L47.5523 30.2919C47.6775 30.5759 47.662 30.9022 47.5102 31.1722C47.1277 31.8528 46.8267 32.5784 46.6158 33.3294C46.5314 33.6275 46.312 33.8694 46.0238 33.9819L43.4672 34.9719V37.0292L46.0252 38.0192C46.3148 38.1317 46.5342 38.3722 46.6172 38.6717C46.8267 39.4212 47.1277 40.1469 47.5116 40.8289C47.6634 41.0989 47.6789 41.4252 47.5537 41.7092L46.4442 44.2194L47.8983 45.6734L50.407 44.5653C50.6911 44.4402 51.0173 44.4556 51.2873 44.6075C51.968 44.99 52.6936 45.2909 53.4445 45.5019C53.7427 45.5862 53.9845 45.8056 54.097 46.0939L55.087 48.6505H57.1444L58.1344 46.0939C58.2469 45.8042 58.4873 45.5848 58.7869 45.5019C59.5364 45.2923 60.262 44.9914 60.9441 44.6075C61.2141 44.4556 61.5403 44.4402 61.8244 44.5653L64.3345 45.6748L65.7886 44.2208L64.6805 41.712C64.5553 41.428 64.5708 41.1017 64.7227 40.8317C65.1052 40.1511 65.4061 39.4255 65.617 38.6745C65.7014 38.3764 65.9208 38.1345 66.2091 38.022L68.7656 37.032V34.9747V34.9719ZM62.4825 35.9998C62.4825 39.5112 59.6264 42.3673 56.115 42.3673C52.6036 42.3673 49.7475 39.5112 49.7475 35.9998C49.7475 32.4884 52.6036 29.6323 56.115 29.6323C59.6264 29.6323 62.4825 32.4884 62.4825 35.9998ZM60.5137 35.9998C60.5137 33.5741 58.5408 31.6011 56.115 31.6011C53.6892 31.6011 51.7162 33.5741 51.7162 35.9998C51.7162 38.4256 53.6892 40.3986 56.115 40.3986C58.5408 40.3986 60.5137 38.4256 60.5137 35.9998ZM30.0136 15.598H55.0181V17.0998C55.0181 17.6441 55.4583 18.0842 56.0025 18.0842C56.5467 18.0842 56.9869 17.6441 56.9869 17.0998V14.6136C56.9869 14.0694 56.5467 13.6292 56.0025 13.6292H30.0136C29.4694 13.6292 29.0292 14.0694 29.0292 14.6136C29.0292 15.1578 29.4694 15.598 30.0136 15.598ZM56.0025 52.7258C55.4583 52.7258 55.0181 53.1659 55.0181 53.7102V55.212H42.217C41.6728 55.212 41.2327 55.6522 41.2327 56.1964C41.2327 56.7406 41.6728 57.1808 42.217 57.1808H56.0025C56.5467 57.1808 56.9869 56.7406 56.9869 56.1964V53.7102C56.9869 53.1659 56.5467 52.7258 56.0025 52.7258Z" fill="white"/>
<path d="M70.7331 34.2964V37.7023C70.7331 38.1087 70.4828 38.473 70.1045 38.6206L67.3652 39.6809C67.1781 40.2547 66.9461 40.813 66.6733 41.3502L67.8616 44.0375C68.0261 44.4087 67.9445 44.8433 67.6577 45.1316L65.2488 47.5405C64.9619 47.8273 64.5259 47.9089 64.1547 47.7444L61.4673 46.5561C60.9288 46.8289 60.3705 47.0609 59.7981 47.248L58.7378 49.9873C58.5916 50.367 58.2259 50.6159 57.8195 50.6159H54.4136C54.0072 50.6159 53.643 50.3656 53.4953 49.9873L52.435 47.248C51.8627 47.0609 51.303 46.8289 50.7658 46.5561L48.0784 47.7444C47.7072 47.9089 47.2727 47.8273 46.9844 47.5405L44.5755 45.1316C44.2886 44.8447 44.207 44.4102 44.3716 44.0375L45.5598 41.3502C45.287 40.8116 45.055 40.2533 44.868 39.6809L42.1286 38.6206C41.7489 38.4744 41.5 38.1087 41.5 37.7023V34.2964C41.5 33.89 41.7503 33.5258 42.1286 33.3781L44.868 32.3178C45.055 31.7441 45.287 31.1858 45.5598 30.6486L44.3716 27.9612C44.207 27.59 44.2886 27.1555 44.5755 26.8672L46.9844 24.4583C47.2713 24.1714 47.7072 24.0898 48.0784 24.2544L50.7672 25.4427C51.3058 25.1698 51.8641 24.9378 52.4364 24.7508L53.4967 22.0114C53.643 21.6317 54.0086 21.3828 54.415 21.3828H57.8209C58.2273 21.3828 58.5916 21.6331 58.7392 22.0114L59.7995 24.7508C60.3719 24.9378 60.9316 25.1698 61.4688 25.4427L64.1561 24.2544C64.5273 24.0898 64.9633 24.1714 65.2502 24.4583L67.6591 26.8672C67.9459 27.1541 68.0275 27.5886 67.863 27.9612L66.6747 30.6486C66.9475 31.1872 67.1795 31.7455 67.3666 32.3178L70.1059 33.3781C70.4856 33.5244 70.7345 33.89 70.7345 34.2964H70.7331ZM68.7644 34.9714L66.2078 33.9814C65.9181 33.8689 65.6988 33.6284 65.6158 33.3289C65.4048 32.5794 65.1039 31.8537 64.7214 31.1717C64.5695 30.9017 64.5541 30.5755 64.6792 30.2914L65.7873 27.7827L64.3333 26.3286L61.8245 27.4381C61.5405 27.5633 61.2142 27.5478 60.9442 27.3959C60.2636 27.0134 59.538 26.7125 58.787 26.5016C58.4889 26.4172 58.247 26.1978 58.1345 25.9095L57.1445 23.353H55.0872L54.0972 25.9095C53.9847 26.1992 53.7442 26.4186 53.4447 26.5016C52.6952 26.7125 51.9695 27.0134 51.2875 27.3959C51.0175 27.5478 50.6913 27.5633 50.4072 27.4381L47.897 26.3286L46.443 27.7827L47.5511 30.2914C47.6763 30.5755 47.6608 30.9017 47.5089 31.1717C47.1264 31.8523 46.8255 32.578 46.6145 33.3289C46.5302 33.627 46.3108 33.8689 46.0225 33.9814L43.4659 34.9714V37.0287L46.0239 38.0187C46.3136 38.1312 46.533 38.3717 46.6159 38.6712C46.8255 39.4208 47.1264 40.1464 47.5103 40.8284C47.6622 41.0984 47.6777 41.4247 47.5525 41.7087L46.443 44.2189L47.897 45.673L50.4058 44.5648C50.6898 44.4397 51.0161 44.4552 51.2861 44.607C51.9667 44.9895 52.6923 45.2905 53.4433 45.5014C53.7414 45.5858 53.9833 45.8052 54.0958 46.0934L55.0858 48.65H57.1431L58.1331 46.0934C58.2456 45.8037 58.4861 45.5844 58.7856 45.5014C59.5352 45.2919 60.2608 44.9909 60.9428 44.607C61.2128 44.4552 61.5391 44.4397 61.8231 44.5648L64.3333 45.6744L65.7873 44.2203L64.6792 41.7116C64.5541 41.4275 64.5695 41.1012 64.7214 40.8312C65.1039 40.1506 65.4048 39.425 65.6158 38.6741C65.7002 38.3759 65.9195 38.1341 66.2078 38.0216L68.7644 37.0316V34.9742V34.9714ZM62.4813 35.9994C62.4813 39.5108 59.6252 42.3669 56.1137 42.3669C52.6023 42.3669 49.7463 39.5108 49.7463 35.9994C49.7463 32.488 52.6023 29.6319 56.1137 29.6319C59.6252 29.6319 62.4813 32.488 62.4813 35.9994ZM60.5125 35.9994C60.5125 33.5736 58.5395 31.6006 56.1137 31.6006C53.688 31.6006 51.715 33.5736 51.715 35.9994C51.715 38.4252 53.688 40.3981 56.1137 40.3981C58.5395 40.3981 60.5125 38.4252 60.5125 35.9994Z" fill="#E6B400"/>
</svg>
