<svg width="72" height="72" viewBox="0 0 72 72" fill="none" xmlns="http://www.w3.org/2000/svg">
<path d="M63 39.2656V37.0156C63.621 37.0156 64.125 36.512 64.125 35.8906V29.1406C64.125 28.5192 63.621 28.0156 63 28.0156H56.925L56.707 27.1706C56.2096 25.2378 55.437 23.3864 54.4118 21.6739L53.9618 20.9211L58.275 16.6004C58.7092 16.1653 58.7092 15.4605 58.275 15.0254L53.4973 10.2406C53.0561 9.82007 52.363 9.82007 51.9218 10.2406L47.6007 14.5618L46.8483 14.1118C45.1332 13.0861 43.28 12.3135 41.3446 11.8156L40.5 11.5959V5.51563C40.5 4.89424 39.9964 4.39063 39.375 4.39063H32.625C32.0036 4.39063 31.5 4.89424 31.5 5.51563V11.5906L30.6549 11.809C28.7222 12.3061 26.8708 13.0786 25.1574 14.1025L24.4046 14.553L20.0848 10.2406C19.6431 9.81655 18.9457 9.81655 18.5041 10.2406L13.725 15.0184C13.5149 15.228 13.3967 15.5127 13.3967 15.8094C13.3967 16.1064 13.5149 16.3908 13.725 16.6004L18.0461 20.9211L17.5961 21.6739C16.5713 23.3864 15.7983 25.2378 15.3013 27.1706L15.0807 28.0156H9C8.37861 28.0156 7.875 28.5192 7.875 29.1406V35.8906C7.875 36.512 8.37861 37.0156 9 37.0156V39.2656C7.13628 39.2656 5.625 37.7543 5.625 35.8906V29.1406C5.625 27.2769 7.13628 25.7656 9 25.7656H13.3528C13.8168 24.21 14.4444 22.7079 15.2249 21.285L12.1311 18.1912C11.4983 17.5597 11.1428 16.7028 11.1428 15.8094C11.1428 14.916 11.4983 14.059 12.1311 13.428L16.9124 8.64673C18.2443 7.37188 20.3445 7.37188 21.6765 8.64673L24.7693 11.7392C26.1923 10.9591 27.6948 10.3329 29.25 9.86929V5.51563C29.25 3.6519 30.7613 2.14062 32.625 2.14062H39.375C41.2387 2.14062 42.75 3.6519 42.75 5.51563V9.86929C44.3057 10.3329 45.8073 10.9605 47.2307 11.7405L50.3244 8.64673C51.6568 7.37188 53.7565 7.37188 55.089 8.64673L59.8693 13.4267C60.5017 14.0582 60.8568 14.9142 60.8568 15.8081C60.8568 16.7019 60.5017 17.5588 59.8693 18.1899L56.7756 21.2836C57.5556 22.7075 58.1827 24.21 58.6472 25.7656H63C64.8637 25.7656 66.375 27.2769 66.375 29.1406V35.8906C66.375 37.7543 64.8637 39.2656 63 39.2656Z" fill="#E6B400"/>
<path d="M51.75 32.5156H49.5C49.5 25.0599 43.4558 19.0156 36 19.0156C28.5442 19.0156 22.5 25.0599 22.5 32.5156H20.25C20.25 23.8171 27.3015 16.7656 36 16.7656C44.6981 16.7656 51.75 23.8171 51.75 32.5156Z" fill="#E6B400"/>
<path d="M36 41.5156C32.2721 41.5156 29.25 38.4931 29.25 34.7656C29.25 31.0377 32.2721 28.0156 36 28.0156C39.7283 28.0156 42.75 31.0377 42.75 34.7656C42.746 38.4922 39.7266 41.5117 36 41.5156ZM36 30.2656C33.5149 30.2656 31.5 32.2805 31.5 34.7656C31.5 37.2507 33.5149 39.2656 36 39.2656C38.4851 39.2656 40.5 37.2507 40.5 34.7656C40.5 32.2805 38.4851 30.2656 36 30.2656Z" fill="white"/>
<path d="M55.125 46.0156C51.3971 46.0156 48.375 42.9931 48.375 39.2656C48.375 35.5377 51.3971 32.5156 55.125 32.5156C58.8529 32.5156 61.875 35.5377 61.875 39.2656C61.871 42.9922 58.8516 46.0117 55.125 46.0156ZM55.125 34.7656C52.6399 34.7656 50.625 36.7805 50.625 39.2656C50.625 41.7507 52.6399 43.7656 55.125 43.7656C57.6101 43.7656 59.625 41.7507 59.625 39.2656C59.625 36.7805 57.6101 34.7656 55.125 34.7656Z" fill="white"/>
<path d="M16.875 46.0156C13.1471 46.0156 10.125 42.9931 10.125 39.2656C10.125 35.5377 13.1471 32.5156 16.875 32.5156C20.6033 32.5156 23.625 35.5377 23.625 39.2656C23.621 42.9922 20.6016 46.0117 16.875 46.0156ZM16.875 34.7656C14.3899 34.7656 12.375 36.7805 12.375 39.2656C12.375 41.7507 14.3899 43.7656 16.875 43.7656C19.3601 43.7656 21.375 41.7507 21.375 39.2656C21.375 36.7805 19.3601 34.7656 16.875 34.7656Z" fill="white"/>
<path d="M65.3238 48.902C63.6473 47.7498 61.6597 47.135 59.625 47.1407H50.625C50.0779 47.1455 49.5316 47.1952 48.9924 47.2888C48.2726 46.1629 47.3361 45.1917 46.2375 44.4301C46.0727 44.3058 45.8996 44.1928 45.7189 44.0931C44.1453 43.1399 42.3396 42.6381 40.5 42.6407H31.5C28.0595 42.6284 24.8537 44.384 23.0106 47.2888C22.4701 47.1952 21.923 47.1455 21.375 47.1407H12.375C10.3421 47.135 8.35488 47.7489 6.67925 48.8998C3.90981 50.7842 2.25176 53.9162 2.25 57.2657V61.7657C2.25396 64.8375 4.04121 67.6271 6.8313 68.9138C7.86138 69.399 8.98682 69.6473 10.125 69.6407H21.375V67.3907H11.25V55.0157H9V67.2778C8.57637 67.1929 8.16504 67.0558 7.77481 66.8708C5.78189 65.9519 4.50439 63.9599 4.5 61.7657V57.2657C4.50264 54.6589 5.79419 52.2221 7.94927 50.7561C9.25137 49.8622 10.7952 49.3863 12.375 49.3907H21.375C21.5732 49.3907 21.7644 49.4118 21.9577 49.425C21.5772 50.4981 21.3798 51.6275 21.375 52.7657V64.0157C21.379 67.1209 23.8953 69.6367 27 69.6407H30.375V51.6407H28.125V67.3907H27C25.1363 67.3907 23.625 65.8794 23.625 64.0157V52.7657C23.625 48.416 27.1512 44.8907 31.5 44.8907H40.5C41.9476 44.8916 43.3661 45.2923 44.6005 46.0482C44.7148 46.1106 44.8247 46.1809 44.9288 46.2583C45.9831 46.9803 46.8483 47.9449 47.4513 49.0708C48.0573 50.2081 48.375 51.4768 48.375 52.7657V64.0157C48.375 65.8794 46.8637 67.3907 45 67.3907H43.875V51.6407H41.625V69.6407H45C48.1052 69.6367 50.6211 67.1209 50.625 64.0157V52.7657C50.6197 51.6275 50.4233 50.4986 50.0432 49.425C50.237 49.4118 50.4281 49.3907 50.625 49.3907H59.625C61.2057 49.3863 62.7508 49.8635 64.0538 50.7583C66.2071 52.2252 67.4969 54.6602 67.5 57.2657V61.7657C67.4961 63.9678 66.2089 65.9655 64.2063 66.8796C63.8218 67.0615 63.4166 67.1951 63 67.2778V55.0157H60.75V67.3907H50.625V69.6407H61.875C63.0066 69.6477 64.1254 69.4025 65.1498 68.9226C67.9491 67.6399 69.7456 64.8449 69.75 61.7657V57.2657C69.7483 53.9175 68.0915 50.7868 65.3238 48.902Z" fill="white"/>
<path d="M31.5 67.3906H40.5V69.6406H31.5V67.3906Z" fill="white"/>
</svg>
