<svg width="72" height="72" viewBox="0 0 72 72" fill="none" xmlns="http://www.w3.org/2000/svg">
<path d="M26.5985 27.9362V25.9108C26.5985 25.4349 26.9835 25.0502 27.459 25.0502C27.9345 25.0502 28.3193 25.4349 28.3193 25.9108V27.9362C28.3193 28.4118 27.9345 28.7969 27.459 28.7969C26.9835 28.7969 26.5985 28.4118 26.5985 27.9362ZM34.9528 28.797C35.4286 28.797 35.8135 28.412 35.8135 27.9364V25.911C35.8135 25.4351 35.4286 25.0503 34.9528 25.0503C34.4772 25.0503 34.0924 25.4351 34.0924 25.911V27.9364C34.0923 28.4118 34.4772 28.797 34.9528 28.797ZM27.4591 36.6783C27.9346 36.6783 28.3195 36.2936 28.3195 35.8179V33.7929C28.3195 33.3171 27.9346 32.9321 27.4591 32.9321C26.9837 32.9321 26.5987 33.3171 26.5987 33.7929V35.8179C26.5985 36.2936 26.9837 36.6783 27.4591 36.6783ZM34.9528 36.6783C35.4286 36.6783 35.8135 36.2936 35.8135 35.8179V33.7929C35.8135 33.3171 35.4286 32.9321 34.9528 32.9321C34.4772 32.9321 34.0924 33.3171 34.0924 33.7929V35.8179C34.0923 36.2936 34.4772 36.6783 34.9528 36.6783ZM27.4591 44.5607C27.9346 44.5607 28.3195 44.1758 28.3195 43.7005V41.674C28.3195 41.1989 27.9346 40.8138 27.4591 40.8138C26.9837 40.8138 26.5987 41.1989 26.5987 41.674V43.7005C26.5985 44.1758 26.9837 44.5607 27.4591 44.5607ZM34.9528 44.5607C35.4286 44.5607 35.8135 44.1758 35.8135 43.7005V41.674C35.8135 41.1989 35.4286 40.8138 34.9528 40.8138C34.4772 40.8138 34.0924 41.1989 34.0924 41.674V43.7005C34.0923 44.1758 34.4772 44.5607 34.9528 44.5607ZM53.1892 34.7055C54.5961 33.6015 56.3746 33.1848 58.0778 33.4694L57.7904 33.5911C57.3529 33.7765 57.1482 34.2811 57.3334 34.719C57.4726 35.0475 57.7912 35.2447 58.1266 35.2447C58.2384 35.2447 58.3522 35.2226 58.4615 35.1759L60.7742 34.1969C60.9851 34.1073 61.152 33.9377 61.2375 33.7251C61.2478 33.6991 61.2451 33.6709 61.2524 33.6441C61.2783 33.5687 61.2914 33.4916 61.2955 33.4144C61.2955 33.4011 61.296 33.3887 61.2955 33.3751C61.296 33.2139 61.2516 33.0561 61.1674 32.9189L60.2332 30.7523C60.0449 30.3159 59.5408 30.1142 59.1017 30.302C58.665 30.4904 58.464 30.9965 58.6516 31.4335L58.8344 31.8574C56.5225 31.326 54.0519 31.8404 52.1283 33.35C49.0472 35.7513 48.1707 39.9934 50.0451 43.4369C50.2007 43.7238 50.4969 43.8862 50.8015 43.8862C50.9404 43.8862 51.0819 43.8523 51.2127 43.781C51.6302 43.5536 51.784 43.0311 51.5568 42.6136C50.0875 39.9137 50.7729 36.589 53.1892 34.7055ZM62.8789 35.4673C62.4613 35.6947 62.3074 36.2175 62.5345 36.6349C64.0046 39.3347 63.3192 42.6595 60.9027 44.5422C59.4975 45.6456 57.7216 46.0618 56.0204 45.7789L56.3086 45.6536C56.7449 45.4647 56.9448 44.9578 56.7557 44.5217C56.5665 44.086 56.0609 43.8842 55.6235 44.0744L53.3281 45.0704C53.2538 45.1026 53.1894 45.1468 53.1292 45.1956C53.1165 45.206 53.1042 45.2169 53.092 45.2275C53.0712 45.2476 53.0501 45.2662 53.031 45.2874C52.9803 45.341 52.9332 45.3992 52.8965 45.4674C52.7359 45.7636 52.7708 46.1108 52.9519 46.3695L53.8574 48.4935C53.9972 48.82 54.3156 49.0171 54.6502 49.0171C54.7626 49.0171 54.8769 48.9944 54.9875 48.9476C55.4248 48.761 55.6276 48.2553 55.4415 47.8182L55.2579 47.3871C55.8468 47.5226 56.4455 47.598 57.0438 47.598C58.7928 47.598 60.5302 47.023 61.9629 45.898C65.0452 43.4972 65.9215 39.255 64.0461 35.8114C63.8197 35.3947 63.2967 35.2395 62.8789 35.4673ZM71.1551 38.5695V40.6791C71.1551 41.3827 70.7608 41.9997 70.1506 42.2509L69.023 42.6853C68.7409 43.8073 68.2881 44.8948 67.6717 45.9274L68.1616 47.0299C68.4253 47.6329 68.2684 48.345 67.764 48.8493L66.9361 49.6773V63.4975C66.9361 63.9734 66.5512 64.3581 66.0757 64.3581H3.83048C3.35503 64.3581 2.97 63.9734 2.97 63.4975V38.8898H1.70423C1.22864 38.8898 0.84375 38.5051 0.84375 38.0292V33.8602C0.84375 33.3848 1.22864 32.9995 1.70423 32.9995H20.7591V15.7505C20.7591 15.2748 21.1438 14.8899 21.6197 14.8899H26.8352V13.2692C26.8352 12.7933 27.2202 12.4087 27.6955 12.4087H31.6112V8.4933C31.6112 8.01728 31.9961 7.63281 32.4719 7.63281H37.4339C37.9097 7.63281 38.2943 8.01728 38.2943 8.4933V12.4087H42.2107C42.6862 12.4087 43.0712 12.7933 43.0712 13.2692V14.8899H48.286C48.7619 14.8899 49.1468 15.2748 49.1468 15.7505V28.3972C49.3182 28.4086 49.4869 28.4463 49.6439 28.5148L50.7322 28.9921C51.7397 28.3936 52.8327 27.9417 53.9921 27.6429L54.4193 26.5306C54.6455 25.93 55.2745 25.5231 55.9828 25.5231H58.1092C58.8187 25.5231 59.4475 25.9304 59.6745 26.5375L60.1 27.6429C61.2588 27.9417 62.3519 28.3936 63.3594 28.9921L64.4474 28.5148C65.0512 28.2507 65.8155 28.4186 66.2827 28.9185L67.764 30.3993C68.2602 30.8947 68.4207 31.6068 68.1712 32.2131L67.6728 33.3223C68.29 34.3559 68.7428 35.4446 69.0241 36.5681L70.1387 37.0088C70.7351 37.2189 71.1551 37.8499 71.1551 38.5695ZM28.5563 17.3878H32.4719C32.9473 17.3878 33.3323 17.7724 33.3323 18.2482V22.1471H36.5735V18.2482C36.5735 17.7724 36.9581 17.3878 37.4339 17.3878H41.3501V14.1295H37.4339C36.9581 14.1295 36.5735 13.7448 36.5735 13.2692V9.35364H33.3323V13.2692C33.3323 13.7448 32.9473 14.1295 32.4719 14.1295H28.5563V17.3878ZM22.4799 62.6372H29.89V55.1258H28.8096C28.3338 55.1258 27.9494 54.7408 27.9494 54.2653C27.9494 53.7896 28.3338 53.4047 28.8096 53.4047H41.0962C41.572 53.4047 41.9569 53.7896 41.9569 54.2653C41.9569 54.7408 41.572 55.1258 41.0962 55.1258H40.0158V62.6372H47.4255V49.9465L46.3269 48.849C45.8235 48.3439 45.6671 47.6322 45.9273 47.035L46.42 45.9272C45.8039 44.8946 45.3504 43.8075 45.0688 42.6851L43.9598 42.2588C43.6957 42.1499 43.4766 41.9757 43.3067 41.7611V43.7005C43.3067 44.1758 42.9218 44.5607 42.446 44.5607C41.9705 44.5607 41.5859 44.1758 41.5859 43.7005V41.674C41.5859 41.1989 41.9705 40.8138 42.446 40.8138C42.6421 40.8138 42.8207 40.8819 42.9653 40.9926C42.9483 40.8901 42.9362 40.7857 42.9362 40.6791V38.5695C42.9362 37.85 43.3562 37.2189 43.9824 36.9978L45.0667 36.5681C45.3486 35.4441 45.802 34.3559 46.4188 33.3223L45.9311 32.2385C45.6713 31.6074 45.8307 30.8954 46.3267 30.3993L47.4252 29.3012V16.6109H43.0706V18.2482C43.0706 18.7238 42.6856 19.1087 42.2101 19.1087H38.2937V23.0079C38.2937 23.4838 37.9091 23.8685 37.4334 23.8685H32.4713C31.9956 23.8685 31.6107 23.4838 31.6107 23.0079V19.1087H27.6955C27.2202 19.1087 26.8352 18.7238 26.8352 18.2482V16.6109H22.4799V62.6372ZM49.1468 62.6372H56.3204V53.7248H55.983C55.2746 53.7248 54.6456 53.3176 54.4174 52.7114L53.9923 51.6047C52.8335 51.3076 51.7399 50.8549 50.7323 50.2567L49.6446 50.7334C49.5117 50.8009 49.3327 50.8404 49.1469 50.8559V62.6372H49.1468ZM31.6112 55.1258V62.6372H38.2947V55.1258H31.6112ZM13.5855 38.8898V62.6372H20.7591V38.8898H13.5855ZM2.56472 37.1687H20.7591V34.7207H2.56472V37.1687ZM4.69111 62.6372H11.8645V38.8898H4.69111V62.6372ZM65.2153 62.6372V50.8491C64.9367 50.8764 64.6547 50.8382 64.4084 50.7147L63.3597 50.2567C62.352 50.8549 61.2591 51.3067 60.1002 51.6047L59.6722 52.7177C59.4475 53.3175 58.8188 53.7248 58.1093 53.7248H58.0418V62.6372H65.2153ZM69.4343 38.5811L67.9701 38.0027C67.7004 37.8956 67.5027 37.6605 67.4433 37.376C67.1896 36.1514 66.6967 34.9665 65.9774 33.8552C65.8185 33.6099 65.7953 33.3011 65.9152 33.0347L66.5484 31.6254L65.0576 30.1275L63.636 30.7506C63.3715 30.8655 63.0654 30.8417 62.8231 30.6846C61.7525 29.9919 60.559 29.4979 59.2746 29.2158C58.9925 29.1535 58.76 28.9544 58.656 28.6847L58.1043 27.2487L55.9896 27.2442L55.4363 28.6838C55.3324 28.9535 55.1004 29.1535 54.8177 29.2158C53.5333 29.4979 52.3392 29.992 51.2686 30.6846C51.0255 30.8417 50.7199 30.8655 50.4561 30.7506L49.0127 30.118L49.0103 30.1202C48.9457 30.2218 48.8607 30.3089 48.7606 30.3757L47.545 31.6171C47.5429 31.6185 47.5421 31.6195 47.541 31.6205L48.177 33.0349C48.2967 33.3012 48.2736 33.61 48.115 33.8553C47.3962 34.9664 46.9028 36.1516 46.648 37.3771C46.5891 37.6607 46.3915 37.8957 46.122 38.0029L44.6607 38.5807L44.6573 40.6793V40.6826L46.1144 41.2426C46.3873 41.3477 46.5884 41.5845 46.648 41.8709C46.9028 43.0966 47.3961 44.2818 48.115 45.3932C48.2729 45.637 48.2967 45.9437 48.179 46.2099L47.5487 47.628L49.0359 49.1218L50.4561 48.4983C50.7199 48.3828 51.0256 48.4066 51.2686 48.564C52.3395 49.2567 53.5333 49.751 54.8174 50.0324C55.0997 50.0944 55.3324 50.2942 55.4363 50.5641L55.9877 51.9983L58.1025 52.0039L58.656 50.5634C58.76 50.2942 58.9926 50.0944 59.2753 50.0324C60.5583 49.751 61.7519 49.2565 62.8231 48.564C63.0655 48.4066 63.3715 48.3828 63.636 48.4983L65.0849 49.1334L65.3511 48.8608C65.4151 48.7585 65.5003 48.6706 65.601 48.6038L66.5463 47.6329L65.9137 46.2099C65.7955 45.9437 65.8194 45.6371 65.9776 45.3932C66.6969 44.2812 67.1898 43.0966 67.4435 41.8719C67.5034 41.5845 67.7043 41.3477 67.9778 41.2426L69.4295 40.6842L69.4343 38.5811ZM42.4464 28.797C42.9223 28.797 43.3072 28.412 43.3072 27.9364V25.911C43.3072 25.4351 42.9223 25.0503 42.4464 25.0503C41.9709 25.0503 41.5863 25.4351 41.5863 25.911V27.9364C41.5863 28.4118 41.9709 28.797 42.4464 28.797ZM42.4464 36.6783C42.9223 36.6783 43.3072 36.2936 43.3072 35.8179V33.7929C43.3072 33.3171 42.9223 32.9321 42.4464 32.9321C41.9709 32.9321 41.5863 33.3171 41.5863 33.7929V35.8179C41.5863 36.2936 41.9709 36.6783 42.4464 36.6783Z" fill="white"/>
<path fill-rule="evenodd" clip-rule="evenodd" d="M28.3186 35.8179C28.3186 36.2936 27.9337 36.6783 27.4583 36.6783C26.9828 36.6783 26.5977 36.2936 26.5978 35.8179V33.7929C26.5978 33.3171 26.9828 32.9321 27.4583 32.9321C27.9337 32.9321 28.3186 33.3171 28.3186 33.7929V35.8179ZM35.8127 35.8179C35.8127 36.2936 35.4278 36.6783 34.9519 36.6783C34.4763 36.6783 34.0914 36.2936 34.0916 35.8179V33.7929C34.0916 33.3171 34.4763 32.9321 34.9519 32.9321C35.4278 32.9321 35.8127 33.3171 35.8127 33.7929V35.8179ZM28.3186 43.7005C28.3186 44.1758 27.9337 44.5607 27.4583 44.5607C26.9828 44.5607 26.5977 44.1758 26.5978 43.7005V41.674C26.5978 41.1989 26.9828 40.8138 27.4583 40.8138C27.9337 40.8138 28.3186 41.1989 28.3186 41.674V43.7005ZM35.8127 43.7005C35.8127 44.1758 35.4278 44.5607 34.9519 44.5607C34.4763 44.5607 34.0914 44.1758 34.0916 43.7005V41.674C34.0916 41.1989 34.4763 40.8138 34.9519 40.8138C35.4278 40.8138 35.8127 41.1989 35.8127 41.674V43.7005ZM58.077 33.4694C56.3737 33.1848 54.5953 33.6015 53.1883 34.7055C50.7721 36.589 50.0867 39.9137 51.5559 42.6136C51.7832 43.0311 51.6293 43.5536 51.2118 43.781C51.081 43.8523 50.9396 43.8862 50.8006 43.8862C50.496 43.8862 50.1999 43.7238 50.0442 43.4369C48.1698 39.9934 49.0463 35.7513 52.1274 33.35C54.051 31.8404 56.5217 31.326 58.8335 31.8574L58.6507 31.4335C58.4631 30.9965 58.6641 30.4904 59.1009 30.302C59.5399 30.1142 60.0441 30.3159 60.2323 30.7523L61.1665 32.9189C61.2508 33.0561 61.2952 33.2139 61.2946 33.3751C61.2952 33.3887 61.2946 33.4011 61.2946 33.4144C61.2906 33.4916 61.2775 33.5687 61.2516 33.6441C61.2484 33.6558 61.2471 33.6677 61.2458 33.6795C61.2442 33.695 61.2425 33.7104 61.2367 33.7251C61.1512 33.9377 60.9843 34.1073 60.7733 34.1969L58.4606 35.1759C58.3513 35.2226 58.2376 35.2447 58.1258 35.2447C57.7904 35.2447 57.4717 35.0475 57.3325 34.719C57.1473 34.2811 57.3521 33.7765 57.7896 33.5911L58.077 33.4694ZM62.5337 36.6349C62.3066 36.2175 62.4604 35.6947 62.8781 35.4673C63.2959 35.2395 63.8188 35.3947 64.0453 35.8114C65.9206 39.255 65.0444 43.4972 61.962 45.898C60.5293 47.023 58.7919 47.598 57.043 47.598C56.4446 47.598 55.846 47.5226 55.257 47.3871L55.4407 47.8182C55.6267 48.2553 55.424 48.761 54.9866 48.9476C54.8761 48.9944 54.7618 49.0171 54.6494 49.0171C54.3147 49.0171 53.9963 48.82 53.8566 48.4935L52.9511 46.3695C52.7699 46.1108 52.7351 45.7636 52.8957 45.4674C52.9324 45.3992 52.9795 45.341 53.0301 45.2874C53.0438 45.2722 53.0584 45.2584 53.0733 45.2445C53.0792 45.2389 53.0852 45.2332 53.0911 45.2275C53.1034 45.2169 53.1156 45.206 53.1284 45.1956C53.1886 45.1468 53.253 45.1026 53.3272 45.0704L55.6227 44.0744C56.06 43.8842 56.5657 44.086 56.7548 44.5217C56.944 44.9578 56.744 45.4647 56.3078 45.6536L56.0195 45.7789C57.7208 46.0618 59.4966 45.6456 60.9019 44.5422C63.3184 42.6595 64.0038 39.3347 62.5337 36.6349Z" fill="#E6B400"/>
<path fill-rule="evenodd" clip-rule="evenodd" d="M26.8343 14.8899V13.2692C26.8343 12.7933 27.2194 12.4087 27.6947 12.4087H31.6104V8.4933C31.6104 8.01728 31.9953 7.63281 32.471 7.63281H37.4331C37.9088 7.63281 38.2934 8.01728 38.2934 8.4933V12.4087H42.2098C42.6853 12.4087 43.0703 12.7933 43.0703 13.2692V14.8899L43.0698 16.6109V18.2482C43.0698 18.7238 42.6847 19.1087 42.2093 19.1087H38.2929V23.0079C38.2929 23.4838 37.9083 23.8685 37.4325 23.8685H32.4704C31.9947 23.8685 31.6098 23.4838 31.6098 23.0079V19.1087H27.6947C27.2194 19.1087 26.8343 18.7238 26.8343 18.2482V16.6109V14.8899ZM32.471 17.3878H28.5554V14.1295H32.471C32.9465 14.1295 33.3315 13.7448 33.3315 13.2692V9.35364H36.5726V13.2692C36.5726 13.7448 36.9572 14.1295 37.4331 14.1295H41.3492V17.3878H37.4331C36.9572 17.3878 36.5726 17.7724 36.5726 18.2482V22.1471H33.3315V18.2482C33.3315 17.7724 32.9465 17.3878 32.471 17.3878Z" fill="#E6B400"/>
</svg>
