<svg width="96" height="96" viewBox="0 0 96 96" fill="none" xmlns="http://www.w3.org/2000/svg">
<path d="M6.7725 50.9712C12.0188 50.5681 17.3175 51.5187 22.095 53.7219C22.7531 54.0256 23.04 54.8056 22.7381 55.4637C22.5169 55.9437 22.0425 56.2269 21.5456 56.2269C21.3619 56.2269 21.1744 56.1875 20.9963 56.105C16.6238 54.0894 11.775 53.2175 6.975 53.5887C6.255 53.6431 5.62125 53.1031 5.565 52.3812C5.50875 51.6594 6.05063 51.0275 6.7725 50.9712ZM22.095 60.2487C17.3175 58.0456 12.0188 57.095 6.7725 57.4981C6.05063 57.5544 5.50875 58.1844 5.565 58.9081C5.62125 59.63 6.25313 60.17 6.975 60.1156C11.775 59.7463 16.6238 60.6162 20.9963 62.6319C21.1744 62.7144 21.3619 62.7537 21.5456 62.7537C22.0425 62.7537 22.5169 62.4706 22.7381 61.9906C23.0419 61.3325 22.7531 60.5525 22.095 60.2487ZM22.095 66.7756C17.3175 64.5725 12.0188 63.6219 6.7725 64.025C6.05063 64.0812 5.50875 64.7112 5.565 65.435C5.62125 66.1587 6.25313 66.6987 6.975 66.6425C11.775 66.2731 16.6238 67.1431 20.9963 69.1587C21.1744 69.2412 21.3619 69.2806 21.5456 69.2806C22.0425 69.2806 22.5169 68.9975 22.7381 68.5175C23.0419 67.8594 22.7531 67.0794 22.095 66.7756ZM22.095 73.3025C17.3175 71.0994 12.0188 70.1488 6.7725 70.5519C6.05063 70.6081 5.50875 71.2381 5.565 71.9619C5.62125 72.6856 6.25313 73.2237 6.975 73.1694C11.775 72.8 16.6238 73.67 20.9963 75.6856C21.1744 75.7681 21.3619 75.8075 21.5456 75.8075C22.0425 75.8075 22.5169 75.5244 22.7381 75.0444C23.0419 74.3862 22.7531 73.6062 22.095 73.3025ZM50.115 45.6575V79.2856C50.115 79.6887 49.9294 80.0694 49.6144 80.3169C49.2975 80.5662 48.885 80.6562 48.4931 80.5606C42.6094 79.1319 35.1431 79.8331 26.2988 82.6475C26.1694 82.6887 26.0363 82.7094 25.9013 82.7094C25.7663 82.7094 25.6331 82.6887 25.5038 82.6475C16.6594 79.8331 9.19313 79.13 3.30938 80.5606C2.9175 80.6562 2.505 80.5662 2.18813 80.3169C1.87125 80.0675 1.6875 79.6869 1.6875 79.2856V45.6575C1.6875 44.9994 2.175 44.4444 2.8275 44.3562C4.77 44.0975 6.69188 43.9737 8.59313 43.9831V43.9381C8.59313 37.4431 13.2713 32.0225 19.4325 30.86C17.2875 29.0281 15.9244 26.3075 15.9244 23.2737C15.9244 17.7725 20.4 13.2969 25.9013 13.2969C31.4025 13.2969 35.8781 17.7725 35.8781 23.2737C35.8781 26.3075 34.515 29.0281 32.37 30.86C38.5331 32.0225 43.2094 37.4412 43.2094 43.9381V43.9831C45.1106 43.9737 47.0325 44.0975 48.975 44.3562C49.6275 44.4425 50.115 44.9994 50.115 45.6575ZM25.9013 30.6275C29.955 30.6275 33.2531 27.3294 33.2531 23.2756C33.2531 19.2219 29.955 15.9238 25.9013 15.9238C21.8475 15.9238 18.5494 19.2219 18.5494 23.2756C18.5494 27.3294 21.8475 30.6275 25.9013 30.6275ZM11.2163 44.0806C16.3013 44.4387 21.2156 45.7719 25.9013 48.0744C30.5869 45.7738 35.5013 44.4387 40.5863 44.0806V43.94C40.5863 38.0487 35.7919 33.2544 29.9006 33.2544H21.9019C16.0106 33.2544 11.2163 38.0487 11.2163 43.94V44.0806ZM24.5888 50.3525C18.2269 47.2625 11.415 46.0775 4.3125 46.8237V77.6712C6.0225 77.3694 7.83938 77.2194 9.75563 77.2194C14.1788 77.2194 19.1381 78.0219 24.5906 79.625V50.3544L24.5888 50.3525ZM47.49 46.8237C40.3894 46.0794 33.5756 47.2644 27.2138 50.3544V79.625C35.0269 77.33 41.8313 76.6737 47.49 77.6731V46.8256V46.8237ZM29.7075 53.7238C29.0494 54.0275 28.7625 54.8075 29.0644 55.4656C29.2856 55.9456 29.76 56.2287 30.2569 56.2287C30.4406 56.2287 30.6281 56.1894 30.8063 56.1069C35.1788 54.0912 40.0275 53.2194 44.8275 53.5906C45.5475 53.6412 46.1813 53.105 46.2375 52.3831C46.2938 51.6612 45.7519 51.0294 45.03 50.9731C39.7838 50.57 34.485 51.5206 29.7075 53.7238ZM45.03 57.5C39.7838 57.0969 34.485 58.0475 29.7075 60.2506C29.0494 60.5544 28.7625 61.3344 29.0644 61.9925C29.2856 62.4725 29.76 62.7556 30.2569 62.7556C30.4406 62.7556 30.6281 62.7162 30.8063 62.6337C35.1788 60.6181 40.0275 59.7462 44.8275 60.1175C45.5475 60.1719 46.1813 59.6319 46.2375 58.91C46.2938 58.1881 45.7519 57.5562 45.03 57.5ZM45.03 64.0269C39.7838 63.6237 34.485 64.5744 29.7075 66.7775C29.0494 67.0812 28.7625 67.8612 29.0644 68.5194C29.2856 68.9994 29.76 69.2825 30.2569 69.2825C30.4406 69.2825 30.6281 69.2431 30.8063 69.1606C35.1788 67.145 40.0275 66.2731 44.8275 66.6444C45.5475 66.6969 46.1813 66.1587 46.2375 65.4369C46.2938 64.715 45.7519 64.0831 45.03 64.0269ZM45.03 70.5537C39.7838 70.1506 34.485 71.1012 29.7075 73.3044C29.0494 73.6081 28.7625 74.3881 29.0644 75.0462C29.2856 75.5262 29.76 75.8094 30.2569 75.8094C30.4406 75.8094 30.6281 75.77 30.8063 75.6875C35.1788 73.6719 40.0275 72.8 44.8275 73.1712C45.5475 73.2256 46.1813 72.6856 46.2375 71.9637C46.2938 71.2419 45.7519 70.61 45.03 70.5537ZM94.3125 45.7344V50.2756C94.3125 50.8175 93.9788 51.3031 93.4744 51.5L89.8219 52.9137C89.5725 53.6787 89.2631 54.4231 88.8994 55.1394L90.4838 58.7225C90.7031 59.2175 90.5944 59.7969 90.2119 60.1813L87 63.3931C86.6175 63.7756 86.0363 63.8844 85.5413 63.665L81.9581 62.0806C81.24 62.4444 80.4956 62.7537 79.7325 63.0031L78.3188 66.6556C78.1238 67.1619 77.6363 67.4937 77.0944 67.4937H72.5531C72.0113 67.4937 71.5256 67.16 71.3288 66.6556L69.915 63.0031C69.1519 62.7537 68.4056 62.4444 67.6894 62.0806L64.1063 63.665C63.6113 63.8844 63.0319 63.7756 62.6475 63.3931L59.4356 60.1813C59.0531 59.7987 58.9444 59.2194 59.1637 58.7225L60.7481 55.1394C60.3844 54.4212 60.075 53.6769 59.8256 52.9137L56.1731 51.5C55.6669 51.305 55.335 50.8175 55.335 50.2756V45.7344C55.335 45.1925 55.6688 44.7069 56.1731 44.51L59.8256 43.0962C60.075 42.3312 60.3844 41.5869 60.7481 40.8706L59.1637 37.2875C58.9444 36.7925 59.0531 36.2131 59.4356 35.8287L62.6475 32.6169C63.03 32.2344 63.6113 32.1256 64.1063 32.345L67.6913 33.9294C68.4094 33.5656 69.1538 33.2562 69.9169 33.0069L71.3306 29.3544C71.5256 28.8481 72.0131 28.5162 72.555 28.5162H77.0963C77.6381 28.5162 78.1238 28.85 78.3206 29.3544L79.7344 33.0069C80.4975 33.2562 81.2438 33.5656 81.96 33.9294L85.5431 32.345C86.0381 32.1256 86.6194 32.2344 87.0019 32.6169L90.2138 35.8287C90.5963 36.2112 90.705 36.7906 90.4856 37.2875L88.9013 40.8706C89.265 41.5887 89.5744 42.3331 89.8238 43.0962L93.4762 44.51C93.9825 44.705 94.3144 45.1925 94.3144 45.7344H94.3125ZM91.6875 46.6344L88.2788 45.3144C87.8925 45.1644 87.6 44.8437 87.4894 44.4444C87.2081 43.445 86.8069 42.4775 86.2969 41.5681C86.0944 41.2081 86.0738 40.7731 86.2406 40.3944L87.7181 37.0494L85.7794 35.1106L82.4344 36.59C82.0556 36.7569 81.6206 36.7362 81.2606 36.5337C80.3531 36.0237 79.3856 35.6225 78.3844 35.3412C77.9869 35.2287 77.6644 34.9362 77.5144 34.5519L76.1944 31.1431H73.4513L72.1312 34.5519C71.9813 34.9381 71.6606 35.2306 71.2613 35.3412C70.2619 35.6225 69.2944 36.0237 68.385 36.5337C68.025 36.7362 67.59 36.7569 67.2113 36.59L63.8644 35.1106L61.9256 37.0494L63.4031 40.3944C63.57 40.7731 63.5494 41.2081 63.3469 41.5681C62.8369 42.4756 62.4356 43.4431 62.1544 44.4444C62.0419 44.8419 61.7494 45.1644 61.365 45.3144L57.9562 46.6344V49.3775L61.3669 50.6975C61.7531 50.8475 62.0456 51.1681 62.1563 51.5675C62.4356 52.5669 62.8369 53.5344 63.3488 54.4437C63.5513 54.8037 63.5719 55.2387 63.405 55.6175L61.9256 58.9644L63.8644 60.9031L67.2094 59.4256C67.5881 59.2588 68.0231 59.2794 68.3831 59.4819C69.2906 59.9919 70.2581 60.3931 71.2594 60.6744C71.6569 60.7869 71.9794 61.0794 72.1294 61.4637L73.4494 64.8725H76.1925L77.5125 61.4637C77.6625 61.0775 77.9831 60.785 78.3825 60.6744C79.3819 60.395 80.3494 59.9937 81.2588 59.4819C81.6188 59.2794 82.0538 59.2588 82.4325 59.4256L85.7794 60.905L87.7181 58.9662L86.2406 55.6213C86.0738 55.2425 86.0944 54.8075 86.2969 54.4475C86.8069 53.54 87.2081 52.5725 87.4894 51.5712C87.6019 51.1737 87.8944 50.8512 88.2788 50.7013L91.6875 49.3812V46.6381V46.6344ZM83.31 48.005C83.31 52.6869 79.5019 56.495 74.82 56.495C70.1381 56.495 66.33 52.6869 66.33 48.005C66.33 43.3231 70.1381 39.515 74.82 39.515C79.5019 39.515 83.31 43.3231 83.31 48.005ZM80.685 48.005C80.685 44.7706 78.0544 42.14 74.82 42.14C71.5856 42.14 68.955 44.7706 68.955 48.005C68.955 51.2394 71.5856 53.87 74.82 53.87C78.0544 53.87 80.685 51.2394 80.685 48.005ZM40.0181 20.8025H73.3575V22.805C73.3575 23.5306 73.9444 24.1175 74.67 24.1175C75.3956 24.1175 75.9825 23.5306 75.9825 22.805V19.49C75.9825 18.7644 75.3956 18.1775 74.67 18.1775H40.0181C39.2925 18.1775 38.7056 18.7644 38.7056 19.49C38.7056 20.2156 39.2925 20.8025 40.0181 20.8025ZM74.67 70.3062C73.9444 70.3062 73.3575 70.8931 73.3575 71.6187V73.6212H56.2894C55.5638 73.6212 54.9769 74.2081 54.9769 74.9337C54.9769 75.6594 55.5638 76.2462 56.2894 76.2462H74.67C75.3956 76.2462 75.9825 75.6594 75.9825 74.9337V71.6187C75.9825 70.8931 75.3956 70.3062 74.67 70.3062Z" fill="white"/>
<path d="M94.3134 45.7259V50.2672C94.3134 50.8091 93.9797 51.2947 93.4753 51.4916L89.8228 52.9053C89.5734 53.6703 89.2641 54.4147 88.9003 55.1309L90.4847 58.7141C90.7041 59.2091 90.5953 59.7884 90.2128 60.1728L87.0009 63.3847C86.6184 63.7672 86.0372 63.8759 85.5422 63.6566L81.9591 62.0722C81.2409 62.4359 80.4966 62.7453 79.7334 62.9947L78.3197 66.6472C78.1247 67.1534 77.6372 67.4853 77.0953 67.4853H72.5541C72.0122 67.4853 71.5266 67.1516 71.3297 66.6472L69.9159 62.9947C69.1528 62.7453 68.4066 62.4359 67.6903 62.0722L64.1072 63.6566C63.6122 63.8759 63.0328 63.7672 62.6484 63.3847L59.4366 60.1728C59.0541 59.7903 58.9453 59.2109 59.1647 58.7141L60.7491 55.1309C60.3853 54.4128 60.0759 53.6684 59.8266 52.9053L56.1741 51.4916C55.6678 51.2966 55.3359 50.8091 55.3359 50.2672V45.7259C55.3359 45.1841 55.6697 44.6984 56.1741 44.5016L59.8266 43.0878C60.0759 42.3228 60.3853 41.5784 60.7491 40.8622L59.1647 37.2791C58.9453 36.7841 59.0541 36.2047 59.4366 35.8203L62.6484 32.6084C63.0309 32.2259 63.6122 32.1172 64.1072 32.3366L67.6922 33.9209C68.4103 33.5572 69.1547 33.2478 69.9178 32.9984L71.3316 29.3459C71.5266 28.8397 72.0141 28.5078 72.5559 28.5078H77.0972C77.6391 28.5078 78.1247 28.8416 78.3216 29.3459L79.7353 32.9984C80.4984 33.2478 81.2447 33.5572 81.9609 33.9209L85.5441 32.3366C86.0391 32.1172 86.6203 32.2259 87.0028 32.6084L90.2147 35.8203C90.5972 36.2028 90.7059 36.7822 90.4866 37.2791L88.9022 40.8622C89.2659 41.5803 89.5753 42.3247 89.8247 43.0878L93.4772 44.5016C93.9834 44.6966 94.3153 45.1841 94.3153 45.7259H94.3134ZM91.6884 46.6259L88.2797 45.3059C87.8934 45.1559 87.6009 44.8353 87.4903 44.4359C87.2091 43.4366 86.8078 42.4691 86.2978 41.5597C86.0953 41.1997 86.0747 40.7647 86.2416 40.3859L87.7191 37.0409L85.7803 35.1022L82.4353 36.5816C82.0566 36.7484 81.6216 36.7278 81.2616 36.5253C80.3541 36.0153 79.3866 35.6141 78.3853 35.3328C77.9878 35.2203 77.6653 34.9278 77.5153 34.5434L76.1953 31.1347H73.4522L72.1322 34.5434C71.9822 34.9297 71.6616 35.2222 71.2622 35.3328C70.2628 35.6141 69.2953 36.0153 68.3859 36.5253C68.0259 36.7278 67.5909 36.7484 67.2122 36.5816L63.8653 35.1022L61.9266 37.0409L63.4041 40.3859C63.5709 40.7647 63.5503 41.1997 63.3478 41.5597C62.8378 42.4672 62.4366 43.4347 62.1553 44.4359C62.0428 44.8334 61.7503 45.1559 61.3659 45.3059L57.9572 46.6259V49.3691L61.3678 50.6891C61.7541 50.8391 62.0466 51.1597 62.1572 51.5591C62.4366 52.5584 62.8378 53.5259 63.3497 54.4353C63.5522 54.7953 63.5728 55.2303 63.4059 55.6091L61.9266 58.9559L63.8653 60.8947L67.2103 59.4172C67.5891 59.2503 68.0241 59.2709 68.3841 59.4734C69.2916 59.9834 70.2591 60.3847 71.2603 60.6659C71.6578 60.7784 71.9803 61.0709 72.1303 61.4553L73.4503 64.8641H76.1934L77.5134 61.4553C77.6634 61.0691 77.9841 60.7766 78.3834 60.6659C79.3828 60.3866 80.3503 59.9853 81.2597 59.4734C81.6197 59.2709 82.0547 59.2503 82.4334 59.4172L85.7803 60.8966L87.7191 58.9578L86.2416 55.6128C86.0747 55.2341 86.0953 54.7991 86.2978 54.4391C86.8078 53.5316 87.2091 52.5641 87.4903 51.5628C87.6028 51.1653 87.8953 50.8428 88.2797 50.6928L91.6884 49.3728V46.6297V46.6259ZM83.3109 47.9966C83.3109 52.6784 79.5028 56.4866 74.8209 56.4866C70.1391 56.4866 66.3309 52.6784 66.3309 47.9966C66.3309 43.3147 70.1391 39.5066 74.8209 39.5066C79.5028 39.5066 83.3109 43.3147 83.3109 47.9966ZM80.6859 47.9966C80.6859 44.7622 78.0553 42.1316 74.8209 42.1316C71.5866 42.1316 68.9559 44.7622 68.9559 47.9966C68.9559 51.2309 71.5866 53.8616 74.8209 53.8616C78.0553 53.8616 80.6859 51.2309 80.6859 47.9966Z" fill="#E6B400"/>
</svg>
