<svg width="96" height="96" viewBox="0 0 96 96" fill="none" xmlns="http://www.w3.org/2000/svg">
<path d="M84 52.3516V49.3516C84.8279 49.3516 85.5 48.6801 85.5 47.8516V38.8516C85.5 38.023 84.8279 37.3516 84 37.3516H75.9L75.6094 36.2248C74.9461 33.6479 73.916 31.1793 72.549 28.8959L71.949 27.8922L77.7 22.1313C78.2789 21.5512 78.2789 20.6113 77.7 20.0312L71.3297 13.6516C70.7414 13.0908 69.8174 13.0908 69.2291 13.6516L63.4676 19.4131L62.4645 18.8131C60.1775 17.4455 57.7066 16.4154 55.1262 15.7516L54 15.4586V7.35156C54 6.52305 53.3285 5.85156 52.5 5.85156H43.5C42.6715 5.85156 42 6.52305 42 7.35156V15.4516L40.8732 15.7428C38.2963 16.4055 35.8277 17.4355 33.5432 18.8008L32.5395 19.4014L26.7797 13.6516C26.1908 13.0861 25.2609 13.0861 24.6721 13.6516L18.3 20.0219C18.0199 20.3014 17.8623 20.6811 17.8623 21.0766C17.8623 21.4727 18.0199 21.8518 18.3 22.1313L24.0615 27.8922L23.4615 28.8959C22.0951 31.1793 21.0645 33.6479 20.4018 36.2248L20.1076 37.3516H12C11.1715 37.3516 10.5 38.023 10.5 38.8516V47.8516C10.5 48.6801 11.1715 49.3516 12 49.3516V52.3516C9.51504 52.3516 7.5 50.3365 7.5 47.8516V38.8516C7.5 36.3666 9.51504 34.3516 12 34.3516H17.8037C18.4225 32.2773 19.2592 30.2746 20.2998 28.3773L16.1748 24.2523C15.3311 23.4104 14.857 22.2678 14.857 21.0766C14.857 19.8854 15.3311 18.7428 16.1748 17.9014L22.5498 11.5264C24.3258 9.82656 27.126 9.82656 28.902 11.5264L33.0258 15.6496C34.923 14.6096 36.9264 13.7746 39 13.1564V7.35156C39 4.8666 41.015 2.85156 43.5 2.85156H52.5C54.985 2.85156 57 4.8666 57 7.35156V13.1564C59.0742 13.7746 61.0764 14.6113 62.9742 15.6514L67.0992 11.5264C68.8758 9.82656 71.6754 9.82656 73.452 11.5264L79.8258 17.8996C80.669 18.7416 81.1424 19.883 81.1424 21.0748C81.1424 22.2666 80.669 23.4092 79.8258 24.2506L75.7008 28.3756C76.7408 30.274 77.577 32.2773 78.1963 34.3516H84C86.485 34.3516 88.5 36.3666 88.5 38.8516V47.8516C88.5 50.3365 86.485 52.3516 84 52.3516Z" fill="#E6B400"/>
<path d="M69 43.3516H66C66 33.4105 57.941 25.3516 48 25.3516C38.059 25.3516 30 33.4105 30 43.3516H27C27 31.7535 36.402 22.3516 48 22.3516C59.5975 22.3516 69 31.7535 69 43.3516Z" fill="#E6B400"/>
<path d="M48 55.3516C43.0295 55.3516 39 51.3215 39 46.3516C39 41.3811 43.0295 37.3516 48 37.3516C52.9711 37.3516 57 41.3811 57 46.3516C56.9947 51.3203 52.9688 55.3463 48 55.3516ZM48 40.3516C44.6865 40.3516 42 43.0381 42 46.3516C42 49.665 44.6865 52.3516 48 52.3516C51.3135 52.3516 54 49.665 54 46.3516C54 43.0381 51.3135 40.3516 48 40.3516Z" fill="white"/>
<path d="M73.5 61.3516C68.5295 61.3516 64.5 57.3215 64.5 52.3516C64.5 47.3811 68.5295 43.3516 73.5 43.3516C78.4705 43.3516 82.5 47.3811 82.5 52.3516C82.4947 57.3203 78.4688 61.3463 73.5 61.3516ZM73.5 46.3516C70.1865 46.3516 67.5 49.0381 67.5 52.3516C67.5 55.665 70.1865 58.3516 73.5 58.3516C76.8135 58.3516 79.5 55.665 79.5 52.3516C79.5 49.0381 76.8135 46.3516 73.5 46.3516Z" fill="white"/>
<path d="M22.5 61.3516C17.5295 61.3516 13.5 57.3215 13.5 52.3516C13.5 47.3811 17.5295 43.3516 22.5 43.3516C27.4711 43.3516 31.5 47.3811 31.5 52.3516C31.4947 57.3203 27.4688 61.3463 22.5 61.3516ZM22.5 46.3516C19.1865 46.3516 16.5 49.0381 16.5 52.3516C16.5 55.665 19.1865 58.3516 22.5 58.3516C25.8135 58.3516 28.5 55.665 28.5 52.3516C28.5 49.0381 25.8135 46.3516 22.5 46.3516Z" fill="white"/>
<path d="M87.0984 65.2001C84.8631 63.6638 82.2129 62.844 79.5 62.8516H67.5C66.7705 62.8581 66.0422 62.9243 65.3232 63.0491C64.3635 61.5479 63.1148 60.253 61.65 59.2376C61.4303 59.0718 61.1994 58.9212 60.9586 58.7882C58.8604 57.5173 56.4527 56.8481 54 56.8516H42C37.4127 56.8352 33.1383 59.1761 30.6809 63.0491C29.9602 62.9243 29.2307 62.8581 28.5 62.8516H16.5C13.7895 62.844 11.1398 63.6626 8.90566 65.1972C5.21309 67.7097 3.00234 71.8856 3 76.3517V82.3517C3.00527 86.4474 5.38828 90.1669 9.1084 91.8825C10.4818 92.5294 11.9824 92.8604 13.5 92.8517H28.5V89.8517H15V73.3517H12V89.7011C11.4352 89.588 10.8867 89.4052 10.3664 89.1585C7.70918 87.9333 6.00586 85.2772 6 82.3517V76.3517C6.00352 72.8759 7.72559 69.6268 10.599 67.6722C12.3352 66.4804 14.3936 65.8458 16.5 65.8516H28.5C28.7643 65.8516 29.0191 65.8798 29.277 65.8974C28.7695 67.3282 28.5064 68.8341 28.5 70.3517V85.3517C28.5053 89.4919 31.8604 92.8464 36 92.8517H40.5V68.8517H37.5V89.8517H36C33.515 89.8517 31.5 87.8366 31.5 85.3517V70.3517C31.5 64.552 36.2016 59.8516 42 59.8516H54C55.9301 59.8528 57.8215 60.3872 59.4674 61.395C59.6197 61.4782 59.7662 61.572 59.9051 61.6751C61.3107 62.6378 62.4645 63.9239 63.2684 65.4251C64.0764 66.9415 64.5 68.6331 64.5 70.3517V85.3517C64.5 87.8366 62.485 89.8517 60 89.8517H58.5V68.8517H55.5V92.8517H60C64.1402 92.8464 67.4947 89.4919 67.5 85.3517V70.3517C67.493 68.8341 67.2311 67.3288 66.7242 65.8974C66.9826 65.8798 67.2375 65.8516 67.5 65.8516H79.5C81.6076 65.8458 83.6678 66.4821 85.4051 67.6751C88.2762 69.6309 89.9959 72.8776 90 76.3517V82.3517C89.9947 85.2878 88.2785 87.9515 85.6084 89.1702C85.0957 89.4128 84.5555 89.5909 84 89.7011V73.3517H81V89.8517H67.5V92.8517H82.5C84.0088 92.861 85.5006 92.5341 86.8664 91.8942C90.5988 90.1839 92.9941 86.4573 93 82.3517V76.3517C92.9977 71.8874 90.7887 67.7132 87.0984 65.2001Z" fill="white"/>
<path d="M42 89.8516H54V92.8516H42V89.8516Z" fill="white"/>
</svg>
