<svg width="96" height="96" viewBox="0 0 96 96" fill="none" xmlns="http://www.w3.org/2000/svg">
<path d="M35.4647 37.2509V34.5504C35.4647 33.9159 35.9781 33.4029 36.612 33.4029C37.2459 33.4029 37.7591 33.9159 37.7591 34.5504V37.2509C37.7591 37.8851 37.2459 38.3984 36.612 38.3984C35.9781 38.3984 35.4647 37.8851 35.4647 37.2509ZM46.6037 38.3986C47.2382 38.3986 47.7514 37.8852 47.7514 37.2511V34.5506C47.7514 33.9161 47.2382 33.4031 46.6037 33.4031C45.9696 33.4031 45.4566 33.9161 45.4566 34.5506V37.2511C45.4564 37.8851 45.9696 38.3986 46.6037 38.3986ZM36.6122 48.9071C37.2461 48.9071 37.7593 48.3941 37.7593 47.7598V45.0597C37.7593 44.4254 37.2461 43.9121 36.6122 43.9121C35.9783 43.9121 35.4649 44.4254 35.4649 45.0597V47.7598C35.4647 48.3941 35.9783 48.9071 36.6122 48.9071ZM46.6037 48.9071C47.2382 48.9071 47.7514 48.3941 47.7514 47.7598V45.0597C47.7514 44.4254 47.2382 43.9121 46.6037 43.9121C45.9696 43.9121 45.4566 44.4254 45.4566 45.0597V47.7598C45.4564 48.3941 45.9696 48.9071 46.6037 48.9071ZM36.6122 59.4168C37.2461 59.4168 37.7593 58.9036 37.7593 58.2699V55.568C37.7593 54.9344 37.2461 54.4211 36.6122 54.4211C35.9783 54.4211 35.4649 54.9344 35.4649 55.568V58.2699C35.4647 58.9036 35.9783 59.4168 36.6122 59.4168ZM46.6037 59.4168C47.2382 59.4168 47.7514 58.9036 47.7514 58.2699V55.568C47.7514 54.9344 47.2382 54.4211 46.6037 54.4211C45.9696 54.4211 45.4566 54.9344 45.4566 55.568V58.2699C45.4564 58.9036 45.9696 59.4168 46.6037 59.4168ZM70.9189 46.2766C72.7948 44.8046 75.1661 44.249 77.4371 44.6285L77.0539 44.7907C76.4706 45.038 76.1976 45.7107 76.4445 46.2946C76.6301 46.7326 77.055 46.9955 77.5022 46.9955C77.6512 46.9955 77.8029 46.9661 77.9486 46.9038L81.0322 45.5984C81.3135 45.479 81.5361 45.2529 81.6501 44.9694C81.6638 44.9347 81.6602 44.8972 81.6699 44.8614C81.7044 44.7609 81.7219 44.6581 81.7273 44.5552C81.7273 44.5374 81.7281 44.5209 81.7273 44.5027C81.7281 44.2878 81.6688 44.0774 81.5565 43.8944L80.3109 41.0056C80.0599 40.4238 79.3877 40.1549 78.8023 40.4052C78.2199 40.6565 77.952 41.3313 78.2021 41.9139L78.4459 42.4792C75.3634 41.7706 72.0692 42.4565 69.5044 44.4693C65.3963 47.6711 64.2276 53.3272 66.7268 57.9185C66.9343 58.301 67.3292 58.5176 67.7353 58.5176C67.9206 58.5176 68.1092 58.4724 68.2836 58.3773C68.8402 58.0741 69.0454 57.3774 68.7424 56.8207C66.7834 53.2209 67.6973 48.788 70.9189 46.2766ZM83.8386 47.2923C83.2817 47.5955 83.0766 48.2926 83.3794 48.8491C85.3395 52.4489 84.4256 56.882 81.2036 59.3923C79.3299 60.8634 76.9622 61.4184 74.6938 61.0411L75.0782 60.8741C75.6598 60.6222 75.9264 59.9463 75.6742 59.3649C75.4221 58.784 74.7478 58.5149 74.1647 58.7684L71.1041 60.0965C71.0051 60.1394 70.9193 60.1983 70.839 60.2634C70.8219 60.2773 70.8056 60.2919 70.7893 60.3059C70.7616 60.3327 70.7334 60.3575 70.7079 60.3858C70.6404 60.4572 70.5776 60.5349 70.5287 60.6258C70.3146 61.0207 70.3611 61.4836 70.6026 61.8286L71.8099 64.6606C71.9963 65.096 72.4207 65.3587 72.867 65.3587C73.0168 65.3587 73.1693 65.3285 73.3166 65.2661C73.8997 65.0173 74.1701 64.343 73.9221 63.7603L73.6772 63.1854C74.4624 63.3661 75.2606 63.4666 76.0584 63.4666C78.3904 63.4666 80.7069 62.6999 82.6172 61.1999C86.727 57.9989 87.8953 52.3426 85.3948 47.7511C85.0929 47.1956 84.3956 46.9886 83.8386 47.2923ZM94.8735 51.4286V54.2414C94.8735 55.1795 94.3477 56.0023 93.5342 56.3371L92.0306 56.9163C91.6545 58.4124 91.0508 59.8623 90.2289 61.2391L90.8822 62.7091C91.2338 63.5131 91.0245 64.4626 90.3519 65.135L89.2481 66.239V84.6659C89.2481 85.3004 88.7349 85.8134 88.101 85.8134H5.10731C4.47337 85.8134 3.96 85.3004 3.96 84.6659V51.8557H2.27231C1.63819 51.8557 1.125 51.3427 1.125 50.7082V45.1496C1.125 44.5156 1.63819 44.0019 2.27231 44.0019H27.6787V21.0033C27.6787 20.369 28.1918 19.8558 28.8263 19.8558H35.7803V17.6949C35.7803 17.0604 36.2936 16.5476 36.9274 16.5476H42.1483V11.327C42.1483 10.6923 42.6615 10.1797 43.2958 10.1797H49.9119C50.5462 10.1797 51.0591 10.6923 51.0591 11.327V16.5476H56.2809C56.9149 16.5476 57.4282 17.0604 57.4282 17.6949V19.8558H64.3813C65.0158 19.8558 65.529 20.369 65.529 21.0033V37.8656C65.7576 37.8807 65.9826 37.931 66.1918 38.0223L67.6429 38.6587C68.9863 37.8607 70.4436 37.2582 71.9895 36.8598L72.5591 35.3767C72.8606 34.5759 73.6993 34.0334 74.6438 34.0334H77.4789C78.4249 34.0334 79.2634 34.5764 79.566 35.3859L80.1334 36.8598C81.6784 37.2582 83.1358 37.8607 84.4792 38.6587L85.9299 38.0223C86.7349 37.6702 87.7539 37.8941 88.377 38.5606L90.3519 40.535C91.0136 41.1956 91.2276 42.1451 90.8949 42.9534L90.2304 44.4324C91.0534 45.8105 91.6571 47.2621 92.0321 48.7601L93.5182 49.3477C94.3134 49.6278 94.8735 50.4691 94.8735 51.4286ZM38.0751 23.1864H43.2958C43.9298 23.1864 44.4431 23.6992 44.4431 24.3335V29.5321H48.7646V24.3335C48.7646 23.6992 49.2774 23.1864 49.9119 23.1864H55.1334V18.842H49.9119C49.2774 18.842 48.7646 18.329 48.7646 17.6949V12.4741H44.4431V17.6949C44.4431 18.329 43.9298 18.842 43.2958 18.842H38.0751V23.1864ZM29.9732 83.5188H39.8533V73.5037H38.4128C37.7784 73.5037 37.2658 72.9903 37.2658 72.3564C37.2658 71.7221 37.7784 71.2089 38.4128 71.2089H54.795C55.4293 71.2089 55.9425 71.7221 55.9425 72.3564C55.9425 72.9903 55.4293 73.5037 54.795 73.5037H53.3544V83.5188H63.234V66.5979L61.7693 65.1346C61.098 64.4611 60.8895 63.5122 61.2364 62.7159L61.8934 61.2389C61.0719 59.8621 60.4673 58.4126 60.0917 56.9161L58.6131 56.3476C58.2609 56.2025 57.9688 55.9702 57.7423 55.6841V58.2699C57.7423 58.9036 57.2291 59.4168 56.5946 59.4168C55.9607 59.4168 55.4479 58.9036 55.4479 58.2699V55.568C55.4479 54.9344 55.9607 54.4211 56.5946 54.4211C56.8562 54.4211 57.0943 54.5118 57.2871 54.6594C57.2644 54.5227 57.2482 54.3836 57.2482 54.2414V51.4286C57.2482 50.4693 57.8083 49.6278 58.6432 49.3331L60.0889 48.7601C60.4648 47.2614 61.0693 45.8105 61.8917 44.4324L61.2414 42.9873C60.8951 42.1458 61.1076 41.1965 61.7689 40.535L63.2336 39.0708V22.1504H57.4275V24.3335C57.4275 24.9676 56.9141 25.4808 56.2802 25.4808H51.0583V30.6798C51.0583 31.3143 50.5455 31.8273 49.9112 31.8273H43.2951C42.6608 31.8273 42.1476 31.3143 42.1476 30.6798V25.4808H36.9274C36.2936 25.4808 35.7803 24.9676 35.7803 24.3335V22.1504H29.9732V83.5188ZM65.529 83.5188H75.0939V71.6356H74.6439C73.6995 71.6356 72.8608 71.0928 72.5565 70.2845L71.9897 68.8089C70.4447 68.4127 68.9865 67.8091 67.6431 67.0115L66.1928 67.6471C66.0156 67.7371 65.7769 67.7898 65.5292 67.8104V83.5188H65.529ZM42.1483 73.5037V83.5188H51.0596V73.5037H42.1483ZM18.114 51.8557V83.5188H27.6787V51.8557H18.114ZM3.41963 49.5609H27.6787V46.2969H3.41963V49.5609ZM6.25481 83.5188H15.8194V51.8557H6.25481V83.5188ZM86.9537 83.5188V67.8014C86.5823 67.8378 86.2063 67.7868 85.8778 67.6222L84.4796 67.0115C83.136 67.8091 81.6787 68.4116 80.1336 68.8089L79.563 70.2929C79.2634 71.0926 78.4251 71.6356 77.4791 71.6356H77.3891V83.5188H86.9537ZM92.5791 51.4441L90.6268 50.6729C90.2672 50.5301 90.0036 50.2166 89.9244 49.8372C89.5862 48.2045 88.929 46.6246 87.9699 45.1428C87.7581 44.8158 87.7271 44.4041 87.8869 44.0489L88.7312 42.1698L86.7435 40.1726L84.8481 41.0034C84.4954 41.1566 84.0872 41.1249 83.7641 40.9154C82.3367 39.9918 80.7454 39.3331 79.0328 38.957C78.6566 38.8739 78.3467 38.6084 78.2079 38.2488L77.4724 36.3342L74.6528 36.3283L73.9151 38.2477C73.7766 38.6073 73.4672 38.8739 73.0903 38.957C71.3777 39.3331 69.7856 39.992 68.3582 40.9154C68.034 41.1249 67.6266 41.1566 67.2748 41.0034L65.3503 40.16L65.3471 40.1628C65.2609 40.2984 65.1476 40.4144 65.0141 40.5035L63.3934 42.1588C63.3906 42.1606 63.3894 42.1619 63.3879 42.1632L64.236 44.0491C64.3956 44.4043 64.3648 44.816 64.1533 45.143C63.195 46.6244 62.5371 48.2047 62.1973 49.8387C62.1188 50.2169 61.8553 50.5303 61.4961 50.6731L59.5476 51.4436L59.5431 54.2416V54.2461L61.4859 54.9927C61.8497 55.1328 62.1178 55.4486 62.1973 55.8305C62.5371 57.4648 63.1948 59.045 64.1533 60.5268C64.3639 60.8519 64.3956 61.2609 64.2386 61.6158L63.3983 63.5066L65.3812 65.4984L67.2748 64.667C67.6266 64.5131 68.0342 64.5448 68.3582 64.7546C69.786 65.6782 71.3777 66.3373 73.0899 66.7124C73.4662 66.7951 73.7766 67.0616 73.9151 67.4214L74.6503 69.3337L77.4699 69.3412L78.2079 67.4204C78.3467 67.0616 78.6568 66.7951 79.0337 66.7124C80.7444 66.3373 82.3359 65.678 83.7641 64.7546C84.0874 64.5448 84.4954 64.5131 84.8481 64.667L86.7799 65.5137L87.1348 65.1504C87.2201 65.0139 87.3337 64.8967 87.468 64.8076L88.7284 63.5131L87.885 61.6158C87.7273 61.2609 87.7592 60.8521 87.9701 60.5268C88.9292 59.0443 89.5864 57.4647 89.9246 55.8318C90.0045 55.4486 90.2724 55.1328 90.6371 54.9927L92.5727 54.2482L92.5791 51.4441ZM56.5952 38.3986C57.2297 38.3986 57.7429 37.8852 57.7429 37.2511V34.5506C57.7429 33.9161 57.2297 33.4031 56.5952 33.4031C55.9613 33.4031 55.4484 33.9161 55.4484 34.5506V37.2511C55.4484 37.8851 55.9613 38.3986 56.5952 38.3986ZM56.5952 48.9071C57.2297 48.9071 57.7429 48.3941 57.7429 47.7598V45.0597C57.7429 44.4254 57.2297 43.9121 56.5952 43.9121C55.9613 43.9121 55.4484 44.4254 55.4484 45.0597V47.7598C55.4484 48.3941 55.9613 48.9071 56.5952 48.9071Z" fill="white"/>
<path fill-rule="evenodd" clip-rule="evenodd" d="M37.7634 47.7598C37.7634 48.3941 37.2502 48.9071 36.6163 48.9071C35.9823 48.9071 35.4687 48.3941 35.4689 47.7598V45.0597C35.4689 44.4254 35.9823 43.9121 36.6163 43.9121C37.2502 43.9121 37.7634 44.4254 37.7634 45.0597V47.7598ZM47.7554 47.7598C47.7554 48.3941 47.2423 48.9071 46.6078 48.9071C45.9736 48.9071 45.4604 48.3941 45.4606 47.7598V45.0597C45.4606 44.4254 45.9736 43.9121 46.6078 43.9121C47.2423 43.9121 47.7554 44.4254 47.7554 45.0597V47.7598ZM37.7634 58.2699C37.7634 58.9036 37.2502 59.4168 36.6163 59.4168C35.9823 59.4168 35.4687 58.9036 35.4689 58.2699V55.568C35.4689 54.9344 35.9823 54.4211 36.6163 54.4211C37.2502 54.4211 37.7634 54.9344 37.7634 55.568V58.2699ZM47.7554 58.2699C47.7554 58.9036 47.2423 59.4168 46.6078 59.4168C45.9736 59.4168 45.4604 58.9036 45.4606 58.2699V55.568C45.4606 54.9344 45.9736 54.4211 46.6078 54.4211C47.2423 54.4211 47.7554 54.9344 47.7554 55.568V58.2699ZM77.4412 44.6285C75.1702 44.249 72.7989 44.8046 70.9229 46.2766C67.7013 48.788 66.7874 53.2209 68.7464 56.8207C69.0494 57.3774 68.8443 58.0741 68.2876 58.3773C68.1133 58.4724 67.9246 58.5176 67.7394 58.5176C67.3333 58.5176 66.9384 58.301 66.7308 57.9185C64.2316 53.3272 65.4003 47.6711 69.5084 44.4693C72.0733 42.4565 75.3674 41.7706 78.4499 42.4792L78.2062 41.9139C77.9561 41.3313 78.224 40.6565 78.8064 40.4052C79.3918 40.1549 80.0639 40.4238 80.315 41.0056L81.5606 43.8944C81.6729 44.0774 81.7321 44.2878 81.7314 44.5027C81.7321 44.5209 81.7314 44.5374 81.7314 44.5552C81.7259 44.6581 81.7085 44.7609 81.674 44.8614C81.6698 44.8769 81.668 44.8928 81.6663 44.9087C81.6641 44.9293 81.6619 44.9498 81.6541 44.9694C81.5401 45.2529 81.3176 45.479 81.0363 45.5984L77.9527 46.9038C77.807 46.9661 77.6553 46.9955 77.5063 46.9955C77.0591 46.9955 76.6342 46.7326 76.4486 46.2946C76.2016 45.7107 76.4746 45.038 77.0579 44.7907L77.4412 44.6285ZM83.3834 48.8491C83.0806 48.2926 83.2858 47.5955 83.8426 47.2923C84.3997 46.9886 85.097 47.1956 85.3989 47.7511C87.8994 52.3426 86.7311 57.9989 82.6213 61.1999C80.711 62.6999 78.3944 63.4666 76.0625 63.4666C75.2647 63.4666 74.4665 63.3661 73.6813 63.1854L73.9261 63.7603C74.1742 64.343 73.9038 65.0173 73.3207 65.2661C73.1733 65.3285 73.0209 65.3587 72.8711 65.3587C72.4248 65.3587 72.0003 65.096 71.8139 64.6606L70.6066 61.8286C70.3651 61.4836 70.3186 61.0207 70.5328 60.6258C70.5817 60.5349 70.6445 60.4572 70.712 60.3858C70.7302 60.3656 70.7498 60.3472 70.7696 60.3286C70.7775 60.3211 70.7854 60.3136 70.7934 60.3059C70.8097 60.2919 70.826 60.2773 70.8431 60.2634C70.9233 60.1983 71.0092 60.1394 71.1082 60.0965L74.1688 58.7684C74.7519 58.5149 75.4261 58.784 75.6783 59.3649C75.9305 59.9463 75.6639 60.6222 75.0823 60.8741L74.6979 61.0411C76.9663 61.4184 79.334 60.8634 81.2077 59.3923C84.4297 56.882 85.3436 52.4489 83.3834 48.8491Z" fill="#E6B400"/>
<path fill-rule="evenodd" clip-rule="evenodd" d="M35.7843 19.8558V17.6949C35.7843 17.0604 36.2977 16.5476 36.9314 16.5476H42.1524V11.327C42.1524 10.6923 42.6656 10.1797 43.2999 10.1797H49.916C50.5503 10.1797 51.0631 10.6923 51.0631 11.327V16.5476H56.285C56.9189 16.5476 57.4323 17.0604 57.4323 17.6949V19.8558L57.4316 22.1504V24.3335C57.4316 24.9676 56.9182 25.4808 56.2843 25.4808H51.0624V30.6798C51.0624 31.3143 50.5496 31.8273 49.9153 31.8273H43.2991C42.6648 31.8273 42.1516 31.3143 42.1516 30.6798V25.4808H36.9314C36.2977 25.4808 35.7843 24.9676 35.7843 24.3335V22.1504V19.8558ZM43.2999 23.1864H38.0791V18.842H43.2999C43.9338 18.842 44.4472 18.329 44.4472 17.6949V12.4741H48.7687V17.6949C48.7687 18.329 49.2815 18.842 49.916 18.842H55.1375V23.1864H49.916C49.2815 23.1864 48.7687 23.6992 48.7687 24.3335V29.5321H44.4472V24.3335C44.4472 23.6992 43.9338 23.1864 43.2999 23.1864Z" fill="#E6B400"/>
</svg>
