<svg width="96" height="96" viewBox="0 0 96 96" fill="none" xmlns="http://www.w3.org/2000/svg">
<path d="M80.9805 25.4141H66.2344C65.4576 25.4141 64.8281 26.0435 64.8281 26.8203C64.8281 27.5971 65.4576 28.2266 66.2344 28.2266H80.9805C81.7573 28.2266 82.3867 27.5971 82.3867 26.8203C82.3867 26.0435 81.7571 25.4141 80.9805 25.4141Z" fill="#E6B400"/>
<path d="M82.3867 33.8984C82.3867 33.1216 81.7573 32.4922 80.9805 32.4922H66.2344C65.4576 32.4922 64.8281 33.1216 64.8281 33.8984C64.8281 34.6753 65.4576 35.3047 66.2344 35.3047H80.9805C81.7571 35.3047 82.3867 34.6751 82.3867 33.8984Z" fill="#E6B400"/>
<path d="M66.2344 39.5625C65.4576 39.5625 64.8281 40.1919 64.8281 40.9688C64.8281 41.7456 65.4576 42.375 66.2344 42.375H75.9774C76.7543 42.375 77.3837 41.7456 77.3837 40.9688C77.3837 40.1919 76.7543 39.5625 75.9774 39.5625H66.2344Z" fill="#E6B400"/>
<path d="M92.9831 86.143H85.0386V62.1211C85.0386 61.0354 84.1554 60.1523 83.0698 60.1523H49.3978V55.8617C49.3978 55.0849 48.7684 54.4555 47.9916 54.4555C47.2147 54.4555 46.5853 55.0849 46.5853 55.8617V60.1523H20.3057V40.3281H27.9467V45.7296C27.9467 46.8152 28.8298 47.6984 29.9154 47.6984H36.9756C38.0612 47.6984 38.9443 46.8152 38.9443 45.7296V40.3281H46.5853V49.2992C46.5853 50.0761 47.2147 50.7055 47.9916 50.7055C48.7684 50.7055 49.3978 50.0761 49.3978 49.2992V39.4844C49.3978 38.3987 48.5147 37.5156 47.4291 37.5156H19.4619C18.3763 37.5156 17.4932 38.3987 17.4932 39.4844V60.1523H12.9133C11.8277 60.1523 10.9446 61.0354 10.9446 62.1211V86.143H3C1.91437 86.143 1.03125 87.0261 1.03125 88.1117V94.018C1.03125 95.1036 1.91437 95.9867 3 95.9867H92.9831C94.0687 95.9867 94.9519 95.1036 94.9519 94.018V88.1117C94.9519 87.0261 94.0687 86.143 92.9831 86.143ZM30.7592 40.3283H36.1318V44.8859H30.7592V40.3283ZM66.3999 62.9648H71.7726V67.5226H66.3999V62.9648ZM30.2908 62.9648H36.6002V67.5226H30.2908V62.9648ZM13.7571 62.9648H27.4783V68.3663C27.4783 69.4519 28.3614 70.3351 29.4471 70.3351H37.4439C38.5296 70.3351 39.4127 69.4519 39.4127 68.3663V62.9648H53.1339V86.143H13.7571V62.9648ZM92.1394 93.1742H3.84375V88.9555H71.4291C72.2059 88.9555 72.8353 88.3261 72.8353 87.5492C72.8353 86.7724 72.2059 86.143 71.4291 86.143H55.9464V62.9648H63.5874V68.3663C63.5874 69.4519 64.4706 70.3351 65.5562 70.3351H72.6163C73.7019 70.3351 74.5851 69.4519 74.5851 68.3663V62.9648H82.2261V86.143H77.9916C77.2147 86.143 76.5853 86.7724 76.5853 87.5492C76.5853 88.3261 77.2147 88.9555 77.9916 88.9555H92.1394V93.1742Z" fill="white"/>
<path d="M56.0212 24.6741V50.2629C56.0212 51.3486 56.9043 52.2317 57.9899 52.2317H89.2117C90.2973 52.2317 91.1804 51.3486 91.1804 50.2629V37.5C91.1804 36.7232 90.551 36.0938 89.7742 36.0938C88.9974 36.0938 88.3679 36.7232 88.3679 37.5V49.4192H58.8337V24.9992C58.8371 24.9992 58.8403 24.9994 58.8436 24.9994C62.3754 24.9994 65.5674 23.5245 67.8429 21.1613H80.9739C81.7507 21.1613 82.3801 20.5318 82.3801 19.755C82.3801 18.9782 81.7507 18.3488 80.9739 18.3488H69.8857C70.8146 16.6024 71.3431 14.6119 71.3431 12.4997C71.3431 12.0983 71.3223 11.7017 71.285 11.3096H88.3678V30.9375C88.3678 31.7143 88.9972 32.3438 89.774 32.3438C90.5508 32.3438 91.1803 31.7143 91.1803 30.9375V10.4659C91.1803 9.38025 90.2971 8.49713 89.2115 8.49713H70.682C69.0091 3.56269 64.3361 0 58.8434 0C51.9511 0 46.3438 5.60738 46.3438 12.4997C46.3438 18.4211 50.4841 23.3906 56.0212 24.6741ZM58.8434 2.8125C64.1849 2.8125 68.5306 7.15819 68.5306 12.4997C68.5306 17.8412 64.1849 22.1869 58.8434 22.1869C53.5019 22.1869 49.1563 17.8412 49.1563 12.4997C49.1563 7.15819 53.5019 2.8125 58.8434 2.8125Z" fill="#E6B400"/>
<path d="M57.1505 16.6347C57.4252 16.9092 57.785 17.0465 58.145 17.0465C58.5048 17.0465 58.8648 16.9092 59.1393 16.6347L64.8581 10.9162C65.4074 10.3668 65.4075 9.47656 64.8583 8.92738C64.3091 8.37856 63.4186 8.37819 62.8696 8.92738L58.1452 13.6516L54.8304 10.3366C54.281 9.78763 53.3908 9.78763 52.8416 10.3366C52.2924 10.886 52.2924 11.7763 52.8416 12.3254L57.1505 16.6347Z" fill="#E6B400"/>
</svg>
