<svg width="96" height="96" viewBox="0 0 96 96" fill="none" xmlns="http://www.w3.org/2000/svg">
<g clip-path="url(#clip0_1760_118265)">
<path d="M21.9324 17.7133C22.7091 17.7133 23.3387 17.0837 23.3387 16.3071C23.3387 15.5305 22.7091 14.9008 21.9324 14.9008C21.1558 14.9008 20.5262 15.5305 20.5262 16.3071C20.5262 17.0837 21.1556 17.7133 21.9324 17.7133ZM10.6824 17.7133C11.4591 17.7133 12.0887 17.0837 12.0887 16.3071C12.0887 15.5305 11.4591 14.9008 10.6824 14.9008C9.90581 14.9008 9.27619 15.5305 9.27619 16.3071C9.27619 17.0837 9.90563 17.7133 10.6824 17.7133ZM16.3074 17.7133C17.0841 17.7133 17.7137 17.0837 17.7137 16.3071C17.7137 15.5305 17.0841 14.9008 16.3074 14.9008C15.5308 14.9008 14.9012 15.5305 14.9012 16.3071C14.9012 17.0837 15.5306 17.7133 16.3074 17.7133ZM15.999 32.6108C16.0076 32.611 16.0163 32.611 16.0249 32.611L28.7391 32.6142H28.7398C29.6183 32.6142 30.3639 32.0451 30.5959 31.198C30.828 30.3505 30.4757 29.4807 29.7197 29.0335L27.786 27.8893C30.894 24.8089 32.6421 20.6059 32.6143 16.2023C32.5586 7.39578 25.3507 0.128469 16.5469 0.00171923C7.42406 -0.129343 0 7.25009 0 16.3075C0 24.993 7.1565 32.4227 15.999 32.6108ZM6.83438 6.69622C9.4275 4.14022 12.855 2.76303 16.5066 2.81384C23.7915 2.91866 29.7557 8.93253 29.8018 16.2199C29.8267 20.1516 28.1408 23.8905 25.176 26.4777C24.6803 26.91 24.4206 27.559 24.4806 28.2135C24.5406 28.8677 24.9143 29.458 25.4796 29.7923L25.4936 29.8005L16.0387 29.7983C8.72963 29.658 2.8125 23.6367 2.8125 16.3075C2.8125 12.666 4.24088 9.25278 6.83438 6.69622ZM94.5938 93.1875H93.1875V72.2457C93.1875 66.759 89.9454 61.7768 84.9122 59.5457L77.5011 56.3693C79.3044 55.8002 80.9336 54.7855 82.2592 53.3779C84.2593 51.2545 85.4062 48.3732 85.4062 45.4727C85.4062 42.8076 84.4751 40.2921 82.7132 38.1975C80.5093 35.5806 79.2956 32.2547 79.2956 28.8321V22.0933C79.2956 16.1912 76.9971 10.6435 72.8237 6.47216C68.6503 2.29841 63.102 3.17307e-05 57.2006 3.17307e-05C45.0184 3.17307e-05 35.1075 9.91091 35.1075 22.0932V28.6125C35.1082 32.154 33.7164 35.5345 31.4548 38.2594C28.6084 41.6888 28.017 46.3255 29.9117 50.3599C31.3179 53.3547 33.8544 55.5062 36.891 56.4169L29.5316 59.6172C24.3684 61.7899 21.0321 66.8132 21.0321 72.4146V88.969C21.0321 89.7456 21.6615 90.3752 22.4383 90.3752C23.2151 90.3752 23.8446 89.7456 23.8446 88.969V72.4146C23.8446 67.948 26.505 63.942 30.6379 62.203L39.8625 58.1916V66.6563H35.6244C34.4301 66.6563 33.2869 67.1655 32.4879 68.0535C31.6892 68.9415 31.3033 70.132 31.4293 71.3196L33.7474 93.1875H1.40625C0.629437 93.1875 0 93.8172 0 94.5938C0 95.3704 0.629437 96 1.40625 96H94.5938C95.3706 96 96 95.3704 96 94.5938C96 93.8172 95.3706 93.1875 94.5938 93.1875ZM80.5614 40.0084C81.891 41.589 82.5938 43.4785 82.5938 45.4725C82.5938 47.6638 81.7256 49.8422 80.2119 51.4495C78.6092 53.151 76.4074 54.0882 74.0121 54.0882H72.1794L69.7721 53.0564C67.6693 52.1545 66.2308 50.2212 65.9368 47.9957C70.2757 45.6595 73.2321 41.0743 73.2321 35.8107V25.2388C73.6436 25.2668 74.0548 25.282 74.4649 25.282C75.1412 25.282 75.8149 25.2435 76.4833 25.1678V28.8319C76.4831 32.9164 77.9318 36.8858 80.5614 40.0084ZM57.5424 62.2086C52.5116 62.2977 47.5187 61.6602 42.675 60.3167V56.9685L43.0817 56.7917C43.0849 56.7904 43.0881 56.7889 43.0914 56.7876L45.6002 55.6967C48.3928 54.4827 50.3662 51.996 50.9646 49.0902C52.1891 49.4462 53.4816 49.6408 54.8196 49.6408H59.4019C60.7449 49.6408 62.0423 49.4447 63.2709 49.086C63.8889 51.9786 65.8699 54.4429 68.6638 55.6414L71.3413 56.7889C71.343 56.7897 71.3447 56.7904 71.3464 56.791L71.5447 56.8759V60.0403C66.9936 61.3963 62.2884 62.1257 57.5424 62.2086ZM71.5444 62.9683V66.6565H42.675V63.229C47.2339 64.4243 51.9146 65.0292 56.6271 65.0292C56.9484 65.0292 57.27 65.0264 57.5916 65.0207C62.3147 64.9382 66.9992 64.248 71.5444 62.9683ZM76.4831 22.332C72.6096 22.8553 68.2433 21.8177 65.235 19.4869C64.6213 19.0114 63.738 19.1232 63.2621 19.7372C62.7864 20.3511 62.8986 21.2344 63.5124 21.7101C65.4791 23.2337 67.8512 24.307 70.4196 24.8481V32.5039C69.7438 34.044 68.9916 35.3248 67.2956 36.724C66.5816 37.3131 65.8001 37.8023 64.9631 38.1904C64.2797 36.8567 62.8916 35.9413 61.293 35.9413H57.9975C55.7244 35.9413 53.8753 37.7907 53.8753 40.0635C53.8753 42.3364 55.7244 44.1857 57.9975 44.1857H61.293C63.2059 44.1857 64.8184 42.8758 65.2813 41.1062C67.1625 40.3894 70.2298 37.8323 70.2306 37.8313C69.2782 42.9439 64.7865 46.8276 59.4021 46.8276H54.8194C48.7444 46.8276 43.8019 41.8853 43.8019 35.8101V24.94C48.5781 24.1913 53.0902 22.575 57.2284 20.1274C63.5291 16.4005 67.5707 11.5303 70.0097 7.68266C74.1829 11.3995 76.5568 16.728 76.4831 22.332ZM62.6023 40.0675C62.6003 40.788 62.0137 41.3736 61.2928 41.3736H57.9973C57.2751 41.3736 56.6876 40.786 56.6876 40.0639C56.6876 39.3418 57.2752 38.7542 57.9973 38.7542H61.2928C62.0136 38.7542 62.5999 39.3394 62.6023 40.0596V40.0675ZM37.92 22.0932C37.92 11.4617 46.5692 2.81253 57.2006 2.81253C61.0134 2.81253 64.6569 3.91316 67.7704 5.96216C65.5258 9.56009 61.7479 14.1868 55.7964 17.7073C51.7136 20.1223 47.2352 21.6642 42.4851 22.29H42.3973C42.3968 22.29 42.3962 22.29 42.3954 22.29C42.3947 22.29 42.3943 22.29 42.3936 22.29H37.9198V22.0932H37.92ZM32.4572 49.1644C31.0312 46.1273 31.4764 42.637 33.6173 40.0577C36.3036 36.8213 37.923 32.8223 37.92 28.6125V25.1025H40.9894V35.8107C40.9894 41.0773 43.9494 45.6647 48.2923 47.9997C48.0206 50.242 46.5864 52.2008 44.4786 53.1173L42.2458 54.0882H40.2075C36.8531 54.0882 33.8835 52.2015 32.4572 49.1644ZM81.411 71.0233L79.0614 93.1875H36.5756L34.2261 71.0233C34.1835 70.6215 34.3088 70.2349 34.5789 69.9347C34.8491 69.6343 35.2206 69.469 35.6244 69.469H80.0126C80.4165 69.469 80.7879 69.6343 81.0581 69.9347C81.3283 70.2349 81.4536 70.6215 81.411 71.0233ZM90.375 93.1875H81.8897L84.2077 71.32C84.3337 70.1322 83.9477 68.9417 83.1491 68.0537C82.3502 67.1657 81.2072 66.6565 80.0126 66.6565H74.3569V58.0815L83.7883 62.1238C87.7896 63.8976 90.375 67.8705 90.375 72.2457V93.1875ZM57.8184 75.9844C54.8719 75.9844 52.4747 78.3816 52.4747 81.3282C52.4747 84.2747 54.8719 86.6719 57.8184 86.6719C60.765 86.6719 63.1622 84.2747 63.1622 81.3282C63.1622 78.3816 60.765 75.9844 57.8184 75.9844ZM57.8184 83.8594C56.4227 83.8594 55.2872 82.7239 55.2872 81.3282C55.2872 79.9324 56.4227 78.7969 57.8184 78.7969C59.2142 78.7969 60.3497 79.9324 60.3497 81.3282C60.3497 82.7239 59.2144 83.8594 57.8184 83.8594Z" fill="#E6B400"/>
<path d="M94.5938 93.1875H93.1875V72.2457C93.1875 66.759 89.9454 61.7768 84.9122 59.5457L77.5011 56.3693C79.3044 55.8002 80.9336 54.7855 82.2593 53.3779C84.2593 51.2545 85.4062 48.3732 85.4062 45.4727C85.4062 42.8076 84.4751 40.2921 82.7132 38.1975C80.5093 35.5806 79.2956 32.2547 79.2956 28.8321V22.0933C79.2956 16.1912 76.9971 10.6435 72.8237 6.47216C68.6503 2.29841 63.102 3.17307e-05 57.2006 3.17307e-05C45.0184 3.17307e-05 35.1075 9.91091 35.1075 22.0932V28.6125C35.1083 32.154 33.7164 35.5345 31.4548 38.2594C28.6084 41.6888 28.017 46.3255 29.9117 50.3599C31.3179 53.3547 33.8544 55.5062 36.891 56.4169L29.5316 59.6172C24.3684 61.7899 21.0321 66.8132 21.0321 72.4146V88.969C21.0321 89.7456 21.6615 90.3752 22.4383 90.3752C23.2151 90.3752 23.8446 89.7456 23.8446 88.969V72.4146C23.8446 67.948 26.505 63.942 30.6379 62.203L39.8625 58.1916V66.6563H35.6244C34.4301 66.6563 33.2869 67.1655 32.4879 68.0535C31.6892 68.9415 31.3033 70.132 31.4293 71.3196L33.7474 93.1875H1.40625C0.629438 93.1875 0 93.8172 0 94.5938C0 95.3704 0.629438 96 1.40625 96H94.5938C95.3706 96 96 95.3704 96 94.5938C96 93.8172 95.3706 93.1875 94.5938 93.1875ZM80.5614 40.0084C81.891 41.589 82.5938 43.4785 82.5938 45.4725C82.5938 47.6638 81.7256 49.8422 80.2119 51.4495C78.6092 53.151 76.4074 54.0882 74.0121 54.0882H72.1794L69.7721 53.0563C67.6693 52.1545 66.2308 50.2212 65.9368 47.9957C70.2757 45.6595 73.2321 41.0743 73.2321 35.8107V25.2388C73.6436 25.2668 74.0548 25.282 74.4649 25.282C75.1412 25.282 75.8149 25.2435 76.4833 25.1678V28.8319C76.4831 32.9164 77.9318 36.8858 80.5614 40.0084ZM57.5424 62.2086C52.5116 62.2977 47.5187 61.6602 42.675 60.3167V56.9685L43.0817 56.7917C43.0849 56.7904 43.0881 56.7889 43.0914 56.7876L45.6002 55.6967C48.3928 54.4827 50.3663 51.996 50.9646 49.0902C52.1891 49.4462 53.4816 49.6409 54.8196 49.6409H59.4019C60.7449 49.6409 62.0423 49.4447 63.2709 49.086C63.8889 51.9786 65.8699 54.4429 68.6638 55.6414L71.3413 56.7889L71.3464 56.791L71.5448 56.8759V60.0403C66.9936 61.3963 62.2884 62.1257 57.5424 62.2086ZM71.5444 62.9683V66.6565H42.675V63.229C47.2339 64.4243 51.9146 65.0292 56.6271 65.0292C56.9484 65.0292 57.27 65.0263 57.5916 65.0207C62.3147 64.9382 66.9992 64.248 71.5444 62.9683ZM76.4831 22.332C72.6096 22.8553 68.2433 21.8177 65.235 19.4869C64.6213 19.0114 63.738 19.1232 63.2621 19.7372C62.7864 20.3511 62.8986 21.2344 63.5124 21.7101C65.4791 23.2337 67.8512 24.307 70.4196 24.8481V32.5039C69.7438 34.044 68.9916 35.3248 67.2956 36.724C66.5816 37.3131 65.8001 37.8023 64.9631 38.1904C64.2797 36.8567 62.8916 35.9413 61.293 35.9413H57.9975C55.7244 35.9413 53.8753 37.7907 53.8753 40.0635C53.8753 42.3364 55.7244 44.1857 57.9975 44.1857H61.293C63.2059 44.1857 64.8184 42.8758 65.2813 41.1062C67.1625 40.3894 70.2306 37.8313 70.2306 37.8313C69.2783 42.9439 64.7865 46.8276 59.4021 46.8276H54.8194C48.7444 46.8276 43.8019 41.8853 43.8019 35.8101V24.94C48.5781 24.1913 53.0903 22.575 57.2284 20.1274C63.5291 16.4005 67.5707 11.5303 70.0097 7.68266C74.1829 11.3995 76.5568 16.728 76.4831 22.332ZM62.6023 40.0675C62.6003 40.788 62.0137 41.3736 61.2928 41.3736H57.9973C57.2751 41.3736 56.6876 40.786 56.6876 40.0639C56.6876 39.3418 57.2753 38.7542 57.9973 38.7542H61.2928C62.0136 38.7542 62.5999 39.3394 62.6023 40.0596V40.0675ZM37.92 22.0932C37.92 11.4617 46.5692 2.81253 57.2006 2.81253C61.0134 2.81253 64.6569 3.91316 67.7704 5.96216C65.5258 9.56009 61.7479 14.1868 55.7964 17.7073C51.7136 20.1223 47.2352 21.6642 42.4851 22.29H42.3973H42.3954H42.3936H37.9198L37.92 22.0932ZM32.4572 49.1644C31.0312 46.1273 31.4764 42.637 33.6173 40.0577C36.3036 36.8213 37.923 32.8223 37.92 28.6125V25.1025H40.9894V35.8107C40.9894 41.0773 43.9494 45.6647 48.2923 47.9997C48.0206 50.242 46.5864 52.2008 44.4786 53.1173L42.2458 54.0882H40.2075C36.8531 54.0882 33.8835 52.2015 32.4572 49.1644ZM81.411 71.0233L79.0614 93.1875H36.5756L34.2261 71.0233C34.1835 70.6215 34.3088 70.2349 34.5789 69.9347C34.8491 69.6343 35.2206 69.469 35.6244 69.469H80.0126C80.4165 69.469 80.7879 69.6343 81.0581 69.9347C81.3283 70.2349 81.4536 70.6215 81.411 71.0233ZM90.375 93.1875H81.8897L84.2078 71.32C84.3338 70.1322 83.9477 68.9417 83.1491 68.0537C82.3502 67.1657 81.2072 66.6565 80.0126 66.6565H74.3569V58.0815L83.7883 62.1238C87.7896 63.8976 90.375 67.8705 90.375 72.2457V93.1875Z" fill="white"/>
</g>
<defs>
<clipPath id="clip0_1760_118265">
<rect width="96" height="96" fill="white"/>
</clipPath>
</defs>
</svg>
