<svg width="72" height="72" viewBox="0 0 72 72" fill="none" xmlns="http://www.w3.org/2000/svg">
<g clip-path="url(#clip0_1091_277413)">
<path d="M16.4493 13.285C17.0318 13.285 17.504 12.8128 17.504 12.2303C17.504 11.6479 17.0318 11.1756 16.4493 11.1756C15.8669 11.1756 15.3946 11.6479 15.3946 12.2303C15.3946 12.8128 15.8667 13.285 16.4493 13.285ZM8.01183 13.285C8.5943 13.285 9.06652 12.8128 9.06652 12.2303C9.06652 11.6479 8.5943 11.1756 8.01183 11.1756C7.42936 11.1756 6.95714 11.6479 6.95714 12.2303C6.95714 12.8128 7.42922 13.285 8.01183 13.285ZM12.2306 13.285C12.813 13.285 13.2853 12.8128 13.2853 12.2303C13.2853 11.6479 12.813 11.1756 12.2306 11.1756C11.6481 11.1756 11.1759 11.6479 11.1759 12.2303C11.1759 12.8128 11.648 13.285 12.2306 13.285ZM11.9993 24.4581C12.0057 24.4582 12.0122 24.4582 12.0187 24.4582L21.5543 24.4606H21.5549C22.2137 24.4606 22.773 24.0338 22.9469 23.3985C23.121 22.7629 22.8568 22.1105 22.2898 21.7751L20.8395 20.917C23.1705 18.6067 24.4815 15.4544 24.4607 12.1517C24.419 5.54684 19.0131 0.0963519 12.4102 0.00128942C5.56805 -0.0970075 0 5.43757 0 12.2306C0 18.7448 5.36738 24.317 11.9993 24.4581ZM5.12578 5.02216C7.07063 3.10516 9.64125 2.07227 12.3799 2.11038C17.8436 2.18899 22.3168 6.6994 22.3514 12.1649C22.3701 15.1137 21.1056 17.9179 18.882 19.8582C18.5102 20.1825 18.3154 20.6692 18.3604 21.1602C18.4054 21.6508 18.6857 22.0935 19.1097 22.3442L19.1202 22.3504L12.0291 22.3487C6.54722 22.2435 2.10938 17.7275 2.10938 12.2306C2.10938 9.49953 3.18066 6.93959 5.12578 5.02216ZM70.9453 69.8907H69.8906V54.1842C69.8906 50.0693 67.4591 46.3326 63.6841 44.6593L58.1258 42.277C59.4783 41.8502 60.7002 41.0891 61.6944 40.0334C63.1945 38.4409 64.0547 36.2799 64.0547 34.1045C64.0547 32.1057 63.3563 30.2191 62.0349 28.6482C60.382 26.6854 59.4717 24.191 59.4717 21.6241V16.57C59.4717 12.1434 57.7478 7.9826 54.6178 4.85412C51.4877 1.72381 47.3265 2.3798e-05 42.9005 2.3798e-05C33.7638 2.3798e-05 26.3306 7.43318 26.3306 16.5699V21.4594C26.3312 24.1155 25.2873 26.6509 23.5911 28.6946C21.4563 31.2666 21.0128 34.7441 22.4338 37.7699C23.4885 40.016 25.3908 41.6297 27.6682 42.3127L22.1487 44.7129C18.2763 46.3424 15.774 50.1099 15.774 54.311V66.7267C15.774 67.3092 16.2461 67.7814 16.8287 67.7814C17.4113 67.7814 17.8834 67.3092 17.8834 66.7267V54.311C17.8834 50.961 19.8787 47.9565 22.9784 46.6522L29.8969 43.6437V49.9922H26.7183C25.8225 49.9922 24.9652 50.3742 24.366 51.0402C23.7669 51.7062 23.4775 52.599 23.572 53.4897L25.3105 69.8907H1.05469C0.472078 69.8907 0 70.3629 0 70.9453C0 71.5278 0.472078 72 1.05469 72H70.9453C71.5279 72 72 71.5278 72 70.9453C72 70.3629 71.5279 69.8907 70.9453 69.8907ZM60.4211 30.0063C61.4183 31.1918 61.9453 32.6089 61.9453 34.1044C61.9453 35.7479 61.2942 37.3817 60.159 38.5871C58.9569 39.8633 57.3055 40.5661 55.509 40.5661H54.1346L52.3291 39.7923C50.752 39.1159 49.6731 37.6659 49.4526 35.9968C52.7068 34.2446 54.924 30.8058 54.924 26.858V18.9291C55.2327 18.9501 55.5411 18.9615 55.8487 18.9615C56.3559 18.9615 56.8612 18.9326 57.3625 18.8758V21.6239C57.3623 24.6873 58.4488 27.6643 60.4211 30.0063ZM43.1568 46.6565C39.3837 46.7232 35.639 46.2451 32.0063 45.2375V42.7264L32.3113 42.5938C32.3137 42.5928 32.316 42.5917 32.3186 42.5907L34.2001 41.7725C36.2946 40.862 37.7747 38.997 38.2234 36.8176C39.1418 37.0847 40.1112 37.2306 41.1147 37.2306H44.5514C45.5587 37.2306 46.5317 37.0835 47.4532 36.8145C47.9167 38.984 49.4024 40.8322 51.4979 41.7311L53.506 42.5917C53.5073 42.5922 53.5085 42.5928 53.5098 42.5932L53.6586 42.6569V45.0303C50.2452 46.0473 46.7163 46.5943 43.1568 46.6565ZM53.6583 47.2263V49.9924H32.0063V47.4217C35.4254 48.3182 38.936 48.7719 42.4703 48.7719C42.7113 48.7719 42.9525 48.7698 43.1937 48.7655C46.736 48.7037 50.2494 48.186 53.6583 47.2263ZM57.3623 16.749C54.4572 17.1415 51.1824 16.3633 48.9263 14.6152C48.466 14.2586 47.8035 14.3424 47.4466 14.8029C47.0898 15.2633 47.1739 15.9258 47.6343 16.2826C49.1093 17.4253 50.8884 18.2302 52.8147 18.6361V24.3779C52.3079 25.533 51.7437 26.4936 50.4717 27.543C49.9362 27.9848 49.3501 28.3517 48.7223 28.6428C48.2098 27.6425 47.1687 26.956 45.9697 26.956H43.4981C41.7933 26.956 40.4065 28.343 40.4065 30.0477C40.4065 31.7523 41.7933 33.1393 43.4981 33.1393H45.9697C47.4044 33.1393 48.6138 32.1569 48.961 30.8297C50.3719 30.2921 52.6724 28.3742 52.6729 28.3735C51.9587 32.2079 48.5899 35.1207 44.5515 35.1207H41.1145C36.5583 35.1207 32.8514 31.414 32.8514 26.8576V18.705C36.4335 18.1435 39.8177 16.9313 42.9213 15.0956C47.6468 12.3004 50.678 8.64776 52.5073 5.76199C55.6372 8.5496 57.4176 12.546 57.3623 16.749ZM46.9517 30.0506C46.9502 30.591 46.5103 31.0302 45.9696 31.0302H43.498C42.9563 31.0302 42.5157 30.5895 42.5157 30.0479C42.5157 29.5064 42.9564 29.0657 43.498 29.0657H45.9696C46.5102 29.0657 46.9499 29.5046 46.9517 30.0447V30.0506ZM28.44 16.5699C28.44 8.59629 34.9269 2.1094 42.9005 2.1094C45.7601 2.1094 48.4927 2.93487 50.8278 4.47162C49.1444 7.17007 46.3109 10.6401 41.8473 13.2805C38.7852 15.0918 35.4264 16.2481 31.8638 16.7175H31.798C31.7976 16.7175 31.7971 16.7175 31.7966 16.7175C31.796 16.7175 31.7957 16.7175 31.7952 16.7175H28.4399V16.5699H28.44ZM24.3429 36.8733C23.2734 34.5955 23.6073 31.9777 25.2129 30.0433C27.2277 27.616 28.4423 24.6167 28.44 21.4594V18.8269H30.742V26.858C30.742 30.808 32.9621 34.2485 36.2192 35.9997C36.0155 37.6815 34.9398 39.1506 33.3589 39.838L31.6844 40.5661H30.1556C27.6398 40.5661 25.4126 39.1512 24.3429 36.8733ZM61.0582 53.2675L59.2961 69.8907H27.4317L25.6695 53.2675C25.6376 52.9662 25.7316 52.6762 25.9342 52.451C26.1368 52.2258 26.4154 52.1017 26.7183 52.1017H60.0095C60.3124 52.1017 60.591 52.2258 60.7936 52.451C60.9962 52.6762 61.0902 52.9662 61.0582 53.2675ZM67.7812 69.8907H61.4173L63.1558 53.49C63.2503 52.5991 62.9608 51.7063 62.3618 51.0403C61.7626 50.3743 60.9054 49.9924 60.0095 49.9924H55.7677V43.5612L62.8412 46.5929C65.8422 47.9232 67.7812 50.9029 67.7812 54.1842V69.8907ZM43.3638 56.9883C41.1539 56.9883 39.356 58.7862 39.356 60.9961C39.356 63.206 41.1539 65.0039 43.3638 65.0039C45.5737 65.0039 47.3716 63.206 47.3716 60.9961C47.3716 58.7862 45.5737 56.9883 43.3638 56.9883ZM43.3638 62.8946C42.317 62.8946 41.4654 62.0429 41.4654 60.9961C41.4654 59.9493 42.317 59.0977 43.3638 59.0977C44.4106 59.0977 45.2623 59.9493 45.2623 60.9961C45.2623 62.0429 44.4108 62.8946 43.3638 62.8946Z" fill="#E6B400"/>
<path d="M70.9453 69.8907H69.8906V54.1842C69.8906 50.0693 67.4591 46.3326 63.6841 44.6593L58.1258 42.277C59.4783 41.8502 60.7002 41.0891 61.6944 40.0334C63.1945 38.4409 64.0547 36.2799 64.0547 34.1045C64.0547 32.1057 63.3563 30.2191 62.0349 28.6481C60.382 26.6854 59.4717 24.191 59.4717 21.6241V16.57C59.4717 12.1434 57.7478 7.9826 54.6178 4.85412C51.4877 1.72381 47.3265 2.3798e-05 42.9005 2.3798e-05C33.7638 2.3798e-05 26.3306 7.43318 26.3306 16.5699V21.4594C26.3312 24.1155 25.2873 26.6509 23.5911 28.6946C21.4563 31.2666 21.0128 34.7441 22.4338 37.7699C23.4885 40.016 25.3908 41.6297 27.6683 42.3127L22.1487 44.7129C18.2763 46.3424 15.774 50.1099 15.774 54.3109V66.7267C15.774 67.3092 16.2461 67.7814 16.8287 67.7814C17.4113 67.7814 17.8834 67.3092 17.8834 66.7267V54.3109C17.8834 50.961 19.8787 47.9565 22.9784 46.6522L29.8969 43.6437V49.9922H26.7183C25.8225 49.9922 24.9652 50.3742 24.366 51.0402C23.7669 51.7062 23.4775 52.599 23.572 53.4897L25.3105 69.8907H1.05469C0.472078 69.8907 0 70.3629 0 70.9453C0 71.5278 0.472078 72 1.05469 72H70.9453C71.5279 72 72 71.5278 72 70.9453C72 70.3629 71.5279 69.8907 70.9453 69.8907ZM60.4211 30.0063C61.4183 31.1918 61.9453 32.6089 61.9453 34.1044C61.9453 35.7479 61.2942 37.3817 60.159 38.5871C58.9569 39.8633 57.3055 40.5661 55.509 40.5661H54.1346L52.3291 39.7923C50.752 39.1159 49.6731 37.6659 49.4526 35.9968C52.7068 34.2446 54.9241 30.8058 54.9241 26.858V18.9291C55.2327 18.9501 55.5411 18.9615 55.8487 18.9615C56.3559 18.9615 56.8612 18.9326 57.3625 18.8758V21.6239C57.3623 24.6873 58.4488 27.6643 60.4211 30.0063ZM43.1568 46.6564C39.3837 46.7232 35.639 46.2451 32.0063 45.2375V42.7264L32.3113 42.5938C32.3137 42.5928 32.316 42.5917 32.3186 42.5907L34.2001 41.7725C36.2946 40.862 37.7747 38.997 38.2234 36.8176C39.1418 37.0847 40.1112 37.2306 41.1147 37.2306H44.5514C45.5587 37.2306 46.5317 37.0835 47.4532 36.8145C47.9167 38.9839 49.4024 40.8322 51.4979 41.7311L53.506 42.5917L53.5098 42.5932L53.6586 42.6569V45.0303C50.2452 46.0473 46.7163 46.5943 43.1568 46.6564ZM53.6583 47.2263V49.9924H32.0063V47.4217C35.4254 48.3182 38.936 48.7719 42.4703 48.7719C42.7113 48.7719 42.9525 48.7698 43.1937 48.7655C46.736 48.7037 50.2494 48.186 53.6583 47.2263ZM57.3623 16.749C54.4572 17.1415 51.1824 16.3633 48.9263 14.6152C48.466 14.2586 47.8035 14.3424 47.4466 14.8029C47.0898 15.2633 47.1739 15.9258 47.6343 16.2826C49.1093 17.4253 50.8884 18.2302 52.8147 18.6361V24.3779C52.3079 25.533 51.7437 26.4936 50.4717 27.543C49.9362 27.9848 49.3501 28.3517 48.7223 28.6428C48.2098 27.6425 47.1687 26.956 45.9697 26.956H43.4981C41.7933 26.956 40.4065 28.343 40.4065 30.0476C40.4065 31.7523 41.7933 33.1393 43.4981 33.1393H45.9697C47.4044 33.1393 48.6138 32.1569 48.961 30.8297C50.3719 30.2921 52.6729 28.3735 52.6729 28.3735C51.9587 32.2079 48.5899 35.1207 44.5515 35.1207H41.1145C36.5583 35.1207 32.8514 31.414 32.8514 26.8576V18.705C36.4335 18.1435 39.8177 16.9313 42.9213 15.0956C47.6468 12.3004 50.678 8.64776 52.5073 5.76199C55.6372 8.5496 57.4176 12.546 57.3623 16.749ZM46.9517 30.0506C46.9502 30.591 46.5103 31.0302 45.9696 31.0302H43.498C42.9563 31.0302 42.5157 30.5895 42.5157 30.0479C42.5157 29.5064 42.9564 29.0657 43.498 29.0657H45.9696C46.5102 29.0657 46.9499 29.5046 46.9517 30.0447V30.0506ZM28.44 16.5699C28.44 8.59629 34.9269 2.1094 42.9005 2.1094C45.7601 2.1094 48.4927 2.93487 50.8278 4.47162C49.1444 7.17007 46.3109 10.6401 41.8473 13.2805C38.7852 15.0918 35.4264 16.2481 31.8638 16.7175H31.798H31.7966H31.7952H28.4399L28.44 16.5699ZM24.3429 36.8733C23.2734 34.5955 23.6073 31.9777 25.2129 30.0433C27.2277 27.616 28.4423 24.6167 28.44 21.4594V18.8269H30.742V26.858C30.742 30.808 32.9621 34.2485 36.2192 35.9997C36.0155 37.6815 34.9398 39.1506 33.3589 39.838L31.6844 40.5661H30.1556C27.6398 40.5661 25.4126 39.1511 24.3429 36.8733ZM61.0583 53.2675L59.2961 69.8907H27.4317L25.6695 53.2675C25.6376 52.9662 25.7316 52.6762 25.9342 52.451C26.1368 52.2258 26.4154 52.1017 26.7183 52.1017H60.0095C60.3124 52.1017 60.591 52.2258 60.7936 52.451C60.9962 52.6762 61.0902 52.9662 61.0583 53.2675ZM67.7812 69.8907H61.4173L63.1558 53.49C63.2503 52.5991 62.9608 51.7063 62.3618 51.0403C61.7626 50.3743 60.9054 49.9924 60.0095 49.9924H55.7677V43.5612L62.8412 46.5929C65.8422 47.9232 67.7812 50.9029 67.7812 54.1842V69.8907Z" fill="white"/>
</g>
<defs>
<clipPath id="clip0_1091_277413">
<rect width="72" height="72" fill="white"/>
</clipPath>
</defs>
</svg>
