<svg width="72" height="72" viewBox="0 0 72 72" fill="none" xmlns="http://www.w3.org/2000/svg">
<g clip-path="url(#clip0_1091_277419)">
<path d="M60.7354 19.0625H49.6758C49.0932 19.0625 48.6211 19.5346 48.6211 20.1172C48.6211 20.6998 49.0932 21.1719 49.6758 21.1719H60.7354C61.318 21.1719 61.7901 20.6998 61.7901 20.1172C61.7901 19.5346 61.3178 19.0625 60.7354 19.0625Z" fill="#E6B400"/>
<path d="M61.7901 25.4219C61.7901 24.8393 61.318 24.3672 60.7354 24.3672H49.6758C49.0932 24.3672 48.6211 24.8393 48.6211 25.4219C48.6211 26.0045 49.0932 26.4766 49.6758 26.4766H60.7354C61.3178 26.4766 61.7901 26.0043 61.7901 25.4219Z" fill="#E6B400"/>
<path d="M49.6758 29.6719C49.0932 29.6719 48.6211 30.144 48.6211 30.7266C48.6211 31.3092 49.0932 31.7812 49.6758 31.7812H56.9831C57.5657 31.7812 58.0378 31.3092 58.0378 30.7266C58.0378 30.144 57.5657 29.6719 56.9831 29.6719H49.6758Z" fill="#E6B400"/>
<path d="M69.7373 64.6112H63.7789V46.5947C63.7789 45.7805 63.1166 45.1181 62.3024 45.1181H37.0484V41.9002C37.0484 41.3176 36.5763 40.8455 35.9937 40.8455C35.4111 40.8455 34.939 41.3176 34.939 41.9002V45.1181H15.2293V30.25H20.96V34.3011C20.96 35.1153 21.6224 35.7777 22.4366 35.7777H27.7317C28.5459 35.7777 29.2082 35.1153 29.2082 34.3011V30.25H34.939V36.9783C34.939 37.561 35.4111 38.033 35.9937 38.033C36.5763 38.033 37.0484 37.561 37.0484 36.9783V29.6172C37.0484 28.803 36.386 28.1406 35.5718 28.1406H14.5965C13.7822 28.1406 13.1199 28.803 13.1199 29.6172V45.1181H9.68498C8.87076 45.1181 8.20842 45.7805 8.20842 46.5947V64.6112H2.25C1.43578 64.6112 0.773438 65.2735 0.773438 66.0877V70.5174C0.773438 71.3316 1.43578 71.994 2.25 71.994H69.7373C70.5516 71.994 71.2139 71.3316 71.2139 70.5174V66.0877C71.2139 65.2735 70.5516 64.6112 69.7373 64.6112ZM23.0694 30.2501H27.0989V33.6683H23.0694V30.2501ZM49.7999 47.2275H53.8294V50.6458H49.7999V47.2275ZM22.7181 47.2275H27.4501V50.6458H22.7181V47.2275ZM10.3178 47.2275H20.6087V51.2786C20.6087 52.0929 21.2711 52.7552 22.0853 52.7552H28.083C28.8972 52.7552 29.5595 52.0929 29.5595 51.2786V47.2275H39.8504V64.6112H10.3178V47.2275ZM69.1045 69.8846H2.88281V66.7205H53.5718C54.1544 66.7205 54.6265 66.2485 54.6265 65.6658C54.6265 65.0832 54.1544 64.6112 53.5718 64.6112H41.9598V47.2275H47.6906V51.2786C47.6906 52.0929 48.3529 52.7552 49.1671 52.7552H54.4622C55.2764 52.7552 55.9388 52.0929 55.9388 51.2786V47.2275H61.6695V64.6112H58.4937C57.9111 64.6112 57.439 65.0832 57.439 65.6658C57.439 66.2485 57.9111 66.7205 58.4937 66.7205H69.1045V69.8846Z" fill="white"/>
<path d="M42.0198 18.5055V37.6972C42.0198 38.5114 42.6821 39.1738 43.4964 39.1738H66.9127C67.7269 39.1738 68.3892 38.5114 68.3892 37.6972V28.125C68.3892 27.5424 67.9172 27.0703 67.3345 27.0703C66.7519 27.0703 66.2799 27.5424 66.2799 28.125V37.0644H44.1292V18.7494C44.1317 18.7494 44.1341 18.7495 44.1366 18.7495C46.7854 18.7495 49.1794 17.6434 50.8861 15.8709H60.7343C61.3169 15.8709 61.789 15.3989 61.789 14.8162C61.789 14.2336 61.3169 13.7616 60.7343 13.7616H52.4182C53.1148 12.4518 53.5113 10.9589 53.5113 9.37476C53.5113 9.07369 53.4956 8.77627 53.4677 8.48222H66.2797V23.2031C66.2797 23.7857 66.7518 24.2578 67.3344 24.2578C67.917 24.2578 68.3891 23.7857 68.3891 23.2031V7.84941C68.3891 7.03519 67.7268 6.37284 66.9125 6.37284H53.0154C51.7608 2.67202 48.256 0 44.1365 0C38.9673 0 34.7617 4.20553 34.7617 9.37476C34.7617 13.8158 37.867 17.543 42.0198 18.5055ZM44.1365 2.10937C48.1426 2.10937 51.4019 5.36864 51.4019 9.37476C51.4019 13.3809 48.1426 16.6402 44.1365 16.6402C40.1304 16.6402 36.8711 13.3809 36.8711 9.37476C36.8711 5.36864 40.1304 2.10937 44.1365 2.10937Z" fill="#E6B400"/>
<path d="M42.8609 12.48C43.0669 12.6858 43.3368 12.7888 43.6068 12.7888C43.8767 12.7888 44.1467 12.6858 44.3525 12.48L48.6416 8.19105C49.0536 7.77902 49.0536 7.11133 48.6417 6.69944C48.2299 6.28783 47.562 6.28755 47.1503 6.69944L43.6069 10.2426L41.1208 7.75638C40.7088 7.34463 40.0411 7.34463 39.6292 7.75638C39.2173 8.16841 39.2173 8.83609 39.6292 9.24798L42.8609 12.48Z" fill="#E6B400"/>
</g>
<defs>
<clipPath id="clip0_1091_277419">
<rect width="72" height="72" fill="white"/>
</clipPath>
</defs>
</svg>
