<svg width="72" height="72" viewBox="0 0 72 72" fill="none" xmlns="http://www.w3.org/2000/svg">
<path fill-rule="evenodd" clip-rule="evenodd" d="M67.6891 47.7118L53.4105 36.7928V8.12334C53.4105 7.88465 53.3157 7.65573 53.1469 7.48695C52.9781 7.31816 52.7492 7.22334 52.5105 7.22334H42.6105L37.9028 2.51241C37.7343 2.34456 37.5062 2.25022 37.2684 2.25H4.09922C3.86052 2.25 3.63161 2.34482 3.46282 2.5136C3.29404 2.68239 3.19922 2.91131 3.19922 3.15V59.625C3.20044 59.863 3.29578 60.0908 3.46441 60.2586C3.63304 60.4265 3.86126 60.5209 4.09922 60.5211H8.01098V64.6045C8.01202 64.8425 8.10731 65.0704 8.27598 65.2384C8.44465 65.4063 8.67297 65.5006 8.91098 65.5006H37.3046V67.3763C37.3048 68.0058 37.5549 68.6094 38 69.0545C38.4452 69.4997 39.0488 69.7498 39.6783 69.75H61.0605C61.6892 69.749 62.2918 69.4987 62.7362 69.054C63.1806 68.6094 63.4306 68.0066 63.4313 67.3779V51.6126L64.2369 52.2283C64.5335 52.4549 64.8718 52.621 65.2325 52.7169C65.5932 52.8128 65.9693 52.8368 66.3393 52.7873C66.7093 52.7379 67.0659 52.6161 67.3888 52.4289C67.7117 52.2416 67.9945 51.9926 68.2212 51.6961C68.4479 51.3995 68.6139 51.0612 68.7098 50.7005C68.8057 50.3398 68.8297 49.9637 68.7803 49.5937C68.7308 49.2237 68.609 48.8671 68.4218 48.5442C68.2346 48.2213 67.9855 47.9385 67.689 47.7118H67.6891ZM51.6175 9.01969V35.5289C51.1276 35.3351 50.5985 35.2607 50.0741 35.3117C49.5497 35.3627 49.045 35.5377 48.6015 35.8223C48.6015 28.409 48.6015 20.9955 48.6015 13.582C48.6015 13.4644 48.5783 13.348 48.5333 13.2394C48.4882 13.1309 48.4222 13.0322 48.339 12.9492L44.4094 9.01969H51.6175ZM38.1646 5.31L45.5415 12.6868H38.1646V5.31ZM4.99542 4.04255H36.3724V13.5834C36.3724 13.8221 36.4672 14.051 36.636 14.2198C36.8048 14.3886 37.0337 14.4834 37.2724 14.4834H46.8091V37.1872L35.6591 45.7147H21.916C21.7974 45.7132 21.6796 45.7353 21.5696 45.7796C21.4596 45.824 21.3594 45.8898 21.275 45.9731C21.1906 46.0565 21.1236 46.1558 21.0779 46.2652C21.0321 46.3747 21.0086 46.4922 21.0086 46.6108C21.0086 46.7294 21.0321 46.8469 21.0779 46.9563C21.1236 47.0658 21.1906 47.1651 21.275 47.2485C21.3594 47.3318 21.4596 47.3976 21.5696 47.442C21.6796 47.4863 21.7974 47.5084 21.916 47.5069H33.3157L33.048 47.7118C32.7019 47.9773 32.4214 48.3188 32.2284 48.71C32.0354 49.1012 31.9349 49.5315 31.9348 49.9677C31.9348 50.0155 31.9365 50.064 31.9385 50.1117H21.9158C21.7972 50.1102 21.6795 50.1323 21.5694 50.1767C21.4594 50.2211 21.3593 50.2868 21.2749 50.3702C21.1905 50.4535 21.1235 50.5528 21.0777 50.6623C21.032 50.7718 21.0084 50.8892 21.0084 51.0079C21.0084 51.1265 21.032 51.2439 21.0777 51.3534C21.1235 51.4629 21.1905 51.5622 21.2749 51.6455C21.3593 51.7289 21.4594 51.7947 21.5694 51.839C21.6795 51.8834 21.7972 51.9055 21.9158 51.904H32.6886C33.1702 52.4216 33.8272 52.7416 34.5317 52.8018C35.2361 52.862 35.9378 52.6581 36.5003 52.2297L37.305 51.614V58.7334H4.995V4.04255H4.99542ZM9.80353 63.7086V60.525H37.3051V63.7095L9.80353 63.7086ZM52.6615 67.9575H48.0736V58.2936H52.6615V67.9575ZM61.6375 67.3782C61.6356 67.5311 61.5741 67.6771 61.4661 67.7853C61.3581 67.8935 61.2121 67.9551 61.0592 67.9572H54.4534V57.3975C54.4534 57.1594 54.3591 56.9311 54.1911 56.7624C54.0231 56.5937 53.7951 56.4985 53.557 56.4975H47.1783C46.9396 56.4975 46.7107 56.5923 46.5419 56.7611C46.3731 56.9299 46.2783 57.1588 46.2783 57.3975V67.9577H39.6783C39.5254 67.9556 39.3794 67.8939 39.2714 67.7857C39.1634 67.6775 39.1019 67.5314 39.1001 67.3785V50.2418L50.3681 41.625L61.6371 50.2418V67.3782H61.6375ZM65.9614 51.0179C65.7314 51.0179 65.5077 50.9428 65.3244 50.8039L50.9126 39.7837C50.7563 39.6639 50.5649 39.599 50.3681 39.599C50.1712 39.599 49.9798 39.6639 49.8236 39.7837L35.4113 50.8044C35.3018 50.8882 35.1768 50.9495 35.0436 50.985C34.9104 51.0204 34.7714 51.0293 34.6348 51.011C34.4981 50.9928 34.3664 50.9478 34.2471 50.8786C34.1278 50.8095 34.0233 50.7175 33.9396 50.608C33.8558 50.4984 33.7945 50.3735 33.759 50.2402C33.7236 50.107 33.7147 49.9681 33.733 49.8314C33.7512 49.6947 33.7962 49.563 33.8653 49.4437C33.9345 49.3244 34.0265 49.2199 34.136 49.1362L49.6143 37.2994C50.0003 37.0057 50.7404 37.006 51.1246 37.2968L66.6032 49.1365C66.8234 49.3062 66.9676 49.5561 67.0043 49.8317C67.0411 50.1073 66.9673 50.3862 66.7993 50.6077C66.6953 50.73 66.5672 50.8295 66.4231 50.9002C66.2789 50.9708 66.1218 51.011 65.9614 51.0182V51.0179ZM21.0199 19.8844C21.0199 19.7662 21.0432 19.6492 21.0884 19.54C21.1337 19.4308 21.2 19.3316 21.2835 19.248C21.3671 19.1644 21.4663 19.0981 21.5755 19.0529C21.6847 19.0077 21.8017 18.9844 21.9199 18.9844H42.0694C42.2931 19.0046 42.5012 19.1078 42.6528 19.2737C42.8043 19.4395 42.8883 19.6561 42.8883 19.8807C42.8883 20.1054 42.8043 20.3219 42.6528 20.4878C42.5012 20.6536 42.2931 20.7568 42.0694 20.7771H21.916C21.6792 20.776 21.4524 20.6818 21.2847 20.5147C21.117 20.3476 21.0218 20.1211 21.0199 19.8844ZM21.9199 23.3795H42.0694C42.2928 23.4001 42.5005 23.5034 42.6517 23.6692C42.803 23.835 42.8868 24.0513 42.8868 24.2757C42.8868 24.5001 42.803 24.7164 42.6517 24.8822C42.5005 25.048 42.2928 25.1513 42.0694 25.1719H21.916C20.7277 25.167 20.7322 23.3795 21.9202 23.3795H21.9199ZM17.4199 26.8204H9.73645C9.49841 26.8204 9.27007 26.7261 9.1014 26.5582C8.93272 26.3902 8.83746 26.1623 8.83645 25.9242V18.2398C8.83645 18.0011 8.93127 17.7722 9.10006 17.6034C9.26884 17.4346 9.49776 17.3398 9.73645 17.3398H17.4205C17.6592 17.3398 17.8881 17.4346 18.0569 17.6034C18.2257 17.7722 18.3205 18.0011 18.3205 18.2398V25.9204C18.3205 26.1591 18.2257 26.388 18.0569 26.5568C17.8881 26.7256 17.6592 26.8204 17.4205 26.8204H17.4199ZM10.6362 19.1362H16.5274V25.0284H10.6324L10.6362 19.1362ZM21.0199 33.2475C21.0201 33.0089 21.115 32.7801 21.2837 32.6114C21.4525 32.4426 21.6813 32.3477 21.9199 32.3475H42.0694C42.2937 32.367 42.5027 32.4699 42.6549 32.6359C42.8071 32.8019 42.8915 33.019 42.8915 33.2442C42.8915 33.4694 42.8071 33.6864 42.6549 33.8524C42.5027 34.0184 42.2937 34.1213 42.0694 34.1408H21.916C21.6791 34.1398 21.4522 34.0454 21.2845 33.8782C21.1168 33.711 21.0217 33.4844 21.0199 33.2475ZM21.9199 36.7421H42.0691C42.1937 36.7306 42.3194 36.7452 42.438 36.785C42.5567 36.8249 42.6657 36.889 42.7582 36.9733C42.8506 37.0577 42.9245 37.1604 42.975 37.2749C43.0256 37.3894 43.0517 37.5131 43.0517 37.6383C43.0517 37.7634 43.0256 37.8872 42.975 38.0017C42.9245 38.1162 42.8506 38.2189 42.7582 38.3032C42.6657 38.3876 42.5567 38.4517 42.438 38.4915C42.3194 38.5313 42.1937 38.546 42.0691 38.5345H21.916C20.7277 38.5291 20.7325 36.7415 21.9202 36.7415L21.9199 36.7421ZM17.4199 40.1833H9.73645C9.49851 40.1833 9.27025 40.0891 9.10159 39.9213C8.93293 39.7534 8.8376 39.5256 8.83645 39.2877V31.6038C8.83645 31.3651 8.93127 31.1362 9.10006 30.9674C9.26884 30.7986 9.49776 30.7038 9.73645 30.7038H17.4205C17.6592 30.7038 17.8881 30.7986 18.0569 30.9674C18.2257 31.1362 18.3205 31.3651 18.3205 31.6038V39.2833C18.3205 39.522 18.2257 39.7509 18.0569 39.9197C17.8881 40.0885 17.6592 40.1833 17.4205 40.1833H17.4199ZM10.6362 32.4998H16.5274V38.3906H10.6324L10.6362 32.4994V32.4998ZM17.4202 53.55C17.4202 53.55 10.389 53.55 9.73645 53.55C9.49781 53.5498 9.269 53.4549 9.10026 53.2862C8.93152 53.1174 8.83664 52.8886 8.83645 52.65V44.966C8.83645 44.7273 8.93127 44.4984 9.10006 44.3296C9.26884 44.1608 9.49776 44.066 9.73645 44.066H17.4205C17.6592 44.066 17.8881 44.1608 18.0569 44.3296C18.2257 44.4984 18.3205 44.7273 18.3205 44.966V52.6532C18.3195 52.8913 18.2243 53.1193 18.0556 53.2873C17.8869 53.4553 17.6585 53.5496 17.4205 53.5496L17.4202 53.55ZM10.6362 45.8662H16.5274V51.7575H10.6324L10.6362 45.8662Z" fill="white"/>
<path fill-rule="evenodd" clip-rule="evenodd" d="M21.0155 19.8805C21.0155 19.7624 21.0388 19.6453 21.084 19.5361C21.1292 19.4269 21.1955 19.3277 21.2791 19.2442C21.3627 19.1606 21.4619 19.0943 21.5711 19.0491C21.6803 19.0038 21.7973 18.9805 21.9155 18.9805H42.065C42.2887 19.0008 42.4968 19.104 42.6483 19.2698C42.7999 19.4357 42.8839 19.6522 42.8839 19.8769C42.8839 20.1016 42.7999 20.3181 42.6483 20.484C42.4968 20.6498 42.2887 20.753 42.065 20.7732H21.9116C21.6748 20.7722 21.448 20.6779 21.2803 20.5108C21.1125 20.3437 21.0174 20.1173 21.0155 19.8805ZM21.9155 23.3756H42.065C42.2884 23.3962 42.4961 23.4996 42.6473 23.6653C42.7985 23.8311 42.8824 24.0474 42.8824 24.2718C42.8824 24.4962 42.7985 24.7125 42.6473 24.8783C42.4961 25.0441 42.2884 25.1475 42.065 25.168H21.9116C20.7233 25.1631 20.7275 23.3756 21.9155 23.3756ZM17.4155 26.8166H9.73203C9.49399 26.8166 9.26565 26.7223 9.09697 26.5543C8.9283 26.3864 8.83304 26.1584 8.83203 25.9204V18.2359C8.83203 17.9972 8.92685 17.7683 9.09564 17.5995C9.26442 17.4308 9.49334 17.3359 9.73203 17.3359H17.4161C17.6548 17.3359 17.8837 17.4308 18.0525 17.5995C18.2212 17.7683 18.3161 17.9972 18.3161 18.2359V25.9166C18.3161 26.1553 18.2212 26.3842 18.0525 26.553C17.8837 26.7218 17.6542 26.8166 17.4155 26.8166ZM10.6317 19.1324H16.523V25.0246H10.628L10.6317 19.1324ZM21.0155 33.2437C21.0157 33.0051 21.1106 32.7763 21.2793 32.6075C21.4481 32.4388 21.6769 32.3439 21.9155 32.3437H42.065C42.2893 32.3632 42.4982 32.4661 42.6504 32.6321C42.8026 32.7981 42.8871 33.0151 42.8871 33.2403C42.8871 33.4656 42.8026 33.6826 42.6504 33.8486C42.4982 34.0146 42.2893 34.1175 42.065 34.137H21.9116C21.6747 34.1359 21.4478 34.0416 21.2801 33.8744C21.1123 33.7072 21.0173 33.4806 21.0155 33.2437ZM21.9155 36.7383H42.0647C42.1893 36.7268 42.3149 36.7414 42.4336 36.7812C42.5522 36.821 42.6613 36.8852 42.7537 36.9695C42.8462 37.0538 42.9201 37.1565 42.9706 37.271C43.0212 37.3855 43.0473 37.5093 43.0473 37.6345C43.0473 37.7596 43.0212 37.8834 42.9706 37.9979C42.9201 38.1124 42.8462 38.2151 42.7537 38.2994C42.6613 38.3837 42.5522 38.4479 42.4336 38.4877C42.3149 38.5275 42.1893 38.5421 42.0647 38.5307H21.9116C20.7233 38.5253 20.7278 36.7383 21.9155 36.7383ZM17.4155 40.1795H9.73203C9.49409 40.1795 9.26583 40.0853 9.09717 39.9174C8.92851 39.7496 8.83318 39.5218 8.83203 39.2838V31.6C8.83203 31.3613 8.92685 31.1323 9.09564 30.9636C9.26442 30.7948 9.49334 30.7 9.73203 30.7H17.4161C17.6548 30.7 17.8837 30.7948 18.0525 30.9636C18.2212 31.1323 18.3161 31.3613 18.3161 31.6V39.2795C18.3161 39.5182 18.2212 39.7471 18.0525 39.9159C17.8837 40.0847 17.6542 40.1795 17.4155 40.1795ZM10.6317 32.496H16.523V38.3868H10.628L10.6317 32.496ZM17.4158 53.5462C17.4158 53.5462 10.3845 53.5462 9.73203 53.5462C9.49339 53.546 9.26458 53.4511 9.09584 53.2824C8.9271 53.1136 8.83222 52.8848 8.83203 52.6462V44.9621C8.83203 44.7234 8.92685 44.4945 9.09564 44.3257C9.26442 44.157 9.49334 44.0621 9.73203 44.0621H17.4161C17.6548 44.0621 17.8837 44.157 18.0525 44.3257C18.2212 44.4945 18.3161 44.7234 18.3161 44.9621V52.6494C18.3151 52.8875 18.2198 53.1154 18.0512 53.2834C17.8825 53.4514 17.6538 53.5462 17.4158 53.5462ZM10.6317 45.8624H16.523V51.7536H10.628L10.6317 45.8624Z" fill="#E6B400"/>
</svg>
