<svg width="96" height="96" viewBox="0 0 96 96" fill="none" xmlns="http://www.w3.org/2000/svg">
<path fill-rule="evenodd" clip-rule="evenodd" d="M90.2522 63.6157L71.214 49.0571V10.8311C71.214 10.5129 71.0876 10.2076 70.8625 9.9826C70.6375 9.75755 70.3323 9.63113 70.014 9.63113H56.814L50.5371 3.34987C50.3124 3.12608 50.0083 3.00029 49.6912 3H5.46562C5.14737 3 4.84214 3.12643 4.6171 3.35147C4.39205 3.57652 4.26562 3.88174 4.26562 4.2V79.5C4.26726 79.8173 4.39438 80.121 4.61922 80.3449C4.84406 80.5687 5.14835 80.6945 5.46562 80.6947H10.6813V86.1394C10.6827 86.4567 10.8097 86.7606 11.0346 86.9845C11.2595 87.2084 11.564 87.3341 11.8813 87.3341H49.7394V89.835C49.7397 90.6743 50.0732 91.4792 50.6667 92.0727C51.2602 92.6662 52.0651 92.9997 52.9044 93H81.414C82.2522 92.9986 83.0557 92.6649 83.6483 92.072C84.2408 91.4791 84.5741 90.6755 84.5751 89.8372V68.8168L85.6492 69.6377C86.0446 69.9399 86.4957 70.1613 86.9767 70.2892C87.4576 70.4171 87.9591 70.449 88.4524 70.3831C88.9457 70.3172 89.4212 70.1548 89.8517 69.9052C90.2822 69.6555 90.6594 69.3235 90.9616 68.9281C91.2638 68.5327 91.4852 68.0816 91.6131 67.6007C91.741 67.1197 91.7729 66.6183 91.707 66.125C91.6411 65.6317 91.4787 65.1562 91.2291 64.7256C90.9794 64.2951 90.6474 63.918 90.252 63.6157H90.2522ZM68.8234 12.0262V47.3719C68.1701 47.1135 67.4647 47.0142 66.7655 47.0822C66.0663 47.1502 65.3933 47.3836 64.8021 47.763C64.8021 37.8786 64.8021 27.9941 64.8021 18.1093C64.802 17.9526 64.7711 17.7974 64.711 17.6526C64.651 17.5078 64.5629 17.3763 64.452 17.2656L59.2125 12.0262H68.8234ZM50.8862 7.08L60.7221 16.9157H50.8862V7.08ZM6.66056 5.39006H48.4965V18.1112C48.4965 18.4294 48.6229 18.7347 48.848 18.9597C49.073 19.1848 49.3782 19.3112 49.6965 19.3112H62.4122V49.5829L47.5455 60.9529H29.2213C29.0631 60.9509 28.9062 60.9803 28.7594 61.0395C28.6127 61.0987 28.4793 61.1863 28.3667 61.2975C28.2542 61.4086 28.1648 61.541 28.1038 61.687C28.0428 61.8329 28.0114 61.9895 28.0114 62.1477C28.0114 62.3059 28.0428 62.4625 28.1038 62.6085C28.1648 62.7544 28.2542 62.8868 28.3667 62.9979C28.4793 63.1091 28.6127 63.1968 28.7594 63.2559C28.9062 63.3151 29.0631 63.3445 29.2213 63.3426H44.421L44.064 63.6157C43.6025 63.9697 43.2286 64.4251 42.9712 64.9467C42.7139 65.4682 42.5799 66.042 42.5797 66.6236C42.5797 66.6874 42.582 66.7521 42.5846 66.8156H29.2211C29.063 66.8136 28.906 66.8431 28.7593 66.9022C28.6126 66.9614 28.4791 67.0491 28.3665 67.1602C28.254 67.2714 28.1646 67.4038 28.1036 67.5497C28.0426 67.6957 28.0112 67.8523 28.0112 68.0105C28.0112 68.1686 28.0426 68.3253 28.1036 68.4712C28.1646 68.6172 28.254 68.7495 28.3665 68.8607C28.4791 68.9718 28.6126 69.0595 28.7593 69.1187C28.906 69.1778 29.063 69.2073 29.2211 69.2053H43.5847C44.227 69.8955 45.1029 70.3222 46.0422 70.4024C46.9815 70.4827 47.9171 70.2108 48.6671 69.6396L49.74 68.8187V78.3112H6.66V5.39006H6.66056ZM13.0714 84.9448V80.7H49.7402V84.9459L13.0714 84.9448ZM70.2154 90.6099H64.0982V77.7248H70.2154V90.6099ZM82.1833 89.8376C82.1808 90.0414 82.0988 90.2362 81.9548 90.3804C81.8108 90.5246 81.6161 90.6068 81.4123 90.6096H72.6045V76.53C72.6045 76.2126 72.4787 75.9081 72.2547 75.6832C72.0308 75.4583 71.7268 75.3313 71.4094 75.33H62.9044C62.5861 75.33 62.2809 75.4564 62.0558 75.6815C61.8308 75.9065 61.7044 76.2117 61.7044 76.53V90.6103H52.9044C52.7006 90.6075 52.5059 90.5252 52.3619 90.3809C52.2179 90.2366 52.1359 90.0418 52.1334 89.838V66.9891L67.1574 55.5L82.1827 66.9891V89.8376H82.1833ZM87.9486 68.0239C87.6419 68.0239 87.3436 67.9237 87.0992 67.7385L67.8834 53.0449C67.6751 52.8852 67.4199 52.7987 67.1574 52.7987C66.8949 52.7987 66.6398 52.8852 66.4314 53.0449L47.2151 67.7393C47.0691 67.8509 46.9025 67.9327 46.7248 67.98C46.5471 68.0272 46.3619 68.039 46.1797 68.0147C45.9975 67.9904 45.8218 67.9304 45.6628 67.8382C45.5037 67.746 45.3644 67.6234 45.2527 67.4773C45.1411 67.3313 45.0593 67.1646 45.012 66.987C44.9648 66.8093 44.953 66.6241 44.9773 66.4419C45.0016 66.2597 45.0616 66.084 45.1538 65.925C45.246 65.7659 45.3686 65.6266 45.5147 65.5149L66.1524 49.7325C66.6671 49.341 67.6539 49.3414 68.1662 49.7291L88.8043 65.5153C89.0979 65.7416 89.2902 66.0748 89.3391 66.4423C89.3881 66.8097 89.2898 67.1817 89.0657 67.4769C88.927 67.64 88.7563 67.7727 88.5641 67.8669C88.3719 67.961 88.1624 68.0146 87.9486 68.0242V68.0239ZM28.0266 26.5125C28.0266 26.3549 28.0576 26.1989 28.1179 26.0533C28.1782 25.9077 28.2666 25.7754 28.378 25.664C28.4895 25.5525 28.6217 25.4641 28.7673 25.4038C28.9129 25.3435 29.069 25.3125 29.2266 25.3125H56.0925C56.3908 25.3395 56.6683 25.4771 56.8703 25.6982C57.0724 25.9193 57.1844 26.2081 57.1844 26.5076C57.1844 26.8072 57.0724 27.0959 56.8703 27.317C56.6683 27.5382 56.3908 27.6758 56.0925 27.7028H29.2213C28.9056 27.7014 28.6032 27.5757 28.3796 27.3529C28.156 27.1301 28.0291 26.8282 28.0266 26.5125ZM29.2266 31.1726H56.0925C56.3904 31.2001 56.6674 31.3378 56.869 31.5589C57.0706 31.78 57.1824 32.0684 57.1824 32.3676C57.1824 32.6668 57.0706 32.9552 56.869 33.1762C56.6674 33.3973 56.3904 33.535 56.0925 33.5625H29.2213C27.6369 33.5559 27.6429 31.1726 29.2269 31.1726H29.2266ZM23.2266 35.7606H12.9819C12.6646 35.7606 12.3601 35.6348 12.1352 35.4109C11.9103 35.1869 11.7833 34.883 11.7819 34.5656V24.3197C11.7819 24.0014 11.9084 23.6962 12.1334 23.4712C12.3585 23.2461 12.6637 23.1197 12.9819 23.1197H23.2273C23.5456 23.1197 23.8508 23.2461 24.0758 23.4712C24.3009 23.6962 24.4273 24.0014 24.4273 24.3197V34.5606C24.4273 34.8788 24.3009 35.184 24.0758 35.4091C23.8508 35.6341 23.5456 35.7606 23.2273 35.7606H23.2266ZM14.1816 25.515H22.0365V33.3713H14.1765L14.1816 25.515ZM28.0266 44.3301C28.0268 44.0119 28.1533 43.7068 28.3783 43.4818C28.6033 43.2568 28.9084 43.1303 29.2266 43.1301H56.0925C56.3917 43.156 56.6702 43.2932 56.8731 43.5146C57.0761 43.7359 57.1887 44.0253 57.1887 44.3256C57.1887 44.6259 57.0761 44.9152 56.8731 45.1366C56.6702 45.3579 56.3917 45.4951 56.0925 45.5211H29.2213C28.9055 45.5197 28.603 45.3939 28.3793 45.1709C28.1557 44.948 28.0289 44.6459 28.0266 44.3301ZM29.2266 48.9894H56.0921C56.2583 48.9741 56.4258 48.9936 56.584 49.0467C56.7422 49.0998 56.8876 49.1853 57.0109 49.2978C57.1342 49.4102 57.2327 49.5471 57.3 49.6998C57.3674 49.8525 57.4022 50.0175 57.4022 50.1844C57.4022 50.3512 57.3674 50.5163 57.3 50.6689C57.2327 50.8216 57.1342 50.9585 57.0109 51.071C56.8876 51.1834 56.7422 51.2689 56.584 51.322C56.4258 51.3751 56.2583 51.3946 56.0921 51.3793H29.2213C27.6369 51.3722 27.6433 48.9887 29.2269 48.9887L29.2266 48.9894ZM23.2266 53.5777H12.9819C12.6647 53.5778 12.3603 53.4521 12.1355 53.2283C11.9106 53.0045 11.7835 52.7008 11.7819 52.3836V42.1384C11.7819 41.8201 11.9084 41.5149 12.1334 41.2898C12.3585 41.0648 12.6637 40.9384 12.9819 40.9384H23.2273C23.5456 40.9384 23.8508 41.0648 24.0758 41.2898C24.3009 41.5149 24.4273 41.8201 24.4273 42.1384V52.3777C24.4273 52.696 24.3009 53.0012 24.0758 53.2263C23.8508 53.4513 23.5456 53.5777 23.2273 53.5777H23.2266ZM14.1816 43.3331H22.0365V51.1875H14.1765L14.1816 43.3326V43.3331ZM23.2269 71.4C23.2269 71.4 13.8519 71.4 12.9819 71.4C12.6638 71.3997 12.3587 71.2732 12.1337 71.0482C11.9087 70.8233 11.7822 70.5182 11.7819 70.2V59.9546C11.7819 59.6364 11.9084 59.3311 12.1334 59.1061C12.3585 58.8811 12.6637 58.7546 12.9819 58.7546H23.2273C23.5456 58.7546 23.8508 58.8811 24.0758 59.1061C24.3009 59.3311 24.4273 59.6364 24.4273 59.9546V70.2043C24.426 70.5217 24.299 70.8257 24.0741 71.0497C23.8492 71.2737 23.5447 71.3994 23.2273 71.3994L23.2269 71.4ZM14.1816 61.155H22.0365V69.0099H14.1765L14.1816 61.155Z" fill="white"/>
<path fill-rule="evenodd" clip-rule="evenodd" d="M28.0259 26.51C28.0259 26.3524 28.0569 26.1964 28.1172 26.0508C28.1775 25.9052 28.2659 25.7729 28.3773 25.6615C28.4888 25.55 28.6211 25.4616 28.7667 25.4013C28.9122 25.341 29.0683 25.31 29.2259 25.31H56.0918C56.3901 25.337 56.6676 25.4746 56.8697 25.6957C57.0717 25.9169 57.1838 26.2056 57.1838 26.5051C57.1838 26.8047 57.0717 27.0934 56.8697 27.3145C56.6676 27.5357 56.3901 27.6733 56.0918 27.7003H29.2206C28.905 27.6989 28.6025 27.5732 28.3789 27.3504C28.1553 27.1276 28.0284 26.8257 28.0259 26.51ZM29.2259 31.1701H56.0918C56.3897 31.1976 56.6667 31.3353 56.8683 31.5564C57.0699 31.7775 57.1817 32.0659 57.1817 32.3651C57.1817 32.6643 57.0699 32.9527 56.8683 33.1737C56.6667 33.3948 56.3897 33.5325 56.0918 33.56H29.2206C27.6362 33.5534 27.6419 31.1701 29.2259 31.1701ZM23.2259 35.7581H12.9812C12.6639 35.7581 12.3594 35.6323 12.1345 35.4084C11.9096 35.1844 11.7826 34.8805 11.7812 34.5631V24.3172C11.7812 23.9989 11.9077 23.6937 12.1327 23.4687C12.3578 23.2436 12.663 23.1172 12.9812 23.1172H23.2266C23.5449 23.1172 23.8501 23.2436 24.0752 23.4687C24.3002 23.6937 24.4266 23.9989 24.4266 24.3172V34.5581C24.4266 34.8763 24.3002 35.1815 24.0752 35.4066C23.8501 35.6316 23.5441 35.7581 23.2259 35.7581ZM14.1809 25.5125H22.0358V33.3687H14.1758L14.1809 25.5125ZM28.0259 44.3276C28.0261 44.0094 28.1526 43.7043 28.3776 43.4793C28.6026 43.2543 28.9077 43.1278 29.2259 43.1276H56.0918C56.391 43.1535 56.6695 43.2907 56.8725 43.5121C57.0754 43.7334 57.188 44.0228 57.188 44.3231C57.188 44.6233 57.0754 44.9127 56.8725 45.1341C56.6695 45.3554 56.391 45.4926 56.0918 45.5186H29.2206C28.9048 45.5172 28.6023 45.3914 28.3786 45.1684C28.155 44.9455 28.0282 44.6434 28.0259 44.3276ZM29.2259 48.9869H56.0914C56.2576 48.9716 56.4251 48.9911 56.5833 49.0442C56.7415 49.0973 56.8869 49.1828 57.0102 49.2953C57.1335 49.4077 57.232 49.5446 57.2994 49.6973C57.3667 49.85 57.4015 50.015 57.4015 50.1819C57.4015 50.3487 57.3667 50.5138 57.2994 50.6664C57.232 50.8191 57.1335 50.956 57.0102 51.0685C56.8869 51.1809 56.7415 51.2664 56.5833 51.3195C56.4251 51.3726 56.2576 51.3921 56.0914 51.3768H29.2206C27.6362 51.3697 27.6422 48.9869 29.2259 48.9869ZM23.2259 53.5752H12.9812C12.664 53.5752 12.3596 53.4496 12.1348 53.2258C11.9099 53.002 11.7828 52.6983 11.7812 52.3811V42.1359C11.7812 41.8176 11.9077 41.5124 12.1327 41.2873C12.3578 41.0623 12.663 40.9359 12.9812 40.9359H23.2266C23.5449 40.9359 23.8501 41.0623 24.0752 41.2873C24.3002 41.5124 24.4266 41.8176 24.4266 42.1359V52.3752C24.4266 52.6935 24.3002 52.9987 24.0752 53.2238C23.8501 53.4488 23.5441 53.5752 23.2259 53.5752ZM14.1809 43.3306H22.0358V51.185H14.1758L14.1809 43.3306ZM23.2262 71.3975C23.2262 71.3975 13.8512 71.3975 12.9812 71.3975C12.6631 71.3973 12.358 71.2707 12.133 71.0458C11.908 70.8208 11.7815 70.5157 11.7812 70.1975V59.9521C11.7812 59.6339 11.9077 59.3286 12.1327 59.1036C12.3578 58.8786 12.663 58.7521 12.9812 58.7521H23.2266C23.5449 58.7521 23.8501 58.8786 24.0752 59.1036C24.3002 59.3286 24.4266 59.6339 24.4266 59.9521V70.2018C24.4253 70.5192 24.2983 70.8232 24.0734 71.0472C23.8485 71.2712 23.5437 71.3975 23.2262 71.3975ZM14.1809 61.1525H22.0358V69.0074H14.1758L14.1809 61.1525Z" fill="#E6B400"/>
</svg>
