<svg width="36" height="36" viewBox="0 0 36 36" fill="none" xmlns="http://www.w3.org/2000/svg">
<path d="M26.9002 34.3872H9.10547C8.52398 34.3872 8.05078 33.914 8.05078 33.3325V32.635C8.05078 31.6689 8.83688 30.8828 9.80297 30.8828H26.2027C27.1688 30.8828 27.9548 31.6689 27.9548 32.635V33.3325C27.9548 33.914 27.4816 34.3872 26.9002 34.3872ZM9.80297 31.5852C9.2243 31.5852 8.75391 32.0556 8.75391 32.6343V33.3318C8.75391 33.5259 8.91141 33.6834 9.10547 33.6834H26.9002C27.0942 33.6834 27.2517 33.5259 27.2517 33.3318V32.6343C27.2517 32.0556 26.7806 31.5852 26.2027 31.5852H9.80297Z" fill="black"/>
<path d="M24.7942 31.5855C23.6052 31.5855 22.6363 30.9913 21.9937 29.8684C21.363 28.7666 21.0437 27.1762 21.0437 25.1413H21.7469C21.7469 27.2859 22.1427 30.883 24.7942 30.883V31.5855ZM11.207 31.5855V30.8823C13.8585 30.8823 14.2544 27.2852 14.2544 25.1406H14.9575C14.9575 27.1762 14.6376 28.7666 14.0076 29.8677C13.3649 30.992 12.396 31.5855 11.207 31.5855Z" fill="black"/>
<path d="M32.7656 25.4923H3.23438C1.87734 25.4923 0.773438 24.3884 0.773438 23.0314V4.0625C0.773438 2.70547 1.87734 1.60156 3.23438 1.60156H32.7656C34.1227 1.60156 35.2266 2.70547 35.2266 4.0625V23.0314C35.2266 24.3884 34.1227 25.4923 32.7656 25.4923ZM3.23438 2.30469C2.26477 2.30469 1.47656 3.09289 1.47656 4.0625V23.0314C1.47656 24.001 2.26477 24.7892 3.23438 24.7892H32.7656C33.7352 24.7892 34.5234 24.001 34.5234 23.0314V4.0625C34.5234 3.09289 33.7352 2.30469 32.7656 2.30469H3.23438Z" fill="black"/>
<path d="M27.9572 11.1577C27.8672 11.1577 27.7772 11.1232 27.7083 11.055C27.5712 10.9179 27.5712 10.695 27.7083 10.5579L29.156 9.11018L27.7083 7.66244C27.5712 7.52533 27.5712 7.30244 27.7083 7.16533C27.8454 7.02822 28.0683 7.02822 28.2054 7.16533L29.902 8.86197C30.0392 8.99908 30.0392 9.22197 29.902 9.35908L28.2054 11.0557C28.1372 11.1239 28.0472 11.1577 27.9572 11.1577Z" fill="#E6B400"/>
<path d="M22.7359 11.1584C22.6459 11.1584 22.5559 11.1239 22.487 11.0557L20.7903 9.35908C20.6532 9.22197 20.6532 8.99908 20.7903 8.86197L22.487 7.16533C22.6241 7.02822 22.847 7.02822 22.9841 7.16533C23.1212 7.30244 23.1212 7.52533 22.9841 7.66244L21.5363 9.11018L22.9841 10.5579C23.1212 10.695 23.1212 10.9179 22.9841 11.055C22.9159 11.1246 22.8259 11.1584 22.7359 11.1584Z" fill="#E6B400"/>
<path d="M24.5983 12.2469C24.5681 12.2469 24.5379 12.2427 24.5069 12.235C24.3192 12.1851 24.2081 11.9917 24.258 11.8047L25.7515 6.2296C25.8014 6.04187 25.9941 5.93077 26.1818 5.98069C26.3695 6.03062 26.4806 6.22398 26.4307 6.41101L24.9373 11.9861C24.8958 12.1436 24.7537 12.2469 24.5983 12.2469Z" fill="#E6B400"/>
<path d="M30.8552 17.1953H19.8281C19.6341 17.1953 19.4766 17.0378 19.4766 16.8438C19.4766 16.6497 19.6341 16.4922 19.8281 16.4922H30.8552C31.0493 16.4922 31.2068 16.6497 31.2068 16.8438C31.2068 17.0378 31.05 17.1953 30.8552 17.1953Z" fill="#E6B400"/>
<path d="M30.8552 15.1562H19.8281C19.6341 15.1562 19.4766 14.9987 19.4766 14.8047C19.4766 14.6106 19.6341 14.4531 19.8281 14.4531H30.8552C31.0493 14.4531 31.2068 14.6106 31.2068 14.8047C31.2068 14.9987 31.05 15.1562 30.8552 15.1562Z" fill="#E6B400"/>
<path d="M30.8599 19.2266H23.1797C22.9856 19.2266 22.8281 19.0691 22.8281 18.875C22.8281 18.6809 22.9856 18.5234 23.1797 18.5234H30.8599C31.054 18.5234 31.2115 18.6809 31.2115 18.875C31.2115 19.0691 31.0547 19.2266 30.8599 19.2266Z" fill="#E6B400"/>
<path d="M10.6641 9.6875H11.3672V11.2794H10.6641V9.6875Z" fill="black"/>
<path d="M11.0108 10.0294C10.2423 10.0294 9.61719 9.4043 9.61719 8.63578C9.61719 7.86727 10.2423 7.24219 11.0108 7.24219C11.7793 7.24219 12.4044 7.86727 12.4044 8.63578C12.4044 9.4043 11.7793 10.0294 11.0108 10.0294ZM11.0108 7.94531C10.6297 7.94531 10.3203 8.25539 10.3203 8.63578C10.3203 9.01688 10.6304 9.32625 11.0108 9.32625C11.3912 9.32625 11.7012 9.01617 11.7012 8.63578C11.7012 8.25539 11.3912 7.94531 11.0108 7.94531Z" fill="black"/>
<path d="M16.307 15.8504H15.3359V15.1473H16.307C16.4328 15.1473 16.5355 15.0446 16.5355 14.9187V13.291C16.5355 13.1652 16.4328 13.0625 16.307 13.0625H15.3359V12.3594H16.307C16.8209 12.3594 17.2386 12.777 17.2386 13.291V14.9187C17.2386 15.4327 16.8202 15.8504 16.307 15.8504ZM6.69172 15.8504H5.7207C5.20672 15.8504 4.78906 15.4327 4.78906 14.9187V13.291C4.78906 12.777 5.20672 12.3594 5.7207 12.3594H6.69172V13.0625H5.7207C5.59484 13.0625 5.49219 13.1652 5.49219 13.291V14.9187C5.49219 15.0446 5.59484 15.1473 5.7207 15.1473H6.69172V15.8504Z" fill="black"/>
<path d="M11.0128 17.9616C9.97852 17.9616 8.94492 17.8618 7.41492 17.6621C6.8018 17.582 6.33984 17.0553 6.33984 16.4373V12.4541C6.33984 11.836 6.8025 11.3094 7.41563 11.2292C10.4763 10.8298 11.5521 10.8298 14.6121 11.2292C15.2252 11.3094 15.6872 11.8353 15.6872 12.4541V16.4373C15.6872 17.0553 15.2245 17.582 14.6114 17.6621C13.0814 17.8618 12.0471 17.9616 11.0128 17.9616ZM11.0135 11.6342C10.0059 11.6342 8.99766 11.7313 7.50633 11.926C7.23773 11.9612 7.04297 12.1827 7.04297 12.4534V16.4366C7.04297 16.7073 7.23773 16.9295 7.50633 16.9639C10.489 17.3534 11.538 17.3534 14.5207 16.9639C14.7893 16.9288 14.9841 16.7073 14.9841 16.4366V12.4534C14.9841 12.1827 14.7893 11.9605 14.5207 11.926C13.0294 11.732 12.0211 11.6342 11.0135 11.6342Z" fill="black"/>
<path d="M13.2084 16.6443H8.81805C8.46156 16.6443 8.17188 16.3546 8.17188 15.9981V15.5313C8.17188 15.3372 8.32938 15.1797 8.52344 15.1797C8.7175 15.1797 8.875 15.3372 8.875 15.5313V15.9412H13.1514V15.5313C13.1514 15.3372 13.3089 15.1797 13.503 15.1797C13.697 15.1797 13.8545 15.3372 13.8545 15.5313V15.9981C13.8545 16.3546 13.5641 16.6443 13.2084 16.6443Z" fill="black"/>
<path d="M8.52141 14.5194C7.96453 14.5194 7.51172 14.0666 7.51172 13.5097C7.51172 12.9528 7.96453 12.5 8.52141 12.5C9.07828 12.5 9.53109 12.9528 9.53109 13.5097C9.53109 14.0666 9.07758 14.5194 8.52141 14.5194ZM8.52141 13.2031C8.35266 13.2031 8.21484 13.3409 8.21484 13.5097C8.21484 13.6784 8.35266 13.8163 8.52141 13.8163C8.69016 13.8163 8.82797 13.6784 8.82797 13.5097C8.82797 13.3409 8.69016 13.2031 8.52141 13.2031Z" fill="#E6B400"/>
<path d="M13.5058 14.5194C12.9489 14.5194 12.4961 14.0666 12.4961 13.5097C12.4961 12.9528 12.9489 12.5 13.5058 12.5C14.0627 12.5 14.5155 12.9528 14.5155 13.5097C14.5155 14.0666 14.062 14.5194 13.5058 14.5194ZM13.5058 13.2031C13.3363 13.2031 13.1992 13.3409 13.1992 13.5097C13.1992 13.6784 13.337 13.8163 13.5058 13.8163C13.6745 13.8163 13.8123 13.6784 13.8123 13.5097C13.8123 13.3409 13.6745 13.2031 13.5058 13.2031Z" fill="#E6B400"/>
</svg>
