<svg width="52" height="52" viewBox="0 0 52 52" fill="none" xmlns="http://www.w3.org/2000/svg">
<path d="M51.4467 32.2901C50.4576 30.8366 48.4657 30.4518 47.0077 31.4317L40.3716 35.8728L40.3523 22.0492L42.6578 24.2089C43.148 24.6681 43.7873 24.9208 44.4584 24.9208C44.4596 24.9208 44.461 24.9208 44.4623 24.9208C45.1869 24.9197 45.8864 24.6161 46.3817 24.0874C46.8628 23.5738 47.1152 22.9037 47.0922 22.2003C47.0692 21.4969 46.7737 20.8445 46.2601 20.3634L41.8894 16.269C41.5901 15.9887 41.1204 16.0041 40.8402 16.3033C40.56 16.6025 40.5753 17.0721 40.8744 17.3524L45.2452 21.4468C45.4694 21.6568 45.5984 21.9416 45.6085 22.2486C45.6184 22.5557 45.5083 22.8483 45.2982 23.0724C45.0788 23.3066 44.7812 23.4358 44.4601 23.4362C44.4595 23.4362 44.459 23.4362 44.4584 23.4362C44.1656 23.4362 43.8866 23.3259 43.6726 23.1254L43.6725 23.1253L26.3173 6.86731C26.0313 6.59949 25.5862 6.59989 25.3009 6.86873L7.99084 23.1754C7.7673 23.386 7.475 23.4963 7.16787 23.4878C6.86075 23.4787 6.57566 23.3504 6.36502 23.1267C6.15438 22.9031 6.04338 22.6108 6.05262 22.3038C6.06176 21.9967 6.19003 21.7116 6.41357 21.5009L25.0175 3.97552C25.4585 3.56003 26.1503 3.55901 26.5924 3.97339L37.4766 14.1694C37.7757 14.4497 38.2454 14.4344 38.5257 14.1352C38.8059 13.836 38.7906 13.3664 38.4915 13.0861L27.6074 2.89002C26.5945 1.94102 25.0099 1.94315 23.9996 2.89499L18.0441 8.50531L18.0425 7.50461C18.0421 7.18916 17.9188 6.8928 17.6954 6.67017C17.4725 6.44785 17.1766 6.32547 16.8617 6.32547C16.8611 6.32547 16.8606 6.32547 16.86 6.32547L12.5997 6.33146C12.2843 6.33187 11.988 6.45517 11.7653 6.6785C11.5427 6.90184 11.4202 7.1985 11.4207 7.51406L11.4325 14.7338L5.39571 20.4206C4.88343 20.9031 4.58981 21.5563 4.56879 22.2597C4.54777 22.9631 4.80198 23.6326 5.2845 24.1447C5.76692 24.657 6.42007 24.9507 7.12359 24.9717C7.15051 24.9725 7.17742 24.973 7.20434 24.973C7.8782 24.973 8.51632 24.7201 9.0088 24.2559L11.3091 22.089L11.3182 28.6185C10.574 28.5102 9.82099 28.4533 9.06455 28.4533H7.79452V28.0083C7.79452 26.5142 6.57891 25.2986 5.08483 25.2986H2.70969C1.2156 25.2985 0 26.514 0 28.0082V39.6389C0 40.0488 0.332313 40.3811 0.742219 40.3811C1.15213 40.3811 1.48444 40.0488 1.48444 39.6389V28.0082C1.48444 27.3326 2.03409 26.7829 2.70969 26.7829H5.08473C5.76032 26.7829 6.30998 27.3326 6.30998 28.0082V29.1954V44.4091V45.5847C6.30998 46.2603 5.76032 46.8099 5.08473 46.8099H2.70969C2.03409 46.8099 1.48444 46.2603 1.48444 45.5847V44.2859C1.48444 43.876 1.15213 43.5437 0.742219 43.5437C0.332313 43.5437 0 43.876 0 44.2859V45.5847C0 47.0787 1.2156 48.2943 2.70969 48.2943H5.08473C6.57881 48.2943 7.79441 47.0788 7.79441 45.5847V45.4838L18.664 49.5999C18.6841 49.6076 18.7046 49.6143 18.7253 49.62C19.1979 49.7535 19.6702 49.8204 20.1366 49.8204C20.3889 49.8204 20.6394 49.8008 20.8874 49.7616L36.8613 47.459C36.8651 47.4585 36.8687 47.4579 36.8725 47.4573C38.2306 47.2404 39.5118 46.6663 40.5775 45.7971C40.5867 45.7896 40.5959 45.7818 40.6047 45.7738L50.9246 36.4922C52.1263 35.4253 52.3507 33.6188 51.4467 32.2901ZM16.5584 7.81042L16.5619 9.90159L12.9146 13.3374L12.9055 7.81539L16.5584 7.81042ZM25.8112 8.42731L38.8658 20.6567L38.8885 36.8653L36.7871 38.2718L34.5617 38.1469L34.5029 37.5558C34.2958 35.474 32.759 33.7993 30.7268 33.3997L30.7134 23.7568C30.7124 23.0169 30.1099 22.4155 29.37 22.4155C29.3694 22.4155 29.3689 22.4155 29.3682 22.4155L22.294 22.4255C21.9352 22.426 21.598 22.5661 21.3447 22.8202C21.0913 23.0742 20.952 23.4118 20.9525 23.7706L20.9643 32.178C19.5631 31.8577 18.2251 31.3286 16.9741 30.5969C16.818 30.5056 16.6604 30.4174 16.5015 30.3317C16.4395 30.2983 16.3765 30.2669 16.3141 30.2343C16.2174 30.1838 16.1209 30.133 16.0232 30.0846C15.9454 30.046 15.8667 30.0094 15.7883 29.9722C15.7051 29.9327 15.622 29.8927 15.5382 29.8547C15.4529 29.816 15.3669 29.7791 15.281 29.7419C15.2025 29.708 15.124 29.6739 15.045 29.6413C14.9566 29.6048 14.8677 29.5698 14.7788 29.5349C14.6999 29.5041 14.6208 29.4734 14.5415 29.4437C14.4535 29.4108 14.365 29.379 14.2763 29.3479C14.1932 29.3185 14.1099 29.2899 14.0262 29.2619C13.9413 29.2336 13.8562 29.2059 13.7707 29.179C13.6796 29.1502 13.588 29.1228 13.4964 29.0957C13.4177 29.0725 13.3391 29.0494 13.26 29.0274C13.1567 28.9987 13.0529 28.9718 12.949 28.9452C12.9004 28.9327 12.852 28.9186 12.8031 28.9065L12.7916 20.6923L25.8112 8.42731ZM29.2422 33.2139L23.0342 32.4992L22.4493 32.4319L22.4373 23.9097L29.2292 23.9002L29.2422 33.2139ZM49.9355 35.3854L39.6258 44.6579C38.7667 45.3545 37.7362 45.8153 36.6439 45.9906L20.6769 48.2922C20.6736 48.2927 20.6703 48.2932 20.667 48.2937L20.6559 48.2955C20.1721 48.372 19.6684 48.3397 19.1584 48.1998L7.79452 43.8964V29.9376H9.06455C10.1457 29.9376 11.2195 30.0625 12.2652 30.3049C12.3041 30.3139 12.3429 30.3232 12.3817 30.3325C12.5102 30.3635 12.6383 30.3954 12.7659 30.4299C12.7771 30.433 12.7881 30.4362 12.7993 30.4393C12.9272 30.4742 13.0545 30.5111 13.1815 30.5496C13.2042 30.5565 13.2271 30.5633 13.2497 30.5703C13.3848 30.612 13.5193 30.6556 13.653 30.7013C13.6669 30.7061 13.6806 30.7109 13.6944 30.7157C13.973 30.8119 14.2488 30.9168 14.5212 31.0303C14.536 31.0365 14.5509 31.0427 14.5657 31.049C14.7015 31.1061 14.8365 31.1651 14.9705 31.2265C14.9741 31.2281 14.9777 31.2298 14.9813 31.2315C15.1109 31.2911 15.2396 31.3528 15.3674 31.4163C15.3825 31.4237 15.3976 31.431 15.4126 31.4385C15.5375 31.501 15.6614 31.5657 15.7846 31.6319C15.8079 31.6444 15.8311 31.6572 15.8543 31.6698C15.9786 31.7375 16.1022 31.8066 16.2246 31.8782C17.9909 32.9114 19.9137 33.5806 21.9396 33.8673C21.946 33.8682 21.9523 33.869 21.9587 33.8697L30.2748 34.8272C30.3208 34.8338 30.3665 34.8414 30.4119 34.8499C31.6361 35.0798 32.6024 35.9845 32.9256 37.1625C32.9736 37.337 33.0073 37.5176 33.0258 37.7027L33.0588 38.0348L17.473 36.6693C17.0649 36.6337 16.7046 36.9356 16.6688 37.3439C16.633 37.7523 16.9351 38.1123 17.3434 38.148L33.8211 39.5918C33.8251 39.5921 33.8289 39.592 33.8328 39.5923C33.8367 39.5926 33.8404 39.5932 33.8444 39.5935L36.9519 39.7679C36.9658 39.7687 36.9796 39.769 36.9934 39.769C37.0082 39.769 37.0227 39.7667 37.0373 39.7657C37.0539 39.7647 37.0704 39.7641 37.0869 39.7621C37.109 39.7592 37.1306 39.7545 37.1524 39.7497C37.1679 39.7462 37.1836 39.7437 37.1988 39.7392C37.2226 39.7324 37.2454 39.7232 37.2685 39.7139C37.2808 39.709 37.2936 39.7052 37.3058 39.6995C37.3405 39.6835 37.3742 39.665 37.4063 39.6435L40.0441 37.8782L40.0444 37.8779L47.8344 32.6645C48.6182 32.1377 49.688 32.3444 50.2193 33.1252C50.705 33.8388 50.5844 34.8092 49.9355 35.3854Z" fill="white"/>
<path fill-rule="evenodd" clip-rule="evenodd" d="M30.7256 33.3997L30.7122 23.7568C30.7112 23.0169 30.1088 22.4155 29.3689 22.4155H29.367L22.2928 22.4255C21.934 22.426 21.5968 22.5661 21.3435 22.8202C21.0901 23.0742 20.9509 23.4118 20.9514 23.7706L20.9632 32.178L22.4481 32.4319L22.4361 23.9097L29.228 23.9002L29.241 33.2139L30.7256 33.3997Z" fill="#E6B400"/>
<path fill-rule="evenodd" clip-rule="evenodd" d="M40.3511 22.0492L42.6566 24.2089C43.1468 24.6681 43.7861 24.9208 44.4572 24.9208H44.4612C45.1857 24.9197 45.8853 24.6161 46.3805 24.0874C46.8616 23.5738 47.114 22.9037 47.091 22.2003C47.0681 21.4969 46.7725 20.8445 46.2589 20.3634L41.8882 16.2691C41.589 15.9887 41.1192 16.0041 40.839 16.3033C40.5588 16.6025 40.5742 17.0721 40.8733 17.3524L45.244 21.4468C45.4683 21.6568 45.5972 21.9416 45.6073 22.2486C45.6172 22.5557 45.5072 22.8483 45.297 23.0724C45.0776 23.3066 44.7801 23.4358 44.4589 23.4362H44.4572C44.1644 23.4362 43.8854 23.3259 43.6714 23.1254L26.3161 6.86731C26.0301 6.59949 25.5851 6.59989 25.2998 6.86873L7.98966 23.1754C7.76612 23.386 7.47382 23.4963 7.1667 23.4878C6.85957 23.4787 6.57449 23.3504 6.36385 23.1267C6.15321 22.9031 6.0422 22.6108 6.05144 22.3038C6.06058 21.9967 6.18885 21.7116 6.41239 21.5009L25.0163 3.97552C25.4573 3.56003 26.1491 3.55901 26.5912 3.97339L37.4754 14.1694C37.7745 14.4497 38.2442 14.4344 38.5245 14.1352C38.8047 13.836 38.7894 13.3664 38.4903 13.0861L27.6063 2.89002C26.5934 1.94102 25.0087 1.94315 23.9984 2.89499L18.0429 8.50531L18.0413 7.50461C18.0409 7.18916 17.9176 6.8928 17.6943 6.67018C17.4713 6.44785 17.1754 6.32547 16.8605 6.32547H16.8588L12.5986 6.33146C12.2831 6.33187 11.9869 6.45517 11.7641 6.6785C11.5415 6.90184 11.419 7.1985 11.4195 7.51406L11.4313 14.7338L5.39453 20.4206C4.88225 20.9031 4.58864 21.5563 4.56761 22.2597C4.54659 22.9631 4.8008 23.6326 5.28332 24.1447C5.76575 24.657 6.41889 24.9507 7.12242 24.9717C7.14933 24.9726 7.17625 24.973 7.20316 24.973C7.87703 24.973 8.51514 24.7201 9.00762 24.2559L11.3079 22.089L12.7904 20.6923L25.81 8.42731L38.8647 20.6567L40.3511 22.0492ZM16.5607 9.90159L16.5573 7.81042L12.9044 7.81539L12.9134 13.3374L16.5607 9.90159Z" fill="#E6B400"/>
</svg>
