<svg width="53" height="52" viewBox="0 0 53 52" fill="none" xmlns="http://www.w3.org/2000/svg">
<g clip-path="url(#clip0_1091_300281)">
<path d="M16.2122 50.4734H10.085V9.16239H32.7268C33.1483 9.16239 33.4901 8.82063 33.4901 8.39914C33.4901 7.97766 33.1484 7.6359 32.7268 7.6359H15.5216L21.6905 6.09378C22.0993 5.99161 22.3481 5.57723 22.2458 5.16824C22.1436 4.75925 21.7289 4.51042 21.3203 4.61289L9.13672 7.65886C8.8039 7.73858 8.55538 8.05698 8.55863 8.39925V51.2366C8.55863 51.6581 8.90028 51.9998 9.32187 51.9998H16.2122C16.6337 51.9998 16.9754 51.6582 16.9754 51.2366C16.9754 50.815 16.6337 50.4734 16.2122 50.4734Z" fill="white"/>
<path d="M43.6915 7.63622H40.6339V0.763177C40.6339 0.528161 40.5256 0.306247 40.3404 0.161622C40.1551 0.0169973 39.9136 -0.0341902 39.6856 0.0227863L24.2819 3.87353C23.873 3.9757 23.6243 4.39008 23.7266 4.79907C23.8287 5.20796 24.243 5.45658 24.6521 5.35441L39.1075 1.74082V7.63642H35.7819C35.3604 7.63642 35.0187 7.97818 35.0187 8.39966C35.0187 8.82115 35.3604 9.1629 35.7819 9.1629H42.9284V50.4739H19.2671C18.8457 50.4739 18.5039 50.8156 18.5039 51.2371C18.5039 51.6586 18.8457 52.0003 19.2671 52.0003H43.6915C44.113 52.0003 44.4548 51.6587 44.4548 51.2371V8.39946C44.4548 7.97797 44.113 7.63622 43.6915 7.63622Z" fill="white"/>
<path d="M21.5046 25.817C22.105 25.817 22.6545 25.6801 23.1235 25.4156L25.6711 27.9632L20.5618 33.0725C20.2637 33.3705 20.2637 33.8539 20.5618 34.1518C20.8598 34.4499 21.3431 34.4499 21.6411 34.1518L26.7504 29.0425L31.8597 34.1518C32.1577 34.4499 32.641 34.4499 32.939 34.1518C33.2371 33.8539 33.2371 33.3705 32.939 33.0725L27.8297 27.9632L29.9337 25.8593C30.3772 26.1201 30.8776 26.2553 31.4144 26.2553C31.461 26.2553 31.508 26.2542 31.5551 26.2522C34.2272 26.1367 37.0954 22.8133 37.4136 22.4348C37.6846 22.1122 37.643 21.6312 37.3206 21.3598C36.9982 21.0886 36.5169 21.13 36.2454 21.4523C35.4986 22.3386 33.1881 24.6548 31.4881 24.7273C31.3489 24.7329 31.2198 24.7214 31.0975 24.6955L35.3392 20.4537C35.6373 20.1557 35.6373 19.6724 35.3392 19.3744C35.0413 19.0763 34.5579 19.0763 34.2599 19.3744L30.0179 23.6165C29.992 23.4941 29.9804 23.3648 29.9864 23.2255C30.0589 21.5256 32.3751 19.2151 33.2612 18.4686C33.5838 18.1973 33.6255 17.7159 33.3543 17.3932C33.083 17.0705 32.6018 17.0289 32.279 17.3001C31.9004 17.6183 28.5769 20.4865 28.4615 23.1586C28.436 23.7487 28.5705 24.2983 28.8541 24.7804L26.7505 26.8839L24.2028 24.3362C24.5666 23.6911 24.6886 22.8934 24.546 22.021C24.3801 21.0062 23.8761 19.9738 23.1265 19.1143C22.1971 18.0484 21.0337 17.4391 19.8505 17.3987C18.8518 17.3653 17.9157 17.7307 17.2167 18.4297C16.5178 19.1286 16.1517 20.064 16.1858 21.0634C16.2262 22.2466 16.8355 23.41 17.9013 24.3394C18.7609 25.089 19.7933 25.5931 20.8081 25.7589C21.0465 25.7978 21.279 25.817 21.5046 25.817ZM17.7114 21.0113C17.6919 20.4392 17.8994 19.9056 18.296 19.509C18.6756 19.1295 19.1804 18.923 19.7244 18.923C19.749 18.923 19.7736 18.9235 19.7983 18.9243C20.5542 18.9501 21.3275 19.3739 21.9759 20.1175C23.1151 21.4241 23.4211 23.1079 22.658 23.8711C21.8946 24.6341 20.2109 24.3282 18.9044 23.189C18.1609 22.5405 17.7371 21.7672 17.7114 21.0113Z" fill="#E6B400"/>
<path d="M34.2547 40.0421C34.6762 40.0421 35.018 39.7004 35.018 39.2789C35.018 38.8574 34.6763 38.5156 34.2547 38.5156H18.7593C18.3379 38.5156 17.9961 38.8574 17.9961 39.2789C17.9961 39.7004 18.3379 40.0421 18.7593 40.0421H34.2547Z" fill="#E6B400"/>
<path d="M21.5054 42.5635C21.0839 42.5635 20.7422 42.9052 20.7422 43.3267C20.7422 43.7482 21.0838 44.09 21.5054 44.09H31.5058C31.9273 44.09 32.269 43.7483 32.269 43.3267C32.269 42.9052 31.9273 42.5635 31.5058 42.5635H21.5054Z" fill="#E6B400"/>
</g>
<defs>
<clipPath id="clip0_1091_300281">
<rect width="52" height="52" fill="white" transform="translate(0.5)"/>
</clipPath>
</defs>
</svg>
