<svg width="53" height="52" viewBox="0 0 53 52" fill="none" xmlns="http://www.w3.org/2000/svg">
<g clip-path="url(#clip0_1091_300290)">
<path d="M9.73828 26.1348C9.52279 26.1348 9.31613 26.2204 9.16376 26.3727C9.01138 26.5251 8.92578 26.7318 8.92578 26.9473V38.5758C8.92578 38.7913 9.01138 38.9979 9.16376 39.1503C9.31613 39.3027 9.52279 39.3883 9.73828 39.3883H28.6869C28.9024 39.3883 29.109 39.3027 29.2614 39.1503C29.4138 38.9979 29.4994 38.7913 29.4994 38.5758V26.9473C29.4994 26.7318 29.4138 26.5251 29.2614 26.3727C29.109 26.2204 28.9024 26.1348 28.6869 26.1348H9.73828ZM27.8744 37.7633H10.5508V27.7598H27.8744V37.7633Z" fill="#E6B400"/>
<path d="M5.69072 21.6049C6.76074 21.7135 7.83971 21.5184 8.80389 21.0418C9.76808 20.5653 10.5784 19.8267 11.1421 18.9107C11.624 19.8439 12.3488 20.6299 13.2399 21.1859C14.131 21.742 15.1555 22.0474 16.2057 22.0702C17.2558 22.0929 18.2926 21.8321 19.2069 21.3151C20.1213 20.7982 20.8793 20.0443 21.4012 19.1327C21.6313 19.5288 21.9057 19.8973 22.2191 20.2313C22.7699 20.8127 23.4335 21.2758 24.1692 21.5922C24.9049 21.9087 25.6974 22.0719 26.4983 22.0719C27.2992 22.0719 28.0917 21.9087 28.8274 21.5922C29.5632 21.2758 30.2267 20.8127 30.7775 20.2313C31.091 19.8973 31.3654 19.5288 31.5954 19.1327C32.1193 20.0418 32.8781 20.7932 33.7922 21.3083C34.7063 21.8233 35.7421 22.083 36.7911 22.0602C37.8401 22.0374 38.8636 21.7329 39.7544 21.1786C40.6453 20.6243 41.3707 19.8406 41.8546 18.9096C42.5836 20.0845 43.7114 20.9576 45.0314 21.3691C46.3515 21.7807 47.7756 21.7032 49.0432 21.1508C50.3108 20.5984 51.3371 19.6081 51.9344 18.361C52.5316 17.1139 52.6599 15.6935 52.2957 14.3596L49.5733 4.31708V0.8125C49.5733 0.597012 49.4877 0.390349 49.3353 0.237976C49.183 0.0856024 48.9763 0 48.7608 0L4.23256 0C4.01763 0.000859706 3.8118 0.0868415 3.66013 0.239122C3.50846 0.391402 3.42331 0.597574 3.42331 0.8125V4.32467L0.700891 14.3628C0.481802 15.1707 0.441342 16.0166 0.582324 16.8416C0.723306 17.6667 1.04235 18.4511 1.51725 19.1404C1.99216 19.8297 2.61152 20.4072 3.33227 20.8328C4.05301 21.2584 4.85782 21.5219 5.69072 21.6049ZM16.3453 20.4468C15.7308 20.447 15.1235 20.3135 14.5657 20.0557C14.0078 19.7979 13.5126 19.4219 13.1145 18.9538C12.7163 18.4857 12.4247 17.9366 12.2597 17.3446C12.0948 16.7526 12.0605 16.1318 12.1593 15.5253L13.8309 5.239H21.19L20.6147 15.8557L20.5833 16.4309C20.5251 17.5155 20.0532 18.5365 19.2648 19.2836C18.4763 20.0307 17.4315 20.447 16.3453 20.4468ZM29.5977 19.1143C28.997 19.7504 28.2153 20.1865 27.3585 20.3637C26.5017 20.5408 25.6112 20.4505 24.8074 20.1049C24.0037 19.7593 23.3255 19.1751 22.8647 18.4313C22.4039 17.6876 22.1827 16.8202 22.2311 15.9467L22.2646 15.3216L22.8063 5.239H30.173L30.7146 15.3216L30.7482 15.9467C30.7837 16.5253 30.6999 17.1051 30.502 17.65C30.3041 18.1949 29.9963 18.6933 29.5977 19.1143ZM39.8818 18.954C39.3318 19.6 38.6008 20.0662 37.7832 20.2926C36.9655 20.5189 36.0988 20.4948 35.295 20.2235C34.4911 19.9522 33.7871 19.4462 33.2738 18.7707C32.7605 18.0952 32.4615 17.2813 32.4155 16.4342L32.3841 15.8589L31.8088 5.24225H39.1657L40.8373 15.5285C40.9367 16.1353 40.9026 16.7564 40.7376 17.3487C40.5726 17.9411 40.2806 18.4903 39.8818 18.9583V18.954ZM50.1399 18.2184C49.6713 18.8984 49.0099 19.4227 48.2408 19.7238C47.4718 20.0248 46.6303 20.0889 45.8245 19.9077C45.0188 19.7265 44.2857 19.3084 43.7195 18.7072C43.1533 18.1059 42.78 17.349 42.6476 16.5338L40.8113 5.239H48.1411L50.7271 14.7875C50.8848 15.3677 50.9139 15.9752 50.8125 16.5678C50.7111 17.1604 50.4815 17.7237 50.1399 18.2184ZM5.04831 1.625H47.9483V3.614H5.04831V1.625ZM2.26956 14.7875L4.85547 5.239H12.1853L11.0532 12.2027L10.5549 15.2642L10.3491 16.5328C10.2588 17.0867 10.0567 17.6165 9.7552 18.0899C9.4537 18.5633 9.05906 18.9705 8.59526 19.2865C8.13147 19.6026 7.60822 19.8211 7.05735 19.9286C6.50647 20.0361 5.93949 20.0304 5.39088 19.9119C4.84226 19.7934 4.32349 19.5646 3.86611 19.2393C3.40873 18.914 3.0223 18.499 2.73033 18.0197C2.43836 17.5403 2.24694 17.0066 2.16773 16.4509C2.08852 15.8953 2.12316 15.3293 2.26956 14.7875Z" fill="#E6B400"/>
<path fill-rule="evenodd" clip-rule="evenodd" d="M49.5719 4.31708V0.8125C49.5719 0.597012 49.4863 0.390349 49.3339 0.237976C49.1815 0.0856024 48.9749 0 48.7594 0L4.23112 0C4.0162 0.000859706 3.81037 0.0868415 3.6587 0.239122C3.50703 0.391402 3.42187 0.597574 3.42188 0.8125V4.32467L4.85404 5.239H12.1839H13.8295H21.1885H22.8049H30.1715L31.8074 5.24225H39.1643L40.8099 5.239H48.1397L49.5719 4.31708ZM47.9469 1.625H5.04688V3.614H47.9469V1.625Z" fill="white"/>
<path d="M51.6875 46.7246H49.575V23.4102C49.575 23.1947 49.4894 22.988 49.337 22.8356C49.1847 22.6833 48.978 22.5977 48.7625 22.5977C48.547 22.5977 48.3404 22.6833 48.188 22.8356C48.0356 22.988 47.95 23.1947 47.95 23.4102V46.7246H45.2254V26.9472C45.2254 26.7318 45.1398 26.5251 44.9874 26.3727C44.8351 26.2203 44.6284 26.1347 44.4129 26.1347H33.8818C33.6663 26.1347 33.4597 26.2203 33.3073 26.3727C33.1549 26.5251 33.0693 26.7318 33.0693 26.9472V46.7246H5.05V23.4188C5.05 23.2033 4.9644 22.9967 4.81202 22.8443C4.65965 22.6919 4.45299 22.6063 4.2375 22.6063C4.02201 22.6063 3.81535 22.6919 3.66298 22.8443C3.5106 22.9967 3.425 23.2033 3.425 23.4188V46.7246H1.3125C1.09701 46.7246 0.890349 46.8102 0.737976 46.9626C0.585602 47.1149 0.5 47.3216 0.5 47.5371L0.5 51.1879C0.5 51.4034 0.585602 51.6101 0.737976 51.7624C0.890349 51.9148 1.09701 52.0004 1.3125 52.0004H51.6875C51.903 52.0004 52.1097 51.9148 52.262 51.7624C52.4144 51.6101 52.5 51.4034 52.5 51.1879V47.5371C52.5 47.3216 52.4144 47.1149 52.262 46.9626C52.1097 46.8102 51.903 46.7246 51.6875 46.7246ZM34.6943 27.7597H43.6004V46.7246H34.6943V27.7597ZM50.875 50.3754H2.125V48.3496H50.875V50.3754Z" fill="white"/>
</g>
<defs>
<clipPath id="clip0_1091_300290">
<rect width="52" height="52" fill="white" transform="translate(0.5)"/>
</clipPath>
</defs>
</svg>
