<svg width="259" height="55" viewBox="0 0 259 55" fill="none" xmlns="http://www.w3.org/2000/svg">
<path fill-rule="evenodd" clip-rule="evenodd" d="M14 7C9.58172 7 6 10.5817 6 15V15.4749C6 19.6309 9.36912 23 13.5251 23C15.3572 23 17.1265 22.3307 18.4926 21.1204C20.8956 18.9916 22.6845 17.3896 24.479 15.7827C26.9453 13.5742 27.905 12.6075 32 9H41C36.894 12.6172 30.954 18.0384 28.5208 20.2175C26.7334 21.8183 24.9406 23.4239 22.4714 25.6115C20.0027 27.7986 16.8163 29 13.5251 29C6.05541 29 0 22.9446 0 15.4749V15C0 7.26801 6.26801 1 14 1H61C62.6569 1 64 2.34315 64 4C64 5.65685 62.6569 7 61 7H14Z" fill="white"/>
<path fill-rule="evenodd" clip-rule="evenodd" d="M51 32C55.4183 32 59 28.4183 59 24V23.5251C59 19.3691 55.6309 16 51.4749 16C49.6428 16 47.8735 16.6693 46.5074 17.8796C44.1044 20.0084 42.3155 21.6104 40.521 23.2173C38.0547 25.4258 37.095 26.3925 33 30H24C28.106 26.3828 34.046 20.9616 36.4792 18.7825C38.2666 17.1817 40.0594 15.5761 42.5286 13.3885C44.9973 11.2014 48.1837 10 51.4749 10C58.9446 10 65 16.0554 65 23.5251V24C65 31.732 58.732 38 51 38H4C2.34315 38 1 36.6569 1 35C1 33.3431 2.34315 32 4 32H51Z" fill="white"/>
<rect x="79.5" width="1.7" height="55" fill="white"/>
<path d="M58.875 48.4471V47.4531H64.0973V48.4471H62.0742V53.9986H60.8981V48.4471H58.875Z" fill="white"/>
<path d="M51.6406 53.9986V47.4531H55.8338V48.4471H52.8264V50.2241H55.5462V51.218H52.8264V53.9986H51.6406Z" fill="white"/>
<path d="M48.2688 50.7294C48.2688 51.4347 48.1367 52.0387 47.8725 52.5415C47.6104 53.0423 47.2525 53.4258 46.7986 53.6921C46.3469 53.9585 45.8345 54.0916 45.2614 54.0916C44.6882 54.0916 44.1747 53.9585 43.7209 53.6921C43.2692 53.4237 42.9112 53.0391 42.647 52.5384C42.3849 52.0355 42.2539 51.4325 42.2539 50.7294C42.2539 50.0241 42.3849 49.4212 42.647 48.9205C42.9112 48.4176 43.2692 48.033 43.7209 47.7667C44.1747 47.5004 44.6882 47.3672 45.2614 47.3672C45.8345 47.3672 46.3469 47.5004 46.7986 47.7667C47.2525 48.033 47.6104 48.4176 47.8725 48.9205C48.1367 49.4212 48.2688 50.0241 48.2688 50.7294ZM47.0767 50.7294C47.0767 50.233 46.9989 49.8143 46.8434 49.4734C46.69 49.1303 46.4769 48.8714 46.2042 48.6967C45.9315 48.5199 45.6172 48.4315 45.2614 48.4315C44.9055 48.4315 44.5913 48.5199 44.3185 48.6967C44.0458 48.8714 43.8317 49.1303 43.6761 49.4734C43.5227 49.8143 43.446 50.233 43.446 50.7294C43.446 51.2259 43.5227 51.6456 43.6761 51.9886C43.8317 52.3295 44.0458 52.5884 44.3185 52.7653C44.5913 52.94 44.9055 53.0273 45.2614 53.0273C45.6172 53.0273 45.9315 52.94 46.2042 52.7653C46.4769 52.5884 46.69 52.3295 46.8434 51.9886C46.9989 51.6456 47.0767 51.2259 47.0767 50.7294Z" fill="white"/>
<path d="M37.8835 49.256C37.8537 48.9769 37.728 48.7596 37.5064 48.604C37.2869 48.4485 37.0014 48.3707 36.6499 48.3707C36.4027 48.3707 36.1907 48.408 36.0138 48.4826C35.837 48.5572 35.7017 48.6584 35.608 48.7862C35.5142 48.9141 35.4663 49.06 35.4641 49.2241C35.4641 49.3604 35.495 49.4787 35.5568 49.5788C35.6207 49.679 35.707 49.7642 35.8157 49.8345C35.9244 49.9027 36.0447 49.9602 36.1768 50.0071C36.3089 50.054 36.4421 50.0934 36.5763 50.1254L37.19 50.2788C37.4371 50.3363 37.6747 50.4141 37.9027 50.5121C38.1328 50.6101 38.3384 50.7337 38.5195 50.8828C38.7028 51.032 38.8477 51.212 38.9542 51.4229C39.0607 51.6339 39.114 51.881 39.114 52.1644C39.114 52.5479 39.016 52.8857 38.82 53.1776C38.6239 53.4673 38.3406 53.6942 37.9698 53.8583C37.6012 54.0202 37.1548 54.1012 36.6307 54.1012C36.1214 54.1012 35.6793 54.0224 35.3043 53.8647C34.9315 53.707 34.6396 53.4769 34.4286 53.1744C34.2198 52.8718 34.1069 52.5032 34.0898 52.0685H35.2564C35.2734 52.2965 35.3437 52.4862 35.4673 52.6374C35.5909 52.7887 35.7518 52.9016 35.9499 52.9762C36.1502 53.0508 36.3739 53.0881 36.6211 53.0881C36.8789 53.0881 37.1048 53.0497 37.2986 52.973C37.4947 52.8942 37.6481 52.7855 37.7589 52.647C37.8697 52.5064 37.9261 52.3423 37.9283 52.1548C37.9261 51.9844 37.8761 51.8438 37.7781 51.733C37.68 51.62 37.5426 51.5263 37.3658 51.4517C37.191 51.375 36.9865 51.3068 36.7521 51.2472L36.0075 51.0554C35.4684 50.9169 35.0423 50.707 34.729 50.4258C34.418 50.1424 34.2624 49.7663 34.2624 49.2976C34.2624 48.9119 34.3668 48.5742 34.5756 48.2844C34.7866 47.9947 35.0732 47.7699 35.4354 47.6101C35.7976 47.4482 36.2077 47.3672 36.6658 47.3672C37.1303 47.3672 37.5373 47.4482 37.8867 47.6101C38.2383 47.7699 38.5142 47.9925 38.7145 48.2781C38.9148 48.5614 39.0181 48.8874 39.0245 49.256H37.8835Z" fill="white"/>
<path d="M26.1602 53.9986V47.4531H28.6658C29.1388 47.4531 29.532 47.5277 29.8452 47.6768C30.1605 47.8239 30.396 48.0252 30.5515 48.2809C30.7092 48.5366 30.788 48.8263 30.788 49.1502C30.788 49.4165 30.7369 49.6445 30.6346 49.8342C30.5323 50.0217 30.3949 50.174 30.2223 50.2912C30.0497 50.4084 29.8569 50.4925 29.6438 50.5437V50.6076C29.8761 50.6204 30.0987 50.6918 30.3118 50.8217C30.527 50.9496 30.7028 51.1307 30.8391 51.3651C30.9755 51.5994 31.0437 51.8828 31.0437 52.2152C31.0437 52.554 30.9616 52.8587 30.7976 53.1293C30.6335 53.3977 30.3864 53.6097 30.0561 53.7653C29.7259 53.9208 29.3104 53.9986 28.8097 53.9986H26.1602ZM27.3459 53.0078H28.6211C29.0515 53.0078 29.3615 52.9258 29.5511 52.7617C29.7429 52.5955 29.8388 52.3825 29.8388 52.1225C29.8388 51.9286 29.7908 51.7539 29.695 51.5984C29.5991 51.4407 29.4627 51.3171 29.2859 51.2276C29.109 51.136 28.8981 51.0902 28.6531 51.0902H27.3459V53.0078ZM27.3459 50.2369H28.5188C28.7234 50.2369 28.9077 50.1996 29.0717 50.125C29.2358 50.0483 29.3647 49.9407 29.4585 49.8022C29.5543 49.6616 29.6023 49.4954 29.6023 49.3036C29.6023 49.0501 29.5128 48.8413 29.3338 48.6772C29.157 48.5131 28.8938 48.4311 28.5444 48.4311H27.3459V50.2369Z" fill="white"/>
<path d="M18.2383 53.9986H16.9727L19.277 47.4531H20.7408L23.0483 53.9986H21.7827L20.0344 48.7955H19.9833L18.2383 53.9986ZM18.2798 51.4322H21.7315V52.3846H18.2798V51.4322Z" fill="white"/>
<path d="M9.47656 53.9986H8.21094L10.5153 47.4531H11.979L14.2866 53.9986H13.021L11.2727 48.7955H11.2216L9.47656 53.9986ZM9.51811 51.4322H12.9698V52.3846H9.51811V51.4322Z" fill="white"/>
<path d="M4.20384 49.256C4.17401 48.9769 4.0483 48.7596 3.8267 48.604C3.60724 48.4485 3.32173 48.3707 2.97017 48.3707C2.72301 48.3707 2.51101 48.408 2.33416 48.4826C2.15732 48.5572 2.02202 48.6584 1.92827 48.7862C1.83452 48.9141 1.78658 49.06 1.78445 49.2241C1.78445 49.3604 1.81534 49.4787 1.87713 49.5788C1.94105 49.679 2.02734 49.7642 2.13601 49.8345C2.24467 49.9027 2.36506 49.9602 2.49716 50.0071C2.62926 50.054 2.76243 50.0934 2.89666 50.1254L3.5103 50.2788C3.75746 50.3363 3.99503 50.4141 4.22301 50.5121C4.45312 50.6101 4.65874 50.7337 4.83984 50.8828C5.02308 51.032 5.16797 51.212 5.2745 51.4229C5.38104 51.6339 5.4343 51.881 5.4343 52.1644C5.4343 52.5479 5.33629 52.8857 5.14027 53.1776C4.94425 53.4673 4.66087 53.6942 4.29013 53.8583C3.92152 54.0202 3.47514 54.1012 2.95099 54.1012C2.44176 54.1012 1.99964 54.0224 1.62464 53.8647C1.25178 53.707 0.959872 53.4769 0.748935 53.1744C0.540128 52.8718 0.427202 52.5032 0.410156 52.0685H1.5767C1.59375 52.2965 1.66406 52.4862 1.78764 52.6374C1.91122 52.7887 2.07209 52.9016 2.27024 52.9762C2.47053 53.0508 2.69425 53.0881 2.94141 53.0881C3.19922 53.0881 3.42507 53.0497 3.61896 52.973C3.81499 52.8942 3.96839 52.7855 4.07919 52.647C4.18999 52.5064 4.24645 52.3423 4.24858 52.1548C4.24645 51.9844 4.19638 51.8438 4.09837 51.733C4.00035 51.62 3.86293 51.5263 3.68608 51.4517C3.51136 51.375 3.30682 51.3068 3.07244 51.2472L2.32777 51.0554C1.78871 50.9169 1.36257 50.707 1.04936 50.4258C0.738281 50.1424 0.582741 49.7663 0.582741 49.2976C0.582741 48.9119 0.687145 48.5742 0.895952 48.2844C1.10689 47.9947 1.39347 47.7699 1.75568 47.6101C2.1179 47.4482 2.52805 47.3672 2.98615 47.3672C3.45064 47.3672 3.8576 47.4482 4.20703 47.6101C4.55859 47.7699 4.83452 47.9925 5.0348 48.2781C5.23509 48.5614 5.33842 48.8874 5.34482 49.256H4.20384Z" fill="white"/>
<path d="M242.109 4.10902V0.90625H258.937V4.10902H252.418V21.9972H248.628V4.10902H242.109Z" fill="white"/>
<path d="M224.594 21.9972V0.90625H238.105V4.10902H228.414V9.83487H237.178V13.0376H228.414V21.9972H224.594Z" fill="white"/>
<path d="M219.534 11.451C219.534 13.7235 219.108 15.6699 218.257 17.2901C217.412 18.9035 216.259 20.1393 214.797 20.9975C213.341 21.8557 211.69 22.2848 209.843 22.2848C207.996 22.2848 206.342 21.8557 204.879 20.9975C203.424 20.1325 202.27 18.8932 201.419 17.2798C200.575 15.6596 200.152 13.7166 200.152 11.451C200.152 9.1785 200.575 7.23556 201.419 5.62216C202.27 4.00189 203.424 2.76267 204.879 1.90447C206.342 1.04628 207.996 0.617188 209.843 0.617188C211.69 0.617188 213.341 1.04628 214.797 1.90447C216.259 2.76267 217.412 4.00189 218.257 5.62216C219.108 7.23556 219.534 9.1785 219.534 11.451ZM215.692 11.451C215.692 9.85133 215.442 8.50225 214.941 7.40376C214.446 6.29841 213.76 5.46425 212.881 4.90128C212.002 4.33144 210.99 4.04652 209.843 4.04652C208.696 4.04652 207.684 4.33144 206.805 4.90128C205.926 5.46425 205.236 6.29841 204.735 7.40376C204.241 8.50225 203.994 9.85133 203.994 11.451C203.994 13.0507 204.241 14.4032 204.735 15.5085C205.236 16.607 205.926 17.4412 206.805 18.011C207.684 18.574 208.696 18.8555 209.843 18.8555C210.99 18.8555 212.002 18.574 212.881 18.011C213.76 17.4412 214.446 16.607 214.941 15.5085C215.442 14.4032 215.692 13.0507 215.692 11.451Z" fill="white"/>
<path d="M191.865 6.70348C191.769 5.8041 191.364 5.10381 190.649 4.60263C189.942 4.10144 189.022 3.85085 187.89 3.85085C187.093 3.85085 186.41 3.971 185.84 4.21129C185.27 4.45159 184.834 4.7777 184.532 5.18963C184.23 5.60156 184.076 6.07185 184.069 6.6005C184.069 7.03989 184.168 7.42093 184.368 7.74361C184.574 8.06629 184.852 8.34091 185.202 8.56747C185.552 8.78717 185.94 8.97254 186.365 9.12358C186.791 9.27462 187.22 9.40163 187.653 9.50462L189.63 9.99893C190.426 10.1843 191.192 10.4349 191.926 10.7507C192.668 11.0665 193.33 11.4647 193.914 11.9453C194.504 12.4259 194.971 13.006 195.315 13.6857C195.658 14.3654 195.83 15.1618 195.83 16.0749C195.83 17.3107 195.514 18.3989 194.882 19.3395C194.25 20.2732 193.337 21.0044 192.143 21.533C190.955 22.0548 189.517 22.3157 187.828 22.3157C186.187 22.3157 184.762 22.0617 183.554 21.5536C182.353 21.0456 181.412 20.3041 180.732 19.3292C180.059 18.3543 179.696 17.1665 179.641 15.766H183.399C183.454 16.5006 183.681 17.1116 184.079 17.5991C184.477 18.0865 184.996 18.4504 185.634 18.6907C186.28 18.931 187 19.0511 187.797 19.0511C188.628 19.0511 189.355 18.9276 189.98 18.6804C190.612 18.4264 191.106 18.0762 191.463 17.63C191.82 17.1768 192.002 16.6482 192.009 16.044C192.002 15.4948 191.841 15.0417 191.525 14.6847C191.209 14.3208 190.766 14.0187 190.196 13.7784C189.633 13.5313 188.974 13.3116 188.219 13.1193L185.82 12.5014C184.083 12.0552 182.71 11.3789 181.7 10.4727C180.698 9.55954 180.197 8.34777 180.197 6.83736C180.197 5.5947 180.533 4.50651 181.206 3.5728C181.886 2.63909 182.809 1.91477 183.976 1.39986C185.143 0.878078 186.465 0.617188 187.941 0.617188C189.438 0.617188 190.749 0.878078 191.875 1.39986C193.008 1.91477 193.897 2.63222 194.542 3.5522C195.188 4.46532 195.521 5.51574 195.541 6.70348H191.865Z" fill="white"/>
<path d="M159.895 21.9972V0.90625H167.968C169.493 0.90625 170.759 1.14654 171.768 1.62713C172.785 2.10085 173.543 2.74965 174.044 3.57351C174.552 4.39737 174.806 5.33108 174.806 6.37465C174.806 7.23284 174.642 7.96745 174.312 8.57848C173.983 9.18265 173.54 9.67353 172.984 10.0511C172.428 10.4287 171.806 10.6999 171.12 10.8647V11.0707C171.868 11.1119 172.585 11.3419 173.272 11.7607C173.965 12.1726 174.532 12.7562 174.971 13.5114C175.411 14.2666 175.63 15.1797 175.63 16.2507C175.63 17.3423 175.366 18.3241 174.837 19.196C174.309 20.0611 173.512 20.7442 172.448 21.2454C171.384 21.7466 170.045 21.9972 168.432 21.9972H159.895ZM163.715 18.8047H167.824C169.211 18.8047 170.21 18.5404 170.821 18.0117C171.439 17.4762 171.748 16.7897 171.748 15.9521C171.748 15.3273 171.593 14.7643 171.284 14.2631C170.975 13.7551 170.536 13.3569 169.966 13.0685C169.396 12.7733 168.717 12.6257 167.927 12.6257H163.715V18.8047ZM163.715 9.87607H167.495C168.154 9.87607 168.748 9.75592 169.276 9.51562C169.805 9.26847 170.22 8.92176 170.522 8.4755C170.831 8.02237 170.986 7.48686 170.986 6.86896C170.986 6.05196 170.697 5.37914 170.121 4.8505C169.551 4.32185 168.703 4.05753 167.577 4.05753H163.715V9.87607Z" fill="white"/>
<path d="M140.168 21.9972H136.09L143.515 0.90625H148.232L155.667 21.9972H151.589L145.956 5.23153H145.791L140.168 21.9972ZM140.302 13.7276H151.424V16.7965H140.302V13.7276Z" fill="white"/>
<path d="M117.73 21.9972H113.652L121.077 0.90625H125.794L133.229 21.9972H129.151L123.518 5.23153H123.353L117.73 21.9972ZM117.864 13.7276H128.987V16.7965H117.864V13.7276Z" fill="white"/>
<path d="M106.54 6.70348C106.444 5.8041 106.039 5.10381 105.325 4.60263C104.618 4.10144 103.698 3.85085 102.565 3.85085C101.769 3.85085 101.086 3.971 100.516 4.21129C99.9461 4.45159 99.5102 4.7777 99.2081 5.18963C98.906 5.60156 98.7515 6.07185 98.7447 6.6005C98.7447 7.03989 98.8442 7.42093 99.0433 7.74361C99.2493 8.06629 99.5273 8.34091 99.8775 8.56747C100.228 8.78717 100.616 8.97254 101.041 9.12358C101.467 9.27462 101.896 9.40163 102.328 9.50462L104.306 9.99893C105.102 10.1843 105.868 10.4349 106.602 10.7507C107.344 11.0665 108.006 11.4647 108.59 11.9453C109.18 12.4259 109.647 13.006 109.99 13.6857C110.334 14.3654 110.505 15.1618 110.505 16.0749C110.505 17.3107 110.19 18.3989 109.558 19.3395C108.926 20.2732 108.013 21.0044 106.819 21.533C105.631 22.0548 104.192 22.3157 102.504 22.3157C100.863 22.3157 99.4381 22.0617 98.2298 21.5536C97.0283 21.0456 96.0877 20.3041 95.408 19.3292C94.7352 18.3543 94.3713 17.1665 94.3164 15.766H98.0753C98.1302 16.5006 98.3568 17.1116 98.755 17.5991C99.1532 18.0865 99.6715 18.4504 100.31 18.6907C100.955 18.931 101.676 19.0511 102.473 19.0511C103.303 19.0511 104.031 18.9276 104.656 18.6804C105.288 18.4264 105.782 18.0762 106.139 17.63C106.496 17.1768 106.678 16.6482 106.685 16.044C106.678 15.4948 106.516 15.0417 106.201 14.6847C105.885 14.3208 105.442 14.0187 104.872 13.7784C104.309 13.5313 103.65 13.3116 102.895 13.1193L100.495 12.5014C98.7584 12.0552 97.3853 11.3789 96.3761 10.4727C95.3737 9.55954 94.8725 8.34777 94.8725 6.83736C94.8725 5.5947 95.2089 4.50651 95.8817 3.5728C96.5614 2.63909 97.4848 1.91477 98.652 1.39986C99.8191 0.878078 101.141 0.617188 102.617 0.617188C104.114 0.617188 105.425 0.878078 106.551 1.39986C107.684 1.91477 108.573 2.63222 109.218 3.5522C109.863 4.46532 110.196 5.51574 110.217 6.70348H106.54Z" fill="white"/>
<path d="M249.733 53.9964H245.543V41.6328H249.817C251.045 41.6328 252.099 41.8803 252.98 42.3754C253.866 42.8664 254.546 43.5727 255.021 44.4943C255.496 45.416 255.733 46.5187 255.733 47.8026C255.733 49.0904 255.494 50.1972 255.015 51.1229C254.54 52.0485 253.854 52.7589 252.956 53.2539C252.063 53.7489 250.988 53.9964 249.733 53.9964ZM247.783 52.0586H249.624C250.485 52.0586 251.204 51.9016 251.779 51.5877C252.355 51.2698 252.787 50.7969 253.077 50.169C253.367 49.5372 253.512 48.7483 253.512 47.8026C253.512 46.8568 253.367 46.072 253.077 45.4482C252.787 44.8203 252.359 44.3514 251.791 44.0415C251.228 43.7276 250.527 43.5707 249.69 43.5707H247.783V52.0586Z" fill="white"/>
<path d="M240.719 41.6328V53.9964H238.727L232.901 45.5749H232.798V53.9964H230.559V41.6328H232.563L238.382 50.0604H238.491V41.6328H240.719Z" fill="white"/>
<path d="M226.065 47.8196C226.065 49.1518 225.815 50.2927 225.316 51.2425C224.821 52.1883 224.145 52.9128 223.288 53.4158C222.434 53.9189 221.467 54.1705 220.384 54.1705C219.301 54.1705 218.331 53.9189 217.474 53.4158C216.621 52.9087 215.945 52.1823 215.446 51.2365C214.951 50.2867 214.703 49.1477 214.703 47.8196C214.703 46.4875 214.951 45.3485 215.446 44.4027C215.945 43.4529 216.621 42.7264 217.474 42.2234C218.331 41.7203 219.301 41.4688 220.384 41.4688C221.467 41.4688 222.434 41.7203 223.288 42.2234C224.145 42.7264 224.821 43.4529 225.316 44.4027C225.815 45.3485 226.065 46.4875 226.065 47.8196ZM223.813 47.8196C223.813 46.8819 223.666 46.091 223.372 45.4471C223.082 44.7991 222.68 44.3101 222.165 43.9801C221.65 43.6461 221.056 43.479 220.384 43.479C219.712 43.479 219.118 43.6461 218.603 43.9801C218.088 44.3101 217.683 44.7991 217.39 45.4471C217.1 46.091 216.955 46.8819 216.955 47.8196C216.955 48.7573 217.1 49.5502 217.39 50.1982C217.683 50.8421 218.088 51.3311 218.603 51.6651C219.118 51.9951 219.712 52.1602 220.384 52.1602C221.056 52.1602 221.65 51.9951 222.165 51.6651C222.68 51.3311 223.082 50.8421 223.372 50.1982C223.666 49.5502 223.813 48.7573 223.813 47.8196Z" fill="white"/>
<path d="M200.52 41.6328H203.049L206.074 47.1023H206.194L209.219 41.6328H211.748L207.251 49.3842V53.9964H205.017V49.3842L200.52 41.6328Z" fill="white"/>
<path d="M188.656 53.9964V41.6328H196.697V43.5103H190.896V46.8668H196.281V48.7443H190.896V52.119H196.746V53.9964H188.656Z" fill="white"/>
<path d="M175.105 53.9964V41.6328H179.838C180.732 41.6328 181.474 41.7737 182.066 42.0554C182.662 42.3331 183.106 42.7134 183.4 43.1964C183.698 43.6793 183.847 44.2267 183.847 44.8384C183.847 45.3415 183.75 45.7721 183.557 46.1303C183.364 46.4845 183.104 46.7723 182.778 46.9936C182.452 47.215 182.088 47.3739 181.686 47.4705V47.5913C182.124 47.6154 182.545 47.7502 182.947 47.9957C183.354 48.2372 183.686 48.5793 183.944 49.022C184.201 49.4647 184.33 50 184.33 50.6278C184.33 51.2678 184.175 51.8433 183.865 52.3544C183.555 52.8615 183.088 53.262 182.464 53.5558C181.841 53.8496 181.056 53.9964 180.11 53.9964H175.105ZM177.345 52.125H179.754C180.567 52.125 181.152 51.9701 181.511 51.6602C181.873 51.3462 182.054 50.9438 182.054 50.4528C182.054 50.0865 181.963 49.7565 181.782 49.4627C181.601 49.1649 181.344 48.9315 181.01 48.7624C180.676 48.5894 180.277 48.5028 179.814 48.5028H177.345V52.125ZM177.345 46.891H179.561C179.947 46.891 180.295 46.8205 180.605 46.6797C180.915 46.5348 181.159 46.3316 181.336 46.07C181.517 45.8043 181.607 45.4904 181.607 45.1282C181.607 44.6493 181.438 44.2549 181.1 43.945C180.766 43.6351 180.269 43.4801 179.609 43.4801H177.345V46.891Z" fill="white"/>
<path d="M153.477 53.9964V41.6328H155.716V46.8668H161.445V41.6328H163.691V53.9964H161.445V48.7443H155.716V53.9964H153.477Z" fill="white"/>
<path d="M149.045 45.8093H146.787C146.723 45.439 146.604 45.111 146.431 44.8253C146.258 44.5355 146.043 44.29 145.785 44.0888C145.528 43.8875 145.234 43.7366 144.904 43.636C144.578 43.5314 144.226 43.479 143.847 43.479C143.175 43.479 142.58 43.6481 142.06 43.9862C141.541 44.3202 141.135 44.8112 140.841 45.4592C140.547 46.1031 140.4 46.8899 140.4 47.8196C140.4 48.7654 140.547 49.5623 140.841 50.2102C141.139 50.8542 141.545 51.3411 142.06 51.6712C142.58 51.9972 143.173 52.1602 143.841 52.1602C144.212 52.1602 144.558 52.1119 144.88 52.0153C145.206 51.9147 145.497 51.7678 145.755 51.5746C146.017 51.3814 146.236 51.1439 146.413 50.8622C146.594 50.5805 146.719 50.2585 146.787 49.8963L149.045 49.9084C148.961 50.496 148.777 51.0473 148.496 51.5625C148.218 52.0777 147.854 52.5324 147.403 52.9268C146.952 53.3172 146.425 53.6231 145.821 53.8445C145.218 54.0618 144.548 54.1705 143.811 54.1705C142.724 54.1705 141.754 53.9189 140.901 53.4158C140.048 52.9128 139.376 52.1863 138.885 51.2365C138.394 50.2867 138.148 49.1477 138.148 47.8196C138.148 46.4875 138.396 45.3485 138.891 44.4027C139.386 43.4529 140.06 42.7264 140.913 42.2234C141.767 41.7203 142.732 41.4688 143.811 41.4688C144.499 41.4688 145.139 41.5653 145.731 41.7585C146.322 41.9517 146.85 42.2354 147.312 42.6097C147.775 42.98 148.156 43.4348 148.453 43.9741C148.755 44.5094 148.953 45.1211 149.045 45.8093Z" fill="white"/>
<path d="M125.949 53.9964H123.559L127.911 41.6328H130.676L135.035 53.9964H132.644L129.342 44.1683H129.245L125.949 53.9964ZM126.028 49.1488H132.548V50.9478H126.028V49.1488Z" fill="white"/>
<path d="M111.656 53.9964V41.6328H119.697V43.5103H113.896V46.8668H119.281V48.7443H113.896V52.119H119.746V53.9964H111.656Z" fill="white"/>
<path d="M98.2188 53.9964V41.6328H102.855C103.805 41.6328 104.602 41.7978 105.246 42.1278C105.894 42.4579 106.383 42.9207 106.713 43.5163C107.047 44.108 107.214 44.7982 107.214 45.587C107.214 46.3799 107.045 47.0681 106.707 47.6516C106.373 48.2312 105.88 48.6799 105.228 48.9979C104.576 49.3118 103.775 49.4688 102.825 49.4688H99.5227V47.6094H102.523C103.078 47.6094 103.533 47.5329 103.887 47.38C104.242 47.223 104.503 46.9956 104.672 46.6978C104.845 46.396 104.932 46.0257 104.932 45.587C104.932 45.1483 104.845 44.774 104.672 44.4641C104.499 44.1502 104.236 43.9128 103.881 43.7518C103.527 43.5868 103.07 43.5043 102.511 43.5043H100.458V53.9964H98.2188ZM104.606 48.3942L107.667 53.9964H105.167L102.161 48.3942H104.606Z" fill="white"/>
</svg>
