<svg width="52" height="52" viewBox="0 0 52 52" fill="none" xmlns="http://www.w3.org/2000/svg">
<mask id="path-1-inside-1_1091_291199" fill="white">
<path fill-rule="evenodd" clip-rule="evenodd" d="M45.157 23.2654C45.0661 23.2653 44.976 23.248 44.8915 23.2143L39.4655 21.0555C39.3344 21.0034 39.2215 20.9141 39.1408 20.7984C39.0601 20.6827 39.0151 20.5459 39.0115 20.4049C39.0079 20.2639 39.0458 20.125 39.1205 20.0054C39.1952 19.8857 39.3034 19.7907 39.4317 19.7321C39.9651 19.4866 40.3842 19.0459 40.6025 18.5008C40.7133 18.2217 40.7681 17.9235 40.7635 17.6232C40.759 17.323 40.6953 17.0266 40.5762 16.7509C40.457 16.4753 40.2847 16.2259 40.069 16.0169C39.8534 15.8079 39.5987 15.6435 39.3194 15.5331C38.7562 15.309 38.127 15.3176 37.5701 15.5569C37.0131 15.7963 36.5739 16.2468 36.3488 16.8097C36.2387 17.078 36.1825 17.3654 36.1835 17.6554C36.1845 17.9455 36.2426 18.2325 36.3546 18.5001C36.4104 18.6308 36.4263 18.7751 36.4002 18.9148C36.3741 19.0544 36.3072 19.1833 36.208 19.285C36.1088 19.3868 35.9817 19.4569 35.8427 19.4865C35.7037 19.5161 35.5591 19.5039 35.427 19.4514L29.9801 17.2868C29.8922 17.2519 29.812 17.2 29.7441 17.1341C29.6763 17.0681 29.6221 16.9895 29.5847 16.9026C29.5472 16.8157 29.5273 16.7223 29.526 16.6277C29.5247 16.5331 29.5421 16.4391 29.5772 16.3513L31.2553 12.1307C30.7869 12.128 30.3231 12.0375 29.888 11.8637C29.3805 11.6599 28.924 11.3468 28.551 10.9467C28.1781 10.5466 27.8978 10.0692 27.7302 9.54859C27.5625 9.02796 27.5115 8.47679 27.5808 7.93423C27.6502 7.39167 27.8381 6.87104 28.1314 6.40931C28.4246 5.94757 28.8159 5.55607 29.2775 5.26261C29.739 4.96915 30.2596 4.78092 30.8021 4.7113C31.3446 4.64168 31.8958 4.69238 32.4165 4.85978C32.9373 5.02719 33.4147 5.30721 33.815 5.67994L35.4975 1.45358C35.5325 1.36571 35.5844 1.28558 35.6504 1.2178C35.7163 1.15001 35.795 1.09589 35.8819 1.05853C35.9688 1.02117 36.0622 1.0013 36.1567 1.00006C36.2513 0.998824 36.3452 1.01624 36.433 1.05131L50.0282 6.45498C50.5538 6.66467 50.9749 7.0742 51.1991 7.59381C51.4233 8.11341 51.4323 8.70071 51.2242 9.22698L45.827 22.807C45.7744 22.942 45.6824 23.0579 45.5628 23.1397C45.4433 23.2215 45.3019 23.2653 45.157 23.2654ZM41.1991 20.1984L44.7533 21.6103L49.885 8.69877C49.9505 8.52718 49.9464 8.33681 49.8737 8.16815C49.801 7.99949 49.6654 7.86584 49.4957 7.79564L36.5698 2.65464L34.6786 7.42216C34.6265 7.55369 34.5367 7.66694 34.4206 7.74774C34.3044 7.82855 34.167 7.87333 34.0256 7.87647C33.8841 7.87962 33.7449 7.841 33.6253 7.76545C33.5057 7.68989 33.411 7.58074 33.353 7.45166C33.167 7.04401 32.8652 6.70003 32.4853 6.46247C32.1053 6.2249 31.6639 6.10423 31.216 6.11545C30.768 6.12667 30.3332 6.26929 29.9656 6.52557C29.598 6.78186 29.3139 7.14051 29.1484 7.55697C28.983 7.97342 28.9436 8.4293 29.0351 8.86796C29.1267 9.30662 29.3451 9.70871 29.6633 10.0243C29.9814 10.3398 30.3853 10.5549 30.8247 10.6428C31.2641 10.7307 31.7196 10.6876 32.1347 10.5187C32.2654 10.4649 32.409 10.4508 32.5476 10.4781C32.6863 10.5054 32.8138 10.5729 32.9144 10.6722C33.0149 10.7715 33.084 10.8982 33.113 11.0365C33.142 11.1748 33.1296 11.3186 33.0774 11.4499L31.1805 16.2131L34.7441 17.63C34.7465 17.0221 34.8974 16.424 35.1837 15.8877C35.47 15.3514 35.8829 14.8931 36.3866 14.5528C36.8904 14.2124 37.4696 14.0003 38.074 13.9348C38.6784 13.8693 39.2896 13.9525 39.8546 14.177C40.4195 14.4016 40.921 14.7607 41.3155 15.2233C41.71 15.6858 41.9855 16.2378 42.1181 16.8311C42.2507 17.4243 42.2364 18.041 42.0763 18.6275C41.9163 19.214 41.6154 19.7525 41.1998 20.1962L41.1991 20.1984ZM42.5924 29.0771H36.5538C36.8799 28.3819 37.0252 27.6156 36.9763 26.8493C36.9274 26.083 36.6858 25.3414 36.274 24.6933C35.8621 24.0452 35.2933 23.5115 34.6203 23.1418C33.9472 22.7721 33.1918 22.5782 32.4239 22.5782C31.656 22.5782 30.9005 22.7721 30.2275 23.1418C29.5545 23.5115 28.9857 24.0452 28.5738 24.6933C28.1619 25.3414 27.9204 26.083 27.8714 26.8493C27.8225 27.6156 27.9678 28.3819 28.2939 29.0771H22.904V22.3429C22.9045 22.2009 22.8631 22.062 22.7848 21.9435C22.7066 21.8251 22.5951 21.7324 22.4643 21.6772C22.3336 21.622 22.1894 21.6066 22.0499 21.6332C21.9105 21.6597 21.782 21.7268 21.6806 21.8262C21.1012 22.3847 20.3265 22.6946 19.5217 22.6898C18.6957 22.6898 17.9035 22.3616 17.3194 21.7775C16.7353 21.1934 16.4072 20.4012 16.4072 19.5752C16.4072 18.7492 16.7353 17.957 17.3194 17.3729C17.9035 16.7888 18.6957 16.4607 19.5217 16.4607C20.327 16.4568 21.1018 16.768 21.6806 17.3278C21.782 17.4272 21.9105 17.4944 22.0499 17.5209C22.1894 17.5474 22.3336 17.5321 22.4643 17.4768C22.5951 17.4216 22.7066 17.3289 22.7848 17.2105C22.8631 17.092 22.9045 16.9531 22.904 16.8111V9.35006C22.904 9.1592 22.8281 8.97616 22.6932 8.84121C22.5582 8.70625 22.3752 8.63043 22.1843 8.63043H3.53812C2.86704 8.62948 2.22297 8.8947 1.74717 9.36794C1.27137 9.84118 1.00267 10.4838 1 11.1549V48.4682C1.00152 49.1403 1.26963 49.7843 1.74547 50.2589C2.22132 50.7335 2.86603 51 3.53812 50.9998H40.8449C41.5152 50.9983 42.1575 50.7308 42.6308 50.2562C43.1041 49.7815 43.3698 49.1385 43.3694 48.4682V29.955C43.3815 29.9023 43.3878 29.848 43.3878 29.7931C43.3878 29.6023 43.312 29.4192 43.177 29.2843C43.0421 29.1493 42.859 29.0735 42.6682 29.0735H42.6617C42.6385 29.0736 42.6154 29.0748 42.5924 29.0771ZM34.7199 29.2569C34.6633 29.3069 34.6146 29.3657 34.576 29.4314C34.5101 29.5434 34.4757 29.6711 34.4766 29.801C34.4777 29.9911 34.554 30.1731 34.6889 30.3071C34.8237 30.4411 35.0061 30.5163 35.1962 30.5163C35.2206 30.5164 35.2449 30.5152 35.269 30.5128H41.9301V48.4682C41.9307 48.7568 41.8168 49.0339 41.6133 49.2387C41.4099 49.4435 41.1336 49.5592 40.8449 49.5606H22.9197V44.1507C23.5223 44.4362 24.1859 44.5881 24.8649 44.5879C25.6106 44.5872 26.3447 44.4035 27.0028 44.0529C27.661 43.7024 28.223 43.1957 28.6397 42.5773C29.0564 41.9589 29.3151 41.2478 29.3929 40.5062C29.4707 39.7646 29.3654 39.0152 29.0861 38.3238C28.8069 37.6324 28.3622 37.0201 27.7912 36.5405C27.2202 36.061 26.5402 35.7289 25.8109 35.5734C25.0816 35.4179 24.3253 35.4436 23.6084 35.6485C23.3687 35.717 23.1358 35.8048 22.9119 35.9107V30.5106H29.662C29.8035 30.5102 29.9417 30.468 30.0594 30.3894C30.1771 30.3108 30.269 30.1992 30.3236 30.0687C30.3782 29.9381 30.3931 29.7944 30.3664 29.6554C30.3397 29.5164 30.2727 29.3883 30.1736 29.2873C29.6135 28.7165 29.3029 27.9467 29.3101 27.1471C29.3108 26.6385 29.4361 26.1379 29.6749 25.6889C29.9138 25.2399 30.2589 24.8563 30.6803 24.5714C31.1016 24.2866 31.5863 24.1093 32.0919 24.055C32.5976 24.0006 33.1088 24.071 33.581 24.2598C34.0532 24.4486 34.472 24.7502 34.8008 25.1382C35.1296 25.5262 35.3583 25.9889 35.4671 26.4857C35.5758 26.9825 35.5613 27.4983 35.4247 27.9882C35.2929 28.4609 35.0513 28.8956 34.7199 29.2569ZM21.8988 37.9228C21.8193 37.8873 21.7462 37.8373 21.6834 37.7746C21.5485 37.6396 21.4727 37.4566 21.4727 37.2657V30.5127H16.0882C16.3755 31.1174 16.5269 31.7845 16.523 32.4666C16.5199 33.6737 16.0386 34.8303 15.1844 35.6832C14.3301 36.5361 13.1727 37.0156 11.9656 37.0168C11.0711 37.017 10.1964 36.7537 9.45082 36.2596C8.7052 35.7655 8.12175 35.0626 7.77337 34.2388C7.425 33.415 7.32716 32.5067 7.49208 31.6276C7.56453 31.2414 7.68627 30.8684 7.85285 30.5171H2.43925V48.4682C2.44058 48.7586 2.55699 49.0367 2.76297 49.2414C2.96894 49.4462 3.24768 49.5609 3.53812 49.5606H21.4805V42.921C21.4717 42.8794 21.4665 42.8369 21.4652 42.7942C21.4622 42.6982 21.4785 42.6025 21.5131 42.5129C21.5476 42.4232 21.5998 42.3414 21.6665 42.2722C21.7332 42.2031 21.8131 42.148 21.9015 42.1102C21.9898 42.0724 22.0848 42.0527 22.1809 42.0522C22.277 42.0517 22.3722 42.0705 22.4609 42.1074C22.4688 42.1107 22.4766 42.1141 22.4843 42.1176C22.5674 42.1534 22.6438 42.2047 22.7089 42.2699C22.7259 42.2869 22.7419 42.3046 22.757 42.323C23.1856 42.7147 23.7157 42.979 24.2876 43.0852C24.8863 43.1965 25.5044 43.1296 26.0655 42.8929C26.6266 42.6563 27.1058 42.2602 27.4439 41.7537C27.7821 41.2473 27.9641 40.6528 27.9676 40.0438C27.9711 39.4349 27.7959 38.8383 27.4636 38.3281C27.1314 37.8178 26.6567 37.4162 26.0984 37.1731C25.5401 36.9299 24.9227 36.856 24.3228 36.9603C23.7229 37.0647 23.1667 37.3428 22.7233 37.7601C22.6249 37.8652 22.4972 37.9384 22.3567 37.9702C22.2163 38.002 22.0695 37.9909 21.9354 37.9383C21.923 37.9335 21.9108 37.9283 21.8988 37.9228ZM9.7326 30.2991C9.7904 30.2384 9.83658 30.1687 9.86981 30.0935C9.91142 30.0013 9.93353 29.9005 9.93353 29.7974C9.93353 29.6066 9.85771 29.4235 9.72276 29.2886C9.5878 29.1536 9.40476 29.0778 9.2139 29.0778H2.43925V11.1549C2.44153 10.8654 2.55847 10.5886 2.76445 10.3852C2.97042 10.1818 3.24863 10.0683 3.53812 10.0697H21.4647V15.4474C20.7707 15.1229 20.0061 14.9786 19.2415 15.028C18.477 15.0775 17.7373 15.319 17.0909 15.7303C16.4445 16.1416 15.9123 16.7093 15.5436 17.3809C15.1749 18.0524 14.9816 18.8062 14.9816 19.5723C14.9816 20.3385 15.1749 21.0922 15.5436 21.7638C15.9123 22.4354 16.4445 23.0031 17.0909 23.4144C17.7373 23.8257 18.477 24.0672 19.2415 24.1166C20.0061 24.1661 20.7707 24.0218 21.4647 23.6972V29.0735H14.8444C14.8057 29.0659 14.7664 29.0615 14.7269 29.0603C14.63 29.0575 14.5335 29.0742 14.4432 29.1096C14.3529 29.145 14.2707 29.1982 14.2016 29.2661C14.1324 29.334 14.0776 29.4152 14.0406 29.5048C14.0036 29.5944 13.9851 29.6906 13.9861 29.7875C13.9872 29.8845 14.0078 29.9802 14.0468 30.069C14.0858 30.1577 14.1423 30.2377 14.213 30.3041C14.7765 30.8808 15.0895 31.6567 15.0837 32.463C15.0822 33.2895 14.7528 34.0817 14.1678 34.6656C13.5828 35.2496 12.79 35.5775 11.9634 35.5775C11.3521 35.5774 10.7543 35.3971 10.2448 35.0592C9.73528 34.7213 9.33662 34.2408 9.09862 33.6776C8.86062 33.1145 8.79383 32.4937 8.90658 31.8928C9.01933 31.292 9.30663 30.7376 9.7326 30.2991Z"/>
</mask>
<path fill-rule="evenodd" clip-rule="evenodd" d="M45.157 23.2654C45.0661 23.2653 44.976 23.248 44.8915 23.2143L39.4655 21.0555C39.3344 21.0034 39.2215 20.9141 39.1408 20.7984C39.0601 20.6827 39.0151 20.5459 39.0115 20.4049C39.0079 20.2639 39.0458 20.125 39.1205 20.0054C39.1952 19.8857 39.3034 19.7907 39.4317 19.7321C39.9651 19.4866 40.3842 19.0459 40.6025 18.5008C40.7133 18.2217 40.7681 17.9235 40.7635 17.6232C40.759 17.323 40.6953 17.0266 40.5762 16.7509C40.457 16.4753 40.2847 16.2259 40.069 16.0169C39.8534 15.8079 39.5987 15.6435 39.3194 15.5331C38.7562 15.309 38.127 15.3176 37.5701 15.5569C37.0131 15.7963 36.5739 16.2468 36.3488 16.8097C36.2387 17.078 36.1825 17.3654 36.1835 17.6554C36.1845 17.9455 36.2426 18.2325 36.3546 18.5001C36.4104 18.6308 36.4263 18.7751 36.4002 18.9148C36.3741 19.0544 36.3072 19.1833 36.208 19.285C36.1088 19.3868 35.9817 19.4569 35.8427 19.4865C35.7037 19.5161 35.5591 19.5039 35.427 19.4514L29.9801 17.2868C29.8922 17.2519 29.812 17.2 29.7441 17.1341C29.6763 17.0681 29.6221 16.9895 29.5847 16.9026C29.5472 16.8157 29.5273 16.7223 29.526 16.6277C29.5247 16.5331 29.5421 16.4391 29.5772 16.3513L31.2553 12.1307C30.7869 12.128 30.3231 12.0375 29.888 11.8637C29.3805 11.6599 28.924 11.3468 28.551 10.9467C28.1781 10.5466 27.8978 10.0692 27.7302 9.54859C27.5625 9.02796 27.5115 8.47679 27.5808 7.93423C27.6502 7.39167 27.8381 6.87104 28.1314 6.40931C28.4246 5.94757 28.8159 5.55607 29.2775 5.26261C29.739 4.96915 30.2596 4.78092 30.8021 4.7113C31.3446 4.64168 31.8958 4.69238 32.4165 4.85978C32.9373 5.02719 33.4147 5.30721 33.815 5.67994L35.4975 1.45358C35.5325 1.36571 35.5844 1.28558 35.6504 1.2178C35.7163 1.15001 35.795 1.09589 35.8819 1.05853C35.9688 1.02117 36.0622 1.0013 36.1567 1.00006C36.2513 0.998824 36.3452 1.01624 36.433 1.05131L50.0282 6.45498C50.5538 6.66467 50.9749 7.0742 51.1991 7.59381C51.4233 8.11341 51.4323 8.70071 51.2242 9.22698L45.827 22.807C45.7744 22.942 45.6824 23.0579 45.5628 23.1397C45.4433 23.2215 45.3019 23.2653 45.157 23.2654ZM41.1991 20.1984L44.7533 21.6103L49.885 8.69877C49.9505 8.52718 49.9464 8.33681 49.8737 8.16815C49.801 7.99949 49.6654 7.86584 49.4957 7.79564L36.5698 2.65464L34.6786 7.42216C34.6265 7.55369 34.5367 7.66694 34.4206 7.74774C34.3044 7.82855 34.167 7.87333 34.0256 7.87647C33.8841 7.87962 33.7449 7.841 33.6253 7.76545C33.5057 7.68989 33.411 7.58074 33.353 7.45166C33.167 7.04401 32.8652 6.70003 32.4853 6.46247C32.1053 6.2249 31.6639 6.10423 31.216 6.11545C30.768 6.12667 30.3332 6.26929 29.9656 6.52557C29.598 6.78186 29.3139 7.14051 29.1484 7.55697C28.983 7.97342 28.9436 8.4293 29.0351 8.86796C29.1267 9.30662 29.3451 9.70871 29.6633 10.0243C29.9814 10.3398 30.3853 10.5549 30.8247 10.6428C31.2641 10.7307 31.7196 10.6876 32.1347 10.5187C32.2654 10.4649 32.409 10.4508 32.5476 10.4781C32.6863 10.5054 32.8138 10.5729 32.9144 10.6722C33.0149 10.7715 33.084 10.8982 33.113 11.0365C33.142 11.1748 33.1296 11.3186 33.0774 11.4499L31.1805 16.2131L34.7441 17.63C34.7465 17.0221 34.8974 16.424 35.1837 15.8877C35.47 15.3514 35.8829 14.8931 36.3866 14.5528C36.8904 14.2124 37.4696 14.0003 38.074 13.9348C38.6784 13.8693 39.2896 13.9525 39.8546 14.177C40.4195 14.4016 40.921 14.7607 41.3155 15.2233C41.71 15.6858 41.9855 16.2378 42.1181 16.8311C42.2507 17.4243 42.2364 18.041 42.0763 18.6275C41.9163 19.214 41.6154 19.7525 41.1998 20.1962L41.1991 20.1984ZM42.5924 29.0771H36.5538C36.8799 28.3819 37.0252 27.6156 36.9763 26.8493C36.9274 26.083 36.6858 25.3414 36.274 24.6933C35.8621 24.0452 35.2933 23.5115 34.6203 23.1418C33.9472 22.7721 33.1918 22.5782 32.4239 22.5782C31.656 22.5782 30.9005 22.7721 30.2275 23.1418C29.5545 23.5115 28.9857 24.0452 28.5738 24.6933C28.1619 25.3414 27.9204 26.083 27.8714 26.8493C27.8225 27.6156 27.9678 28.3819 28.2939 29.0771H22.904V22.3429C22.9045 22.2009 22.8631 22.062 22.7848 21.9435C22.7066 21.8251 22.5951 21.7324 22.4643 21.6772C22.3336 21.622 22.1894 21.6066 22.0499 21.6332C21.9105 21.6597 21.782 21.7268 21.6806 21.8262C21.1012 22.3847 20.3265 22.6946 19.5217 22.6898C18.6957 22.6898 17.9035 22.3616 17.3194 21.7775C16.7353 21.1934 16.4072 20.4012 16.4072 19.5752C16.4072 18.7492 16.7353 17.957 17.3194 17.3729C17.9035 16.7888 18.6957 16.4607 19.5217 16.4607C20.327 16.4568 21.1018 16.768 21.6806 17.3278C21.782 17.4272 21.9105 17.4944 22.0499 17.5209C22.1894 17.5474 22.3336 17.5321 22.4643 17.4768C22.5951 17.4216 22.7066 17.3289 22.7848 17.2105C22.8631 17.092 22.9045 16.9531 22.904 16.8111V9.35006C22.904 9.1592 22.8281 8.97616 22.6932 8.84121C22.5582 8.70625 22.3752 8.63043 22.1843 8.63043H3.53812C2.86704 8.62948 2.22297 8.8947 1.74717 9.36794C1.27137 9.84118 1.00267 10.4838 1 11.1549V48.4682C1.00152 49.1403 1.26963 49.7843 1.74547 50.2589C2.22132 50.7335 2.86603 51 3.53812 50.9998H40.8449C41.5152 50.9983 42.1575 50.7308 42.6308 50.2562C43.1041 49.7815 43.3698 49.1385 43.3694 48.4682V29.955C43.3815 29.9023 43.3878 29.848 43.3878 29.7931C43.3878 29.6023 43.312 29.4192 43.177 29.2843C43.0421 29.1493 42.859 29.0735 42.6682 29.0735H42.6617C42.6385 29.0736 42.6154 29.0748 42.5924 29.0771ZM34.7199 29.2569C34.6633 29.3069 34.6146 29.3657 34.576 29.4314C34.5101 29.5434 34.4757 29.6711 34.4766 29.801C34.4777 29.9911 34.554 30.1731 34.6889 30.3071C34.8237 30.4411 35.0061 30.5163 35.1962 30.5163C35.2206 30.5164 35.2449 30.5152 35.269 30.5128H41.9301V48.4682C41.9307 48.7568 41.8168 49.0339 41.6133 49.2387C41.4099 49.4435 41.1336 49.5592 40.8449 49.5606H22.9197V44.1507C23.5223 44.4362 24.1859 44.5881 24.8649 44.5879C25.6106 44.5872 26.3447 44.4035 27.0028 44.0529C27.661 43.7024 28.223 43.1957 28.6397 42.5773C29.0564 41.9589 29.3151 41.2478 29.3929 40.5062C29.4707 39.7646 29.3654 39.0152 29.0861 38.3238C28.8069 37.6324 28.3622 37.0201 27.7912 36.5405C27.2202 36.061 26.5402 35.7289 25.8109 35.5734C25.0816 35.4179 24.3253 35.4436 23.6084 35.6485C23.3687 35.717 23.1358 35.8048 22.9119 35.9107V30.5106H29.662C29.8035 30.5102 29.9417 30.468 30.0594 30.3894C30.1771 30.3108 30.269 30.1992 30.3236 30.0687C30.3782 29.9381 30.3931 29.7944 30.3664 29.6554C30.3397 29.5164 30.2727 29.3883 30.1736 29.2873C29.6135 28.7165 29.3029 27.9467 29.3101 27.1471C29.3108 26.6385 29.4361 26.1379 29.6749 25.6889C29.9138 25.2399 30.2589 24.8563 30.6803 24.5714C31.1016 24.2866 31.5863 24.1093 32.0919 24.055C32.5976 24.0006 33.1088 24.071 33.581 24.2598C34.0532 24.4486 34.472 24.7502 34.8008 25.1382C35.1296 25.5262 35.3583 25.9889 35.4671 26.4857C35.5758 26.9825 35.5613 27.4983 35.4247 27.9882C35.2929 28.4609 35.0513 28.8956 34.7199 29.2569ZM21.8988 37.9228C21.8193 37.8873 21.7462 37.8373 21.6834 37.7746C21.5485 37.6396 21.4727 37.4566 21.4727 37.2657V30.5127H16.0882C16.3755 31.1174 16.5269 31.7845 16.523 32.4666C16.5199 33.6737 16.0386 34.8303 15.1844 35.6832C14.3301 36.5361 13.1727 37.0156 11.9656 37.0168C11.0711 37.017 10.1964 36.7537 9.45082 36.2596C8.7052 35.7655 8.12175 35.0626 7.77337 34.2388C7.425 33.415 7.32716 32.5067 7.49208 31.6276C7.56453 31.2414 7.68627 30.8684 7.85285 30.5171H2.43925V48.4682C2.44058 48.7586 2.55699 49.0367 2.76297 49.2414C2.96894 49.4462 3.24768 49.5609 3.53812 49.5606H21.4805V42.921C21.4717 42.8794 21.4665 42.8369 21.4652 42.7942C21.4622 42.6982 21.4785 42.6025 21.5131 42.5129C21.5476 42.4232 21.5998 42.3414 21.6665 42.2722C21.7332 42.2031 21.8131 42.148 21.9015 42.1102C21.9898 42.0724 22.0848 42.0527 22.1809 42.0522C22.277 42.0517 22.3722 42.0705 22.4609 42.1074C22.4688 42.1107 22.4766 42.1141 22.4843 42.1176C22.5674 42.1534 22.6438 42.2047 22.7089 42.2699C22.7259 42.2869 22.7419 42.3046 22.757 42.323C23.1856 42.7147 23.7157 42.979 24.2876 43.0852C24.8863 43.1965 25.5044 43.1296 26.0655 42.8929C26.6266 42.6563 27.1058 42.2602 27.4439 41.7537C27.7821 41.2473 27.9641 40.6528 27.9676 40.0438C27.9711 39.4349 27.7959 38.8383 27.4636 38.3281C27.1314 37.8178 26.6567 37.4162 26.0984 37.1731C25.5401 36.9299 24.9227 36.856 24.3228 36.9603C23.7229 37.0647 23.1667 37.3428 22.7233 37.7601C22.6249 37.8652 22.4972 37.9384 22.3567 37.9702C22.2163 38.002 22.0695 37.9909 21.9354 37.9383C21.923 37.9335 21.9108 37.9283 21.8988 37.9228ZM9.7326 30.2991C9.7904 30.2384 9.83658 30.1687 9.86981 30.0935C9.91142 30.0013 9.93353 29.9005 9.93353 29.7974C9.93353 29.6066 9.85771 29.4235 9.72276 29.2886C9.5878 29.1536 9.40476 29.0778 9.2139 29.0778H2.43925V11.1549C2.44153 10.8654 2.55847 10.5886 2.76445 10.3852C2.97042 10.1818 3.24863 10.0683 3.53812 10.0697H21.4647V15.4474C20.7707 15.1229 20.0061 14.9786 19.2415 15.028C18.477 15.0775 17.7373 15.319 17.0909 15.7303C16.4445 16.1416 15.9123 16.7093 15.5436 17.3809C15.1749 18.0524 14.9816 18.8062 14.9816 19.5723C14.9816 20.3385 15.1749 21.0922 15.5436 21.7638C15.9123 22.4354 16.4445 23.0031 17.0909 23.4144C17.7373 23.8257 18.477 24.0672 19.2415 24.1166C20.0061 24.1661 20.7707 24.0218 21.4647 23.6972V29.0735H14.8444C14.8057 29.0659 14.7664 29.0615 14.7269 29.0603C14.63 29.0575 14.5335 29.0742 14.4432 29.1096C14.3529 29.145 14.2707 29.1982 14.2016 29.2661C14.1324 29.334 14.0776 29.4152 14.0406 29.5048C14.0036 29.5944 13.9851 29.6906 13.9861 29.7875C13.9872 29.8845 14.0078 29.9802 14.0468 30.069C14.0858 30.1577 14.1423 30.2377 14.213 30.3041C14.7765 30.8808 15.0895 31.6567 15.0837 32.463C15.0822 33.2895 14.7528 34.0817 14.1678 34.6656C13.5828 35.2496 12.79 35.5775 11.9634 35.5775C11.3521 35.5774 10.7543 35.3971 10.2448 35.0592C9.73528 34.7213 9.33662 34.2408 9.09862 33.6776C8.86062 33.1145 8.79383 32.4937 8.90658 31.8928C9.01933 31.292 9.30663 30.7376 9.7326 30.2991Z" fill="white"/>
<path d="M44.8915 23.2143L44.9655 23.0285L44.9654 23.0285L44.8915 23.2143ZM45.157 23.2654L45.1568 23.4654H45.1572L45.157 23.2654ZM39.4655 21.0555L39.5395 20.8696L39.5393 20.8695L39.4655 21.0555ZM39.1408 20.7984L38.9768 20.9129V20.9129L39.1408 20.7984ZM39.0115 20.4049L38.8116 20.41V20.41L39.0115 20.4049ZM39.1205 20.0054L38.9509 19.8994V19.8994L39.1205 20.0054ZM39.4317 19.7321L39.5149 19.914L39.5153 19.9137L39.4317 19.7321ZM40.6025 18.5008L40.7882 18.5752L40.7884 18.5746L40.6025 18.5008ZM40.7635 17.6232L40.9635 17.6202L40.7635 17.6232ZM40.5762 16.7509L40.7598 16.6716V16.6716L40.5762 16.7509ZM40.069 16.0169L39.9298 16.1605L39.9298 16.1605L40.069 16.0169ZM39.3194 15.5331L39.2455 15.7189L39.2459 15.719L39.3194 15.5331ZM37.5701 15.5569L37.4911 15.3732L37.5701 15.5569ZM36.3488 16.8097L36.5339 16.8856L36.5345 16.8839L36.3488 16.8097ZM36.1835 17.6554L36.3835 17.6548L36.1835 17.6554ZM36.3546 18.5001L36.1701 18.5773L36.1707 18.5786L36.3546 18.5001ZM36.4002 18.9148L36.5968 18.9515L36.4002 18.9148ZM36.208 19.285L36.3512 19.4247V19.4247L36.208 19.285ZM35.8427 19.4865L35.801 19.2909H35.801L35.8427 19.4865ZM35.427 19.4514L35.5009 19.2656L35.5009 19.2655L35.427 19.4514ZM29.9801 17.2868L30.054 17.1009L30.0539 17.1009L29.9801 17.2868ZM29.526 16.6277L29.726 16.625V16.625L29.526 16.6277ZM29.5772 16.3513L29.7629 16.4254L29.763 16.4252L29.5772 16.3513ZM31.2553 12.1307L31.4412 12.2046L31.5494 11.9323L31.2564 11.9307L31.2553 12.1307ZM29.888 11.8637L29.8135 12.0493L29.8138 12.0494L29.888 11.8637ZM28.551 10.9467L28.6973 10.8103V10.8103L28.551 10.9467ZM27.7302 9.54859L27.9205 9.48728V9.48728L27.7302 9.54859ZM28.1314 6.40931L28.3002 6.51652V6.51652L28.1314 6.40931ZM29.2775 5.26261L29.3848 5.43139V5.43139L29.2775 5.26261ZM30.8021 4.7113L30.7766 4.51293H30.7766L30.8021 4.7113ZM33.815 5.67994L33.6787 5.82631L33.8927 6.02555L34.0008 5.75392L33.815 5.67994ZM35.4975 1.45358L35.6833 1.52756L35.6833 1.52752L35.4975 1.45358ZM35.6504 1.2178L35.7937 1.35727L35.7937 1.35726L35.6504 1.2178ZM35.8819 1.05853L35.9609 1.24226L35.9609 1.24226L35.8819 1.05853ZM36.1567 1.00006L36.1594 1.20004L36.1567 1.00006ZM36.433 1.05131L36.3589 1.23705L36.3592 1.23717L36.433 1.05131ZM50.0282 6.45498L50.1023 6.26922L50.1021 6.26912L50.0282 6.45498ZM51.1991 7.59381L51.0154 7.67304V7.67304L51.1991 7.59381ZM51.2242 9.22698L51.4101 9.30084L51.4102 9.30052L51.2242 9.22698ZM45.827 22.807L45.6412 22.7332L45.6407 22.7344L45.827 22.807ZM45.5628 23.1397L45.4499 22.9746H45.4499L45.5628 23.1397ZM44.7533 21.6103L44.6795 21.7962L44.8653 21.87L44.9392 21.6842L44.7533 21.6103ZM41.1991 20.1984L41.0093 20.1353L40.9498 20.3145L41.1253 20.3843L41.1991 20.1984ZM49.885 8.69877L50.0709 8.77265L50.0718 8.77008L49.885 8.69877ZM49.8737 8.16815L49.6901 8.24732V8.24732L49.8737 8.16815ZM49.4957 7.79564L49.5721 7.61081L49.5696 7.6098L49.4957 7.79564ZM36.5698 2.65464L36.6437 2.4688L36.4577 2.39482L36.3838 2.58089L36.5698 2.65464ZM34.6786 7.42216L34.4927 7.34841L34.4926 7.34847L34.6786 7.42216ZM34.4206 7.74774L34.5348 7.91192V7.91192L34.4206 7.74774ZM34.0256 7.87647L34.03 8.07642L34.0256 7.87647ZM33.6253 7.76545L33.5185 7.93454H33.5185L33.6253 7.76545ZM33.353 7.45166L33.5355 7.36978L33.535 7.36861L33.353 7.45166ZM31.216 6.11545L31.2109 5.91551L31.216 6.11545ZM29.9656 6.52557L30.08 6.68963H30.08L29.9656 6.52557ZM29.1484 7.55697L29.3343 7.6308V7.6308L29.1484 7.55697ZM29.0351 8.86796L29.2309 8.82711L29.0351 8.86796ZM29.6633 10.0243L29.5224 10.1663L29.6633 10.0243ZM32.1347 10.5187L32.2101 10.704L32.2108 10.7036L32.1347 10.5187ZM32.5476 10.4781L32.509 10.6743H32.509L32.5476 10.4781ZM32.9144 10.6722L32.7738 10.8145L32.7738 10.8145L32.9144 10.6722ZM33.113 11.0365L32.9172 11.0775L33.113 11.0365ZM33.0774 11.4499L33.2632 11.5239L33.2633 11.5238L33.0774 11.4499ZM31.1805 16.2131L30.9947 16.1391L30.9206 16.325L31.1066 16.3989L31.1805 16.2131ZM34.7441 17.63L34.6702 17.8159L34.9429 17.9243L34.9441 17.6308L34.7441 17.63ZM35.1837 15.8877L35.3601 15.9819V15.9819L35.1837 15.8877ZM38.074 13.9348L38.0525 13.7359L38.074 13.9348ZM39.8546 14.177L39.9284 13.9912L39.8546 14.177ZM42.1181 16.8311L41.9229 16.8747L41.923 16.8747L42.1181 16.8311ZM42.0763 18.6275L42.2693 18.6802L42.0763 18.6275ZM41.1998 20.1962L41.0539 20.0595L41.0238 20.0915L41.01 20.1332L41.1998 20.1962ZM36.5538 29.0771L36.3727 28.9922L36.2391 29.2771H36.5538V29.0771ZM42.5924 29.0771V29.2771H42.6025L42.6126 29.2761L42.5924 29.0771ZM36.9763 26.8493L36.7767 26.862V26.8621L36.9763 26.8493ZM36.274 24.6933L36.4428 24.586V24.586L36.274 24.6933ZM34.6203 23.1418L34.7166 22.9665L34.6203 23.1418ZM30.2275 23.1418L30.1312 22.9665L30.2275 23.1418ZM28.5738 24.6933L28.7426 24.8005L28.5738 24.6933ZM27.8714 26.8493L27.6718 26.8366L27.8714 26.8493ZM28.2939 29.0771V29.2771H28.6087L28.475 28.9922L28.2939 29.0771ZM22.904 29.0771H22.704V29.2771H22.904V29.0771ZM22.904 22.3429L22.704 22.3421V22.3429H22.904ZM22.7848 21.9435L22.6179 22.0538L22.7848 21.9435ZM22.4643 21.6772L22.5421 21.4929L22.5421 21.4929L22.4643 21.6772ZM22.0499 21.6332L22.0873 21.8296H22.0873L22.0499 21.6332ZM21.6806 21.8262L21.8194 21.9702L21.8206 21.969L21.6806 21.8262ZM19.5217 22.6898L19.5229 22.4898H19.5217V22.6898ZM19.5217 16.4607V16.6607L19.5227 16.6607L19.5217 16.4607ZM21.6806 17.3278L21.8206 17.185L21.8196 17.1841L21.6806 17.3278ZM22.0499 17.5209L22.0873 17.3244H22.0873L22.0499 17.5209ZM22.4643 17.4768L22.3865 17.2926L22.3865 17.2926L22.4643 17.4768ZM22.7848 17.2105L22.6179 17.1003L22.7848 17.2105ZM22.904 16.8111H22.704L22.704 16.8119L22.904 16.8111ZM3.53812 8.63043L3.53783 8.83043H3.53812V8.63043ZM1 11.1549L0.8 11.1541V11.1549H1ZM1 48.4682H0.799999L0.800001 48.4686L1 48.4682ZM1.74547 50.2589L1.60423 50.4005L1.74547 50.2589ZM3.53812 50.9998V50.7998H3.53806L3.53812 50.9998ZM40.8449 50.9998V51.1998H40.8454L40.8449 50.9998ZM43.3694 48.4682H43.1694V48.4683L43.3694 48.4682ZM43.3694 29.955L43.1745 29.91L43.1694 29.9322V29.955H43.3694ZM43.177 29.2843L43.0356 29.4257L43.0356 29.4257L43.177 29.2843ZM42.6617 29.0735V28.8735L42.6608 28.8735L42.6617 29.0735ZM34.576 29.4314L34.7484 29.5328V29.5328L34.576 29.4314ZM34.7199 29.2569L34.8523 29.4068L34.8602 29.3998L34.8673 29.3921L34.7199 29.2569ZM34.4766 29.801L34.6766 29.7998V29.7997L34.4766 29.801ZM34.6889 30.3071L34.5479 30.4489V30.4489L34.6889 30.3071ZM35.1962 30.5163L35.1968 30.3163H35.1962L35.1962 30.5163ZM35.269 30.5128V30.3128H35.2589L35.249 30.3138L35.269 30.5128ZM41.9301 30.5128H42.1301V30.3128H41.9301V30.5128ZM41.9301 48.4682H41.7301V48.4686L41.9301 48.4682ZM40.8449 49.5606V49.7606L40.8459 49.7606L40.8449 49.5606ZM22.9197 49.5606H22.7197V49.7606H22.9197V49.5606ZM22.9197 44.1507L23.0054 43.97L22.7197 43.8346V44.1507H22.9197ZM24.8649 44.5879L24.865 44.7879H24.8651L24.8649 44.5879ZM27.0028 44.0529L26.9088 43.8764L27.0028 44.0529ZM28.6397 42.5773L28.4739 42.4655V42.4655L28.6397 42.5773ZM29.3929 40.5062L29.194 40.4853L29.3929 40.5062ZM29.0861 38.3238L29.2716 38.2489L29.0861 38.3238ZM25.8109 35.5734L25.8526 35.3778L25.8109 35.5734ZM23.6084 35.6485L23.5534 35.4562V35.4562L23.6084 35.6485ZM22.9119 35.9107H22.7119V36.2265L22.9974 36.0915L22.9119 35.9107ZM22.9119 30.5106V30.3106H22.7119V30.5106H22.9119ZM29.662 30.5106V30.7106L29.6626 30.7106L29.662 30.5106ZM30.3236 30.0687L30.5081 30.1459L30.5081 30.1459L30.3236 30.0687ZM30.1736 29.2873L30.3164 29.1473L30.3164 29.1472L30.1736 29.2873ZM29.3101 27.1471L29.5101 27.1489L29.5101 27.1474L29.3101 27.1471ZM29.6749 25.6889L29.8515 25.7828L29.6749 25.6889ZM30.6803 24.5714L30.7923 24.7371L30.6803 24.5714ZM32.0919 24.055L32.0705 23.8561L32.0919 24.055ZM33.581 24.2598L33.6553 24.0741L33.581 24.2598ZM34.8008 25.1382L34.6482 25.2675L34.8008 25.1382ZM35.4671 26.4857L35.2717 26.5284V26.5284L35.4671 26.4857ZM35.4247 27.9882L35.232 27.9345L35.4247 27.9882ZM21.8988 37.9228L21.9819 37.7409L21.9803 37.7402L21.8988 37.9228ZM21.6834 37.7746L21.8249 37.6331H21.8249L21.6834 37.7746ZM21.4727 30.5127H21.6727V30.3127H21.4727V30.5127ZM16.0882 30.5127V30.3127H15.7717L15.9075 30.5986L16.0882 30.5127ZM16.523 32.4666L16.323 32.4654L16.323 32.4661L16.523 32.4666ZM15.1844 35.6832L15.043 35.5417L15.1844 35.6832ZM11.9656 37.0168L11.9657 37.2168H11.9658L11.9656 37.0168ZM9.45082 36.2596L9.5613 36.0929L9.45082 36.2596ZM7.77337 34.2388L7.95758 34.1609L7.77337 34.2388ZM7.49208 31.6276L7.68865 31.6645L7.49208 31.6276ZM7.85285 30.5171L8.03356 30.6028L8.16903 30.3171H7.85285V30.5171ZM2.43925 30.5171V30.3171H2.23925V30.5171H2.43925ZM2.43925 48.4682H2.23925L2.23925 48.4691L2.43925 48.4682ZM2.76297 49.2414L2.62196 49.3833L2.76297 49.2414ZM3.53812 49.5606V49.3606H3.53785L3.53812 49.5606ZM21.4805 49.5606V49.7606H21.6805V49.5606H21.4805ZM21.4805 42.921H21.6805V42.9L21.6761 42.8795L21.4805 42.921ZM21.4652 42.7942L21.6651 42.788V42.788L21.4652 42.7942ZM21.5131 42.5129L21.3265 42.4409L21.3265 42.4409L21.5131 42.5129ZM21.6665 42.2722L21.5226 42.1334L21.5226 42.1334L21.6665 42.2722ZM22.4609 42.1074L22.5378 41.9228L22.5377 41.9228L22.4609 42.1074ZM22.4843 42.1176L22.4009 42.2995L22.4053 42.3014L22.4843 42.1176ZM22.757 42.323L22.6022 42.4497L22.6114 42.4609L22.6221 42.4706L22.757 42.323ZM24.2876 43.0852L24.2511 43.2819H24.2511L24.2876 43.0852ZM26.0655 42.8929L26.1432 43.0772L26.0655 42.8929ZM27.4439 41.7537L27.2776 41.6427L27.4439 41.7537ZM27.9676 40.0438L27.7676 40.0427L27.9676 40.0438ZM22.7233 37.7601L22.586 37.6142L22.5773 37.6234L22.7233 37.7601ZM22.3567 37.9702L22.4009 38.1653L22.3567 37.9702ZM21.9354 37.9383L21.8624 38.1245L21.8624 38.1245L21.9354 37.9383ZM9.86981 30.0935L9.68752 30.0112L9.68687 30.0127L9.86981 30.0935ZM9.7326 30.2991L9.87607 30.4384L9.8774 30.437L9.7326 30.2991ZM9.72276 29.2886L9.58133 29.43L9.58134 29.43L9.72276 29.2886ZM2.43925 29.0778H2.23925V29.2778H2.43925V29.0778ZM2.43925 11.1549L2.23925 11.1533V11.1549H2.43925ZM2.76445 10.3852L2.62392 10.2429L2.62392 10.2429L2.76445 10.3852ZM3.53812 10.0697L3.53719 10.2697H3.53812V10.0697ZM21.4647 10.0697H21.6647V9.86969H21.4647V10.0697ZM21.4647 15.4474L21.38 15.6286L21.6647 15.7618V15.4474H21.4647ZM19.2415 15.028L19.2544 15.2276L19.2415 15.028ZM17.0909 15.7303L17.1982 15.899L17.1982 15.899L17.0909 15.7303ZM15.5436 17.3809L15.3683 17.2846L15.5436 17.3809ZM15.5436 21.7638L15.3683 21.8601L15.5436 21.7638ZM17.0909 23.4144L17.1982 23.2456H17.1982L17.0909 23.4144ZM19.2415 24.1166L19.2544 23.917L19.2415 24.1166ZM21.4647 23.6972H21.6647V23.3829L21.38 23.5161L21.4647 23.6972ZM21.4647 29.0735V29.2735H21.6647V29.0735H21.4647ZM14.8444 29.0735L14.8058 29.2697L14.8249 29.2735H14.8444V29.0735ZM14.7269 29.0603L14.7327 28.8604L14.7269 29.0603ZM14.4432 29.1096L14.3703 28.9234H14.3703L14.4432 29.1096ZM14.2016 29.2661L14.3417 29.4088L14.3417 29.4088L14.2016 29.2661ZM14.0406 29.5048L13.8558 29.4285L13.8558 29.4285L14.0406 29.5048ZM13.9861 29.7875L13.7861 29.7897L13.7861 29.7897L13.9861 29.7875ZM14.0468 30.069L13.8637 30.1494L14.0468 30.069ZM14.213 30.3041L14.3562 30.1642L14.3499 30.1583L14.213 30.3041ZM15.0837 32.463L14.8837 32.4615L14.8837 32.4626L15.0837 32.463ZM11.9634 35.5775L11.9634 35.7775H11.9634V35.5775ZM10.2448 35.0592L10.1342 35.2259L10.2448 35.0592ZM9.09862 33.6776L9.28284 33.5998L9.09862 33.6776ZM8.90658 31.8928L8.71001 31.8559L8.71001 31.8559L8.90658 31.8928ZM44.8175 23.4001C44.9255 23.4431 45.0406 23.4653 45.1568 23.4654L45.1573 23.0654C45.0916 23.0654 45.0265 23.0528 44.9655 23.0285L44.8175 23.4001ZM39.3916 21.2413L44.8176 23.4002L44.9654 23.0285L39.5395 20.8696L39.3916 21.2413ZM38.9768 20.9129C39.0799 21.0607 39.2242 21.1749 39.3918 21.2414L39.5393 20.8695C39.4446 20.832 39.3631 20.7675 39.3048 20.6839L38.9768 20.9129ZM38.8116 20.41C38.8162 20.5902 38.8736 20.7651 38.9768 20.9129L39.3048 20.6839C39.2465 20.6004 39.214 20.5016 39.2114 20.3998L38.8116 20.41ZM38.9509 19.8994C38.8554 20.0523 38.807 20.2299 38.8116 20.41L39.2114 20.3998C39.2088 20.298 39.2362 20.1977 39.2902 20.1113L38.9509 19.8994ZM39.3485 19.5502C39.1846 19.6251 39.0463 19.7466 38.9509 19.8994L39.2902 20.1113C39.3441 20.0249 39.4222 19.9563 39.5149 19.914L39.3485 19.5502ZM40.4169 18.4264C40.2175 18.924 39.835 19.3263 39.3481 19.5504L39.5153 19.9137C40.0952 19.6468 40.5508 19.1678 40.7882 18.5752L40.4169 18.4264ZM40.5635 17.6263C40.5677 17.9002 40.5178 18.1723 40.4166 18.427L40.7884 18.5746C40.9089 18.2711 40.9684 17.9468 40.9635 17.6202L40.5635 17.6263ZM40.3926 16.8303C40.5013 17.0818 40.5594 17.3523 40.5635 17.6263L40.9635 17.6202C40.9586 17.2937 40.8893 16.9713 40.7598 16.6716L40.3926 16.8303ZM39.9298 16.1605C40.1266 16.3512 40.2839 16.5788 40.3926 16.8303L40.7598 16.6716C40.6301 16.3718 40.4427 16.1006 40.2082 15.8733L39.9298 16.1605ZM39.2459 15.719C39.5007 15.8198 39.7331 15.9698 39.9298 16.1605L40.2082 15.8733C39.9737 15.646 39.6967 15.4672 39.393 15.3471L39.2459 15.719ZM37.6491 15.7407C38.1573 15.5223 38.7315 15.5144 39.2455 15.7189L39.3934 15.3472C38.7809 15.1036 38.0967 15.1129 37.4911 15.3732L37.6491 15.7407ZM36.5345 16.8839C36.74 16.3703 37.1408 15.9591 37.6491 15.7407L37.4911 15.3732C36.8855 15.6334 36.4079 16.1234 36.1631 16.7354L36.5345 16.8839ZM36.3835 17.6548C36.3826 17.391 36.4337 17.1296 36.5339 16.8856L36.1638 16.7337C36.0437 17.0264 35.9824 17.3398 35.9835 17.6561L36.3835 17.6548ZM36.5391 18.4229C36.4373 18.1795 36.3844 17.9185 36.3835 17.6548L35.9835 17.6561C35.9846 17.9724 36.048 18.2854 36.1701 18.5773L36.5391 18.4229ZM36.5968 18.9515C36.6301 18.7729 36.6098 18.5885 36.5385 18.4215L36.1707 18.5786C36.211 18.673 36.2224 18.7772 36.2036 18.878L36.5968 18.9515ZM36.3512 19.4247C36.478 19.2946 36.5634 19.13 36.5968 18.9515L36.2036 18.878C36.1847 18.9789 36.1365 19.072 36.0648 19.1454L36.3512 19.4247ZM35.8844 19.6821C36.062 19.6443 36.2244 19.5547 36.3512 19.4247L36.0648 19.1454C35.9932 19.2189 35.9014 19.2695 35.801 19.2909L35.8844 19.6821ZM35.3531 19.6373C35.5219 19.7043 35.7067 19.7199 35.8844 19.6821L35.801 19.2909C35.7007 19.3123 35.5962 19.3035 35.5009 19.2656L35.3531 19.6373ZM29.9063 17.4726L35.3531 19.6373L35.5009 19.2655L30.054 17.1009L29.9063 17.4726ZM29.6048 17.2775C29.6915 17.3618 29.794 17.4281 29.9064 17.4727L30.0539 17.1009C29.9904 17.0757 29.9325 17.0382 29.8835 16.9906L29.6048 17.2775ZM29.401 16.9817C29.4488 17.0928 29.5181 17.1933 29.6048 17.2775L29.8835 16.9906C29.8345 16.943 29.7954 16.8862 29.7683 16.8235L29.401 16.9817ZM29.326 16.6304C29.3277 16.7513 29.3531 16.8707 29.401 16.9817L29.7683 16.8235C29.7413 16.7607 29.7269 16.6933 29.726 16.625L29.326 16.6304ZM29.3914 16.2772C29.3466 16.3895 29.3244 16.5095 29.326 16.6304L29.726 16.625C29.7251 16.5566 29.7376 16.4888 29.7629 16.4254L29.3914 16.2772ZM31.0695 12.0568L29.3913 16.2774L29.763 16.4252L31.4412 12.2046L31.0695 12.0568ZM29.8138 12.0494C30.2721 12.2325 30.7607 12.3279 31.2542 12.3307L31.2564 11.9307C30.813 11.9282 30.374 11.8425 29.9622 11.678L29.8138 12.0494ZM28.4047 11.083C28.7977 11.5046 29.2787 11.8345 29.8135 12.0493L29.9626 11.6781C29.4822 11.4852 29.0503 11.1889 28.6973 10.8103L28.4047 11.083ZM27.5398 9.6099C27.7165 10.1585 28.0118 10.6614 28.4047 11.083L28.6973 10.8103C28.3444 10.4317 28.0792 9.97996 27.9205 9.48728L27.5398 9.6099ZM27.3825 7.90888C27.3094 8.48056 27.3631 9.06132 27.5398 9.6099L27.9205 9.48728C27.7619 8.9946 27.7136 8.47302 27.7792 7.95958L27.3825 7.90888ZM27.9625 6.30209C27.6536 6.78861 27.4555 7.33719 27.3825 7.90888L27.7792 7.95958C27.8448 7.44615 28.0227 6.95347 28.3002 6.51652L27.9625 6.30209ZM29.1701 5.09383C28.6838 5.40305 28.2715 5.81557 27.9625 6.30209L28.3002 6.51652C28.5777 6.07958 28.948 5.7091 29.3848 5.43139L29.1701 5.09383ZM30.7766 4.51293C30.205 4.58628 29.6565 4.78461 29.1701 5.09383L29.3848 5.43139C29.8216 5.15368 30.3142 4.97556 30.8275 4.90967L30.7766 4.51293ZM32.4777 4.66938C31.9291 4.49299 31.3483 4.43957 30.7766 4.51293L30.8275 4.90967C31.3409 4.84379 31.8626 4.89176 32.3553 5.05019L32.4777 4.66938ZM33.9513 5.53357C33.5295 5.14083 33.0264 4.84578 32.4777 4.66938L32.3553 5.05019C32.8481 5.20861 33.2999 5.47359 33.6787 5.82631L33.9513 5.53357ZM35.3117 1.37961L33.6292 5.60597L34.0008 5.75392L35.6833 1.52756L35.3117 1.37961ZM35.507 1.07832C35.4227 1.16495 35.3564 1.26734 35.3117 1.37964L35.6833 1.52752C35.7086 1.46407 35.7461 1.40622 35.7937 1.35727L35.507 1.07832ZM35.8029 0.874793C35.6918 0.922538 35.5913 0.991702 35.507 1.07833L35.7937 1.35726C35.8414 1.30832 35.8982 1.26924 35.9609 1.24226L35.8029 0.874793ZM36.1541 0.800079C36.0333 0.801661 35.9139 0.827049 35.8029 0.874794L35.9609 1.24226C36.0236 1.21528 36.0911 1.20094 36.1594 1.20004L36.1541 0.800079ZM36.5072 0.865575C36.395 0.820753 36.275 0.798497 36.1541 0.800079L36.1594 1.20004C36.2276 1.19915 36.2954 1.21173 36.3589 1.23705L36.5072 0.865575ZM50.1021 6.26912L36.5069 0.865456L36.3592 1.23717L49.9543 6.64084L50.1021 6.26912ZM51.3827 7.51457C51.1375 6.94636 50.6771 6.49852 50.1023 6.26922L49.9541 6.64074C50.4305 6.83082 50.8122 7.20204 51.0154 7.67304L51.3827 7.51457ZM51.4102 9.30052C51.6378 8.72503 51.6279 8.08279 51.3827 7.51457L51.0154 7.67304C51.2186 8.14404 51.2268 8.6764 51.0382 9.15343L51.4102 9.30052ZM46.0129 22.8809L51.4101 9.30084L51.0383 9.15311L45.6412 22.7332L46.0129 22.8809ZM45.6758 23.3048C45.8285 23.2003 45.9462 23.0521 46.0134 22.8796L45.6407 22.7344C45.6027 22.8319 45.5362 22.9156 45.4499 22.9746L45.6758 23.3048ZM45.1572 23.4654C45.3423 23.4653 45.523 23.4093 45.6758 23.3048L45.4499 22.9746C45.3636 23.0337 45.2615 23.0653 45.1569 23.0654L45.1572 23.4654ZM44.8272 21.4244L41.2729 20.0125L41.1253 20.3843L44.6795 21.7962L44.8272 21.4244ZM49.6991 8.6249L44.5675 21.5364L44.9392 21.6842L50.0708 8.77264L49.6991 8.6249ZM49.6901 8.24732C49.7421 8.36815 49.745 8.50453 49.6981 8.62746L50.0718 8.77008C50.1559 8.54983 50.1507 8.30547 50.0574 8.08897L49.6901 8.24732ZM49.4192 7.98045C49.5408 8.03075 49.638 8.12649 49.6901 8.24732L50.0574 8.08898C49.9641 7.87248 49.79 7.70094 49.5721 7.61083L49.4192 7.98045ZM36.4958 2.84048L49.4217 7.98148L49.5696 7.6098L36.6437 2.4688L36.4958 2.84048ZM34.8645 7.4959L36.7557 2.72838L36.3838 2.58089L34.4927 7.34841L34.8645 7.4959ZM34.5348 7.91192C34.6832 7.80865 34.7979 7.66393 34.8645 7.49584L34.4926 7.34847C34.455 7.44345 34.3902 7.52522 34.3063 7.58357L34.5348 7.91192ZM34.03 8.07642C34.2108 8.0724 34.3864 8.01518 34.5348 7.91192L34.3063 7.58357C34.2225 7.64192 34.1233 7.67425 34.0211 7.67652L34.03 8.07642ZM33.5185 7.93454C33.6713 8.0311 33.8493 8.08045 34.03 8.07642L34.0211 7.67652C33.919 7.6788 33.8185 7.65091 33.7321 7.59635L33.5185 7.93454ZM33.1706 7.53354C33.2446 7.69851 33.3656 7.83798 33.5185 7.93454L33.7321 7.59635C33.6457 7.54179 33.5773 7.46298 33.5355 7.36978L33.1706 7.53354ZM32.3792 6.63205C32.7259 6.84883 33.0013 7.16272 33.1711 7.53471L33.535 7.36861C33.3326 6.9253 33.0045 6.55123 32.5913 6.29289L32.3792 6.63205ZM31.221 6.31539C31.6297 6.30515 32.0325 6.41527 32.3792 6.63205L32.5913 6.29289C32.1781 6.03454 31.6981 5.90331 31.2109 5.91551L31.221 6.31539ZM30.08 6.68963C30.4154 6.45577 30.8122 6.32563 31.221 6.31539L31.2109 5.91551C30.7238 5.92771 30.251 6.08281 29.8512 6.36151L30.08 6.68963ZM29.3343 7.6308C29.4853 7.25078 29.7446 6.9235 30.08 6.68963L29.8512 6.36151C29.4515 6.64022 29.1425 7.03025 28.9626 7.48313L29.3343 7.6308ZM29.2309 8.82711C29.1474 8.42683 29.1834 8.01082 29.3343 7.6308L28.9626 7.48313C28.7827 7.93601 28.7398 8.43178 28.8394 8.90881L29.2309 8.82711ZM29.8041 9.88226C29.5138 9.59431 29.3144 9.2274 29.2309 8.82711L28.8394 8.90881C28.9389 9.38584 29.1764 9.82311 29.5224 10.1663L29.8041 9.88226ZM30.8639 10.4467C30.463 10.3665 30.0944 10.1702 29.8041 9.88226L29.5224 10.1663C29.8684 10.5094 30.3076 10.7433 30.7855 10.8389L30.8639 10.4467ZM32.0593 10.3334C31.6806 10.4875 31.2649 10.5269 30.8639 10.4467L30.7855 10.8389C31.2633 10.9345 31.7587 10.8876 32.2101 10.704L32.0593 10.3334ZM32.5863 10.2818C32.4091 10.247 32.2256 10.265 32.0586 10.3338L32.2108 10.7036C32.3052 10.6648 32.4089 10.6546 32.509 10.6743L32.5863 10.2818ZM33.0549 10.5299C32.9265 10.403 32.7635 10.3167 32.5863 10.2818L32.509 10.6743C32.6091 10.694 32.7012 10.7428 32.7738 10.8145L33.0549 10.5299ZM33.3087 10.9955C33.2717 10.8187 33.1834 10.6568 33.0549 10.5299L32.7738 10.8145C32.8464 10.8862 32.8963 10.9777 32.9172 11.0775L33.3087 10.9955ZM33.2633 11.5238C33.33 11.3559 33.3458 11.1722 33.3087 10.9955L32.9172 11.0775C32.9382 11.1774 32.9292 11.2812 32.8916 11.376L33.2633 11.5238ZM31.3663 16.2871L33.2632 11.5239L32.8916 11.3759L30.9947 16.1391L31.3663 16.2871ZM34.818 17.4442L31.2544 16.0272L31.1066 16.3989L34.6702 17.8159L34.818 17.4442ZM35.0073 15.7935C34.7057 16.3586 34.5466 16.9887 34.5441 17.6292L34.9441 17.6308C34.9464 17.0555 35.0892 16.4894 35.3601 15.9819L35.0073 15.7935ZM36.2747 14.387C35.744 14.7456 35.3089 15.2285 35.0073 15.7935L35.3601 15.9819C35.6311 15.4743 36.0219 15.0406 36.4986 14.7185L36.2747 14.387ZM38.0525 13.7359C37.4157 13.8049 36.8054 14.0285 36.2747 14.387L36.4986 14.7185C36.9753 14.3964 37.5235 14.1956 38.0956 14.1336L38.0525 13.7359ZM39.9284 13.9912C39.3332 13.7546 38.6892 13.667 38.0525 13.7359L38.0956 14.1336C38.6675 14.0716 39.246 14.1503 39.7807 14.3629L39.9284 13.9912ZM41.4677 15.0935C41.052 14.6062 40.5237 14.2278 39.9284 13.9912L39.7807 14.3629C40.3153 14.5754 40.79 14.9153 41.1633 15.3531L41.4677 15.0935ZM42.3133 16.7874C42.1736 16.1623 41.8833 15.5808 41.4677 15.0935L41.1633 15.3531C41.5367 15.7908 41.7975 16.3132 41.9229 16.8747L42.3133 16.7874ZM42.2693 18.6802C42.4379 18.0623 42.453 17.4125 42.3133 16.7874L41.923 16.8747C42.0484 17.4362 42.0349 18.0198 41.8834 18.5749L42.2693 18.6802ZM41.3458 20.3329C41.7836 19.8655 42.1007 19.2981 42.2693 18.6802L41.8834 18.5749C41.7319 19.1299 41.4472 19.6396 41.0539 20.0595L41.3458 20.3329ZM41.3889 20.2614L41.3896 20.2593L41.01 20.1332L41.0093 20.1353L41.3889 20.2614ZM36.5538 29.2771H42.5924V28.8771H36.5538V29.2771ZM36.7767 26.8621C36.8235 27.5948 36.6845 28.3275 36.3727 28.9922L36.7349 29.1621C37.0753 28.4364 37.227 27.6365 37.1759 26.8366L36.7767 26.8621ZM36.1052 24.8005C36.499 25.4202 36.7299 26.1293 36.7767 26.862L37.1759 26.8366C37.1248 26.0366 36.8727 25.2625 36.4428 24.586L36.1052 24.8005ZM34.524 23.3171C35.1675 23.6706 35.7114 24.1809 36.1052 24.8005L36.4428 24.586C36.0128 23.9095 35.4191 23.3524 34.7166 22.9665L34.524 23.3171ZM32.4239 22.7782C33.1581 22.7782 33.8805 22.9636 34.524 23.3171L34.7166 22.9665C34.014 22.5806 33.2254 22.3782 32.4239 22.3782V22.7782ZM30.3238 23.3171C30.9673 22.9636 31.6896 22.7782 32.4239 22.7782V22.3782C31.6223 22.3782 30.8337 22.5806 30.1312 22.9665L30.3238 23.3171ZM28.7426 24.8005C29.1364 24.1809 29.6803 23.6706 30.3238 23.3171L30.1312 22.9665C29.4286 23.3524 28.8349 23.9095 28.405 24.586L28.7426 24.8005ZM28.071 26.862C28.1178 26.1293 28.3488 25.4202 28.7426 24.8005L28.405 24.586C27.9751 25.2625 27.7229 26.0366 27.6718 26.8366L28.071 26.862ZM28.475 28.9922C28.1632 28.3275 28.0243 27.5948 28.071 26.862L27.6718 26.8366C27.6208 27.6365 27.7725 28.4364 28.1129 29.1621L28.475 28.9922ZM22.904 29.2771H28.2939V28.8771H22.904V29.2771ZM22.704 22.3429V29.0771H23.104V22.3429H22.704ZM22.6179 22.0538C22.6744 22.1393 22.7043 22.2396 22.704 22.3421L23.104 22.3437C23.1047 22.1623 23.0517 21.9847 22.9517 21.8333L22.6179 22.0538ZM22.3865 21.8614C22.4809 21.9013 22.5614 21.9682 22.6179 22.0538L22.9517 21.8333C22.8518 21.682 22.7092 21.5635 22.5421 21.4929L22.3865 21.8614ZM22.0873 21.8296C22.188 21.8105 22.2921 21.8215 22.3865 21.8614L22.5421 21.4929C22.375 21.4224 22.1908 21.4028 22.0126 21.4367L22.0873 21.8296ZM21.8206 21.969C21.8938 21.8973 21.9866 21.8488 22.0873 21.8296L22.0126 21.4367C21.8343 21.4706 21.6701 21.5564 21.5406 21.6834L21.8206 21.969ZM19.5205 22.8897C20.3774 22.895 21.2024 22.5649 21.8194 21.9702L21.5418 21.6822C21 22.2045 20.2755 22.4943 19.5229 22.4898L19.5205 22.8897ZM17.178 21.9189C17.7996 22.5405 18.6426 22.8898 19.5217 22.8898V22.4898C18.7487 22.4898 18.0074 22.1827 17.4608 21.6361L17.178 21.9189ZM16.2072 19.5752C16.2072 20.4543 16.5564 21.2973 17.178 21.9189L17.4608 21.6361C16.9142 21.0895 16.6072 20.3482 16.6072 19.5752H16.2072ZM17.178 17.2315C16.5564 17.8531 16.2072 18.6961 16.2072 19.5752H16.6072C16.6072 18.8022 16.9142 18.0609 17.4608 17.5143L17.178 17.2315ZM19.5217 16.2607C18.6426 16.2607 17.7996 16.6099 17.178 17.2315L17.4608 17.5143C18.0074 16.9677 18.7487 16.6607 19.5217 16.6607V16.2607ZM21.8196 17.1841C21.2033 16.5879 20.3782 16.2565 19.5207 16.2607L19.5227 16.6607C20.2757 16.657 21.0003 16.948 21.5415 17.4716L21.8196 17.1841ZM22.0873 17.3244C21.9866 17.3052 21.8938 17.2568 21.8206 17.185L21.5406 17.4707C21.6701 17.5976 21.8343 17.6835 22.0126 17.7174L22.0873 17.3244ZM22.3865 17.2926C22.2921 17.3325 22.188 17.3435 22.0873 17.3244L22.0126 17.7174C22.1908 17.7512 22.375 17.7317 22.5421 17.6611L22.3865 17.2926ZM22.6179 17.1003C22.5614 17.1858 22.4809 17.2527 22.3865 17.2926L22.5421 17.6611C22.7092 17.5905 22.8518 17.4721 22.9517 17.3207L22.6179 17.1003ZM22.704 16.8119C22.7043 16.9144 22.6744 17.0147 22.6179 17.1003L22.9517 17.3207C23.0517 17.1693 23.1047 16.9918 23.104 16.8104L22.704 16.8119ZM22.704 9.35006V16.8111H23.104V9.35006H22.704ZM22.5518 8.98263C22.6492 9.08008 22.704 9.21225 22.704 9.35006H23.104C23.104 9.10616 23.0071 8.87225 22.8346 8.69979L22.5518 8.98263ZM22.1843 8.83043C22.3221 8.83043 22.4543 8.88518 22.5518 8.98263L22.8346 8.69979C22.6621 8.52732 22.4282 8.43043 22.1843 8.43043V8.83043ZM3.53812 8.83043H22.1843V8.43043H3.53812V8.83043ZM1.88821 9.50974C2.32647 9.07385 2.91971 8.82955 3.53783 8.83043L3.5384 8.43043C2.81437 8.4294 2.11948 8.71555 1.60613 9.22614L1.88821 9.50974ZM1.2 11.1557C1.20245 10.5376 1.44995 9.94564 1.88821 9.50974L1.60613 9.22614C1.09278 9.73672 0.802879 10.4301 0.800002 11.1541L1.2 11.1557ZM1.2 48.4682V11.1549H0.8V48.4682H1.2ZM1.88671 50.1173C1.44838 49.6801 1.2014 49.0868 1.2 48.4677L0.800001 48.4686C0.801646 49.1937 1.09088 49.8885 1.60423 50.4005L1.88671 50.1173ZM3.53806 50.7998C2.91895 50.8 2.32505 50.5545 1.88671 50.1173L1.60423 50.4005C2.11759 50.9126 2.81311 51.2 3.53817 51.1998L3.53806 50.7998ZM40.8449 50.7998H3.53812V51.1998H40.8449V50.7998ZM42.4892 50.115C42.0533 50.5521 41.4618 50.7984 40.8445 50.7998L40.8454 51.1998C41.5687 51.1982 42.2617 50.9096 42.7725 50.3974L42.4892 50.115ZM43.1694 48.4683C43.1697 49.0856 42.9251 49.6778 42.4892 50.115L42.7725 50.3974C43.2832 49.8852 43.5698 49.1913 43.5694 48.4681L43.1694 48.4683ZM43.1694 29.955V48.4682H43.5694V29.955H43.1694ZM43.1878 29.7931C43.1878 29.8328 43.1833 29.872 43.1745 29.91L43.5642 30C43.5798 29.9326 43.5878 29.8633 43.5878 29.7931H43.1878ZM43.0356 29.4257C43.1331 29.5231 43.1878 29.6553 43.1878 29.7931H43.5878C43.5878 29.5492 43.4909 29.3153 43.3185 29.1428L43.0356 29.4257ZM42.6682 29.2735C42.806 29.2735 42.9382 29.3282 43.0356 29.4257L43.3185 29.1428C43.146 28.9704 42.9121 28.8735 42.6682 28.8735V29.2735ZM42.6617 29.2735H42.6682V28.8735H42.6617V29.2735ZM42.6126 29.2761C42.6292 29.2744 42.6459 29.2736 42.6626 29.2735L42.6608 28.8735C42.6312 28.8736 42.6016 28.8752 42.5722 28.8782L42.6126 29.2761ZM34.7484 29.5328C34.7763 29.4854 34.8114 29.4429 34.8523 29.4068L34.5875 29.107C34.5152 29.1708 34.453 29.246 34.4036 29.3299L34.7484 29.5328ZM34.6766 29.7997C34.676 29.7059 34.7008 29.6137 34.7484 29.5328L34.4036 29.3299C34.3194 29.473 34.2755 29.6363 34.2766 29.8023L34.6766 29.7997ZM34.8299 30.1652C34.7325 30.0685 34.6774 29.9371 34.6766 29.7998L34.2766 29.8022C34.278 30.0452 34.3756 30.2777 34.5479 30.4489L34.8299 30.1652ZM35.1962 30.3163C35.0589 30.3163 34.9272 30.262 34.8299 30.1652L34.5479 30.4489C34.7202 30.6202 34.9533 30.7163 35.1962 30.7163L35.1962 30.3163ZM35.249 30.3138C35.2317 30.3155 35.2143 30.3164 35.1968 30.3163L35.1956 30.7163C35.2268 30.7164 35.258 30.7149 35.289 30.7118L35.249 30.3138ZM41.9301 30.3128H35.269V30.7128H41.9301V30.3128ZM42.1301 48.4682V30.5128H41.7301V48.4682H42.1301ZM41.7552 49.3797C41.996 49.1373 42.1308 48.8094 42.1301 48.4678L41.7301 48.4686C41.7306 48.7043 41.6376 48.9305 41.4715 49.0977L41.7552 49.3797ZM40.8459 49.7606C41.1875 49.759 41.5145 49.622 41.7552 49.3797L41.4715 49.0977C41.3054 49.265 41.0797 49.3595 40.844 49.3606L40.8459 49.7606ZM22.9197 49.7606H40.8449V49.3606H22.9197V49.7606ZM22.7197 44.1507V49.5606H23.1197V44.1507H22.7197ZM24.8649 44.3879C24.2158 44.3881 23.5814 44.2429 23.0054 43.97L22.8341 44.3314C23.4632 44.6295 24.1561 44.7881 24.865 44.7879L24.8649 44.3879ZM26.9088 43.8764C26.2796 44.2116 25.5777 44.3872 24.8647 44.3879L24.8651 44.7879C25.6435 44.7871 26.4099 44.5954 27.0969 44.2294L26.9088 43.8764ZM28.4739 42.4655C28.0755 43.0568 27.5381 43.5412 26.9088 43.8764L27.0969 44.2294C27.7839 43.8635 28.3706 43.3346 28.8056 42.6891L28.4739 42.4655ZM29.194 40.4853C29.1196 41.1943 28.8723 41.8743 28.4739 42.4655L28.8056 42.6891C29.2406 42.0436 29.5105 41.3012 29.5918 40.527L29.194 40.4853ZM28.9007 38.3987C29.1677 39.0598 29.2684 39.7762 29.194 40.4853L29.5918 40.527C29.673 39.7529 29.5631 38.9706 29.2716 38.2489L28.9007 38.3987ZM27.6626 36.6937C28.2085 37.1522 28.6337 37.7376 28.9007 38.3987L29.2716 38.2489C28.98 37.5271 28.5159 36.8879 27.9198 36.3874L27.6626 36.6937ZM25.7692 35.769C26.4665 35.9177 27.1166 36.2352 27.6626 36.6937L27.9198 36.3874C27.3237 35.8868 26.6139 35.5401 25.8526 35.3778L25.7692 35.769ZM23.6633 35.8408C24.3488 35.6449 25.0719 35.6203 25.7692 35.769L25.8526 35.3778C25.0914 35.2154 24.3019 35.2423 23.5534 35.4562L23.6633 35.8408ZM22.9974 36.0915C23.2115 35.9902 23.4341 35.9063 23.6633 35.8408L23.5534 35.4562C23.3032 35.5277 23.0601 35.6193 22.8264 35.7299L22.9974 36.0915ZM22.7119 30.5106V35.9107H23.1119V30.5106H22.7119ZM29.662 30.3106H22.9119V30.7106H29.662V30.3106ZM29.9483 30.2231C29.8633 30.2799 29.7635 30.3103 29.6613 30.3106L29.6626 30.7106C29.8434 30.7101 30.0201 30.6562 30.1705 30.5557L29.9483 30.2231ZM30.1391 29.9915C30.0997 30.0858 30.0333 30.1663 29.9483 30.2231L30.1705 30.5557C30.3209 30.4553 30.4383 30.3127 30.5081 30.1459L30.1391 29.9915ZM30.17 29.6931C30.1893 29.7934 30.1785 29.8972 30.1391 29.9915L30.5081 30.1459C30.5779 29.979 30.5969 29.7953 30.5628 29.6177L30.17 29.6931ZM30.0308 29.4273C30.1023 29.5003 30.1507 29.5927 30.17 29.6931L30.5628 29.6177C30.5287 29.4401 30.443 29.2764 30.3164 29.1473L30.0308 29.4273ZM29.1101 27.1453C29.1025 27.998 29.4337 28.8187 30.0309 29.4274L30.3164 29.1472C29.7934 28.6143 29.5034 27.8955 29.51 27.1489L29.1101 27.1453ZM29.4984 25.595C29.2442 26.0728 29.1109 26.6056 29.1101 27.1468L29.5101 27.1474C29.5108 26.6715 29.628 26.203 29.8515 25.7828L29.4984 25.595ZM30.5683 24.4057C30.1199 24.7089 29.7525 25.1172 29.4984 25.595L29.8515 25.7828C30.075 25.3627 30.398 25.0037 30.7923 24.7371L30.5683 24.4057ZM32.0705 23.8561C31.5324 23.9139 31.0166 24.1026 30.5683 24.4057L30.7923 24.7371C31.1865 24.4706 31.6401 24.3047 32.1133 24.2538L32.0705 23.8561ZM33.6553 24.0741C33.1528 23.8731 32.6087 23.7983 32.0705 23.8561L32.1133 24.2538C32.5865 24.203 33.0649 24.2688 33.5068 24.4455L33.6553 24.0741ZM34.9534 25.0089C34.6035 24.596 34.1578 24.2751 33.6553 24.0741L33.5068 24.4455C33.9487 24.6222 34.3405 24.9044 34.6482 25.2675L34.9534 25.0089ZM35.6625 26.4429C35.5467 25.9142 35.3033 25.4219 34.9534 25.0089L34.6482 25.2675C34.9559 25.6306 35.1699 26.0635 35.2717 26.5284L35.6625 26.4429ZM35.6173 28.0419C35.7627 27.5206 35.7782 26.9716 35.6625 26.4429L35.2717 26.5284C35.3735 26.9933 35.3599 27.4761 35.232 27.9345L35.6173 28.0419ZM34.8673 29.3921C35.22 29.0076 35.4771 28.545 35.6173 28.0419L35.232 27.9345C35.1087 28.3769 34.8826 28.7836 34.5725 29.1217L34.8673 29.3921ZM21.9803 37.7402C21.923 37.7145 21.8702 37.6785 21.8249 37.6331L21.542 37.916C21.6222 37.9962 21.7156 38.06 21.8172 38.1054L21.9803 37.7402ZM21.8249 37.6331C21.7274 37.5357 21.6727 37.4035 21.6727 37.2657H21.2727C21.2727 37.5096 21.3696 37.7435 21.542 37.916L21.8249 37.6331ZM21.6727 37.2657V30.5127H21.2727V37.2657H21.6727ZM21.4727 30.3127H16.0882V30.7127H21.4727V30.3127ZM15.9075 30.5986C16.1821 31.1764 16.3267 31.8137 16.323 32.4654L16.723 32.4677C16.727 31.7553 16.5689 31.0585 16.2688 30.4269L15.9075 30.5986ZM16.323 32.4661C16.3201 33.6202 15.8598 34.7262 15.043 35.5417L15.3257 35.8248C16.2173 34.9345 16.7198 33.7271 16.723 32.4671L16.323 32.4661ZM15.043 35.5417C14.2263 36.3572 13.1196 36.8157 11.9654 36.8168L11.9658 37.2168C13.2258 37.2156 14.434 36.715 15.3257 35.8248L15.043 35.5417ZM11.9655 36.8168C11.1104 36.817 10.2741 36.5652 9.5613 36.0929L9.34034 36.4263C10.1187 36.9421 11.0319 37.217 11.9657 37.2168L11.9655 36.8168ZM9.5613 36.0929C8.84845 35.6205 8.29064 34.9485 7.95758 34.1609L7.58917 34.3167C7.95285 35.1767 8.56195 35.9105 9.34034 36.4263L9.5613 36.0929ZM7.95758 34.1609C7.62452 33.3733 7.53098 32.505 7.68865 31.6645L7.29551 31.5907C7.12334 32.5085 7.22548 33.4566 7.58917 34.3167L7.95758 34.1609ZM7.68865 31.6645C7.75791 31.2953 7.8743 30.9386 8.03356 30.6028L7.67213 30.4314C7.49823 30.7981 7.37114 31.1876 7.29551 31.5907L7.68865 31.6645ZM7.85285 30.3171H2.43925V30.7171H7.85285V30.3171ZM2.23925 30.5171V48.4682H2.63925V30.5171H2.23925ZM2.23925 48.4691C2.24083 48.8124 2.37845 49.1412 2.62196 49.3833L2.90397 49.0996C2.73553 48.9321 2.64034 48.7048 2.63925 48.4672L2.23925 48.4691ZM2.62196 49.3833C2.86548 49.6253 3.19502 49.761 3.53838 49.7606L3.53785 49.3606C3.30035 49.3609 3.0724 49.267 2.90397 49.0996L2.62196 49.3833ZM3.53812 49.7606H21.4805V49.3606H3.53812V49.7606ZM21.6805 49.5606V42.921H21.2805V49.5606H21.6805ZM21.6761 42.8795C21.6698 42.8495 21.6661 42.8188 21.6651 42.788L21.2653 42.8004C21.267 42.855 21.2735 42.9092 21.2848 42.9624L21.6761 42.8795ZM21.6651 42.788C21.6629 42.7186 21.6747 42.6496 21.6997 42.5848L21.3265 42.4409C21.2823 42.5555 21.2615 42.6777 21.2653 42.8004L21.6651 42.788ZM21.6997 42.5848C21.7246 42.5201 21.7623 42.461 21.8105 42.4111L21.5226 42.1334C21.4373 42.2218 21.3706 42.3263 21.3265 42.4409L21.6997 42.5848ZM21.8105 42.4111C21.8586 42.3612 21.9163 42.3214 21.9801 42.2941L21.8228 41.9263C21.7099 41.9746 21.6078 42.045 21.5226 42.1334L21.8105 42.4111ZM21.9801 42.2941C22.0439 42.2668 22.1125 42.2526 22.1819 42.2522L22.1799 41.8522C22.0571 41.8528 21.9357 41.878 21.8228 41.9263L21.9801 42.2941ZM22.1819 42.2522C22.2513 42.2519 22.32 42.2654 22.3841 42.2921L22.5377 41.9228C22.4244 41.8756 22.3027 41.8516 22.1799 41.8522L22.1819 42.2522ZM22.3841 42.2921C22.3898 42.2944 22.3954 42.2969 22.401 42.2994L22.5676 41.9358C22.5577 41.9313 22.5478 41.9269 22.5378 41.9228L22.3841 42.2921ZM22.4053 42.3014C22.4653 42.3272 22.5205 42.3643 22.5675 42.4113L22.8504 42.1285C22.7671 42.0452 22.6694 41.9795 22.5633 41.9339L22.4053 42.3014ZM22.5675 42.4113C22.5798 42.4236 22.5914 42.4364 22.6022 42.4497L22.9118 42.1963C22.8925 42.1728 22.872 42.1502 22.8504 42.1285L22.5675 42.4113ZM22.6221 42.4706C23.0782 42.8875 23.6424 43.1688 24.2511 43.2819L24.3241 42.8886C23.789 42.7892 23.293 42.5418 22.8919 42.1754L22.6221 42.4706ZM24.2511 43.2819C24.8882 43.4003 25.5461 43.3291 26.1432 43.0772L25.9878 42.7087C25.4628 42.9301 24.8843 42.9927 24.3241 42.8886L24.2511 43.2819ZM26.1432 43.0772C26.7404 42.8253 27.2504 42.4038 27.6103 41.8648L27.2776 41.6427C26.9612 42.1166 26.5128 42.4872 25.9878 42.7087L26.1432 43.0772ZM27.6103 41.8648C27.9701 41.3258 28.1639 40.693 28.1676 40.045L27.7676 40.0427C27.7644 40.6125 27.594 41.1688 27.2776 41.6427L27.6103 41.8648ZM28.1676 40.045C28.1714 39.3969 27.9849 38.762 27.6312 38.2189L27.296 38.4372C27.6069 38.9147 27.7709 39.4729 27.7676 40.0427L28.1676 40.045ZM27.6312 38.2189C27.2776 37.6758 26.7724 37.2484 26.1782 36.9897L26.0185 37.3564C26.5409 37.5839 26.9851 37.9597 27.296 38.4372L27.6312 38.2189ZM26.1782 36.9897C25.5841 36.7309 24.927 36.6522 24.2885 36.7633L24.3571 37.1574C24.9184 37.0597 25.4961 37.1289 26.0185 37.3564L26.1782 36.9897ZM24.2885 36.7633C23.65 36.8743 23.0582 37.1703 22.5863 37.6145L22.8604 37.9057C23.2753 37.5152 23.7957 37.255 24.3571 37.1574L24.2885 36.7633ZM22.5773 37.6234C22.5063 37.6993 22.4141 37.7522 22.3126 37.7751L22.4009 38.1653C22.5804 38.1247 22.7436 38.0312 22.8693 37.8968L22.5773 37.6234ZM22.3126 37.7751C22.2112 37.7981 22.1052 37.79 22.0084 37.7521L21.8624 38.1245C22.0338 38.1917 22.2214 38.2059 22.4009 38.1653L22.3126 37.7751ZM22.0084 37.7521C21.9994 37.7486 21.9906 37.7448 21.9819 37.7409L21.8156 38.1046C21.831 38.1117 21.8466 38.1183 21.8624 38.1245L22.0084 37.7521ZM9.68687 30.0127C9.66287 30.067 9.62953 30.1173 9.58779 30.1611L9.8774 30.437C9.95127 30.3595 10.0103 30.2704 10.0528 30.1743L9.68687 30.0127ZM9.73353 29.7974C9.73353 29.8719 9.71757 29.9446 9.68752 30.0112L10.0521 30.1758C10.1053 30.058 10.1335 29.9292 10.1335 29.7974H9.73353ZM9.58134 29.43C9.67878 29.5275 9.73353 29.6596 9.73353 29.7974H10.1335C10.1335 29.5535 10.0366 29.3196 9.86418 29.1472L9.58134 29.43ZM9.2139 29.2778C9.35172 29.2778 9.48389 29.3326 9.58133 29.43L9.86418 29.1472C9.69171 28.9747 9.4578 28.8778 9.2139 28.8778V29.2778ZM2.43925 29.2778H9.2139V28.8778H2.43925V29.2778ZM2.23925 11.1549V29.0778H2.63925V11.1549H2.23925ZM2.62392 10.2429C2.38028 10.4835 2.24196 10.8109 2.23926 11.1533L2.63924 11.1565C2.64111 10.9199 2.73667 10.6937 2.90498 10.5275L2.62392 10.2429ZM3.53905 9.86969C3.19663 9.8681 2.86755 10.0023 2.62392 10.2429L2.90498 10.5275C3.0733 10.3613 3.30064 10.2686 3.53719 10.2697L3.53905 9.86969ZM21.4647 9.86969H3.53812V10.2697H21.4647V9.86969ZM21.6647 15.4474V10.0697H21.2647V15.4474H21.6647ZM19.2544 15.2276C19.9854 15.1804 20.7165 15.3183 21.38 15.6286L21.5494 15.2663C20.825 14.9274 20.0267 14.7768 19.2286 14.8285L19.2544 15.2276ZM17.1982 15.899C17.8162 15.5058 18.5235 15.2749 19.2544 15.2276L19.2286 14.8285C18.4305 14.8801 17.6583 15.1322 16.9835 15.5615L17.1982 15.899ZM15.7189 17.4771C16.0714 16.835 16.5802 16.2922 17.1982 15.899L16.9835 15.5615C16.3087 15.9909 15.7532 16.5835 15.3683 17.2846L15.7189 17.4771ZM15.1816 19.5723C15.1816 18.8398 15.3664 18.1192 15.7189 17.4771L15.3683 17.2846C14.9834 17.9857 14.7816 18.7726 14.7816 19.5723H15.1816ZM15.7189 21.6676C15.3664 21.0255 15.1816 20.3048 15.1816 19.5723H14.7816C14.7816 20.3721 14.9834 21.159 15.3683 21.8601L15.7189 21.6676ZM17.1982 23.2456C16.5802 22.8524 16.0714 22.3097 15.7189 21.6676L15.3683 21.8601C15.7532 22.5611 16.3087 23.1538 16.9835 23.5831L17.1982 23.2456ZM19.2544 23.917C18.5235 23.8698 17.8162 23.6389 17.1982 23.2456L16.9835 23.5831C17.6583 24.0125 18.4305 24.2646 19.2286 24.3162L19.2544 23.917ZM21.38 23.5161C20.7165 23.8264 19.9854 23.9643 19.2544 23.917L19.2286 24.3162C20.0267 24.3678 20.825 24.2172 21.5494 23.8784L21.38 23.5161ZM21.6647 29.0735V23.6972H21.2647V29.0735H21.6647ZM14.8444 29.2735H21.4647V28.8735H14.8444V29.2735ZM14.721 29.2602C14.7496 29.2611 14.7779 29.2643 14.8058 29.2697L14.8829 28.8772C14.8335 28.8675 14.7833 28.8619 14.7327 28.8604L14.721 29.2602ZM14.5162 29.2958C14.5813 29.2703 14.651 29.2582 14.721 29.2602L14.7327 28.8604C14.6089 28.8568 14.4856 28.8782 14.3703 28.9234L14.5162 29.2958ZM14.3417 29.4088C14.3916 29.3598 14.451 29.3213 14.5162 29.2958L14.3703 28.9234C14.2549 28.9686 14.1499 29.0366 14.0615 29.1234L14.3417 29.4088ZM14.2255 29.5812C14.2522 29.5165 14.2917 29.4579 14.3417 29.4088L14.0615 29.1234C13.973 29.2102 13.9031 29.314 13.8558 29.4285L14.2255 29.5812ZM14.1861 29.7853C14.1854 29.7153 14.1987 29.6459 14.2255 29.5812L13.8558 29.4285C13.8085 29.543 13.7848 29.6658 13.7861 29.7897L14.1861 29.7853ZM14.2299 29.9886C14.2018 29.9245 14.1869 29.8553 14.1861 29.7853L13.7861 29.7897C13.7875 29.9136 13.8139 30.036 13.8637 30.1494L14.2299 29.9886ZM14.3499 30.1583C14.2989 30.1104 14.2581 30.0527 14.2299 29.9886L13.8637 30.1494C13.9135 30.2628 13.9857 30.365 14.076 30.4499L14.3499 30.1583ZM15.2837 32.4644C15.2899 31.6054 14.9564 30.7787 14.356 30.1643L14.0699 30.4439C14.5966 30.9828 14.8891 31.708 14.8837 32.4615L15.2837 32.4644ZM14.3091 34.8072C14.9316 34.1858 15.2821 33.3429 15.2837 32.4633L14.8837 32.4626C14.8823 33.2362 14.574 33.9776 14.0265 34.5241L14.3091 34.8072ZM11.9634 35.7775C12.843 35.7775 13.6866 35.4285 14.3091 34.8072L14.0265 34.5241C13.479 35.0706 12.737 35.3775 11.9634 35.3775V35.7775ZM10.1342 35.2259C10.6765 35.5855 11.3127 35.7774 11.9634 35.7775L11.9635 35.3775C11.3914 35.3774 10.8321 35.2087 10.3553 34.8925L10.1342 35.2259ZM8.9144 33.7555C9.1677 34.3548 9.59198 34.8663 10.1342 35.2259L10.3553 34.8925C9.87857 34.5764 9.50554 34.1267 9.28284 33.5998L8.9144 33.7555ZM8.71001 31.8559C8.59001 32.4955 8.6611 33.1561 8.9144 33.7555L9.28284 33.5998C9.06014 33.0728 8.99764 32.492 9.10315 31.9297L8.71001 31.8559ZM9.58913 30.1597C9.13578 30.6265 8.83001 31.2164 8.71001 31.8559L9.10315 31.9297C9.20865 31.3675 9.47748 30.8488 9.87606 30.4384L9.58913 30.1597Z" fill="white" mask="url(#path-1-inside-1_1091_291199)"/>
<mask id="path-3-inside-2_1091_291199" fill="white">
<path d="M45.157 23.2654C45.0661 23.2653 44.976 23.248 44.8915 23.2143L39.4655 21.0555C39.3344 21.0034 39.2215 20.9141 39.1408 20.7984C39.0601 20.6827 39.0151 20.5459 39.0115 20.4049C39.0079 20.2639 39.0458 20.125 39.1205 20.0054C39.1952 19.8857 39.3034 19.7907 39.4317 19.7321C39.9651 19.4866 40.3842 19.0459 40.6025 18.5008C40.7133 18.2217 40.7681 17.9235 40.7635 17.6232C40.759 17.323 40.6953 17.0266 40.5762 16.7509C40.457 16.4753 40.2847 16.2259 40.069 16.0169C39.8534 15.8079 39.5987 15.6435 39.3194 15.5331C38.7562 15.309 38.127 15.3176 37.5701 15.5569C37.0131 15.7963 36.5739 16.2468 36.3488 16.8097C36.2387 17.078 36.1825 17.3654 36.1835 17.6554C36.1845 17.9455 36.2426 18.2325 36.3546 18.5001C36.4104 18.6308 36.4263 18.7751 36.4002 18.9148C36.3741 19.0544 36.3072 19.1833 36.208 19.285C36.1088 19.3868 35.9817 19.4569 35.8427 19.4865C35.7037 19.5161 35.5591 19.5039 35.427 19.4514L29.9801 17.2868C29.8922 17.2519 29.812 17.2 29.7441 17.1341C29.6763 17.0681 29.6221 16.9895 29.5847 16.9026C29.5472 16.8157 29.5273 16.7223 29.526 16.6277C29.5247 16.5331 29.5421 16.4391 29.5772 16.3513L31.2553 12.1307C30.7869 12.128 30.3231 12.0375 29.888 11.8637C29.3805 11.6599 28.924 11.3468 28.551 10.9467C28.1781 10.5466 27.8978 10.0692 27.7302 9.54859C27.5625 9.02796 27.5115 8.47679 27.5808 7.93423C27.6502 7.39167 27.8381 6.87104 28.1314 6.40931C28.4246 5.94757 28.8159 5.55607 29.2775 5.26261C29.739 4.96915 30.2596 4.78092 30.8021 4.7113C31.3446 4.64168 31.8958 4.69238 32.4165 4.85978C32.9373 5.02719 33.4147 5.30721 33.815 5.67994L35.4975 1.45358C35.5325 1.36571 35.5844 1.28558 35.6504 1.2178C35.7163 1.15001 35.795 1.09589 35.8819 1.05853C35.9688 1.02117 36.0622 1.0013 36.1567 1.00006C36.2513 0.998824 36.3452 1.01624 36.433 1.05131L50.0282 6.45498C50.5538 6.66467 50.9749 7.0742 51.1991 7.59381C51.4233 8.11341 51.4323 8.70071 51.2242 9.22698L45.827 22.807C45.7744 22.942 45.6824 23.0579 45.5628 23.1397C45.4433 23.2215 45.3019 23.2653 45.157 23.2654ZM41.1991 20.1984L44.7533 21.6103L49.885 8.69877C49.9505 8.52718 49.9464 8.33681 49.8737 8.16815C49.801 7.99949 49.6654 7.86584 49.4957 7.79564L36.5698 2.65464L34.6786 7.42216C34.6265 7.55369 34.5367 7.66694 34.4206 7.74774C34.3044 7.82855 34.167 7.87333 34.0256 7.87647C33.8841 7.87962 33.7449 7.841 33.6253 7.76545C33.5057 7.68989 33.411 7.58074 33.353 7.45166C33.167 7.04401 32.8652 6.70003 32.4853 6.46247C32.1053 6.2249 31.6639 6.10423 31.216 6.11545C30.768 6.12667 30.3332 6.26929 29.9656 6.52557C29.598 6.78186 29.3139 7.14051 29.1484 7.55697C28.983 7.97342 28.9436 8.4293 29.0351 8.86796C29.1267 9.30662 29.3451 9.70871 29.6633 10.0243C29.9814 10.3398 30.3853 10.5549 30.8247 10.6428C31.2641 10.7307 31.7196 10.6876 32.1347 10.5187C32.2654 10.4649 32.409 10.4508 32.5476 10.4781C32.6863 10.5054 32.8138 10.5729 32.9144 10.6722C33.0149 10.7715 33.084 10.8982 33.113 11.0365C33.142 11.1748 33.1296 11.3186 33.0774 11.4499L31.1805 16.2131L34.7441 17.63C34.7465 17.0221 34.8974 16.424 35.1837 15.8877C35.47 15.3514 35.8829 14.8931 36.3866 14.5528C36.8904 14.2124 37.4696 14.0003 38.074 13.9348C38.6784 13.8693 39.2896 13.9525 39.8546 14.177C40.4195 14.4016 40.921 14.7607 41.3155 15.2233C41.71 15.6858 41.9855 16.2378 42.1181 16.8311C42.2507 17.4243 42.2364 18.041 42.0763 18.6275C41.9163 19.214 41.6154 19.7525 41.1998 20.1962L41.1991 20.1984Z"/>
</mask>
<path d="M45.157 23.2654C45.0661 23.2653 44.976 23.248 44.8915 23.2143L39.4655 21.0555C39.3344 21.0034 39.2215 20.9141 39.1408 20.7984C39.0601 20.6827 39.0151 20.5459 39.0115 20.4049C39.0079 20.2639 39.0458 20.125 39.1205 20.0054C39.1952 19.8857 39.3034 19.7907 39.4317 19.7321C39.9651 19.4866 40.3842 19.0459 40.6025 18.5008C40.7133 18.2217 40.7681 17.9235 40.7635 17.6232C40.759 17.323 40.6953 17.0266 40.5762 16.7509C40.457 16.4753 40.2847 16.2259 40.069 16.0169C39.8534 15.8079 39.5987 15.6435 39.3194 15.5331C38.7562 15.309 38.127 15.3176 37.5701 15.5569C37.0131 15.7963 36.5739 16.2468 36.3488 16.8097C36.2387 17.078 36.1825 17.3654 36.1835 17.6554C36.1845 17.9455 36.2426 18.2325 36.3546 18.5001C36.4104 18.6308 36.4263 18.7751 36.4002 18.9148C36.3741 19.0544 36.3072 19.1833 36.208 19.285C36.1088 19.3868 35.9817 19.4569 35.8427 19.4865C35.7037 19.5161 35.5591 19.5039 35.427 19.4514L29.9801 17.2868C29.8922 17.2519 29.812 17.2 29.7441 17.1341C29.6763 17.0681 29.6221 16.9895 29.5847 16.9026C29.5472 16.8157 29.5273 16.7223 29.526 16.6277C29.5247 16.5331 29.5421 16.4391 29.5772 16.3513L31.2553 12.1307C30.7869 12.128 30.3231 12.0375 29.888 11.8637C29.3805 11.6599 28.924 11.3468 28.551 10.9467C28.1781 10.5466 27.8978 10.0692 27.7302 9.54859C27.5625 9.02796 27.5115 8.47679 27.5808 7.93423C27.6502 7.39167 27.8381 6.87104 28.1314 6.40931C28.4246 5.94757 28.8159 5.55607 29.2775 5.26261C29.739 4.96915 30.2596 4.78092 30.8021 4.7113C31.3446 4.64168 31.8958 4.69238 32.4165 4.85978C32.9373 5.02719 33.4147 5.30721 33.815 5.67994L35.4975 1.45358C35.5325 1.36571 35.5844 1.28558 35.6504 1.2178C35.7163 1.15001 35.795 1.09589 35.8819 1.05853C35.9688 1.02117 36.0622 1.0013 36.1567 1.00006C36.2513 0.998824 36.3452 1.01624 36.433 1.05131L50.0282 6.45498C50.5538 6.66467 50.9749 7.0742 51.1991 7.59381C51.4233 8.11341 51.4323 8.70071 51.2242 9.22698L45.827 22.807C45.7744 22.942 45.6824 23.0579 45.5628 23.1397C45.4433 23.2215 45.3019 23.2653 45.157 23.2654ZM41.1991 20.1984L44.7533 21.6103L49.885 8.69877C49.9505 8.52718 49.9464 8.33681 49.8737 8.16815C49.801 7.99949 49.6654 7.86584 49.4957 7.79564L36.5698 2.65464L34.6786 7.42216C34.6265 7.55369 34.5367 7.66694 34.4206 7.74774C34.3044 7.82855 34.167 7.87333 34.0256 7.87647C33.8841 7.87962 33.7449 7.841 33.6253 7.76545C33.5057 7.68989 33.411 7.58074 33.353 7.45166C33.167 7.04401 32.8652 6.70003 32.4853 6.46247C32.1053 6.2249 31.6639 6.10423 31.216 6.11545C30.768 6.12667 30.3332 6.26929 29.9656 6.52557C29.598 6.78186 29.3139 7.14051 29.1484 7.55697C28.983 7.97342 28.9436 8.4293 29.0351 8.86796C29.1267 9.30662 29.3451 9.70871 29.6633 10.0243C29.9814 10.3398 30.3853 10.5549 30.8247 10.6428C31.2641 10.7307 31.7196 10.6876 32.1347 10.5187C32.2654 10.4649 32.409 10.4508 32.5476 10.4781C32.6863 10.5054 32.8138 10.5729 32.9144 10.6722C33.0149 10.7715 33.084 10.8982 33.113 11.0365C33.142 11.1748 33.1296 11.3186 33.0774 11.4499L31.1805 16.2131L34.7441 17.63C34.7465 17.0221 34.8974 16.424 35.1837 15.8877C35.47 15.3514 35.8829 14.8931 36.3866 14.5528C36.8904 14.2124 37.4696 14.0003 38.074 13.9348C38.6784 13.8693 39.2896 13.9525 39.8546 14.177C40.4195 14.4016 40.921 14.7607 41.3155 15.2233C41.71 15.6858 41.9855 16.2378 42.1181 16.8311C42.2507 17.4243 42.2364 18.041 42.0763 18.6275C41.9163 19.214 41.6154 19.7525 41.1998 20.1962L41.1991 20.1984Z" fill="#E6B400"/>
<path d="M45.157 23.2654L45.1568 23.4654H45.1572L45.157 23.2654ZM44.8915 23.2143L44.9655 23.0285L44.9654 23.0285L44.8915 23.2143ZM39.4655 21.0555L39.5395 20.8696L39.5393 20.8696L39.4655 21.0555ZM39.4317 19.7321L39.5149 19.914L39.5153 19.9137L39.4317 19.7321ZM40.6025 18.5008L40.7882 18.5752L40.7884 18.5746L40.6025 18.5008ZM39.3194 15.5331L39.2455 15.7189L39.2459 15.719L39.3194 15.5331ZM36.3488 16.8097L36.5339 16.8856L36.5345 16.8839L36.3488 16.8097ZM36.3546 18.5001L36.1701 18.5773L36.1707 18.5786L36.3546 18.5001ZM35.427 19.4514L35.5009 19.2656L35.5009 19.2655L35.427 19.4514ZM29.9801 17.2868L30.054 17.1009L30.0539 17.1009L29.9801 17.2868ZM29.5772 16.3513L29.7629 16.4254L29.763 16.4252L29.5772 16.3513ZM31.2553 12.1307L31.4412 12.2046L31.5494 11.9323L31.2564 11.9307L31.2553 12.1307ZM29.888 11.8637L29.8135 12.0493L29.8138 12.0494L29.888 11.8637ZM33.815 5.67994L33.6787 5.82632L33.8927 6.02555L34.0008 5.75392L33.815 5.67994ZM35.4975 1.45358L35.6833 1.52756L35.6833 1.52752L35.4975 1.45358ZM36.433 1.05131L36.3589 1.23705L36.3592 1.23717L36.433 1.05131ZM50.0282 6.45498L50.1023 6.26922L50.1021 6.26912L50.0282 6.45498ZM51.2242 9.22698L51.4101 9.30084L51.4102 9.30052L51.2242 9.22698ZM45.827 22.807L45.6411 22.7332L45.6407 22.7344L45.827 22.807ZM41.1991 20.1984L41.0094 20.1352L40.9496 20.3145L41.1253 20.3843L41.1991 20.1984ZM44.7533 21.6103L44.6795 21.7962L44.8653 21.87L44.9392 21.6842L44.7533 21.6103ZM49.885 8.69877L50.0709 8.77265L50.0718 8.77008L49.885 8.69877ZM49.4957 7.79564L49.5721 7.61081L49.5696 7.6098L49.4957 7.79564ZM36.5698 2.65464L36.6437 2.4688L36.4577 2.39482L36.3838 2.58089L36.5698 2.65464ZM34.6786 7.42216L34.4927 7.34841L34.4926 7.34847L34.6786 7.42216ZM33.353 7.45166L33.5355 7.36977L33.535 7.36861L33.353 7.45166ZM32.1347 10.5187L32.2101 10.704L32.2108 10.7036L32.1347 10.5187ZM33.0774 11.4499L33.2632 11.5239L33.2633 11.5238L33.0774 11.4499ZM31.1805 16.2131L30.9947 16.1391L30.9206 16.325L31.1066 16.3989L31.1805 16.2131ZM34.7441 17.63L34.6702 17.8159L34.9429 17.9243L34.9441 17.6308L34.7441 17.63ZM41.1998 20.1962L41.0539 20.0595L41.0239 20.0915L41.0101 20.133L41.1998 20.1962ZM45.1573 23.0654C45.0916 23.0654 45.0265 23.0528 44.9655 23.0285L44.8175 23.4001C44.9255 23.4431 45.0406 23.4653 45.1568 23.4654L45.1573 23.0654ZM44.9654 23.0285L39.5395 20.8696L39.3916 21.2413L44.8176 23.4002L44.9654 23.0285ZM39.5393 20.8696C39.4446 20.832 39.3631 20.7675 39.3048 20.6839L38.9768 20.9129C39.0799 21.0607 39.2242 21.1749 39.3918 21.2414L39.5393 20.8696ZM39.3048 20.6839C39.2465 20.6004 39.214 20.5016 39.2114 20.3998L38.8116 20.41C38.8162 20.5902 38.8736 20.7651 38.9768 20.9129L39.3048 20.6839ZM39.2114 20.3998C39.2088 20.298 39.2362 20.1977 39.2902 20.1113L38.9509 19.8994C38.8554 20.0523 38.807 20.2299 38.8116 20.41L39.2114 20.3998ZM39.2902 20.1113C39.3441 20.0249 39.4222 19.9563 39.5149 19.914L39.3486 19.5502C39.1846 19.6251 39.0463 19.7466 38.9509 19.8994L39.2902 20.1113ZM39.5153 19.9137C40.0952 19.6468 40.5508 19.1678 40.7882 18.5752L40.4169 18.4264C40.2175 18.924 39.835 19.3263 39.3481 19.5504L39.5153 19.9137ZM40.7884 18.5746C40.9089 18.2711 40.9684 17.9468 40.9635 17.6202L40.5636 17.6263C40.5677 17.9002 40.5178 18.1723 40.4167 18.427L40.7884 18.5746ZM40.9635 17.6202C40.9586 17.2937 40.8893 16.9713 40.7597 16.6716L40.3926 16.8303C40.5013 17.0818 40.5594 17.3523 40.5636 17.6263L40.9635 17.6202ZM40.7597 16.6716C40.6301 16.3718 40.4427 16.1006 40.2082 15.8733L39.9298 16.1605C40.1266 16.3512 40.2839 16.5788 40.3926 16.8303L40.7597 16.6716ZM40.2082 15.8733C39.9737 15.646 39.6967 15.4672 39.393 15.3471L39.2459 15.719C39.5007 15.8198 39.7331 15.9698 39.9298 16.1605L40.2082 15.8733ZM39.3934 15.3472C38.7809 15.1036 38.0967 15.1129 37.4911 15.3732L37.6491 15.7407C38.1573 15.5223 38.7315 15.5144 39.2455 15.7189L39.3934 15.3472ZM37.4911 15.3732C36.8855 15.6334 36.4079 16.1234 36.1631 16.7354L36.5345 16.8839C36.74 16.3703 37.1408 15.9591 37.6491 15.7407L37.4911 15.3732ZM36.1638 16.7337C36.0437 17.0264 35.9824 17.3398 35.9835 17.6561L36.3835 17.6548C36.3826 17.391 36.4337 17.1296 36.5339 16.8856L36.1638 16.7337ZM35.9835 17.6561C35.9846 17.9724 36.048 18.2854 36.1701 18.5773L36.5391 18.4229C36.4373 18.1795 36.3844 17.9185 36.3835 17.6548L35.9835 17.6561ZM36.1707 18.5786C36.211 18.673 36.2224 18.7772 36.2036 18.878L36.5968 18.9515C36.6301 18.7729 36.6098 18.5885 36.5385 18.4215L36.1707 18.5786ZM36.2036 18.878C36.1847 18.9789 36.1365 19.072 36.0648 19.1454L36.3512 19.4247C36.478 19.2946 36.5634 19.13 36.5968 18.9515L36.2036 18.878ZM36.0648 19.1454C35.9932 19.2189 35.9014 19.2695 35.801 19.2909L35.8844 19.6821C36.062 19.6443 36.2244 19.5547 36.3512 19.4247L36.0648 19.1454ZM35.801 19.2909C35.7007 19.3123 35.5962 19.3034 35.5009 19.2656L35.3531 19.6373C35.5219 19.7043 35.7067 19.7199 35.8844 19.6821L35.801 19.2909ZM35.5009 19.2655L30.054 17.1009L29.9063 17.4726L35.3531 19.6373L35.5009 19.2655ZM30.0539 17.1009C29.9904 17.0757 29.9325 17.0382 29.8835 16.9906L29.6048 17.2775C29.6915 17.3618 29.794 17.4281 29.9064 17.4727L30.0539 17.1009ZM29.8835 16.9906C29.8345 16.943 29.7954 16.8862 29.7683 16.8235L29.401 16.9817C29.4488 17.0928 29.5181 17.1933 29.6048 17.2775L29.8835 16.9906ZM29.7683 16.8235C29.7413 16.7607 29.7269 16.6933 29.726 16.625L29.326 16.6304C29.3277 16.7513 29.3531 16.8707 29.401 16.9817L29.7683 16.8235ZM29.726 16.625C29.7251 16.5566 29.7376 16.4888 29.7629 16.4254L29.3914 16.2772C29.3466 16.3895 29.3244 16.5095 29.326 16.6304L29.726 16.625ZM29.763 16.4252L31.4412 12.2046L31.0695 12.0568L29.3913 16.2774L29.763 16.4252ZM31.2564 11.9307C30.813 11.9282 30.374 11.8425 29.9622 11.678L29.8138 12.0494C30.2721 12.2325 30.7607 12.3279 31.2542 12.3307L31.2564 11.9307ZM29.9626 11.6781C29.4822 11.4852 29.0503 11.1889 28.6973 10.8103L28.4047 11.083C28.7977 11.5046 29.2787 11.8345 29.8135 12.0493L29.9626 11.6781ZM28.6973 10.8103C28.3444 10.4317 28.0792 9.97996 27.9205 9.48728L27.5398 9.6099C27.7165 10.1585 28.0118 10.6614 28.4047 11.083L28.6973 10.8103ZM27.9205 9.48728C27.7619 8.9946 27.7136 8.47301 27.7792 7.95958L27.3825 7.90888C27.3094 8.48056 27.3631 9.06132 27.5398 9.6099L27.9205 9.48728ZM27.7792 7.95958C27.8448 7.44615 28.0227 6.95347 28.3002 6.51652L27.9625 6.30209C27.6536 6.78861 27.4555 7.33719 27.3825 7.90888L27.7792 7.95958ZM28.3002 6.51652C28.5777 6.07958 28.948 5.7091 29.3848 5.43139L29.1701 5.09383C28.6838 5.40305 28.2715 5.81557 27.9625 6.30209L28.3002 6.51652ZM29.3848 5.43139C29.8216 5.15368 30.3142 4.97556 30.8275 4.90967L30.7766 4.51293C30.205 4.58628 29.6565 4.78461 29.1701 5.09383L29.3848 5.43139ZM30.8275 4.90967C31.3409 4.84379 31.8625 4.89176 32.3553 5.05019L32.4777 4.66938C31.9291 4.49299 31.3483 4.43957 30.7766 4.51293L30.8275 4.90967ZM32.3553 5.05019C32.8481 5.20861 33.2999 5.47359 33.6787 5.82632L33.9513 5.53357C33.5295 5.14083 33.0264 4.84578 32.4777 4.66938L32.3553 5.05019ZM34.0008 5.75392L35.6833 1.52756L35.3117 1.37961L33.6292 5.60597L34.0008 5.75392ZM35.6833 1.52752C35.7086 1.46407 35.7461 1.40621 35.7937 1.35727L35.507 1.07833C35.4227 1.16495 35.3564 1.26734 35.3117 1.37965L35.6833 1.52752ZM35.7937 1.35727C35.8413 1.30832 35.8982 1.26924 35.9609 1.24226L35.8029 0.874794C35.6918 0.922538 35.5913 0.991702 35.507 1.07833L35.7937 1.35727ZM35.9609 1.24226C36.0236 1.21528 36.0911 1.20094 36.1594 1.20004L36.1541 0.800079C36.0333 0.801661 35.9139 0.827049 35.8029 0.874794L35.9609 1.24226ZM36.1594 1.20004C36.2276 1.19915 36.2954 1.21173 36.3589 1.23705L36.5072 0.865575C36.395 0.820753 36.275 0.798497 36.1541 0.800079L36.1594 1.20004ZM36.3592 1.23717L49.9543 6.64084L50.1021 6.26912L36.5069 0.865456L36.3592 1.23717ZM49.9541 6.64074C50.4305 6.83082 50.8122 7.20204 51.0154 7.67304L51.3827 7.51457C51.1375 6.94636 50.6771 6.49852 50.1023 6.26922L49.9541 6.64074ZM51.0154 7.67304C51.2186 8.14404 51.2268 8.6764 51.0382 9.15343L51.4102 9.30052C51.6378 8.72503 51.6279 8.08279 51.3827 7.51457L51.0154 7.67304ZM51.0383 9.15311L45.6412 22.7332L46.0129 22.8809L51.4101 9.30084L51.0383 9.15311ZM45.6407 22.7344C45.6027 22.8319 45.5362 22.9156 45.4499 22.9746L45.6758 23.3048C45.8285 23.2003 45.9462 23.0521 46.0134 22.8796L45.6407 22.7344ZM45.4499 22.9746C45.3636 23.0337 45.2615 23.0653 45.1569 23.0654L45.1572 23.4654C45.3423 23.4653 45.523 23.4093 45.6758 23.3048L45.4499 22.9746ZM41.1253 20.3843L44.6795 21.7962L44.8272 21.4244L41.2729 20.0125L41.1253 20.3843ZM44.9392 21.6842L50.0708 8.77264L49.6991 8.6249L44.5675 21.5364L44.9392 21.6842ZM50.0718 8.77008C50.1559 8.54982 50.1507 8.30547 50.0574 8.08898L49.6901 8.24732C49.7421 8.36815 49.745 8.50453 49.6981 8.62746L50.0718 8.77008ZM50.0574 8.08898C49.9641 7.87248 49.79 7.70094 49.5721 7.61083L49.4192 7.98045C49.5408 8.03075 49.638 8.12649 49.6901 8.24732L50.0574 8.08898ZM49.5696 7.6098L36.6437 2.4688L36.4958 2.84048L49.4217 7.98148L49.5696 7.6098ZM36.3838 2.58089L34.4927 7.34841L34.8645 7.4959L36.7557 2.72838L36.3838 2.58089ZM34.4926 7.34847C34.455 7.44345 34.3902 7.52522 34.3063 7.58357L34.5348 7.91192C34.6832 7.80865 34.7979 7.66393 34.8645 7.49584L34.4926 7.34847ZM34.3063 7.58357C34.2225 7.64192 34.1233 7.67425 34.0211 7.67652L34.03 8.07642C34.2108 8.0724 34.3864 8.01518 34.5348 7.91192L34.3063 7.58357ZM34.0211 7.67652C33.919 7.6788 33.8185 7.65091 33.7321 7.59635L33.5185 7.93454C33.6713 8.0311 33.8493 8.08045 34.03 8.07642L34.0211 7.67652ZM33.7321 7.59635C33.6457 7.54179 33.5773 7.46298 33.5355 7.36978L33.1706 7.53355C33.2446 7.69851 33.3656 7.83798 33.5185 7.93454L33.7321 7.59635ZM33.535 7.36861C33.3326 6.9253 33.0045 6.55123 32.5913 6.29289L32.3792 6.63205C32.7259 6.84883 33.0013 7.16272 33.1711 7.53471L33.535 7.36861ZM32.5913 6.29289C32.1781 6.03454 31.6981 5.90331 31.2109 5.91551L31.221 6.31539C31.6297 6.30515 32.0325 6.41527 32.3792 6.63205L32.5913 6.29289ZM31.2109 5.91551C30.7238 5.92772 30.251 6.08281 29.8512 6.36151L30.08 6.68963C30.4154 6.45577 30.8122 6.32563 31.221 6.31539L31.2109 5.91551ZM29.8512 6.36151C29.4515 6.64022 29.1425 7.03025 28.9626 7.48313L29.3343 7.6308C29.4853 7.25078 29.7446 6.9235 30.08 6.68963L29.8512 6.36151ZM28.9626 7.48313C28.7827 7.93601 28.7398 8.43178 28.8394 8.90881L29.2309 8.82711C29.1474 8.42683 29.1834 8.01082 29.3343 7.6308L28.9626 7.48313ZM28.8394 8.90881C28.9389 9.38584 29.1764 9.82311 29.5224 10.1663L29.8041 9.88225C29.5138 9.59431 29.3144 9.2274 29.2309 8.82711L28.8394 8.90881ZM29.5224 10.1663C29.8684 10.5094 30.3076 10.7433 30.7855 10.8389L30.8639 10.4467C30.463 10.3665 30.0944 10.1702 29.8041 9.88225L29.5224 10.1663ZM30.7855 10.8389C31.2633 10.9345 31.7587 10.8876 32.2101 10.704L32.0593 10.3334C31.6806 10.4875 31.2649 10.5269 30.8639 10.4467L30.7855 10.8389ZM32.2108 10.7036C32.3052 10.6648 32.4089 10.6546 32.509 10.6743L32.5863 10.2818C32.4091 10.247 32.2256 10.265 32.0586 10.3338L32.2108 10.7036ZM32.509 10.6743C32.6091 10.694 32.7012 10.7428 32.7738 10.8145L33.0549 10.5299C32.9264 10.403 32.7635 10.3167 32.5863 10.2818L32.509 10.6743ZM32.7738 10.8145C32.8464 10.8862 32.8963 10.9777 32.9172 11.0775L33.3087 10.9955C33.2717 10.8187 33.1834 10.6568 33.0549 10.5299L32.7738 10.8145ZM32.9172 11.0775C32.9382 11.1774 32.9292 11.2812 32.8916 11.376L33.2633 11.5238C33.33 11.3559 33.3458 11.1722 33.3087 10.9955L32.9172 11.0775ZM32.8916 11.3759L30.9947 16.1391L31.3663 16.2871L33.2632 11.5239L32.8916 11.3759ZM31.1066 16.3989L34.6702 17.8159L34.818 17.4442L31.2544 16.0272L31.1066 16.3989ZM34.9441 17.6308C34.9464 17.0555 35.0892 16.4894 35.3601 15.9819L35.0073 15.7935C34.7056 16.3586 34.5466 16.9887 34.5441 17.6292L34.9441 17.6308ZM35.3601 15.9819C35.6311 15.4743 36.0219 15.0406 36.4986 14.7185L36.2747 14.387C35.744 14.7456 35.3089 15.2285 35.0073 15.7935L35.3601 15.9819ZM36.4986 14.7185C36.9753 14.3964 37.5235 14.1956 38.0955 14.1336L38.0525 13.7359C37.4157 13.8049 36.8054 14.0285 36.2747 14.387L36.4986 14.7185ZM38.0955 14.1336C38.6675 14.0716 39.246 14.1503 39.7807 14.3629L39.9284 13.9912C39.3332 13.7546 38.6892 13.667 38.0525 13.7359L38.0955 14.1336ZM39.7807 14.3629C40.3153 14.5754 40.79 14.9153 41.1633 15.3531L41.4677 15.0935C41.052 14.6062 40.5236 14.2278 39.9284 13.9912L39.7807 14.3629ZM41.1633 15.3531C41.5367 15.7908 41.7975 16.3132 41.9229 16.8747L42.3133 16.7874C42.1736 16.1623 41.8833 15.5808 41.4677 15.0935L41.1633 15.3531ZM41.9229 16.8747C42.0484 17.4362 42.0349 18.0198 41.8834 18.5749L42.2693 18.6802C42.4379 18.0623 42.453 17.4125 42.3133 16.7874L41.9229 16.8747ZM41.8834 18.5749C41.7319 19.1299 41.4472 19.6396 41.0539 20.0595L41.3458 20.3329C41.7836 19.8655 42.1007 19.2981 42.2693 18.6802L41.8834 18.5749ZM41.0101 20.133L41.0094 20.1352L41.3889 20.2616L41.3896 20.2594L41.0101 20.133Z" fill="white" mask="url(#path-3-inside-2_1091_291199)"/>
</svg>
