<svg width="36" height="36" viewBox="0 0 36 36" fill="none" xmlns="http://www.w3.org/2000/svg">
<g clip-path="url(#clip0_1091_303917)">
<mask id="path-1-inside-1_1091_303917" fill="white">
<path fill-rule="evenodd" clip-rule="evenodd" d="M31.2593 16.1098C31.1963 16.1098 31.1339 16.0978 31.0754 16.0745L27.319 14.5799C27.2282 14.5439 27.15 14.482 27.0942 14.4019C27.0383 14.3218 27.0072 14.2271 27.0047 14.1295C27.0022 14.0319 27.0284 13.9357 27.0801 13.8529C27.1318 13.7701 27.2068 13.7043 27.2956 13.6637C27.6649 13.4937 27.955 13.1886 28.1061 12.8112C28.1829 12.618 28.2207 12.4116 28.2176 12.2037C28.2145 11.9958 28.1704 11.7906 28.0879 11.5998C28.0054 11.409 27.8861 11.2363 27.7368 11.0916C27.5875 10.947 27.4112 10.8331 27.2178 10.7567C26.8279 10.6015 26.3923 10.6075 26.0068 10.7732C25.6212 10.9389 25.3171 11.2508 25.1613 11.6405C25.085 11.8262 25.0461 12.0252 25.0468 12.226C25.0475 12.4268 25.0878 12.6255 25.1653 12.8107C25.2039 12.9012 25.2149 13.0011 25.1968 13.0978C25.1788 13.1945 25.1325 13.2837 25.0638 13.3542C24.9951 13.4246 24.9071 13.4732 24.8109 13.4937C24.7146 13.5142 24.6145 13.5057 24.5231 13.4694L20.7522 11.9708C20.6913 11.9466 20.6358 11.9107 20.5888 11.865C20.5418 11.8194 20.5043 11.765 20.4784 11.7048C20.4525 11.6446 20.4387 11.58 20.4378 11.5145C20.4369 11.449 20.4489 11.3839 20.4732 11.3231L21.635 8.40116C21.3107 8.39934 20.9896 8.33664 20.6884 8.21632C20.337 8.07522 20.021 7.85847 19.7628 7.58147C19.5046 7.30446 19.3106 6.97401 19.1945 6.61357C19.0784 6.25313 19.0431 5.87155 19.0911 5.49593C19.1391 5.12032 19.2692 4.75988 19.4722 4.44022C19.6752 4.12056 19.9461 3.84952 20.2657 3.64635C20.5853 3.44318 20.9456 3.31287 21.3212 3.26467C21.6968 3.21648 22.0784 3.25157 22.4389 3.36747C22.7994 3.48337 23.13 3.67723 23.4071 3.93527L24.5719 1.00933C24.5961 0.948494 24.6321 0.893024 24.6777 0.846095C24.7234 0.799165 24.7778 0.761697 24.838 0.735832C24.8982 0.709966 24.9628 0.696212 25.0283 0.695355C25.0938 0.694498 25.1588 0.706555 25.2196 0.730837L34.6316 4.47184C34.9955 4.61701 35.287 4.90053 35.4422 5.26025C35.5974 5.61998 35.6037 6.02658 35.4596 6.39091L31.7231 15.7925C31.6867 15.8859 31.6229 15.9662 31.5402 16.0228C31.4574 16.0794 31.3595 16.1098 31.2593 16.1098ZM28.5191 13.9865L30.9798 14.964L34.5324 6.02523C34.5778 5.90644 34.575 5.77464 34.5247 5.65788C34.4743 5.54111 34.3804 5.44859 34.2629 5.39999L25.3142 1.84083L24.0049 5.14142C23.9689 5.23248 23.9067 5.31089 23.8263 5.36683C23.7459 5.42277 23.6508 5.45377 23.5529 5.45595C23.4549 5.45813 23.3585 5.43139 23.2757 5.37908C23.1929 5.32677 23.1274 5.25121 23.0873 5.16185C22.9584 4.87963 22.7495 4.64149 22.4865 4.47702C22.2234 4.31255 21.9179 4.22901 21.6077 4.23678C21.2976 4.24455 20.9966 4.34328 20.7421 4.52071C20.4876 4.69814 20.2909 4.94644 20.1764 5.23475C20.0619 5.52306 20.0346 5.83868 20.0979 6.14236C20.1613 6.44605 20.3125 6.72442 20.5328 6.94288C20.7531 7.16133 21.0327 7.31024 21.3369 7.3711C21.6411 7.43196 21.9564 7.40208 22.2438 7.28518C22.3343 7.24794 22.4337 7.23816 22.5297 7.25705C22.6257 7.27595 22.714 7.32268 22.7836 7.39143C22.8532 7.46018 22.901 7.5479 22.9211 7.64365C22.9411 7.7394 22.9326 7.83894 22.8964 7.92986L21.5832 11.2275L24.0503 12.2084C24.052 11.7875 24.1565 11.3735 24.3546 11.0022C24.5528 10.6309 24.8387 10.3136 25.1874 10.078C25.5362 9.84237 25.9372 9.6955 26.3556 9.65016C26.774 9.60483 27.1972 9.6624 27.5883 9.81786C27.9794 9.97333 28.3266 10.222 28.5997 10.5422C28.8729 10.8624 29.0636 11.2445 29.1554 11.6553C29.2472 12.066 29.2373 12.493 29.1265 12.899C29.0157 13.305 28.8074 13.6778 28.5196 13.985L28.5191 13.9865ZM29.563 20.1334C29.5507 20.1324 29.5383 20.132 29.5258 20.132H25.3056C25.5313 19.6507 25.632 19.1202 25.5981 18.5896C25.5642 18.0591 25.397 17.5457 25.1118 17.097C24.8267 16.6483 24.4329 16.2789 23.967 16.0229C23.501 15.7669 22.978 15.6327 22.4464 15.6327C21.9148 15.6327 21.3918 15.7669 20.9258 16.0229C20.4599 16.2789 20.0661 16.6483 19.781 17.097C19.4958 17.5457 19.3286 18.0591 19.2947 18.5896C19.2608 19.1202 19.3615 19.6507 19.5872 20.132H15.8557V15.4698C15.8561 15.3715 15.8274 15.2753 15.7732 15.1933C15.7191 15.1113 15.6419 15.0472 15.5513 15.0089C15.4608 14.9707 15.361 14.9601 15.2644 14.9784C15.1679 14.9968 15.0789 15.0433 15.0087 15.1121C14.6076 15.4988 14.0713 15.7133 13.5141 15.7099C12.9423 15.7099 12.3938 15.4828 11.9895 15.0784C11.5851 14.674 11.3579 14.1256 11.3579 13.5537C11.3579 12.9819 11.5851 12.4334 11.9895 12.029C12.3938 11.6247 12.9423 11.3975 13.5141 11.3975C14.0716 11.3948 14.608 11.6102 15.0087 11.9978C15.0789 12.0666 15.1679 12.1131 15.2644 12.1315C15.361 12.1498 15.4608 12.1392 15.5513 12.101C15.6419 12.0628 15.7191 11.9986 15.7732 11.9166C15.8274 11.8346 15.8561 11.7384 15.8557 11.6401V6.47477C15.8557 6.34264 15.8032 6.21592 15.7098 6.12248C15.6163 6.02905 15.4896 5.97656 15.3575 5.97656H2.44857C1.98397 5.9759 1.53808 6.15952 1.20868 6.48715C0.879276 6.81477 0.693253 7.25967 0.691406 7.72426V33.5565C0.692462 34.0218 0.878072 34.4677 1.2075 34.7963C1.53693 35.1249 1.98327 35.3093 2.44857 35.3092H28.2764C28.7404 35.3082 29.1851 35.123 29.5128 34.7944C29.8404 34.4658 30.0243 34.0206 30.024 33.5565V20.7469C30.0331 20.7092 30.0377 20.6704 30.0377 20.631C30.0377 20.4989 29.9852 20.3722 29.8918 20.2787C29.8039 20.1909 29.6866 20.1392 29.563 20.1334ZM24.4293 21.1259H29.0276V33.5565C29.028 33.7564 28.9492 33.9482 28.8083 34.09C28.6675 34.2317 28.4762 34.3119 28.2764 34.3128H15.8675V30.5705C16.2844 30.7678 16.7435 30.8729 17.2133 30.8727C17.7295 30.8722 18.2377 30.745 18.6934 30.5023C19.149 30.2597 19.5381 29.9089 19.8266 29.4808C20.1151 29.0527 20.2941 28.5603 20.348 28.0469C20.4019 27.5335 20.329 27.0147 20.1356 26.536C19.9423 26.0574 19.6345 25.6334 19.2391 25.3015C18.8438 24.9695 18.3731 24.7396 17.8682 24.6319C17.3633 24.5242 16.8397 24.5421 16.3434 24.6839C16.1769 24.7315 16.0151 24.7925 15.8597 24.8661V21.1244H20.5343C20.6323 21.1241 20.728 21.0949 20.8095 21.0405C20.8909 20.9861 20.9546 20.9088 20.9924 20.8184C21.0302 20.728 21.0405 20.6285 21.022 20.5323C21.0035 20.4361 20.9571 20.3474 20.8885 20.2775C20.5008 19.8823 20.2858 19.3494 20.2907 18.7958C20.2912 18.4437 20.3779 18.0971 20.5433 17.7863C20.7086 17.4754 20.9476 17.2098 21.2393 17.0126C21.531 16.8155 21.8665 16.6927 22.2166 16.6551C22.5666 16.6175 22.9206 16.6662 23.2475 16.7969C23.5744 16.9276 23.8643 17.1364 24.092 17.405C24.3196 17.6737 24.4779 17.9939 24.5532 18.3379C24.6285 18.6818 24.6184 19.0389 24.5239 19.3781C24.4317 19.7087 24.262 20.0123 24.029 20.264C23.9927 20.2972 23.9614 20.3358 23.9362 20.3786C23.8906 20.4561 23.8668 20.5445 23.8674 20.6345C23.8682 20.7661 23.921 20.8921 24.0144 20.9848C24.1077 21.0776 24.234 21.1297 24.3656 21.1297C24.3825 21.1298 24.3993 21.1289 24.4161 21.1272L24.4293 21.1259ZM15.0854 26.2163C15.0582 26.1982 15.0327 26.1773 15.0092 26.1539C14.9158 26.0605 14.8633 25.9337 14.8633 25.8016V21.1292H11.1372C11.3366 21.5483 11.4417 22.0106 11.439 22.4834C11.4369 23.3191 11.1036 24.1199 10.5122 24.7103C9.92086 25.3008 9.11956 25.6327 8.28387 25.6335C7.66463 25.6337 7.05907 25.4514 6.54287 25.1093C6.02668 24.7673 5.62275 24.2807 5.38157 23.7103C5.14038 23.14 5.07265 22.5112 5.18682 21.9026C5.23729 21.6336 5.32231 21.3737 5.43874 21.1292H1.68781V33.5565C1.68873 33.7576 1.76932 33.9501 1.91192 34.0919C2.05452 34.2336 2.24749 34.3131 2.44857 34.3128H14.8711V29.7229C14.8644 29.6927 14.8606 29.6619 14.8596 29.6309C14.8575 29.5644 14.8688 29.4982 14.8928 29.4362C14.9167 29.3741 14.9528 29.3174 14.999 29.2696C15.0452 29.2217 15.1005 29.1835 15.1616 29.1574C15.2228 29.1312 15.2886 29.1176 15.3551 29.1172C15.3572 29.1172 15.3593 29.1172 15.3614 29.1173C15.364 29.1172 15.3667 29.1172 15.3693 29.1172C15.5014 29.1172 15.6281 29.1697 15.7216 29.2631C15.7391 29.2806 15.7552 29.2993 15.7698 29.319C16.0637 29.5823 16.4247 29.7602 16.8136 29.8324C17.2281 29.9094 17.656 29.8631 18.0444 29.6993C18.4329 29.5354 18.7647 29.2612 18.9988 28.9106C19.2328 28.56 19.3589 28.1484 19.3613 27.7268C19.3637 27.3053 19.2424 26.8923 19.0124 26.539C18.7824 26.1857 18.4537 25.9077 18.0672 25.7394C17.6807 25.571 17.2533 25.5198 16.838 25.5921C16.4226 25.6643 16.0376 25.8568 15.7306 26.1458C15.6625 26.2186 15.5741 26.2692 15.4768 26.2912C15.3796 26.3132 15.278 26.3055 15.1852 26.2692C15.1498 26.2553 15.1164 26.2376 15.0854 26.2163ZM6.87534 20.6296C6.87496 20.6094 6.87335 20.5894 6.87056 20.5697C6.85698 20.4601 6.80729 20.3576 6.72843 20.2787C6.635 20.1853 6.50828 20.1328 6.37615 20.1328H1.68781V7.72426C1.68939 7.52385 1.77035 7.33224 1.91295 7.19142C2.05555 7.05059 2.24815 6.97204 2.44857 6.97297H14.8593V10.696C14.3788 10.4713 13.8495 10.3714 13.3202 10.4057C12.7909 10.4399 12.2787 10.6071 11.8312 10.8918C11.3837 11.1766 11.0153 11.5696 10.76 12.0345C10.5048 12.4995 10.371 13.0213 10.371 13.5517C10.371 14.0821 10.5048 14.604 10.76 15.0689C11.0153 15.5339 11.3837 15.9269 11.8312 16.2116C12.2787 16.4963 12.7909 16.6635 13.3202 16.6978C13.8495 16.732 14.3788 16.6321 14.8593 16.4074V20.1328H10.2688C10.2446 20.1285 10.2201 20.1259 10.1955 20.1252C10.1284 20.1232 10.0616 20.1348 9.99915 20.1593C9.93665 20.1838 9.87975 20.2207 9.83185 20.2677C9.78396 20.3147 9.74606 20.3709 9.72043 20.433C9.6948 20.495 9.68197 20.5616 9.68271 20.6287C9.68345 20.6958 9.69774 20.7621 9.72473 20.8235C9.75171 20.885 9.79084 20.9403 9.83976 20.9863C10.2299 21.3855 10.4466 21.9227 10.4426 22.4809C10.4415 23.0531 10.2135 23.6016 9.80847 24.0058C9.40346 24.4101 8.85461 24.6371 8.28238 24.6371C7.85912 24.637 7.44528 24.5122 7.09254 24.2783C6.73981 24.0444 6.46382 23.7117 6.29905 23.3218C6.13428 22.932 6.08803 22.5022 6.16609 22.0862C6.24415 21.6702 6.44305 21.2864 6.73795 20.9828C6.82849 20.8878 6.87786 20.7608 6.87534 20.6296Z"/>
</mask>
<path fill-rule="evenodd" clip-rule="evenodd" d="M31.2593 16.1098C31.1963 16.1098 31.1339 16.0978 31.0754 16.0745L27.319 14.5799C27.2282 14.5439 27.15 14.482 27.0942 14.4019C27.0383 14.3218 27.0072 14.2271 27.0047 14.1295C27.0022 14.0319 27.0284 13.9357 27.0801 13.8529C27.1318 13.7701 27.2068 13.7043 27.2956 13.6637C27.6649 13.4937 27.955 13.1886 28.1061 12.8112C28.1829 12.618 28.2207 12.4116 28.2176 12.2037C28.2145 11.9958 28.1704 11.7906 28.0879 11.5998C28.0054 11.409 27.8861 11.2363 27.7368 11.0916C27.5875 10.947 27.4112 10.8331 27.2178 10.7567C26.8279 10.6015 26.3923 10.6075 26.0068 10.7732C25.6212 10.9389 25.3171 11.2508 25.1613 11.6405C25.085 11.8262 25.0461 12.0252 25.0468 12.226C25.0475 12.4268 25.0878 12.6255 25.1653 12.8107C25.2039 12.9012 25.2149 13.0011 25.1968 13.0978C25.1788 13.1945 25.1325 13.2837 25.0638 13.3542C24.9951 13.4246 24.9071 13.4732 24.8109 13.4937C24.7146 13.5142 24.6145 13.5057 24.5231 13.4694L20.7522 11.9708C20.6913 11.9466 20.6358 11.9107 20.5888 11.865C20.5418 11.8194 20.5043 11.765 20.4784 11.7048C20.4525 11.6446 20.4387 11.58 20.4378 11.5145C20.4369 11.449 20.4489 11.3839 20.4732 11.3231L21.635 8.40116C21.3107 8.39934 20.9896 8.33664 20.6884 8.21632C20.337 8.07522 20.021 7.85847 19.7628 7.58147C19.5046 7.30446 19.3106 6.97401 19.1945 6.61357C19.0784 6.25313 19.0431 5.87155 19.0911 5.49593C19.1391 5.12032 19.2692 4.75988 19.4722 4.44022C19.6752 4.12056 19.9461 3.84952 20.2657 3.64635C20.5853 3.44318 20.9456 3.31287 21.3212 3.26467C21.6968 3.21648 22.0784 3.25157 22.4389 3.36747C22.7994 3.48337 23.13 3.67723 23.4071 3.93527L24.5719 1.00933C24.5961 0.948494 24.6321 0.893024 24.6777 0.846095C24.7234 0.799165 24.7778 0.761697 24.838 0.735832C24.8982 0.709966 24.9628 0.696212 25.0283 0.695355C25.0938 0.694498 25.1588 0.706555 25.2196 0.730837L34.6316 4.47184C34.9955 4.61701 35.287 4.90053 35.4422 5.26025C35.5974 5.61998 35.6037 6.02658 35.4596 6.39091L31.7231 15.7925C31.6867 15.8859 31.6229 15.9662 31.5402 16.0228C31.4574 16.0794 31.3595 16.1098 31.2593 16.1098ZM28.5191 13.9865L30.9798 14.964L34.5324 6.02523C34.5778 5.90644 34.575 5.77464 34.5247 5.65788C34.4743 5.54111 34.3804 5.44859 34.2629 5.39999L25.3142 1.84083L24.0049 5.14142C23.9689 5.23248 23.9067 5.31089 23.8263 5.36683C23.7459 5.42277 23.6508 5.45377 23.5529 5.45595C23.4549 5.45813 23.3585 5.43139 23.2757 5.37908C23.1929 5.32677 23.1274 5.25121 23.0873 5.16185C22.9584 4.87963 22.7495 4.64149 22.4865 4.47702C22.2234 4.31255 21.9179 4.22901 21.6077 4.23678C21.2976 4.24455 20.9966 4.34328 20.7421 4.52071C20.4876 4.69814 20.2909 4.94644 20.1764 5.23475C20.0619 5.52306 20.0346 5.83868 20.0979 6.14236C20.1613 6.44605 20.3125 6.72442 20.5328 6.94288C20.7531 7.16133 21.0327 7.31024 21.3369 7.3711C21.6411 7.43196 21.9564 7.40208 22.2438 7.28518C22.3343 7.24794 22.4337 7.23816 22.5297 7.25705C22.6257 7.27595 22.714 7.32268 22.7836 7.39143C22.8532 7.46018 22.901 7.5479 22.9211 7.64365C22.9411 7.7394 22.9326 7.83894 22.8964 7.92986L21.5832 11.2275L24.0503 12.2084C24.052 11.7875 24.1565 11.3735 24.3546 11.0022C24.5528 10.6309 24.8387 10.3136 25.1874 10.078C25.5362 9.84237 25.9372 9.6955 26.3556 9.65016C26.774 9.60483 27.1972 9.6624 27.5883 9.81786C27.9794 9.97333 28.3266 10.222 28.5997 10.5422C28.8729 10.8624 29.0636 11.2445 29.1554 11.6553C29.2472 12.066 29.2373 12.493 29.1265 12.899C29.0157 13.305 28.8074 13.6778 28.5196 13.985L28.5191 13.9865ZM29.563 20.1334C29.5507 20.1324 29.5383 20.132 29.5258 20.132H25.3056C25.5313 19.6507 25.632 19.1202 25.5981 18.5896C25.5642 18.0591 25.397 17.5457 25.1118 17.097C24.8267 16.6483 24.4329 16.2789 23.967 16.0229C23.501 15.7669 22.978 15.6327 22.4464 15.6327C21.9148 15.6327 21.3918 15.7669 20.9258 16.0229C20.4599 16.2789 20.0661 16.6483 19.781 17.097C19.4958 17.5457 19.3286 18.0591 19.2947 18.5896C19.2608 19.1202 19.3615 19.6507 19.5872 20.132H15.8557V15.4698C15.8561 15.3715 15.8274 15.2753 15.7732 15.1933C15.7191 15.1113 15.6419 15.0472 15.5513 15.0089C15.4608 14.9707 15.361 14.9601 15.2644 14.9784C15.1679 14.9968 15.0789 15.0433 15.0087 15.1121C14.6076 15.4988 14.0713 15.7133 13.5141 15.7099C12.9423 15.7099 12.3938 15.4828 11.9895 15.0784C11.5851 14.674 11.3579 14.1256 11.3579 13.5537C11.3579 12.9819 11.5851 12.4334 11.9895 12.029C12.3938 11.6247 12.9423 11.3975 13.5141 11.3975C14.0716 11.3948 14.608 11.6102 15.0087 11.9978C15.0789 12.0666 15.1679 12.1131 15.2644 12.1315C15.361 12.1498 15.4608 12.1392 15.5513 12.101C15.6419 12.0628 15.7191 11.9986 15.7732 11.9166C15.8274 11.8346 15.8561 11.7384 15.8557 11.6401V6.47477C15.8557 6.34264 15.8032 6.21592 15.7098 6.12248C15.6163 6.02905 15.4896 5.97656 15.3575 5.97656H2.44857C1.98397 5.9759 1.53808 6.15952 1.20868 6.48715C0.879276 6.81477 0.693253 7.25967 0.691406 7.72426V33.5565C0.692462 34.0218 0.878072 34.4677 1.2075 34.7963C1.53693 35.1249 1.98327 35.3093 2.44857 35.3092H28.2764C28.7404 35.3082 29.1851 35.123 29.5128 34.7944C29.8404 34.4658 30.0243 34.0206 30.024 33.5565V20.7469C30.0331 20.7092 30.0377 20.6704 30.0377 20.631C30.0377 20.4989 29.9852 20.3722 29.8918 20.2787C29.8039 20.1909 29.6866 20.1392 29.563 20.1334ZM24.4293 21.1259H29.0276V33.5565C29.028 33.7564 28.9492 33.9482 28.8083 34.09C28.6675 34.2317 28.4762 34.3119 28.2764 34.3128H15.8675V30.5705C16.2844 30.7678 16.7435 30.8729 17.2133 30.8727C17.7295 30.8722 18.2377 30.745 18.6934 30.5023C19.149 30.2597 19.5381 29.9089 19.8266 29.4808C20.1151 29.0527 20.2941 28.5603 20.348 28.0469C20.4019 27.5335 20.329 27.0147 20.1356 26.536C19.9423 26.0574 19.6345 25.6334 19.2391 25.3015C18.8438 24.9695 18.3731 24.7396 17.8682 24.6319C17.3633 24.5242 16.8397 24.5421 16.3434 24.6839C16.1769 24.7315 16.0151 24.7925 15.8597 24.8661V21.1244H20.5343C20.6323 21.1241 20.728 21.0949 20.8095 21.0405C20.8909 20.9861 20.9546 20.9088 20.9924 20.8184C21.0302 20.728 21.0405 20.6285 21.022 20.5323C21.0035 20.4361 20.9571 20.3474 20.8885 20.2775C20.5008 19.8823 20.2858 19.3494 20.2907 18.7958C20.2912 18.4437 20.3779 18.0971 20.5433 17.7863C20.7086 17.4754 20.9476 17.2098 21.2393 17.0126C21.531 16.8155 21.8665 16.6927 22.2166 16.6551C22.5666 16.6175 22.9206 16.6662 23.2475 16.7969C23.5744 16.9276 23.8643 17.1364 24.092 17.405C24.3196 17.6737 24.4779 17.9939 24.5532 18.3379C24.6285 18.6818 24.6184 19.0389 24.5239 19.3781C24.4317 19.7087 24.262 20.0123 24.029 20.264C23.9927 20.2972 23.9614 20.3358 23.9362 20.3786C23.8906 20.4561 23.8668 20.5445 23.8674 20.6345C23.8682 20.7661 23.921 20.8921 24.0144 20.9848C24.1077 21.0776 24.234 21.1297 24.3656 21.1297C24.3825 21.1298 24.3993 21.1289 24.4161 21.1272L24.4293 21.1259ZM15.0854 26.2163C15.0582 26.1982 15.0327 26.1773 15.0092 26.1539C14.9158 26.0605 14.8633 25.9337 14.8633 25.8016V21.1292H11.1372C11.3366 21.5483 11.4417 22.0106 11.439 22.4834C11.4369 23.3191 11.1036 24.1199 10.5122 24.7103C9.92086 25.3008 9.11956 25.6327 8.28387 25.6335C7.66463 25.6337 7.05907 25.4514 6.54287 25.1093C6.02668 24.7673 5.62275 24.2807 5.38157 23.7103C5.14038 23.14 5.07265 22.5112 5.18682 21.9026C5.23729 21.6336 5.32231 21.3737 5.43874 21.1292H1.68781V33.5565C1.68873 33.7576 1.76932 33.9501 1.91192 34.0919C2.05452 34.2336 2.24749 34.3131 2.44857 34.3128H14.8711V29.7229C14.8644 29.6927 14.8606 29.6619 14.8596 29.6309C14.8575 29.5644 14.8688 29.4982 14.8928 29.4362C14.9167 29.3741 14.9528 29.3174 14.999 29.2696C15.0452 29.2217 15.1005 29.1835 15.1616 29.1574C15.2228 29.1312 15.2886 29.1176 15.3551 29.1172C15.3572 29.1172 15.3593 29.1172 15.3614 29.1173C15.364 29.1172 15.3667 29.1172 15.3693 29.1172C15.5014 29.1172 15.6281 29.1697 15.7216 29.2631C15.7391 29.2806 15.7552 29.2993 15.7698 29.319C16.0637 29.5823 16.4247 29.7602 16.8136 29.8324C17.2281 29.9094 17.656 29.8631 18.0444 29.6993C18.4329 29.5354 18.7647 29.2612 18.9988 28.9106C19.2328 28.56 19.3589 28.1484 19.3613 27.7268C19.3637 27.3053 19.2424 26.8923 19.0124 26.539C18.7824 26.1857 18.4537 25.9077 18.0672 25.7394C17.6807 25.571 17.2533 25.5198 16.838 25.5921C16.4226 25.6643 16.0376 25.8568 15.7306 26.1458C15.6625 26.2186 15.5741 26.2692 15.4768 26.2912C15.3796 26.3132 15.278 26.3055 15.1852 26.2692C15.1498 26.2553 15.1164 26.2376 15.0854 26.2163ZM6.87534 20.6296C6.87496 20.6094 6.87335 20.5894 6.87056 20.5697C6.85698 20.4601 6.80729 20.3576 6.72843 20.2787C6.635 20.1853 6.50828 20.1328 6.37615 20.1328H1.68781V7.72426C1.68939 7.52385 1.77035 7.33224 1.91295 7.19142C2.05555 7.05059 2.24815 6.97204 2.44857 6.97297H14.8593V10.696C14.3788 10.4713 13.8495 10.3714 13.3202 10.4057C12.7909 10.4399 12.2787 10.6071 11.8312 10.8918C11.3837 11.1766 11.0153 11.5696 10.76 12.0345C10.5048 12.4995 10.371 13.0213 10.371 13.5517C10.371 14.0821 10.5048 14.604 10.76 15.0689C11.0153 15.5339 11.3837 15.9269 11.8312 16.2116C12.2787 16.4963 12.7909 16.6635 13.3202 16.6978C13.8495 16.732 14.3788 16.6321 14.8593 16.4074V20.1328H10.2688C10.2446 20.1285 10.2201 20.1259 10.1955 20.1252C10.1284 20.1232 10.0616 20.1348 9.99915 20.1593C9.93665 20.1838 9.87975 20.2207 9.83185 20.2677C9.78396 20.3147 9.74606 20.3709 9.72043 20.433C9.6948 20.495 9.68197 20.5616 9.68271 20.6287C9.68345 20.6958 9.69774 20.7621 9.72473 20.8235C9.75171 20.885 9.79084 20.9403 9.83976 20.9863C10.2299 21.3855 10.4466 21.9227 10.4426 22.4809C10.4415 23.0531 10.2135 23.6016 9.80847 24.0058C9.40346 24.4101 8.85461 24.6371 8.28238 24.6371C7.85912 24.637 7.44528 24.5122 7.09254 24.2783C6.73981 24.0444 6.46382 23.7117 6.29905 23.3218C6.13428 22.932 6.08803 22.5022 6.16609 22.0862C6.24415 21.6702 6.44305 21.2864 6.73795 20.9828C6.82849 20.8878 6.87786 20.7608 6.87534 20.6296Z" fill="black"/>
<path d="M31.0754 16.0745L31.1267 15.9458L31.1266 15.9458L31.0754 16.0745ZM31.2593 16.1098L31.2591 16.2483L31.2594 16.2483L31.2593 16.1098ZM27.319 14.5799L27.3702 14.4512L27.37 14.4512L27.319 14.5799ZM27.0942 14.4019L27.2077 14.3227V14.3227L27.0942 14.4019ZM27.0047 14.1295L26.8662 14.133L27.0047 14.1295ZM27.0801 13.8529L26.9627 13.7795L26.9627 13.7795L27.0801 13.8529ZM27.2956 13.6637L27.3531 13.7896L27.3535 13.7894L27.2956 13.6637ZM28.1061 12.8112L28.2347 12.8627L28.2348 12.8623L28.1061 12.8112ZM28.0879 11.5998L27.9608 11.6548V11.6548L28.0879 11.5998ZM27.7368 11.0916L27.8332 10.9922V10.9922L27.7368 11.0916ZM27.2178 10.7567L27.1667 10.8853L27.1669 10.8854L27.2178 10.7567ZM26.0068 10.7732L25.9521 10.646L26.0068 10.7732ZM25.1613 11.6405L25.2894 11.693L25.2898 11.6919L25.1613 11.6405ZM25.0468 12.226L25.1853 12.2255V12.2255L25.0468 12.226ZM25.1653 12.8107L25.0375 12.8642L25.0379 12.8651L25.1653 12.8107ZM25.1968 13.0978L25.3329 13.1232V13.1232L25.1968 13.0978ZM25.0638 13.3542L25.1629 13.4509V13.4509L25.0638 13.3542ZM24.8109 13.4937L24.8397 13.6291H24.8397L24.8109 13.4937ZM24.5231 13.4694L24.5742 13.3407L24.5742 13.3407L24.5231 13.4694ZM20.7522 11.9708L20.8033 11.8421L20.8032 11.8421L20.7522 11.9708ZM20.5888 11.865L20.6853 11.7657V11.7657L20.5888 11.865ZM20.4784 11.7048L20.6055 11.65L20.6055 11.65L20.4784 11.7048ZM20.4732 11.3231L20.6018 11.3744L20.6019 11.3743L20.4732 11.3231ZM21.635 8.40116L21.7637 8.45231L21.8386 8.26383L21.6358 8.2627L21.635 8.40116ZM20.6884 8.21632L20.6368 8.34481L20.637 8.3449L20.6884 8.21632ZM19.7628 7.58147L19.6615 7.67587L19.7628 7.58147ZM19.1945 6.61357L19.3263 6.57112V6.57112L19.1945 6.61357ZM19.0911 5.49593L18.9538 5.47838V5.47838L19.0911 5.49593ZM19.4722 4.44022L19.5891 4.51444V4.51444L19.4722 4.44022ZM21.3212 3.26467L21.3388 3.40201L21.3212 3.26467ZM23.4071 3.93527L23.3127 4.03661L23.4609 4.17454L23.5357 3.98648L23.4071 3.93527ZM24.5719 1.00933L24.7005 1.06054L24.7005 1.06052L24.5719 1.00933ZM24.6777 0.846095L24.5785 0.749539V0.749539L24.6777 0.846095ZM24.838 0.735832L24.7833 0.608631L24.838 0.735832ZM25.0283 0.695355L25.0301 0.833805L25.0283 0.695355ZM25.2196 0.730837L25.1682 0.859426L25.1684 0.859507L25.2196 0.730837ZM34.6316 4.47184L34.6829 4.34323L34.6827 4.34317L34.6316 4.47184ZM35.4422 5.26025L35.3151 5.31511V5.31511L35.4422 5.26025ZM35.4596 6.39091L35.5883 6.44205L35.5884 6.44182L35.4596 6.39091ZM31.7231 15.7925L31.5944 15.7413L31.5941 15.7422L31.7231 15.7925ZM31.5402 16.0228L31.462 15.9085L31.462 15.9085L31.5402 16.0228ZM30.9798 14.964L30.9287 15.0927L31.0573 15.1438L31.1084 15.0151L30.9798 14.964ZM28.5191 13.9865L28.3878 13.9426L28.3463 14.0668L28.468 14.1152L28.5191 13.9865ZM34.5324 6.02523L34.6611 6.07638L34.6618 6.0746L34.5324 6.02523ZM34.5247 5.65788L34.6518 5.60306L34.5247 5.65788ZM34.2629 5.39999L34.3158 5.27203L34.3141 5.27133L34.2629 5.39999ZM25.3142 1.84083L25.3654 1.71217L25.2366 1.66095L25.1855 1.78978L25.3142 1.84083ZM24.0049 5.14142L23.8762 5.09037L23.8762 5.09041L24.0049 5.14142ZM23.5529 5.45595L23.5498 5.31752H23.5498L23.5529 5.45595ZM23.0873 5.16185L23.2136 5.10516L23.2132 5.10435L23.0873 5.16185ZM22.4865 4.47702L22.5599 4.35962V4.35962L22.4865 4.47702ZM21.6077 4.23678L21.6112 4.3752L21.6077 4.23678ZM20.7421 4.52071L20.6629 4.40713V4.40713L20.7421 4.52071ZM20.1764 5.23475L20.3051 5.28587L20.1764 5.23475ZM20.0979 6.14236L19.9624 6.17064V6.17064L20.0979 6.14236ZM20.5328 6.94288L20.6303 6.84457L20.6303 6.84457L20.5328 6.94288ZM22.2438 7.28518L22.296 7.41344L22.2965 7.41322L22.2438 7.28518ZM22.5297 7.25705L22.5564 7.1212L22.5297 7.25705ZM22.7836 7.39143L22.8809 7.29293L22.8809 7.29293L22.7836 7.39143ZM22.9211 7.64365L23.0566 7.61524L22.9211 7.64365ZM22.8964 7.92986L23.0251 7.98109L23.0251 7.98099L22.8964 7.92986ZM21.5832 11.2275L21.4545 11.1762L21.4033 11.3049L21.532 11.3561L21.5832 11.2275ZM24.0503 12.2084L23.9991 12.3371L24.1879 12.4122L24.1887 12.209L24.0503 12.2084ZM24.3546 11.0022L24.2325 10.937L24.2325 10.937L24.3546 11.0022ZM25.1874 10.078L25.265 10.1927L25.1874 10.078ZM27.5883 9.81786L27.6395 9.68919L27.5883 9.81786ZM29.1554 11.6553L29.2905 11.6251V11.6251L29.1554 11.6553ZM29.1265 12.899L28.9929 12.8625L29.1265 12.899ZM28.5196 13.985L28.4186 13.8904L28.3979 13.9124L28.3883 13.9411L28.5196 13.985ZM29.563 20.1334L29.5527 20.2715L29.5565 20.2717L29.563 20.1334ZM25.3056 20.132L25.1802 20.0732L25.0877 20.2704H25.3056V20.132ZM25.5981 18.5896L25.4599 18.5985L25.5981 18.5896ZM25.1118 17.097L24.995 17.1713L25.1118 17.097ZM23.967 16.0229L23.9003 16.1442L23.967 16.0229ZM20.9258 16.0229L20.8591 15.9015L20.9258 16.0229ZM19.781 17.097L19.8978 17.1713L19.781 17.097ZM19.2947 18.5896L19.4329 18.5985L19.2947 18.5896ZM19.5872 20.132V20.2704H19.8051L19.7126 20.0732L19.5872 20.132ZM15.8557 20.132H15.7172V20.2704H15.8557V20.132ZM15.8557 15.4698L15.7172 15.4693V15.4698H15.8557ZM15.5513 15.0089L15.4974 15.1365V15.1365L15.5513 15.0089ZM15.2644 14.9784L15.2386 14.8424H15.2386L15.2644 14.9784ZM15.0087 15.1121L15.1048 15.2118L15.1057 15.211L15.0087 15.1121ZM13.5141 15.7099L13.515 15.5715H13.5141V15.7099ZM13.5141 11.3975V11.536L13.5148 11.536L13.5141 11.3975ZM15.0087 11.9978L15.1057 11.899L15.105 11.8983L15.0087 11.9978ZM15.5513 12.101L15.6052 12.2285H15.6052L15.5513 12.101ZM15.7732 11.9166L15.6577 11.8403V11.8403L15.7732 11.9166ZM15.8557 11.6401H15.7172L15.7172 11.6407L15.8557 11.6401ZM15.7098 6.12248L15.8077 6.02458V6.02458L15.7098 6.12248ZM2.44857 5.97656L2.44837 6.11503H2.44857V5.97656ZM1.20868 6.48715L1.11104 6.38897H1.11104L1.20868 6.48715ZM0.691406 7.72426L0.552945 7.72371V7.72426H0.691406ZM0.691406 33.5565H0.552944L0.552945 33.5568L0.691406 33.5565ZM1.2075 34.7963L1.30529 34.6982H1.30529L1.2075 34.7963ZM2.44857 35.3092V35.1707H2.44853L2.44857 35.3092ZM28.2764 35.3092V35.4477H28.2767L28.2764 35.3092ZM29.5128 34.7944L29.6108 34.8922H29.6108L29.5128 34.7944ZM30.024 33.5565H29.8856V33.5566L30.024 33.5565ZM30.024 20.7469L29.8894 20.7147L29.8856 20.7306V20.7469H30.024ZM29.0276 21.1259H29.1661V20.9874H29.0276V21.1259ZM24.4293 21.1259V20.9874H24.4222L24.4151 20.9882L24.4293 21.1259ZM29.0276 33.5565H28.8892V33.5568L29.0276 33.5565ZM28.8083 34.09L28.7101 33.9924H28.7101L28.8083 34.09ZM28.2764 34.3128V34.4513L28.277 34.4513L28.2764 34.3128ZM15.8675 34.3128H15.729V34.4513H15.8675V34.3128ZM15.8675 30.5705L15.9267 30.4453L15.729 30.3517V30.5705H15.8675ZM17.2133 30.8727L17.2133 31.0112H17.2134L17.2133 30.8727ZM19.8266 29.4808L19.7118 29.4034L19.8266 29.4808ZM20.348 28.0469L20.4857 28.0613L20.348 28.0469ZM20.1356 26.536L20.0072 26.5879L20.1356 26.536ZM19.2391 25.3015L19.1501 25.4075L19.2391 25.3015ZM17.8682 24.6319L17.8971 24.4965L17.8682 24.6319ZM16.3434 24.6839L16.3814 24.817H16.3814L16.3434 24.6839ZM15.8597 24.8661H15.7212V25.0849L15.919 24.9912L15.8597 24.8661ZM15.8597 21.1244V20.9859H15.7212V21.1244H15.8597ZM20.5343 21.1244V21.2629L20.5347 21.2629L20.5343 21.1244ZM20.8095 21.0405L20.7326 20.9253V20.9253L20.8095 21.0405ZM20.9924 20.8184L21.1201 20.8719V20.8719L20.9924 20.8184ZM21.022 20.5323L20.886 20.5584V20.5584L21.022 20.5323ZM20.8885 20.2775L20.9874 20.1805L20.9873 20.1805L20.8885 20.2775ZM20.2907 18.7958L20.4291 18.797L20.4291 18.796L20.2907 18.7958ZM20.5433 17.7863L20.6655 17.8513L20.5433 17.7863ZM21.2393 17.0126L21.1617 16.8979V16.8979L21.2393 17.0126ZM22.2166 16.6551L22.2314 16.7928L22.2166 16.6551ZM23.2475 16.7969L23.1961 16.9255H23.1961L23.2475 16.7969ZM24.092 17.405L23.9863 17.4946L24.092 17.405ZM24.5239 19.3781L24.6573 19.4153V19.4153L24.5239 19.3781ZM24.029 20.264L24.1229 20.3664L24.1306 20.358L24.029 20.264ZM23.9362 20.3786L23.8169 20.3083L23.8169 20.3083L23.9362 20.3786ZM23.8674 20.6345L24.0059 20.6337V20.6336L23.8674 20.6345ZM24.3656 21.1297L24.366 20.9912H24.3656L24.3656 21.1297ZM24.4161 21.1272L24.4299 21.265L24.4302 21.265L24.4161 21.1272ZM15.0854 26.2163L15.1637 26.1021L15.1621 26.1011L15.0854 26.2163ZM15.0092 26.1539L15.1071 26.056L15.1071 26.056L15.0092 26.1539ZM14.8633 21.1292H15.0017V20.9908H14.8633V21.1292ZM11.1372 21.1292V20.9908H10.918L11.0122 21.1887L11.1372 21.1292ZM11.439 22.4834L11.3005 22.4826L11.3005 22.483L11.439 22.4834ZM10.5122 24.7103L10.6101 24.8083L10.5122 24.7103ZM8.28387 25.6335L8.28391 25.772H8.284L8.28387 25.6335ZM6.54287 25.1093L6.46639 25.2247L6.46639 25.2247L6.54287 25.1093ZM5.38157 23.7103L5.25404 23.7642H5.25404L5.38157 23.7103ZM5.18682 21.9026L5.32291 21.9281L5.18682 21.9026ZM5.43874 21.1292L5.56375 21.1887L5.65802 20.9908H5.43874V21.1292ZM1.68781 21.1292V20.9908H1.54935V21.1292H1.68781ZM1.68781 33.5565H1.54935L1.54935 33.5572L1.68781 33.5565ZM1.91192 34.0919L2.00954 33.9937L1.91192 34.0919ZM2.44857 34.3128V34.1743H2.44838L2.44857 34.3128ZM14.8711 34.3128V34.4513H15.0096V34.3128H14.8711ZM14.8711 29.7229H15.0096V29.7078L15.0063 29.693L14.8711 29.7229ZM14.8596 29.6309L14.998 29.6266L14.8596 29.6309ZM14.8928 29.4362L14.7636 29.3863L14.8928 29.4362ZM14.999 29.2696L14.8993 29.1734H14.8993L14.999 29.2696ZM15.3551 29.1172L15.3545 28.9788H15.3544L15.3551 29.1172ZM15.3614 29.1173L15.3603 29.2557L15.3636 29.2557L15.3614 29.1173ZM15.7216 29.2631L15.8195 29.1652L15.8195 29.1652L15.7216 29.2631ZM15.7698 29.319L15.6585 29.4014L15.6669 29.4127L15.6774 29.4222L15.7698 29.319ZM16.8136 29.8324L16.8389 29.6963H16.8389L16.8136 29.8324ZM18.0444 29.6993L18.0983 29.8269H18.0983L18.0444 29.6993ZM18.9988 28.9106L18.8836 28.8337L18.9988 28.9106ZM19.3613 27.7268L19.2229 27.726L19.3613 27.7268ZM18.0672 25.7394L18.1225 25.6124H18.1225L18.0672 25.7394ZM16.838 25.5921L16.8617 25.7285L16.838 25.5921ZM15.7306 26.1458L15.6356 26.0448L15.6296 26.0512L15.7306 26.1458ZM15.1852 26.2692L15.2357 26.1402L15.1852 26.2692ZM6.87056 20.5697L6.73314 20.5867L6.73346 20.589L6.87056 20.5697ZM6.87534 20.6296L7.01378 20.627V20.627L6.87534 20.6296ZM6.72843 20.2787L6.63053 20.3766L6.63053 20.3766L6.72843 20.2787ZM1.68781 20.1328H1.54935V20.2713H1.68781V20.1328ZM1.68781 7.72426L1.54935 7.72317V7.72426H1.68781ZM1.91295 7.19142L1.81566 7.0929L1.81566 7.0929L1.91295 7.19142ZM2.44857 6.97297L2.44792 7.11143H2.44857V6.97297ZM14.8593 6.97297H14.9977V6.83451H14.8593V6.97297ZM14.8593 10.696L14.8006 10.8215L14.9977 10.9137V10.696H14.8593ZM13.3202 10.4057L13.3112 10.2675L13.3202 10.4057ZM11.8312 10.8918L11.7569 10.775L11.8312 10.8918ZM11.8312 16.2116L11.7569 16.3284L11.8312 16.2116ZM13.3202 16.6978L13.3112 16.8359L13.3202 16.6978ZM14.8593 16.4074H14.9977V16.1898L14.8006 16.282L14.8593 16.4074ZM14.8593 20.1328V20.2713H14.9977V20.1328H14.8593ZM10.2688 20.1328L10.2443 20.2691L10.2565 20.2713H10.2688V20.1328ZM10.1955 20.1252L10.1996 19.9868H10.1996L10.1955 20.1252ZM9.99915 20.1593L9.94864 20.0304L9.94864 20.0304L9.99915 20.1593ZM9.83185 20.2677L9.73485 20.1689H9.73485L9.83185 20.2677ZM9.72043 20.433L9.59246 20.3801L9.59246 20.3801L9.72043 20.433ZM9.68271 20.6287L9.82116 20.6272L9.68271 20.6287ZM9.72473 20.8235L9.59795 20.8792L9.59795 20.8792L9.72473 20.8235ZM9.83976 20.9863L9.93888 20.8894L9.93456 20.8854L9.83976 20.9863ZM10.4426 22.4809L10.3041 22.4799L10.3041 22.4807L10.4426 22.4809ZM9.80847 24.0058L9.90628 24.1038L9.80847 24.0058ZM8.28238 24.6371L8.28235 24.7756H8.28238L8.28238 24.6371ZM7.09254 24.2783L7.01602 24.3937L7.09254 24.2783ZM6.16609 22.0862L6.30218 22.1117L6.16609 22.0862ZM6.73795 20.9828L6.83728 21.0793L6.8382 21.0783L6.73795 20.9828ZM31.0242 16.2031C31.0989 16.2329 31.1786 16.2482 31.2591 16.2483L31.2594 15.9714C31.2139 15.9713 31.1689 15.9627 31.1267 15.9458L31.0242 16.2031ZM27.2678 14.7085L31.0242 16.2031L31.1266 15.9458L27.3702 14.4512L27.2678 14.7085ZM26.9806 14.4811C27.052 14.5835 27.1519 14.6625 27.2679 14.7086L27.37 14.4512C27.3045 14.4252 27.2481 14.3805 27.2077 14.3227L26.9806 14.4811ZM26.8662 14.133C26.8694 14.2578 26.9092 14.3788 26.9806 14.4811L27.2077 14.3227C27.1674 14.2648 27.1449 14.1964 27.1431 14.126L26.8662 14.133ZM26.9627 13.7795C26.8966 13.8854 26.8631 14.0083 26.8662 14.133L27.1431 14.126C27.1413 14.0555 27.1602 13.986 27.1976 13.9262L26.9627 13.7795ZM27.238 13.5377C27.1245 13.5896 27.0288 13.6737 26.9627 13.7795L27.1976 13.9262C27.2349 13.8664 27.289 13.8189 27.3531 13.7896L27.238 13.5377ZM27.9776 12.7598C27.8396 13.1042 27.5748 13.3827 27.2377 13.5379L27.3535 13.7894C27.7549 13.6047 28.0703 13.273 28.2347 12.8627L27.9776 12.7598ZM28.0792 12.2058C28.082 12.3955 28.0475 12.5838 27.9775 12.7601L28.2348 12.8623C28.3183 12.6522 28.3594 12.4277 28.356 12.2016L28.0792 12.2058ZM27.9608 11.6548C28.0361 11.8289 28.0763 12.0161 28.0792 12.2058L28.356 12.2016C28.3526 11.9756 28.3047 11.7524 28.215 11.5449L27.9608 11.6548ZM27.6404 11.1911C27.7767 11.3231 27.8855 11.4806 27.9608 11.6548L28.215 11.5449C28.1253 11.3373 27.9955 11.1495 27.8332 10.9922L27.6404 11.1911ZM27.1669 10.8854C27.3433 10.9552 27.5042 11.0591 27.6404 11.1911L27.8332 10.9922C27.6708 10.8349 27.479 10.7111 27.2688 10.6279L27.1669 10.8854ZM26.0614 10.9004C26.4133 10.7492 26.8108 10.7438 27.1667 10.8853L27.269 10.628C26.845 10.4593 26.3714 10.4658 25.9521 10.646L26.0614 10.9004ZM25.2898 11.6919C25.432 11.3363 25.7095 11.0516 26.0614 10.9004L25.9521 10.646C25.5328 10.8262 25.2022 11.1653 25.0327 11.5891L25.2898 11.6919ZM25.1853 12.2255C25.1847 12.0429 25.22 11.862 25.2894 11.693L25.0332 11.5879C24.95 11.7905 24.9076 12.0075 24.9084 12.2265L25.1853 12.2255ZM25.293 12.7573C25.2225 12.5888 25.1859 12.4081 25.1853 12.2255L24.9084 12.2265C24.9091 12.4455 24.953 12.6622 25.0375 12.8642L25.293 12.7573ZM25.3329 13.1232C25.356 12.9997 25.342 12.872 25.2926 12.7564L25.0379 12.8651C25.0658 12.9304 25.0737 13.0026 25.0607 13.0724L25.3329 13.1232ZM25.1629 13.4509C25.2507 13.3608 25.3098 13.2468 25.3329 13.1232L25.0607 13.0724C25.0477 13.1423 25.0142 13.2067 24.9646 13.2575L25.1629 13.4509ZM24.8397 13.6291C24.9627 13.6029 25.0751 13.5409 25.1629 13.4509L24.9646 13.2575C24.915 13.3084 24.8515 13.3434 24.782 13.3582L24.8397 13.6291ZM24.4719 13.598C24.5888 13.6445 24.7167 13.6553 24.8397 13.6291L24.782 13.3582C24.7125 13.373 24.6402 13.3669 24.5742 13.3407L24.4719 13.598ZM20.701 12.0994L24.4719 13.598L24.5742 13.3407L20.8033 11.8421L20.701 12.0994ZM20.4923 11.9644C20.5524 12.0227 20.6233 12.0686 20.7011 12.0995L20.8032 11.8421C20.7593 11.8246 20.7192 11.7987 20.6853 11.7657L20.4923 11.9644ZM20.3512 11.7596C20.3843 11.8364 20.4323 11.906 20.4923 11.9644L20.6853 11.7657C20.6513 11.7328 20.6243 11.6935 20.6055 11.65L20.3512 11.7596ZM20.2993 11.5164C20.3005 11.6001 20.3181 11.6827 20.3512 11.7596L20.6055 11.65C20.5868 11.6066 20.5769 11.5599 20.5762 11.5126L20.2993 11.5164ZM20.3446 11.2718C20.3136 11.3496 20.2982 11.4327 20.2993 11.5164L20.5762 11.5126C20.5756 11.4653 20.5843 11.4183 20.6018 11.3744L20.3446 11.2718ZM21.5063 8.35L20.3445 11.272L20.6019 11.3743L21.7637 8.45231L21.5063 8.35ZM20.637 8.3449C20.9543 8.47165 21.2926 8.5377 21.6342 8.53962L21.6358 8.2627C21.3288 8.26098 21.0249 8.20163 20.7398 8.08774L20.637 8.3449ZM19.6615 7.67587C19.9336 7.96775 20.2666 8.19613 20.6368 8.34481L20.74 8.08783C20.4075 7.9543 20.1084 7.74919 19.8641 7.48706L19.6615 7.67587ZM19.0627 6.65601C19.185 7.0358 19.3895 7.384 19.6615 7.67587L19.8641 7.48706C19.6198 7.22493 19.4361 6.91221 19.3263 6.57112L19.0627 6.65601ZM18.9538 5.47838C18.9032 5.87416 18.9404 6.27623 19.0627 6.65602L19.3263 6.57112C19.2164 6.23003 19.183 5.86894 19.2285 5.51349L18.9538 5.47838ZM19.3554 4.36599C19.1415 4.70281 19.0044 5.0826 18.9538 5.47838L19.2285 5.51349C19.2739 5.15803 19.397 4.81694 19.5891 4.51444L19.3554 4.36599ZM20.1914 3.5295C19.8547 3.74358 19.5693 4.02917 19.3554 4.36599L19.5891 4.51444C19.7812 4.21194 20.0376 3.95546 20.34 3.7632L20.1914 3.5295ZM21.3036 3.12734C20.9078 3.17812 20.5281 3.31543 20.1914 3.5295L20.34 3.7632C20.6424 3.57094 20.9834 3.44762 21.3388 3.40201L21.3036 3.12734ZM22.4813 3.23565C22.1014 3.11353 21.6994 3.07655 21.3036 3.12734L21.3388 3.40201C21.6943 3.3564 22.0554 3.38961 22.3965 3.49929L22.4813 3.23565ZM23.5015 3.83394C23.2094 3.56204 22.8611 3.35777 22.4813 3.23565L22.3965 3.49929C22.7377 3.60896 23.0505 3.79241 23.3127 4.03661L23.5015 3.83394ZM24.4433 0.95812L23.2785 3.88406L23.5357 3.98648L24.7005 1.06054L24.4433 0.95812ZM24.5785 0.749539C24.5201 0.80951 24.4742 0.880396 24.4432 0.958144L24.7005 1.06052C24.718 1.01659 24.744 0.976539 24.777 0.942651L24.5785 0.749539ZM24.7833 0.608631C24.7064 0.641685 24.6368 0.689567 24.5785 0.749539L24.777 0.942651C24.8099 0.908764 24.8493 0.881708 24.8927 0.863032L24.7833 0.608631ZM25.0265 0.556905C24.9428 0.558001 24.8602 0.575578 24.7833 0.608631L24.8927 0.863032C24.9361 0.844355 24.9828 0.834424 25.0301 0.833805L25.0265 0.556905ZM25.2709 0.602249C25.1932 0.571219 25.1101 0.55581 25.0265 0.556905L25.0301 0.833805C25.0774 0.833186 25.1243 0.841892 25.1682 0.859426L25.2709 0.602249ZM34.6827 4.34317L25.2707 0.602167L25.1684 0.859507L34.5804 4.60051L34.6827 4.34317ZM35.5693 5.2054C35.3996 4.81202 35.0808 4.50198 34.6829 4.34323L34.5803 4.60044C34.9101 4.73203 35.1744 4.98903 35.3151 5.31511L35.5693 5.2054ZM35.5884 6.44182C35.7459 6.04341 35.7391 5.59878 35.5693 5.2054L35.3151 5.31511C35.4558 5.64119 35.4614 6.00974 35.3308 6.34L35.5884 6.44182ZM31.8518 15.8436L35.5883 6.44205L35.3309 6.33977L31.5944 15.7413L31.8518 15.8436ZM31.6184 16.1371C31.7241 16.0647 31.8056 15.9621 31.8521 15.8427L31.5941 15.7422C31.5678 15.8097 31.5218 15.8676 31.462 15.9085L31.6184 16.1371ZM31.2594 16.2483C31.3875 16.2482 31.5126 16.2094 31.6184 16.1371L31.462 15.9085C31.4023 15.9494 31.3316 15.9713 31.2592 15.9714L31.2594 16.2483ZM31.0309 14.8353L28.5703 13.8578L28.468 14.1152L30.9287 15.0927L31.0309 14.8353ZM34.4038 5.97409L30.8511 14.9128L31.1084 15.0151L34.6611 6.07637L34.4038 5.97409ZM34.3975 5.71269C34.4336 5.79634 34.4356 5.89076 34.4031 5.97586L34.6618 6.0746C34.72 5.92212 34.7164 5.75294 34.6518 5.60306L34.3975 5.71269ZM34.21 5.52793C34.2942 5.56275 34.3614 5.62904 34.3975 5.71269L34.6518 5.60306C34.5872 5.45319 34.4667 5.33442 34.3158 5.27204L34.21 5.52793ZM25.263 1.96949L34.2118 5.52865L34.3141 5.27133L25.3654 1.71217L25.263 1.96949ZM24.1336 5.19248L25.4429 1.89189L25.1855 1.78978L23.8762 5.09037L24.1336 5.19248ZM23.9054 5.48049C24.0081 5.409 24.0875 5.3088 24.1337 5.19243L23.8762 5.09041C23.8502 5.15616 23.8053 5.21277 23.7472 5.25317L23.9054 5.48049ZM23.556 5.59438C23.6811 5.59159 23.8026 5.55198 23.9054 5.48049L23.7472 5.25317C23.6892 5.29356 23.6205 5.31595 23.5498 5.31752L23.556 5.59438ZM23.2018 5.49615C23.3076 5.56299 23.4308 5.59716 23.556 5.59438L23.5498 5.31752C23.4791 5.31909 23.4095 5.29979 23.3497 5.26202L23.2018 5.49615ZM22.9609 5.21854C23.0122 5.33274 23.096 5.4293 23.2018 5.49615L23.3497 5.26202C23.2899 5.22425 23.2425 5.16968 23.2136 5.10516L22.9609 5.21854ZM22.4131 4.59442C22.6531 4.7445 22.8437 4.96181 22.9613 5.21934L23.2132 5.10435C23.0731 4.79745 22.8459 4.53847 22.5599 4.35962L22.4131 4.59442ZM21.6112 4.3752C21.8942 4.36811 22.173 4.44434 22.4131 4.59442L22.5599 4.35962C22.2738 4.18076 21.9415 4.08991 21.6043 4.09836L21.6112 4.3752ZM20.8213 4.63429C21.0535 4.47238 21.3282 4.38228 21.6112 4.3752L21.6043 4.09836C21.267 4.10681 20.9397 4.21418 20.6629 4.40713L20.8213 4.63429ZM20.3051 5.28587C20.4096 5.02278 20.5891 4.7962 20.8213 4.63429L20.6629 4.40713C20.3862 4.60008 20.1723 4.8701 20.0477 5.18363L20.3051 5.28587ZM20.2335 6.11408C20.1757 5.83696 20.2006 5.54896 20.3051 5.28587L20.0477 5.18363C19.9232 5.49717 19.8935 5.84039 19.9624 6.17064L20.2335 6.11408ZM20.6303 6.84457C20.4293 6.64522 20.2913 6.3912 20.2335 6.11408L19.9624 6.17064C20.0313 6.5009 20.1958 6.80362 20.4353 7.04119L20.6303 6.84457ZM21.364 7.23533C21.0864 7.1798 20.8313 7.04391 20.6303 6.84457L20.4353 7.04119C20.6748 7.27875 20.9789 7.44069 21.3097 7.50687L21.364 7.23533ZM22.1916 7.15693C21.9294 7.2636 21.6416 7.29087 21.364 7.23533L21.3097 7.50687C21.6405 7.57306 21.9835 7.54057 22.296 7.41344L22.1916 7.15693ZM22.5564 7.1212C22.4338 7.09705 22.3067 7.10955 22.1911 7.15715L22.2965 7.41322C22.3618 7.38633 22.4336 7.37926 22.5029 7.39291L22.5564 7.1212ZM22.8809 7.29293C22.7919 7.20507 22.6791 7.14534 22.5564 7.1212L22.5029 7.39291C22.5722 7.40655 22.636 7.4403 22.6863 7.48994L22.8809 7.29293ZM23.0566 7.61524C23.0309 7.49288 22.9698 7.38078 22.8809 7.29293L22.6863 7.48994C22.7365 7.53958 22.7711 7.60292 22.7855 7.67206L23.0566 7.61524ZM23.0251 7.98099C23.0713 7.86481 23.0822 7.7376 23.0566 7.61524L22.7855 7.67206C22.8 7.7412 22.7939 7.81308 22.7678 7.87872L23.0251 7.98099ZM21.7118 11.2787L23.0251 7.98109L22.7678 7.87863L21.4545 11.1762L21.7118 11.2787ZM24.1014 12.0798L21.6343 11.0988L21.532 11.3561L23.9991 12.3371L24.1014 12.0798ZM24.2325 10.937C24.0237 11.3282 23.9136 11.7644 23.9118 12.2079L24.1887 12.209C24.1903 11.8107 24.2892 11.4188 24.4768 11.0674L24.2325 10.937ZM25.1099 9.96327C24.7425 10.2115 24.4413 10.5458 24.2325 10.937L24.4768 11.0674C24.6644 10.716 24.9349 10.4157 25.265 10.1927L25.1099 9.96327ZM26.3407 9.51251C25.8999 9.56028 25.4773 9.71501 25.1099 9.96327L25.265 10.1927C25.595 9.96973 25.9745 9.83073 26.3705 9.78782L26.3407 9.51251ZM27.6395 9.68919C27.2274 9.5254 26.7816 9.46474 26.3407 9.51251L26.3705 9.78782C26.7665 9.74491 27.167 9.7994 27.5372 9.94653L27.6395 9.68919ZM28.7051 10.4524C28.4173 10.115 28.0515 9.85299 27.6395 9.68919L27.5372 9.94653C27.9073 10.0937 28.2359 10.329 28.4944 10.6321L28.7051 10.4524ZM29.2905 11.6251C29.1938 11.1923 28.9928 10.7897 28.7051 10.4524L28.4944 10.6321C28.7529 10.9351 28.9334 11.2967 29.0203 11.6855L29.2905 11.6251ZM29.26 12.9354C29.3768 12.5077 29.3872 12.0578 29.2905 11.6251L29.0203 11.6855C29.1072 12.0742 29.0978 12.4783 28.9929 12.8625L29.26 12.9354ZM28.6207 14.0797C28.9238 13.756 29.1433 13.3632 29.26 12.9354L28.9929 12.8625C28.888 13.2468 28.6909 13.5996 28.4186 13.8904L28.6207 14.0797ZM28.6505 14.0304L28.651 14.0289L28.3883 13.9411L28.3878 13.9426L28.6505 14.0304ZM29.5258 20.2704C29.5348 20.2704 29.5438 20.2708 29.5527 20.2714L29.5734 19.9953C29.5576 19.9941 29.5417 19.9935 29.5258 19.9935V20.2704ZM25.3056 20.2704H29.5258V19.9935H25.3056V20.2704ZM25.4599 18.5985C25.4923 19.1057 25.3961 19.613 25.1802 20.0732L25.4309 20.1908C25.6666 19.6884 25.7716 19.1346 25.7363 18.5808L25.4599 18.5985ZM24.995 17.1713C25.2676 17.6003 25.4275 18.0912 25.4599 18.5985L25.7363 18.5808C25.7009 18.027 25.5263 17.4911 25.2287 17.0227L24.995 17.1713ZM23.9003 16.1442C24.3458 16.389 24.7223 16.7422 24.995 17.1713L25.2287 17.0227C24.9311 16.5544 24.52 16.1687 24.0336 15.9015L23.9003 16.1442ZM22.4464 15.7712C22.9547 15.7712 23.4548 15.8995 23.9003 16.1442L24.0336 15.9015C23.5473 15.6343 23.0013 15.4943 22.4464 15.4943V15.7712ZM20.9925 16.1442C21.438 15.8995 21.9381 15.7712 22.4464 15.7712V15.4943C21.8915 15.4943 21.3455 15.6343 20.8591 15.9015L20.9925 16.1442ZM19.8978 17.1713C20.1705 16.7422 20.547 16.389 20.9925 16.1442L20.8591 15.9015C20.3728 16.1687 19.9617 16.5544 19.6641 17.0227L19.8978 17.1713ZM19.4329 18.5985C19.4653 18.0912 19.6252 17.6003 19.8978 17.1713L19.6641 17.0227C19.3665 17.4911 19.1919 18.027 19.1565 18.5808L19.4329 18.5985ZM19.7126 20.0732C19.4967 19.613 19.4005 19.1057 19.4329 18.5985L19.1565 18.5808C19.1212 19.1346 19.2262 19.6884 19.4619 20.1908L19.7126 20.0732ZM15.8557 20.2704H19.5872V19.9935H15.8557V20.2704ZM15.7172 15.4698V20.132H15.9941V15.4698H15.7172ZM15.6577 15.2696C15.6968 15.3288 15.7175 15.3983 15.7172 15.4693L15.9941 15.4703C15.9946 15.3448 15.958 15.2218 15.8887 15.117L15.6577 15.2696ZM15.4974 15.1365C15.5628 15.1641 15.6186 15.2104 15.6577 15.2696L15.8887 15.117C15.8195 15.0122 15.7209 14.9302 15.6052 14.8814L15.4974 15.1365ZM15.2903 15.1145C15.36 15.1012 15.4321 15.1089 15.4974 15.1365L15.6052 14.8814C15.4895 14.8325 15.3619 14.819 15.2386 14.8424L15.2903 15.1145ZM15.1057 15.211C15.1563 15.1613 15.2206 15.1277 15.2903 15.1145L15.2386 14.8424C15.1152 14.8659 15.0015 14.9253 14.9118 15.0132L15.1057 15.211ZM13.5133 15.8484C14.1066 15.852 14.6777 15.6235 15.1048 15.2118L14.9126 15.0124C14.5376 15.374 14.036 15.5746 13.515 15.5715L13.5133 15.8484ZM11.8915 15.1763C12.3219 15.6066 12.9055 15.8484 13.5141 15.8484V15.5715C12.979 15.5715 12.4658 15.3589 12.0874 14.9805L11.8915 15.1763ZM11.2195 13.5537C11.2195 14.1623 11.4612 14.746 11.8915 15.1763L12.0874 14.9805C11.709 14.6021 11.4964 14.0889 11.4964 13.5537H11.2195ZM11.8915 11.9311C11.4612 12.3615 11.2195 12.9451 11.2195 13.5537H11.4964C11.4964 13.0186 11.709 12.5054 12.0874 12.127L11.8915 11.9311ZM13.5141 11.259C12.9055 11.259 12.3219 11.5008 11.8915 11.9311L12.0874 12.127C12.4658 11.7485 12.979 11.536 13.5141 11.536V11.259ZM15.105 11.8983C14.6783 11.4856 14.1071 11.2561 13.5135 11.259L13.5148 11.536C14.0361 11.5334 14.5378 11.7349 14.9125 12.0974L15.105 11.8983ZM15.2903 11.9955C15.2206 11.9822 15.1563 11.9486 15.1057 11.899L14.9118 12.0967C15.0015 12.1846 15.1152 12.2441 15.2386 12.2675L15.2903 11.9955ZM15.4974 11.9734C15.4321 12.0011 15.36 12.0087 15.2903 11.9955L15.2386 12.2675C15.3619 12.291 15.4895 12.2774 15.6052 12.2285L15.4974 11.9734ZM15.6577 11.8403C15.6186 11.8995 15.5628 11.9458 15.4974 11.9734L15.6052 12.2285C15.7209 12.1797 15.8195 12.0977 15.8887 11.9929L15.6577 11.8403ZM15.7172 11.6407C15.7175 11.7116 15.6968 11.7811 15.6577 11.8403L15.8887 11.9929C15.958 11.8881 15.9946 11.7652 15.9941 11.6396L15.7172 11.6407ZM15.7172 6.47477V11.6401H15.9941V6.47477H15.7172ZM15.6119 6.22039C15.6793 6.28786 15.7172 6.37936 15.7172 6.47477H15.9941C15.9941 6.30591 15.9271 6.14397 15.8077 6.02458L15.6119 6.22039ZM15.3575 6.11503C15.4529 6.11503 15.5444 6.15293 15.6119 6.22039L15.8077 6.02458C15.6883 5.90518 15.5263 5.8381 15.3575 5.8381V6.11503ZM2.44857 6.11503H15.3575V5.8381H2.44857V6.11503ZM1.30632 6.58532C1.60973 6.28354 2.02044 6.11441 2.44837 6.11503L2.44876 5.8381C1.94751 5.83739 1.46643 6.03549 1.11104 6.38897L1.30632 6.58532ZM0.829867 7.72481C0.831567 7.29688 1.00291 6.88709 1.30632 6.58532L1.11104 6.38897C0.75564 6.74246 0.554938 7.22246 0.552946 7.72371L0.829867 7.72481ZM0.829868 33.5565V7.72426H0.552945V33.5565H0.829868ZM1.30529 34.6982C1.00182 34.3956 0.83084 33.9848 0.829867 33.5562L0.552945 33.5568C0.554084 34.0588 0.754324 34.5398 1.10972 34.8943L1.30529 34.6982ZM2.44853 35.1707C2.01991 35.1709 1.60875 35.0009 1.30529 34.6982L1.10972 34.8943C1.46512 35.2488 1.94664 35.4478 2.4486 35.4477L2.44853 35.1707ZM28.2764 35.1707H2.44857V35.4477H28.2764V35.1707ZM29.4147 34.6966C29.1129 34.9993 28.7034 35.1698 28.276 35.1707L28.2767 35.4477C28.7774 35.4465 29.2572 35.2467 29.6108 34.8922L29.4147 34.6966ZM29.8856 33.5566C29.8858 33.984 29.7165 34.394 29.4147 34.6966L29.6108 34.8922C29.9644 34.5376 30.1628 34.0572 30.1625 33.5565L29.8856 33.5566ZM29.8856 20.7469V33.5565H30.1625V20.7469H29.8856ZM29.8993 20.631C29.8993 20.6594 29.8959 20.6875 29.8894 20.7147L30.1587 20.7791C30.1702 20.731 30.1762 20.6813 30.1762 20.631H29.8993ZM29.7939 20.3766C29.8614 20.4441 29.8993 20.5356 29.8993 20.631H30.1762C30.1762 20.4622 30.1091 20.3002 29.9897 20.1808L29.7939 20.3766ZM29.5565 20.2717C29.6457 20.2759 29.7304 20.3132 29.7939 20.3766L29.9897 20.1808C29.8774 20.0685 29.7275 20.0025 29.5696 19.9951L29.5565 20.2717ZM29.0276 20.9874H24.4293V21.2644H29.0276V20.9874ZM29.1661 33.5565V21.1259H28.8892V33.5565H29.1661ZM28.9066 34.1876C29.0732 34.0198 29.1666 33.7927 29.1661 33.5563L28.8892 33.5568C28.8895 33.72 28.8251 33.8766 28.7101 33.9924L28.9066 34.1876ZM28.277 34.4513C28.5135 34.4502 28.7399 34.3553 28.9066 34.1876L28.7101 33.9924C28.5951 34.1082 28.4389 34.1736 28.2757 34.1743L28.277 34.4513ZM15.8675 34.4513H28.2764V34.1743H15.8675V34.4513ZM15.729 30.5705V34.3128H16.006V30.5705H15.729ZM17.2132 30.7343C16.7642 30.7344 16.3253 30.634 15.9267 30.4453L15.8083 30.6956C16.2435 30.9017 16.7229 31.0113 17.2133 31.0112L17.2132 30.7343ZM18.6283 30.3801C18.1926 30.6122 17.7067 30.7338 17.2132 30.7343L17.2134 31.0112C17.7523 31.0106 18.2828 30.8779 18.7585 30.6245L18.6283 30.3801ZM19.7118 29.4034C19.436 29.8127 19.0639 30.1481 18.6283 30.3801L18.7585 30.6245C19.2341 30.3712 19.6403 30.005 19.9414 29.5581L19.7118 29.4034ZM20.2103 28.0324C20.1588 28.5233 19.9876 28.9941 19.7118 29.4034L19.9414 29.5581C20.2426 29.1113 20.4295 28.5973 20.4857 28.0613L20.2103 28.0324ZM20.0072 26.5879C20.1921 27.0455 20.2618 27.5416 20.2103 28.0324L20.4857 28.0613C20.542 27.5254 20.4658 26.9838 20.264 26.4842L20.0072 26.5879ZM19.1501 25.4075C19.5281 25.7249 19.8224 26.1302 20.0072 26.5879L20.264 26.4842C20.0622 25.9845 19.7409 25.542 19.3282 25.1954L19.1501 25.4075ZM17.8393 24.7673C18.322 24.8703 18.7721 25.0901 19.1501 25.4075L19.3282 25.1954C18.9155 24.8489 18.4241 24.6089 17.8971 24.4965L17.8393 24.7673ZM16.3814 24.817C16.856 24.6814 17.3566 24.6644 17.8393 24.7673L17.8971 24.4965C17.37 24.3841 16.8235 24.4027 16.3053 24.5508L16.3814 24.817ZM15.919 24.9912C16.0676 24.9209 16.2222 24.8625 16.3814 24.817L16.3053 24.5508C16.1315 24.6004 15.9627 24.6641 15.8004 24.741L15.919 24.9912ZM15.7212 21.1244V24.8661H15.9982V21.1244H15.7212ZM20.5343 20.9859H15.8597V21.2629H20.5343V20.9859ZM20.7326 20.9253C20.6737 20.9646 20.6046 20.9857 20.5339 20.9859L20.5347 21.2629C20.6599 21.2625 20.7823 21.2252 20.8864 21.1556L20.7326 20.9253ZM20.8646 20.765C20.8373 20.8303 20.7914 20.886 20.7326 20.9253L20.8864 21.1556C20.9905 21.0861 21.0718 20.9874 21.1201 20.8719L20.8646 20.765ZM20.886 20.5584C20.8994 20.6279 20.8919 20.6997 20.8646 20.765L21.1201 20.8719C21.1684 20.7563 21.1816 20.6291 21.158 20.5062L20.886 20.5584ZM20.7896 20.3744C20.8392 20.4249 20.8727 20.4889 20.886 20.5584L21.158 20.5062C21.1344 20.3832 21.075 20.2699 20.9874 20.1805L20.7896 20.3744ZM20.1522 18.7946C20.147 19.3849 20.3762 19.9531 20.7897 20.3744L20.9873 20.1805C20.6253 19.8115 20.4245 19.3139 20.4291 18.797L20.1522 18.7946ZM20.421 17.7213C20.2451 18.052 20.1528 18.4209 20.1522 18.7956L20.4291 18.796C20.4296 18.4665 20.5108 18.1422 20.6655 17.8513L20.421 17.7213ZM21.1617 16.8979C20.8513 17.1078 20.597 17.3905 20.421 17.7213L20.6655 17.8513C20.8203 17.5604 21.0439 17.3119 21.3168 17.1274L21.1617 16.8979ZM22.2018 16.5174C21.8292 16.5574 21.4722 16.6881 21.1617 16.8979L21.3168 17.1274C21.5898 16.9428 21.9038 16.828 22.2314 16.7928L22.2018 16.5174ZM23.2989 16.6683C22.951 16.5292 22.5743 16.4774 22.2018 16.5174L22.2314 16.7928C22.559 16.7576 22.8902 16.8031 23.1961 16.9255L23.2989 16.6683ZM24.1976 17.3155C23.9554 17.0297 23.6468 16.8075 23.2989 16.6683L23.1961 16.9255C23.502 17.0478 23.7733 17.2432 23.9863 17.4946L24.1976 17.3155ZM24.6885 18.3083C24.6084 17.9422 24.4398 17.6014 24.1976 17.3155L23.9863 17.4946C24.1993 17.7459 24.3475 18.0456 24.418 18.3675L24.6885 18.3083ZM24.6573 19.4153C24.7579 19.0544 24.7686 18.6743 24.6885 18.3083L24.418 18.3675C24.4884 18.6893 24.479 19.0235 24.3905 19.3409L24.6573 19.4153ZM24.1306 20.358C24.3786 20.0903 24.5592 19.7671 24.6573 19.4153L24.3905 19.3409C24.3043 19.6503 24.1454 19.9344 23.9274 20.1699L24.1306 20.358ZM24.0556 20.4488C24.0738 20.4179 24.0964 20.39 24.1226 20.366L23.9354 20.1619C23.8891 20.2044 23.8491 20.2537 23.8169 20.3083L24.0556 20.4488ZM24.0059 20.6336C24.0055 20.5686 24.0226 20.5048 24.0556 20.4488L23.8169 20.3083C23.7586 20.4074 23.7282 20.5204 23.729 20.6354L24.0059 20.6336ZM24.112 20.8866C24.0446 20.8196 24.0065 20.7287 24.0059 20.6337L23.729 20.6353C23.73 20.8035 23.7975 20.9645 23.9168 21.083L24.112 20.8866ZM24.3656 20.9912C24.2706 20.9912 24.1794 20.9536 24.112 20.8866L23.9168 21.083C24.0361 21.2016 24.1974 21.2682 24.3656 21.2682L24.3656 20.9912ZM24.4022 20.9895C24.3902 20.9907 24.3781 20.9913 24.366 20.9912L24.3652 21.2682C24.3869 21.2682 24.4085 21.2672 24.4299 21.265L24.4022 20.9895ZM24.4151 20.9882L24.4019 20.9895L24.4302 21.265L24.4434 21.2636L24.4151 20.9882ZM15.1621 26.1011C15.1425 26.088 15.1241 26.0729 15.1071 26.056L14.9113 26.2518C14.9413 26.2818 14.9739 26.3084 15.0087 26.3316L15.1621 26.1011ZM15.1071 26.056C15.0397 25.9885 15.0017 25.897 15.0017 25.8016H14.7248C14.7248 25.9705 14.7919 26.1324 14.9113 26.2518L15.1071 26.056ZM15.0017 25.8016V21.1292H14.7248V25.8016H15.0017ZM14.8633 20.9908H11.1372V21.2677H14.8633V20.9908ZM11.0122 21.1887C11.2027 21.5891 11.3031 22.0309 11.3005 22.4826L11.5774 22.4842C11.5802 21.9904 11.4705 21.5074 11.2623 21.0697L11.0122 21.1887ZM11.3005 22.483C11.2985 23.2821 10.9799 24.0478 10.4144 24.6123L10.6101 24.8083C11.2274 24.192 11.5752 23.3561 11.5774 22.4837L11.3005 22.483ZM10.4144 24.6123C9.84896 25.1769 9.08279 25.4943 8.28374 25.4951L8.284 25.772C9.15633 25.7712 9.99276 25.4246 10.6101 24.8083L10.4144 24.6123ZM8.28383 25.4951C7.69181 25.4952 7.11286 25.3209 6.61936 24.9939L6.46639 25.2247C7.00528 25.5818 7.63745 25.7722 8.28391 25.772L8.28383 25.4951ZM6.61936 24.9939C6.12585 24.6669 5.73967 24.2017 5.50909 23.6564L5.25404 23.7642C5.50582 24.3597 5.92751 24.8677 6.46639 25.2247L6.61936 24.9939ZM5.50909 23.6564C5.27851 23.1111 5.21375 22.51 5.32291 21.9281L5.05074 21.877C4.93154 22.5124 5.00225 23.1688 5.25404 23.7642L5.50909 23.6564ZM5.32291 21.9281C5.37116 21.6709 5.45244 21.4225 5.56375 21.1887L5.31372 21.0697C5.19218 21.325 5.10342 21.5962 5.05074 21.877L5.32291 21.9281ZM5.43874 20.9908H1.68781V21.2677H5.43874V20.9908ZM1.54935 21.1292V33.5565H1.82627V21.1292H1.54935ZM1.54935 33.5572C1.55044 33.7949 1.64572 34.0225 1.8143 34.1901L2.00954 33.9937C1.89293 33.8777 1.82703 33.7203 1.82627 33.5559L1.54935 33.5572ZM1.8143 34.1901C1.98289 34.3577 2.21103 34.4516 2.44875 34.4513L2.44838 34.1743C2.28395 34.1746 2.12615 34.1096 2.00954 33.9937L1.8143 34.1901ZM2.44857 34.4513H14.8711V34.1743H2.44857V34.4513ZM15.0096 34.3128V29.7229H14.7326V34.3128H15.0096ZM15.0063 29.693C15.0015 29.6712 14.9987 29.649 14.998 29.6266L14.7212 29.6352C14.7225 29.6749 14.7274 29.7142 14.7359 29.7527L15.0063 29.693ZM14.998 29.6266C14.9965 29.5786 15.0047 29.5308 15.0219 29.486L14.7636 29.3863C14.733 29.4656 14.7186 29.5503 14.7212 29.6352L14.998 29.6266ZM15.0219 29.486C15.0392 29.4412 15.0653 29.4003 15.0987 29.3657L14.8993 29.1734C14.8403 29.2346 14.7942 29.307 14.7636 29.3863L15.0219 29.486ZM15.0987 29.3657C15.132 29.3311 15.1719 29.3036 15.2161 29.2847L15.1072 29.0301C15.029 29.0635 14.9584 29.1123 14.8993 29.1734L15.0987 29.3657ZM15.2161 29.2847C15.2603 29.2658 15.3078 29.2559 15.3558 29.2557L15.3544 28.9788C15.2694 28.9792 15.1853 28.9966 15.1072 29.0301L15.2161 29.2847ZM15.3557 29.2557C15.3573 29.2557 15.3589 29.2557 15.3603 29.2557L15.3626 28.9788C15.3598 28.9788 15.3571 28.9788 15.3545 28.9788L15.3557 29.2557ZM15.3636 29.2557C15.3655 29.2557 15.3674 29.2556 15.3693 29.2556V28.9787C15.3659 28.9787 15.3626 28.9788 15.3592 28.9788L15.3636 29.2557ZM15.3693 29.2556C15.4647 29.2556 15.5562 29.2936 15.6237 29.361L15.8195 29.1652C15.7001 29.0458 15.5381 28.9787 15.3693 28.9787V29.2556ZM15.6237 29.361C15.6363 29.3737 15.6479 29.3872 15.6585 29.4014L15.8811 29.2367C15.8624 29.2115 15.8419 29.1876 15.8195 29.1652L15.6237 29.361ZM15.6774 29.4222C15.9902 29.7024 16.3744 29.8916 16.7883 29.9685L16.8389 29.6963C16.475 29.6287 16.1372 29.4622 15.8621 29.2159L15.6774 29.4222ZM16.7883 29.9685C17.2294 30.0505 17.6849 30.0012 18.0983 29.8269L17.9906 29.5717C17.6272 29.725 17.2267 29.7684 16.8389 29.6963L16.7883 29.9685ZM18.0983 29.8269C18.5116 29.6525 18.8648 29.3606 19.1139 28.9875L18.8836 28.8337C18.6646 29.1618 18.3541 29.4184 17.9906 29.5717L18.0983 29.8269ZM19.1139 28.9875C19.363 28.6143 19.4972 28.1763 19.4998 27.7276L19.2229 27.726C19.2206 28.1205 19.1026 28.5056 18.8836 28.8337L19.1139 28.9875ZM19.4998 27.7276C19.5024 27.279 19.3732 26.8394 19.1284 26.4634L18.8964 26.6145C19.1116 26.9451 19.2251 27.3316 19.2229 27.726L19.4998 27.7276ZM19.1284 26.4634C18.8836 26.0874 18.5338 25.7915 18.1225 25.6124L18.0119 25.8663C18.3736 26.0238 18.6811 26.284 18.8964 26.6145L19.1284 26.4634ZM18.1225 25.6124C17.7111 25.4333 17.2563 25.3788 16.8142 25.4557L16.8617 25.7285C17.2503 25.6609 17.6503 25.7088 18.0119 25.8663L18.1225 25.6124ZM16.8142 25.4557C16.3722 25.5326 15.9624 25.7374 15.6357 26.045L15.8255 26.2466C16.1128 25.9762 16.4731 25.7961 16.8617 25.7285L16.8142 25.4557ZM15.6296 26.0512C15.5804 26.1037 15.5165 26.1403 15.4463 26.1562L15.5074 26.4263C15.6317 26.3982 15.7446 26.3334 15.8317 26.2404L15.6296 26.0512ZM15.4463 26.1562C15.3761 26.1721 15.3027 26.1665 15.2357 26.1402L15.1346 26.3981C15.2533 26.4446 15.3831 26.4544 15.5074 26.4263L15.4463 26.1562ZM15.2357 26.1402C15.2102 26.1302 15.186 26.1174 15.1637 26.1021L15.0072 26.3306C15.0468 26.3577 15.0895 26.3804 15.1346 26.3981L15.2357 26.1402ZM6.73346 20.589C6.73547 20.6033 6.73663 20.6177 6.73691 20.6323L7.01378 20.627C7.01329 20.6012 7.01123 20.5756 7.00767 20.5504L6.73346 20.589ZM6.63053 20.3766C6.68746 20.4336 6.72335 20.5076 6.73316 20.5867L7.00797 20.5526C6.99061 20.4127 6.92711 20.2816 6.82634 20.1808L6.63053 20.3766ZM6.37615 20.2713C6.47156 20.2713 6.56306 20.3092 6.63053 20.3766L6.82634 20.1808C6.70694 20.0614 6.54501 19.9944 6.37615 19.9944V20.2713ZM1.68781 20.2713H6.37615V19.9944H1.68781V20.2713ZM1.54935 7.72426V20.1328H1.82627V7.72426H1.54935ZM1.81566 7.0929C1.64698 7.25947 1.55122 7.48612 1.54935 7.72317L1.82627 7.72535C1.82756 7.56158 1.89372 7.40501 2.01024 7.28993L1.81566 7.0929ZM2.44921 6.83451C2.21215 6.83341 1.98433 6.92633 1.81566 7.0929L2.01024 7.28994C2.12677 7.17486 2.28416 7.11067 2.44792 7.11143L2.44921 6.83451ZM14.8593 6.83451H2.44857V7.11143H14.8593V6.83451ZM14.9977 10.696V6.97297H14.7208V10.696H14.9977ZM13.3291 10.5438C13.8351 10.5111 14.3413 10.6066 14.8006 10.8215L14.9179 10.5706C14.4164 10.336 13.8638 10.2318 13.3112 10.2675L13.3291 10.5438ZM11.9056 11.0087C12.3334 10.7364 12.823 10.5766 13.3291 10.5438L13.3112 10.2675C12.7587 10.3032 12.2241 10.4778 11.7569 10.775L11.9056 11.0087ZM10.8814 12.1012C11.1255 11.6567 11.4777 11.2809 11.9056 11.0087L11.7569 10.775C11.2898 11.0723 10.9051 11.4825 10.6387 11.9679L10.8814 12.1012ZM10.5094 13.5517C10.5094 13.0446 10.6374 12.5457 10.8814 12.1012L10.6387 11.9679C10.3722 12.4533 10.2325 12.998 10.2325 13.5517H10.5094ZM10.8814 15.0023C10.6374 14.5577 10.5094 14.0588 10.5094 13.5517H10.2325C10.2325 14.1054 10.3722 14.6502 10.6387 15.1355L10.8814 15.0023ZM11.9056 16.0948C11.4777 15.8226 11.1255 15.4468 10.8814 15.0023L10.6387 15.1355C10.9051 15.6209 11.2898 16.0312 11.7569 16.3284L11.9056 16.0948ZM13.3291 16.5596C12.823 16.5269 12.3334 16.367 11.9056 16.0948L11.7569 16.3284C12.2241 16.6257 12.7587 16.8002 13.3112 16.8359L13.3291 16.5596ZM14.8006 16.282C14.3413 16.4968 13.8351 16.5923 13.3291 16.5596L13.3112 16.8359C13.8638 16.8717 14.4164 16.7674 14.9179 16.5328L14.8006 16.282ZM14.9977 20.1328V16.4074H14.7208V20.1328H14.9977ZM10.2688 20.2713H14.8593V19.9944H10.2688V20.2713ZM10.1915 20.2636C10.2092 20.2641 10.2269 20.266 10.2443 20.2691L10.2932 19.9965C10.2623 19.991 10.2311 19.9877 10.1996 19.9868L10.1915 20.2636ZM10.0497 20.2883C10.0948 20.2706 10.143 20.2622 10.1915 20.2636L10.1996 19.9868C10.1139 19.9843 10.0285 19.9991 9.94864 20.0304L10.0497 20.2883ZM9.92886 20.3665C9.96344 20.3325 10.0045 20.3059 10.0497 20.2882L9.94864 20.0304C9.86877 20.0617 9.79606 20.1088 9.73485 20.1689L9.92886 20.3665ZM9.8484 20.4858C9.86691 20.441 9.89427 20.4005 9.92886 20.3665L9.73485 20.1689C9.67365 20.229 9.62521 20.3008 9.59246 20.3801L9.8484 20.4858ZM9.82116 20.6272C9.82063 20.5787 9.82989 20.5306 9.8484 20.4858L9.59246 20.3801C9.55971 20.4594 9.54331 20.5444 9.54426 20.6302L9.82116 20.6272ZM9.8515 20.7679C9.83202 20.7235 9.8217 20.6756 9.82116 20.6272L9.54426 20.6302C9.5452 20.716 9.56346 20.8007 9.59795 20.8792L9.8515 20.7679ZM9.93456 20.8854C9.89924 20.8522 9.87099 20.8122 9.8515 20.7678L9.59795 20.8792C9.63244 20.9577 9.68244 21.0285 9.74495 21.0872L9.93456 20.8854ZM10.581 22.4819C10.5853 21.8872 10.3544 21.3149 9.93879 20.8895L9.74073 21.0831C10.1054 21.4562 10.3078 21.9582 10.3041 22.4799L10.581 22.4819ZM9.90628 24.1038C10.3372 23.6737 10.5799 23.0901 10.581 22.4812L10.3041 22.4807C10.3031 23.0162 10.0897 23.5295 9.71065 23.9078L9.90628 24.1038ZM8.28238 24.7756C8.89129 24.7756 9.47532 24.534 9.90628 24.1038L9.71065 23.9078C9.33161 24.2862 8.81793 24.4987 8.28238 24.4987L8.28238 24.7756ZM7.01602 24.3937C7.39143 24.6427 7.83188 24.7755 8.28235 24.7756L8.28241 24.4987C7.88637 24.4986 7.49913 24.3818 7.16907 24.1629L7.01602 24.3937ZM6.17151 23.3757C6.34687 23.7907 6.6406 24.1447 7.01602 24.3937L7.16907 24.1629C6.83901 23.944 6.58076 23.6327 6.42658 23.2679L6.17151 23.3757ZM6.03001 22.0607C5.94693 22.5034 5.99614 22.9608 6.17151 23.3757L6.42658 23.2679C6.27241 22.9031 6.22914 22.501 6.30218 22.1117L6.03001 22.0607ZM6.63863 20.8863C6.32477 21.2095 6.11308 21.6179 6.03001 22.0607L6.30218 22.1117C6.37522 21.7225 6.56133 21.3634 6.83727 21.0793L6.63863 20.8863ZM6.73691 20.6323C6.73873 20.727 6.70308 20.8187 6.6377 20.8873L6.8382 21.0783C6.9539 20.9569 7.017 20.7947 7.01378 20.627L6.73691 20.6323Z" fill="white" mask="url(#path-1-inside-1_1091_303917)"/>
<mask id="path-3-inside-2_1091_303917" fill="white">
<path d="M31.2632 16.1098C31.2002 16.1098 31.1378 16.0978 31.0793 16.0745L27.3229 14.5799C27.2321 14.5439 27.1539 14.482 27.0981 14.4019C27.0422 14.3218 27.0111 14.2271 27.0086 14.1295C27.0061 14.0319 27.0323 13.9357 27.084 13.8529C27.1358 13.7701 27.2107 13.7043 27.2995 13.6637C27.6688 13.4937 27.9589 13.1886 28.11 12.8112C28.1868 12.618 28.2246 12.4116 28.2215 12.2037C28.2184 11.9958 28.1743 11.7906 28.0918 11.5998C28.0093 11.409 27.89 11.2363 27.7407 11.0916C27.5914 10.947 27.4151 10.8331 27.2218 10.7567C26.8318 10.6015 26.3962 10.6075 26.0107 10.7732C25.6251 10.9389 25.321 11.2508 25.1652 11.6405C25.0889 11.8262 25.05 12.0252 25.0507 12.226C25.0514 12.4268 25.0917 12.6255 25.1692 12.8107C25.2078 12.9012 25.2188 13.0011 25.2007 13.0978C25.1827 13.1945 25.1364 13.2837 25.0677 13.3542C24.999 13.4246 24.911 13.4732 24.8148 13.4937C24.7185 13.5142 24.6184 13.5057 24.527 13.4694L20.7561 11.9708C20.6952 11.9466 20.6397 11.9107 20.5927 11.865C20.5457 11.8194 20.5082 11.765 20.4823 11.7048C20.4564 11.6446 20.4426 11.58 20.4417 11.5145C20.4408 11.449 20.4528 11.3839 20.4771 11.3231L21.6389 8.40116C21.3146 8.39934 20.9935 8.33664 20.6923 8.21632C20.3409 8.07522 20.0249 7.85847 19.7667 7.58147C19.5085 7.30446 19.3145 6.97401 19.1984 6.61357C19.0823 6.25313 19.047 5.87155 19.095 5.49593C19.143 5.12032 19.2732 4.75988 19.4762 4.44022C19.6792 4.12056 19.9501 3.84952 20.2696 3.64635C20.5892 3.44318 20.9495 3.31287 21.3251 3.26467C21.7007 3.21648 22.0823 3.25157 22.4428 3.36747C22.8033 3.48337 23.1339 3.67723 23.411 3.93527L24.5758 1.00933C24.6 0.948494 24.636 0.893024 24.6816 0.846095C24.7273 0.799165 24.7818 0.761697 24.8419 0.735832C24.9021 0.709966 24.9667 0.696212 25.0322 0.695355C25.0977 0.694498 25.1627 0.706555 25.2235 0.730837L34.6355 4.47184C34.9994 4.61701 35.2909 4.90053 35.4461 5.26025C35.6013 5.61998 35.6076 6.02658 35.4635 6.39091L31.727 15.7925C31.6906 15.8859 31.6269 15.9662 31.5441 16.0228C31.4613 16.0794 31.3634 16.1098 31.2632 16.1098ZM28.5231 13.9865L30.9837 14.964L34.5364 6.02523C34.5817 5.90644 34.5789 5.77464 34.5286 5.65788C34.4782 5.54111 34.3843 5.44859 34.2668 5.39999L25.3181 1.84083L24.0088 5.14142C23.9728 5.23248 23.9106 5.31089 23.8302 5.36683C23.7498 5.42277 23.6547 5.45377 23.5568 5.45595C23.4589 5.45813 23.3625 5.43139 23.2796 5.37908C23.1968 5.32677 23.1313 5.25121 23.0912 5.16185C22.9623 4.87963 22.7534 4.64149 22.4904 4.47702C22.2273 4.31255 21.9218 4.22901 21.6116 4.23678C21.3015 4.24455 21.0005 4.34328 20.746 4.52071C20.4915 4.69814 20.2948 4.94644 20.1803 5.23475C20.0658 5.52306 20.0385 5.83868 20.1019 6.14236C20.1652 6.44605 20.3164 6.72442 20.5367 6.94288C20.757 7.16133 21.0366 7.31024 21.3408 7.3711C21.645 7.43196 21.9603 7.40208 22.2477 7.28518C22.3382 7.24794 22.4376 7.23816 22.5336 7.25705C22.6296 7.27595 22.7179 7.32268 22.7875 7.39143C22.8571 7.46018 22.9049 7.5479 22.925 7.64365C22.945 7.7394 22.9365 7.83894 22.9003 7.92986L21.5871 11.2275L24.0542 12.2084C24.0559 11.7875 24.1604 11.3735 24.3585 11.0022C24.5567 10.6309 24.8426 10.3136 25.1914 10.078C25.5401 9.84237 25.9411 9.6955 26.3595 9.65016C26.778 9.60483 27.2011 9.6624 27.5922 9.81786C27.9833 9.97333 28.3305 10.222 28.6036 10.5422C28.8768 10.8624 29.0675 11.2445 29.1593 11.6553C29.2511 12.066 29.2412 12.493 29.1304 12.899C29.0196 13.305 28.8113 13.6778 28.5236 13.985L28.5231 13.9865Z"/>
</mask>
<path d="M31.2632 16.1098C31.2002 16.1098 31.1378 16.0978 31.0793 16.0745L27.3229 14.5799C27.2321 14.5439 27.1539 14.482 27.0981 14.4019C27.0422 14.3218 27.0111 14.2271 27.0086 14.1295C27.0061 14.0319 27.0323 13.9357 27.084 13.8529C27.1358 13.7701 27.2107 13.7043 27.2995 13.6637C27.6688 13.4937 27.9589 13.1886 28.11 12.8112C28.1868 12.618 28.2246 12.4116 28.2215 12.2037C28.2184 11.9958 28.1743 11.7906 28.0918 11.5998C28.0093 11.409 27.89 11.2363 27.7407 11.0916C27.5914 10.947 27.4151 10.8331 27.2218 10.7567C26.8318 10.6015 26.3962 10.6075 26.0107 10.7732C25.6251 10.9389 25.321 11.2508 25.1652 11.6405C25.0889 11.8262 25.05 12.0252 25.0507 12.226C25.0514 12.4268 25.0917 12.6255 25.1692 12.8107C25.2078 12.9012 25.2188 13.0011 25.2007 13.0978C25.1827 13.1945 25.1364 13.2837 25.0677 13.3542C24.999 13.4246 24.911 13.4732 24.8148 13.4937C24.7185 13.5142 24.6184 13.5057 24.527 13.4694L20.7561 11.9708C20.6952 11.9466 20.6397 11.9107 20.5927 11.865C20.5457 11.8194 20.5082 11.765 20.4823 11.7048C20.4564 11.6446 20.4426 11.58 20.4417 11.5145C20.4408 11.449 20.4528 11.3839 20.4771 11.3231L21.6389 8.40116C21.3146 8.39934 20.9935 8.33664 20.6923 8.21632C20.3409 8.07522 20.0249 7.85847 19.7667 7.58147C19.5085 7.30446 19.3145 6.97401 19.1984 6.61357C19.0823 6.25313 19.047 5.87155 19.095 5.49593C19.143 5.12032 19.2732 4.75988 19.4762 4.44022C19.6792 4.12056 19.9501 3.84952 20.2696 3.64635C20.5892 3.44318 20.9495 3.31287 21.3251 3.26467C21.7007 3.21648 22.0823 3.25157 22.4428 3.36747C22.8033 3.48337 23.1339 3.67723 23.411 3.93527L24.5758 1.00933C24.6 0.948494 24.636 0.893024 24.6816 0.846095C24.7273 0.799165 24.7818 0.761697 24.8419 0.735832C24.9021 0.709966 24.9667 0.696212 25.0322 0.695355C25.0977 0.694498 25.1627 0.706555 25.2235 0.730837L34.6355 4.47184C34.9994 4.61701 35.2909 4.90053 35.4461 5.26025C35.6013 5.61998 35.6076 6.02658 35.4635 6.39091L31.727 15.7925C31.6906 15.8859 31.6269 15.9662 31.5441 16.0228C31.4613 16.0794 31.3634 16.1098 31.2632 16.1098ZM28.5231 13.9865L30.9837 14.964L34.5364 6.02523C34.5817 5.90644 34.5789 5.77464 34.5286 5.65788C34.4782 5.54111 34.3843 5.44859 34.2668 5.39999L25.3181 1.84083L24.0088 5.14142C23.9728 5.23248 23.9106 5.31089 23.8302 5.36683C23.7498 5.42277 23.6547 5.45377 23.5568 5.45595C23.4589 5.45813 23.3625 5.43139 23.2796 5.37908C23.1968 5.32677 23.1313 5.25121 23.0912 5.16185C22.9623 4.87963 22.7534 4.64149 22.4904 4.47702C22.2273 4.31255 21.9218 4.22901 21.6116 4.23678C21.3015 4.24455 21.0005 4.34328 20.746 4.52071C20.4915 4.69814 20.2948 4.94644 20.1803 5.23475C20.0658 5.52306 20.0385 5.83868 20.1019 6.14236C20.1652 6.44605 20.3164 6.72442 20.5367 6.94288C20.757 7.16133 21.0366 7.31024 21.3408 7.3711C21.645 7.43196 21.9603 7.40208 22.2477 7.28518C22.3382 7.24794 22.4376 7.23816 22.5336 7.25705C22.6296 7.27595 22.7179 7.32268 22.7875 7.39143C22.8571 7.46018 22.9049 7.5479 22.925 7.64365C22.945 7.7394 22.9365 7.83894 22.9003 7.92986L21.5871 11.2275L24.0542 12.2084C24.0559 11.7875 24.1604 11.3735 24.3585 11.0022C24.5567 10.6309 24.8426 10.3136 25.1914 10.078C25.5401 9.84237 25.9411 9.6955 26.3595 9.65016C26.778 9.60483 27.2011 9.6624 27.5922 9.81786C27.9833 9.97333 28.3305 10.222 28.6036 10.5422C28.8768 10.8624 29.0675 11.2445 29.1593 11.6553C29.2511 12.066 29.2412 12.493 29.1304 12.899C29.0196 13.305 28.8113 13.6778 28.5236 13.985L28.5231 13.9865Z" fill="#E6B400"/>
<path d="M31.2632 16.1098L31.263 16.2483H31.2633L31.2632 16.1098ZM31.0793 16.0745L31.1306 15.9458L31.1305 15.9458L31.0793 16.0745ZM27.3229 14.5799L27.3741 14.4512L27.3739 14.4512L27.3229 14.5799ZM27.2995 13.6637L27.357 13.7896L27.3574 13.7894L27.2995 13.6637ZM28.11 12.8112L28.2386 12.8627L28.2387 12.8623L28.11 12.8112ZM27.2218 10.7567L27.1706 10.8853L27.1708 10.8854L27.2218 10.7567ZM25.1652 11.6405L25.2933 11.693L25.2937 11.6919L25.1652 11.6405ZM25.1692 12.8107L25.0414 12.8642L25.0418 12.8651L25.1692 12.8107ZM24.527 13.4694L24.5781 13.3407L24.5781 13.3407L24.527 13.4694ZM20.7561 11.9708L20.8072 11.8421L20.8072 11.8421L20.7561 11.9708ZM20.4771 11.3231L20.6057 11.3744L20.6058 11.3743L20.4771 11.3231ZM21.6389 8.40116L21.7676 8.45231L21.8425 8.26383L21.6397 8.2627L21.6389 8.40116ZM20.6923 8.21632L20.6407 8.34481L20.641 8.3449L20.6923 8.21632ZM23.411 3.93527L23.3167 4.03661L23.4648 4.17454L23.5396 3.98648L23.411 3.93527ZM24.5758 1.00933L24.7044 1.06054L24.7045 1.06052L24.5758 1.00933ZM25.2235 0.730837L25.1721 0.859426L25.1723 0.859507L25.2235 0.730837ZM34.6355 4.47184L34.6868 4.34323L34.6866 4.34317L34.6355 4.47184ZM35.4635 6.39091L35.5922 6.44205L35.5923 6.44183L35.4635 6.39091ZM31.727 15.7925L31.5983 15.7413L31.598 15.7422L31.727 15.7925ZM28.5231 13.9865L28.3917 13.9427L28.3503 14.0669L28.4719 14.1152L28.5231 13.9865ZM30.9837 14.964L30.9326 15.0927L31.0612 15.1438L31.1123 15.0151L30.9837 14.964ZM34.5364 6.02523L34.665 6.07638L34.6657 6.0746L34.5364 6.02523ZM34.2668 5.39999L34.3198 5.27203L34.318 5.27133L34.2668 5.39999ZM25.3181 1.84083L25.3693 1.71217L25.2405 1.66095L25.1894 1.78978L25.3181 1.84083ZM24.0088 5.14142L23.8801 5.09037L23.8801 5.09041L24.0088 5.14142ZM23.0912 5.16185L23.2175 5.10516L23.2171 5.10435L23.0912 5.16185ZM22.2477 7.28518L22.2999 7.41344L22.3004 7.41322L22.2477 7.28518ZM22.9003 7.92986L23.029 7.98109L23.029 7.98099L22.9003 7.92986ZM21.5871 11.2275L21.4585 11.1762L21.4072 11.3049L21.5359 11.3561L21.5871 11.2275ZM24.0542 12.2084L24.003 12.3371L24.1918 12.4122L24.1926 12.209L24.0542 12.2084ZM28.5236 13.985L28.4225 13.8904L28.4018 13.9125L28.3922 13.9412L28.5236 13.985ZM31.2633 15.9714C31.2179 15.9713 31.1728 15.9627 31.1306 15.9458L31.0281 16.2031C31.1028 16.2329 31.1826 16.2482 31.263 16.2483L31.2633 15.9714ZM31.1305 15.9458L27.3741 14.4512L27.2717 14.7085L31.0281 16.2031L31.1305 15.9458ZM27.3739 14.4512C27.3084 14.4252 27.252 14.3805 27.2116 14.3227L26.9845 14.4811C27.0559 14.5835 27.1558 14.6625 27.2718 14.7086L27.3739 14.4512ZM27.2116 14.3227C27.1713 14.2648 27.1488 14.1964 27.147 14.126L26.8702 14.133C26.8733 14.2578 26.9131 14.3788 26.9845 14.4811L27.2116 14.3227ZM27.147 14.126C27.1452 14.0555 27.1641 13.986 27.2015 13.9262L26.9666 13.7795C26.9005 13.8854 26.867 14.0083 26.8702 14.133L27.147 14.126ZM27.2015 13.9262C27.2388 13.8664 27.2929 13.8189 27.357 13.7896L27.2419 13.5377C27.1284 13.5896 27.0327 13.6737 26.9666 13.7795L27.2015 13.9262ZM27.3574 13.7894C27.7588 13.6047 28.0742 13.273 28.2386 12.8627L27.9815 12.7598C27.8435 13.1042 27.5787 13.3827 27.2416 13.5379L27.3574 13.7894ZM28.2387 12.8623C28.3222 12.6522 28.3634 12.4277 28.36 12.2016L28.0831 12.2058C28.0859 12.3955 28.0514 12.5838 27.9814 12.7601L28.2387 12.8623ZM28.36 12.2016C28.3565 11.9756 28.3086 11.7524 28.2189 11.5449L27.9647 11.6548C28.04 11.8289 28.0802 12.0161 28.0831 12.2058L28.36 12.2016ZM28.2189 11.5449C28.1292 11.3373 27.9994 11.1495 27.8371 10.9922L27.6443 11.1911C27.7806 11.3231 27.8894 11.4806 27.9647 11.6548L28.2189 11.5449ZM27.8371 10.9922C27.6747 10.8349 27.4829 10.7111 27.2727 10.6279L27.1708 10.8854C27.3472 10.9552 27.5081 11.0591 27.6443 11.1911L27.8371 10.9922ZM27.2729 10.628C26.8489 10.4593 26.3753 10.4658 25.956 10.646L26.0653 10.9004C26.4172 10.7492 26.8147 10.7438 27.1706 10.8853L27.2729 10.628ZM25.956 10.646C25.5367 10.8262 25.2061 11.1653 25.0366 11.5891L25.2937 11.6919C25.436 11.3363 25.7135 11.0516 26.0653 10.9004L25.956 10.646ZM25.0371 11.5879C24.9539 11.7905 24.9115 12.0075 24.9123 12.2265L25.1892 12.2255C25.1886 12.0429 25.2239 11.862 25.2933 11.693L25.0371 11.5879ZM24.9123 12.2265C24.913 12.4455 24.9569 12.6622 25.0414 12.8642L25.2969 12.7573C25.2264 12.5888 25.1898 12.4081 25.1892 12.2255L24.9123 12.2265ZM25.0418 12.8651C25.0697 12.9304 25.0777 13.0026 25.0646 13.0724L25.3368 13.1232C25.3599 12.9997 25.3459 12.872 25.2965 12.7564L25.0418 12.8651ZM25.0646 13.0724C25.0516 13.1423 25.0181 13.2067 24.9686 13.2575L25.1668 13.4509C25.2546 13.3608 25.3138 13.2468 25.3368 13.1232L25.0646 13.0724ZM24.9686 13.2575C24.919 13.3084 24.8554 13.3434 24.7859 13.3582L24.8436 13.6291C24.9666 13.6029 25.0791 13.5409 25.1668 13.4509L24.9686 13.2575ZM24.7859 13.3582C24.7164 13.373 24.6441 13.3669 24.5781 13.3407L24.4758 13.598C24.5927 13.6445 24.7207 13.6553 24.8436 13.6291L24.7859 13.3582ZM24.5781 13.3407L20.8072 11.8421L20.705 12.0994L24.4758 13.598L24.5781 13.3407ZM20.8072 11.8421C20.7632 11.8246 20.7231 11.7987 20.6892 11.7657L20.4962 11.9644C20.5563 12.0227 20.6272 12.0686 20.705 12.0995L20.8072 11.8421ZM20.6892 11.7657C20.6553 11.7328 20.6282 11.6935 20.6095 11.65L20.3551 11.7596C20.3882 11.8365 20.4362 11.906 20.4962 11.9644L20.6892 11.7657ZM20.6095 11.65C20.5907 11.6066 20.5808 11.5599 20.5801 11.5126L20.3032 11.5164C20.3044 11.6001 20.322 11.6827 20.3551 11.7596L20.6095 11.65ZM20.5801 11.5126C20.5795 11.4653 20.5882 11.4183 20.6057 11.3744L20.3485 11.2718C20.3175 11.3496 20.3021 11.4327 20.3032 11.5164L20.5801 11.5126ZM20.6058 11.3743L21.7676 8.45231L21.5102 8.35L20.3484 11.272L20.6058 11.3743ZM21.6397 8.2627C21.3327 8.26098 21.0288 8.20163 20.7437 8.08774L20.641 8.3449C20.9582 8.47165 21.2965 8.5377 21.6381 8.53962L21.6397 8.2627ZM20.7439 8.08783C20.4114 7.9543 20.1123 7.74919 19.868 7.48706L19.6654 7.67587C19.9375 7.96775 20.2705 8.19613 20.6407 8.34481L20.7439 8.08783ZM19.868 7.48706C19.6237 7.22493 19.4401 6.91221 19.3302 6.57112L19.0666 6.65602C19.1889 7.0358 19.3934 7.384 19.6654 7.67587L19.868 7.48706ZM19.3302 6.57112C19.2203 6.23003 19.1869 5.86894 19.2324 5.51349L18.9577 5.47838C18.9071 5.87416 18.9443 6.27623 19.0666 6.65602L19.3302 6.57112ZM19.2324 5.51349C19.2778 5.15803 19.4009 4.81694 19.593 4.51444L19.3593 4.36599C19.1454 4.70281 19.0083 5.0826 18.9577 5.47838L19.2324 5.51349ZM19.593 4.51444C19.7851 4.21194 20.0415 3.95546 20.3439 3.7632L20.1953 3.5295C19.8586 3.74358 19.5732 4.02917 19.3593 4.36599L19.593 4.51444ZM20.3439 3.7632C20.6463 3.57094 20.9873 3.44762 21.3427 3.40201L21.3075 3.12734C20.9117 3.17812 20.532 3.31543 20.1953 3.5295L20.3439 3.7632ZM21.3427 3.40201C21.6982 3.3564 22.0593 3.38961 22.4004 3.49929L22.4852 3.23565C22.1053 3.11353 21.7033 3.07655 21.3075 3.12734L21.3427 3.40201ZM22.4004 3.49929C22.7416 3.60896 23.0544 3.79241 23.3167 4.03661L23.5054 3.83394C23.2133 3.56204 22.865 3.35777 22.4852 3.23565L22.4004 3.49929ZM23.5396 3.98648L24.7044 1.06054L24.4472 0.95812L23.2824 3.88406L23.5396 3.98648ZM24.7045 1.06052C24.7219 1.01659 24.7479 0.976538 24.7809 0.942651L24.5824 0.749539C24.524 0.809511 24.4781 0.880397 24.4472 0.958144L24.7045 1.06052ZM24.7809 0.942651C24.8138 0.908763 24.8532 0.881708 24.8966 0.863032L24.7872 0.608631C24.7103 0.641685 24.6407 0.689567 24.5824 0.749539L24.7809 0.942651ZM24.8966 0.863032C24.94 0.844355 24.9867 0.834424 25.034 0.833805L25.0304 0.556905C24.9467 0.558001 24.8641 0.575578 24.7872 0.608631L24.8966 0.863032ZM25.034 0.833805C25.0813 0.833186 25.1282 0.841892 25.1721 0.859426L25.2748 0.602249C25.1971 0.571218 25.114 0.55581 25.0304 0.556905L25.034 0.833805ZM25.1723 0.859507L34.5844 4.60051L34.6866 4.34317L25.2746 0.602167L25.1723 0.859507ZM34.5842 4.60044C34.914 4.73203 35.1783 4.98903 35.319 5.31511L35.5732 5.2054C35.4035 4.81202 35.0847 4.50198 34.6868 4.34323L34.5842 4.60044ZM35.319 5.31511C35.4597 5.64119 35.4653 6.00974 35.3347 6.34L35.5923 6.44183C35.7498 6.04341 35.743 5.59878 35.5732 5.2054L35.319 5.31511ZM35.3348 6.33977L31.5983 15.7413L31.8557 15.8436L35.5922 6.44205L35.3348 6.33977ZM31.598 15.7422C31.5717 15.8097 31.5257 15.8676 31.4659 15.9085L31.6223 16.1371C31.728 16.0647 31.8095 15.9621 31.856 15.8427L31.598 15.7422ZM31.4659 15.9085C31.4062 15.9494 31.3355 15.9713 31.2631 15.9714L31.2633 16.2483C31.3914 16.2482 31.5165 16.2094 31.6223 16.1371L31.4659 15.9085ZM28.4719 14.1152L30.9326 15.0927L31.0348 14.8353L28.5742 13.8578L28.4719 14.1152ZM31.1123 15.0151L34.665 6.07637L34.4077 5.97409L30.855 14.9128L31.1123 15.0151ZM34.6657 6.0746C34.7239 5.92211 34.7203 5.75294 34.6557 5.60306L34.4014 5.71269C34.4375 5.79634 34.4395 5.89076 34.407 5.97586L34.6657 6.0746ZM34.6557 5.60306C34.5911 5.45319 34.4706 5.33442 34.3198 5.27204L34.2139 5.52793C34.2981 5.56275 34.3653 5.62904 34.4014 5.71269L34.6557 5.60306ZM34.318 5.27133L25.3693 1.71217L25.267 1.96949L34.2157 5.52865L34.318 5.27133ZM25.1894 1.78978L23.8801 5.09037L24.1376 5.19247L25.4468 1.89189L25.1894 1.78978ZM23.8801 5.09041C23.8541 5.15616 23.8092 5.21277 23.7511 5.25317L23.9093 5.48049C24.0121 5.409 24.0915 5.3088 24.1376 5.19243L23.8801 5.09041ZM23.7511 5.25317C23.6931 5.29356 23.6244 5.31595 23.5537 5.31752L23.5599 5.59438C23.685 5.59159 23.8065 5.55198 23.9093 5.48049L23.7511 5.25317ZM23.5537 5.31752C23.483 5.31909 23.4134 5.29979 23.3536 5.26202L23.2057 5.49615C23.3115 5.56299 23.4347 5.59716 23.5599 5.59438L23.5537 5.31752ZM23.3536 5.26202C23.2938 5.22425 23.2464 5.16969 23.2175 5.10516L22.9648 5.21854C23.0161 5.33274 23.0999 5.4293 23.2057 5.49615L23.3536 5.26202ZM23.2171 5.10435C23.077 4.79745 22.8498 4.53847 22.5638 4.35962L22.417 4.59442C22.657 4.7445 22.8477 4.96181 22.9652 5.21934L23.2171 5.10435ZM22.5638 4.35962C22.2777 4.18076 21.9454 4.08991 21.6082 4.09836L21.6151 4.3752C21.8981 4.36811 22.177 4.44434 22.417 4.59442L22.5638 4.35962ZM21.6082 4.09836C21.2709 4.10681 20.9436 4.21418 20.6668 4.40713L20.8252 4.63429C21.0574 4.47238 21.3321 4.38228 21.6151 4.3752L21.6082 4.09836ZM20.6668 4.40713C20.3901 4.60008 20.1762 4.8701 20.0516 5.18363L20.309 5.28587C20.4135 5.02278 20.593 4.7962 20.8252 4.63429L20.6668 4.40713ZM20.0516 5.18363C19.9271 5.49717 19.8974 5.84039 19.9663 6.17064L20.2374 6.11408C20.1796 5.83696 20.2045 5.54896 20.309 5.28587L20.0516 5.18363ZM19.9663 6.17064C20.0352 6.5009 20.1997 6.80362 20.4392 7.04119L20.6342 6.84457C20.4332 6.64522 20.2952 6.3912 20.2374 6.11408L19.9663 6.17064ZM20.4392 7.04119C20.6787 7.27875 20.9828 7.44069 21.3136 7.50687L21.3679 7.23533C21.0903 7.1798 20.8352 7.04391 20.6342 6.84457L20.4392 7.04119ZM21.3136 7.50687C21.6444 7.57306 21.9874 7.54057 22.2999 7.41344L22.1955 7.15693C21.9333 7.2636 21.6455 7.29087 21.3679 7.23533L21.3136 7.50687ZM22.3004 7.41322C22.3657 7.38633 22.4375 7.37926 22.5068 7.39291L22.5603 7.1212C22.4377 7.09705 22.3106 7.10955 22.195 7.15715L22.3004 7.41322ZM22.5068 7.39291C22.5762 7.40655 22.6399 7.4403 22.6902 7.48994L22.8848 7.29293C22.7958 7.20507 22.683 7.14534 22.5603 7.1212L22.5068 7.39291ZM22.6902 7.48994C22.7404 7.53958 22.775 7.60292 22.7895 7.67206L23.0605 7.61524C23.0348 7.49288 22.9737 7.38078 22.8848 7.29293L22.6902 7.48994ZM22.7895 7.67206C22.8039 7.7412 22.7978 7.81308 22.7717 7.87872L23.029 7.98099C23.0752 7.86481 23.0861 7.7376 23.0605 7.61524L22.7895 7.67206ZM22.7717 7.87863L21.4585 11.1762L21.7157 11.2787L23.029 7.98109L22.7717 7.87863ZM21.5359 11.3561L24.003 12.3371L24.1053 12.0798L21.6382 11.0988L21.5359 11.3561ZM24.1926 12.209C24.1942 11.8107 24.2931 11.4188 24.4807 11.0674L24.2364 10.937C24.0276 11.3282 23.9175 11.7644 23.9157 12.2079L24.1926 12.209ZM24.4807 11.0674C24.6683 10.716 24.9388 10.4157 25.2689 10.1927L25.1138 9.96327C24.7464 10.2115 24.4452 10.5458 24.2364 10.937L24.4807 11.0674ZM25.2689 10.1927C25.5989 9.96973 25.9784 9.83073 26.3744 9.78782L26.3446 9.51251C25.9038 9.56028 25.4813 9.71501 25.1138 9.96327L25.2689 10.1927ZM26.3744 9.78782C26.7704 9.74491 27.1709 9.7994 27.5411 9.94653L27.6434 9.68919C27.2313 9.5254 26.7855 9.46474 26.3446 9.51251L26.3744 9.78782ZM27.5411 9.94653C27.9112 10.0937 28.2398 10.329 28.4983 10.6321L28.709 10.4524C28.4212 10.115 28.0554 9.85299 27.6434 9.68919L27.5411 9.94653ZM28.4983 10.6321C28.7568 10.9351 28.9373 11.2967 29.0242 11.6855L29.2944 11.6251C29.1977 11.1923 28.9967 10.7897 28.709 10.4524L28.4983 10.6321ZM29.0242 11.6855C29.1111 12.0742 29.1017 12.4783 28.9968 12.8625L29.264 12.9354C29.3807 12.5077 29.3912 12.0578 29.2944 11.6251L29.0242 11.6855ZM28.9968 12.8625C28.8919 13.2468 28.6948 13.5996 28.4225 13.8904L28.6246 14.0797C28.9277 13.756 29.1472 13.3632 29.264 12.9354L28.9968 12.8625ZM28.3922 13.9412L28.3917 13.9427L28.6544 14.0303L28.6549 14.0288L28.3922 13.9412Z" fill="white" mask="url(#path-3-inside-2_1091_303917)"/>
</g>
<defs>
<clipPath id="clip0_1091_303917">
<rect width="36" height="36" fill="white"/>
</clipPath>
</defs>
</svg>
