<svg width="73" height="72" viewBox="0 0 73 72" fill="none" xmlns="http://www.w3.org/2000/svg">
<g clip-path="url(#clip0_1760_76143)">
<path d="M43.5344 45.3732C44.4255 45.3732 45.259 45.0219 45.8813 44.384L51.4094 38.7163C52.6711 37.4225 52.6449 35.3435 51.351 34.0817C50.0571 32.8201 47.9777 32.8463 46.716 34.1399L43.4731 37.4646L42.9049 36.9122C41.6092 35.6527 39.5299 35.6816 38.2698 36.9771C37.0101 38.2727 37.0392 40.3517 38.3349 41.6116L41.2495 44.4455C41.8647 45.0437 42.6763 45.3732 43.5344 45.3732ZM39.7855 38.4506C40.2332 37.9902 40.9719 37.9806 41.4316 38.4277L42.7562 39.7157C43.1741 40.1222 43.8424 40.1131 44.2496 39.6959L48.2293 35.6158C48.6776 35.1561 49.416 35.1472 49.8753 35.5949C50.3349 36.0431 50.344 36.7814 49.8961 37.2408L44.368 42.9084C43.9408 43.3653 43.1626 43.375 42.7231 42.9304L39.8085 40.0965C39.3485 39.649 39.338 38.9106 39.7855 38.4506Z" fill="#E6B400"/>
<path d="M35.3568 46.0863C35.0052 45.6204 34.3428 45.5276 33.8764 45.8792C33.4104 46.2308 33.3179 46.8934 33.6693 47.3593C34.0542 47.8693 34.48 48.3584 34.9345 48.8129C37.5331 51.4112 40.9881 52.8421 44.6631 52.8421C48.338 52.8421 51.7929 51.4112 54.3915 48.8129C56.9903 46.2147 58.4213 42.7601 58.4213 39.0857C58.4213 35.4112 56.9901 31.9568 54.3915 29.3586C49.0271 23.995 40.2989 23.9951 34.9345 29.3586C31.2773 33.0152 29.9831 38.3496 31.5571 43.2799C31.7346 43.8359 32.3297 44.1425 32.8853 43.9653C33.4413 43.7878 33.7483 43.1931 33.5707 42.6372C32.2383 38.4638 33.3336 33.9483 36.4294 30.8531C40.9693 26.3136 48.3569 26.3136 52.8968 30.8531C55.0962 33.0522 56.3075 35.976 56.3075 39.0859C56.3075 42.1958 55.0962 45.1195 52.8968 47.3186C50.6976 49.5176 47.7734 50.7288 44.6631 50.7288C41.5529 50.7288 38.6286 49.5177 36.4292 47.3186C36.0436 46.9328 35.6828 46.5183 35.3568 46.0863Z" fill="#E6B400"/>
<path d="M71.0461 58.3975L64.3783 51.7306C63.9655 51.318 63.2964 51.3179 62.8835 51.7306L62.8427 51.7714L60.2767 49.2058C62.0016 46.5466 63.0293 43.4741 63.2315 40.2674C63.2682 39.6849 62.8257 39.183 62.2432 39.1462C61.6612 39.1108 61.1589 39.552 61.1219 40.1344C60.8695 44.1378 59.1664 47.9066 56.3263 50.7462C53.1167 53.9556 48.9017 55.5621 44.6855 55.5661C44.6802 55.566 44.675 55.5653 44.6695 55.5653H44.5855C40.3921 55.5442 36.2051 53.9383 33.0126 50.7462C29.8989 47.6331 28.1841 43.4938 28.1841 39.0909C28.1841 34.6881 29.8989 30.5488 33.0126 27.4357C39.4402 21.0088 49.8988 21.0088 56.3263 27.4357C58.7203 29.8294 60.3001 32.8487 60.8951 36.1676C60.9981 36.7421 61.5477 37.1237 62.1219 37.0214C62.6965 36.9184 63.0787 36.3693 62.9757 35.7947C62.3041 32.0489 60.5217 28.6415 57.821 25.9411C56.4828 24.603 54.9894 23.5128 53.3985 22.6686V14.1515C53.3976 13.8734 53.2853 13.6011 53.089 13.4042L39.9926 0.309516C39.7955 0.113484 39.5234 0.000703125 39.245 0H3.67081C1.92256 0 0.500141 1.42214 0.500141 3.17025V12.0525C0.500141 12.6361 0.973203 13.1093 1.55708 13.1093C2.14081 13.1093 2.61402 12.6363 2.61402 12.0525V3.17025C2.61402 2.5875 3.08806 2.11345 3.67095 2.11345H38.1885V12.0381C38.1885 13.7862 39.6109 15.2083 41.3592 15.2083H51.285V21.7115C49.2229 20.9302 47.0488 20.5289 44.8713 20.5054C44.8609 20.504 44.8507 20.5019 44.8399 20.5019H21.243C20.6593 20.5019 20.1861 20.9751 20.1861 21.5587C20.1861 22.1423 20.6593 22.6155 21.243 22.6155H36.0404C34.5328 23.4038 33.1116 24.4129 31.8246 25.6424H21.243C20.6593 25.6424 20.1861 26.1156 20.1861 26.6992C20.1861 27.2828 20.6593 27.756 21.243 27.756H29.9224C28.1972 29.9907 27.0182 32.5644 26.4539 35.3118H21.2432C20.6594 35.3118 20.1862 35.785 20.1862 36.3686C20.1862 36.9522 20.6594 37.4254 21.2432 37.4254H26.1452C26.0966 37.9762 26.0708 38.5317 26.0708 39.0912C26.0708 39.5502 26.0876 40.0067 26.1203 40.4599H21.2433C20.6596 40.4599 20.1864 40.9331 20.1864 41.5167C20.1864 42.1003 20.6596 42.5735 21.2433 42.5735H26.3958C26.9348 45.434 28.1366 48.1143 29.9256 50.4302H21.2433C20.6596 50.4302 20.1864 50.9033 20.1864 51.487C20.1864 52.0708 20.6596 52.5438 21.2433 52.5438H31.8289C33.114 53.7711 34.5329 54.7785 36.0379 55.5659H21.2428C20.659 55.5659 20.1858 56.0391 20.1858 56.6227C20.1858 57.2062 20.659 57.6795 21.2428 57.6795H44.6695C46.9141 57.6792 49.1589 57.276 51.2848 56.4706V68.8303C51.2848 69.4129 50.8107 69.8871 50.2278 69.8871H3.67081C3.08806 69.8871 2.61388 69.4131 2.61388 68.8303V16.2802C2.61388 15.6966 2.14067 15.2234 1.55694 15.2234C0.973203 15.2234 0.5 15.6964 0.5 16.2802V68.8303C0.500141 70.5779 1.92256 72 3.67081 72H50.228C51.9762 72 53.3986 70.5779 53.3986 68.8298V55.513C53.8703 55.2627 54.3332 54.9904 54.7862 54.6968L57.3516 57.2618C56.9076 57.6494 56.8839 58.3879 57.3107 58.7971L63.9785 65.4642C65.8386 67.4027 69.186 67.4025 71.0459 65.4642C72.9849 63.6043 72.9847 60.2572 71.0461 58.3975ZM41.359 13.0949C40.7763 13.0949 40.3021 12.6208 40.3021 12.0381V3.60802L49.7902 13.0949H41.359ZM56.5102 53.4316C56.9612 53.0588 57.3991 52.6625 57.821 52.2408C58.2403 51.8214 58.6372 51.3837 59.0118 50.9302L61.3479 53.2658L58.8462 55.7671L56.5102 53.4316ZM69.5514 63.9696C68.4781 65.0883 66.5466 65.088 65.4733 63.9696L59.5527 58.0499L63.6309 53.9722L69.5515 59.8919C70.6701 60.9653 70.6702 62.8964 69.5514 63.9696Z" fill="white"/>
<path d="M10.0887 28.8037H14.7124C16.016 28.8037 17.0766 27.7434 17.0766 26.4401V21.8169C17.0766 20.5134 16.0161 19.4531 14.7124 19.4531H10.0887C8.7852 19.4531 7.72461 20.5134 7.72461 21.8169V26.4401C7.72461 27.7434 8.7852 28.8037 10.0887 28.8037ZM9.83848 21.8169C9.83848 21.6789 9.95084 21.5667 10.0887 21.5667H14.7124C14.8505 21.5667 14.9627 21.6789 14.9627 21.8169V26.4401C14.9627 26.578 14.8504 26.6903 14.7124 26.6903H10.0887C9.9507 26.6903 9.83848 26.578 9.83848 26.4401V21.8169Z" fill="#E6B400"/>
<path d="M7.72461 41.2524C7.72461 42.5558 8.78506 43.6161 10.0887 43.6161H14.7124C16.016 43.6161 17.0766 42.5558 17.0766 41.2524V36.6292C17.0766 35.3259 16.0161 34.2656 14.7124 34.2656H10.0887C8.7852 34.2656 7.72461 35.3259 7.72461 36.6292V41.2524ZM9.83848 36.6292C9.83848 36.4913 9.95084 36.3791 10.0887 36.3791H14.7124C14.8505 36.3791 14.9627 36.4913 14.9627 36.6292V41.2524C14.9627 41.3904 14.8504 41.5026 14.7124 41.5026H10.0887C9.9507 41.5026 9.83848 41.3904 9.83848 41.2524V36.6292Z" fill="white"/>
<path d="M7.72461 56.3698C7.72461 57.6731 8.78506 58.7334 10.0887 58.7334H14.7124C16.016 58.7334 17.0766 57.6731 17.0766 56.3698V51.7466C17.0766 50.4431 16.0161 49.3828 14.7124 49.3828H10.0887C8.7852 49.3828 7.72461 50.4431 7.72461 51.7466V56.3698ZM9.83848 51.7466C9.83848 51.6086 9.95084 51.4964 10.0887 51.4964H14.7124C14.8505 51.4964 14.9627 51.6086 14.9627 51.7466V56.3698C14.9627 56.5077 14.8504 56.6199 14.7124 56.6199H10.0887C9.9507 56.6199 9.83848 56.5077 9.83848 56.3698V51.7466Z" fill="#E6B400"/>
</g>
<defs>
<clipPath id="clip0_1760_76143">
<rect width="72" height="72" fill="white" transform="translate(0.5)"/>
</clipPath>
</defs>
</svg>
