<svg width="73" height="72" viewBox="0 0 73 72" fill="none" xmlns="http://www.w3.org/2000/svg">
<path d="M54.2945 68.7841H18.7051C17.5421 68.7841 16.5957 67.8377 16.5957 66.6748V65.2798C16.5957 63.3476 18.1679 61.7754 20.1001 61.7754H52.8995C54.8316 61.7754 56.4038 63.3476 56.4038 65.2798V66.6748C56.4038 67.8377 55.4574 68.7841 54.2945 68.7841ZM20.1001 63.1802C18.9427 63.1802 18.002 64.121 18.002 65.2784V66.6734C18.002 67.0615 18.317 67.3765 18.7051 67.3765H54.2945C54.6826 67.3765 54.9976 67.0615 54.9976 66.6734V65.2784C54.9976 64.121 54.0554 63.1802 52.8995 63.1802H20.1001Z" fill="white"/>
<path d="M50.0865 63.1748C47.7085 63.1748 45.7707 61.9866 44.4854 59.7408C43.224 57.5372 42.5855 54.3563 42.5855 50.2866H43.9918C43.9918 54.5756 44.7835 61.77 50.0865 61.77V63.1748ZM22.9121 63.1748V61.7686C28.2151 61.7686 29.0068 54.5742 29.0068 50.2852H30.413C30.413 54.3563 29.7732 57.5372 28.5132 59.7394C27.2279 61.988 25.2901 63.1748 22.9121 63.1748Z" fill="white"/>
<path d="M66.0312 50.9925H6.96875C4.25469 50.9925 2.04688 48.7847 2.04688 46.0706V8.13281C2.04688 5.41875 4.25469 3.21094 6.96875 3.21094H66.0312C68.7453 3.21094 70.9531 5.41875 70.9531 8.13281V46.0706C70.9531 48.7847 68.7453 50.9925 66.0312 50.9925ZM6.96875 4.61719C5.02953 4.61719 3.45312 6.19359 3.45312 8.13281V46.0706C3.45312 48.0099 5.02953 49.5863 6.96875 49.5863H66.0312C67.9705 49.5863 69.5469 48.0099 69.5469 46.0706V8.13281C69.5469 6.19359 67.9705 4.61719 66.0312 4.61719H6.96875Z" fill="white"/>
<path d="M56.4046 22.3173C56.2246 22.3173 56.0446 22.2484 55.9068 22.112C55.6326 21.8378 55.6326 21.392 55.9068 21.1178L58.8023 18.2223L55.9068 15.3268C55.6326 15.0526 55.6326 14.6068 55.9068 14.3326C56.1811 14.0584 56.6268 14.0584 56.9011 14.3326L60.2943 17.7259C60.5686 18.0001 60.5686 18.4459 60.2943 18.7201L56.9011 22.1134C56.7646 22.2498 56.5846 22.3173 56.4046 22.3173Z" fill="#E6B400"/>
<path d="M45.9698 22.3187C45.7898 22.3187 45.6098 22.2498 45.472 22.1134L42.0787 18.7201C41.8045 18.4459 41.8045 18.0001 42.0787 17.7259L45.472 14.3326C45.7462 14.0584 46.192 14.0584 46.4662 14.3326C46.7404 14.6068 46.7404 15.0526 46.4662 15.3268L43.5707 18.2223L46.4662 21.1178C46.7404 21.392 46.7404 21.8378 46.4662 22.112C46.3298 22.2512 46.1498 22.3187 45.9698 22.3187Z" fill="#E6B400"/>
<path d="M49.7026 24.5037C49.6421 24.5037 49.5816 24.4952 49.5197 24.4797C49.1443 24.3799 48.9221 23.9932 49.0219 23.6191L52.0088 12.469C52.1087 12.0935 52.494 11.8713 52.8694 11.9712C53.2449 12.071 53.4671 12.4577 53.3672 12.8318L50.3804 23.9819C50.2974 24.2969 50.0133 24.5037 49.7026 24.5037Z" fill="#E6B400"/>
<path d="M62.2222 34.3945H40.168C39.7798 34.3945 39.4648 34.0795 39.4648 33.6914C39.4648 33.3033 39.7798 32.9883 40.168 32.9883H62.2222C62.6103 32.9883 62.9253 33.3033 62.9253 33.6914C62.9253 34.0795 62.6117 34.3945 62.2222 34.3945Z" fill="#E6B400"/>
<path d="M62.2222 30.3281H40.168C39.7798 30.3281 39.4648 30.0131 39.4648 29.625C39.4648 29.2369 39.7798 28.9219 40.168 28.9219H62.2222C62.6103 28.9219 62.9253 29.2369 62.9253 29.625C62.9253 30.0131 62.6117 30.3281 62.2222 30.3281Z" fill="#E6B400"/>
<path d="M62.214 38.4609H46.8535C46.4654 38.4609 46.1504 38.1459 46.1504 37.7578C46.1504 37.3697 46.4654 37.0547 46.8535 37.0547H62.214C62.6021 37.0547 62.9171 37.3697 62.9171 37.7578C62.9171 38.1459 62.6035 38.4609 62.214 38.4609Z" fill="#E6B400"/>
<path d="M21.8281 19.3711H23.2344V22.5548H21.8281V19.3711Z" fill="white"/>
<path d="M22.5235 20.0705C20.9865 20.0705 19.7363 18.8203 19.7363 17.2833C19.7363 15.7462 20.9865 14.4961 22.5235 14.4961C24.0605 14.4961 25.3107 15.7462 25.3107 17.2833C25.3107 18.8203 24.0605 20.0705 22.5235 20.0705ZM22.5235 15.9023C21.7613 15.9023 21.1426 16.5225 21.1426 17.2833C21.1426 18.0455 21.7627 18.6642 22.5235 18.6642C23.2843 18.6642 23.9045 18.0441 23.9045 17.2833C23.9045 16.5225 23.2843 15.9023 22.5235 15.9023Z" fill="white"/>
<path d="M33.1159 31.7086H31.1738V30.3023H33.1159C33.3676 30.3023 33.5729 30.097 33.5729 29.8453V26.5898C33.5729 26.3381 33.3676 26.1328 33.1159 26.1328H31.1738V24.7266H33.1159C34.1438 24.7266 34.9791 25.5619 34.9791 26.5898V29.8453C34.9791 30.8733 34.1424 31.7086 33.1159 31.7086ZM13.8854 31.7086H11.9434C10.9154 31.7086 10.0801 30.8733 10.0801 29.8453V26.5898C10.0801 25.5619 10.9154 24.7266 11.9434 24.7266H13.8854V26.1328H11.9434C11.6916 26.1328 11.4863 26.3381 11.4863 26.5898V29.8453C11.4863 30.097 11.6916 30.3023 11.9434 30.3023H13.8854V31.7086Z" fill="white"/>
<path d="M22.5198 35.9194C20.4512 35.9194 18.384 35.7197 15.324 35.3203C14.0977 35.16 13.1738 34.1067 13.1738 32.8706V24.9042C13.1738 23.6681 14.0991 22.6148 15.3254 22.4545C21.4468 21.6558 23.5984 21.6558 29.7184 22.4545C30.9446 22.6148 31.8685 23.6667 31.8685 24.9042V32.8706C31.8685 34.1067 30.9432 35.16 29.717 35.3203C26.657 35.7197 24.5884 35.9194 22.5198 35.9194ZM22.5212 23.2645C20.506 23.2645 18.4895 23.4586 15.5068 23.8481C14.9696 23.9184 14.5801 24.3614 14.5801 24.9028V32.8692C14.5801 33.4106 14.9696 33.855 15.5068 33.9239C21.4721 34.703 23.5702 34.703 29.5355 33.9239C30.0727 33.8536 30.4623 33.4106 30.4623 32.8692V24.9028C30.4623 24.3614 30.0727 23.917 29.5355 23.8481C26.5529 23.46 24.5363 23.2645 22.5212 23.2645Z" fill="white"/>
<path d="M26.9148 33.2925H18.1341C17.4212 33.2925 16.8418 32.7131 16.8418 32.0002V31.0664C16.8418 30.6783 17.1568 30.3633 17.5449 30.3633C17.933 30.3633 18.248 30.6783 18.248 31.0664V31.8863H26.8009V31.0664C26.8009 30.6783 27.1159 30.3633 27.504 30.3633C27.8921 30.3633 28.2071 30.6783 28.2071 31.0664V32.0002C28.2071 32.7131 27.6263 33.2925 26.9148 33.2925Z" fill="white"/>
<path d="M17.5487 29.0348C16.4349 29.0348 15.5293 28.1292 15.5293 27.0155C15.5293 25.9017 16.4349 24.9961 17.5487 24.9961C18.6624 24.9961 19.568 25.9017 19.568 27.0155C19.568 28.1292 18.661 29.0348 17.5487 29.0348ZM17.5487 26.4023C17.2112 26.4023 16.9355 26.678 16.9355 27.0155C16.9355 27.353 17.2112 27.6286 17.5487 27.6286C17.8862 27.6286 18.1618 27.353 18.1618 27.0155C18.1618 26.678 17.8862 26.4023 17.5487 26.4023Z" fill="#E6B400"/>
<path d="M27.5038 29.0348C26.39 29.0348 25.4844 28.1292 25.4844 27.0155C25.4844 25.9017 26.39 24.9961 27.5038 24.9961C28.6175 24.9961 29.5231 25.9017 29.5231 27.0155C29.5231 28.1292 28.6161 29.0348 27.5038 29.0348ZM27.5038 26.4023C27.1648 26.4023 26.8906 26.678 26.8906 27.0155C26.8906 27.353 27.1663 27.6286 27.5038 27.6286C27.8413 27.6286 28.1169 27.353 28.1169 27.0155C28.1169 26.678 27.8413 26.4023 27.5038 26.4023Z" fill="#E6B400"/>
</svg>
