<svg width="73" height="72" viewBox="0 0 73 72" fill="none" xmlns="http://www.w3.org/2000/svg">
<path fill-rule="evenodd" clip-rule="evenodd" d="M39.7988 32.5194C39.4692 32.1889 38.935 32.1889 38.6058 32.5194L35.7211 35.4035C35.3916 35.7327 35.3916 36.2671 35.7211 36.596L38.6058 39.4803C38.7703 39.6463 38.9864 39.7278 39.2022 39.7278C39.4179 39.7278 39.6342 39.6461 39.7988 39.4803C40.1283 39.1511 40.1283 38.6168 39.7988 38.2878L37.5111 35.9999L39.7988 33.7119C40.1283 33.3828 40.1283 32.8483 39.7988 32.5194ZM45.8163 27.9616C45.3662 27.8422 44.9035 28.1078 44.783 28.558L40.912 43.0043C40.7916 43.4544 41.0588 43.9169 41.509 44.0378C41.5818 44.0578 41.6555 44.066 41.7278 44.066C42.1002 44.066 42.4413 43.8185 42.542 43.4417L46.413 28.9952C46.5336 28.5453 46.2664 28.0825 45.8163 27.9616ZM47.5262 32.5194C47.1967 32.8483 47.1967 33.3827 47.5262 33.712L49.8139 36L47.5262 38.288C47.1967 38.6169 47.1967 39.1513 47.5262 39.4805C47.691 39.6464 47.9068 39.728 48.1228 39.728C48.3388 39.728 48.555 39.6463 48.7195 39.4805L51.6039 36.5961C51.9334 36.2672 51.9334 35.7328 51.6039 35.4036L48.7195 32.5195C48.39 32.1889 47.8557 32.1889 47.5262 32.5194ZM53.9353 35.9999C53.9353 41.6642 49.3269 46.2727 43.6625 46.2727C37.9983 46.2727 33.3897 41.6642 33.3897 35.9999C33.3897 30.3356 37.9981 25.7272 43.6625 25.7272C49.3269 25.7272 53.9353 30.3356 53.9353 35.9999ZM55.6225 35.9999C55.6225 42.5952 50.2572 47.9599 43.6625 47.9599C37.0676 47.9599 31.7023 42.5952 31.7023 35.9999C31.7023 29.4045 37.0676 24.0397 43.6625 24.0397C50.2572 24.0398 55.6225 29.4045 55.6225 35.9999ZM67.5827 35.9999C67.5827 36.8297 67.5395 37.6663 67.454 38.4875C67.3617 39.3749 66.6769 40.0527 65.7883 40.1356L62.2094 40.4675C60.9923 40.5814 59.9491 41.3521 59.487 42.4813C59.0254 43.6092 59.2279 44.8902 60.0158 45.8241L62.3326 48.5705C62.9077 49.2525 62.9207 50.2158 62.3641 50.9131C61.2883 52.2605 60.0643 53.4952 58.7254 54.5821C58.0325 55.1446 57.069 55.1389 56.3827 54.5694L53.6172 52.2744C52.6766 51.4941 51.3939 51.3013 50.2695 51.7724C49.1452 52.2435 48.3826 53.2927 48.2794 54.5105L47.9752 58.0936C47.8997 58.9823 47.2273 59.6727 46.34 59.7728C44.6369 59.9612 42.8833 59.9697 41.1744 59.7911C40.2871 59.6997 39.6095 59.0148 39.5269 58.1259L39.194 54.547C39.0808 53.3295 38.3099 52.2873 37.1821 51.8247C36.7813 51.6601 36.3615 51.58 35.9449 51.58C35.1877 51.58 34.4409 51.8456 33.8383 52.3534L31.0919 54.6695C30.41 55.2459 29.4466 55.2587 28.7495 54.7019C27.4019 53.6261 26.1675 52.4012 25.0809 51.0625C24.5182 50.3708 24.5234 49.4073 25.0935 48.7211L27.3885 45.9551C28.1691 45.0142 28.3614 43.7318 27.8904 42.6067C27.4193 41.4831 26.3701 40.7211 25.1523 40.617L21.5695 40.3131C20.6797 40.2373 19.9893 39.565 19.8905 38.6776C19.7921 37.7947 19.7422 36.8947 19.7422 36.0003C19.7422 35.1706 19.7856 34.3339 19.8709 33.5126C19.9631 32.6253 20.648 31.9475 21.5366 31.8645L25.1157 31.5326C26.3329 31.4187 27.3757 30.6481 27.8378 29.5201C28.2998 28.3909 28.0973 27.11 27.3091 26.1761L24.9924 23.4297C24.4173 22.7478 24.404 21.7844 24.9606 21.087C26.0368 19.7397 27.261 18.505 28.5992 17.4178C29.292 16.8555 30.2556 16.8609 30.9421 17.4305L33.7074 19.7256C34.648 20.5059 35.9308 20.6987 37.0551 20.2276C38.1794 19.7563 38.9423 18.7073 39.0456 17.4895L39.3495 13.9064C39.4253 13.0175 40.0974 12.327 40.985 12.2286C42.6878 12.0389 44.4417 12.0305 46.1503 12.2089C47.0379 12.3003 47.7155 12.9852 47.7981 13.8741L48.1307 17.4527C48.2439 18.6706 49.0151 19.7128 50.1432 20.1753C51.2712 20.6381 52.5524 20.4339 53.4866 19.6466L56.2328 17.3305C56.9151 16.7541 57.8781 16.7414 58.5754 17.2983C59.9232 18.3739 61.1576 19.5989 62.2443 20.9377C62.8069 21.6294 62.8014 22.5928 62.2316 23.2805L59.9366 26.0452C59.156 26.9861 58.9636 28.2686 59.4347 29.3933C59.9055 30.5172 60.9549 31.2792 62.1725 31.3834L65.7557 31.687C66.6454 31.763 67.3356 32.4352 67.4346 33.3225C67.5329 34.2056 67.5827 35.1069 67.5827 35.9999ZM42.8187 63.6017C42.8187 66.5269 40.4394 68.9063 37.5147 68.9063H10.7378C7.81297 68.9063 5.43345 66.5269 5.43345 63.6017V8.39784C5.43345 5.47298 7.81283 3.09319 10.7378 3.09319H37.5148C40.4395 3.09319 42.8189 5.47284 42.8189 8.39784V10.4074C42.1415 10.4286 41.4664 10.4764 40.7984 10.5508C39.0999 10.7393 37.8128 12.0611 37.6682 13.7641L37.3643 17.3472C37.3134 17.9449 36.9541 18.44 36.4033 18.6705C35.8525 18.9013 35.2475 18.811 34.7854 18.4274L32.0202 16.1322C30.7059 15.041 28.8617 15.0311 27.5358 16.1085C26.1038 17.2713 24.7936 18.5918 23.6421 20.0347C22.5768 21.3691 22.6015 23.2128 23.7026 24.5178L26.0194 27.2642C26.4065 27.7227 26.5026 28.3274 26.2763 28.88C26.0499 29.4327 25.5577 29.7955 24.9595 29.8519L21.3803 30.1838C19.68 30.3427 18.3688 31.6391 18.1926 33.3378C18.1011 34.2167 18.055 35.1127 18.055 36C18.055 36.9561 18.1085 37.9194 18.2136 38.8644C18.4027 40.5631 19.7239 41.85 21.4269 41.9947L25.0097 42.2985C25.6082 42.3489 26.1031 42.7075 26.3337 43.2589C26.5647 43.8102 26.4735 44.4149 26.0897 44.8774L23.7949 47.6421C22.704 48.9569 22.694 50.8006 23.7708 52.1267C24.9336 53.5596 26.2547 54.8689 27.6968 56.0206C29.0315 57.085 30.8749 57.0613 32.1799 55.9602L34.9266 53.6425C35.3854 53.256 35.9896 53.1603 36.5427 53.3867C37.095 53.613 37.4584 54.1053 37.514 54.7028L37.8465 58.2818C38.0046 59.9821 39.3016 61.2927 41 61.4697C41.6016 61.5317 42.2104 61.5727 42.8187 61.5922V63.6017ZM69.2706 35.9999C69.2706 36.8872 69.2236 37.7828 69.1324 38.662C68.9564 40.3608 67.6454 41.6572 65.9447 41.8161L62.3655 42.1478C61.7673 42.2042 61.2754 42.5671 61.0489 43.1197C60.8223 43.6722 60.9187 44.2772 61.3059 44.7356L63.6225 47.482C64.7236 48.787 64.7485 50.632 63.683 51.965C62.5321 53.4078 61.2219 54.7282 59.7894 55.8913C58.4634 56.9686 56.6195 56.9585 55.3053 55.8672L52.54 53.5722C52.0778 53.1883 51.4731 53.0983 50.9221 53.3291C50.3709 53.5596 50.0117 54.0546 49.9611 54.6521L49.6568 58.2356C49.5124 59.9386 48.2255 61.2603 46.5269 61.4489C45.8595 61.5233 45.1827 61.5698 44.5064 61.5924V63.6017C44.5064 67.4577 41.3699 70.5936 37.5147 70.5936H10.7378C6.88259 70.5936 3.74609 67.4575 3.74609 63.6017V8.39784C3.74609 4.54205 6.88259 1.40625 10.7378 1.40625H37.5148C41.37 1.40625 44.5065 4.54205 44.5065 8.39784V10.4088C45.1154 10.4288 45.7229 10.468 46.325 10.5297C48.0237 10.707 49.3204 12.0177 49.4786 13.718L49.8115 17.2967C49.8667 17.8944 50.2301 18.388 50.7828 18.6131C51.3356 18.8394 51.9397 18.7439 52.3988 18.3572L55.1452 16.0395C56.4504 14.9385 58.2938 14.9147 59.6285 15.9791C61.0707 17.1308 62.3919 18.4414 63.5545 19.873C64.6307 21.1991 64.6208 23.0425 63.5301 24.3577L61.2351 27.1223C60.8517 27.585 60.7602 28.1895 60.9913 28.7408C61.2221 29.2922 61.7171 29.6506 62.3156 29.7013L65.8984 30.0052C67.6014 30.1499 68.9225 31.4367 69.1118 33.1353C69.217 34.0805 69.2706 35.0436 69.2706 35.9999ZM28.3757 64.5356C28.3757 64.0688 27.998 63.6919 27.532 63.6919H21.7046C21.2387 63.6919 20.861 64.0686 20.861 64.5356C20.861 65.001 21.2387 65.3792 21.7046 65.3792H27.532C27.9979 65.3792 28.3757 65.001 28.3757 64.5356Z" fill="white"/>
<path fill-rule="evenodd" clip-rule="evenodd" d="M28.3637 64.5345C28.3637 64.0676 27.986 63.6908 27.52 63.6908H21.6926C21.2267 63.6908 20.849 64.0675 20.849 64.5345C20.849 64.9998 21.2267 65.3781 21.6926 65.3781H27.52C27.9859 65.3781 28.3637 64.9998 28.3637 64.5345Z" fill="#E6B400"/>
<path fill-rule="evenodd" clip-rule="evenodd" d="M55.6105 35.9987C55.6105 42.594 50.2452 47.9587 43.6505 47.9587C37.0556 47.9587 31.6903 42.594 31.6903 35.9987C31.6903 29.4034 37.0556 24.0386 43.6505 24.0386C50.2452 24.0387 55.6105 29.4034 55.6105 35.9987ZM43.6505 46.2715C49.3149 46.2715 53.9233 41.6631 53.9233 35.9987C53.9233 30.3345 49.3149 25.7261 43.6505 25.7261C37.9861 25.7261 33.3777 30.3345 33.3777 35.9987C33.3777 41.6631 37.9863 46.2715 43.6505 46.2715Z" fill="#E6B400"/>
<path fill-rule="evenodd" clip-rule="evenodd" d="M42.8069 10.4062C42.1295 10.4275 41.4544 10.4753 40.7864 10.5497C39.0879 10.7381 37.8008 12.06 37.6562 13.763L37.3523 17.3461C37.3014 17.9437 36.9421 18.4389 36.3913 18.6694C35.8405 18.9001 35.2355 18.8099 34.7734 18.4262L32.0082 16.1311C30.6939 15.0398 28.8497 15.03 27.5238 16.1073C26.0918 17.2702 24.7816 18.5906 23.6301 20.0336C22.5648 21.368 22.5895 23.2117 23.6906 24.5167L26.0074 27.2631C26.3945 27.7215 26.4906 28.3262 26.2643 28.8789C26.0379 29.4315 25.5457 29.7944 24.9475 29.8507L21.3683 30.1826C19.668 30.3415 18.3568 31.638 18.1806 33.3367C18.0891 34.2156 18.043 35.1115 18.043 35.9989C18.043 36.955 18.0965 37.9183 18.2016 38.8633C18.3907 40.562 19.7119 41.8489 21.4149 41.9936L24.9977 42.2973C25.5962 42.3478 26.0911 42.7064 26.3217 43.2578C26.5527 43.809 26.4615 44.4137 26.0777 44.8762L23.7829 47.6409C22.692 48.9558 22.682 50.7995 23.7588 52.1256C24.9216 53.5584 26.2427 54.8678 27.6848 56.0195C29.0195 57.0839 30.8629 57.0601 32.1679 55.959L34.9146 53.6414C35.3735 53.2548 35.9776 53.1592 36.5307 53.3856C37.083 53.6119 37.4464 54.1042 37.502 54.7017L37.8345 58.2806C37.9926 59.9809 39.2896 61.2915 40.988 61.4686C41.5896 61.5306 42.1984 61.5715 42.8067 61.5911L44.4944 61.5912C45.1707 61.5687 45.8475 61.5222 46.5149 61.4478C48.2135 61.2592 49.5004 59.9375 49.6448 58.2345L49.9491 54.6509C49.9997 54.0534 50.3589 53.5584 50.9101 53.3279C51.4611 53.0972 52.0658 53.1872 52.528 53.5711L55.2933 55.8661C56.6075 56.9573 58.4514 56.9675 59.7774 55.8901C61.2099 54.727 62.5201 53.4067 63.671 51.9639C64.7365 50.6309 64.7116 48.7859 63.6105 47.4809L61.2939 44.7345C60.9067 44.2761 60.8103 43.6711 61.037 43.1186C61.2634 42.5659 61.7553 42.2031 62.3535 42.1467L65.9327 41.815C67.6334 41.6561 68.9444 40.3597 69.1204 38.6609C69.2116 37.7817 69.2586 36.8861 69.2586 35.9987C69.2586 35.0425 69.205 34.0793 69.0998 33.1342C68.9105 31.4356 67.5894 30.1487 65.8864 30.004L62.3036 29.7001C61.7051 29.6495 61.2101 29.2911 60.9793 28.7397C60.7482 28.1884 60.8397 27.5839 61.2231 27.1212L63.5181 24.3565C64.6088 23.0414 64.6187 21.198 63.5425 19.8719C62.3799 18.4403 61.0587 17.1297 59.6165 15.978C58.2818 14.9136 56.4384 14.9373 55.1332 16.0384L52.3868 18.3561C51.9277 18.7428 51.3236 18.8383 50.7708 18.612C50.2181 18.3869 49.8547 17.8933 49.7995 17.2956L49.4666 13.7168C49.3084 12.0165 48.0117 10.7059 46.313 10.5286C45.7109 10.4669 45.1034 10.4276 44.4945 10.4077L42.8069 10.4062ZM67.442 38.4864C67.5275 37.6651 67.5707 36.8286 67.5707 35.9987C67.5707 35.1058 67.5209 34.2045 67.4226 33.3214C67.3236 32.434 66.6334 31.7618 65.7437 31.6859L62.1605 31.3823C60.9429 31.2781 59.8935 30.516 59.4227 29.3922C58.9516 28.2675 59.144 26.985 59.9246 26.044L62.2196 23.2793C62.7894 22.5917 62.7949 21.6283 62.2323 20.9365C61.1457 19.5978 59.9112 18.3728 58.5634 17.2972C57.8661 16.7403 56.9031 16.7529 56.2208 17.3294L53.4746 19.6455C52.5404 20.4328 51.2592 20.637 50.1312 20.1742C49.0031 19.7117 48.2319 18.6695 48.1187 17.4516L47.7861 13.8729C47.7035 12.984 47.0259 12.2992 46.1383 12.2078C44.4297 12.0293 42.6758 12.0378 40.973 12.2275C40.0854 12.3259 39.4133 13.0164 39.3375 13.9053L39.0336 17.4884C38.9303 18.7062 38.1674 19.7551 37.0431 20.2265C35.9188 20.6976 34.636 20.5048 33.6954 19.7245L30.9301 17.4293C30.2436 16.8598 29.28 16.8543 28.5872 17.4167C27.249 18.5039 26.0248 19.7385 24.9486 21.0859C24.392 21.7832 24.4053 22.7467 24.9804 23.4285L27.2971 26.175C28.0853 27.1088 28.2878 28.3898 27.8258 29.519C27.3637 30.647 26.3209 31.4176 25.1037 31.5315L21.5246 31.8634C20.636 31.9463 19.9511 32.6242 19.8589 33.5115C19.7736 34.3327 19.7302 35.1695 19.7302 35.9992C19.7302 36.8935 19.7801 37.7935 19.8785 38.6765C19.9773 39.5639 20.6677 40.2362 21.5575 40.312L25.1403 40.6159C26.3581 40.7199 27.4073 41.482 27.8784 42.6056C28.3494 43.7307 28.1571 45.0131 27.3765 45.954L25.0815 48.72C24.5114 49.4062 24.5062 50.3696 25.0689 51.0614C26.1555 52.4001 27.3899 53.6249 28.7375 54.7007C29.4346 55.2576 30.398 55.2448 31.0799 54.6684L33.8263 52.3523C34.4289 51.8445 35.1757 51.5789 35.9329 51.5789C36.3495 51.5789 36.7693 51.659 37.1701 51.8235C38.2979 52.2862 39.0688 53.3284 39.182 54.5459L39.5149 58.1248C39.5975 59.0137 40.2751 59.6985 41.1624 59.7899C42.8713 59.9685 44.6249 59.9601 46.328 59.7717C47.2153 59.6715 47.8877 58.9812 47.9632 58.0925L48.2674 54.5093C48.3706 53.2915 49.1332 52.2423 50.2575 51.7712C51.3819 51.3001 52.6646 51.4929 53.6052 52.2733L56.3707 54.5683C57.057 55.1378 58.0205 55.1434 58.7134 54.5809C60.0523 53.494 61.2763 52.2593 62.3521 50.912C62.9087 50.2147 62.8957 49.2514 62.3206 48.5693L60.0038 45.8229C59.2159 44.889 59.0134 43.6081 59.475 42.4801C59.9371 41.3509 60.9803 40.5803 62.1974 40.4664L65.7763 40.1345C66.6649 40.0515 67.3498 39.3737 67.442 38.4864Z" fill="#E6B400"/>
<path d="M45.8043 27.9605C45.3542 27.8411 44.8915 28.1067 44.771 28.5569L40.9 43.0031C40.7796 43.4533 41.0468 43.9158 41.497 44.0367C41.5698 44.0567 41.6435 44.0648 41.7158 44.0648C42.0882 44.0648 42.4293 43.8173 42.53 43.4406L46.401 28.9941C46.5216 28.5442 46.2545 28.0814 45.8043 27.9605Z" fill="#E6B400"/>
<path d="M47.5142 32.5183C47.1847 32.8472 47.1847 33.3816 47.5142 33.7109L49.8019 35.9989L47.5142 38.2868C47.1847 38.6158 47.1847 39.1501 47.5142 39.4793C47.679 39.6453 47.8948 39.7268 48.1108 39.7268C48.3268 39.7268 48.543 39.6451 48.7075 39.4793L51.5919 36.595C51.9214 36.2661 51.9214 35.7317 51.5919 35.4025L48.7075 32.5184C48.378 32.1878 47.8437 32.1878 47.5142 32.5183Z" fill="#E6B400"/>
<path d="M39.7868 32.5183C39.4572 32.1878 38.923 32.1878 38.5938 32.5183L35.7091 35.4023C35.3796 35.7315 35.3796 36.2659 35.7091 36.5948L38.5938 39.4792C38.7583 39.6451 38.9744 39.7267 39.1902 39.7267C39.4059 39.7267 39.6222 39.645 39.7868 39.4792C40.1163 39.15 40.1163 38.6156 39.7868 38.2867L37.4991 35.9987L39.7868 33.7108C40.1163 33.3817 40.1163 32.8472 39.7868 32.5183Z" fill="#E6B400"/>
</svg>
