<svg width="73" height="72" viewBox="0 0 73 72" fill="none" xmlns="http://www.w3.org/2000/svg">
<path d="M68 12.375H5C4.70163 12.375 4.41548 12.4935 4.2045 12.7045C3.99353 12.9155 3.875 13.2016 3.875 13.5V58.5C3.875 58.7984 3.99353 59.0845 4.2045 59.2955C4.41548 59.5065 4.70163 59.625 5 59.625H33.125V61.9762H14C13.7016 61.9762 13.4155 62.0948 13.2045 62.3058C12.9935 62.5167 12.875 62.8029 12.875 63.1012V67.5C12.875 67.7984 12.9935 68.0845 13.2045 68.2955C13.4155 68.5065 13.7016 68.625 14 68.625H59C59.2984 68.625 59.5845 68.5065 59.7955 68.2955C60.0065 68.0845 60.125 67.7984 60.125 67.5V63.1012C60.125 62.8029 60.0065 62.5167 59.7955 62.3058C59.5845 62.0948 59.2984 61.9762 59 61.9762H39.875V59.625H68C68.2984 59.625 68.5845 59.5065 68.7955 59.2955C69.0065 59.0845 69.125 58.7984 69.125 58.5V13.5C69.125 13.2016 69.0065 12.9155 68.7955 12.7045C68.5845 12.4935 68.2984 12.375 68 12.375ZM6.125 14.625H66.875V51.255H6.125V14.625ZM57.875 66.375H15.125V64.2262H57.875V66.375ZM37.625 61.9762H35.375V59.625H37.625V61.9762ZM66.875 57.375H6.125V53.505H66.875V57.375Z" fill="white"/>
<path d="M49.9939 39.4621C49.1686 39.463 48.3655 39.7292 47.703 40.2215C47.0406 40.7137 46.5541 41.4059 46.3152 42.1959H31.9939C31.7422 41.3663 31.2193 40.6453 30.5089 40.1484L31.2402 37.8984H47.5189C47.7729 37.9071 48.0223 37.8295 48.2266 37.6784C48.4309 37.5272 48.578 37.3113 48.6439 37.0659L51.7939 25.6809C51.8419 25.5102 51.8489 25.3306 51.8143 25.1568C51.7797 24.9829 51.7045 24.8197 51.5948 24.6804C51.4851 24.5411 51.3441 24.4297 51.1832 24.3553C51.0223 24.2809 50.8461 24.2455 50.6689 24.2521H31.5439C31.2455 24.2521 30.9594 24.3707 30.7484 24.5817C30.5374 24.7926 30.4189 25.0788 30.4189 25.3771C30.4189 25.6755 30.5374 25.9617 30.7484 26.1726C30.9594 26.3836 31.2455 26.5021 31.5439 26.5021H49.1839L46.6189 35.6146H31.3189L27.1677 20.5734C27.1017 20.328 26.9546 20.1121 26.7504 19.9609C26.5461 19.8097 26.2966 19.7322 26.0427 19.7409H20.3164C20.018 19.7409 19.7319 19.8594 19.5209 20.0704C19.3099 20.2814 19.1914 20.5675 19.1914 20.8659C19.1914 21.1643 19.3099 21.4504 19.5209 21.6614C19.7319 21.8724 20.018 21.9909 20.3164 21.9909H25.2439L29.2939 36.7059L28.4052 39.4621C27.6832 39.4403 26.9696 39.6209 26.345 39.9836C25.7204 40.3463 25.2097 40.8765 24.8708 41.5143C24.5318 42.1521 24.3781 42.872 24.4271 43.5926C24.476 44.3132 24.7256 45.0057 25.1477 45.5918C25.5697 46.1779 26.1474 46.6342 26.8153 46.9091C27.4832 47.184 28.2147 47.2665 28.927 47.1473C29.6394 47.028 30.3042 46.7118 30.8461 46.2344C31.3881 45.757 31.7857 45.1375 31.9939 44.4459H46.2589C46.4668 45.1277 46.8594 45.7386 47.3932 46.2108C47.9271 46.6831 48.5813 46.9983 49.2834 47.1214C49.9854 47.2445 50.7078 47.1708 51.3705 46.9084C52.0333 46.646 52.6103 46.2051 53.0378 45.6348C53.4652 45.0644 53.7264 44.3868 53.7922 43.6771C53.858 42.9674 53.726 42.2533 53.4108 41.614C53.0955 40.9748 52.6094 40.4353 52.0063 40.0555C51.4032 39.6756 50.7066 39.4703 49.9939 39.4621ZM28.3489 44.9971C28.1123 45.0009 27.8777 44.9527 27.6617 44.8561C27.4457 44.7595 27.2535 44.6167 27.0986 44.4378C26.9437 44.2589 26.8299 44.0482 26.7651 43.8206C26.7004 43.593 26.6863 43.3539 26.7238 43.1203C26.7614 42.8866 26.8496 42.6641 26.9825 42.4682C27.1153 42.2723 27.2894 42.1079 27.4925 41.9866C27.6957 41.8652 27.923 41.7898 28.1584 41.7658C28.3938 41.7417 28.6316 41.7694 28.8552 41.8471C29.1808 41.9498 29.4653 42.1534 29.6675 42.4284C29.8697 42.7035 29.9792 43.0357 29.9802 43.3771C29.9772 43.8078 29.804 44.2199 29.4984 44.5233C29.1928 44.8268 28.7796 44.9972 28.3489 44.9971ZM49.9939 44.9971C49.7706 45.0158 49.5458 44.9879 49.3338 44.9153C49.1218 44.8426 48.9272 44.7267 48.7622 44.575C48.5973 44.4233 48.4656 44.239 48.3756 44.0338C48.2855 43.8285 48.239 43.6069 48.239 43.3828C48.239 43.1587 48.2855 42.937 48.3756 42.7318C48.4656 42.5265 48.5973 42.3422 48.7622 42.1905C48.9272 42.0388 49.1218 41.9229 49.3338 41.8503C49.5458 41.7776 49.7706 41.7497 49.9939 41.7684C50.3988 41.8022 50.7762 41.987 51.0513 42.286C51.3263 42.585 51.479 42.9765 51.479 43.3828C51.479 43.7891 51.3263 44.1805 51.0513 44.4796C50.7762 44.7786 50.3988 44.9633 49.9939 44.9971Z" fill="#E6B400"/>
</svg>
