<svg width="73" height="72" viewBox="0 0 73 72" fill="none" xmlns="http://www.w3.org/2000/svg">
<path d="M15.1228 2.25C13.2726 2.25 11.75 3.77256 11.75 5.62285V41.6229C11.75 43.1243 14.0022 43.1243 14.0022 41.6229V13.5045H58.9956V41.6229C58.9616 43.1569 61.28 43.1569 61.2456 41.6229V5.62285C61.2456 3.77256 59.7253 2.25 57.875 2.25H15.1228ZM15.1228 4.50224H57.875C58.5177 4.50224 58.9956 4.98012 58.9956 5.62285V11.2522H14.0022V5.62285C14.0022 4.98012 14.4801 4.50224 15.1228 4.50224ZM17.375 6.75007C16.7537 6.75007 16.25 7.25379 16.25 7.87509C16.25 8.49643 16.7537 8.99997 17.375 8.99997C17.9963 8.99997 18.5 8.49643 18.5 7.87509C18.5 7.25379 17.9963 6.75007 17.375 6.75007ZM21.875 6.75007C21.2537 6.75007 20.75 7.25379 20.75 7.87509C20.75 8.49643 21.2537 8.99997 21.875 8.99997C22.4963 8.99997 23 8.49643 23 7.87509C23 7.25379 22.4963 6.75007 21.875 6.75007ZM26.375 6.75007C25.7537 6.75007 25.25 7.25379 25.25 7.87509C25.25 8.49643 25.7537 8.99997 26.375 8.99997C26.9963 8.99997 27.5 8.49643 27.5 7.87509C27.5 7.25379 26.9963 6.75007 26.375 6.75007ZM42.0679 6.75227C40.5489 6.8556 40.6526 9.03951 42.1206 9.00231H55.625C57.0921 8.96829 57.0921 6.7848 55.625 6.75227H42.0679ZM6.1294 9.00231C4.27911 9.00231 2.75 10.5227 2.75 12.3729V52.875C2.75 54.7253 4.27911 56.2478 6.1294 56.2478H66.8772C68.7275 56.2478 70.25 54.7253 70.25 52.875V12.3728C70.25 10.5225 68.7275 9.00218 66.8772 9.00218H64.6272C63.0936 8.96816 63.0936 11.2862 64.6272 11.2522H66.8772C67.5199 11.2522 67.9978 11.7301 67.9978 12.3728V45.0022H5V12.3728C5 11.7301 5.48671 11.2522 6.1294 11.2522H8.3706C9.90425 11.2862 9.90425 8.96816 8.3706 9.00218L6.1294 9.00231ZM39.8882 17.9825C39.3936 17.9791 38.9549 18.2994 38.8071 18.7714L32.0549 39.0191C31.5789 40.443 33.7146 41.157 34.1907 39.7332L40.9429 19.4789C41.1975 18.7504 40.6599 17.9876 39.8882 17.9825ZM44.7793 24.4864L50.4922 29.2522L44.7793 34.0116C43.5586 34.9672 45.0659 36.7704 46.2229 35.7387L52.9663 30.1158C53.5048 29.6661 53.5048 28.8386 52.9663 28.3888L46.2229 22.7572C46.0213 22.5846 45.7653 22.4889 45.4429 22.4893C44.3794 22.5824 43.9939 23.8508 44.7793 24.4864ZM27.4714 22.4914C27.2181 22.4999 26.9749 22.5934 26.7815 22.7571L20.0315 28.3887C19.493 28.8385 19.493 29.6659 20.0315 30.1157L26.7815 35.7385C27.9424 36.8198 29.4928 34.9564 28.2185 34.0114L22.5056 29.2521L28.2185 24.4863C29.0497 23.8057 28.5453 22.4586 27.4714 22.4914ZM5 47.2545H67.9978V52.875C67.9978 53.5177 67.5199 53.9956 66.8772 53.9956H6.1294C5.48671 53.9956 5 53.5177 5 52.875V47.2545ZM38.8115 49.5023L34.1951 49.5045C32.761 49.6758 32.8574 51.7073 34.2478 51.7457H38.75C40.295 51.8822 40.4236 49.5333 38.8115 49.5023ZM30.1894 58.4099C29.7379 58.4014 29.3243 58.6616 29.1392 59.0735C28.5974 60.2355 27.6268 61.5923 25.9509 62.9978H24.125C22.2747 62.9978 20.7544 64.5292 20.7544 66.3795V68.6207C20.7521 69.242 21.2537 69.7475 21.875 69.75H51.1228C51.7475 69.7523 52.2546 69.2454 52.2522 68.6207V66.3795C52.2522 64.5292 50.7231 62.9978 48.8728 62.9978H47.0491C45.3733 61.5924 44.4025 60.2354 43.8608 59.0735C43.6703 58.6508 43.2404 58.3884 42.7776 58.4121C41.9739 58.4546 41.4719 59.3003 41.8218 60.025C42.2603 60.9656 42.93 61.9746 43.8323 62.9978H29.1677C30.0699 61.9746 30.7396 60.9656 31.1782 60.025C31.5354 59.2872 31.009 58.4274 30.1894 58.4099ZM24.125 65.2501H48.8728C49.5154 65.2501 50.0022 65.7368 50.0022 66.3795V67.5001H23.0044V66.3795C23.0044 65.7368 23.4823 65.2501 24.125 65.2501Z" fill="white"/>
<path d="M15.1228 2.25C13.2726 2.25 11.75 3.77256 11.75 5.62285V41.6229C11.75 43.1243 14.0022 43.1243 14.0022 41.6229V13.5045H58.9956V41.6229C58.9616 43.1569 61.28 43.1569 61.2456 41.6229V5.62285C61.2456 3.77256 59.7253 2.25 57.875 2.25H15.1228ZM15.1228 4.50224H57.875C58.5177 4.50224 58.9956 4.98012 58.9956 5.62285V11.2522H14.0022V5.62285C14.0022 4.98012 14.4801 4.50224 15.1228 4.50224ZM17.375 6.75007C16.7537 6.75007 16.25 7.25379 16.25 7.87509C16.25 8.49643 16.7537 8.99997 17.375 8.99997C17.9963 8.99997 18.5 8.49643 18.5 7.87509C18.5 7.25379 17.9963 6.75007 17.375 6.75007ZM21.875 6.75007C21.2537 6.75007 20.75 7.25379 20.75 7.87509C20.75 8.49643 21.2537 8.99997 21.875 8.99997C22.4963 8.99997 23 8.49643 23 7.87509C23 7.25379 22.4963 6.75007 21.875 6.75007ZM26.375 6.75007C25.7537 6.75007 25.25 7.25379 25.25 7.87509C25.25 8.49643 25.7537 8.99997 26.375 8.99997C26.9963 8.99997 27.5 8.49643 27.5 7.87509C27.5 7.25379 26.9963 6.75007 26.375 6.75007ZM42.0679 6.75228C40.5489 6.8556 40.6526 9.03951 42.1206 9.00231H55.625C57.0921 8.96829 57.0921 6.7848 55.625 6.75228H42.0679ZM39.8882 17.9825C39.3936 17.9791 38.9549 18.2994 38.8071 18.7714L32.0549 39.0191C31.5789 40.443 33.7146 41.157 34.1907 39.7332L40.9429 19.4789C41.1975 18.7504 40.6599 17.9876 39.8882 17.9825ZM44.7793 24.4864L50.4922 29.2522L44.7793 34.0116C43.5586 34.9672 45.0659 36.7704 46.2229 35.7387L52.9663 30.1158C53.5048 29.6661 53.5048 28.8386 52.9663 28.3888L46.2229 22.7572C46.0213 22.5846 45.7653 22.4889 45.4429 22.4893C44.3795 22.5824 43.9939 23.8508 44.7793 24.4864ZM27.4714 22.4914C27.2181 22.4999 26.975 22.5934 26.7815 22.7571L20.0315 28.3887C19.493 28.8385 19.493 29.6659 20.0315 30.1157L26.7815 35.7385C27.9424 36.8198 29.4928 34.9564 28.2185 34.0114L22.5056 29.2521L28.2185 24.4863C29.0497 23.8057 28.5453 22.4586 27.4714 22.4914ZM38.8115 49.5023L34.1951 49.5045C32.7611 49.6758 32.8574 51.7073 34.2478 51.7457H38.75C40.295 51.8822 40.4236 49.5333 38.8115 49.5023Z" fill="#E6B400"/>
</svg>
