<svg width="73" height="72" viewBox="0 0 73 72" fill="none" xmlns="http://www.w3.org/2000/svg">
<g clip-path="url(#clip0_1760_76153)">
<path d="M71.4453 29.4548C72.0279 29.4548 72.5 28.9826 72.5 28.4002V10.5527C72.5 8.03273 70.4498 5.98242 67.9297 5.98242H18.6496C18.0672 5.98242 17.5949 6.45464 17.5949 7.03711C17.5949 7.61958 18.0672 8.0918 18.6496 8.0918H67.9297C69.2866 8.0918 70.3906 9.19584 70.3906 10.5527V19.1309H2.60938V10.5527C2.60938 9.19584 3.71342 8.0918 5.07031 8.0918H13.7172C14.2997 8.0918 14.7719 7.61958 14.7719 7.03711C14.7719 6.45464 14.2997 5.98242 13.7172 5.98242H5.07031C2.55031 5.98242 0.5 8.03273 0.5 10.5527V61.459C0.5 63.979 2.55031 66.0293 5.07031 66.0293H67.9297C70.4498 66.0293 72.5 63.979 72.5 61.459V33.3459C72.5 32.7635 72.0279 32.2913 71.4453 32.2913C70.8627 32.2913 70.3906 32.7635 70.3906 33.3459V61.459C70.3906 62.8159 69.2866 63.9199 67.9297 63.9199H5.07031C3.71342 63.9199 2.60938 62.8159 2.60938 61.459V21.2402H70.3906V28.4002C70.3906 28.9826 70.8627 29.4548 71.4453 29.4548Z" fill="white"/>
<path d="M6.44141 13.7871C6.44141 15.5318 7.86074 16.9512 9.60547 16.9512C11.3502 16.9512 12.7695 15.5318 12.7695 13.7871C12.7695 12.0424 11.3502 10.623 9.60547 10.623C7.86074 10.623 6.44141 12.0424 6.44141 13.7871ZM10.6602 13.7871C10.6602 14.3687 10.1871 14.8418 9.60547 14.8418C9.02384 14.8418 8.55078 14.3687 8.55078 13.7871C8.55078 13.2055 9.02384 12.7324 9.60547 12.7324C10.1871 12.7324 10.6602 13.2055 10.6602 13.7871Z" fill="white"/>
<path d="M18.043 16.9512C19.7877 16.9512 21.207 15.5318 21.207 13.7871C21.207 12.0424 19.7877 10.623 18.043 10.623C16.2982 10.623 14.8789 12.0424 14.8789 13.7871C14.8789 15.5318 16.2982 16.9512 18.043 16.9512ZM18.043 12.7324C18.6246 12.7324 19.0977 13.2055 19.0977 13.7871C19.0977 14.3687 18.6246 14.8418 18.043 14.8418C17.4613 14.8418 16.9883 14.3687 16.9883 13.7871C16.9883 13.2055 17.4613 12.7324 18.043 12.7324Z" fill="white"/>
<path d="M29.6445 13.7871C29.6445 12.0424 28.2252 10.623 26.4805 10.623C24.7357 10.623 23.3164 12.0424 23.3164 13.7871C23.3164 15.5318 24.7357 16.9512 26.4805 16.9512C28.2252 16.9512 29.6445 15.5318 29.6445 13.7871ZM25.4258 13.7871C25.4258 13.2055 25.8988 12.7324 26.4805 12.7324C27.0621 12.7324 27.5352 13.2055 27.5352 13.7871C27.5352 14.3687 27.0621 14.8418 26.4805 14.8418C25.8988 14.8418 25.4258 14.3687 25.4258 13.7871Z" fill="white"/>
<path d="M62.8078 47.4849H64.3703C65.7514 47.4849 66.8751 46.3613 66.8751 44.9801V40.8946C66.8751 39.5134 65.7515 38.3898 64.3703 38.3898H62.8078C62.6376 38.3898 62.4871 38.2813 62.4336 38.1197C62.2012 37.4178 61.9145 36.726 61.581 36.0632C61.504 35.9099 61.5331 35.7261 61.6537 35.6055L62.7592 34.5C63.7355 33.5234 63.7355 31.9343 62.7592 30.9578L59.8703 28.0691C58.8935 27.0926 57.3046 27.0923 56.3281 28.0691L55.2225 29.1747C55.1022 29.295 54.9182 29.3243 54.7648 29.2472C54.1027 28.9141 53.411 28.6274 52.7084 28.3948C52.547 28.3412 52.4383 28.1909 52.4383 28.0204V26.4579C52.4383 25.0769 51.3147 23.9531 49.9335 23.9531H45.848C44.4668 23.9531 43.3431 25.0767 43.3431 26.4579V28.0204C43.3431 28.1606 43.2687 28.2865 43.1525 28.3568C41.4641 26.545 38.639 25.7603 36.1968 26.4728C35.6915 26.6177 35.311 27.0088 35.1791 27.5188C35.0483 28.0241 35.1961 28.567 35.5647 28.9358L37.1705 30.5415C37.6325 31.0035 37.6325 31.7554 37.1704 32.2175C36.8174 32.5546 36.0913 32.7547 35.4944 32.2175L33.8887 30.6119C33.5202 30.2433 32.9773 30.0955 32.4719 30.2261C31.9618 30.3582 31.5705 30.7387 31.4258 31.2443C30.7288 33.6776 31.407 36.3006 33.1956 38.0892C33.233 38.1266 33.2729 38.1609 33.3112 38.1973C33.2412 38.3149 33.1147 38.3901 32.9735 38.3901H31.4111C30.0298 38.3901 28.9062 39.5137 28.9062 40.8949V44.9804C28.9062 46.3614 30.0298 47.4852 31.4111 47.4852H32.9735C33.1438 47.4852 33.2943 47.5937 33.3479 47.7553C33.5805 48.4579 33.8672 49.1497 34.2004 49.8115C34.2776 49.965 34.2483 50.1489 34.1278 50.2694L33.0223 51.3749C32.0458 52.3514 32.0457 53.9404 33.0223 54.9171L35.9112 57.8058C36.8878 58.7826 38.4771 58.7823 39.4536 57.8058L40.559 56.7002C40.6792 56.5798 40.8635 56.5506 41.0167 56.6278C41.6788 56.9609 42.3705 57.2476 43.0731 57.4802C43.2345 57.5338 43.3432 57.6841 43.3432 57.8546V59.4171C43.3432 60.7983 44.4668 61.9219 45.848 61.9219H49.9335C51.3147 61.9219 52.4384 60.7983 52.4384 59.4171V57.8546C52.4384 57.7135 52.5137 57.587 52.6311 57.5169C53.8306 58.8128 55.8231 59.6916 57.6665 59.6717C58.3064 59.6717 58.9521 59.5834 59.5846 59.4023C60.09 59.2575 60.4705 58.8664 60.6024 58.3562C60.7332 57.8509 60.5854 57.308 60.2167 56.9394L58.611 55.3337C58.1489 54.8716 58.1489 54.1197 58.6109 53.6578C59.0728 53.1957 59.8248 53.1954 60.287 53.6576L61.8928 55.2634C62.2617 55.6321 62.8042 55.7799 63.3099 55.649C63.8201 55.517 64.211 55.1364 64.3558 54.6312C65.0598 52.2413 64.3272 49.4292 62.4719 47.6756C62.5418 47.5593 62.6676 47.4849 62.8078 47.4849ZM50.3289 57.8546V59.4171C50.3289 59.6352 50.1515 59.8125 49.9333 59.8125H45.8479C45.6298 59.8125 45.4525 59.6352 45.4525 59.4171V57.8546C45.4525 56.773 44.7627 55.8179 43.736 55.4779C43.1309 55.2775 42.5351 55.0304 41.9645 54.7434C40.9963 54.2564 39.8324 54.4434 39.0671 55.2087L37.9617 56.3142C37.8074 56.4683 37.5567 56.4682 37.4024 56.3142L34.5137 53.4255C34.3594 53.2712 34.3594 53.0203 34.5137 52.8662L35.6191 51.7607C36.3843 50.9956 36.5713 49.8312 36.0845 48.8633C35.7974 48.2931 35.5505 47.6971 35.3501 47.092C35.0102 46.0653 34.0551 45.3754 32.9734 45.3754H31.4109C31.1928 45.3754 31.0155 45.198 31.0155 44.9799V40.8945C31.0155 40.6764 31.1928 40.4991 31.4109 40.4991H32.9734C33.8173 40.4991 34.5827 40.078 35.0405 39.4058C36.0933 39.9224 37.265 40.1679 38.4382 40.117C38.2047 40.9896 38.0837 41.9199 38.0837 42.8763C38.0837 48.3173 42.5105 52.7438 47.9514 52.7438C48.8739 52.7438 49.7875 52.6177 50.6608 52.3744C50.618 53.5512 50.8768 54.7309 51.4115 55.7941C50.7456 56.2531 50.3289 57.015 50.3289 57.8546ZM62.512 52.8994L61.7785 52.1659C60.4937 50.8813 58.4039 50.8815 57.1191 52.1659C55.8347 53.4503 55.8347 55.5405 57.1193 56.8249L57.8529 57.5586C56.5164 57.6096 55.1989 57.1087 54.2307 56.1406C52.8834 54.7932 52.413 52.799 53.0326 51.0599C53.1684 50.679 53.0745 50.2542 52.7908 49.9661L50.1474 47.2803L48.6725 45.8054C48.2608 45.3935 47.5929 45.3935 47.181 45.8054C46.7691 46.2173 46.7691 46.8851 47.1812 47.2969L48.65 48.7657L50.1772 50.3175C49.4632 50.5251 48.7123 50.6345 47.9515 50.6345C43.6736 50.6345 40.1932 47.1541 40.1932 42.8763C40.1932 42.0828 40.2967 41.3182 40.4923 40.6083L43.7072 43.8232C44.1191 44.235 44.7869 44.2352 45.1986 43.8233C45.6107 43.4115 45.6107 42.7437 45.1988 42.3318L40.8518 37.9847C40.5635 37.6967 40.1356 37.6002 39.752 37.7369C37.9941 38.3634 36.0058 37.9159 34.6871 36.5973C33.719 35.6292 33.2175 34.3104 33.2691 32.9751L34.0028 33.7087C35.1289 34.8741 37.3518 35.0524 38.662 33.7087C39.9464 32.4241 39.9464 30.334 38.662 29.0497L37.9283 28.3162C39.149 28.2505 40.6698 28.8069 41.6112 29.7954C42.8913 31.1209 43.3058 33.1046 42.6675 34.8492C42.5263 35.2346 42.622 35.667 42.9121 35.9573L54.8704 47.9156C55.1607 48.2059 55.5934 48.3012 55.9787 48.1603C57.7231 47.5219 59.7068 47.9366 61.0319 49.2161C61.9295 50.0576 62.5782 51.5484 62.512 52.8994ZM57.3835 45.7649C57.6724 44.8382 57.819 43.8725 57.819 42.8766C57.819 40.1502 56.7317 37.6127 54.7573 35.7315C54.3356 35.3298 53.6681 35.3459 53.2662 35.7676C52.8644 36.1893 52.8804 36.8569 53.3022 37.2588C54.8547 38.7379 55.7097 40.7331 55.7097 42.8766C55.7097 43.7493 55.5717 44.5696 55.2968 45.3586L45.4667 35.5285C46.6399 35.14 48.0636 34.9843 49.5081 35.2743C50.0785 35.391 50.6359 35.022 50.7521 34.4511C50.8682 33.8801 50.4996 33.3234 49.9288 33.2072C48.5057 32.9093 46.6797 32.9402 45.0631 33.4414C45.1061 32.2832 44.8634 31.128 44.3563 30.089C45.0302 29.6314 45.4525 28.865 45.4525 28.02V26.4575C45.4525 26.2395 45.6299 26.0621 45.848 26.0621H49.9335C50.1515 26.0621 50.3289 26.2394 50.3289 26.4575V28.02C50.3289 29.1015 51.0187 30.0567 52.0454 30.3967C52.6505 30.5971 53.2465 30.8442 53.8168 31.1312C54.7846 31.618 55.949 31.431 56.7141 30.6657L57.8197 29.5603C57.9739 29.406 58.2247 29.4063 58.3789 29.5603L61.2677 32.449C61.422 32.6033 61.422 32.8541 61.2677 33.0082L60.1624 34.1137C59.3971 34.879 59.2101 36.0434 59.6969 37.011C59.984 37.5819 60.2312 38.1779 60.4313 38.7825C60.7713 39.8092 61.7264 40.4989 62.808 40.4989H64.3705C64.5886 40.4989 64.7659 40.6762 64.7659 40.8944V44.9798C64.7659 45.1979 64.5886 45.3752 64.3705 45.3752H62.808C61.963 45.3752 61.1966 45.7975 60.739 46.4713C59.6993 45.9642 58.543 45.7213 57.3835 45.7649Z" fill="#E6B400"/>
<path d="M24.3359 35.5547H7.46094C6.87847 35.5547 6.40625 36.0269 6.40625 36.6094C6.40625 37.1918 6.87847 37.6641 7.46094 37.6641H24.3359C24.9184 37.6641 25.3906 37.1918 25.3906 36.6094C25.3906 36.0269 24.9184 35.5547 24.3359 35.5547Z" fill="white"/>
<path d="M24.3357 39.7734H16.9707C16.3882 39.7734 15.916 40.2457 15.916 40.8281C15.916 41.4106 16.3882 41.8828 16.9707 41.8828H24.3357C24.9181 41.8828 25.3903 41.4106 25.3903 40.8281C25.3903 40.2457 24.9181 39.7734 24.3357 39.7734Z" fill="#E6B400"/>
<path d="M7.46094 41.8828H12.7522C13.3347 41.8828 13.8069 41.4106 13.8069 40.8281C13.8069 40.2457 13.3347 39.7734 12.7522 39.7734H7.46094C6.87847 39.7734 6.40625 40.2457 6.40625 40.8281C6.40625 41.4106 6.87847 41.8828 7.46094 41.8828Z" fill="#E6B400"/>
<path d="M24.3359 43.9922H7.46094C6.87847 43.9922 6.40625 44.4644 6.40625 45.0469C6.40625 45.6293 6.87847 46.1016 7.46094 46.1016H24.3359C24.9184 46.1016 25.3906 45.6293 25.3906 45.0469C25.3906 44.4644 24.9184 43.9922 24.3359 43.9922Z" fill="white"/>
<path d="M24.3269 48.2109H14.3164C13.7339 48.2109 13.2617 48.6832 13.2617 49.2656C13.2617 49.8481 13.7339 50.3203 14.3164 50.3203H24.3269C24.9094 50.3203 25.3816 49.8481 25.3816 49.2656C25.3816 48.6832 24.9094 48.2109 24.3269 48.2109Z" fill="#E6B400"/>
<path d="M7.46094 48.2109C6.87847 48.2109 6.40625 48.6832 6.40625 49.2656C6.40625 49.8481 6.87847 50.3203 7.46094 50.3203H10.1067C10.6891 50.3203 11.1613 49.8481 11.1613 49.2656C11.1613 48.6832 10.6891 48.2109 10.1067 48.2109H7.46094Z" fill="white"/>
</g>
<defs>
<clipPath id="clip0_1760_76153">
<rect width="72" height="72" fill="white" transform="translate(0.5)"/>
</clipPath>
</defs>
</svg>
