<svg width="80" height="80" viewBox="0 0 80 80" fill="none" xmlns="http://www.w3.org/2000/svg">
<g clip-path="url(#clip0_1996_28282)">
<path d="M26.4453 33.9727H29.7362C30.3836 33.9727 30.9081 33.448 30.9081 32.8008C30.9081 32.1536 30.3836 31.6289 29.7362 31.6289H26.4453C25.798 31.6289 25.2734 32.1536 25.2734 32.8008C25.2734 33.448 25.7981 33.9727 26.4453 33.9727Z" fill="#E6B400"/>
<path d="M21.9922 39.3828C21.9922 40.03 22.5167 40.5547 23.1641 40.5547H29.7456C30.393 40.5547 30.9175 40.03 30.9175 39.3828C30.9175 38.7356 30.393 38.2109 29.7456 38.2109H23.1641C22.5167 38.2109 21.9922 38.7356 21.9922 39.3828Z" fill="#E6B400"/>
<path d="M29.7422 44.79H19.5703C18.923 44.79 18.3984 45.3147 18.3984 45.9619C18.3984 46.6091 18.923 47.1338 19.5703 47.1338H29.7422C30.3895 47.1338 30.9141 46.6091 30.9141 45.9619C30.9141 45.3147 30.3894 44.79 29.7422 44.79Z" fill="#E6B400"/>
<path d="M78.7002 24.5811C78.6988 24.5798 78.6977 24.5784 78.6963 24.5773C78.6944 24.5758 78.6923 24.5744 78.6903 24.5727C78.6061 24.4994 78.5186 24.4295 78.4281 24.3639C78.4277 24.3636 78.4272 24.3633 78.4267 24.363C77.978 24.0373 77.4558 23.8077 76.8898 23.7034C76.8827 23.702 76.8753 23.7008 76.8681 23.6995C76.7647 23.6811 71.7069 23.6397 71.7069 23.6397C71.5977 23.137 71.7386 22.6112 72.1047 22.2455L72.7367 21.6134C74.2378 20.1122 74.2378 17.6695 72.7367 16.1683L63.8323 7.26375C62.3309 5.7625 59.8884 5.7625 58.3869 7.26375L57.755 7.89563C57.2945 8.35609 56.5805 8.46187 55.9789 8.15891C54.4425 7.38594 52.8392 6.72047 51.2134 6.18109C50.5755 5.96953 50.1469 5.39062 50.1469 4.74062V3.85031C50.1467 1.72719 48.4195 0 46.2964 0H33.7034C31.5803 0 29.8531 1.72719 29.8531 3.85031V4.74062C29.8531 5.39062 29.4245 5.96937 28.7867 6.18094C27.1608 6.72031 25.5575 7.38562 24.0212 8.15875C23.4192 8.46156 22.7056 8.35594 22.2453 7.89563L21.6131 7.26344C20.112 5.76234 17.6691 5.76234 16.1678 7.26344L7.26328 16.1678C5.76219 17.6691 5.76219 20.1119 7.26344 21.6131L7.89547 22.2452C8.35578 22.7055 8.46156 23.4192 8.15891 24.0212C7.38578 25.5577 6.72031 27.1609 6.18109 28.7867C5.96953 29.4247 5.39047 29.8531 4.74062 29.8531H3.85047C1.72734 29.8533 0 31.5805 0 33.7036V46.2964C0 48.4195 1.72734 50.1467 3.85047 50.1467H4.74062C5.39047 50.1467 5.96937 50.5753 6.18109 51.2131C6.72016 52.8386 7.38562 54.442 8.15875 55.9786C8.46156 56.5806 8.35594 57.2944 7.89563 57.7547L7.26328 58.3869C5.76219 59.8881 5.76219 62.3308 7.26328 63.832L16.1678 72.7364C16.895 73.4636 17.862 73.8642 18.8905 73.8642C19.9189 73.8642 20.8859 73.4638 21.6133 72.7364L22.2453 72.1044C22.7055 71.6442 23.4191 71.5381 24.0212 71.8411C25.5577 72.6141 27.1609 73.2795 28.7867 73.8187C29.4245 74.0303 29.8531 74.6092 29.8531 75.2592V76.1495C29.8531 78.2727 31.5803 79.9998 33.7034 79.9998H46.2964C48.4195 79.9998 50.1467 78.2727 50.1467 76.1495V75.2592C50.1467 74.6092 50.5753 74.0305 51.2133 73.8189C52.8392 73.2794 54.4425 72.6141 55.9788 71.8411C56.5808 71.5381 57.2944 71.6439 57.7547 72.1042L58.3867 72.7364C59.1139 73.4636 60.0809 73.8642 61.1094 73.8642C62.138 73.8642 63.1048 73.4638 63.8322 72.7364L72.7366 63.832C74.2377 62.3308 74.2377 59.8881 72.7366 58.3869L72.1044 57.7547C71.6441 57.2944 71.5383 56.5806 71.8409 55.9788C72.5169 54.6355 73.3183 52.587 73.8694 51.0067H76.2006C78.2955 51.0067 79.9997 49.3023 79.9997 47.2075V27.4388C80 26.3003 79.4959 25.278 78.7002 24.5811ZM66.0178 37.3231L77.6433 27.2552C77.6509 27.3155 77.6509 47.3308 77.6433 47.3911L66.0178 37.3231ZM60.0581 39.3838C58.0834 41.0939 55.1045 41.0942 53.1295 39.3838L37.6561 25.9833H75.5317L60.0581 39.3838ZM35.5444 47.3909C35.5367 47.3308 35.5367 27.3153 35.5444 27.255L47.1698 37.323L35.5444 47.3909ZM70.4472 59.412L71.0792 60.0441C71.6667 60.6316 71.6667 61.5872 71.0792 62.1747L62.1748 71.0791C61.8903 71.3636 61.512 71.5203 61.1095 71.5203C60.7072 71.5203 60.3289 71.3636 60.0444 71.0791L59.4122 70.4469C58.2356 69.2702 56.4325 68.9891 54.9255 69.7473C53.4906 70.4692 51.9934 71.0906 50.4756 71.5942C48.8772 72.1244 47.8031 73.5972 47.8031 75.2592V76.1495C47.8031 76.9803 47.1273 77.6561 46.2966 77.6561H33.7036C32.873 77.6561 32.197 76.9803 32.197 76.1495V75.2592C32.197 73.5973 31.1231 72.1245 29.5247 71.5942C28.0067 71.0908 26.5095 70.4694 25.0748 69.7475C23.5678 68.9892 21.7648 69.2705 20.588 70.4472L19.9561 71.0792C19.6714 71.3638 19.2931 71.5205 18.8906 71.5205C18.4883 71.5205 18.11 71.3638 17.8255 71.0792L8.92094 62.1748C8.33344 61.5873 8.33344 60.6317 8.92078 60.0442L9.55313 59.412C10.7297 58.2353 11.0108 56.4322 10.2528 54.9253C9.53062 53.4902 8.90922 51.993 8.40578 50.4753C7.87563 48.877 6.40281 47.803 4.74094 47.803H3.85078C3.02 47.803 2.34406 47.127 2.34406 46.2964V33.7036C2.34406 32.8728 3.01984 32.1969 3.85078 32.1969H4.74094C6.40281 32.1969 7.87563 31.123 8.40578 29.5245C8.90938 28.0067 9.53078 26.5095 10.2528 25.0745C11.0109 23.5677 10.7298 21.7645 9.55297 20.5878L8.92094 19.9558C8.33344 19.3683 8.33344 18.4125 8.92094 17.825L17.8255 8.92062C18.413 8.33297 19.3689 8.33359 19.9561 8.92062L20.5881 9.55281C21.7648 10.7295 23.5681 11.0106 25.075 10.2525C26.5098 9.53047 28.0069 8.90922 29.5248 8.40563C31.1231 7.87531 32.1972 6.40266 32.1972 4.74062V3.85031C32.1972 3.01953 32.873 2.34375 33.7038 2.34375H46.2967C47.1273 2.34375 47.8033 3.01953 47.8033 3.85031V4.74062C47.8033 6.40266 48.8772 7.87547 50.4758 8.40563C51.9938 8.90922 53.4909 9.53047 54.9256 10.2525C56.4322 11.0108 58.2356 10.7297 59.4125 9.55281L60.0445 8.92078C60.6319 8.33313 61.5878 8.33344 62.1752 8.92078L71.0795 17.8253C71.667 18.4128 71.667 19.3684 71.0795 19.9559L70.4477 20.588C69.6297 21.4058 69.2456 22.5262 69.3412 23.6395H63.1703C57.8519 16.1203 49.2058 11.6356 40 11.6356C35.0345 11.6356 30.1478 12.9377 25.8687 15.4011C25.3078 15.7239 25.115 16.4405 25.4378 17.0014C25.7606 17.5625 26.4769 17.7552 27.0381 17.4323C30.9622 15.1734 35.4442 13.9794 40 13.9794C47.8772 13.9794 55.3073 17.5598 60.2313 23.6395C60.2313 23.6395 36.4231 23.6809 36.3195 23.6994C36.3123 23.7006 36.305 23.7019 36.2978 23.7033C35.7319 23.8075 35.2095 24.037 34.7608 24.3628C34.7603 24.3631 34.7598 24.3634 34.7594 24.3637C34.6689 24.4295 34.5814 24.4992 34.4972 24.5725C34.4953 24.5741 34.4933 24.5755 34.4912 24.5772C34.4898 24.5784 34.4888 24.5798 34.4873 24.5809C33.6916 25.2778 33.1875 26.3002 33.1875 27.4386V47.2073C33.1875 49.3022 34.8917 51.0066 36.9866 51.0066H52.0484C52.6958 51.0066 53.2203 50.4819 53.2203 49.8347C53.2203 49.1875 52.6958 48.6628 52.0484 48.6628H37.6556L48.9597 38.8733L51.5948 41.1553C53.0197 42.3892 54.8067 43.0062 56.5934 43.0062C58.3805 43.0062 60.1673 42.3892 61.5922 41.1553L64.2273 38.8733L75.5314 48.6628H57.5173C56.87 48.6628 56.3455 49.1875 56.3455 49.8347C56.3455 50.4819 56.87 51.0066 57.5173 51.0066H63.5819C61.6011 55.2484 58.5247 58.8691 54.6258 61.5239C50.3056 64.4656 45.2478 66.0205 39.9997 66.0205C25.6519 66.0205 13.9791 54.3477 13.9791 39.9998C13.9791 32.493 17.223 25.3508 22.8787 20.4048C23.3659 19.9788 23.4155 19.2384 22.9894 18.7513C22.5633 18.2639 21.823 18.2145 21.3358 18.6405C15.1714 24.0317 11.6356 31.8169 11.6356 40C11.6356 55.6402 24.3598 68.3644 40 68.3644C45.7206 68.3644 51.2344 66.6689 55.9452 63.4614C60.4947 60.3636 64.0178 56.0589 66.1464 51.0069H71.4127C70.9439 52.3425 70.385 53.6583 69.7473 54.9255C68.9892 56.4323 69.2706 58.2355 70.4472 59.412Z" fill="white"/>
<path fill-rule="evenodd" clip-rule="evenodd" d="M78.7158 24.5817L78.7119 24.578L78.7059 24.5733C78.6217 24.5 78.5342 24.4302 78.4438 24.3645L78.4423 24.3636C77.9936 24.038 77.4714 23.8083 76.9055 23.7041L76.8838 23.7002C76.7803 23.6817 71.7225 23.6403 71.7225 23.6403L69.3569 23.6402H63.1859H60.2469C60.2469 23.6402 36.4388 23.6816 36.3352 23.7L36.3134 23.7039C35.7475 23.8081 35.2252 24.0377 34.7764 24.3634L34.775 24.3644C34.6845 24.4302 34.597 24.4998 34.5128 24.5731L34.5069 24.5778L34.503 24.5816C33.7072 25.2784 33.2031 26.3008 33.2031 27.4392V47.208C33.2031 49.3028 34.9073 51.0072 37.0022 51.0072H52.0641C52.7114 51.0072 53.2359 50.4825 53.2359 49.8353C53.2359 49.1881 52.7114 48.6634 52.0641 48.6634H37.6713L48.9753 38.8739L51.6105 41.1559C53.0353 42.3898 54.8223 43.0069 56.6091 43.0069C58.3961 43.0069 60.183 42.3898 61.6078 41.1559L64.243 38.8739L75.547 48.6634H57.533C56.8856 48.6634 56.3611 49.1881 56.3611 49.8353C56.3611 50.4825 56.8856 51.0072 57.533 51.0072H63.5975L66.162 51.0075H71.4283L73.885 51.0073H76.2163C78.3111 51.0073 80.0153 49.303 80.0153 47.2081V27.4394C80.0156 26.3009 79.5116 25.2786 78.7158 24.5817ZM77.6589 27.2558L66.0334 37.3237L77.6589 47.3917C77.6666 47.3314 77.6666 27.3161 77.6589 27.2558ZM60.0738 39.3844C58.0991 41.0945 55.1202 41.0948 53.1452 39.3844L37.6717 25.9839H75.5474L60.0738 39.3844ZM35.56 27.2556C35.5523 27.3159 35.5523 47.3314 35.56 47.3916L47.1855 37.3236L35.56 27.2556Z" fill="#E6B400"/>
</g>
<defs>
<clipPath id="clip0_1996_28282">
<rect width="80" height="80" fill="white"/>
</clipPath>
</defs>
</svg>
