<svg width="80" height="80" viewBox="0 0 80 80" fill="none" xmlns="http://www.w3.org/2000/svg">
<path d="M67.9848 51.7641C64.9259 54.1171 61.5142 55.6465 61.5142 55.6465C60.9259 55.8818 60.6906 56.5876 60.9259 57.1759C61.1612 57.7641 61.8671 57.9994 62.4554 57.7641C66.6906 55.8818 69.6318 53.4112 69.7495 53.2935C70.4554 52.8229 71.1612 51.8818 72.4554 52.2347C73.5142 52.8229 74.1024 53.1759 73.9848 53.0582C74.573 53.6465 74.573 54.47 74.2201 55.1759C73.8671 55.7641 73.6318 55.7641 68.8083 60.5876C65.8671 63.5288 59.5142 69.6465 55.9848 71.7641C52.9259 73.5288 46.9259 74.1171 44.8083 74.1171C41.2789 74.1171 39.2789 72.8229 36.9259 71.7641C30.3377 69.0582 23.0436 67.9994 16.8083 71.5288C16.2201 71.8818 15.9848 72.5876 16.3377 73.1759C16.6906 73.7641 17.3965 73.9994 17.9848 73.6465C22.9259 70.9406 29.2789 71.5288 34.573 73.4112C38.1024 74.7053 39.8671 76.5876 44.9259 76.5876C47.8671 76.5876 53.9848 75.8818 57.1612 73.9994C62.3377 70.9406 68.573 64.1171 75.3965 57.7641C76.9259 56.3523 77.3965 53.9994 76.3377 52.47C75.8671 51.7641 74.8083 51.0582 73.9848 50.5876C71.8671 49.2935 69.5142 50.1171 67.9848 51.7641Z" fill="white"/>
<path d="M4.34053 75.2933C3.63465 75.2933 3.16406 75.7639 3.16406 76.4698C3.16406 77.1757 3.63465 77.6463 4.34053 77.6463H12.8111C13.517 77.6463 13.9876 77.1757 13.9876 76.4698C13.9876 74.8227 13.9876 82.3521 13.9876 60.4698C14.9288 59.9992 16.6935 58.5874 17.6347 57.2933C19.0464 55.5286 19.6346 53.2933 24.3405 52.5874C34.9288 51.1757 40.9288 58.9404 56.4582 60.4698C58.8111 60.9404 59.7523 64.2345 57.1641 64.5874C55.2817 64.8227 53.7523 63.7639 49.2817 62.8227C44.5758 61.7639 38.8111 61.7639 34.4582 63.8815C33.8699 64.1168 33.6346 64.8227 33.9876 65.411C34.3405 65.9992 34.9288 66.2345 35.517 65.8815C39.3994 63.9992 44.5758 64.1168 48.6935 64.9404C53.2817 65.9992 54.8111 67.058 57.3994 66.8227C60.9288 66.3521 61.9876 62.7051 59.8699 59.9992C58.1052 57.7639 55.6346 57.9992 55.1641 57.8816C49.6346 57.2933 41.9876 54.3521 36.9288 51.9992C34.2229 50.9404 31.517 50.2345 28.5758 49.9992V49.6463C28.5758 47.1757 30.5758 45.058 33.1641 45.058H46.4582C48.9288 45.058 51.0464 47.058 51.0464 49.6463V53.411C51.0464 54.1168 51.517 54.5874 52.2229 54.5874C52.9288 54.5874 53.3994 54.1168 53.3994 53.411V49.6463C53.3994 45.8816 50.3405 42.7051 46.4582 42.7051H33.2817C29.517 42.7051 26.3405 45.7639 26.3405 49.6463V49.8816C19.7523 49.9992 17.7523 53.058 17.517 53.1757C15.8699 54.9404 16.3405 55.411 13.8699 57.2933V55.058C13.8699 54.3521 13.3994 53.8815 12.6935 53.8815H4.34053C3.63465 53.8815 3.16406 54.3521 3.16406 55.058V69.1757C3.16406 69.8815 3.63465 70.3521 4.34053 70.3521C5.04642 70.3521 5.517 69.8815 5.517 69.1757C5.517 68.8227 5.517 56.1168 5.517 56.2345H11.6347V74.9404H4.34053V75.2933Z" fill="white"/>
<path d="M32.2266 33.5264C32.2266 37.7617 35.6383 41.2911 39.9913 41.2911C44.3442 41.2911 47.756 37.8794 47.756 33.5264C47.756 29.1735 44.3442 25.7617 39.9913 25.7617C35.6383 25.7617 32.2266 29.2911 32.2266 33.5264ZM45.403 33.5264C45.403 36.4676 42.9324 38.9382 39.9913 38.9382C37.0501 38.9382 34.5795 36.4676 34.5795 33.5264C34.5795 30.5852 37.0501 28.1147 39.9913 28.1147C42.9324 28.1147 45.403 30.5852 45.403 33.5264Z" fill="#E6B400"/>
<path d="M6.91866 38.3506H22.5657C23.2716 38.3506 23.7422 37.88 23.7422 37.1741C23.7422 33.0565 25.2716 29.1741 27.9775 26.2329C28.4481 25.7623 28.3304 25.0565 27.8598 24.5859C27.3892 24.1153 26.6834 24.2329 26.2128 24.7035C23.3892 27.88 21.6245 31.88 21.3892 36.1153H8.09513V32.3506C8.09513 31.6447 8.56572 31.1741 9.2716 31.1741H17.7422C18.6834 31.1741 19.6245 30.5859 19.9775 29.6447C20.2128 28.9388 20.5657 28.2329 20.801 27.5271C21.2716 26.5859 21.0363 25.5271 20.3304 24.8212L14.3304 18.8212C13.8598 18.3506 13.8598 17.6447 14.3304 17.1741L20.4481 11.0565C20.9187 10.5859 21.6245 10.5859 22.0951 11.0565L28.0951 17.0565C28.801 17.7624 29.8598 17.88 30.801 17.5271C31.5069 17.1741 32.2128 16.9388 32.9187 16.7035C33.8598 16.3506 34.4481 15.5271 34.4481 14.4682V5.88C34.4481 5.29176 34.9187 4.70353 35.6245 4.70353H44.2128C44.9187 4.70353 45.3892 5.17412 45.3892 5.88V14.3506C45.3892 15.2918 45.9775 16.2329 46.9187 16.5859C47.6245 16.8212 48.3304 17.1741 49.0363 17.4094C49.9775 17.88 51.0363 17.6447 51.7422 16.9388C55.9775 12.8212 57.2716 11.2918 57.8598 10.8212C58.3304 10.3506 59.0363 10.4682 59.3892 10.9388L65.5069 17.0565C65.9775 17.5271 65.9775 18.2329 65.5069 18.7035L59.5069 24.7035C58.801 25.4094 58.6834 26.4682 59.0363 27.4094C59.3892 28.1153 59.6245 28.8212 59.8598 29.5271C60.2128 30.4682 61.0363 31.0565 62.0951 31.0565H70.5657C71.1539 31.0565 71.7422 31.5271 71.7422 32.2329V35.9976H58.5657C57.9775 26.3506 49.8598 18.5859 39.9775 18.5859C36.6834 18.5859 33.3892 19.4094 30.5657 21.0565C29.9775 21.4094 29.8598 22.1153 30.0951 22.7035C30.4481 23.2918 31.154 23.4094 31.7422 23.1741C34.2128 21.7624 37.0363 20.9388 39.9775 20.9388C48.9187 20.9388 56.2128 28.2329 56.2128 37.1741C56.2128 37.88 56.6834 38.3506 57.3892 38.3506H73.0363C73.7422 38.3506 74.2128 37.88 74.2128 37.1741V32.2329C74.2128 30.2329 72.6834 28.7035 70.6834 28.7035H62.2128C61.9775 27.88 61.6245 27.1741 61.2716 26.3506L67.2716 20.3506C68.6834 18.9388 68.6834 16.7035 67.2716 15.4094L61.1539 9.29176C59.7422 7.88 57.5069 7.88 56.2128 9.29176L50.0951 15.2918C49.3892 14.9388 48.5657 14.5859 47.7422 14.3506V5.88C47.7422 3.88 46.2128 2.35059 44.2128 2.35059H35.6245C33.6245 2.35059 32.0951 3.88 32.0951 5.88V14.3506C31.2716 14.5859 30.5657 14.9388 29.7422 15.2918L23.7422 9.29176C22.3304 7.88 20.0951 7.88 18.801 9.29176L12.6834 15.4094C11.2716 16.8212 11.2716 19.0565 12.6834 20.3506L18.6834 26.3506C18.3304 27.0565 17.9775 27.88 17.7422 28.7035H9.2716C7.2716 28.7035 5.74219 30.2329 5.74219 32.2329V37.1741C5.74219 37.88 6.33042 38.3506 6.91866 38.3506Z" fill="#E6B400"/>
</svg>
