<svg width="80" height="80" viewBox="0 0 80 80" fill="none" xmlns="http://www.w3.org/2000/svg">
<path d="M24.7344 24.7188C24.7344 24.2016 25.1547 23.7813 25.6719 23.7813H32.2375C32.7547 23.7813 33.175 24.2016 33.175 24.7188C33.175 25.2359 32.7547 25.6563 32.2375 25.6563H25.6719C25.1531 25.6563 24.7344 25.2359 24.7344 24.7188ZM40.3734 32.2219H25.6703C25.1531 32.2219 24.7328 32.6422 24.7328 33.1594C24.7328 33.6766 25.1531 34.0969 25.6703 34.0969H40.3734C40.8906 34.0969 41.3109 33.6766 41.3109 33.1594C41.3109 32.6422 40.8922 32.2219 40.3734 32.2219ZM40.3734 39.0625H25.6703C25.1531 39.0625 24.7328 39.4828 24.7328 40C24.7328 40.5172 25.1531 40.9375 25.6703 40.9375H40.3734C40.8906 40.9375 41.3109 40.5172 41.3109 40C41.3109 39.4828 40.8922 39.0625 40.3734 39.0625ZM40.3734 45.9031H25.6703C25.1531 45.9031 24.7328 46.3234 24.7328 46.8406C24.7328 47.3578 25.1531 47.7781 25.6703 47.7781H40.3734C40.8906 47.7781 41.3109 47.3578 41.3109 46.8406C41.3109 46.3234 40.8922 45.9031 40.3734 45.9031ZM40.3734 52.7453H25.6703C25.1531 52.7453 24.7328 53.1656 24.7328 53.6828C24.7328 54.2 25.1531 54.6203 25.6703 54.6203H40.3734C40.8906 54.6203 41.3109 54.2 41.3109 53.6828C41.3109 53.1656 40.8922 52.7453 40.3734 52.7453ZM61.3578 40.9375H54.1203V61.725C54.1203 63.6578 55.6672 65.2297 57.5672 65.2297H64.3109C62.8953 64.1 61.9859 62.3609 61.9859 60.4125C61.9859 57.0141 64.7516 54.2484 68.15 54.2484C71.5484 54.2484 74.3141 57.0141 74.3141 60.4125C74.3141 62.5172 73.2531 64.3781 71.6375 65.4906C75.2188 66.4031 77.9781 69.4438 78.4094 73.2688C78.5516 74.5281 78.1797 75.6938 77.3344 76.6391C76.4891 77.5844 75.3734 78.0844 74.1062 78.0844H62.1969C60.9297 78.0844 59.8125 77.5844 58.9672 76.6391C58.1219 75.6938 57.7516 74.5281 57.8922 73.2688C58.1766 70.7422 59.4781 68.5594 61.3594 67.1031H57.5687C54.6344 67.1031 52.2469 64.6891 52.2469 61.7234V40.9375H48.3359V59.4781C48.3359 60.8516 47.2188 61.9703 45.8438 61.9703H22.5359C21.1625 61.9703 20.0438 60.8531 20.0438 59.4781V59.2922H18.8062C17.7734 59.2922 16.9266 58.4844 16.8781 57.4516L16.7562 54.8234C16.7547 54.7922 16.7469 54.7813 16.7156 54.7734C15.5859 54.45 14.4922 53.9969 13.4641 53.425C13.4375 53.4094 13.4234 53.4109 13.4 53.4328L11.4531 55.2047C10.6891 55.9 9.51875 55.8734 8.7875 55.1422L5.71094 52.0656C4.97969 51.3344 4.95313 50.1641 5.64844 49.4L7.42188 47.4531C7.44219 47.4297 7.44375 47.4156 7.42969 47.3891C6.85781 46.3609 6.40312 45.2656 6.08125 44.1375C6.07187 44.1078 6.0625 44.0984 6.03125 44.0969L3.40313 43.975C2.37031 43.9297 1.5625 43.0828 1.5625 42.0484V37.6969C1.5625 36.6641 2.37031 35.8172 3.40313 35.7688L6.03125 35.6469C6.0625 35.6453 6.07344 35.6375 6.08125 35.6078C6.40469 34.4781 6.85781 33.3844 7.42969 32.3563C7.44531 32.3297 7.44375 32.3156 7.42188 32.2922L5.64844 30.3453C4.95313 29.5813 4.97969 28.4109 5.71094 27.6797L8.7875 24.6031C9.51875 23.8719 10.6891 23.8453 11.4531 24.5406L13.4 26.3141C13.4234 26.3344 13.4375 26.3359 13.4641 26.3219C14.4922 25.75 15.5859 25.2969 16.7156 24.9734C16.7453 24.9656 16.7547 24.9547 16.7562 24.9234L16.8781 22.2953C16.9266 21.2625 17.7734 20.4547 18.8062 20.4547H20.0484C20.0844 19.1125 21.1859 18.0297 22.5359 18.0297H37.375V18.0313C37.6187 18.0313 37.8594 18.125 38.0375 18.3031L48.0594 28.325C48.2391 28.5047 48.3313 28.7438 48.3313 28.9875H48.3328V39.0625H52.2437V18.275C52.2437 15.3078 54.6313 12.8953 57.5656 12.8953H64.3094C62.8937 11.7656 61.9844 10.0266 61.9844 8.07813C61.9844 4.67969 64.75 1.91406 68.1484 1.91406C71.5469 1.91406 74.3125 4.67969 74.3125 8.07813C74.3125 10.1828 73.2516 12.0438 71.6359 13.1563C75.2172 14.0688 77.9766 17.1094 78.4078 20.9359C78.55 22.1953 78.1781 23.3609 77.3328 24.3063C76.4875 25.2516 75.3719 25.7516 74.1031 25.7516H62.1938C60.9266 25.7516 59.8094 25.2516 58.9641 24.3063C58.1187 23.3609 57.7484 22.1953 57.8891 20.9359C58.1734 18.4094 59.475 16.2266 61.3562 14.7703H57.5656C55.6656 14.7703 54.1187 16.3422 54.1187 18.275V39.0625H64.3094C62.8937 37.9328 61.9844 36.1938 61.9844 34.2453C61.9844 30.8469 64.75 28.0813 68.1484 28.0813C71.5469 28.0813 74.3125 30.8469 74.3125 34.2453C74.3125 36.35 73.2516 38.2109 71.6359 39.3234C75.2172 40.2359 77.9766 43.2766 78.4078 47.1031C78.55 48.3625 78.1781 49.5281 77.3328 50.4734C76.4875 51.4188 75.3719 51.9188 74.1031 51.9188H62.1938C60.9266 51.9188 59.8094 51.4188 58.9641 50.4734C58.1187 49.5281 57.7484 48.3625 57.8891 47.1031C58.175 44.5766 59.4766 42.3938 61.3578 40.9375ZM69.3844 14.7484H66.9141C63.2422 14.7484 60.1641 17.4984 59.7531 21.1453C59.6719 21.8703 59.8766 22.5125 60.3625 23.0563C60.8484 23.6 61.4641 23.875 62.1938 23.875H74.1031C74.8422 23.875 75.4406 23.6078 75.9344 23.0563C76.4266 22.5047 76.6266 21.8797 76.5437 21.1453C76.1344 17.4984 73.0563 14.7484 69.3844 14.7484ZM63.8609 8.07813C63.8609 10.4422 65.7844 12.3672 68.15 12.3672C70.5156 12.3672 72.4375 10.4422 72.4375 8.07813C72.4375 5.71406 70.5141 3.78906 68.1484 3.78906C65.7828 3.78906 63.8609 5.7125 63.8609 8.07813ZM38.3125 27.6484C38.3125 27.8703 38.4938 28.0516 38.7156 28.0516H45.1344L38.3125 21.2297V27.6484ZM20.0438 57.4172V47.625C16.1781 47.1594 13.1703 43.8625 13.1703 39.8719C13.1703 35.8828 16.1781 32.5844 20.0438 32.1188V22.3266H18.8062C18.7766 22.3266 18.7531 22.3484 18.7516 22.3797L18.6297 25.0078C18.5906 25.85 18.0422 26.5422 17.2312 26.7734C16.2391 27.0578 15.2781 27.4563 14.375 27.9578C13.6391 28.3672 12.7594 28.2656 12.1375 27.6969L10.1906 25.9234C10.1687 25.9031 10.1359 25.9047 10.1141 25.925L7.0375 29.0016C7.01719 29.0219 7.01562 29.0563 7.03594 29.0781L8.80938 31.025C9.37656 31.6484 9.47969 32.5266 9.07031 33.2625C8.56719 34.1672 8.16875 35.1281 7.88594 36.1188C7.65469 36.9281 6.96094 37.4766 6.12031 37.5156L3.49219 37.6375C3.4625 37.6391 3.43906 37.6625 3.43906 37.6922V42.0438C3.43906 42.0734 3.4625 42.0984 3.49219 42.0984L6.12031 42.2203C6.9625 42.2594 7.65469 42.8078 7.88594 43.6172C8.16875 44.6078 8.56875 45.5688 9.07031 46.4734C9.47969 47.2094 9.37813 48.0891 8.80938 48.7125L7.03594 50.6594C7.01562 50.6813 7.01719 50.7141 7.0375 50.7359L10.1141 53.8125C10.1344 53.8328 10.1687 53.8344 10.1906 53.8141L12.1359 52.0406C12.7594 51.4734 13.6375 51.3703 14.3734 51.7797C15.2766 52.2813 16.2375 52.6797 17.2297 52.9641C18.0391 53.1953 18.5891 53.8891 18.6281 54.7297L18.75 57.3578C18.7516 57.3875 18.775 57.4109 18.8047 57.4109H20.0438V57.4172ZM15.0453 39.8734C15.0453 42.8281 17.2141 45.2844 20.0438 45.7344V34.0125C17.2156 34.4641 15.0453 36.9188 15.0453 39.8734ZM46.4609 59.4797V29.9266H38.7172C37.4609 29.9266 36.4391 28.9047 36.4391 27.6484V19.9047H22.5375C22.1969 19.9047 21.9203 20.1813 21.9203 20.5219V59.4797C21.9203 59.8203 22.1969 60.0969 22.5375 60.0969H45.8438C46.1844 60.0953 46.4609 59.8188 46.4609 59.4797ZM69.3844 67.0828H66.9141V67.1047H66.3719C62.9422 67.3594 60.1422 70.0141 59.7531 73.4797C59.6703 74.2141 59.8703 74.8391 60.3625 75.3906C60.8484 75.9344 61.4641 76.2094 62.1938 76.2094H74.1031C74.8422 76.2094 75.4406 75.9422 75.9344 75.3906C76.4266 74.8391 76.6266 74.2141 76.5437 73.4797C76.1344 69.8328 73.0563 67.0828 69.3844 67.0828ZM63.8609 60.4141C63.8609 62.7781 65.7844 64.7031 68.15 64.7031C70.5156 64.7031 72.4391 62.7797 72.4391 60.4141C72.4391 58.0484 70.5156 56.125 68.15 56.125C65.7844 56.125 63.8609 58.0484 63.8609 60.4141ZM63.8609 34.2453C63.8609 36.6094 65.7844 38.5344 68.15 38.5344C70.5156 38.5344 72.4391 36.6109 72.4391 34.2453C72.4391 31.8797 70.5156 29.9563 68.15 29.9563C65.7844 29.9563 63.8609 31.8813 63.8609 34.2453ZM66.3719 40.9375C62.9437 41.1938 60.1453 43.8469 59.7547 47.3125C59.6719 48.0469 59.8719 48.6719 60.3641 49.2234C60.85 49.7672 61.4656 50.0422 62.1953 50.0422H74.1047C74.8438 50.0422 75.4422 49.775 75.9359 49.2234C76.4281 48.6719 76.6281 48.0469 76.5453 47.3125C76.1359 43.6656 73.0563 40.9156 69.3844 40.9156H66.9141V40.9375H66.3719Z" fill="white"/>
<path fill-rule="evenodd" clip-rule="evenodd" d="M24.7344 24.7211C24.7344 24.2039 25.1547 23.7836 25.6719 23.7836H32.2375C32.7547 23.7836 33.175 24.2039 33.175 24.7211C33.175 25.2383 32.7547 25.6586 32.2375 25.6586H25.6719C25.1531 25.6586 24.7344 25.2383 24.7344 24.7211ZM40.3734 32.2242H25.6703C25.1531 32.2242 24.7328 32.6445 24.7328 33.1617C24.7328 33.6789 25.1531 34.0992 25.6703 34.0992H40.3734C40.8906 34.0992 41.3109 33.6789 41.3109 33.1617C41.3109 32.6445 40.8922 32.2242 40.3734 32.2242ZM40.3734 39.0648H25.6703C25.1531 39.0648 24.7328 39.4852 24.7328 40.0023C24.7328 40.5195 25.1531 40.9398 25.6703 40.9398H40.3734C40.8906 40.9398 41.3109 40.5195 41.3109 40.0023C41.3109 39.4852 40.8922 39.0648 40.3734 39.0648ZM40.3734 45.9055H25.6703C25.1531 45.9055 24.7328 46.3258 24.7328 46.843C24.7328 47.3602 25.1531 47.7805 25.6703 47.7805H40.3734C40.8906 47.7805 41.3109 47.3602 41.3109 46.843C41.3109 46.3258 40.8922 45.9055 40.3734 45.9055ZM40.3734 52.7477H25.6703C25.1531 52.7477 24.7328 53.168 24.7328 53.6852C24.7328 54.2023 25.1531 54.6227 25.6703 54.6227H40.3734C40.8906 54.6227 41.3109 54.2023 41.3109 53.6852C41.3109 53.168 40.8922 52.7477 40.3734 52.7477Z" fill="#E6B400"/>
<path d="M13.1703 39.8742C13.1703 43.8648 16.1781 47.1617 20.0438 47.6273V45.7367C17.2141 45.2867 15.0453 42.8305 15.0453 39.8758C15.0453 36.9211 17.2156 34.4664 20.0438 34.0148V32.1211C16.1781 32.5867 13.1703 35.8852 13.1703 39.8742Z" fill="#E6B400"/>
<path d="M18.8063 59.2945H20.0438V57.4195V57.4133H18.8047C18.775 57.4133 18.7516 57.3898 18.75 57.3602L18.6281 54.732C18.5891 53.8914 18.0391 53.1977 17.2297 52.9664C16.2375 52.682 15.2766 52.2836 14.3734 51.782C13.6375 51.3727 12.7594 51.4758 12.1359 52.043L10.1906 53.8164C10.1688 53.8367 10.1344 53.8352 10.1141 53.8148L7.0375 50.7383C7.01719 50.7164 7.01563 50.6836 7.03594 50.6617L8.80938 48.7148C9.37813 48.0914 9.47969 47.2117 9.07031 46.4758C8.56875 45.5711 8.16875 44.6102 7.88594 43.6195C7.65469 42.8102 6.9625 42.2617 6.12031 42.2227L3.49219 42.1008C3.4625 42.1008 3.43906 42.0758 3.43906 42.0461V37.6945C3.43906 37.6648 3.4625 37.6414 3.49219 37.6398L6.12031 37.518C6.96094 37.4789 7.65469 36.9305 7.88594 36.1211C8.16875 35.1305 8.56719 34.1695 9.07031 33.2648C9.47969 32.5289 9.37656 31.6508 8.80938 31.0273L7.03594 29.0805C7.01563 29.0586 7.01719 29.0242 7.0375 29.0039L10.1141 25.9273C10.1359 25.907 10.1688 25.9055 10.1906 25.9258L12.1375 27.6992C12.7594 28.268 13.6391 28.3695 14.375 27.9602C15.2781 27.4586 16.2391 27.0602 17.2313 26.7758C18.0422 26.5445 18.5906 25.8523 18.6297 25.0102L18.7516 22.382C18.7531 22.3508 18.7766 22.3289 18.8063 22.3289H20.0438L20.0484 20.457H18.8063C17.7734 20.457 16.9266 21.2648 16.8781 22.2977L16.7563 24.9258C16.7547 24.957 16.7453 24.968 16.7156 24.9758C15.5859 25.2992 14.4922 25.7523 13.4641 26.3242C13.4375 26.3383 13.4234 26.3367 13.4 26.3164L11.4531 24.543C10.6891 23.8477 9.51875 23.8742 8.7875 24.6055L5.71094 27.682C4.97969 28.4133 4.95313 29.5836 5.64844 30.3477L7.42188 32.2945C7.44375 32.318 7.44531 32.332 7.42969 32.3586C6.85781 33.3867 6.40469 34.4805 6.08125 35.6102C6.07344 35.6398 6.0625 35.6477 6.03125 35.6492L3.40313 35.7711C2.37031 35.8195 1.5625 36.6664 1.5625 37.6992V42.0508C1.5625 43.0852 2.37031 43.932 3.40313 43.9773L6.03125 44.0992C6.0625 44.1008 6.07188 44.1102 6.08125 44.1398C6.40312 45.268 6.85781 46.3633 7.42969 47.3914C7.44375 47.418 7.44219 47.432 7.42188 47.4555L5.64844 49.4023C4.95313 50.1664 4.97969 51.3367 5.71094 52.068L8.7875 55.1445C9.51875 55.8758 10.6891 55.9023 11.4531 55.207L13.4 53.4352C13.4234 53.4133 13.4375 53.4117 13.4641 53.4273C14.4922 53.9992 15.5859 54.4523 16.7156 54.7758C16.7469 54.7836 16.7547 54.7945 16.7563 54.8258L16.8781 57.4539C16.9266 58.4867 17.7734 59.2945 18.8063 59.2945Z" fill="#E6B400"/>
</svg>
