<svg width="80" height="80" viewBox="0 0 80 80" fill="none" xmlns="http://www.w3.org/2000/svg">
<g clip-path="url(#clip0_1996_28318)">
<path d="M79.8428 36.9962C79.5191 36.4356 78.8024 36.244 78.242 36.5673L69.5791 41.569C63.9279 39.0401 61.6229 42.0006 61.0171 43.0501C60.6759 43.6412 60.0809 45.0021 60.5202 46.7263C58.8915 46.012 57.4024 45.6962 56.077 45.7878C54.3104 45.9102 52.8743 46.7802 52.0332 48.2371C51.3778 49.3724 51.214 50.6421 51.5403 51.9004C49.9147 51.189 48.4281 50.8743 47.1076 50.9662C45.3411 51.0888 43.905 51.9587 43.0639 53.4155C42.3916 54.5801 42.2356 55.886 42.5964 57.1758C37.0427 54.6786 34.7108 57.4736 34.0474 58.5771L26.1415 63.1416C23.6668 64.5708 22.2463 63.3103 21.4905 62.0014C20.7349 60.6927 20.3538 58.8325 22.8285 57.4036L29.1802 53.7363C29.7407 53.4127 29.9327 52.696 29.6091 52.1355C29.2855 51.5751 28.5685 51.3832 28.0083 51.7066L17.2623 57.911C16.227 58.5086 15.291 58.6844 14.4801 58.4339C13.5662 58.1515 12.9596 57.3736 12.6115 56.7708C11.8582 55.466 11.4767 53.6137 13.926 52.1866L23.8788 46.4404C24.4393 46.1168 24.6313 45.4001 24.3077 44.8396C23.9841 44.2792 23.2671 44.0873 22.7069 44.4107L11.5101 50.8751C10.4748 51.4726 9.53887 51.6483 8.72794 51.398C7.81404 51.1155 7.20748 50.3377 6.85935 49.7349C6.10373 48.4262 5.72264 46.566 8.19732 45.1371L33.8847 30.3064C34.4452 29.9828 34.6372 29.2661 34.3136 28.7056C33.9899 28.1452 33.2732 27.9533 32.7128 28.2767L9.78325 41.5154L8.1856 40.5929L18.074 23.466C18.2842 23.5046 18.497 23.525 18.7101 23.525C19.3145 23.525 19.9188 23.3694 20.4582 23.058L27.8283 18.8029C32.3628 16.1851 37.2066 15.9785 41.1175 18.2365L44.1501 19.9874C44.7106 20.3107 45.4273 20.1189 45.7509 19.5585C46.0745 18.998 45.8825 18.2813 45.322 17.9577L43.2844 16.7813C46.1658 16.4427 49.2795 17.133 52.172 18.8029L59.5421 23.058C60.0815 23.3694 60.6859 23.525 61.2902 23.525C61.8969 23.525 62.504 23.3682 63.0448 23.0542L71.5944 18.0943C72.1543 17.7696 72.3447 17.0524 72.02 16.4926C71.6954 15.9329 70.9785 15.7419 70.4183 16.0669L61.8687 21.0269C61.5126 21.2335 61.0702 21.2338 60.714 21.0282L53.3439 16.773C48.9881 14.2583 44.1489 13.6774 39.9909 15.153C35.8422 13.6988 31.0229 14.2518 26.6563 16.773L19.2862 21.0282C19.1513 21.106 19.0042 21.1541 18.854 21.173C18.7682 20.4655 18.3656 19.8047 17.7024 19.4218L14.046 17.3108C14.0456 17.1088 14.0215 16.9055 13.9678 16.7052C13.8057 16.1005 13.4178 15.5951 12.8757 15.2821L1.75797 8.86321C1.19766 8.53978 0.480629 8.73149 0.157193 9.29212C-0.1664 9.85258 0.0256308 10.5693 0.586097 10.8929L11.7036 17.3119L5.12545 28.7056C4.80186 29.2661 4.99389 29.9828 5.55436 30.3064C6.11483 30.6298 6.8317 30.438 7.15513 29.8775L13.1475 19.4985L16.5304 21.4516L6.15576 39.4211L2.77296 37.4679L4.92077 33.7476C5.24436 33.1872 5.05233 32.4705 4.49186 32.1469C3.93093 31.8233 3.21437 32.0151 2.89109 32.5758L0.157193 37.3111C-0.1664 37.8715 0.0256308 38.5882 0.586097 38.9118L7.43951 42.8685L7.0256 43.1074C3.92671 44.8967 3.08515 47.8851 4.82967 50.9068C5.62936 52.2918 6.7381 53.236 8.03591 53.6373C8.49919 53.7804 9.09403 53.8843 9.79872 53.8394C9.51528 55.1201 9.76512 56.5276 10.5822 57.9425C11.3818 59.3275 12.4906 60.2718 13.7884 60.673C14.792 60.983 16.4126 61.108 18.4345 59.9405L18.5715 59.8613C18.5185 60.9202 18.8093 62.0443 19.461 63.173C21.2054 66.1945 24.2143 66.96 27.3135 65.171L27.5408 65.0397C27.4879 66.0983 27.7786 67.2227 28.4304 68.3513C29.2299 69.7362 30.3386 70.6805 31.6364 71.0817C32.0257 71.202 32.5075 71.2944 33.0697 71.2944C33.9574 71.2944 35.0449 71.0639 36.2827 70.3492L39.6503 68.4048C41.2223 69.2698 42.9947 70.2467 43.1725 70.3492C44.4105 71.0639 45.498 71.2944 46.3854 71.2944C46.9475 71.2944 47.4295 71.2019 47.8186 71.0817C49.1164 70.6806 50.225 69.7364 51.0248 68.3513C51.6768 67.222 51.9648 66.098 51.9115 65.0389L52.1434 65.1719C53.2514 65.8111 54.3473 66.1239 55.3784 66.1238C57.231 66.1238 58.8735 65.1136 59.9941 63.1728C60.6459 62.0441 60.9362 60.9202 60.883 59.8614L61.022 59.9411C62.2594 60.6553 63.3463 60.8855 64.2338 60.8855C64.7958 60.8855 65.2779 60.793 65.6669 60.6728C66.9647 60.2718 68.0733 59.3275 68.8732 57.9424C69.6902 56.5272 69.9379 55.1201 69.6539 53.839C69.7675 53.8463 69.8785 53.8498 69.9863 53.8498C70.5483 53.8498 71.0303 53.7573 71.4194 53.6371C72.7172 53.236 73.8258 52.2918 74.6256 50.9066C76.3702 47.8851 75.5286 44.8965 72.4297 43.1073C72.2753 43.0181 72.1382 42.939 72.0158 42.8682L79.4141 38.5967C79.9744 38.2734 80.1666 37.5567 79.8428 36.9962ZM35.1108 68.3197C34.0755 68.9173 33.1393 69.093 32.3285 68.8427C31.4146 68.5602 30.8082 67.7824 30.46 67.1795C29.7072 65.8753 29.3257 64.0242 31.7711 62.5974L33.3907 61.6624C33.4625 62.2336 33.6336 62.8074 33.9086 63.3703C34.5441 64.6714 35.6963 65.8992 37.3406 67.0324L35.1108 68.3197ZM48.9951 67.1795C48.647 67.7822 48.0404 68.5602 47.1265 68.8427C46.3161 69.0936 45.3797 68.9175 44.3442 68.3195C44.0372 68.1423 40.2622 66.0666 39.777 65.7999C37.8866 64.7067 36.5858 63.5113 36.0147 62.3417C35.5781 61.448 35.586 60.5982 36.0377 59.8157C37.0752 58.0191 39.7153 58.1133 43.1002 60.0678C43.1067 60.0716 43.1134 60.0755 43.12 60.0791L47.6667 62.5872C50.1309 64.0153 49.7498 65.8725 48.9951 67.1795ZM57.9645 62.0011C57.2087 63.3099 55.7884 64.5699 53.3135 63.1413C53.3126 63.1407 53.3115 63.1402 53.3106 63.1396L48.8434 60.5772C46.9473 59.4825 45.643 58.2847 45.0706 57.1132C44.634 56.2194 44.6419 55.3696 45.0936 54.5871C45.5453 53.8046 46.2775 53.3729 47.2698 53.304C47.3647 53.2974 47.4615 53.2943 47.5603 53.2943C48.8178 53.2943 50.3984 53.8247 52.1589 54.841L56.6262 57.4033C59.1012 58.8322 58.7201 60.6924 57.9645 62.0011ZM66.8433 56.7707C66.4952 57.3733 65.8887 58.1513 64.9747 58.4338C64.1641 58.6849 63.2277 58.5086 62.1926 57.9108C62.1916 57.9102 62.1905 57.9097 62.1896 57.9091L57.8126 55.3988C55.9165 54.3041 54.612 53.1063 54.0398 51.9349C53.6032 51.0412 53.611 50.1913 54.0628 49.4088C54.5146 48.6262 55.2467 48.1946 56.239 48.1257C56.3338 48.1191 56.4306 48.1159 56.5295 48.1159C57.787 48.1159 59.3676 48.6465 61.128 49.6627L65.5052 52.1729C67.9802 53.6018 67.599 55.4619 66.8433 56.7707ZM72.5958 49.7349C72.2477 50.3376 71.6411 51.1155 70.7272 51.398C69.9166 51.649 68.9802 51.4729 67.9451 50.8751L66.7965 50.2119C63.4113 48.2576 62.0096 46.0184 63.0468 44.2218C64.0802 42.4318 66.7054 42.519 70.0735 44.4534L71.2577 45.1371C73.7325 46.566 73.3513 48.4263 72.5958 49.7349Z" fill="white"/>
<path d="M52.6727 22.1925L49.773 20.5185C49.2122 20.195 48.4957 20.3868 48.1722 20.9474C47.8486 21.5079 48.0407 22.2246 48.6011 22.5482L51.5008 24.2222C52.7677 24.9538 53.4538 26.4143 53.208 27.8566C52.7529 30.5271 52.9461 34.0235 53.1014 36.8329C53.1369 37.4736 53.1702 38.0788 53.1927 38.6172C53.2718 40.5263 52.0925 41.4058 51.0588 41.579C49.0986 41.9066 47.6624 40.1844 47.1086 38.3318C46.1808 35.2274 45.8068 32.2554 45.9971 29.4985C46.0279 29.0518 45.8013 28.6265 45.4135 28.4025L45.1961 28.2772C42.5789 26.7661 40.2404 26.188 37.8372 26.4604C37.1941 26.533 36.7316 27.1132 36.8044 27.7563C36.8771 28.3994 37.4583 28.8644 38.1004 28.7891C39.863 28.5902 41.6258 29.0008 43.6199 30.0808C43.5189 32.9043 43.9361 35.9018 44.8632 39.0029C45.9083 42.5002 48.3707 43.9599 50.6088 43.9597C50.8924 43.9597 51.1727 43.9363 51.4458 43.8907C53.9666 43.4685 55.6479 41.2602 55.5343 38.5204C55.5114 37.9658 55.4775 37.3527 55.4416 36.7036C55.2927 34.0116 55.1074 30.661 55.5183 28.2504C55.9282 25.8463 54.7846 23.4119 52.6727 22.1925Z" fill="#E6B400"/>
<path d="M74.8842 16.0031C75.0837 16.0031 75.286 15.9522 75.4712 15.8447L79.4131 13.5578C79.9729 13.2331 80.1634 12.516 79.8387 11.9561C79.514 11.3964 78.7971 11.2056 78.237 11.5305L74.2949 13.8175C73.7351 14.1422 73.5446 14.8594 73.8693 15.4192C74.0868 15.7939 74.4799 16.0031 74.8842 16.0031Z" fill="#E6B400"/>
</g>
<defs>
<clipPath id="clip0_1996_28318">
<rect width="80" height="80" fill="white"/>
</clipPath>
</defs>
</svg>
