<svg width="80" height="80" viewBox="0 0 80 80" fill="none" xmlns="http://www.w3.org/2000/svg">
<g clip-path="url(#clip0_1996_28269)">
<path d="M51.2504 25H56.2504C56.9417 25 57.5004 24.44 57.5004 23.75C57.5004 23.06 56.9417 22.5 56.2504 22.5H53.4867L59.7904 12.2575C60.2554 12.4 60.7392 12.5 61.2504 12.5C64.0079 12.5 66.2504 10.2575 66.2504 7.5C66.2504 4.7425 64.0079 2.5 61.2504 2.5C58.4929 2.5 56.2504 4.7425 56.2504 7.5C56.2504 8.84375 56.7892 10.0588 57.6542 10.9587L50.1854 23.095C49.9479 23.4812 49.9379 23.9638 50.1592 24.36C50.3804 24.7563 50.7979 25 51.2504 25ZM61.2504 5C62.6292 5 63.7504 6.12125 63.7504 7.5C63.7504 8.87875 62.6292 10 61.2504 10C59.8717 10 58.7504 8.87875 58.7504 7.5C58.7504 6.12125 59.8717 5 61.2504 5Z" fill="#E6B400"/>
<path d="M61.2504 67.5C60.7392 67.5 60.2554 67.6 59.7904 67.7425L53.4867 57.5H56.2504C56.9417 57.5 57.5004 56.94 57.5004 56.25C57.5004 55.56 56.9417 55 56.2504 55H51.2504C50.7979 55 50.3804 55.245 50.1592 55.64C49.9379 56.035 49.9479 56.5187 50.1854 56.905L57.6542 69.0413C56.7892 69.9413 56.2504 71.1562 56.2504 72.5C56.2504 75.2575 58.4929 77.5 61.2504 77.5C64.0079 77.5 66.2504 75.2575 66.2504 72.5C66.2504 69.7425 64.0079 67.5 61.2504 67.5ZM61.2504 75C59.8717 75 58.7504 73.8787 58.7504 72.5C58.7504 71.1213 59.8717 70 61.2504 70C62.6292 70 63.7504 71.1213 63.7504 72.5C63.7504 73.8787 62.6292 75 61.2504 75Z" fill="#E6B400"/>
<path d="M61.25 21.25C61.25 22.3525 61.62 23.3638 62.2275 24.1913L54.4075 33.75H36.25C35.5588 33.75 35 34.31 35 35C35 35.69 35.5588 36.25 36.25 36.25H55C55.375 36.25 55.73 36.0812 55.9675 35.7912L64.16 25.7775C64.7987 26.0737 65.5025 26.25 66.25 26.25C69.0075 26.25 71.25 24.0075 71.25 21.25C71.25 18.4925 69.0075 16.25 66.25 16.25C63.4925 16.25 61.25 18.4925 61.25 21.25ZM68.75 21.25C68.75 22.6287 67.6287 23.75 66.25 23.75C64.8713 23.75 63.75 22.6287 63.75 21.25C63.75 19.8712 64.8713 18.75 66.25 18.75C67.6287 18.75 68.75 19.8712 68.75 21.25Z" fill="#E6B400"/>
<path d="M66.25 53.75C65.5012 53.75 64.7987 53.9262 64.1612 54.2225L55.9688 44.2088C55.73 43.9188 55.375 43.75 55 43.75H36.25C35.5588 43.75 35 44.31 35 45C35 45.69 35.5588 46.25 36.25 46.25H54.4075L62.2262 55.8087C61.62 56.6362 61.25 57.6475 61.25 58.75C61.25 61.5075 63.4925 63.75 66.25 63.75C69.0075 63.75 71.25 61.5075 71.25 58.75C71.25 55.9925 69.0075 53.75 66.25 53.75ZM66.25 61.25C64.8713 61.25 63.75 60.1287 63.75 58.75C63.75 57.3713 64.8713 56.25 66.25 56.25C67.6287 56.25 68.75 57.3713 68.75 58.75C68.75 60.1287 67.6287 61.25 66.25 61.25Z" fill="#E6B400"/>
<path d="M75 35C72.6763 35 70.7362 36.6 70.1775 38.75H58.75C58.0588 38.75 57.5 39.31 57.5 40C57.5 40.69 58.0588 41.25 58.75 41.25H70.1775C70.7362 43.4 72.6763 45 75 45C77.7575 45 80 42.7575 80 40C80 37.2425 77.7575 35 75 35ZM75 42.5C73.6213 42.5 72.5 41.3787 72.5 40C72.5 38.6212 73.6213 37.5 75 37.5C76.3787 37.5 77.5 38.6212 77.5 40C77.5 41.3787 76.3787 42.5 75 42.5Z" fill="#E6B400"/>
<path d="M46.25 55H40.4625C32.1762 55 25.3875 48.7313 25.0113 40.7288C24.8175 36.5775 26.2837 32.6425 29.1425 29.6475C32.0012 26.65 35.8575 25 40 25H46.25C46.9412 25 47.5 24.44 47.5 23.75V2.5C47.5 1.12125 46.3787 0 45 0H35C33.6213 0 32.5 1.12125 32.5 2.5L32.4875 7.10625C28.8075 7.93375 25.2913 9.38375 22.0362 11.4313L18.7975 8.18C17.8525 7.235 16.1963 7.23625 15.2537 8.18L8.17875 15.255C7.2025 16.2313 7.2025 17.82 8.18 18.7987L11.4163 22.0387C9.3825 25.2925 7.9325 28.8075 7.1125 32.5H2.5C1.12125 32.5 0 33.6213 0 35V45C0 46.3787 1.12125 47.5 2.5 47.5L7.10625 47.5112C7.9325 51.1912 9.3825 54.7075 11.43 57.9637L8.1775 61.2038C7.2025 62.1813 7.2025 63.77 8.17875 64.745L15.2525 71.82C16.1975 72.765 17.8512 72.7663 18.7987 71.8188L22.0387 68.585C25.2925 70.6162 28.8075 72.0663 32.5 72.8875V77.5C32.5 78.8788 33.6213 80 35 80H45C46.3787 80 47.5 78.8788 47.5 77.5V56.25C47.5 55.56 46.9412 55 46.25 55ZM40 22.5C35.1675 22.5 30.6687 24.4263 27.3325 27.9212C23.9987 31.415 22.2875 36.005 22.5138 40.8462C22.9537 50.185 30.8387 57.5 40.4625 57.5H45V61.25H40C28.2825 61.25 18.75 51.7175 18.75 40C18.75 28.2825 28.2825 18.75 40 18.75H45V22.5H40ZM35 77.5V72.8875C35 71.7325 34.1987 70.7337 33.0375 70.455C29.6313 69.6888 26.3775 68.3462 23.375 66.4712C22.9638 66.2087 22.4963 66.08 22.03 66.08C21.3838 66.08 20.7437 66.3275 20.265 66.805L17.0225 70.0537L9.94625 62.9725L13.1975 59.7337C14.0175 58.9125 14.1588 57.605 13.5363 56.6375C11.6538 53.6225 10.3112 50.3675 9.5425 46.9463C9.26625 45.8 8.2675 45 7.1125 45H2.5V35H7.1125C8.2675 35 9.26625 34.2 9.54375 33.0363C10.3088 29.6313 11.6525 26.3763 13.5275 23.375C14.1562 22.395 14.0163 21.0875 13.1938 20.265L9.945 17.0225L17.025 9.945L20.265 13.1975C21.0825 14.0162 22.3912 14.1575 23.3612 13.5363C26.3762 11.655 29.6313 10.3112 33.0537 9.54125C34.1987 9.26625 35 8.2675 35 7.1125V2.5L45 2.50375V16.25H40C26.9037 16.25 16.25 26.9037 16.25 40C16.25 53.0962 26.9037 63.75 40 63.75H45V77.5H35Z" fill="white"/>
</g>
<defs>
<clipPath id="clip0_1996_28269">
<rect width="80" height="80" fill="white"/>
</clipPath>
</defs>
</svg>
