<svg width="80" height="80" viewBox="0 0 80 80" fill="none" xmlns="http://www.w3.org/2000/svg">
<g clip-path="url(#clip0_1996_28260)">
<path d="M30.635 41.2438C31.0459 41.2438 31.427 41.0284 31.6389 40.6763L33.7531 37.1645L36.5547 41.6164C36.7738 41.9647 37.1566 42.1714 37.5711 42.1639C37.9825 42.1553 38.3592 41.9316 38.5636 41.5744L43.0737 33.6937L49.1313 44.7328C49.3334 45.1012 49.7175 45.3333 50.1378 45.3408C50.1447 45.3408 50.1517 45.3409 50.1586 45.3409C50.5709 45.3409 50.9538 45.1239 51.1653 44.7688L54.9392 38.4334H64.0395C64.6867 38.4334 65.2114 37.9088 65.2114 37.2616C65.2114 36.6144 64.6867 36.0897 64.0395 36.0897H54.2733C53.8603 36.0897 53.4778 36.307 53.2666 36.6619L50.2003 41.8091L44.1227 30.7331C43.9186 30.3614 43.5298 30.1289 43.1058 30.125C43.1022 30.125 43.0987 30.125 43.0952 30.125C42.6752 30.125 42.287 30.3498 42.0781 30.7147L37.4987 38.7162L34.7228 34.3052C34.5081 33.9641 34.1336 33.7575 33.7309 33.7575C33.7272 33.7575 33.7233 33.7575 33.7194 33.7575C33.3125 33.7614 32.9369 33.9762 32.727 34.3248L29.9727 38.9H23.3125C22.6653 38.9 22.1406 39.4247 22.1406 40.0719C22.1406 40.7191 22.6653 41.2438 23.3125 41.2438H30.635Z" fill="#E6B400"/>
<path d="M66.0972 8.71875C65.45 8.71875 64.9253 9.24344 64.9253 9.89062V13.3475H61.4687C60.8216 13.3475 60.2969 13.8722 60.2969 14.5194C60.2969 15.1666 60.8216 15.6912 61.4687 15.6912H64.9253V19.1483C64.9253 19.7955 65.45 20.3202 66.0972 20.3202C66.7444 20.3202 67.2691 19.7955 67.2691 19.1483V15.6912H70.7256C71.3728 15.6912 71.8975 15.1666 71.8975 14.5194C71.8975 13.8722 71.3728 13.3475 70.7256 13.3475H67.2691V9.89062C67.2691 9.24344 66.7444 8.71875 66.0972 8.71875Z" fill="#E6B400"/>
<path d="M70.2438 48.8672C75.953 42.7636 77.5892 33.5341 74.4509 25.6216C77.8186 23.0834 80 19.0505 80 14.517C80 6.85687 73.7684 0.625 66.1087 0.625C62.9623 0.625 59.8813 1.70484 57.4328 3.66562C56.9277 4.07016 56.8461 4.80766 57.2506 5.31281C57.6552 5.81781 58.3927 5.89953 58.8978 5.495C60.9616 3.84219 63.455 2.96875 66.1086 2.96875C72.4758 2.96875 77.6561 8.14937 77.6561 14.517C77.6561 20.8873 72.4759 26.0698 66.1086 26.0698C60.18 26.0698 55.2827 21.5795 54.6323 15.8216C54.6311 15.8083 54.6289 15.7948 54.6272 15.7814C54.5817 15.3659 54.5566 14.9444 54.5566 14.517C54.5566 12.7083 54.963 10.9786 55.7642 9.37578C56.0536 8.79688 55.8189 8.09297 55.2402 7.80344C54.6608 7.51422 53.9573 7.74875 53.6678 8.3275C52.7023 10.2586 52.2128 12.3411 52.2128 14.5169C52.2128 14.7137 52.218 14.9094 52.2261 15.1044C49.267 16.162 46.505 17.9016 44.1903 20.178L42.895 21.4514C42.8888 21.4452 42.8841 21.4405 42.8778 21.4342L41.6044 20.1795C37.4841 16.117 32.0903 13.8467 26.8044 13.9561C22.4059 14.0467 18.5138 15.7702 15.5497 18.9389C15.1075 19.4123 15.1325 20.1545 15.6059 20.5967C16.0794 21.0373 16.82 21.0139 17.2622 20.5405C19.7841 17.8436 23.0997 16.3764 26.8528 16.2998C31.5091 16.2045 36.2856 18.228 39.9591 21.8483L41.2341 23.1045C41.8497 23.7108 42.3747 24.0123 42.8981 24.0123C43.4169 24.0123 43.9341 23.7155 44.5387 23.1217L45.8341 21.8483C47.7805 19.9352 50.0762 18.4455 52.5341 17.49C53.8992 23.7288 59.4666 28.4134 66.1084 28.4134C68.3823 28.4134 70.5303 27.8641 72.4267 26.8909C75.0234 33.8755 73.5325 41.9106 68.5403 47.2559L51.7172 64.4766L50.325 64.7484C49.9875 64.8141 49.6891 64.8734 49.4172 64.9281C47.6516 65.2859 47.2297 65.3703 45.1625 65.0516L35.1391 63.2187C33.7734 62.7469 33.9109 61.6594 33.9875 61.3328C34.1078 60.825 34.5797 60.0047 35.5938 60.1578C35.6031 60.1594 35.6125 60.1609 35.6219 60.1625C36.0734 60.2203 36.5578 60.2828 37.0641 60.3469C38.9625 60.5922 41.1125 60.8688 43.0219 61.0641C46.9281 61.4594 49.1375 59.4094 49.5969 57.2C50.0641 54.9484 48.7812 51.9547 44.8594 50.7031C44.8125 50.6891 44.7641 50.6766 44.7141 50.6672L38.2594 49.4828C34.7562 48.8406 32.0312 49.3359 27.9062 50.0859C26.8156 50.2844 25.5781 50.5078 24.2 50.7344L21.1406 51.2375L20.1984 50.2734L17.2531 47.2578C11.7484 41.3562 10.5281 32.1125 14.2906 24.7734C14.5859 24.1984 14.3578 23.4922 13.7828 23.1969C13.2063 22.9016 12.5 23.1281 12.2047 23.7047C7.99844 31.9109 9.37344 42.2578 15.55 48.8672C15.5562 48.8734 15.5625 48.8797 15.5672 48.8859L18.3172 51.7016L13.1956 52.5434V52.4097C13.1956 51.5048 12.3973 50.7687 11.4161 50.7687H1.775C0.79625 50.7687 0 51.5048 0 52.4097V73.0292C0 73.9341 0.79625 74.6702 1.775 74.6702H11.4163C12.3975 74.6702 13.1958 73.9341 13.1958 73.0292V72.8872L23.7344 75.7547L33.4625 78.3984C35.6828 79.0875 37.4719 79.3719 39.1047 79.3719C41.6891 79.3719 43.8844 78.6625 46.7844 77.725C47.0422 77.6422 47.3063 77.5563 47.5781 77.4688L66.7484 71.3219C68.9703 70.6094 70.5516 69.0094 70.9766 67.0422C71.3063 65.5172 70.8469 64.0109 69.7469 63.0125C68.8563 62.2047 66.7625 61.0453 62.7266 62.3219L55.7672 63.6828L70.2266 48.8859C70.2328 48.8797 70.2375 48.8734 70.2438 48.8672ZM2.34375 72.3264V53.1123H10.8519V53.9175C10.8519 53.92 10.8516 53.9223 10.8516 53.9248V71.353C10.8516 71.3544 10.8519 71.3556 10.8519 71.357V72.3264H2.34375ZM63.375 64.575C65.5375 63.8812 67.2859 63.9437 68.1734 64.7484C68.6516 65.1828 68.8391 65.8391 68.6859 66.5453C68.4391 67.6844 67.4469 68.6359 66.0328 69.0891L46.8609 75.2375C46.5875 75.325 46.3219 75.4109 46.0625 75.4953C41.4766 76.9766 39.175 77.7219 34.1375 76.1547C34.125 76.15 34.1109 76.1469 34.0969 76.1422L13.1956 70.458V54.9187L24.5797 53.0484C25.9766 52.8187 27.225 52.5906 28.3266 52.3906C32.3344 51.6625 34.7547 51.2234 37.8359 51.7891L44.2156 52.9594C46.7031 53.7766 47.5609 55.4781 47.3016 56.7234C47.0031 58.1625 45.4156 58.9516 43.2594 58.7328C41.3812 58.5406 39.2469 58.2656 37.3641 58.0234C36.8609 57.9578 36.3781 57.8953 35.9297 57.8391C33.6891 57.5078 32.1094 59.075 31.7062 60.7984C31.6203 61.1656 31.5859 61.5562 31.6109 61.95C31.6969 63.375 32.5484 64.8531 34.4922 65.4734C34.5406 65.4891 35.1875 65.6094 35.1875 65.6094L44.7578 67.3594C44.7672 67.3609 44.7781 67.3625 44.7891 67.3641C46.7641 67.6719 47.6188 67.6453 48.8297 67.4313C49.1469 67.375 50.4406 67.1125 50.7734 67.0484L52.8828 66.6359C52.8828 66.6359 63.3312 64.5891 63.375 64.575Z" fill="white"/>
</g>
<defs>
<clipPath id="clip0_1996_28260">
<rect width="80" height="80" fill="white"/>
</clipPath>
</defs>
</svg>
