<svg width="80" height="80" viewBox="0 0 80 80" fill="none" xmlns="http://www.w3.org/2000/svg">
<path d="M72.5781 3.04688H7.42188C3.32953 3.04688 0 6.37641 0 10.4688V29.0955C0 29.7428 0.524687 30.2673 1.17188 30.2673C1.81906 30.2673 2.34375 29.7428 2.34375 29.0955V17.3998H77.6562V48.0516C77.6562 48.6989 78.1809 49.2234 78.8281 49.2234C79.4753 49.2234 80 48.6989 80 48.0516V10.4688C80 6.37641 76.6705 3.04688 72.5781 3.04688ZM2.34375 15.0561V10.4688C2.34375 7.66859 4.62187 5.39062 7.42188 5.39062H72.5781C75.3781 5.39062 77.6562 7.66859 77.6562 10.4688V15.0561H2.34375Z" fill="white"/>
<path d="M78.8281 52.5031C78.1809 52.5031 77.6562 53.0277 77.6562 53.675V69.5305C77.6562 72.3306 75.3781 74.6086 72.5781 74.6086H7.42188C4.62187 74.6086 2.34375 72.3306 2.34375 69.5305V34.5625C2.34375 33.9152 1.81906 33.3906 1.17188 33.3906C0.524687 33.3906 0 33.9152 0 34.5625V69.5305C0 73.6228 3.32953 76.9523 7.42188 76.9523H72.5781C76.6705 76.9523 80 73.6228 80 69.5305V53.675C80 53.0278 79.4753 52.5031 78.8281 52.5031Z" fill="white"/>
<path d="M58.6933 9.77796C58.1363 8.36468 55.9253 9.27968 56.5294 10.6734C57.0859 12.0864 59.2991 11.1711 58.6933 9.77796Z" fill="white"/>
<path d="M65.0212 9.77753C64.4656 8.36581 62.2542 9.27816 62.8571 10.673C63.415 12.0853 65.6274 11.1707 65.0212 9.77753Z" fill="#E6B400"/>
<path d="M71.3891 9.77788C70.8321 8.36444 68.6196 9.28022 69.2251 10.6733C69.7824 12.0862 71.993 11.1718 71.3891 9.77788Z" fill="#E6B400"/>
<path d="M70.2852 38.4521H66.0591C64.5873 38.4521 63.39 39.6495 63.39 41.1214V62.802H61.127V44.8995C61.127 43.4278 59.9297 42.2304 58.4578 42.2304H54.2317C52.76 42.2304 51.5627 43.4278 51.5627 44.8995V62.802H49.2997V50.1961C49.2997 48.7242 48.1023 47.5268 46.6305 47.5268H42.4044C40.9327 47.5268 39.7353 48.7242 39.7353 50.1961V62.802H37.4722V55.4093C37.4722 53.9376 36.2748 52.7403 34.8031 52.7403H30.577C29.1053 52.7403 27.9078 53.9376 27.9078 55.4093V62.802H26.3672C25.72 62.802 25.1953 63.3265 25.1953 63.9739C25.1953 64.6212 25.72 65.1457 26.3672 65.1457H74.495C75.1422 65.1457 75.6669 64.6212 75.6669 63.9739C75.6669 63.3265 75.1422 62.802 74.495 62.802H72.9544V41.1214C72.9544 39.6495 71.757 38.4521 70.2852 38.4521ZM30.2517 62.802V55.4093C30.2517 55.23 30.3977 55.084 30.5772 55.084H34.8033C34.9827 55.084 35.1286 55.23 35.1286 55.4093V62.802H30.2517ZM42.0792 62.802V50.1961C42.0792 50.0167 42.2252 49.8706 42.4045 49.8706H46.6306C46.81 49.8706 46.9561 50.0167 46.9561 50.1961V62.802H42.0792ZM53.9066 62.802V44.8995C53.9066 44.7201 54.0525 44.5742 54.2319 44.5742H58.458C58.6373 44.5742 58.7834 44.7201 58.7834 44.8995V62.802H53.9066ZM65.7337 62.802V41.1214C65.7337 40.942 65.8797 40.7959 66.0591 40.7959H70.2852C70.4645 40.7959 70.6106 40.942 70.6106 41.1214V62.802H65.7337Z" fill="white"/>
<path d="M20.8722 51.0156H8.45703C7.80984 51.0156 7.28516 51.5402 7.28516 52.1875C7.28516 52.8348 7.80984 53.3594 8.45703 53.3594H20.8723C21.5195 53.3594 22.0442 52.8348 22.0442 52.1875C22.0442 51.5402 21.5195 51.0156 20.8722 51.0156Z" fill="#E6B400"/>
<path d="M20.8722 57.0215H8.45703C7.80984 57.0215 7.28516 57.546 7.28516 58.1934C7.28516 58.8407 7.80984 59.3652 8.45703 59.3652H20.8723C21.5195 59.3652 22.0442 58.8407 22.0442 58.1934C22.0442 57.546 21.5195 57.0215 20.8722 57.0215Z" fill="#E6B400"/>
<path d="M20.8722 63.0254H8.45703C7.80984 63.0254 7.28516 63.5499 7.28516 64.1973C7.28516 64.8446 7.80984 65.3691 8.45703 65.3691H20.8723C21.5195 65.3691 22.0442 64.8446 22.0442 64.1973C22.0442 63.5499 21.5195 63.0254 20.8722 63.0254Z" fill="#E6B400"/>
<path d="M47.8594 33.2243C46.9817 32.8157 45.9761 32.9487 45.235 33.5718L28.3085 47.802C27.813 48.2185 27.7491 48.9576 28.1655 49.453C28.3972 49.7288 28.7289 49.8709 29.0631 49.8709C29.3292 49.8709 29.597 49.7807 29.8166 49.596L46.7431 35.3657C46.7635 35.3488 46.8013 35.317 46.8699 35.349C46.9386 35.381 46.9386 35.4304 46.9386 35.4568V36.9201C46.9386 37.8782 47.4758 38.7298 48.3405 39.1426C49.2052 39.5552 50.2052 39.4373 50.95 38.8348L63.8816 28.3748V30.2413C63.8816 30.8887 64.4063 31.4132 65.0535 31.4132C65.7006 31.4132 66.2253 30.8887 66.2253 30.2413V25.3535C66.2253 24.7062 65.7006 24.1816 65.0535 24.1816H60.1655C59.5183 24.1816 58.9936 24.7062 58.9936 25.3535C58.9936 26.0009 59.5183 26.5254 60.1655 26.5254H62.4411L49.476 37.0126C49.4556 37.0288 49.418 37.0599 49.35 37.0274C49.2824 36.9951 49.2824 36.9463 49.2824 36.9201V35.4568C49.2824 34.4885 48.737 33.633 47.8594 33.2243Z" fill="#E6B400"/>
<path d="M24.1783 19.7451C23.5183 19.6504 22.8509 19.846 22.3483 20.2818C21.8489 20.7148 21.5625 21.3421 21.5625 22.003V28.628C21.5625 29.8862 22.5861 30.9097 23.8442 30.9097H30.4694C31.1303 30.9097 31.7577 30.6233 32.1905 30.1241C32.6262 29.6215 32.8219 28.9544 32.7272 28.294C32.0961 23.8916 28.5806 20.3762 24.1783 19.7451ZM23.9064 28.5658V22.074C27.2367 22.5787 29.8936 25.2355 30.3983 28.5658H23.9064Z" fill="#E6B400"/>
<path d="M17.7659 25.6228C17.2654 25.1886 16.6018 24.9925 15.9461 25.0866C10.7739 25.8231 7.05529 30.3241 7.29622 35.5561C7.53341 40.7074 11.7542 44.928 16.9054 45.165C17.0661 45.1724 17.2258 45.1759 17.385 45.1759C22.4101 45.1759 26.6609 41.5281 27.3748 36.515C27.4683 35.8589 27.2728 35.1956 26.8386 34.6952C26.405 34.1955 25.7768 33.9088 25.1153 33.9088H18.5523V27.3459C18.5523 26.6845 18.2658 26.0563 17.7659 25.6228ZM25.0443 36.2525C24.4494 40.1867 21.0103 43.0052 17.0131 42.8238C13.0592 42.6419 9.81935 39.4024 9.63747 35.4484C9.45341 31.4525 12.2743 28.0119 16.2087 27.417V33.9708C16.2087 35.2289 17.2323 36.2525 18.4904 36.2525H25.0443Z" fill="#E6B400"/>
</svg>
