<svg width="80" height="80" viewBox="0 0 80 80" fill="none" xmlns="http://www.w3.org/2000/svg">
<path d="M40.4844 76.25C34.1499 76.2054 27.9413 74.4767 22.4953 71.2412C17.0493 68.0057 12.5619 63.3798 9.49327 57.8381C6.42468 52.2963 4.88536 46.038 5.03316 39.7051C5.18097 33.3722 7.01058 27.1926 10.3344 21.8C10.8071 21.0652 11.4084 20.4216 12.1094 19.9C12.9861 19.2749 13.9885 18.8484 15.0469 18.65L18.6469 17.95C19.4564 17.7944 20.2887 17.8006 21.0958 17.968C21.903 18.1355 22.669 18.4609 23.3499 18.9257C24.0307 19.3904 24.6129 19.9852 25.0629 20.6759C25.5129 21.3666 25.8218 22.1394 25.9719 22.95L26.9219 27.8625C27.0774 28.672 27.0713 29.5043 26.9039 30.3115C26.7364 31.1186 26.411 31.8847 25.9462 32.5655C25.4815 33.2464 24.8866 33.8285 24.196 34.2785C23.5053 34.7285 22.7324 35.0375 21.9219 35.1875L17.0219 36.1375C16.8537 36.1601 16.6827 36.1483 16.5193 36.1027C16.3558 36.0571 16.2034 35.9786 16.0712 35.8722C15.9391 35.7658 15.83 35.6336 15.7506 35.4836C15.6712 35.3337 15.6231 35.1691 15.6094 35C15.547 34.6752 15.6159 34.3389 15.801 34.0647C15.9861 33.7906 16.2723 33.601 16.5969 33.5375L21.4969 32.575C22.473 32.3873 23.3347 31.8197 23.8925 30.997C24.4503 30.1743 24.6587 29.1638 24.4719 28.1875L23.5219 23.275C23.3298 22.3003 22.7589 21.4416 21.9344 20.8875C21.5281 20.6078 21.0698 20.4128 20.5866 20.314C20.1034 20.2152 19.6053 20.2147 19.1219 20.3125L15.5219 21.0125C14.825 21.1421 14.1667 21.4285 13.5969 21.85C13.143 22.192 12.7571 22.616 12.4594 23.1C9.27012 28.2788 7.56531 34.2344 7.53115 40.3163C7.49699 46.3982 9.13479 52.3726 12.2657 57.5868C15.3965 62.8011 19.9001 67.0547 25.2844 69.8831C30.6688 72.7115 36.7268 74.006 42.7969 73.625H42.8844C43.6612 73.4731 44.37 73.0793 44.9094 72.5L47.4094 69.6C48.0634 68.8521 48.3938 67.8752 48.3282 66.8839C48.2626 65.8925 47.8062 64.9677 47.0594 64.3125L43.3094 61.025C42.5599 60.3725 41.582 60.0442 40.5906 60.1122C39.5992 60.1801 38.6753 60.6388 38.0219 61.3875L34.7344 65.1375C34.5171 65.3877 34.2095 65.5414 33.879 65.5648C33.5485 65.5882 33.2222 65.4795 32.9719 65.2625C32.8462 65.1548 32.7431 65.0232 32.6687 64.8753C32.5943 64.7275 32.5499 64.5663 32.5383 64.4011C32.5267 64.236 32.548 64.0702 32.6009 63.9134C32.6539 63.7565 32.7375 63.6118 32.8469 63.4875L36.1344 59.7375C36.6738 59.1099 37.3326 58.5956 38.0723 58.2246C38.8121 57.8536 39.6182 57.6332 40.4438 57.5763C41.2695 57.5193 42.0982 57.6268 42.882 57.8927C43.6657 58.1586 44.3888 58.5774 45.0094 59.125L48.7594 62.4125C49.3797 62.9533 49.8871 63.6112 50.2525 64.3485C50.618 65.0859 50.8342 65.8881 50.8888 66.7092C50.9433 67.5303 50.8352 68.3542 50.5706 69.1334C50.306 69.9126 49.8902 70.6319 49.3469 71.25L46.8469 74.1625L46.7469 74.275C45.8621 75.2118 44.7018 75.8423 43.4344 76.075H43.2719H43.1094C42.2094 76.175 41.3469 76.25 40.4844 76.25ZM30.5844 60.575C30.3939 60.5758 30.2058 60.533 30.0344 60.45C21.4969 56.2125 17.5344 49.2 18.1219 39.75C18.1325 39.5859 18.1754 39.4254 18.2481 39.2778C18.3208 39.1303 18.4218 38.9985 18.5454 38.8899C18.6691 38.7814 18.8128 38.6983 18.9686 38.6453C19.1243 38.5924 19.289 38.5706 19.4531 38.5813C19.6173 38.5919 19.7777 38.6348 19.9253 38.7075C20.0729 38.7802 20.2047 38.8812 20.3132 39.0048C20.4217 39.1284 20.5048 39.2722 20.5578 39.428C20.6108 39.5837 20.6325 39.7484 20.6219 39.9125C20.0594 48.425 23.5094 54.4125 31.1594 58.2125C31.4085 58.3401 31.6076 58.5477 31.7247 58.8019C31.8419 59.0561 31.8703 59.3423 31.8055 59.6146C31.7406 59.8869 31.5863 60.1295 31.3672 60.3036C31.148 60.4778 30.8768 60.5733 30.5969 60.575H30.5844ZM55.6344 43.75H42.6844C42.3528 43.75 42.0349 43.6183 41.8005 43.3839C41.5661 43.1495 41.4344 42.8315 41.4344 42.5C41.4344 42.1685 41.5661 41.8505 41.8005 41.6161C42.0349 41.3817 42.3528 41.25 42.6844 41.25H55.6344C58.9719 41.25 62.2345 40.2603 65.0096 38.4061C67.7847 36.5518 69.9476 33.9163 71.2248 30.8328C72.5021 27.7493 72.8362 24.3563 72.1851 21.0829C71.534 17.8094 69.9268 14.8026 67.5668 12.4426C65.2068 10.0826 62.1999 8.47538 58.9265 7.82426C55.6531 7.17313 52.2601 7.50731 49.1766 8.78454C46.0931 10.0618 43.4576 12.2247 41.6033 14.9998C39.7491 17.7748 38.7594 21.0374 38.7594 24.375V42.5C38.7594 42.8315 38.6277 43.1495 38.3933 43.3839C38.1588 43.6183 37.8409 43.75 37.5094 43.75C37.1778 43.75 36.8599 43.6183 36.6255 43.3839C36.3911 43.1495 36.2594 42.8315 36.2594 42.5V24.375C36.2594 20.543 37.3957 16.797 39.5246 13.6108C41.6536 10.4246 44.6796 7.94129 48.2199 6.47484C51.7602 5.00839 55.6559 4.62471 59.4142 5.37229C63.1726 6.11988 66.6249 7.96517 69.3346 10.6748C72.0442 13.3845 73.8895 16.8368 74.6371 20.5951C75.3847 24.3535 75.001 28.2492 73.5345 31.7895C72.0681 35.3298 69.5847 38.3558 66.3985 40.4847C63.2123 42.6137 59.4664 43.75 55.6344 43.75ZM60.3344 32.3375H48.2469C47.9153 32.3375 47.5974 32.2058 47.363 31.9714C47.1286 31.737 46.9969 31.419 46.9969 31.0875C46.9969 30.756 47.1286 30.438 47.363 30.2036C47.5974 29.9692 47.9153 29.8375 48.2469 29.8375H60.3344C60.6659 29.8375 60.9838 29.9692 61.2182 30.2036C61.4527 30.438 61.5844 30.756 61.5844 31.0875C61.5844 31.419 61.4527 31.737 61.2182 31.9714C60.9838 32.2058 60.6659 32.3375 60.3344 32.3375ZM65.7094 25.625H48.2094C47.8778 25.625 47.5599 25.4933 47.3255 25.2589C47.0911 25.0245 46.9594 24.7065 46.9594 24.375C46.9594 24.0435 47.0911 23.7255 47.3255 23.4911C47.5599 23.2567 47.8778 23.125 48.2094 23.125H65.7094C66.0409 23.125 66.3588 23.2567 66.5932 23.4911C66.8277 23.7255 66.9594 24.0435 66.9594 24.375C66.9594 24.7065 66.8277 25.0245 66.5932 25.2589C66.3588 25.4933 66.0409 25.625 65.7094 25.625ZM63.0219 18.9125H48.2469C47.9153 18.9125 47.5974 18.7808 47.363 18.5464C47.1286 18.312 46.9969 17.994 46.9969 17.6625C46.9969 17.331 47.1286 17.013 47.363 16.7786C47.5974 16.5442 47.9153 16.4125 48.2469 16.4125H63.0219C63.3534 16.4125 63.6713 16.5442 63.9058 16.7786C64.1402 17.013 64.2719 17.331 64.2719 17.6625C64.2719 17.994 64.1402 18.312 63.9058 18.5464C63.6713 18.7808 63.3534 18.9125 63.0219 18.9125Z" fill="white"/>
<path d="M55.6289 43.75H42.6789C42.3474 43.75 42.0294 43.6183 41.795 43.3839C41.5606 43.1495 41.4289 42.8315 41.4289 42.5C41.4289 42.1685 41.5606 41.8505 41.795 41.6161C42.0294 41.3817 42.3474 41.25 42.6789 41.25H55.6289C58.9665 41.25 62.2291 40.2603 65.0042 38.4061C67.7792 36.5518 69.9421 33.9163 71.2194 30.8328C72.4966 27.7493 72.8308 24.3563 72.1797 21.0829C71.5285 17.8094 69.9213 14.8026 67.5613 12.4426C65.2013 10.0826 62.1945 8.47538 58.9211 7.82426C55.6476 7.17313 52.2546 7.50731 49.1711 8.78454C46.0876 10.0618 43.4521 12.2247 41.5979 14.9998C39.7436 17.7748 38.7539 21.0374 38.7539 24.375V42.5C38.7539 42.8315 38.6222 43.1495 38.3878 43.3839C38.1534 43.6183 37.8354 43.75 37.5039 43.75C37.1724 43.75 36.8544 43.6183 36.62 43.3839C36.3856 43.1495 36.2539 42.8315 36.2539 42.5V24.375C36.2539 20.543 37.3902 16.797 39.5192 13.6108C41.6481 10.4246 44.6741 7.94129 48.2144 6.47484C51.7547 5.00839 55.6504 4.62471 59.4088 5.37229C63.1672 6.11988 66.6195 7.96517 69.3291 10.6748C72.0387 13.3845 73.884 16.8368 74.6316 20.5951C75.3792 24.3535 74.9955 28.2492 73.5291 31.7895C72.0626 35.3298 69.5793 38.3558 66.3931 40.4847C63.2069 42.6137 59.4609 43.75 55.6289 43.75ZM60.3289 32.3375H48.2414C47.9099 32.3375 47.5919 32.2058 47.3575 31.9714C47.1231 31.737 46.9914 31.419 46.9914 31.0875C46.9914 30.756 47.1231 30.438 47.3575 30.2036C47.5919 29.9692 47.9099 29.8375 48.2414 29.8375H60.3289C60.6604 29.8375 60.9784 29.9692 61.2128 30.2036C61.4472 30.438 61.5789 30.756 61.5789 31.0875C61.5789 31.419 61.4472 31.737 61.2128 31.9714C60.9784 32.2058 60.6604 32.3375 60.3289 32.3375ZM65.7039 25.625H48.2039C47.8724 25.625 47.5544 25.4933 47.32 25.2589C47.0856 25.0245 46.9539 24.7065 46.9539 24.375C46.9539 24.0435 47.0856 23.7255 47.32 23.4911C47.5544 23.2567 47.8724 23.125 48.2039 23.125H65.7039C66.0354 23.125 66.3534 23.2567 66.5878 23.4911C66.8222 23.7255 66.9539 24.0435 66.9539 24.375C66.9539 24.7065 66.8222 25.0245 66.5878 25.2589C66.3534 25.4933 66.0354 25.625 65.7039 25.625ZM63.0164 18.9125H48.2414C47.9099 18.9125 47.5919 18.7808 47.3575 18.5464C47.1231 18.312 46.9914 17.994 46.9914 17.6625C46.9914 17.331 47.1231 17.013 47.3575 16.7786C47.5919 16.5442 47.9099 16.4125 48.2414 16.4125H63.0164C63.3479 16.4125 63.6659 16.5442 63.9003 16.7786C64.1347 17.013 64.2664 17.331 64.2664 17.6625C64.2664 17.994 64.1347 18.312 63.9003 18.5464C63.6659 18.7808 63.3479 18.9125 63.0164 18.9125Z" fill="#E6B400"/>
</svg>
