<svg width="52" height="52" viewBox="0 0 52 52" fill="none" xmlns="http://www.w3.org/2000/svg">
<path d="M11.8801 9.59473C12.3007 9.59473 12.6418 9.25368 12.6418 8.83301C12.6418 8.41234 12.3007 8.07129 11.8801 8.07129C11.4594 8.07129 11.1184 8.41234 11.1184 8.83301C11.1184 9.25368 11.4593 9.59473 11.8801 9.59473ZM5.78632 9.59473C6.20699 9.59473 6.54804 9.25368 6.54804 8.83301C6.54804 8.41234 6.20699 8.07129 5.78632 8.07129C5.36565 8.07129 5.0246 8.41234 5.0246 8.83301C5.0246 9.25368 5.36555 9.59473 5.78632 9.59473ZM8.8332 9.59473C9.25387 9.59473 9.59491 9.25368 9.59491 8.83301C9.59491 8.41234 9.25387 8.07129 8.8332 8.07129C8.41252 8.07129 8.07148 8.41234 8.07148 8.83301C8.07148 9.25368 8.41242 9.59473 8.8332 9.59473ZM8.66613 17.6642C8.6708 17.6643 8.67547 17.6643 8.68014 17.6643L15.567 17.666H15.5674C16.0432 17.666 16.4471 17.3578 16.5728 16.8989C16.6985 16.4398 16.5077 15.9687 16.0982 15.7265L15.0507 15.1067C16.7343 13.4382 17.6811 11.1615 17.6661 8.77624C17.6359 4.00605 13.7317 0.0695875 8.96289 0.00093125C4.02137 -0.0700609 0 3.92713 0 8.83321C0 13.5379 3.87644 17.5623 8.66613 17.6642ZM3.70195 3.62712C5.10656 2.24262 6.96313 1.49664 8.94106 1.52417C12.8871 1.58094 16.1177 4.83845 16.1426 8.78578C16.1562 10.9154 15.2429 12.9407 13.637 14.3421C13.3685 14.5763 13.2278 14.9278 13.2603 15.2823C13.2928 15.6367 13.4952 15.9564 13.8014 16.1375L13.809 16.142L8.68766 16.1407C4.72855 16.0648 1.52344 12.8032 1.52344 8.83321C1.52344 6.86077 2.29714 5.01192 3.70195 3.62712ZM51.2383 50.4766H50.4766V39.1331C50.4766 36.1611 48.7204 33.4624 45.9941 32.2539L41.9797 30.5334C42.9566 30.2251 43.839 29.6755 44.5571 28.913C45.6405 27.7628 46.2617 26.2021 46.2617 24.6311C46.2617 23.1874 45.7574 21.8249 44.803 20.6903C43.6092 19.2728 42.9518 17.4713 42.9518 15.6174V11.9672C42.9518 8.77024 41.7067 5.76521 39.4462 3.50575C37.1856 1.24497 34.1803 1.71874e-05 30.9837 1.71874e-05C24.385 1.71874e-05 19.0166 5.36841 19.0166 11.9671V15.4985C19.017 17.4168 18.2631 19.2478 17.038 20.7238C15.4962 22.5814 15.1759 25.093 16.2022 27.2783C16.9639 28.9004 18.3378 30.0659 19.9826 30.5592L15.9963 32.2926C13.1996 33.4695 11.3924 36.1905 11.3924 39.2246V48.1915C11.3924 48.6122 11.7333 48.9532 12.1541 48.9532C12.5749 48.9532 12.9158 48.6122 12.9158 48.1915V39.2246C12.9158 36.8052 14.3569 34.6353 16.5955 33.6933L21.5922 31.5204V36.1055H19.2966C18.6496 36.1055 18.0304 36.3813 17.5976 36.8623C17.165 37.3433 16.956 37.9882 17.0242 38.6314L18.2798 50.4766H0.761719C0.340945 50.4766 0 50.8176 0 51.2383C0 51.659 0.340945 52 0.761719 52H51.2383C51.6591 52 52 51.659 52 51.2383C52 50.8176 51.6591 50.4766 51.2383 50.4766ZM43.6374 21.6712C44.3576 22.5274 44.7383 23.5508 44.7383 24.631C44.7383 25.8179 44.268 26.9979 43.4481 27.8685C42.58 28.7901 41.3873 29.2978 40.0899 29.2978H39.0972L37.7932 28.7389C36.6542 28.2503 35.875 27.2031 35.7158 25.9977C38.066 24.7322 39.6674 22.2486 39.6674 19.3974V13.671C39.8903 13.6862 40.113 13.6944 40.3351 13.6944C40.7015 13.6944 41.0664 13.6736 41.4285 13.6325V15.6173C41.4284 17.8297 42.213 19.9798 43.6374 21.6712ZM31.1688 33.6963C28.4438 33.7446 25.7393 33.3993 23.1156 32.6716V30.858L23.3359 30.7622C23.3376 30.7615 23.3394 30.7607 23.3412 30.7599L24.7001 30.1691C26.2128 29.5114 27.2817 28.1645 27.6058 26.5905C28.2691 26.7834 28.9692 26.8888 29.6939 26.8888H32.176C32.9035 26.8888 33.6062 26.7826 34.2718 26.5883C34.6065 28.1551 35.6795 29.4899 37.1929 30.1391L38.6432 30.7607C38.6441 30.7611 38.645 30.7615 38.646 30.7618L38.7534 30.8078V32.5219C36.2882 33.2564 33.7396 33.6514 31.1688 33.6963ZM38.7532 34.1079V36.1056H23.1156V34.249C25.585 34.8965 28.1204 35.2241 30.673 35.2241C30.8471 35.2241 31.0212 35.2226 31.1954 35.2196C33.7538 35.1749 36.2912 34.801 38.7532 34.1079ZM41.4284 12.0965C39.3302 12.38 36.9651 11.8179 35.3356 10.5554C35.0032 10.2978 34.5247 10.3584 34.267 10.691C34.0093 11.0235 34.0701 11.502 34.4026 11.7596C35.4679 12.5849 36.7527 13.1663 38.1439 13.4594V17.6063C37.7779 18.4405 37.3704 19.1343 36.4518 19.8921C36.065 20.2113 35.6417 20.4762 35.1884 20.6865C34.8182 19.9641 34.0663 19.4682 33.2004 19.4682H31.4153C30.1841 19.4682 29.1825 20.4699 29.1825 21.7011C29.1825 22.9322 30.1841 23.9339 31.4153 23.9339H33.2004C34.2365 23.9339 35.11 23.2244 35.3607 22.2659C36.3797 21.8776 38.0411 20.4925 38.0416 20.492C37.5257 23.2613 35.0927 25.3649 32.1761 25.3649H29.6938C26.4032 25.3649 23.726 22.6879 23.726 19.3971V13.5091C26.3131 13.1036 28.7572 12.2281 30.9987 10.9023C34.4116 8.88359 36.6008 6.2456 37.9219 4.16144C40.1824 6.17471 41.4683 9.06102 41.4284 12.0965ZM33.9096 21.7032C33.9085 22.0935 33.5908 22.4107 33.2003 22.4107H31.4152C31.024 22.4107 30.7058 22.0924 30.7058 21.7013C30.7058 21.3102 31.0241 20.9919 31.4152 20.9919H33.2003C33.5907 20.9919 33.9083 21.3088 33.9096 21.6989V21.7032ZM20.54 11.9671C20.54 6.20843 25.225 1.52345 30.9837 1.52345C33.0489 1.52345 35.0225 2.11963 36.709 3.2295C35.4931 5.17838 33.4468 7.68454 30.2231 9.59148C28.0115 10.8996 25.5857 11.7348 23.0127 12.0738H22.9652C22.9649 12.0738 22.9646 12.0738 22.9642 12.0738C22.9638 12.0738 22.9636 12.0738 22.9632 12.0738H20.5399V11.9671H20.54ZM17.581 26.6307C16.8086 24.9856 17.0497 23.095 18.2093 21.6979C19.6644 19.9449 20.5416 17.7787 20.54 15.4985V13.5972H22.2026V19.3974C22.2026 22.2502 23.8059 24.7351 26.1583 25.9998C26.0112 27.2144 25.2343 28.2754 24.0926 28.7719L22.8831 29.2978H21.7791C19.9621 29.2978 18.3536 28.2758 17.581 26.6307ZM44.0976 38.471L42.8249 50.4766H19.8118L18.5391 38.471C18.5161 38.2533 18.5839 38.0439 18.7303 37.8813C18.8766 37.7186 19.0778 37.629 19.2966 37.629H43.3402C43.5589 37.629 43.7601 37.7186 43.9065 37.8813C44.0528 38.0439 44.1207 38.2533 44.0976 38.471ZM48.9531 50.4766H44.3569L45.6125 38.6316C45.6808 37.9883 45.4717 37.3434 45.0391 36.8624C44.6064 36.3814 43.9872 36.1056 43.3402 36.1056H40.2766V31.4608L45.3853 33.6504C47.5527 34.6112 48.9531 36.7632 48.9531 39.1331V50.4766ZM31.3183 41.1582C29.7223 41.1582 28.4238 42.4567 28.4238 44.0528C28.4238 45.6488 29.7223 46.9473 31.3183 46.9473C32.9144 46.9473 34.2129 45.6488 34.2129 44.0528C34.2129 42.4567 32.9144 41.1582 31.3183 41.1582ZM31.3183 45.4238C30.5623 45.4238 29.9472 44.8088 29.9472 44.0528C29.9472 43.2967 30.5623 42.6817 31.3183 42.6817C32.0744 42.6817 32.6894 43.2967 32.6894 44.0528C32.6894 44.8088 32.0745 45.4238 31.3183 45.4238Z" fill="#E6B400"/>
<path d="M51.2383 50.4766H50.4766V39.1331C50.4766 36.1611 48.7204 33.4624 45.9941 32.2539L41.9797 30.5334C42.9566 30.2251 43.8391 29.6755 44.5571 28.913C45.6405 27.7628 46.2617 26.2021 46.2617 24.6311C46.2617 23.1874 45.7574 21.8249 44.803 20.6903C43.6092 19.2728 42.9518 17.4713 42.9518 15.6174V11.9672C42.9518 8.77024 41.7067 5.76521 39.4462 3.50575C37.1856 1.24497 34.1803 1.71874e-05 30.9837 1.71874e-05C24.385 1.71874e-05 19.0166 5.36841 19.0166 11.9671V15.4985C19.017 17.4168 18.2631 19.2478 17.038 20.7238C15.4962 22.5814 15.1759 25.093 16.2022 27.2783C16.9639 28.9004 18.3378 30.0659 19.9826 30.5592L15.9963 32.2926C13.1996 33.4695 11.3924 36.1905 11.3924 39.2246V48.1915C11.3924 48.6122 11.7333 48.9532 12.1541 48.9532C12.5749 48.9532 12.9158 48.6122 12.9158 48.1915V39.2246C12.9158 36.8051 14.3569 34.6353 16.5955 33.6933L21.5922 31.5205V36.1055H19.2966C18.6496 36.1055 18.0304 36.3813 17.5976 36.8623C17.165 37.3433 16.956 37.9882 17.0242 38.6315L18.2798 50.4766H0.761719C0.340945 50.4766 0 50.8176 0 51.2383C0 51.659 0.340945 52 0.761719 52H51.2383C51.6591 52 52 51.659 52 51.2383C52 50.8176 51.6591 50.4766 51.2383 50.4766ZM43.6374 21.6712C44.3576 22.5274 44.7383 23.5508 44.7383 24.631C44.7383 25.8179 44.268 26.9979 43.4481 27.8685C42.58 28.7901 41.3873 29.2978 40.0899 29.2978H39.0972L37.7932 28.7389C36.6542 28.2503 35.875 27.2031 35.7158 25.9977C38.066 24.7322 39.6674 22.2486 39.6674 19.3974V13.671C39.8903 13.6862 40.113 13.6944 40.3351 13.6944C40.7015 13.6944 41.0664 13.6736 41.4285 13.6325V15.6173C41.4284 17.8297 42.213 19.9798 43.6374 21.6712ZM31.1688 33.6963C28.4438 33.7446 25.7393 33.3993 23.1156 32.6716V30.858L23.3359 30.7622C23.3376 30.7615 23.3394 30.7607 23.3412 30.7599L24.7001 30.1691C26.2128 29.5114 27.2817 28.1645 27.6058 26.5905C28.2691 26.7834 28.9692 26.8888 29.6939 26.8888H32.176C32.9035 26.8888 33.6062 26.7826 34.2718 26.5883C34.6065 28.1551 35.6795 29.4899 37.1929 30.1391L38.6432 30.7607L38.646 30.7618L38.7534 30.8078V32.5219C36.2882 33.2564 33.7396 33.6514 31.1688 33.6963ZM38.7532 34.1079V36.1056H23.1156V34.249C25.585 34.8965 28.1204 35.2241 30.673 35.2241C30.8471 35.2241 31.0213 35.2226 31.1954 35.2196C33.7538 35.1749 36.2912 34.801 38.7532 34.1079ZM41.4284 12.0965C39.3302 12.38 36.9651 11.8179 35.3356 10.5554C35.0032 10.2978 34.5248 10.3584 34.267 10.691C34.0093 11.0235 34.0701 11.502 34.4026 11.7596C35.4679 12.5849 36.7527 13.1663 38.1439 13.4594V17.6063C37.7779 18.4405 37.3704 19.1343 36.4518 19.8921C36.065 20.2113 35.6417 20.4762 35.1884 20.6865C34.8182 19.9641 34.0663 19.4682 33.2004 19.4682H31.4153C30.1841 19.4682 29.1825 20.4699 29.1825 21.7011C29.1825 22.9322 30.1841 23.9339 31.4153 23.9339H33.2004C34.2365 23.9339 35.11 23.2244 35.3607 22.2659C36.3797 21.8776 38.0416 20.492 38.0416 20.492C37.5257 23.2613 35.0927 25.3649 32.1761 25.3649H29.6938C26.4032 25.3649 23.726 22.6879 23.726 19.3971V13.5091C26.3131 13.1036 28.7572 12.2281 30.9987 10.9023C34.4116 8.88359 36.6008 6.2456 37.9219 4.16144C40.1824 6.17471 41.4683 9.06102 41.4284 12.0965ZM33.9096 21.7032C33.9085 22.0935 33.5908 22.4107 33.2003 22.4107H31.4152C31.024 22.4107 30.7058 22.0924 30.7058 21.7013C30.7058 21.3102 31.0241 20.9919 31.4152 20.9919H33.2003C33.5907 20.9919 33.9083 21.3088 33.9096 21.6989V21.7032ZM20.54 11.9671C20.54 6.20843 25.225 1.52345 30.9837 1.52345C33.0489 1.52345 35.0225 2.11963 36.709 3.2295C35.4931 5.17838 33.4468 7.68454 30.2231 9.59148C28.0115 10.8996 25.5857 11.7348 23.0127 12.0738H22.9652H22.9642H22.9632H20.5399L20.54 11.9671ZM17.581 26.6307C16.8086 24.9856 17.0497 23.095 18.2093 21.6979C19.6644 19.9449 20.5416 17.7787 20.54 15.4985V13.5972H22.2026V19.3974C22.2026 22.2502 23.8059 24.7351 26.1583 25.9998C26.0112 27.2144 25.2343 28.2754 24.0926 28.7719L22.8831 29.2978H21.7791C19.9621 29.2978 18.3536 28.2758 17.581 26.6307ZM44.0976 38.471L42.8249 50.4766H19.8118L18.5391 38.471C18.5161 38.2533 18.5839 38.0439 18.7303 37.8813C18.8766 37.7186 19.0778 37.629 19.2966 37.629H43.3402C43.5589 37.629 43.7601 37.7186 43.9065 37.8813C44.0528 38.0439 44.1207 38.2533 44.0976 38.471ZM48.9531 50.4766H44.3569L45.6125 38.6317C45.6808 37.9883 45.4717 37.3434 45.0391 36.8624C44.6064 36.3814 43.9872 36.1056 43.3402 36.1056H40.2766V31.4608L45.3853 33.6504C47.5527 34.6112 48.9531 36.7632 48.9531 39.1331V50.4766Z" fill="white"/>
</svg>
