<svg width="36" height="36" viewBox="0 0 36 36" fill="none" xmlns="http://www.w3.org/2000/svg">
<path d="M18.0109 18.1468C19.1193 18.1468 20.0179 17.2482 20.0179 16.1398C20.0179 15.0314 19.1193 14.1328 18.0109 14.1328C16.9025 14.1328 16.0039 15.0314 16.0039 16.1398C16.0039 17.2482 16.9025 18.1468 18.0109 18.1468Z" stroke="#E6B400" stroke-width="1.08" stroke-miterlimit="10" stroke-linecap="round" stroke-linejoin="round"/>
<path d="M15.1016 22.2527V20.6746C15.1016 19.2794 16.2325 18.1484 17.6277 18.1484H18.391C19.7861 18.1484 20.9171 19.2794 20.9171 20.6746V22.2527" stroke="#E6B400" stroke-width="1.08" stroke-miterlimit="10" stroke-linecap="round" stroke-linejoin="round"/>
<path d="M18.0091 25.8933C22.262 25.8933 25.7097 22.4456 25.7097 18.1927C25.7097 13.9398 22.262 10.4922 18.0091 10.4922C13.7562 10.4922 10.3086 13.9398 10.3086 18.1927C10.3086 22.4456 13.7562 25.8933 18.0091 25.8933Z" stroke="#E6B400" stroke-width="1.08" stroke-miterlimit="10" stroke-linecap="round" stroke-linejoin="round"/>
<path d="M17.9688 11.6647V2.30469" stroke="#E6B400" stroke-width="1.08" stroke-miterlimit="10" stroke-linecap="round" stroke-linejoin="round"/>
<path d="M17.9688 34.0536V24.7656" stroke="#E6B400" stroke-width="1.08" stroke-miterlimit="10" stroke-linecap="round" stroke-linejoin="round"/>
<path d="M11.4498 18.1797H2.08984" stroke="#E6B400" stroke-width="1.08" stroke-miterlimit="10" stroke-linecap="round" stroke-linejoin="round"/>
<path d="M33.8422 18.1797H24.4102" stroke="#E6B400" stroke-width="1.08" stroke-miterlimit="10" stroke-linecap="round" stroke-linejoin="round"/>
<path d="M5.20616 11.9358C6.04058 11.9358 6.71701 11.2593 6.71701 10.4249C6.71701 9.59049 6.04058 8.91406 5.20616 8.91406C4.37174 8.91406 3.69531 9.59049 3.69531 10.4249C3.69531 11.2593 4.37174 11.9358 5.20616 11.9358Z" stroke="black" stroke-width="1.08" stroke-miterlimit="10" stroke-linecap="round" stroke-linejoin="round"/>
<path d="M3.01562 15.0271V13.8391C3.01562 12.7889 3.86703 11.9375 4.91722 11.9375H5.49178C6.54197 11.9375 7.39337 12.7889 7.39337 13.8391V15.0271" stroke="black" stroke-width="1.08" stroke-miterlimit="10" stroke-linecap="round" stroke-linejoin="round"/>
<path d="M12.2608 5.8342C13.0953 5.8342 13.7717 5.15777 13.7717 4.32335C13.7717 3.48893 13.0953 2.8125 12.2608 2.8125C11.4264 2.8125 10.75 3.48893 10.75 4.32335C10.75 5.15777 11.4264 5.8342 12.2608 5.8342Z" stroke="black" stroke-width="1.08" stroke-miterlimit="10" stroke-linecap="round" stroke-linejoin="round"/>
<path d="M10.0703 8.92553V7.73753C10.0703 6.68734 10.9217 5.83594 11.9719 5.83594H12.5465C13.5967 5.83594 14.4481 6.68734 14.4481 7.73753V8.92553" stroke="black" stroke-width="1.08" stroke-miterlimit="10" stroke-linecap="round" stroke-linejoin="round"/>
<path d="M30.7648 11.9358C31.5992 11.9358 32.2756 11.2593 32.2756 10.4249C32.2756 9.59049 31.5992 8.91406 30.7648 8.91406C29.9303 8.91406 29.2539 9.59049 29.2539 10.4249C29.2539 11.2593 29.9303 11.9358 30.7648 11.9358Z" stroke="black" stroke-width="1.08" stroke-miterlimit="10" stroke-linecap="round" stroke-linejoin="round"/>
<path d="M32.952 15.0271V13.8391C32.952 12.7889 32.1006 11.9375 31.0504 11.9375H30.4758C29.4256 11.9375 28.5742 12.7889 28.5742 13.8391V15.0271" stroke="black" stroke-width="1.08" stroke-miterlimit="10" stroke-linecap="round" stroke-linejoin="round"/>
<path d="M5.20616 23.217C6.04058 23.217 6.71701 22.5406 6.71701 21.7062C6.71701 20.8717 6.04058 20.1953 5.20616 20.1953C4.37174 20.1953 3.69531 20.8717 3.69531 21.7062C3.69531 22.5406 4.37174 23.217 5.20616 23.217Z" stroke="black" stroke-width="1.08" stroke-miterlimit="10" stroke-linecap="round" stroke-linejoin="round"/>
<path d="M3.01562 26.3083V25.1203C3.01562 24.0702 3.86703 23.2188 4.91722 23.2188H5.49178C6.54197 23.2188 7.39337 24.0702 7.39337 25.1203V26.3083" stroke="black" stroke-width="1.08" stroke-miterlimit="10" stroke-linecap="round" stroke-linejoin="round"/>
<path d="M30.7648 23.217C31.5992 23.217 32.2756 22.5406 32.2756 21.7062C32.2756 20.8717 31.5992 20.1953 30.7648 20.1953C29.9303 20.1953 29.2539 20.8717 29.2539 21.7062C29.2539 22.5406 29.9303 23.217 30.7648 23.217Z" stroke="black" stroke-width="1.08" stroke-miterlimit="10" stroke-linecap="round" stroke-linejoin="round"/>
<path d="M32.952 26.3083V25.1203C32.952 24.0702 32.1006 23.2188 31.0504 23.2188H30.4758C29.4256 23.2188 28.5742 24.0702 28.5742 25.1203V26.3083" stroke="black" stroke-width="1.08" stroke-miterlimit="10" stroke-linecap="round" stroke-linejoin="round"/>
<path d="M23.7062 5.8342C24.5406 5.8342 25.217 5.15777 25.217 4.32335C25.217 3.48893 24.5406 2.8125 23.7062 2.8125C22.8717 2.8125 22.1953 3.48893 22.1953 4.32335C22.1953 5.15777 22.8717 5.8342 23.7062 5.8342Z" stroke="black" stroke-width="1.08" stroke-miterlimit="10" stroke-linecap="round" stroke-linejoin="round"/>
<path d="M25.8934 8.92553V7.73753C25.8934 6.68734 25.042 5.83594 23.9918 5.83594H23.4172C22.367 5.83594 21.5156 6.68734 21.5156 7.73753V8.92553" stroke="black" stroke-width="1.08" stroke-miterlimit="10" stroke-linecap="round" stroke-linejoin="round"/>
<path d="M12.2608 30.0373C13.0953 30.0373 13.7717 29.3609 13.7717 28.5265C13.7717 27.6921 13.0953 27.0156 12.2608 27.0156C11.4264 27.0156 10.75 27.6921 10.75 28.5265C10.75 29.3609 11.4264 30.0373 12.2608 30.0373Z" stroke="black" stroke-width="1.08" stroke-miterlimit="10" stroke-linecap="round" stroke-linejoin="round"/>
<path d="M10.0703 33.1287V31.9407C10.0703 30.8905 10.9217 30.0391 11.9719 30.0391H12.5465C13.5967 30.0391 14.4481 30.8905 14.4481 31.9407V33.1287" stroke="black" stroke-width="1.08" stroke-miterlimit="10" stroke-linecap="round" stroke-linejoin="round"/>
<path d="M23.7062 30.0373C24.5406 30.0373 25.217 29.3609 25.217 28.5265C25.217 27.6921 24.5406 27.0156 23.7062 27.0156C22.8717 27.0156 22.1953 27.6921 22.1953 28.5265C22.1953 29.3609 22.8717 30.0373 23.7062 30.0373Z" stroke="black" stroke-width="1.08" stroke-miterlimit="10" stroke-linecap="round" stroke-linejoin="round"/>
<path d="M25.8934 33.1287V31.9407C25.8934 30.8905 25.042 30.0391 23.9918 30.0391H23.4172C22.367 30.0391 21.5156 30.8905 21.5156 31.9407V33.1287" stroke="black" stroke-width="1.08" stroke-miterlimit="10" stroke-linecap="round" stroke-linejoin="round"/>
</svg>
