<svg width="36" height="36" viewBox="0 0 36 36" fill="none" xmlns="http://www.w3.org/2000/svg">
<path d="M35.4727 14.7284C35.764 14.7284 36 14.4923 36 14.2011V5.27734C36 4.01734 34.9749 2.99219 33.7148 2.99219H9.07481C8.78358 2.99219 8.54747 3.2283 8.54747 3.51953C8.54747 3.81077 8.78358 4.04688 9.07481 4.04688H33.7148C34.3933 4.04688 34.9453 4.5989 34.9453 5.27734V9.56641H1.05469V5.27734C1.05469 4.5989 1.60671 4.04688 2.28516 4.04688H6.6086C6.89984 4.04688 7.13595 3.81077 7.13595 3.51953C7.13595 3.2283 6.89984 2.99219 6.6086 2.99219H2.28516C1.02516 2.99219 0 4.01734 0 5.27734V30.7305C0 31.9905 1.02516 33.0156 2.28516 33.0156H33.7148C34.9749 33.0156 36 31.9905 36 30.7305V16.6739C36 16.3827 35.764 16.1466 35.4727 16.1466C35.1814 16.1466 34.9453 16.3827 34.9453 16.6739V30.7305C34.9453 31.4089 34.3933 31.9609 33.7148 31.9609H2.28516C1.60671 31.9609 1.05469 31.4089 1.05469 30.7305V10.6211H34.9453V14.2011C34.9453 14.4923 35.1814 14.7284 35.4727 14.7284Z" fill="black"/>
<path d="M2.96875 6.89453C2.96875 7.7669 3.67841 8.47656 4.55078 8.47656C5.42315 8.47656 6.13281 7.7669 6.13281 6.89453C6.13281 6.02216 5.42315 5.3125 4.55078 5.3125C3.67841 5.3125 2.96875 6.02216 2.96875 6.89453ZM5.07813 6.89453C5.07813 7.18534 4.84159 7.42188 4.55078 7.42188C4.25997 7.42188 4.02344 7.18534 4.02344 6.89453C4.02344 6.60372 4.25997 6.36719 4.55078 6.36719C4.84159 6.36719 5.07813 6.60372 5.07813 6.89453Z" fill="black"/>
<path d="M8.76953 8.47656C9.6419 8.47656 10.3516 7.7669 10.3516 6.89453C10.3516 6.02216 9.6419 5.3125 8.76953 5.3125C7.89716 5.3125 7.1875 6.02216 7.1875 6.89453C7.1875 7.7669 7.89716 8.47656 8.76953 8.47656ZM8.76953 6.36719C9.06034 6.36719 9.29687 6.60372 9.29687 6.89453C9.29687 7.18534 9.06034 7.42188 8.76953 7.42188C8.47872 7.42188 8.24219 7.18534 8.24219 6.89453C8.24219 6.60372 8.47872 6.36719 8.76953 6.36719Z" fill="black"/>
<path d="M14.5703 6.89453C14.5703 6.02216 13.8606 5.3125 12.9883 5.3125C12.1159 5.3125 11.4062 6.02216 11.4062 6.89453C11.4062 7.7669 12.1159 8.47656 12.9883 8.47656C13.8606 8.47656 14.5703 7.7669 14.5703 6.89453ZM12.4609 6.89453C12.4609 6.60372 12.6975 6.36719 12.9883 6.36719C13.2791 6.36719 13.5156 6.60372 13.5156 6.89453C13.5156 7.18534 13.2791 7.42188 12.9883 7.42188C12.6975 7.42188 12.4609 7.18534 12.4609 6.89453Z" fill="black"/>
<path d="M31.1539 23.7424H31.9352C32.6257 23.7424 33.1876 23.1806 33.1876 22.49V20.4473C33.1876 19.7567 32.6258 19.1949 31.9352 19.1949H31.1539C31.0688 19.1949 30.9935 19.1406 30.9668 19.0598C30.8506 18.7089 30.7072 18.363 30.5405 18.0316C30.502 17.955 30.5165 17.8631 30.5769 17.8027L31.1296 17.25C31.6178 16.7617 31.6178 15.9671 31.1296 15.4789L29.6852 14.0345C29.1968 13.5463 28.4023 13.5461 27.9141 14.0345L27.3613 14.5873C27.3011 14.6475 27.2091 14.6621 27.1324 14.6236C26.8014 14.457 26.4555 14.3137 26.1042 14.1974C26.0235 14.1706 25.9691 14.0954 25.9691 14.0102V13.229C25.9691 12.5384 25.4074 11.9766 24.7167 11.9766H22.674C21.9834 11.9766 21.4215 12.5384 21.4215 13.229V14.0102C21.4215 14.0803 21.3844 14.1432 21.3263 14.1784C20.482 13.2725 19.0695 12.8801 17.8484 13.2364C17.5958 13.3088 17.4055 13.5044 17.3396 13.7594C17.2742 14.012 17.3481 14.2835 17.5324 14.4679L18.3353 15.2708C18.5662 15.5017 18.5662 15.8777 18.3352 16.1088C18.1587 16.2773 17.7957 16.3774 17.4972 16.1088L16.6944 15.3059C16.5101 15.1216 16.2387 15.0477 15.986 15.1131C15.7309 15.1791 15.5353 15.3694 15.4629 15.6221C15.1144 16.8388 15.4535 18.1503 16.3478 19.0446C16.3665 19.0633 16.3865 19.0804 16.4056 19.0987C16.3706 19.1574 16.3074 19.1951 16.2368 19.1951H15.4555C14.7649 19.1951 14.2031 19.7569 14.2031 20.4475V22.4902C14.2031 23.1807 14.7649 23.7426 15.4555 23.7426H16.2368C16.3219 23.7426 16.3972 23.7969 16.4239 23.8777C16.5402 24.2289 16.6836 24.5749 16.8502 24.9058C16.8888 24.9825 16.8742 25.0744 16.8139 25.1347L16.2612 25.6874C15.7729 26.1757 15.7729 26.9702 16.2612 27.4585L17.7056 28.9029C18.1939 29.3913 18.9885 29.3911 19.4768 28.9029L20.0295 28.3501C20.0896 28.2899 20.1817 28.2753 20.2584 28.3139C20.5894 28.4805 20.9353 28.6238 21.2865 28.7401C21.3673 28.7669 21.4216 28.8421 21.4216 28.9273V29.7085C21.4216 30.3991 21.9834 30.9609 22.674 30.9609H24.7167C25.4074 30.9609 25.9692 30.3991 25.9692 29.7085V28.9273C25.9692 28.8568 26.0068 28.7935 26.0655 28.7585C26.6653 29.4064 27.6616 29.8458 28.5832 29.8359C28.9032 29.8359 29.226 29.7917 29.5423 29.7011C29.795 29.6287 29.9853 29.4332 30.0512 29.1781C30.1166 28.9255 30.0427 28.654 29.8583 28.4697L29.0555 27.6669C28.8245 27.4358 28.8245 27.0599 29.0554 26.8289C29.2864 26.5978 29.6624 26.5977 29.8935 26.8288L30.6964 27.6317C30.8808 27.8161 31.1521 27.89 31.4049 27.8245C31.66 27.7585 31.8555 27.5682 31.9279 27.3156C32.2799 26.1206 31.9136 24.7146 30.9859 23.8378C31.0209 23.7796 31.0838 23.7424 31.1539 23.7424ZM24.9145 28.9273V29.7085C24.9145 29.8176 24.8257 29.9063 24.7167 29.9063H22.674C22.5649 29.9063 22.4762 29.8176 22.4762 29.7085V28.9273C22.4762 28.3865 22.1314 27.909 21.618 27.7389C21.3154 27.6387 21.0175 27.5152 20.7323 27.3717C20.2482 27.1282 19.6662 27.2217 19.2836 27.6044L18.7308 28.1571C18.6537 28.2341 18.5283 28.2341 18.4512 28.1571L17.0068 26.7127C16.9297 26.6356 16.9297 26.5102 17.0068 26.4331L17.5596 25.8804C17.9421 25.4978 18.0356 24.9156 17.7922 24.4316C17.6487 24.1465 17.5253 23.8485 17.4251 23.546C17.2551 23.0326 16.7775 22.6877 16.2367 22.6877H15.4555C15.3464 22.6877 15.2577 22.599 15.2577 22.49V20.4473C15.2577 20.3382 15.3464 20.2495 15.4555 20.2495H16.2367C16.6586 20.2495 17.0414 20.039 17.2702 19.7029C17.7967 19.9612 18.3825 20.0839 18.9691 20.0585C18.8523 20.4948 18.7919 20.96 18.7919 21.4382C18.7919 24.1586 21.0052 26.3719 23.7257 26.3719C24.1869 26.3719 24.6438 26.3089 25.0804 26.1872C25.059 26.7756 25.1884 27.3654 25.4557 27.8971C25.1228 28.1266 24.9145 28.5075 24.9145 28.9273ZM31.006 26.4497L30.6392 26.0829C29.9969 25.4406 28.9519 25.4408 28.3096 26.0829C27.6673 26.7252 27.6673 27.7702 28.3096 28.4125L28.6765 28.7793C28.0082 28.8048 27.3495 28.5544 26.8654 28.0703C26.1917 27.3966 25.9565 26.3995 26.2663 25.5299C26.3342 25.3395 26.2872 25.1271 26.1454 24.983L24.8237 23.6401L24.0863 22.9027C23.8804 22.6968 23.5465 22.6968 23.3405 22.9027C23.1346 23.1086 23.1346 23.4426 23.3406 23.6484L24.075 24.3829L24.8386 25.1587C24.4816 25.2625 24.1061 25.3172 23.7258 25.3172C21.5868 25.3172 19.8466 23.5771 19.8466 21.4382C19.8466 21.0414 19.8984 20.6591 19.9962 20.3042L21.6036 21.9116C21.8095 22.1175 22.1434 22.1176 22.3493 21.9116C22.5553 21.7058 22.5553 21.3719 22.3494 21.1659L20.1759 18.9923C20.0318 18.8483 19.8178 18.8001 19.626 18.8685C18.7471 19.1817 17.7529 18.958 17.0935 18.2986C16.6095 17.8146 16.3588 17.1552 16.3846 16.4875L16.7514 16.8544C17.3145 17.437 18.4259 17.5262 19.081 16.8544C19.7232 16.212 19.7232 15.167 19.081 14.5248L18.7142 14.1581C19.3245 14.1252 20.0849 14.4035 20.5556 14.8977C21.1956 15.5605 21.4029 16.5523 21.0838 17.4246C21.0132 17.6173 21.061 17.8335 21.206 17.9786L27.1852 23.9578C27.3303 24.1029 27.5467 24.1506 27.7393 24.0802C28.6116 23.7609 29.6034 23.9683 30.2659 24.6081C30.7148 25.0288 31.0391 25.7742 31.006 26.4497ZM28.4418 22.8825C28.5862 22.4191 28.6595 21.9363 28.6595 21.4383C28.6595 20.0751 28.1159 18.8064 27.1287 17.8657C26.9178 17.6649 26.584 17.6729 26.3831 17.8838C26.1822 18.0947 26.1902 18.4284 26.4011 18.6294C27.1773 19.3689 27.6048 20.3665 27.6048 21.4383C27.6048 21.8747 27.5359 22.2848 27.3984 22.6793L22.4833 17.7643C23.07 17.57 23.7818 17.4922 24.504 17.6371C24.7892 17.6955 25.068 17.511 25.126 17.2255C25.1841 16.9401 24.9998 16.6617 24.7144 16.6036C24.0029 16.4546 23.0899 16.4701 22.2815 16.7207C22.3031 16.1416 22.1817 15.564 21.9281 15.0445C22.2651 14.8157 22.4762 14.4325 22.4762 14.01V13.2288C22.4762 13.1198 22.565 13.031 22.674 13.031H24.7167C24.8257 13.031 24.9145 13.1197 24.9145 13.2288V14.01C24.9145 14.5508 25.2593 15.0283 25.7727 15.1984C26.0753 15.2985 26.3732 15.4221 26.6584 15.5656C27.1423 15.809 27.7245 15.7155 28.1071 15.3329L28.6599 14.7801C28.7369 14.703 28.8624 14.7031 28.9394 14.7801L30.3839 16.2245C30.461 16.3016 30.461 16.4271 30.3839 16.5041L29.8312 17.0569C29.4486 17.4395 29.355 18.0217 29.5985 18.5055C29.742 18.791 29.8656 19.089 29.9656 19.3912C30.1357 19.9046 30.6132 20.2495 31.154 20.2495H31.9352C32.0443 20.2495 32.133 20.3381 32.133 20.4472V22.4899C32.133 22.599 32.0443 22.6876 31.9352 22.6876H31.154C30.7315 22.6876 30.3483 22.8988 30.1195 23.2356C29.5997 22.9821 29.0215 22.8607 28.4418 22.8825Z" fill="#E6B400"/>
<path d="M11.918 17.7734H3.48047C3.18923 17.7734 2.95312 18.0095 2.95312 18.3008C2.95312 18.592 3.18923 18.8281 3.48047 18.8281H11.918C12.2092 18.8281 12.4453 18.592 12.4453 18.3008C12.4453 18.0095 12.2092 17.7734 11.918 17.7734Z" fill="black"/>
<path d="M11.9169 19.8828H8.23438C7.94314 19.8828 7.70703 20.1189 7.70703 20.4102C7.70703 20.7014 7.94314 20.9375 8.23438 20.9375H11.9169C12.2081 20.9375 12.4442 20.7014 12.4442 20.4102C12.4442 20.1189 12.2081 19.8828 11.9169 19.8828Z" fill="#E6B400"/>
<path d="M3.48047 20.9375H6.12612C6.41735 20.9375 6.65346 20.7014 6.65346 20.4102C6.65346 20.1189 6.41735 19.8828 6.12612 19.8828H3.48047C3.18923 19.8828 2.95312 20.1189 2.95312 20.4102C2.95312 20.7014 3.18923 20.9375 3.48047 20.9375Z" fill="#E6B400"/>
<path d="M11.918 21.9922H3.48047C3.18923 21.9922 2.95312 22.2283 2.95312 22.5195C2.95312 22.8108 3.18923 23.0469 3.48047 23.0469H11.918C12.2092 23.0469 12.4453 22.8108 12.4453 22.5195C12.4453 22.2283 12.2092 21.9922 11.918 21.9922Z" fill="black"/>
<path d="M11.9193 24.1016H6.91406C6.62283 24.1016 6.38672 24.3377 6.38672 24.6289C6.38672 24.9201 6.62283 25.1562 6.91406 25.1562H11.9193C12.2106 25.1562 12.4467 24.9201 12.4467 24.6289C12.4467 24.3377 12.2106 24.1016 11.9193 24.1016Z" fill="#E6B400"/>
<path d="M3.48047 24.1016C3.18923 24.1016 2.95312 24.3377 2.95312 24.6289C2.95312 24.9201 3.18923 25.1562 3.48047 25.1562H4.80333C5.09456 25.1562 5.33067 24.9201 5.33067 24.6289C5.33067 24.3377 5.09456 24.1016 4.80333 24.1016H3.48047Z" fill="black"/>
</svg>
