<svg width="32" height="32" viewBox="0 0 32 32" fill="none" xmlns="http://www.w3.org/2000/svg">
<g clip-path="url(#clip0_1091_332281)">
<path d="M20.5391 15.9924H19.9141V6.56738C19.9141 6.39488 20.0541 6.25488 20.2266 6.25488H22.8522V6.87988H20.5391V15.9924Z" fill="#E6B400"/>
<path d="M12.0866 15.9924H11.4616V6.87988H9.14844V6.25488H11.7741C11.9466 6.25488 12.0866 6.39488 12.0866 6.56738V15.9924Z" fill="#E6B400"/>
<path d="M16 3.49414C15.2244 3.49414 14.5938 2.86352 14.5938 2.08789C14.5938 1.31227 15.2244 0.681641 16 0.681641C16.7756 0.681641 17.4062 1.31227 17.4062 2.08789C17.4062 2.86352 16.7756 3.49414 16 3.49414ZM16 1.30664C15.5694 1.30664 15.2188 1.65727 15.2188 2.08789C15.2188 2.51852 15.5694 2.86914 16 2.86914C16.4306 2.86914 16.7812 2.51852 16.7812 2.08789C16.7812 1.65727 16.4306 1.30664 16 1.30664Z" fill="#E6B400"/>
<path d="M15.6875 3.18164H16.3125V15.9941H15.6875V3.18164Z" fill="#E6B400"/>
<path d="M6.12563 15.9924H5.50063V11.8799H3.1875V11.2549H5.81313C5.98563 11.2549 6.12563 11.3949 6.12563 11.5674V15.9924Z" fill="#E6B400"/>
<path d="M2.09375 12.9756C1.31813 12.9756 0.6875 12.345 0.6875 11.5693C0.6875 10.7937 1.31813 10.1631 2.09375 10.1631C2.86937 10.1631 3.5 10.7937 3.5 11.5693C3.5 12.345 2.86937 12.9756 2.09375 12.9756ZM2.09375 10.7881C1.66313 10.7881 1.3125 11.1387 1.3125 11.5693C1.3125 12 1.66313 12.3506 2.09375 12.3506C2.52437 12.3506 2.875 12 2.875 11.5693C2.875 11.1387 2.52437 10.7881 2.09375 10.7881Z" fill="#E6B400"/>
<path d="M26.5 15.9924H25.875V11.5674C25.875 11.3949 26.015 11.2549 26.1875 11.2549H28.8131V11.8799H26.5V15.9924Z" fill="#E6B400"/>
<path d="M29.9062 12.9756C29.1306 12.9756 28.5 12.345 28.5 11.5693C28.5 10.7937 29.1306 10.1631 29.9062 10.1631C30.6819 10.1631 31.3125 10.7937 31.3125 11.5693C31.3125 12.345 30.6819 12.9756 29.9062 12.9756ZM29.9062 10.7881C29.4756 10.7881 29.125 11.1387 29.125 11.5693C29.125 12 29.4756 12.3506 29.9062 12.3506C30.3369 12.3506 30.6875 12 30.6875 11.5693C30.6875 11.1387 30.3369 10.7881 29.9062 10.7881Z" fill="#E6B400"/>
<path d="M16.002 31.3059C15.4695 31.3059 14.937 31.2784 14.4083 31.2234C13.4745 31.1265 12.762 30.4059 12.6752 29.4715L12.4739 27.3027C12.4333 26.8652 12.1677 26.5052 11.7627 26.3396C11.3583 26.174 10.9158 26.244 10.5802 26.5271L8.91516 27.9309C8.19766 28.5359 7.18453 28.5496 6.45078 27.964C5.58828 27.2752 4.79828 26.4915 4.10266 25.6352C3.51078 24.9065 3.51641 23.8927 4.11578 23.1709L5.50641 21.4952C5.78703 21.1571 5.85328 20.7146 5.68453 20.3115C5.51578 19.9084 5.15328 19.6452 4.71578 19.6084L2.54516 19.424C1.60953 19.3446 0.883282 18.6371 0.778907 17.704C0.727657 17.2459 0.697032 16.779 0.687657 16.3159C0.683907 16.1459 0.747657 15.9859 0.865782 15.8652C0.983907 15.7446 1.14266 15.6777 1.31266 15.6777H8.39891C8.57141 15.6777 8.71141 15.8177 8.71141 15.9902C8.71141 20.009 11.9814 23.279 16.0002 23.279C20.0189 23.279 23.2889 20.009 23.2889 15.9902C23.2889 15.8177 23.4289 15.6777 23.6014 15.6777H30.6877C30.8577 15.6777 31.0164 15.744 31.1345 15.8652C31.2527 15.9859 31.3158 16.1465 31.3127 16.3159C31.3039 16.7377 31.277 17.164 31.2339 17.5827C31.137 18.5165 30.4164 19.229 29.482 19.3159L27.3133 19.5171C26.8758 19.5577 26.5158 19.8234 26.3502 20.2284C26.1845 20.6327 26.2545 21.0752 26.5377 21.4109L27.9414 23.0746C28.5464 23.7921 28.5602 24.8052 27.9745 25.5384C27.2858 26.4009 26.5027 27.1909 25.6458 27.8865C24.917 28.4784 23.9033 28.4727 23.1814 27.8734L21.5058 26.4827C21.1677 26.2021 20.7252 26.1359 20.322 26.3046C19.9189 26.4734 19.6558 26.8359 19.6189 27.2734L19.4345 29.444C19.3552 30.3796 18.6477 31.1059 17.7145 31.2102C17.1458 31.274 16.5733 31.3059 16.002 31.3059ZM11.3245 25.6284C11.5514 25.6284 11.7802 25.6721 11.9989 25.7615C12.6139 26.0134 13.0339 26.5815 13.0958 27.2452L13.297 29.414C13.3558 30.0477 13.8395 30.5365 14.4727 30.6021C15.5245 30.7115 16.592 30.7071 17.6445 30.5902C18.2777 30.5196 18.7577 30.0271 18.8114 29.3927L18.9958 27.2221C19.052 26.5584 19.4677 25.9865 20.0802 25.7296C20.6927 25.4727 21.392 25.5777 21.9045 26.0034L23.5802 27.394C24.0702 27.8009 24.757 27.8046 25.2514 27.4027C26.0733 26.7352 26.8252 25.9771 27.4858 25.1496C27.8827 24.6521 27.8739 23.9652 27.4633 23.4784L26.0595 21.8146C25.6302 21.3052 25.5195 20.6071 25.7714 19.9921C26.0233 19.3771 26.5914 18.9571 27.2552 18.8952L29.4239 18.694C30.0577 18.6352 30.5464 18.1515 30.612 17.5184C30.6539 17.1165 30.6795 16.7077 30.6877 16.3027H23.9077C23.7433 20.5221 20.2589 23.904 16.0002 23.904C11.7414 23.904 8.25703 20.5221 8.09266 16.3027H1.31266C1.32203 16.7465 1.35141 17.1946 1.40016 17.6346C1.47078 18.2677 1.96328 18.7477 2.59766 18.8015L4.76828 18.9859C5.43203 19.0421 6.00391 19.4577 6.26078 20.0702C6.51766 20.6827 6.41266 21.3821 5.98703 21.8946L4.59641 23.5702C4.18953 24.0602 4.18641 24.7477 4.58766 25.2415C5.25516 26.0634 6.01328 26.8152 6.84078 27.4759C7.33828 27.8727 8.02516 27.8634 8.51203 27.4534L10.1758 26.0496C10.5045 25.7727 10.912 25.6284 11.3245 25.6284Z" fill="white"/>
<path d="M15.9994 22.1771C12.5881 22.1771 9.8125 19.4015 9.8125 15.9902C9.8125 15.8177 9.9525 15.6777 10.125 15.6777H21.8731C22.0456 15.6777 22.1856 15.8177 22.1856 15.9902C22.1863 19.4021 19.4106 22.1771 15.9994 22.1771ZM10.4463 16.3034C10.6088 19.2252 13.0375 21.5527 15.9994 21.5527C18.9613 21.5527 21.39 19.2252 21.5525 16.3034H10.4463Z" fill="white"/>
<path d="M8.05469 7.97559C7.27906 7.97559 6.64844 7.34496 6.64844 6.56934C6.64844 5.79371 7.27906 5.16309 8.05469 5.16309C8.83031 5.16309 9.46094 5.79371 9.46094 6.56934C9.46094 7.34496 8.82969 7.97559 8.05469 7.97559ZM8.05469 5.78809C7.62406 5.78809 7.27344 6.13871 7.27344 6.56934C7.27344 6.99996 7.62406 7.35059 8.05469 7.35059C8.48531 7.35059 8.83594 6.99996 8.83594 6.56934C8.83594 6.13871 8.48531 5.78809 8.05469 5.78809Z" fill="#E6B400"/>
<path d="M23.9453 7.97559C23.1697 7.97559 22.5391 7.34496 22.5391 6.56934C22.5391 5.79371 23.1697 5.16309 23.9453 5.16309C24.7209 5.16309 25.3516 5.79371 25.3516 6.56934C25.3516 7.34496 24.7209 7.97559 23.9453 7.97559ZM23.9453 5.78809C23.5147 5.78809 23.1641 6.13871 23.1641 6.56934C23.1641 6.99996 23.5147 7.35059 23.9453 7.35059C24.3759 7.35059 24.7266 6.99996 24.7266 6.56934C24.7266 6.13871 24.3766 5.78809 23.9453 5.78809Z" fill="#E6B400"/>
</g>
<defs>
<clipPath id="clip0_1091_332281">
<rect width="32" height="32" fill="white"/>
</clipPath>
</defs>
</svg>
