<svg width="52" height="52" viewBox="0 0 52 52" fill="none" xmlns="http://www.w3.org/2000/svg">
<path d="M51.2383 21.2726C51.6591 21.2726 52 20.9316 52 20.5109V7.62109C52 5.80109 50.5193 4.32031 48.6992 4.32031H13.1081C12.6874 4.32031 12.3463 4.66136 12.3463 5.08203C12.3463 5.5027 12.6874 5.84375 13.1081 5.84375H48.6992C49.6792 5.84375 50.4766 6.64112 50.4766 7.62109V13.8164H1.52344V7.62109C1.52344 6.64112 2.3208 5.84375 3.30078 5.84375H9.54576C9.96643 5.84375 10.3075 5.5027 10.3075 5.08203C10.3075 4.66136 9.96643 4.32031 9.54576 4.32031H3.30078C1.48078 4.32031 0 5.80109 0 7.62109V44.3867C0 46.2067 1.48078 47.6875 3.30078 47.6875H48.6992C50.5193 47.6875 52 46.2067 52 44.3867V24.0829C52 23.6622 51.6591 23.3211 51.2383 23.3211C50.8175 23.3211 50.4766 23.6622 50.4766 24.0829V44.3867C50.4766 45.3667 49.6792 46.1641 48.6992 46.1641H3.30078C2.3208 46.1641 1.52344 45.3667 1.52344 44.3867V15.3398H50.4766V20.5109C50.4766 20.9316 50.8175 21.2726 51.2383 21.2726Z" fill="white"/>
<path d="M4.28906 9.95703C4.28906 11.2171 5.31413 12.2422 6.57422 12.2422C7.83431 12.2422 8.85938 11.2171 8.85938 9.95703C8.85938 8.69695 7.83431 7.67188 6.57422 7.67188C5.31413 7.67188 4.28906 8.69695 4.28906 9.95703ZM7.33594 9.95703C7.33594 10.3771 6.99428 10.7188 6.57422 10.7188C6.15416 10.7188 5.8125 10.3771 5.8125 9.95703C5.8125 9.53697 6.15416 9.19531 6.57422 9.19531C6.99428 9.19531 7.33594 9.53697 7.33594 9.95703Z" fill="white"/>
<path d="M12.668 12.2422C13.9281 12.2422 14.9531 11.2171 14.9531 9.95703C14.9531 8.69695 13.9281 7.67188 12.668 7.67188C11.4079 7.67188 10.3828 8.69695 10.3828 9.95703C10.3828 11.2171 11.4079 12.2422 12.668 12.2422ZM12.668 9.19531C13.088 9.19531 13.4297 9.53697 13.4297 9.95703C13.4297 10.3771 13.088 10.7188 12.668 10.7188C12.2479 10.7188 11.9062 10.3771 11.9062 9.95703C11.9062 9.53697 12.2479 9.19531 12.668 9.19531Z" fill="white"/>
<path d="M21.0469 9.95703C21.0469 8.69695 20.0218 7.67188 18.7617 7.67188C17.5016 7.67188 16.4766 8.69695 16.4766 9.95703C16.4766 11.2171 17.5016 12.2422 18.7617 12.2422C20.0218 12.2422 21.0469 11.2171 21.0469 9.95703ZM18 9.95703C18 9.53697 18.3417 9.19531 18.7617 9.19531C19.1818 9.19531 19.5234 9.53697 19.5234 9.95703C19.5234 10.3771 19.1818 10.7188 18.7617 10.7188C18.3417 10.7188 18 10.3771 18 9.95703Z" fill="white"/>
<path d="M45.0001 34.2911H46.1286C47.126 34.2911 47.9376 33.4796 47.9376 32.482V29.5314C47.9376 28.5339 47.1261 27.7224 46.1286 27.7224H45.0001C44.8771 27.7224 44.7684 27.644 44.7299 27.5273C44.562 27.0204 44.3549 26.5207 44.1141 26.0421C44.0584 25.9314 44.0794 25.7986 44.1666 25.7115L44.965 24.9131C45.6701 24.2077 45.6701 23.0601 44.965 22.3548L42.8786 20.2685C42.1731 19.5633 41.0256 19.5631 40.3203 20.2685L39.5218 21.067C39.4349 21.154 39.302 21.1751 39.1912 21.1194C38.7131 20.8788 38.2135 20.6717 37.7061 20.5038C37.5895 20.4651 37.511 20.3565 37.511 20.2334V19.1049C37.511 18.1075 36.6995 17.2959 35.702 17.2959H32.7514C31.7538 17.2959 30.9422 18.1074 30.9422 19.1049V20.2334C30.9422 20.3346 30.8885 20.4255 30.8046 20.4763C29.5852 19.1678 27.5449 18.6011 25.781 19.1157C25.4161 19.2203 25.1413 19.5028 25.046 19.8711C24.9516 20.236 25.0583 20.6282 25.3245 20.8945L26.4843 22.0542C26.8179 22.3878 26.8179 22.9309 26.4841 23.2646C26.2292 23.5081 25.7049 23.6526 25.2737 23.2646L24.1141 22.105C23.8479 21.8388 23.4559 21.732 23.0908 21.8264C22.7224 21.9218 22.4398 22.1966 22.3353 22.5617C21.8319 24.3191 22.3217 26.2135 23.6135 27.5053C23.6405 27.5323 23.6693 27.5571 23.697 27.5834C23.6464 27.6683 23.5551 27.7226 23.4531 27.7226H22.3247C21.3271 27.7226 20.5156 28.5341 20.5156 29.5316V32.4822C20.5156 33.4797 21.3271 34.2913 22.3247 34.2913H23.4531C23.5761 34.2913 23.6848 34.3697 23.7235 34.4864C23.8915 34.9938 24.0985 35.4935 24.3391 35.9714C24.3949 36.0822 24.3738 36.2151 24.2867 36.3021L23.4884 37.1005C22.7831 37.8057 22.783 38.9534 23.4884 39.6587L25.5748 41.745C26.2801 42.4505 27.4279 42.4503 28.1331 41.745L28.9315 40.9466C29.0183 40.8596 29.1514 40.8385 29.2621 40.8943C29.7402 41.1349 30.2398 41.3419 30.7472 41.5099C30.8638 41.5486 30.9423 41.6572 30.9423 41.7803V42.9087C30.9423 43.9063 31.7538 44.7178 32.7514 44.7178H35.702C36.6995 44.7178 37.5111 43.9063 37.5111 42.9087V41.7803C37.5111 41.6784 37.5654 41.587 37.6502 41.5364C38.5166 42.4723 39.9556 43.107 41.2869 43.0927C41.7491 43.0927 42.2154 43.0289 42.6722 42.8981C43.0372 42.7935 43.312 42.511 43.4073 42.1426C43.5018 41.7776 43.395 41.3855 43.1287 41.1193L41.9691 39.9597C41.6353 39.6259 41.6353 39.0829 41.969 38.7493C42.3026 38.4155 42.8457 38.4153 43.1795 38.7491L44.3392 39.9089C44.6056 40.1752 44.9975 40.2819 45.3627 40.1874C45.7312 40.092 46.0135 39.8172 46.1181 39.4523C46.6265 37.7262 46.0974 35.6953 44.7575 34.4288C44.808 34.3448 44.8989 34.2911 45.0001 34.2911ZM35.9876 41.7803V42.9087C35.9876 43.0663 35.8594 43.1943 35.7019 43.1943H32.7513C32.5937 43.1943 32.4657 43.0663 32.4657 42.9087V41.7803C32.4657 40.9992 31.9675 40.3094 31.226 40.0638C30.789 39.919 30.3587 39.7406 29.9466 39.5333C29.2474 39.1816 28.4067 39.3167 27.854 39.8694L27.0556 40.6678C26.9442 40.7791 26.7631 40.779 26.6517 40.6678L24.5654 38.5815C24.454 38.4701 24.454 38.2889 24.5654 38.1776L25.3638 37.3792C25.9164 36.8266 26.0515 35.9856 25.6999 35.2866C25.4926 34.8747 25.3143 34.4443 25.1695 34.0073C24.924 33.2658 24.2342 32.7675 23.453 32.7675H22.3246C22.167 32.7675 22.039 32.6395 22.039 32.4819V29.5313C22.039 29.3738 22.167 29.2457 22.3246 29.2457H23.453C24.0625 29.2457 24.6153 28.9417 24.9459 28.4562C25.7063 28.8292 26.5525 29.0066 27.3998 28.9698C27.2311 29.6 27.1438 30.2719 27.1438 30.9627C27.1438 34.8922 30.3409 38.0892 34.2704 38.0892C34.9367 38.0892 35.5965 37.9981 36.2272 37.8224C36.1964 38.6723 36.3832 39.5243 36.7694 40.2922C36.2885 40.6237 35.9876 41.174 35.9876 41.7803ZM44.7864 38.2015L44.2567 37.6718C43.3288 36.744 41.8195 36.7442 40.8916 37.6718C39.9639 38.5994 39.9639 40.109 40.8917 41.0366L41.4216 41.5665C40.4563 41.6034 39.5048 41.2416 38.8055 40.5424C37.8324 39.5693 37.4927 38.129 37.9402 36.873C38.0383 36.598 37.9705 36.2911 37.7656 36.083L35.8564 34.1433L34.7913 33.0781C34.4939 32.7806 34.0116 32.7806 33.7141 33.0781C33.4166 33.3756 33.4166 33.8579 33.7142 34.1553L34.775 35.2161L35.878 36.3368C35.3623 36.4867 34.82 36.5658 34.2705 36.5658C31.1809 36.5658 28.6673 34.0522 28.6673 30.9627C28.6673 30.3895 28.7421 29.8373 28.8834 29.3247L31.2052 31.6465C31.5027 31.944 31.985 31.9441 32.2824 31.6466C32.5799 31.3492 32.5799 30.8669 32.2825 30.5694L29.143 27.4298C28.9348 27.2218 28.6257 27.1521 28.3486 27.2509C27.0791 27.7033 25.6431 27.3801 24.6907 26.4278C23.9915 25.7286 23.6293 24.7762 23.6666 23.8117L24.1965 24.3416C25.0098 25.1832 26.6152 25.312 27.5614 24.3416C28.4891 23.4138 28.4891 21.9043 27.5614 20.9767L27.0316 20.447C27.9131 20.3995 29.0115 20.8014 29.6914 21.5153C30.6159 22.4726 30.9153 23.9053 30.4543 25.1653C30.3524 25.4436 30.4214 25.756 30.6309 25.9656L39.2675 34.6021C39.4771 34.8118 39.7896 34.8806 40.0679 34.7789C41.3278 34.3178 42.7605 34.6173 43.7175 35.5414C44.3658 36.1491 44.8343 37.2258 44.7864 38.2015ZM41.0825 33.0489C41.2911 32.3796 41.3971 31.6821 41.3971 30.9629C41.3971 28.9938 40.6118 27.1612 39.1859 25.8025C38.8813 25.5124 38.3992 25.524 38.1089 25.8286C37.8187 26.1332 37.8303 26.6153 38.1349 26.9055C39.2561 27.9738 39.8736 29.4147 39.8736 30.9629C39.8736 31.5932 39.774 32.1856 39.5755 32.7554L32.4759 25.6559C33.3233 25.3753 34.3515 25.2629 35.3947 25.4723C35.8067 25.5566 36.2093 25.2901 36.2932 24.8777C36.377 24.4654 36.1109 24.0633 35.6986 23.9794C34.6708 23.7642 33.352 23.7866 32.1844 24.1485C32.2155 23.3121 32.0402 22.4777 31.674 21.7274C32.1607 21.3969 32.4657 20.8434 32.4657 20.2331V19.1046C32.4657 18.9472 32.5938 18.819 32.7514 18.819H35.702C35.8594 18.819 35.9876 18.9471 35.9876 19.1046V20.2331C35.9876 21.0142 36.4857 21.704 37.2272 21.9496C37.6643 22.0943 38.0947 22.2728 38.5066 22.4801C39.2056 22.8317 40.0465 22.6966 40.5991 22.1439L41.3976 21.3455C41.5089 21.2341 41.6901 21.2343 41.8014 21.3455L43.8878 23.4318C43.9992 23.5432 43.9992 23.7244 43.8878 23.8357L43.0895 24.6341C42.5368 25.1868 42.4017 26.0277 42.7533 26.7266C42.9606 27.1389 43.1392 27.5694 43.2837 28.006C43.5293 28.7475 44.2191 29.2456 45.0002 29.2456H46.1287C46.2862 29.2456 46.4143 29.3737 46.4143 29.5312V32.4818C46.4143 32.6394 46.2862 32.7674 46.1287 32.7674H45.0002C44.3899 32.7674 43.8364 33.0724 43.5059 33.559C42.7551 33.1928 41.9199 33.0174 41.0825 33.0489Z" fill="#E6B400"/>
<path d="M17.2148 25.6748H5.02734C4.60667 25.6748 4.26562 26.0159 4.26562 26.4365C4.26562 26.8572 4.60667 27.1982 5.02734 27.1982H17.2148C17.6355 27.1982 17.9766 26.8572 17.9766 26.4365C17.9766 26.0159 17.6355 25.6748 17.2148 25.6748Z" fill="white"/>
<path d="M17.2137 28.7217H11.8945C11.4739 28.7217 11.1328 29.0627 11.1328 29.4834C11.1328 29.9041 11.4739 30.2451 11.8945 30.2451H17.2137C17.6343 30.2451 17.9754 29.9041 17.9754 29.4834C17.9754 29.0627 17.6343 28.7217 17.2137 28.7217Z" fill="#E6B400"/>
<path d="M5.02734 30.2451H8.84884C9.26951 30.2451 9.61055 29.9041 9.61055 29.4834C9.61055 29.0627 9.26951 28.7217 8.84884 28.7217H5.02734C4.60667 28.7217 4.26562 29.0627 4.26562 29.4834C4.26562 29.9041 4.60667 30.2451 5.02734 30.2451Z" fill="#E6B400"/>
<path d="M17.2148 31.7686H5.02734C4.60667 31.7686 4.26562 32.1096 4.26562 32.5303C4.26562 32.9509 4.60667 33.292 5.02734 33.292H17.2148C17.6355 33.292 17.9766 32.9509 17.9766 32.5303C17.9766 32.1096 17.6355 31.7686 17.2148 31.7686Z" fill="white"/>
<path d="M17.2142 34.8154H9.98438C9.5637 34.8154 9.22266 35.1565 9.22266 35.5771C9.22266 35.9978 9.5637 36.3389 9.98438 36.3389H17.2142C17.6349 36.3389 17.9759 35.9978 17.9759 35.5771C17.9759 35.1565 17.6349 34.8154 17.2142 34.8154Z" fill="#E6B400"/>
<path d="M5.02734 34.8154C4.60667 34.8154 4.26562 35.1565 4.26562 35.5771C4.26562 35.9978 4.60667 36.3389 5.02734 36.3389H6.93814C7.35881 36.3389 7.69986 35.9978 7.69986 35.5771C7.69986 35.1565 7.35881 34.8154 6.93814 34.8154H5.02734Z" fill="white"/>
</svg>
