<svg width="52" height="52" viewBox="0 0 52 52" fill="none" xmlns="http://www.w3.org/2000/svg">
<g clip-path="url(#clip0_1091_296851)">
<path d="M50.5656 40.2762C50.1446 40.2762 49.8034 40.6175 49.8034 41.0385V43.6463H28.544V12.8029C28.544 11.8481 29.3207 11.0713 30.2755 11.0713H48.0718C49.0266 11.0713 49.8035 11.8481 49.8035 12.8029L49.8032 37.4398C49.8032 37.8607 50.1444 38.2019 50.5655 38.2019C50.9865 38.2019 51.3277 37.8608 51.3277 37.4398L51.3279 12.8029C51.3279 11.0075 49.8672 9.54688 48.0719 9.54688H30.2755C28.4802 9.54688 27.0195 11.0075 27.0195 12.8029V48.7438C27.0195 50.5392 28.4802 51.9999 30.2755 51.9999H48.0718C49.8671 51.9999 51.3278 50.5392 51.3278 48.7438V41.0384C51.3278 40.6175 50.9866 40.2762 50.5656 40.2762ZM49.8034 48.7438C49.8034 49.6986 49.0266 50.4754 48.0717 50.4754H30.2755C29.3207 50.4754 28.544 49.6986 28.544 48.7438V45.1705H49.8035V48.7438H49.8034Z" fill="white"/>
<path d="M38.4771 48.585H39.8692C40.2902 48.585 40.6314 48.2439 40.6314 47.8228C40.6314 47.4018 40.2903 47.0605 39.8692 47.0605H38.4771C38.0561 47.0605 37.7148 47.4018 37.7148 47.8228C37.7149 48.2439 38.0561 48.585 38.4771 48.585Z" fill="#E6B400"/>
<path d="M9.75275 8.57299C10.146 8.7229 10.5865 8.52546 10.7364 8.13201L11.2133 6.87984H14.4439C14.4439 6.87984 14.9146 8.12683 14.9157 8.12977C15.2629 9.04983 16.6906 8.51541 16.3418 7.59149L13.7005 0.59282C13.6979 0.585813 13.6951 0.578805 13.6923 0.571898C13.5493 0.224352 13.2143 0 12.8375 0C12.4616 0.00040625 12.1266 0.22557 11.9842 0.573625C11.9818 0.579414 11.9795 0.585102 11.9774 0.590891L9.31187 7.58936C9.16196 7.98281 9.3595 8.42309 9.75275 8.57299ZM12.836 2.6194L13.8686 5.35549H11.7939L12.836 2.6194Z" fill="#E6B400"/>
<path d="M37.0083 8.62286H39.4305C40.9044 8.62286 42.1034 7.42005 42.1034 5.94161C42.1034 5.06076 41.6749 4.27832 41.0157 3.79112C41.2986 3.39787 41.466 2.91606 41.466 2.39566C41.4659 1.07473 40.3912 0 39.0702 0H37.0083C36.5873 0 36.2461 0.341148 36.2461 0.762227V7.86073C36.2461 8.28171 36.5872 8.62286 37.0083 8.62286ZM37.7704 1.52435H39.0702C39.5506 1.52435 39.9414 1.91516 39.9414 2.39555C39.9414 2.87584 39.5506 3.26666 39.0702 3.26666C38.9165 3.26666 37.7704 3.26869 37.7704 3.26869V1.52435ZM37.7704 4.79517C37.9434 4.79446 39.4304 4.79314 39.4304 4.79314C40.0636 4.79314 40.579 5.30837 40.579 5.94171C40.579 6.57962 40.0637 7.09861 39.4304 7.09861H37.7704V4.79517Z" fill="#E6B400"/>
<path d="M32.4727 27.2785C32.4727 30.9736 35.4788 33.9797 39.174 33.9797C42.8691 33.9797 45.8754 30.9736 45.8754 27.2785C45.8754 23.5834 42.8691 20.5771 39.174 20.5771C35.4788 20.5771 32.4727 23.5834 32.4727 27.2785ZM44.351 27.2785C44.351 30.1331 42.0286 32.4554 39.174 32.4554C36.3194 32.4554 33.9971 30.1331 33.9971 27.2785C33.9971 24.4239 36.3194 22.1015 39.174 22.1015C42.0286 22.1015 44.351 24.4239 44.351 27.2785Z" fill="#E6B400"/>
<path d="M37.6378 26.3984C37.3692 26.0744 36.8885 26.0297 36.5646 26.2986C36.2407 26.5673 36.1959 27.0479 36.4647 27.3718L38.2322 29.5021C38.3773 29.6769 38.5924 29.7776 38.8186 29.7776C38.8279 29.7776 38.8372 29.7774 38.8465 29.7771C39.0828 29.7685 39.3018 29.6506 39.4392 29.4582L41.9186 25.9843C42.1632 25.6417 42.0837 25.1656 41.7411 24.9211C41.3982 24.6766 40.9224 24.7562 40.6779 25.0986L38.7733 27.767L37.6378 26.3984Z" fill="#E6B400"/>
<path d="M21.7242 9.54688H3.92787C2.13255 9.54688 0.671875 11.0075 0.671875 12.8029V48.7438C0.671875 50.5392 2.13255 51.9999 3.92787 51.9999H21.7242C23.5195 51.9999 24.9801 50.5392 24.9801 48.7438V12.8028C24.9801 11.0075 23.5195 9.54688 21.7242 9.54688ZM23.4557 48.7437C23.4557 49.6985 22.6789 50.4753 21.7242 50.4753H3.92787C2.97308 50.4753 2.19623 49.6985 2.19623 48.7437V45.1704H23.4557V48.7437ZM23.4557 43.6462H2.19633V12.8028C2.19633 11.848 2.97308 11.0712 3.92797 11.0712H21.7243C22.679 11.0712 23.4558 11.848 23.4558 12.8028V43.6462H23.4557Z" fill="white"/>
<path d="M12.1294 48.585H13.5215C13.9425 48.585 14.2838 48.2439 14.2838 47.8228C14.2838 47.4018 13.9426 47.0605 13.5215 47.0605H12.1294C11.7084 47.0605 11.3672 47.4018 11.3672 47.8228C11.3673 48.2439 11.7084 48.585 12.1294 48.585Z" fill="#E6B400"/>
<path d="M12.8264 20.5762C11.3976 20.5762 10.0336 21.0199 8.88212 21.8594C8.54188 22.1074 8.46713 22.5842 8.71515 22.9243C8.96327 23.2645 9.4398 23.3392 9.78003 23.0913C10.669 22.4432 11.7224 22.1006 12.8264 22.1006C15.6809 22.1006 18.0032 24.423 18.0032 27.2777C18.0032 30.1322 15.6809 32.4545 12.8264 32.4545C9.97178 32.4545 7.64935 30.1322 7.64935 27.2777C7.64935 26.699 7.74391 26.131 7.93058 25.5897C8.06769 25.1918 7.85634 24.7579 7.45841 24.6207C7.06039 24.484 6.62662 24.695 6.48941 25.0929C6.24769 25.7944 6.125 26.5294 6.125 27.2776C6.125 30.9726 9.13125 33.9788 12.8264 33.9788C16.5215 33.9788 19.5277 30.9726 19.5277 27.2776C19.5277 23.5824 16.5215 20.5762 12.8264 20.5762Z" fill="#E6B400"/>
<path d="M10.7759 29.4007C10.9238 29.5435 11.1145 29.6144 11.305 29.6144C11.5046 29.6144 11.704 29.5365 11.8536 29.3816L12.8255 28.3746L13.7975 29.3816C13.947 29.5365 14.1463 29.6144 14.346 29.6144C14.5366 29.6144 14.7273 29.5434 14.8752 29.4007C15.178 29.1083 15.1867 28.6257 14.8944 28.323L13.8848 27.277L14.8944 26.231C15.1868 25.9282 15.1781 25.4457 14.8752 25.1533C14.5724 24.8609 14.0899 24.8693 13.7975 25.1725L12.8255 26.1795L11.8536 25.1725C11.5613 24.8695 11.0787 24.8611 10.7759 25.1533C10.473 25.4457 10.4644 25.9282 10.7568 26.231L11.7663 27.277L10.7568 28.323C10.4643 28.6257 10.473 29.1083 10.7759 29.4007Z" fill="#E6B400"/>
</g>
<defs>
<clipPath id="clip0_1091_296851">
<rect width="52" height="52" fill="white"/>
</clipPath>
</defs>
</svg>
