<svg width="53" height="52" viewBox="0 0 53 52" fill="none" xmlns="http://www.w3.org/2000/svg">
<g clip-path="url(#clip0_1091_300297)">
<path fill-rule="evenodd" clip-rule="evenodd" d="M44.4406 22.6388C43.2806 22.302 42.0937 22.4115 40.9745 22.9671L40.1266 23.3889V17.2794C40.1266 16.1398 39.6382 15.113 38.865 14.3924C46.428 12.7385 50.491 13.3908 51.0811 14.8152C51.5627 15.9695 50.0908 18.7007 44.4406 22.6388ZM46.9841 25.5025C46.9841 25.574 46.9569 25.6204 46.8891 25.6488L24.6749 35.2459C23.5286 35.7403 22.1991 35.2986 21.5683 34.217L19.0111 29.7878L19.0383 29.7888L22.1245 32.3242C22.9521 33.0059 24.0644 33.1323 25.0209 32.6557L41.6799 24.38C42.5752 23.9349 43.4977 23.9076 44.4202 24.3011L46.8891 25.3575C46.957 25.3856 46.9841 25.4299 46.9841 25.5025ZM33.6964 33.069L34.0219 41.1365C34.0276 41.1603 34.0656 41.1727 34.0693 41.1418L36.3077 31.9392L33.6964 33.069ZM38.5461 44.1084V30.9723L38.1256 31.1544L35.6023 41.5143C35.426 42.2442 34.7884 42.7378 34.0558 42.7378C33.1865 42.7378 32.4844 42.0733 32.4482 41.2016L32.1429 33.7393L25.3057 36.6946C23.6444 37.4097 21.7075 36.9418 20.5576 35.5214C18.6788 36.0916 16.7524 36.6008 14.8735 37.0102V44.1084C14.8735 45.4142 15.9316 46.4769 17.2408 46.4769H36.1789C37.4813 46.4769 38.5461 45.4142 38.5461 44.1084ZM34.9037 50.4222H32.3804C32.3262 50.4222 32.2787 50.3748 32.2787 50.3222V48.0549H35.0055V50.3222C35.0054 50.3748 34.958 50.4222 34.9037 50.4222ZM21.141 50.3224C21.141 50.3748 21.0936 50.4223 21.0393 50.4223H18.516C18.4618 50.4223 18.4143 50.3749 18.4143 50.3224V48.055H21.141V50.3224ZM2.33872 35.0457C1.62648 33.3246 5.17402 29.2027 13.2932 24.4904V35.7278C6.83575 36.9786 2.93562 36.4864 2.33872 35.0457ZM30.1353 28.3527L32.5704 27.1425L24.6478 24.8218L24.6275 24.8639L30.1353 28.3527ZM17.2409 14.9121C15.9317 14.9121 14.8736 15.9738 14.8736 17.2795V35.3974C16.3659 35.0638 17.9802 34.6451 19.7031 34.1327L17.4579 30.2453C17.2951 29.9687 17.2544 29.6464 17.3358 29.3372C17.4741 28.8131 17.8286 28.6484 18.2244 28.42C18.8077 28.0821 19.5267 28.142 20.0423 28.5705L23.1285 31.1058C23.4744 31.3953 23.9153 31.4446 24.3223 31.2415L28.4803 29.1733L23.7865 26.1967C23.1014 25.7657 22.8504 24.9186 23.1827 24.1842C23.5151 23.4499 24.3155 23.0806 25.0955 23.3079L34.6527 26.1085L38.5461 24.1737V17.2795C38.5461 15.9737 37.4812 14.9121 36.1789 14.9121H17.2409ZM23.7865 5.24791H29.6334V13.3339H23.7865V5.24791ZM21.955 1.57798H31.4648V3.66958H21.955V1.57798ZM52.5394 14.2105C50.8708 10.1969 40.8252 12.2369 36.4367 13.3435C36.3486 13.3371 36.2671 13.334 36.179 13.334H31.2071V5.24802H31.5259C32.3602 5.24802 33.0452 4.56609 33.0452 3.72881V1.51933C33.0452 0.681814 32.3602 0 31.5259 0H21.8941C21.0598 0 20.3747 0.681698 20.3747 1.51933V3.72881C20.3747 4.56609 21.0598 5.24802 21.8941 5.24802H22.2061V13.334H17.2409C15.0636 13.334 13.2932 15.1037 13.2932 17.2795V22.6722C9.23702 24.9628 5.94051 27.2911 3.73601 29.4215C1.15856 31.9108 0.195293 34.0064 0.880346 35.651C2.29487 39.051 9.77019 37.9964 13.2932 37.3311V44.1084C13.2932 46.1476 14.8465 47.8309 16.8339 48.0338V50.3222C16.8339 51.247 17.5869 52.0002 18.5161 52.0002H21.0394C21.9687 52.0002 22.7216 51.2469 22.7216 50.3222V48.0549H30.6984V50.3222C30.6984 51.247 31.4514 52.0002 32.3806 52.0002H34.9039C35.8332 52.0002 36.5862 51.2469 36.5862 50.3222V48.0338C38.5668 47.8309 40.1269 46.1475 40.1269 44.1084V30.2906L47.5136 27.0975C48.9165 26.4926 48.9177 24.5079 47.5067 23.9054L46.1772 23.3373C48.3071 21.7865 49.9553 20.3125 51.0745 18.9469C52.5869 17.1046 53.0752 15.5109 52.5394 14.2105Z" fill="white"/>
<path fill-rule="evenodd" clip-rule="evenodd" d="M40.9745 22.9672C42.0936 22.4116 43.2806 22.3021 44.4406 22.6389C50.0908 18.7008 51.5627 15.9696 51.0811 14.8153C50.491 13.3909 46.428 12.7386 38.865 14.3925L36.4367 13.3436C40.8252 12.237 50.8708 10.197 52.5394 14.2106C53.0752 15.511 52.5869 17.1047 51.0745 18.947C49.9553 20.3126 48.3071 21.7866 46.1772 23.3374L47.5067 23.9055C48.9177 24.508 48.9165 26.4927 47.5136 27.0976L40.1269 30.2907L38.5461 30.9724L38.1256 31.1545L35.6023 41.5144C35.426 42.2443 34.7884 42.7379 34.0558 42.7379C33.1865 42.7379 32.4844 42.0734 32.4482 41.2017L32.1429 33.7394L25.3057 36.6947C23.6444 37.4097 21.7075 36.9419 20.5576 35.5215C18.6788 36.0917 16.7524 36.6009 14.8735 37.0103L14.8736 35.3975C16.3659 35.0639 17.9802 34.6452 19.7031 34.1328L17.4579 30.2454C17.2951 29.9688 17.2544 29.6465 17.3358 29.3373C17.4634 28.8536 17.7752 28.6761 18.1335 28.4721C18.1635 28.455 18.1938 28.4377 18.2244 28.4201C18.8077 28.0822 19.5267 28.1421 20.0423 28.5706L23.1285 31.1059C23.4744 31.3953 23.9153 31.4447 24.3223 31.2416L28.4803 29.1734L23.7865 26.1968C23.1014 25.7658 22.8504 24.9187 23.1827 24.1842C23.5151 23.45 24.3155 23.0807 25.0955 23.308L34.6527 26.1086L38.5461 24.1738L40.1266 23.3889L40.9745 22.9672ZM13.2932 37.3312V35.7279C6.83575 36.9787 2.93562 36.4865 2.33872 35.0458C1.62648 33.3246 5.17402 29.2028 13.2932 24.4904V22.6723C9.23702 24.9629 5.94051 27.2912 3.73601 29.4216C1.15856 31.9109 0.195293 34.0065 0.880346 35.6511C2.29487 39.0511 9.77019 37.9965 13.2932 37.3312ZM46.8891 25.6489C46.9569 25.6205 46.9841 25.5741 46.9841 25.5026C46.9841 25.43 46.957 25.3857 46.8891 25.3576L44.4202 24.3012C43.4977 23.9077 42.5752 23.935 41.6799 24.3801L25.0209 32.6558C24.0644 33.1324 22.9521 33.006 22.1245 32.3243L19.0383 29.7889L19.0111 29.7879L21.5683 34.2171C22.1991 35.2987 23.5286 35.7404 24.6749 35.246L46.8891 25.6489ZM34.0219 41.1366L33.6964 33.0691L36.3077 31.9393L34.0693 41.1419C34.0656 41.1728 34.0276 41.1604 34.0219 41.1366ZM32.5703 27.1426L30.1353 28.3527L24.6275 24.864L24.6478 24.8219L32.5703 27.1426Z" fill="#E6B400"/>
</g>
<defs>
<clipPath id="clip0_1091_300297">
<rect width="52" height="52" fill="white" transform="translate(0.666504)"/>
</clipPath>
</defs>
</svg>
