<svg width="42" height="42" viewBox="0 0 42 42" fill="none" xmlns="http://www.w3.org/2000/svg">
<path d="M38.2266 38.4783H3.77344C2.19023 38.4783 0.902344 37.1904 0.902344 35.6072V6.39258C0.902344 4.80937 2.19023 3.52148 3.77344 3.52148H38.2266C39.8098 3.52148 41.0977 4.80937 41.0977 6.39258V35.608C41.0977 37.1904 39.8098 38.4783 38.2266 38.4783ZM3.77344 4.3418C2.64223 4.3418 1.72266 5.26137 1.72266 6.39258V35.608C1.72266 36.7392 2.64223 37.6588 3.77344 37.6588H38.2266C39.3578 37.6588 40.2773 36.7392 40.2773 35.608V6.39258C40.2773 5.26219 39.3578 4.3418 38.2266 4.3418H3.77344Z" fill="black"/>
<path d="M1.3125 10.667H40.6875V11.4873H1.3125V10.667Z" fill="black"/>
<path d="M5.22305 8.99004C4.40437 8.99004 3.73828 8.32395 3.73828 7.50527C3.73828 6.6866 4.40437 6.02051 5.22305 6.02051C6.04172 6.02051 6.70781 6.6866 6.70781 7.50527C6.70781 8.32395 6.04172 8.99004 5.22305 8.99004ZM5.22305 6.84C4.85637 6.84 4.55859 7.13777 4.55859 7.50445C4.55859 7.87113 4.85637 8.16891 5.22305 8.16891C5.58973 8.16891 5.8875 7.87113 5.8875 7.50445C5.8875 7.13859 5.58891 6.84 5.22305 6.84Z" fill="black"/>
<path d="M9.94961 8.99004C9.13094 8.99004 8.46484 8.32395 8.46484 7.50527C8.46484 6.6866 9.13094 6.02051 9.94961 6.02051C10.7683 6.02051 11.4344 6.6866 11.4344 7.50527C11.4344 8.32395 10.7683 8.99004 9.94961 8.99004ZM9.94961 6.84C9.58293 6.84 9.28516 7.13777 9.28516 7.50445C9.28516 7.87113 9.58293 8.16891 9.94961 8.16891C10.3163 8.16891 10.6141 7.87113 10.6141 7.50445C10.6141 7.13859 10.3155 6.84 9.94961 6.84Z" fill="black"/>
<path d="M14.6801 8.99004C13.8614 8.99004 13.1953 8.32395 13.1953 7.50527C13.1953 6.6866 13.8614 6.02051 14.6801 6.02051C15.4988 6.02051 16.1648 6.6866 16.1648 7.50527C16.1648 8.32395 15.4988 8.99004 14.6801 8.99004ZM14.6801 6.84C14.3134 6.84 14.0156 7.13777 14.0156 7.50445C14.0156 7.87113 14.3134 8.16891 14.6801 8.16891C15.0468 8.16891 15.3445 7.87113 15.3445 7.50445C15.3445 7.13859 15.0459 6.84 14.6801 6.84Z" fill="black"/>
<path d="M36.7789 8.99004H27.3207C26.502 8.99004 25.8359 8.32395 25.8359 7.50527C25.8359 6.6866 26.502 6.02051 27.3207 6.02051H36.7789C37.5976 6.02051 38.2637 6.6866 38.2637 7.50527C38.2637 8.32395 37.5976 8.99004 36.7789 8.99004ZM27.3207 6.84C26.954 6.84 26.6562 7.13777 26.6562 7.50445C26.6562 7.87113 26.954 8.16891 27.3207 8.16891H36.7789C37.1456 8.16891 37.4434 7.87113 37.4434 7.50445C37.4434 7.13777 37.1456 6.84 36.7789 6.84H27.3207Z" fill="#E6B400"/>
<path d="M21.0014 35.1557C20.6331 35.1557 20.2656 35.1368 19.9005 35.0991C19.1721 35.0236 18.6159 34.4617 18.5487 33.7325L18.4117 32.2624C18.3912 32.041 18.2566 31.858 18.0516 31.7744C17.8473 31.6907 17.6234 31.726 17.4527 31.8695L16.3248 32.8211C15.7653 33.2928 14.9746 33.3034 14.4028 32.8473C13.8073 32.3716 13.2609 31.8301 12.7802 31.2379C12.3184 30.6694 12.3233 29.8786 12.7909 29.3151L13.7334 28.1789C13.8753 28.0075 13.9098 27.7835 13.8237 27.5793C13.7384 27.375 13.5546 27.2421 13.3331 27.2233L11.8615 27.0986C11.1314 27.0362 10.5646 26.485 10.4834 25.7566C10.3989 24.9986 10.3964 24.23 10.4751 23.4728C10.5506 22.7444 11.1125 22.1882 11.8418 22.1209L13.3118 21.9839C13.5333 21.9634 13.7162 21.8289 13.7999 21.6238C13.8835 21.4187 13.8483 21.1956 13.7047 21.025L12.7532 19.8971C12.2815 19.3376 12.27 18.5468 12.7269 17.9751C13.2027 17.3787 13.7441 16.8332 14.3364 16.3525C14.9048 15.8907 15.6956 15.8956 16.2592 16.3632L17.3953 17.3057C17.5667 17.4476 17.7907 17.4812 17.995 17.3959C18.1992 17.3106 18.3321 17.1269 18.351 16.9054L18.4757 15.4337C18.538 14.7037 19.0892 14.1368 19.8177 14.0556C20.5757 13.9711 21.3443 13.9687 22.1014 14.0474C22.8299 14.1229 23.386 14.6848 23.4533 15.4141L23.5903 16.8841C23.6108 17.1055 23.7453 17.2885 23.9504 17.3721C24.1555 17.4558 24.3794 17.4205 24.5492 17.277L25.6772 16.3254C26.2366 15.8537 27.0274 15.8431 27.5992 16.2992C28.1947 16.775 28.741 17.3164 29.2217 17.9086C29.6836 18.4771 29.6795 19.2679 29.2111 19.8314L28.2685 20.9667C28.1266 21.1382 28.0922 21.3621 28.1783 21.5664C28.2636 21.7707 28.4474 21.9035 28.6689 21.9224L30.1405 22.0471C30.8706 22.1086 31.4374 22.6607 31.5186 23.3891C31.6031 24.1471 31.6056 24.9157 31.5268 25.6729C31.4514 26.4013 30.8894 26.9575 30.1602 27.0248L28.6902 27.1617C28.4687 27.1823 28.2858 27.3168 28.2021 27.5219C28.1184 27.7269 28.1537 27.9501 28.2973 28.1207L29.2488 29.2486C29.7205 29.8081 29.732 30.5989 29.2751 31.1706C28.7993 31.767 28.2579 32.3125 27.6656 32.7932C27.0971 33.255 26.3064 33.2509 25.7428 32.7825L24.6067 31.84C24.4352 31.6981 24.2113 31.6644 24.007 31.7498C23.8028 31.8351 23.6699 32.0188 23.651 32.2403L23.5263 33.7119C23.464 34.442 22.9127 35.0089 22.1843 35.0901C21.7922 35.1335 21.3968 35.1557 21.0014 35.1557ZM17.8301 30.9098C18.0097 30.9098 18.1902 30.9442 18.3625 31.0148C18.8481 31.2133 19.1795 31.662 19.2287 32.1862L19.3657 33.6562C19.3969 33.9909 19.652 34.2484 19.9859 34.2829C20.6848 34.3559 21.3943 34.3526 22.0941 34.2747C22.4279 34.2378 22.6814 33.9777 22.7093 33.643L22.834 32.1714C22.8783 31.6472 23.2064 31.196 23.6904 30.9934C24.1744 30.7908 24.7264 30.8737 25.1309 31.2092L26.267 32.1517C26.5254 32.3666 26.888 32.3683 27.1488 32.1566C27.6951 31.7128 28.1947 31.2092 28.6344 30.6596C28.8436 30.3971 28.8387 30.0345 28.6221 29.7777L27.6705 28.6498C27.3317 28.2478 27.244 27.6966 27.4433 27.211C27.6418 26.7253 28.0905 26.3939 28.6147 26.3447L30.0847 26.2077C30.4194 26.1766 30.677 25.9214 30.7114 25.5876C30.7844 24.8878 30.7812 24.1791 30.7032 23.4794C30.6663 23.1455 30.4063 22.892 30.0716 22.8641L28.6 22.7394C28.0758 22.6951 27.6246 22.367 27.422 21.883C27.2194 21.3991 27.3022 20.8478 27.6377 20.4426L28.5803 19.3064C28.7952 19.048 28.7968 18.6855 28.5852 18.4246C28.1414 17.8783 27.6377 17.3787 27.0881 16.9398C26.8256 16.7307 26.463 16.7356 26.2063 16.9513L25.0784 17.9029C24.6764 18.2417 24.1251 18.3294 23.6395 18.1301C23.1539 17.9316 22.8225 17.4829 22.7741 16.9587L22.6371 15.4887C22.6059 15.154 22.3508 14.8964 22.0169 14.862C21.3172 14.789 20.6085 14.7923 19.9087 14.8702C19.5749 14.9071 19.3214 15.1671 19.2935 15.5018L19.1688 16.9735C19.1245 17.4976 18.7964 17.9488 18.3124 18.1514C17.8284 18.3541 17.2764 18.2712 16.8719 17.9357L15.7358 16.9932C15.4774 16.7782 15.1148 16.7766 14.854 16.9882C14.3076 17.432 13.8081 17.9357 13.3692 18.4853C13.16 18.7478 13.165 19.1104 13.3815 19.3671L14.3331 20.4951C14.6719 20.897 14.7596 21.4483 14.5603 21.9339C14.3618 22.4195 13.9131 22.7509 13.3889 22.7993L11.9189 22.9363C11.5842 22.9675 11.3266 23.2226 11.2922 23.5565C11.2192 24.2554 11.2225 24.965 11.3004 25.6647C11.3373 25.9985 11.5973 26.252 11.932 26.2799L13.4037 26.4046C13.9278 26.4489 14.379 26.777 14.5816 27.261C14.7842 27.745 14.7014 28.2971 14.3659 28.7015L13.4234 29.8376C13.2092 30.096 13.2068 30.4586 13.4184 30.7194C13.8622 31.2658 14.3659 31.7653 14.9155 32.2042C15.178 32.4134 15.5406 32.4085 15.7973 32.1919L16.9253 31.2403C17.1828 31.023 17.5044 30.9098 17.8301 30.9098Z" fill="black"/>
<path d="M23.6565 27.3463C23.5515 27.3463 23.4465 27.3061 23.3661 27.2265C23.2061 27.0666 23.2061 26.8065 23.3661 26.6466L25.439 24.5736L23.3661 22.5007C23.2061 22.3408 23.2061 22.0807 23.3661 21.9208C23.526 21.7608 23.7861 21.7608 23.946 21.9208L26.3085 24.2833C26.3856 24.3604 26.4283 24.4645 26.4283 24.5736C26.4283 24.6827 26.3848 24.7869 26.3085 24.864L23.946 27.2265C23.8665 27.3061 23.7615 27.3463 23.6565 27.3463Z" fill="#E6B400"/>
<path d="M18.3471 27.3455C18.2421 27.3455 18.1371 27.3053 18.0567 27.2257L15.6942 24.8632C15.5342 24.7033 15.5342 24.4432 15.6942 24.2833L18.0567 21.9208C18.2167 21.7608 18.4767 21.7608 18.6367 21.9208C18.7966 22.0807 18.7966 22.3407 18.6367 22.5007L16.5637 24.5736L18.6367 26.6466C18.7966 26.8065 18.7966 27.0666 18.6367 27.2265C18.5571 27.3053 18.4521 27.3455 18.3471 27.3455Z" fill="#E6B400"/>
<path d="M19.9578 28.8657C19.9226 28.8657 19.8873 28.8616 19.8512 28.8517C19.6322 28.7935 19.5026 28.5679 19.5608 28.3497L21.6411 20.5846C21.6994 20.3656 21.9249 20.236 22.1432 20.2942C22.3622 20.3524 22.4918 20.578 22.4335 20.7962L20.3532 28.5613C20.3048 28.7442 20.1391 28.8657 19.9578 28.8657Z" fill="#E6B400"/>
</svg>
