<svg width="52" height="52" viewBox="0 0 52 52" fill="none" xmlns="http://www.w3.org/2000/svg">
<path d="M10.5609 1.62305C9.22463 1.62305 8.125 2.72267 8.125 4.05899V30.059C8.125 31.1434 9.75158 31.1434 9.75158 30.059V9.75126H42.2468V30.059C42.2222 31.1669 43.8967 31.1669 43.8718 30.059V4.05899C43.8718 2.72267 42.7738 1.62305 41.4375 1.62305H10.5609ZM10.5609 3.24967H41.4375C41.9017 3.24967 42.2468 3.5948 42.2468 4.05899V8.12465H9.75158V4.05899C9.75158 3.5948 10.0968 3.24967 10.5609 3.24967ZM12.1875 4.8731C11.7388 4.8731 11.375 5.23689 11.375 5.68561C11.375 6.13436 11.7388 6.49803 12.1875 6.49803C12.6362 6.49803 13 6.13436 13 5.68561C13 5.23689 12.6362 4.8731 12.1875 4.8731ZM15.4375 4.8731C14.9888 4.8731 14.625 5.23689 14.625 5.68561C14.625 6.13436 14.9888 6.49803 15.4375 6.49803C15.8862 6.49803 16.25 6.13436 16.25 5.68561C16.25 5.23689 15.8862 4.8731 15.4375 4.8731ZM18.6875 4.8731C18.2388 4.8731 17.875 5.23689 17.875 5.68561C17.875 6.13436 18.2388 6.49803 18.6875 6.49803C19.1362 6.49803 19.5 6.13436 19.5 5.68561C19.5 5.23689 19.1362 4.8731 18.6875 4.8731ZM30.0212 4.87469C28.9242 4.94931 28.9991 6.52659 30.0594 6.49971H39.8125C40.8721 6.47515 40.8721 4.89818 39.8125 4.87469H30.0212ZM4.06568 6.49971C2.72936 6.49971 1.625 7.59775 1.625 8.93407V38.1855C1.625 39.5219 2.72936 40.6215 4.06568 40.6215H47.9391C49.2754 40.6215 50.375 39.5219 50.375 38.1855V8.93397C50.375 7.59765 49.2754 6.49962 47.9391 6.49962H46.3141C45.2065 6.47505 45.2065 8.14921 46.3141 8.12465H47.9391C48.4033 8.12465 48.7484 8.46978 48.7484 8.93397V32.4996H3.25V8.93397C3.25 8.46978 3.60151 8.12465 4.06568 8.12465H5.68432C6.79195 8.14921 6.79195 6.47505 5.68432 6.49962L4.06568 6.49971ZM28.447 12.9854C28.0898 12.983 27.773 13.2142 27.6663 13.5552L22.7897 28.1785C22.4458 29.2069 23.9883 29.7226 24.3322 28.6942L29.2087 14.0661C29.3927 13.54 29.0043 12.9891 28.447 12.9854ZM31.9795 17.6827L36.1055 21.1247L31.9795 24.562C31.0979 25.2521 32.1865 26.5545 33.0221 25.8093L37.8923 21.7483C38.2812 21.4235 38.2812 20.8259 37.8923 20.5011L33.0221 16.4338C32.8765 16.3092 32.6916 16.24 32.4587 16.2403C31.6907 16.3076 31.4123 17.2236 31.9795 17.6827ZM19.4794 16.2418C19.2964 16.2479 19.1208 16.3155 18.9811 16.4337L14.1061 20.501C13.7172 20.8258 13.7172 21.4234 14.1061 21.7482L18.9811 25.8092C19.8195 26.5901 20.9392 25.2443 20.0189 24.5619L15.8929 21.1246L20.0189 17.6826C20.6193 17.191 20.2549 16.2182 19.4794 16.2418ZM3.25 34.1263H48.7484V38.1855C48.7484 38.6497 48.4033 38.9949 47.9391 38.9949H4.06568C3.60151 38.9949 3.25 38.6497 3.25 38.1855V34.1263ZM27.6694 35.7497L24.3353 35.7513C23.2996 35.875 23.3692 37.3422 24.3734 37.3699H27.625C28.7408 37.4685 28.8337 35.7721 27.6694 35.7497ZM21.4424 42.183C21.1163 42.1768 20.8176 42.3648 20.6838 42.6622C20.2926 43.5014 19.5916 44.4814 18.3812 45.4965H17.0625C15.7262 45.4965 14.6282 46.6025 14.6282 47.9388V49.5574C14.6266 50.0062 14.9888 50.3713 15.4375 50.373H36.5609C37.0121 50.3747 37.3783 50.0086 37.3766 49.5574V47.9388C37.3766 46.6025 36.2722 45.4965 34.9359 45.4965H33.6188C32.4085 44.4815 31.7074 43.5014 31.3162 42.6622C31.1786 42.357 30.8681 42.1675 30.5338 42.1846C29.9534 42.2153 29.5908 42.826 29.8435 43.3495C30.1602 44.0288 30.6439 44.7575 31.2955 45.4965H20.7045C21.3561 44.7575 21.8397 44.0288 22.1565 43.3495C22.4144 42.8166 22.0343 42.1956 21.4424 42.183ZM17.0625 47.1231H34.9359C35.4 47.1231 35.7516 47.4746 35.7516 47.9388V48.7481H16.2532V47.9388C16.2532 47.4746 16.5983 47.1231 17.0625 47.1231Z" fill="white"/>
<path d="M10.5609 1.62305C9.22463 1.62305 8.125 2.72267 8.125 4.05899V30.059C8.125 31.1434 9.75158 31.1434 9.75158 30.059V9.75126H42.2468V30.059C42.2223 31.1669 43.8967 31.1669 43.8718 30.059V4.05899C43.8718 2.72267 42.7738 1.62305 41.4375 1.62305H10.5609ZM10.5609 3.24967H41.4375C41.9017 3.24967 42.2468 3.5948 42.2468 4.05899V8.12465H9.75158V4.05899C9.75158 3.5948 10.0968 3.24967 10.5609 3.24967ZM12.1875 4.8731C11.7388 4.8731 11.375 5.23689 11.375 5.68561C11.375 6.13436 11.7388 6.49803 12.1875 6.49803C12.6362 6.49803 13 6.13436 13 5.68561C13 5.23689 12.6362 4.8731 12.1875 4.8731ZM15.4375 4.8731C14.9888 4.8731 14.625 5.23689 14.625 5.68561C14.625 6.13436 14.9888 6.49803 15.4375 6.49803C15.8862 6.49803 16.25 6.13436 16.25 5.68561C16.25 5.23689 15.8862 4.8731 15.4375 4.8731ZM18.6875 4.8731C18.2388 4.8731 17.875 5.23689 17.875 5.68561C17.875 6.13436 18.2388 6.49803 18.6875 6.49803C19.1362 6.49803 19.5 6.13436 19.5 5.68561C19.5 5.23689 19.1362 4.8731 18.6875 4.8731ZM30.0212 4.87469C28.9242 4.94931 28.9991 6.52659 30.0594 6.49971H39.8125C40.8721 6.47515 40.8721 4.89818 39.8125 4.87469H30.0212ZM28.447 12.9854C28.0898 12.983 27.773 13.2142 27.6663 13.5552L22.7897 28.1785C22.4458 29.2069 23.9883 29.7226 24.3322 28.6942L29.2087 14.0661C29.3927 13.54 29.0043 12.9891 28.447 12.9854ZM31.9795 17.6827L36.1055 21.1247L31.9795 24.562C31.0979 25.2521 32.1865 26.5545 33.0221 25.8093L37.8923 21.7483C38.2812 21.4235 38.2812 20.8259 37.8923 20.5011L33.0221 16.4338C32.8765 16.3092 32.6916 16.24 32.4587 16.2403C31.6907 16.3076 31.4123 17.2236 31.9795 17.6827ZM19.4794 16.2418C19.2964 16.2479 19.1208 16.3155 18.9811 16.4337L14.1061 20.501C13.7172 20.8258 13.7172 21.4234 14.1061 21.7482L18.9811 25.8092C19.8195 26.5901 20.9392 25.2443 20.0189 24.5619L15.8929 21.1246L20.0189 17.6826C20.6193 17.191 20.2549 16.2182 19.4794 16.2418ZM27.6694 35.7497L24.3353 35.7513C23.2996 35.875 23.3692 37.3422 24.3734 37.3699H27.625C28.7408 37.4685 28.8337 35.7721 27.6694 35.7497Z" fill="#E6B400"/>
</svg>
