<svg width="36" height="36" viewBox="0 0 36 36" fill="none" xmlns="http://www.w3.org/2000/svg">
<path d="M7.3114 1.125C6.38628 1.125 5.625 1.88628 5.625 2.81142V20.8114C5.625 21.5622 6.7511 21.5622 6.7511 20.8114V6.75223H29.2478V20.8114C29.2308 21.5785 30.39 21.5785 30.3728 20.8114V2.81142C30.3728 1.88628 29.6126 1.125 28.6875 1.125H7.3114ZM7.3114 2.25112H28.6875C29.0089 2.25112 29.2478 2.49006 29.2478 2.81142V5.62611H6.7511V2.81142C6.7511 2.49006 6.99006 2.25112 7.3114 2.25112ZM8.4375 3.37503C8.12683 3.37503 7.875 3.62689 7.875 3.93754C7.875 4.24821 8.12683 4.49999 8.4375 4.49999C8.74815 4.49999 9 4.24821 9 3.93754C9 3.62689 8.74815 3.37503 8.4375 3.37503ZM10.6875 3.37503C10.3769 3.37503 10.125 3.62689 10.125 3.93754C10.125 4.24821 10.3769 4.49999 10.6875 4.49999C10.9982 4.49999 11.25 4.24821 11.25 3.93754C11.25 3.62689 10.9982 3.37503 10.6875 3.37503ZM12.9375 3.37503C12.6269 3.37503 12.375 3.62689 12.375 3.93754C12.375 4.24821 12.6269 4.49999 12.9375 4.49999C13.2482 4.49999 13.5 4.24821 13.5 3.93754C13.5 3.62689 13.2482 3.37503 12.9375 3.37503ZM20.7839 3.37614C20.0245 3.4278 20.0763 4.51976 20.8103 4.50115H27.5625C28.296 4.48415 28.296 3.3924 27.5625 3.37614H20.7839ZM2.8147 4.50115C1.88956 4.50115 1.125 5.26133 1.125 6.18647V26.4375C1.125 27.3627 1.88956 28.1239 2.8147 28.1239H33.1886C34.1137 28.1239 34.875 27.3627 34.875 26.4375V6.18641C34.875 5.26127 34.1137 4.50109 33.1886 4.50109H32.0636C31.2968 4.48408 31.2968 5.64312 32.0636 5.62611H33.1886C33.51 5.62611 33.7489 5.86505 33.7489 6.18641V22.5011H2.25V6.18641C2.25 5.86505 2.49335 5.62611 2.8147 5.62611H3.9353C4.70212 5.64312 4.70212 4.48408 3.9353 4.50109L2.8147 4.50115ZM19.6941 8.99123C19.4468 8.98955 19.2275 9.14968 19.1536 9.3857L15.7775 19.5096C15.5394 20.2215 16.6073 20.5785 16.8453 19.8666L20.2214 9.73943C20.3488 9.37518 20.0799 8.99378 19.6941 8.99123ZM22.1396 12.2432L24.9961 14.6261L22.1396 17.0058C21.5293 17.4836 22.2829 18.3852 22.8614 17.8693L26.2332 15.0579C26.5024 14.833 26.5024 14.4193 26.2332 14.1944L22.8614 11.3786C22.7607 11.2923 22.6326 11.2444 22.4714 11.2446C21.9397 11.2912 21.7469 11.9254 22.1396 12.2432ZM13.4857 11.2457C13.359 11.2499 13.2375 11.2967 13.1407 11.3786L9.76575 14.1943C9.49651 14.4192 9.49651 14.833 9.76575 15.0578L13.1407 17.8693C13.7212 18.4099 14.4964 17.4782 13.8593 17.0057L11.0028 14.6261L13.8593 12.2431C14.2749 11.9028 14.0226 11.2293 13.4857 11.2457ZM2.25 23.6272H33.7489V26.4375C33.7489 26.7589 33.51 26.9978 33.1886 26.9978H2.8147C2.49335 26.9978 2.25 26.7589 2.25 26.4375V23.6272ZM19.1558 24.7511L16.8475 24.7522C16.1305 24.8379 16.1787 25.8537 16.8739 25.8729H19.125C19.8975 25.9411 19.9618 24.7666 19.1558 24.7511ZM14.8447 29.205C14.6189 29.2007 14.4122 29.3308 14.3196 29.5367C14.0487 30.1177 13.5634 30.7962 12.7255 31.4989H11.8125C10.8874 31.4989 10.1272 32.2646 10.1272 33.1897V34.3103C10.1261 34.621 10.3769 34.8738 10.6875 34.875H25.3114C25.6238 34.8761 25.8773 34.6227 25.8761 34.3103V33.1897C25.8761 32.2646 25.1115 31.4989 24.1864 31.4989H23.2745C22.4367 30.7962 21.9513 30.1177 21.6804 29.5367C21.5852 29.3254 21.3702 29.1942 21.1388 29.2061C20.7369 29.2273 20.486 29.6501 20.6609 30.0125C20.8802 30.4828 21.215 30.9873 21.6661 31.4989H14.3339C14.785 30.9873 15.1198 30.4828 15.3391 30.0125C15.5177 29.6436 15.2545 29.2137 14.8447 29.205ZM11.8125 32.625H24.1864C24.5077 32.625 24.7511 32.8684 24.7511 33.1897V33.75H11.2522V33.1897C11.2522 32.8684 11.4911 32.625 11.8125 32.625Z" fill="black"/>
<path d="M7.3114 1.125C6.38628 1.125 5.625 1.88628 5.625 2.81142V20.8114C5.625 21.5622 6.7511 21.5622 6.7511 20.8114V6.75223H29.2478V20.8114C29.2308 21.5785 30.39 21.5785 30.3728 20.8114V2.81142C30.3728 1.88628 29.6126 1.125 28.6875 1.125H7.3114ZM7.3114 2.25112H28.6875C29.0089 2.25112 29.2478 2.49006 29.2478 2.81142V5.62611H6.7511V2.81142C6.7511 2.49006 6.99006 2.25112 7.3114 2.25112ZM8.4375 3.37503C8.12683 3.37503 7.875 3.62689 7.875 3.93754C7.875 4.24821 8.12683 4.49999 8.4375 4.49999C8.74815 4.49999 9 4.24821 9 3.93754C9 3.62689 8.74815 3.37503 8.4375 3.37503ZM10.6875 3.37503C10.3769 3.37503 10.125 3.62689 10.125 3.93754C10.125 4.24821 10.3769 4.49999 10.6875 4.49999C10.9982 4.49999 11.25 4.24821 11.25 3.93754C11.25 3.62689 10.9982 3.37503 10.6875 3.37503ZM12.9375 3.37503C12.6269 3.37503 12.375 3.62689 12.375 3.93754C12.375 4.24821 12.6269 4.49999 12.9375 4.49999C13.2482 4.49999 13.5 4.24821 13.5 3.93754C13.5 3.62689 13.2482 3.37503 12.9375 3.37503ZM20.7839 3.37614C20.0245 3.4278 20.0763 4.51976 20.8103 4.50115H27.5625C28.2961 4.48415 28.2961 3.3924 27.5625 3.37614H20.7839ZM19.6941 8.99123C19.4468 8.98955 19.2275 9.14968 19.1536 9.3857L15.7775 19.5096C15.5394 20.2215 16.6073 20.5785 16.8453 19.8666L20.2214 9.73943C20.3488 9.37518 20.0799 8.99378 19.6941 8.99123ZM22.1396 12.2432L24.9961 14.6261L22.1396 17.0058C21.5293 17.4836 22.2829 18.3852 22.8615 17.8693L26.2332 15.0579C26.5024 14.833 26.5024 14.4193 26.2332 14.1944L22.8615 11.3786C22.7607 11.2923 22.6326 11.2444 22.4714 11.2446C21.9397 11.2912 21.7469 11.9254 22.1396 12.2432ZM13.4857 11.2457C13.359 11.2499 13.2375 11.2967 13.1407 11.3786L9.76575 14.1943C9.49651 14.4192 9.49651 14.833 9.76575 15.0578L13.1407 17.8693C13.7212 18.4099 14.4964 17.4782 13.8593 17.0057L11.0028 14.6261L13.8593 12.2431C14.2749 11.9028 14.0226 11.2293 13.4857 11.2457ZM19.1558 24.7511L16.8475 24.7522C16.1305 24.8379 16.1787 25.8537 16.8739 25.8729H19.125C19.8975 25.9411 19.9618 24.7666 19.1558 24.7511Z" fill="#E6B400"/>
</svg>
