<svg width="33" height="33" viewBox="0 0 33 33" fill="none" xmlns="http://www.w3.org/2000/svg">
<path d="M29.2882 10.5135C29.1363 9.95005 28.8395 9.43619 28.4273 9.02307C28.0151 8.60996 27.5019 8.312 26.9388 8.15885C24.8508 7.58552 16.4975 7.57618 16.4975 7.57618C16.4975 7.57618 8.14551 7.56685 6.05617 8.11485C5.49341 8.27504 4.98127 8.57722 4.56893 8.99236C4.15659 9.4075 3.85789 9.92168 3.70151 10.4855C3.15084 12.5735 3.14551 16.9042 3.14551 16.9042C3.14551 16.9042 3.14018 21.2562 3.68684 23.3228C3.99351 24.4655 4.89351 25.3682 6.03751 25.6762C8.14684 26.2495 16.4775 26.2588 16.4775 26.2588C16.4775 26.2588 24.8308 26.2682 26.9188 25.7215C27.4822 25.5686 27.9958 25.2714 28.409 24.8591C28.8222 24.4468 29.1207 23.9338 29.2748 23.3708C29.8268 21.2842 29.8308 16.9548 29.8308 16.9548C29.8308 16.9548 29.8575 12.6015 29.2882 10.5135ZM13.8255 20.9162L13.8322 12.9162L20.7748 16.9228L13.8255 20.9162Z" fill="white"/>
</svg>
