<svg width="36" height="36" viewBox="0 0 36 36" fill="none" xmlns="http://www.w3.org/2000/svg">
<path d="M33.3281 2.05469H2.67188C1.9635 2.05549 1.28436 2.33725 0.783458 2.83815C0.282558 3.33905 0.00080023 4.01818 0 4.72656L0 27.5492C0.00080023 28.2576 0.282558 28.9367 0.783458 29.4376C1.28436 29.9385 1.9635 30.2203 2.67188 30.2211H5.0625V33.38C5.0625 33.5291 5.12176 33.6722 5.22725 33.7777C5.33274 33.8832 5.47582 33.9425 5.625 33.9425H9.9507C10.0999 33.9425 10.243 33.8832 10.3484 33.7777C10.4539 33.6722 10.5132 33.5291 10.5132 33.38V30.221H11.8706V33.3799C11.8706 33.5291 11.9298 33.6721 12.0353 33.7776C12.1408 33.8831 12.2839 33.9424 12.4331 33.9424H16.7588C16.908 33.9424 17.0511 33.8831 17.1566 33.7776C17.2621 33.6721 17.3213 33.5291 17.3213 33.3799V30.221H18.6784V33.3799C18.6784 33.5291 18.7376 33.6721 18.8431 33.7776C18.9486 33.8831 19.0917 33.9424 19.2409 33.9424H23.5666C23.7158 33.9424 23.8589 33.8831 23.9644 33.7776C24.0699 33.6721 24.1291 33.5291 24.1291 33.3799V30.221H25.4862V33.3799C25.4862 33.5291 25.5454 33.6721 25.6509 33.7776C25.7564 33.8831 25.8995 33.9424 26.0487 33.9424H30.375C30.5242 33.9424 30.6673 33.8831 30.7727 33.7776C30.8782 33.6721 30.9375 33.5291 30.9375 33.3799V30.221H33.3281C34.0365 30.2202 34.7156 29.9385 35.2165 29.4376C35.7174 28.9367 35.9992 28.2575 36 27.5492V4.72656C35.9992 4.01818 35.7174 3.33905 35.2165 2.83815C34.7156 2.33725 34.0365 2.05549 33.3281 2.05469ZM2.67188 3.17969H33.3281C33.7382 3.18015 34.1314 3.34328 34.4214 3.63327C34.7114 3.92326 34.8745 4.31645 34.875 4.72656V9.48742H1.125V4.72656C1.12547 4.31645 1.28859 3.92326 1.57858 3.63327C1.86858 3.34328 2.26176 3.18015 2.67188 3.17969ZM9.3882 32.8174H6.1875V26.8905H9.3882V32.8174ZM16.1963 32.8174H12.9956V22.1619H16.1963V32.8174ZM23.0044 32.8174H19.8037V24.3229H23.0044V32.8174ZM29.8125 32.8174H26.6117V17.2924H29.8125V32.8174ZM33.3281 29.096H30.9375V16.73C30.9375 16.5808 30.8782 16.4378 30.7727 16.3323C30.6673 16.2268 30.5242 16.1675 30.375 16.1675H26.0492C25.9 16.1675 25.757 16.2268 25.6515 16.3323C25.546 16.4378 25.4867 16.5808 25.4867 16.73V29.096H24.1297V23.7604C24.1297 23.6112 24.0704 23.4681 23.965 23.3626C23.8595 23.2571 23.7164 23.1979 23.5672 23.1979H19.2412C19.092 23.1979 18.9489 23.2571 18.8434 23.3626C18.7379 23.4681 18.6787 23.6112 18.6787 23.7604V29.096H17.3216V21.5994C17.3216 21.4502 17.2624 21.3071 17.1569 21.2016C17.0514 21.0961 16.9083 21.0369 16.7591 21.0369H12.4331C12.2839 21.0369 12.1408 21.0961 12.0353 21.2016C11.9298 21.3071 11.8706 21.4502 11.8706 21.5994V29.096H10.5132V26.328C10.5132 26.1789 10.4539 26.0358 10.3484 25.9303C10.243 25.8248 10.0999 25.7655 9.9507 25.7655H5.625C5.47582 25.7655 5.33274 25.8248 5.22725 25.9303C5.12176 26.0358 5.0625 26.1789 5.0625 26.328V29.096H2.67188C2.26176 29.0956 1.86856 28.9325 1.57856 28.6425C1.28856 28.3525 1.12545 27.9593 1.125 27.5492V10.6124H34.875V27.5492C34.8745 27.9593 34.7114 28.3525 34.4214 28.6425C34.1314 28.9325 33.7382 29.0956 33.3281 29.096ZM5.57037 8.0823C5.91624 8.08228 6.25434 7.97971 6.54191 7.78754C6.82948 7.59537 7.05361 7.32224 7.18596 7.00269C7.3183 6.68314 7.35291 6.33152 7.28542 5.9923C7.21792 5.65308 7.05135 5.34149 6.80677 5.09693C6.56219 4.85238 6.25058 4.68585 5.91135 4.61839C5.57212 4.55094 5.2205 4.58559 4.90097 4.71797C4.58143 4.85036 4.30833 5.07452 4.1162 5.36212C3.92406 5.64971 3.82153 5.98782 3.82155 6.3337C3.82213 6.79731 4.00657 7.24177 4.33442 7.56958C4.66227 7.89739 5.10675 8.08178 5.57037 8.0823ZM5.57037 5.70981C5.69372 5.70983 5.8143 5.74642 5.91687 5.81496C6.01943 5.8835 6.09936 5.98091 6.14657 6.09487C6.19377 6.20884 6.20612 6.33425 6.18206 6.45523C6.15799 6.57622 6.09859 6.68735 6.01137 6.77458C5.92415 6.86181 5.81303 6.92122 5.69204 6.9453C5.57106 6.96938 5.44565 6.95704 5.33168 6.90985C5.21771 6.86266 5.12029 6.78274 5.05174 6.68018C4.98319 6.57763 4.94658 6.45705 4.94655 6.3337C4.94672 6.16829 5.0125 6.00972 5.12945 5.89275C5.2464 5.77579 5.40497 5.71 5.57037 5.70981ZM10.0837 8.0823C10.4296 8.08228 10.7677 7.97971 11.0553 7.78754C11.3428 7.59537 11.567 7.32224 11.6993 7.00269C11.8317 6.68314 11.8663 6.33152 11.7988 5.9923C11.7313 5.65308 11.5647 5.34149 11.3201 5.09693C11.0755 4.85238 10.7639 4.68585 10.4247 4.61839C10.0855 4.55094 9.73386 4.58559 9.41433 4.71797C9.09479 4.85036 8.82169 5.07452 8.62956 5.36212C8.43742 5.64971 8.33489 5.98782 8.33491 6.3337C8.33549 6.79731 8.51993 7.24177 8.84778 7.56958C9.17563 7.89739 9.62011 8.08178 10.0837 8.0823ZM10.0837 5.70981C10.2071 5.70983 10.3277 5.74642 10.4302 5.81497C10.5328 5.88351 10.6127 5.98093 10.6599 6.09491C10.7071 6.20888 10.7195 6.33429 10.6954 6.45528C10.6713 6.57627 10.6119 6.68741 10.5247 6.77463C10.4374 6.86186 10.3263 6.92126 10.2053 6.94532C10.0843 6.96938 9.95891 6.95702 9.84494 6.90981C9.73097 6.8626 9.63356 6.78265 9.56503 6.68008C9.49649 6.57751 9.45991 6.45692 9.45991 6.33355C9.4601 6.16817 9.52588 6.00962 9.64283 5.89268C9.75978 5.77575 9.91834 5.70998 10.0837 5.70981ZM14.5971 8.0823C14.943 8.08228 15.2811 7.97971 15.5686 7.78754C15.8562 7.59537 16.0803 7.32224 16.2127 7.00269C16.345 6.68314 16.3796 6.33152 16.3121 5.9923C16.2446 5.65308 16.0781 5.34149 15.8335 5.09693C15.5889 4.85238 15.2773 4.68585 14.9381 4.61839C14.5988 4.55094 14.2472 4.58559 13.9277 4.71797C13.6082 4.85036 13.3351 5.07452 13.1429 5.36212C12.9508 5.64971 12.8482 5.98782 12.8483 6.3337C12.8489 6.79728 13.0333 7.24171 13.3611 7.56951C13.6889 7.89731 14.1333 8.08172 14.5969 8.0823H14.5971ZM14.5971 5.70981C14.7204 5.70983 14.841 5.74642 14.9436 5.81497C15.0462 5.88351 15.1261 5.98093 15.1733 6.09491C15.2205 6.20888 15.2328 6.33429 15.2088 6.45528C15.1847 6.57627 15.1253 6.68741 15.038 6.77463C14.9508 6.86186 14.8397 6.92126 14.7187 6.94532C14.5977 6.96938 14.4723 6.95702 14.3583 6.90981C14.2443 6.8626 14.1469 6.78265 14.0784 6.68008C14.0099 6.57751 13.9733 6.45692 13.9733 6.33355C13.9735 6.16822 14.0392 6.0097 14.1561 5.89278C14.273 5.77585 14.4315 5.71005 14.5969 5.70981H14.5971ZM22.8595 6.3337C22.8595 6.18451 22.9188 6.04144 23.0243 5.93595C23.1297 5.83046 23.2728 5.7712 23.422 5.7712H31.6159C31.7651 5.7712 31.9081 5.83046 32.0136 5.93595C32.1191 6.04144 32.1784 6.18451 32.1784 6.3337C32.1784 6.48288 32.1191 6.62595 32.0136 6.73144C31.9081 6.83693 31.7651 6.89619 31.6159 6.89619H23.422C23.2728 6.89619 23.1297 6.83693 23.0243 6.73144C22.9188 6.62595 22.8595 6.48288 22.8595 6.3337ZM28.9375 12.314V14.7712C28.9375 14.9204 28.8783 15.0635 28.7728 15.1689C28.6673 15.2744 28.5242 15.3337 28.375 15.3337C28.2258 15.3337 28.0828 15.2744 27.9773 15.1689C27.8718 15.0635 27.8125 14.9204 27.8125 14.7712V13.7789L21.8056 19.9011C21.7328 19.9753 21.6408 20.0279 21.5398 20.053C21.4389 20.0781 21.333 20.0747 21.2339 20.0432L14.6895 17.966L8.10872 22.5367C8.04807 22.5795 7.97955 22.6098 7.90711 22.626C7.83467 22.6422 7.75975 22.6439 7.68666 22.631C7.61357 22.6181 7.54376 22.5908 7.48125 22.5508C7.41874 22.5108 7.36477 22.4588 7.32244 22.3978C7.28012 22.3369 7.25028 22.2681 7.23464 22.1956C7.219 22.123 7.21788 22.0481 7.23133 21.9751C7.24479 21.9021 7.27256 21.8325 7.31304 21.7703C7.35351 21.7081 7.4059 21.6545 7.46719 21.6126L14.2753 16.8839C14.346 16.8348 14.427 16.8025 14.5122 16.7897C14.5973 16.7768 14.6843 16.7837 14.7663 16.8098L21.2449 18.8661L27.1222 12.8761H25.9178C25.7686 12.8761 25.6256 12.8169 25.5201 12.7114C25.4146 12.6059 25.3553 12.4628 25.3553 12.3136C25.3553 12.1644 25.4146 12.0214 25.5201 11.9159C25.6256 11.8104 25.7686 11.7511 25.9178 11.7511H28.375C28.4489 11.7511 28.5221 11.7657 28.5903 11.794C28.6586 11.8223 28.7206 11.8637 28.7729 11.916C28.8251 11.9682 28.8665 12.0302 28.8948 12.0985C28.923 12.1668 28.9376 12.24 28.9375 12.3138V12.314Z" fill="black"/>
<path fill-rule="evenodd" clip-rule="evenodd" d="M5.56913 8.08342C5.915 8.08341 6.2531 7.98083 6.54067 7.78866C6.82824 7.59649 7.05237 7.32336 7.18472 7.00381C7.31706 6.68426 7.35167 6.33264 7.28418 5.99342C7.21668 5.6542 7.05011 5.34261 6.80553 5.09806C6.56094 4.85351 6.24933 4.68697 5.9101 4.61952C5.57087 4.55206 5.21926 4.58672 4.89973 4.7191C4.58019 4.85148 4.30709 5.07564 4.11496 5.36324C3.92282 5.65084 3.82028 5.98895 3.82031 6.33482C3.82089 6.79844 4.00533 7.2429 4.33318 7.57071C4.66102 7.89851 5.10551 8.0829 5.56913 8.08342ZM5.56913 5.71094C5.69248 5.71095 5.81306 5.74754 5.91562 5.81608C6.01819 5.88462 6.09812 5.98203 6.14532 6.096C6.19253 6.20997 6.20488 6.33537 6.18081 6.45636C6.15675 6.57734 6.09735 6.68848 6.01013 6.77571C5.92291 6.86294 5.81178 6.92235 5.6908 6.94643C5.56982 6.9705 5.44441 6.95817 5.33044 6.91098C5.21647 6.86379 5.11905 6.78386 5.0505 6.68131C4.98194 6.57875 4.94534 6.45818 4.94531 6.33482C4.94548 6.16942 5.01125 6.01084 5.1282 5.89388C5.24515 5.77692 5.40372 5.71112 5.56913 5.71094ZM22.8583 6.33482C22.8583 6.18564 22.9175 6.04256 23.023 5.93707C23.1285 5.83158 23.2716 5.77232 23.4208 5.77232H31.6146C31.7638 5.77232 31.9069 5.83158 32.0124 5.93707C32.1179 6.04256 32.1771 6.18564 32.1771 6.33482C32.1771 6.48401 32.1179 6.62708 32.0124 6.73257C31.9069 6.83806 31.7638 6.89732 31.6146 6.89732H23.4208C23.2716 6.89732 23.1285 6.83806 23.023 6.73257C22.9175 6.62708 22.8583 6.48401 22.8583 6.33482ZM28.9363 12.3151V14.7723C28.9363 14.9215 28.877 15.0646 28.7715 15.1701C28.666 15.2756 28.523 15.3348 28.3738 15.3348C28.2246 15.3348 28.0815 15.2756 27.976 15.1701C27.8706 15.0646 27.8113 14.9215 27.8113 14.7723V13.78L21.8044 19.9022C21.7315 19.9764 21.6395 20.029 21.5386 20.0541C21.4377 20.0792 21.3318 20.0758 21.2326 20.0443L14.6883 17.9671L8.10748 22.5378C8.04682 22.5806 7.9783 22.611 7.90587 22.6271C7.83343 22.6433 7.75851 22.645 7.68542 22.6321C7.61233 22.6192 7.54252 22.5919 7.48001 22.5519C7.4175 22.5119 7.36353 22.4599 7.3212 22.3989C7.27888 22.338 7.24903 22.2692 7.2334 22.1967C7.21776 22.1241 7.21664 22.0492 7.23009 21.9762C7.24355 21.9032 7.27131 21.8336 7.31179 21.7714C7.35227 21.7092 7.40466 21.6556 7.46595 21.6137L14.274 16.885C14.3447 16.8359 14.4258 16.8037 14.5109 16.7908C14.5961 16.778 14.683 16.7848 14.7651 16.8109L21.2436 18.8672L27.121 12.8773H25.9166C25.7674 12.8773 25.6243 12.818 25.5188 12.7125C25.4133 12.607 25.3541 12.4639 25.3541 12.3148C25.3541 12.1656 25.4133 12.0225 25.5188 11.917C25.6243 11.8115 25.7674 11.7523 25.9166 11.7523H28.3738C28.4477 11.7523 28.5208 11.7668 28.5891 11.7951C28.6574 11.8234 28.7194 11.8648 28.7716 11.9171C28.8238 11.9693 28.8653 12.0314 28.8935 12.0996C28.9218 12.1679 28.9363 12.2412 28.9363 12.3151Z" fill="#E6B400"/>
<path fill-rule="evenodd" clip-rule="evenodd" d="M5.06126 30.2222V33.3811C5.06126 33.5303 5.12052 33.6733 5.22601 33.7788C5.3315 33.8843 5.47457 33.9436 5.62376 33.9436H9.94945C10.0986 33.9436 10.2417 33.8843 10.3472 33.7788C10.4527 33.6733 10.512 33.5303 10.512 33.3811V30.2222H11.8693V33.381C11.8693 33.5302 11.9286 33.6733 12.0341 33.7788C12.1396 33.8842 12.2827 33.9435 12.4318 33.9435H16.7576C16.9068 33.9435 17.0499 33.8842 17.1553 33.7788C17.2608 33.6733 17.3201 33.5302 17.3201 33.381V30.2222H18.6771V33.381C18.6771 33.5302 18.7364 33.6733 18.8419 33.7788C18.9474 33.8842 19.0904 33.9435 19.2396 33.9435H23.5654C23.7146 33.9435 23.8577 33.8842 23.9631 33.7788C24.0686 33.6733 24.1279 33.5302 24.1279 33.381V30.2222H25.4849V33.381C25.4849 33.5302 25.5442 33.6733 25.6497 33.7788C25.7552 33.8842 25.8982 33.9435 26.0474 33.9435H30.3738C30.5229 33.9435 30.666 33.8842 30.7715 33.7788C30.877 33.6733 30.9363 33.5302 30.9363 33.381V30.2222V29.0972V16.7312C30.9363 16.582 30.877 16.4389 30.7715 16.3334C30.666 16.2279 30.5229 16.1687 30.3738 16.1687H26.048C25.8988 16.1687 25.7557 16.2279 25.6502 16.3334C25.5448 16.4389 25.4855 16.582 25.4855 16.7312V29.0972H24.1285V23.7615C24.1285 23.6123 24.0692 23.4692 23.9637 23.3637C23.8582 23.2583 23.7151 23.199 23.566 23.199H19.2399C19.0907 23.199 18.9477 23.2583 18.8422 23.3637C18.7367 23.4692 18.6774 23.6123 18.6774 23.7615V29.0972H17.3204V21.6005C17.3204 21.4513 17.2611 21.3082 17.1556 21.2028C17.0501 21.0973 16.9071 21.038 16.7579 21.038H12.4318C12.2827 21.038 12.1396 21.0973 12.0341 21.2028C11.9286 21.3082 11.8693 21.4513 11.8693 21.6005V29.0972H10.512V26.3292C10.512 26.18 10.4527 26.0369 10.3472 25.9314C10.2417 25.8259 10.0986 25.7667 9.94945 25.7667H5.62376C5.47457 25.7667 5.3315 25.8259 5.22601 25.9314C5.12052 26.0369 5.06126 26.18 5.06126 26.3292V29.0972V30.2222ZM6.18626 32.8185H9.38695V26.8917H6.18626V32.8185ZM12.9943 32.8185H16.1951V22.163H12.9943V32.8185ZM19.8024 32.8185H23.0032V24.324H19.8024V32.8185ZM26.6105 32.8185H29.8113V17.2935H26.6105V32.8185Z" fill="#E6B400"/>
</svg>
