<svg width="42" height="42" viewBox="0 0 42 42" fill="none" xmlns="http://www.w3.org/2000/svg">
<path d="M13.8207 6.5625C13.8207 6.29075 13.6003 6.07031 13.3285 6.07031H9.1875C7.46872 6.07031 6.07031 7.46872 6.07031 9.1875V22.0632C6.07031 22.3349 6.29075 22.5554 6.5625 22.5554C6.83425 22.5554 7.05469 22.3349 7.05469 22.0632V9.1875C7.05469 8.0115 8.0115 7.05469 9.1875 7.05469H13.3285C13.6003 7.05469 13.8207 6.83425 13.8207 6.5625Z" fill="black"/>
<path d="M31.5 26.8736C31.2282 26.8736 31.0078 27.094 31.0078 27.3658V36.75C31.0078 37.926 30.051 38.8828 28.875 38.8828H9.1875C8.0115 38.8828 7.05469 37.926 7.05469 36.75V24.8523C7.05469 24.5805 6.83425 24.3601 6.5625 24.3601C6.29075 24.3601 6.07031 24.5805 6.07031 24.8523V34.9453H5.25C4.074 34.9453 3.11719 33.9885 3.11719 32.8125V5.25C3.11719 4.074 4.074 3.11719 5.25 3.11719H16.8132C17.0849 3.11719 17.3054 2.89675 17.3054 2.625C17.3054 2.35325 17.0849 2.13281 16.8132 2.13281H5.25C3.53122 2.13281 2.13281 3.53122 2.13281 5.25V32.8125C2.13281 34.5313 3.53122 35.9297 5.25 35.9297H6.07031V36.75C6.07031 38.4688 7.46872 39.8672 9.1875 39.8672H28.875C30.5938 39.8672 31.9922 38.4688 31.9922 36.75V27.3658C31.9922 27.094 31.7718 26.8736 31.5 26.8736Z" fill="black"/>
<path d="M11.1562 35.9297H13.7812C14.4144 35.9297 14.9297 35.4144 14.9297 34.7812V30.1875C14.9297 29.5544 14.4144 29.0391 13.7812 29.0391H11.1562C10.5231 29.0391 10.0078 29.5544 10.0078 30.1875V34.7812C10.0078 35.4144 10.5231 35.9297 11.1562 35.9297ZM10.9922 30.1875C10.9922 30.0971 11.0659 30.0234 11.1562 30.0234H13.7812C13.8716 30.0234 13.9453 30.0971 13.9453 30.1875V34.7812C13.9453 34.8716 13.8716 34.9453 13.7812 34.9453H11.1562C11.0659 34.9453 10.9922 34.8716 10.9922 34.7812V30.1875Z" fill="black"/>
<path d="M16.5703 25.9219V34.7812C16.5703 35.4144 17.0856 35.9297 17.7188 35.9297H20.3438C20.9769 35.9297 21.4922 35.4144 21.4922 34.7812V25.9219C21.4922 25.2887 20.9769 24.7734 20.3438 24.7734H17.7188C17.0856 24.7734 16.5703 25.2887 16.5703 25.9219ZM17.5547 25.9219C17.5547 25.8315 17.6284 25.7578 17.7188 25.7578H20.3438C20.4341 25.7578 20.5078 25.8315 20.5078 25.9219V34.7812C20.5078 34.8716 20.4341 34.9453 20.3438 34.9453H17.7188C17.6284 34.9453 17.5547 34.8716 17.5547 34.7812V25.9219Z" fill="black"/>
<path d="M24.2812 35.9301H26.9062C27.5394 35.9301 28.0547 35.4148 28.0547 34.7817V25.9287C28.0547 25.657 27.8343 25.4365 27.5625 25.4365C27.2907 25.4365 27.0703 25.657 27.0703 25.9287V34.7817C27.0703 34.8707 26.9953 34.9457 26.9062 34.9457H24.2812C24.1922 34.9457 24.1172 34.8707 24.1172 34.7817V26.2046C24.1172 25.9328 23.8968 25.7124 23.625 25.7124C23.3532 25.7124 23.1328 25.9328 23.1328 26.2046V34.7817C23.1328 35.4148 23.6481 35.9301 24.2812 35.9301Z" fill="black"/>
<path d="M32.5688 6.68108C32.4319 6.68108 32.2964 6.6247 32.199 6.51413C31.9791 6.26416 31.743 6.02161 31.4969 5.79317C31.2979 5.6083 31.2864 5.29685 31.4716 5.09748C31.6564 4.89818 31.9679 4.88728 32.1673 5.07215C32.437 5.32303 32.6966 5.58934 32.9379 5.86365C33.1176 6.06774 33.0978 6.37894 32.8937 6.55836C32.8001 6.64072 32.6841 6.68108 32.5688 6.68108Z" fill="#E6B400"/>
<path d="M38.9565 22.9819L34.3432 18.3731C35.1948 16.8126 35.6798 15.0244 35.6798 13.125C35.6798 11.1088 35.1292 9.13717 34.0875 7.4235C33.9459 7.19086 33.6428 7.11847 33.411 7.25845C33.1787 7.39974 33.105 7.7026 33.246 7.93492C34.1941 9.49449 34.6953 11.2892 34.6953 13.125C34.6953 18.6432 30.2057 23.1328 24.6875 23.1328C19.1693 23.1328 14.6797 18.6432 14.6797 13.125C14.6797 7.60679 19.1693 3.11719 24.6875 3.11719C26.5316 3.11719 28.3334 3.62283 29.8987 4.57931C30.1304 4.72027 30.4335 4.64789 30.5754 4.41591C30.7171 4.18392 30.644 3.88113 30.412 3.73918C28.6923 2.68846 26.7126 2.13281 24.6875 2.13281C18.6265 2.13281 13.6953 7.06401 13.6953 13.125C13.6953 19.186 18.6265 24.1172 24.6875 24.1172C26.587 24.1172 28.3752 23.6322 29.9358 22.7805L34.5479 27.3923C35.1369 27.9813 35.9197 28.3059 36.7525 28.3059C37.5854 28.3059 38.3681 27.9813 38.9571 27.3923C39.5464 26.8033 39.8707 26.0202 39.8704 25.1871C39.8704 24.354 39.5458 23.5709 38.9565 22.9819ZM38.2612 26.6964C37.455 27.5026 36.0502 27.5026 35.2439 26.6964L30.8015 22.2542C31.9915 21.4546 33.017 20.4291 33.8166 19.239L38.2605 23.6782C38.6639 24.0814 38.886 24.6174 38.886 25.1871C38.8863 25.7572 38.6642 26.2932 38.2612 26.6964Z" fill="#E6B400"/>
<path d="M24.6875 4.75781C20.0739 4.75781 16.3203 8.51137 16.3203 13.125C16.3203 17.7386 20.0739 21.4922 24.6875 21.4922C29.3011 21.4922 33.0547 17.7386 33.0547 13.125C33.0547 8.51137 29.3011 4.75781 24.6875 4.75781ZM24.6875 20.5078C20.6167 20.5078 17.3047 17.1958 17.3047 13.125C17.3047 9.05422 20.6167 5.74219 24.6875 5.74219C28.7583 5.74219 32.0703 9.05422 32.0703 13.125C32.0703 17.1958 28.7583 20.5078 24.6875 20.5078Z" fill="#E6B400"/>
</svg>
