<svg width="36" height="36" viewBox="0 0 36 36" fill="none" xmlns="http://www.w3.org/2000/svg">
<g clip-path="url(#clip0_1091_309932)">
<path d="M34.8749 19.4472H34.1525V14.1486C34.1525 13.8376 33.9004 13.5855 33.5894 13.5855H28.784C28.473 13.5855 28.221 13.8376 28.221 14.1486V19.4472H26.0179C25.1327 17.9058 23.7601 16.7312 22.1599 16.0734V12.0737C22.1599 11.7627 21.9078 11.5106 21.5968 11.5106H16.7934C16.4824 11.5106 16.2304 11.7627 16.2304 12.0737V16.0454C14.6746 16.6663 13.3573 17.7642 12.4613 19.2038C12.4112 19.2841 12.3633 19.3655 12.3163 19.4472H10.1694V17.2678C10.1694 16.9568 9.91729 16.7047 9.6063 16.7047H4.80094C4.48994 16.7047 4.23787 16.9568 4.23787 17.2678V19.4472H3.51541C3.20442 19.4472 2.95235 19.6993 2.95235 20.0103C2.95235 20.3213 3.20442 20.5734 3.51541 20.5734H11.7818C11.2617 21.9369 11.128 23.4214 11.4096 24.8756C11.5196 25.4396 11.2793 25.9673 10.7821 26.2534L8.99451 27.2844C8.84201 27.1365 8.65378 27.0283 8.44221 26.9715C8.11406 26.883 7.77206 26.9275 7.47921 27.0966L1.19812 30.7233C0.591748 31.0714 0.382217 31.849 0.73167 32.4577L2.08758 34.8067C2.32298 35.2125 2.75006 35.4393 3.18804 35.4393C3.40347 35.4393 3.62165 35.3844 3.82078 35.2689L10.1041 31.6429C10.604 31.353 10.8318 30.7706 10.698 30.2345L12.4847 29.204C12.9814 28.9176 13.5587 28.9725 13.9915 29.3473C15.449 30.6087 17.2893 31.2794 19.1668 31.2793C19.8487 31.2793 20.5357 31.1908 21.2107 31.0101C25.4178 29.8811 27.9237 25.5413 26.7967 21.3357C26.7269 21.0749 26.6446 20.8207 26.5509 20.5734H34.875C35.186 20.5734 35.4381 20.3214 35.4381 20.0104C35.4381 19.6994 35.186 19.4473 34.875 19.4473L34.8749 19.4472ZM5.36386 17.8308H9.04317V19.4472H5.36386V17.8308ZM21.0337 12.6368V15.7059C19.8598 15.4181 18.605 15.3963 17.3564 15.6907V12.6368H21.0337ZM9.54007 30.6681L3.25673 34.2942C3.18881 34.3335 3.10127 34.3099 3.06218 34.2427L1.70754 31.8959C1.66851 31.8279 1.69193 31.7381 1.75992 31.6991L8.0422 28.0717C8.06632 28.0578 8.0903 28.0536 8.11048 28.0536C8.1263 28.0536 8.1398 28.0562 8.14929 28.0587C8.17073 28.0645 8.21032 28.0806 8.23584 28.1249L9.4732 30.2654C9.47665 30.2719 9.47953 30.2786 9.48326 30.285C9.48712 30.2917 9.49162 30.2978 9.4957 30.3043L9.59224 30.4714C9.63176 30.5402 9.60785 30.6288 9.54 30.6681H9.54007ZM20.919 29.9223C18.7466 30.5039 16.4324 29.9706 14.7285 28.496C13.9346 27.8082 12.8329 27.7031 11.9219 28.2285L10.1779 29.2344L9.60011 28.2349L11.3439 27.2291C12.2571 26.7039 12.7166 25.6955 12.5149 24.6608C11.8428 21.1894 13.9944 17.7528 17.4135 16.837C21.0214 15.8707 24.7428 18.0195 25.7089 21.6269C26.6751 25.233 24.5263 28.9543 20.919 29.9223ZM29.347 14.7116H33.0263V19.4473H29.347V14.7116ZM19.1672 17.783C16.0807 17.783 13.5695 20.2932 13.5695 23.3786C13.5695 26.4641 16.0806 28.9763 19.1672 28.9763C22.2538 28.9763 24.7629 26.4651 24.7629 23.3786C24.7629 20.2921 22.2526 17.783 19.1672 17.783ZM19.1672 27.8502C16.7016 27.8502 14.6957 25.8443 14.6957 23.3786C14.6957 20.913 16.7016 18.9091 19.1672 18.9091C21.6328 18.9091 23.6367 20.9142 23.6367 23.3786C23.6367 25.8431 21.6317 27.8502 19.1672 27.8502ZM4.59752 15.9972H9.80951C10.6497 15.9972 11.3332 15.3136 11.3332 14.4735V12.867C11.3332 11.7083 10.4955 10.7227 9.33567 10.3712C9.75185 9.88214 10.0038 9.24912 10.0038 8.55787C10.0038 7.01318 8.748 5.75655 7.2045 5.75655C5.661 5.75655 4.40318 7.01318 4.40318 8.55787C4.40318 9.24905 4.65532 9.88207 5.07171 10.3711C3.91169 10.7225 3.07378 11.7082 3.07378 12.867V14.4735C3.07378 15.3136 3.75736 15.9972 4.59752 15.9972ZM7.2045 6.88268C8.12714 6.88268 8.87772 7.63418 8.87772 8.55787C8.87772 9.48157 8.12714 10.2331 7.2045 10.2331C6.28186 10.2331 5.5293 9.48157 5.5293 8.55787C5.5293 7.63418 6.2808 6.88268 7.2045 6.88268ZM4.1999 12.867C4.1999 12.0356 5.0104 11.3592 6.00665 11.3592H8.40037C9.39663 11.3592 10.2071 12.0356 10.2071 12.867V14.4735C10.2071 14.6927 10.0287 14.8711 9.80951 14.8711H4.59752C4.37829 14.8711 4.1999 14.6927 4.1999 14.4735V12.867ZM33.4404 7.25203C33.8566 6.76294 34.1085 6.12991 34.1085 5.43867C34.1085 3.8951 32.8527 2.63939 31.3092 2.63939C29.7656 2.63939 28.5079 3.8951 28.5079 5.43867C28.5079 6.12984 28.76 6.76287 29.1764 7.25189C28.0164 7.60331 27.1785 8.58902 27.1785 9.74777V11.3562C27.1785 12.1954 27.862 12.878 28.7021 12.878H33.9141C34.7543 12.878 35.4378 12.1954 35.4378 11.3562V9.74777C35.4378 8.58916 34.6001 7.60352 33.4403 7.25203H33.4404ZM31.3092 3.76545C32.2318 3.76545 32.9824 4.51603 32.9824 5.43867C32.9824 6.36131 32.2318 7.11387 31.3092 7.11387C30.3865 7.11387 29.634 6.36237 29.634 5.43867C29.634 4.51498 30.3855 3.76545 31.3092 3.76545ZM34.3118 11.3562C34.3118 11.5744 34.1335 11.7519 33.9142 11.7519H28.7023C28.483 11.7519 28.3046 11.5744 28.3046 11.3562V9.74777C28.3046 8.9164 29.1151 8.23999 30.1114 8.23999H32.5051C33.5013 8.23999 34.3118 8.9164 34.3118 9.74777V11.3562ZM16.5901 10.8032H21.8021C22.6422 10.8032 23.3258 10.1196 23.3258 9.27942V7.67095C23.3258 6.51347 22.4879 5.52874 21.3277 5.17732C21.7442 4.68823 21.9964 4.05513 21.9964 3.36382C21.9964 1.81912 20.7397 0.5625 19.1951 0.5625C17.6505 0.5625 16.3958 1.81912 16.3958 3.36382C16.3958 4.05499 16.6477 4.68802 17.0639 5.17711C15.9041 5.52839 15.0663 6.51319 15.0663 7.67095V9.27942C15.0663 10.1196 15.7499 10.8032 16.5901 10.8032ZM19.1951 1.68863C20.1188 1.68863 20.8703 2.44012 20.8703 3.36382C20.8703 4.28752 20.1188 5.03902 19.1951 5.03902C18.2714 5.03902 17.5219 4.28752 17.5219 3.36382C17.5219 2.44012 18.2725 1.68863 19.1951 1.68863ZM16.1925 7.67095C16.1925 6.84063 17.003 6.16514 17.9992 6.16514H20.391C21.3884 6.16514 22.1998 6.84063 22.1998 7.67095V9.27942C22.1998 9.49866 22.0214 9.67704 21.8021 9.67704H16.5902C16.3709 9.67704 16.1925 9.49866 16.1925 9.27942V7.67095H16.1925Z" fill="black"/>
<path d="M19.1676 17.783C16.0811 17.783 13.57 20.2932 13.57 23.3786C13.57 26.4641 16.081 28.9763 19.1676 28.9763C22.2542 28.9763 24.7633 26.4651 24.7633 23.3786C24.7633 20.2921 22.2531 17.783 19.1676 17.783ZM19.1676 27.8502C16.702 27.8502 14.6961 25.8443 14.6961 23.3786C14.6961 20.913 16.702 18.9091 19.1676 18.9091C21.6332 18.9091 23.6372 20.9142 23.6372 23.3786C23.6372 25.8431 21.6322 27.8502 19.1676 27.8502ZM4.59796 15.9972H9.80994C10.6501 15.9972 11.3337 15.3136 11.3337 14.4735V12.867C11.3337 11.7083 10.4959 10.7227 9.33611 10.3712C9.75229 9.88214 10.0042 9.24912 10.0042 8.55788C10.0042 7.01318 8.74844 5.75655 7.20494 5.75655C5.66144 5.75655 4.40362 7.01318 4.40362 8.55788C4.40362 9.24905 4.65576 9.88207 5.07215 10.3711C3.91213 10.7225 3.07422 11.7082 3.07422 12.867V14.4735C3.07422 15.3136 3.7578 15.9972 4.59796 15.9972ZM7.20494 6.88268C8.12758 6.88268 8.87816 7.63418 8.87816 8.55788C8.87816 9.48157 8.12758 10.2331 7.20494 10.2331C6.2823 10.2331 5.52974 9.48157 5.52974 8.55788C5.52974 7.63418 6.28124 6.88268 7.20494 6.88268ZM4.20034 12.867C4.20034 12.0356 5.01084 11.3592 6.00709 11.3592H8.40081C9.39707 11.3592 10.2076 12.0356 10.2076 12.867V14.4735C10.2076 14.6927 10.0292 14.8711 9.80994 14.8711H4.59796C4.37873 14.8711 4.20034 14.6927 4.20034 14.4735V12.867ZM33.4409 7.25203C33.857 6.76294 34.109 6.12991 34.109 5.43867C34.109 3.8951 32.8532 2.63939 31.3096 2.63939C29.766 2.63939 28.5083 3.8951 28.5083 5.43867C28.5083 6.12984 28.7604 6.76287 29.1768 7.25189C28.0168 7.60331 27.1789 8.58902 27.1789 9.74777V11.3562C27.1789 12.1954 27.8624 12.878 28.7026 12.878H33.9145C34.7547 12.878 35.4382 12.1954 35.4382 11.3562V9.74777C35.4382 8.58916 34.6007 7.60352 33.4409 7.25203ZM31.3096 3.76545C32.2323 3.76545 32.9828 4.51603 32.9828 5.43867C32.9828 6.36131 32.2323 7.11387 31.3096 7.11387C30.387 7.11387 29.6344 6.36237 29.6344 5.43867C29.6344 4.51498 30.3859 3.76545 31.3096 3.76545ZM34.3122 11.3562C34.3122 11.5744 34.1339 11.7519 33.9147 11.7519H28.7027C28.4835 11.7519 28.3051 11.5744 28.3051 11.3562V9.74777C28.3051 8.9164 29.1156 8.23999 30.1118 8.23999H32.5056C33.5017 8.23999 34.3122 8.9164 34.3122 9.74777V11.3562ZM16.5905 10.8032H21.8025C22.6427 10.8032 23.3263 10.1196 23.3263 9.27942V7.67095C23.3263 6.51347 22.4883 5.52874 21.3281 5.17732C21.7446 4.68823 21.9969 4.05513 21.9969 3.36382C21.9969 1.81913 20.7402 0.5625 19.1955 0.5625C17.6509 0.5625 16.3963 1.81913 16.3963 3.36382C16.3963 4.05499 16.6482 4.68802 17.0643 5.17711C15.9046 5.52839 15.0668 6.51319 15.0668 7.67095V9.27942C15.0668 10.1196 15.7504 10.8032 16.5905 10.8032ZM19.1955 1.68863C20.1192 1.68863 20.8707 2.44012 20.8707 3.36382C20.8707 4.28752 20.1192 5.03902 19.1955 5.03902C18.2718 5.03902 17.5223 4.28752 17.5223 3.36382C17.5223 2.44012 18.2729 1.68863 19.1955 1.68863ZM16.1929 7.67095C16.1929 6.84063 17.0034 6.16514 17.9997 6.16514H20.3914C21.3888 6.16514 22.2002 6.84063 22.2002 7.67095V9.27942C22.2002 9.49866 22.0218 9.67704 21.8026 9.67704H16.5906C16.3714 9.67704 16.193 9.49866 16.193 9.27942L16.1929 7.67095Z" fill="#E6B400"/>
</g>
<defs>
<clipPath id="clip0_1091_309932">
<rect width="36" height="36" fill="white"/>
</clipPath>
</defs>
</svg>
