<svg width="52" height="52" viewBox="0 0 52 52" fill="none" xmlns="http://www.w3.org/2000/svg">
<path d="M9.47104 10.0867C9.26456 9.89694 9.25095 9.5757 9.44067 9.36923C14.3556 4.01973 22.266 2.80423 28.5321 6.33738L27.7324 4.11743C27.6373 3.85357 27.7741 3.56269 28.0381 3.46763C28.3017 3.37277 28.5928 3.50927 28.6879 3.77334L29.9212 7.1966C30.0143 7.45508 29.8849 7.74067 29.6292 7.84132L26.2428 9.1726C25.9817 9.27518 25.687 9.1468 25.5844 8.88579C25.4819 8.62487 25.6102 8.33004 25.8712 8.22746L28.1942 7.31421C22.3122 3.89988 14.8246 5.01047 10.1886 10.0565C10.0885 10.1655 9.95173 10.2207 9.81452 10.2207C9.69163 10.2206 9.56864 10.1763 9.47104 10.0867ZM19.3772 35.5385C18.3312 36.0126 17.2263 36.332 16.0933 36.4878C16.0024 36.5003 15.9122 36.5065 15.8232 36.5065C14.9742 36.5065 14.225 35.9532 13.9846 35.1131C13.7549 34.3109 13.11 33.6879 12.3012 33.4872C11.4924 33.2867 10.6311 33.5358 10.0532 34.1379C9.3844 34.8342 8.33018 34.931 7.54643 34.3677C6.61754 33.7007 5.79011 32.9019 5.08678 31.9938C4.49711 31.2321 4.5547 30.1762 5.22369 29.4832C5.8029 28.8833 6.01954 28.0137 5.78889 27.2135C5.55824 26.4129 4.912 25.7917 4.10224 25.592C3.16471 25.361 2.55422 24.4957 2.65061 23.535C2.76476 22.3966 3.04132 21.282 3.47225 20.2221C3.83604 19.3277 4.77946 18.8487 5.71718 19.0818C6.52643 19.284 7.38819 19.0368 7.96628 18.4368C8.54397 17.8371 8.75898 16.9669 8.52721 16.1661C8.2596 15.2408 8.70221 14.2805 9.5794 13.8828C10.6253 13.4086 11.7302 13.0892 12.8633 12.9333C13.8209 12.8018 14.7065 13.3799 14.9721 14.3079C15.2016 15.1101 15.8466 15.7332 16.6555 15.934C17.4643 16.1346 18.3257 15.8854 18.9037 15.2833C19.5719 14.5869 20.6262 14.4901 21.4103 15.0535C22.3393 15.7208 23.1669 16.5196 23.8699 17.4276C24.4597 18.189 24.4021 19.2449 23.733 19.938C23.1538 20.5378 22.9372 21.4075 23.1678 22.2077C23.3983 23.0083 24.0446 23.6295 24.8545 23.8292C25.7921 24.0602 26.4026 24.9255 26.306 25.8863C26.1919 27.0245 25.9153 28.1392 25.4844 29.1991C25.1207 30.0935 24.177 30.5726 23.2396 30.3393C22.4299 30.1369 21.5683 30.3845 20.9905 30.9845C20.4128 31.584 20.1978 32.4542 20.4294 33.2552C20.697 34.1805 20.2545 35.1408 19.3772 35.5385ZM19.4539 33.5372C19.1217 32.3883 19.4303 31.1401 20.2592 30.2798C21.0884 29.419 22.3251 29.0642 23.4855 29.3539C23.9274 29.4642 24.3721 29.2382 24.5436 28.8165C24.9381 27.8466 25.1911 26.8266 25.2956 25.7849C25.3411 25.3319 25.0533 24.9241 24.6115 24.8153C23.4498 24.5289 22.5226 23.6374 22.1918 22.4889C21.8612 21.3407 22.1717 20.093 23.0024 19.2327C23.3177 18.9059 23.3449 18.4084 23.0669 18.0495C22.4239 17.219 21.6673 16.4886 20.8178 15.8784C20.4484 15.6131 19.9515 15.6586 19.6363 15.9866C18.8074 16.8501 17.5716 17.2077 16.4109 16.9198C15.2502 16.6319 14.3249 15.7381 13.9957 14.5874C13.8705 14.1501 13.452 13.8774 13.0018 13.9394C11.9658 14.0819 10.9555 14.3741 9.99886 14.8078C9.58539 14.9953 9.37679 15.4478 9.50282 15.8841C9.83514 17.0328 9.52659 18.2811 8.69764 19.1416C7.86838 20.0025 6.63236 20.3576 5.4712 20.0673C5.0292 19.9575 4.58456 20.1831 4.41312 20.6048C4.01865 21.5747 3.76566 22.5947 3.66115 23.6364C3.61575 24.0893 3.90348 24.4972 4.34538 24.606C5.50695 24.8923 6.43401 25.7839 6.7649 26.9324C7.09569 28.0805 6.78511 29.3282 5.95443 30.1886C5.63918 30.5154 5.61196 31.013 5.88984 31.372C6.53304 32.2026 7.28978 32.9329 8.13904 33.5429C8.50863 33.8083 9.00547 33.7627 9.32062 33.4346C9.95986 32.7686 10.8413 32.4036 11.7435 32.4036C12.011 32.4036 12.2804 32.4357 12.5457 32.5016C13.7063 32.7894 14.6317 33.6832 14.9609 34.8339C15.086 35.2712 15.5028 35.5441 15.9548 35.4819C16.9908 35.3394 18.0012 35.0473 18.9579 34.6137C19.3713 34.4261 19.58 33.9735 19.4539 33.5372ZM18.7297 25.7652C18.2357 27.7566 16.4434 29.0912 14.478 29.0912C14.1299 29.0912 13.7765 29.0494 13.4237 28.962C11.0796 28.3804 9.64552 26.0002 10.2271 23.656C10.5086 22.5205 11.2157 21.5626 12.2179 20.9587C13.22 20.355 14.3972 20.1775 15.533 20.4592C17.8771 21.0408 19.3111 23.421 18.7297 25.7652ZM15.2883 21.4449C15.0178 21.3779 14.7442 21.3447 14.4724 21.3447C13.868 21.3447 13.273 21.5087 12.7421 21.8287C11.9722 22.2924 11.4292 23.0284 11.2127 23.9006C10.9963 24.7728 11.1326 25.6771 11.5963 26.447C12.0601 27.2167 12.796 27.7599 13.6682 27.9763C15.4689 28.4228 17.2971 27.3213 17.7439 25.5206C18.1906 23.72 17.0889 21.8917 15.2883 21.4449ZM49.3267 29.7033C49.3085 29.4232 49.0659 29.2107 48.7872 29.2293C48.5073 29.2473 48.295 29.489 48.3132 29.7688C48.7553 36.607 44.3824 42.7857 37.8495 44.6763L38.7952 42.3665C38.9015 42.1069 38.7772 41.8103 38.5177 41.7042C38.2581 41.5981 37.9615 41.7223 37.8554 41.9817L36.4769 45.349C36.3728 45.6033 36.4898 45.8941 36.7411 46.0056L40.0673 47.4804C40.1342 47.5102 40.2042 47.5242 40.2728 47.5242C40.4675 47.5242 40.6533 47.4117 40.7373 47.2221C40.851 46.9657 40.7352 46.6657 40.4789 46.5521L38.322 45.5956C45.2062 43.5095 49.7955 36.9528 49.3267 29.7033ZM36.5324 32.6773C35.788 32.6773 35.1312 32.1922 34.9207 31.4559C34.7379 30.8175 34.2246 30.3216 33.5809 30.1619C32.9377 30.0024 32.2518 30.2006 31.7918 30.6798C31.2057 31.2902 30.2817 31.375 29.5943 30.8814C28.8143 30.3209 28.1196 29.6504 27.5297 28.8884C27.0126 28.2208 27.0631 27.2951 27.6496 26.6876C28.1106 26.2102 28.2829 25.518 28.0996 24.8813C27.9161 24.2443 27.4017 23.7497 26.7571 23.5908C25.9352 23.3883 25.4001 22.6299 25.4846 21.7876C25.5805 20.8318 25.8125 19.8962 26.1743 19.0067C26.4932 18.2225 27.3207 17.8023 28.1422 18.0071C28.7862 18.168 29.4721 17.9712 29.9321 17.4937C30.3918 17.0166 30.5629 16.324 30.3786 15.6865C30.1438 14.8754 30.5318 14.0336 31.301 13.6849C32.179 13.2868 33.1065 13.0187 34.0579 12.8879C34.896 12.7723 35.6735 13.2795 35.9063 14.093C36.089 14.7314 36.6024 15.2274 37.246 15.387C37.8892 15.5467 38.5752 15.3483 39.0351 14.8691C39.6212 14.2585 40.5452 14.1739 41.2326 14.6676C42.0122 15.2276 42.7069 15.898 43.2973 16.6605C43.8143 17.3282 43.7639 18.2538 43.1774 18.8614C42.7164 19.3387 42.5439 20.031 42.7274 20.6676C42.9109 21.3046 43.4253 21.7993 44.0699 21.9581C44.8919 22.1606 45.4269 22.9191 45.3423 23.7614C45.2464 24.7169 45.0144 25.6525 44.6526 26.5422C44.3337 27.3264 43.5063 27.7463 42.6847 27.5418C42.0403 27.3808 41.3548 27.5778 40.8948 28.0552C40.4351 28.5324 40.264 29.2249 40.4483 29.8623C40.6829 30.6735 40.2949 31.5153 39.5258 31.8641C38.6476 32.2621 37.7201 32.5302 36.769 32.661C36.6896 32.6719 36.6104 32.6773 36.5324 32.6773ZM36.6308 31.6549C37.4847 31.5375 38.3177 31.2967 39.1067 30.9392C39.4119 30.8007 39.5658 30.4666 39.4728 30.1445C39.1877 29.1593 39.4524 28.0887 40.1634 27.3507C40.8748 26.6122 41.935 26.3079 42.9307 26.5564C43.2566 26.6382 43.5853 26.4711 43.7117 26.1598C44.0369 25.3601 44.2455 24.5191 44.3318 23.6602C44.3653 23.3258 44.1529 23.0248 43.8267 22.9444C42.8303 22.6988 42.035 21.9341 41.7513 20.949C41.4676 19.9642 41.734 18.8941 42.4465 18.1562C42.6793 17.915 42.6993 17.5476 42.4942 17.2825C41.9637 16.5976 41.3399 15.9954 40.6399 15.4926C40.3671 15.2966 40.0002 15.3301 39.7675 15.5727C39.0566 16.3133 37.9967 16.6199 37.0013 16.3729C36.0059 16.126 35.212 15.3594 34.9297 14.3726C34.8374 14.0496 34.5298 13.848 34.1959 13.8941C33.3418 14.0115 32.5089 14.2525 31.7201 14.6101C31.4147 14.7484 31.2609 15.0825 31.354 15.4045C31.639 16.3899 31.3742 17.4605 30.6633 18.1985C29.952 18.9368 28.8917 19.2411 27.896 18.9927C27.5699 18.9107 27.2414 19.0782 27.115 19.3894C26.7898 20.1889 26.5812 21.0298 26.4949 21.8889C26.4614 22.2233 26.6739 22.5243 27.0001 22.6047C27.9965 22.8504 28.7918 23.615 29.0755 24.6001C29.3591 25.5849 29.0927 26.6551 28.3802 27.3929C28.1475 27.6341 28.1275 28.0015 28.3326 28.2666C28.8627 28.9511 29.4865 29.5534 30.1868 30.0565C30.4597 30.2523 30.8264 30.2188 31.0591 29.9766C31.6073 29.4054 32.3634 29.0923 33.1372 29.0923C33.3668 29.0923 33.5977 29.1198 33.8254 29.1762C34.8208 29.4231 35.6146 30.1897 35.897 31.1765C35.9894 31.4994 36.2983 31.7005 36.6308 31.6549ZM28.5786 38.6703C29.0151 39.3949 29.1434 40.246 28.9396 41.0669C28.736 41.8878 28.225 42.5803 27.5004 43.0168C27.0007 43.3178 26.4407 43.4722 25.8721 43.4722C25.6161 43.4722 25.3586 43.4409 25.1039 43.3777C24.283 43.1741 23.5906 42.663 23.154 41.9385C22.7175 41.214 22.5893 40.3628 22.7929 39.5419C23.2133 37.8473 24.9342 36.8103 26.6287 37.2309H26.6288C27.4496 37.4346 28.1422 37.9458 28.5786 38.6703ZM27.7087 39.1944C27.4123 38.7022 26.9418 38.355 26.3841 38.2166C26.2111 38.1737 26.0374 38.1532 25.8665 38.1532C24.9012 38.1532 24.0212 38.8085 23.7784 39.7866C23.6402 40.3442 23.7273 40.9224 24.0238 41.4144C24.3203 41.9066 24.7907 42.2537 25.3483 42.3921C25.906 42.5301 26.4841 42.4433 26.9762 42.1468C27.4684 41.8503 27.8156 41.3799 27.9539 40.8223C28.0923 40.2646 28.0053 39.6865 27.7087 39.1944ZM37.3387 25.9701C36.7499 26.3248 36.0901 26.5068 35.4199 26.5068C35.1185 26.5068 34.8151 26.47 34.515 26.3955C32.5185 25.9001 31.297 23.8729 31.7923 21.8761C32.0322 20.909 32.6345 20.093 33.488 19.5788C34.3416 19.0646 35.344 18.9133 36.3116 19.1535C37.2787 19.3933 38.0947 19.9956 38.6089 20.8491C39.1231 21.7027 39.2742 22.7055 39.0343 23.6728C38.7943 24.6401 38.1923 25.4558 37.3387 25.9701ZM36.8146 25.1001C37.4358 24.7258 37.8741 24.1321 38.0487 23.4281C38.2233 22.7242 38.1134 21.9945 37.739 21.3732C37.3647 20.752 36.771 20.3137 36.067 20.1391C35.8487 20.085 35.6277 20.0582 35.4085 20.0582C34.9208 20.0582 34.4407 20.1906 34.0122 20.4488C33.391 20.8231 32.9527 21.4168 32.7781 22.1208C32.4177 23.574 33.3065 25.0494 34.7597 25.4099C35.4634 25.5845 36.1933 25.4744 36.8146 25.1001ZM34.1455 41.1274C34.0656 41.9241 33.8721 42.7041 33.5705 43.4461C33.2905 44.1345 32.564 44.5034 31.8431 44.3234C31.3429 44.1987 30.8096 44.3513 30.4521 44.7224C30.0948 45.0932 29.962 45.6314 30.1052 46.1269C30.3112 46.8389 29.9707 47.5777 29.2955 47.8839C28.5636 48.2157 27.7902 48.4392 26.9967 48.5483C26.9268 48.5579 26.8574 48.5626 26.7889 48.5626C26.1356 48.5626 25.5592 48.1371 25.3742 47.4907C25.2322 46.9944 24.8333 46.6089 24.3331 46.4849C23.8327 46.3606 23.3001 46.5151 22.9428 46.8875C22.4283 47.4233 21.6171 47.4976 21.014 47.0644C20.3636 46.5971 19.7844 46.0381 19.2922 45.4026C18.8384 44.8165 18.8828 44.004 19.3977 43.4708C19.7558 43.0998 19.8898 42.5619 19.7472 42.067C19.6047 41.5719 19.2049 41.1877 18.704 41.0642C17.9826 40.8863 17.5129 40.2207 17.587 39.4815C17.6669 38.6846 17.8605 37.9045 18.1621 37.1627C18.4421 36.4744 19.168 36.1051 19.8895 36.2855C20.3897 36.4103 20.923 36.2575 21.2804 35.8865C21.6377 35.5157 21.7706 34.9775 21.6274 34.482C21.4214 33.77 21.7618 33.0312 22.437 32.725C23.1692 32.3931 23.9426 32.1696 24.7358 32.0605C25.4725 31.9592 26.154 32.4043 26.3583 33.1182C26.5003 33.6145 26.8993 34 27.3996 34.124C27.8994 34.2482 28.4324 34.0939 28.7898 33.7214C29.3042 33.1856 30.1154 33.1112 30.7186 33.5447C31.3687 34.0116 31.948 34.5707 32.4403 35.2063C32.8941 35.7924 32.8497 36.6049 32.3351 37.1381C31.9768 37.5091 31.8427 38.0471 31.9854 38.5419C32.1279 39.0369 32.5278 39.4212 33.0286 39.5447C33.7499 39.7226 34.2196 40.3882 34.1455 41.1274ZM32.7854 40.5307C31.9327 40.3206 31.2522 39.6661 31.0094 38.8231C30.7666 37.9803 30.9946 37.0644 31.6043 36.4328C31.7654 36.2658 31.7792 36.0117 31.6373 35.8282C31.205 35.2702 30.6966 34.7793 30.126 34.3695C29.9372 34.234 29.6834 34.2572 29.5225 34.4248C28.9141 35.0586 28.0069 35.3214 27.1548 35.1097C26.3029 34.8985 25.6235 34.2424 25.3818 33.3978C25.3178 33.1744 25.1035 33.0347 24.8741 33.0667C24.178 33.1624 23.4991 33.3587 22.8563 33.6501C22.645 33.7458 22.5384 33.9771 22.6029 34.1998C22.8467 35.0433 22.6203 35.9595 22.0118 36.5911C21.4029 37.223 20.4951 37.4833 19.6434 37.2709C19.418 37.2144 19.1906 37.3299 19.103 37.5452C18.8379 38.1971 18.6678 38.8827 18.5974 39.5829C18.5743 39.8141 18.7213 40.0225 18.947 40.0782C19.7997 40.2883 20.4803 40.9428 20.7231 41.7858C20.9659 42.6287 20.738 43.5446 20.1282 44.1761C19.9671 44.3431 19.9532 44.5972 20.0952 44.7807C20.5273 45.3386 21.0359 45.8293 21.6065 46.2395C21.7952 46.375 22.049 46.3517 22.2101 46.184C22.6793 45.6952 23.3264 45.4273 23.9888 45.4273C24.1852 45.4273 24.3828 45.4507 24.5777 45.4992C25.4297 45.7105 26.109 46.3665 26.3506 47.2112C26.4147 47.4346 26.6295 47.5731 26.8583 47.5421C27.5546 47.4464 28.2336 47.2501 28.8762 46.9588C29.0874 46.8631 29.1941 46.6318 29.1296 46.4091C28.8857 45.5656 29.1122 44.6494 29.7207 44.0178C30.3293 43.3859 31.2371 43.1258 32.089 43.338C32.3147 43.3945 32.542 43.2789 32.6295 43.0636C32.8946 42.4116 33.0646 41.726 33.135 41.0261C33.1582 40.7948 33.0112 40.5864 32.7854 40.5307Z" fill="white"/>
<path d="M9.47281 10.0867C9.26633 9.89694 9.25272 9.5757 9.44244 9.36923C14.3574 4.01973 22.2678 2.80423 28.5339 6.33738L27.7342 4.11743C27.6391 3.85357 27.7759 3.56269 28.0399 3.46763C28.3035 3.37277 28.5946 3.50927 28.6896 3.77334L29.9229 7.1966C30.0161 7.45508 29.8867 7.74067 29.6309 7.84132L26.2445 9.1726C25.9835 9.27518 25.6888 9.1468 25.5862 8.88579C25.4836 8.62487 25.612 8.33004 25.873 8.22746L28.196 7.31421C22.314 3.89988 14.8264 5.01047 10.1903 10.0565C10.0903 10.1655 9.9535 10.2207 9.81629 10.2207C9.6934 10.2206 9.57041 10.1763 9.47281 10.0867ZM49.3285 29.7033C49.3103 29.4232 49.0677 29.2107 48.789 29.2293C48.5091 29.2473 48.2968 29.489 48.315 29.7688C48.7571 36.607 44.3842 42.7857 37.8513 44.6763L38.7969 42.3665C38.9033 42.1069 38.779 41.8103 38.5195 41.7042C38.2599 41.5981 37.9633 41.7223 37.8572 41.9817L36.4787 45.349C36.3746 45.6033 36.4916 45.8941 36.7428 46.0056L40.0691 47.4804C40.1359 47.5102 40.2059 47.5242 40.2746 47.5242C40.4693 47.5242 40.655 47.4117 40.739 47.2221C40.8528 46.9657 40.737 46.6657 40.4807 46.5521L38.3238 45.5956C45.208 43.5095 49.7973 36.9528 49.3285 29.7033ZM28.5804 38.6703C29.0169 39.3949 29.1452 40.2459 28.9414 41.0669C28.7378 41.8878 28.2267 42.5803 27.5022 43.0168C27.0025 43.3178 26.4425 43.4722 25.8738 43.4722C25.6179 43.4722 25.3603 43.4409 25.1057 43.3777C24.2848 43.1741 23.5923 42.663 23.1558 41.9385C22.7193 41.214 22.591 40.3629 22.7947 39.5419C23.215 37.8474 24.936 36.8103 26.6305 37.2309C27.4513 37.4346 28.144 37.9458 28.5804 38.6703ZM27.7105 39.1944C27.414 38.7022 26.9436 38.355 26.3859 38.2166C26.2128 38.1737 26.0392 38.1532 25.8682 38.1532C24.903 38.1532 24.023 38.8085 23.7802 39.7866C23.642 40.3442 23.729 40.9224 24.0256 41.4144C24.3221 41.9066 24.7925 42.2537 25.3501 42.3921C25.9078 42.5301 26.4858 42.4433 26.978 42.1468C27.4702 41.8503 27.8173 41.3799 27.9557 40.8223C28.0941 40.2646 28.007 39.6865 27.7105 39.1944ZM34.1473 41.1274C34.0674 41.9241 33.8739 42.7041 33.5723 43.4461C33.2923 44.1345 32.5658 44.5034 31.8449 44.3234C31.3447 44.1987 30.8114 44.3513 30.4539 44.7224C30.0966 45.0932 29.9638 45.6314 30.107 46.1269C30.3129 46.8389 29.9725 47.5777 29.2973 47.8839C28.5653 48.2157 27.7919 48.4392 26.9984 48.5483C26.9286 48.5579 26.8592 48.5626 26.7906 48.5626C26.1374 48.5626 25.561 48.1371 25.376 47.4907C25.234 46.9944 24.8351 46.6089 24.3349 46.4849C23.8345 46.3606 23.3019 46.5151 22.9446 46.8875C22.43 47.4233 21.6189 47.4976 21.0158 47.0644C20.3654 46.5971 19.7862 46.0381 19.294 45.4026C18.8402 44.8165 18.8846 44.004 19.3994 43.4708C19.7575 43.0998 19.8916 42.5619 19.749 42.067C19.6065 41.572 19.2067 41.1877 18.7058 41.0642C17.9844 40.8863 17.5146 40.2207 17.5888 39.4815C17.6687 38.6846 17.8623 37.9045 18.1639 37.1627C18.4438 36.4744 19.1698 36.1051 19.8913 36.2855C20.3915 36.4103 20.9248 36.2575 21.2822 35.8865C21.6395 35.5157 21.7723 34.9775 21.6291 34.482C21.4232 33.77 21.7636 33.0312 22.4388 32.725C23.1709 32.3931 23.9443 32.1696 24.7375 32.0605C25.4743 31.9592 26.1558 32.4043 26.3601 33.1182C26.5021 33.6145 26.901 34 27.4013 34.124C27.9012 34.2482 28.4342 34.0939 28.7916 33.7214C29.3059 33.1856 30.1172 33.1112 30.7204 33.5447C31.3705 34.0116 31.9498 34.5707 32.4421 35.2063C32.8959 35.7924 32.8515 36.6049 32.3369 37.1381C31.9785 37.5091 31.8445 38.0471 31.9872 38.5419C32.1297 39.0369 32.5295 39.4212 33.0303 39.5447C33.7516 39.7226 34.2214 40.3882 34.1473 41.1274ZM32.7872 40.5307C31.9345 40.3206 31.254 39.6661 31.0112 38.8231C30.7683 37.9803 30.9963 37.0644 31.6061 36.4328C31.7672 36.2658 31.781 36.0117 31.639 35.8282C31.2068 35.2702 30.6984 34.7793 30.1278 34.3695C29.939 34.234 29.6852 34.2572 29.5243 34.4248C28.9158 35.0586 28.0087 35.3214 27.1566 35.1097C26.3047 34.8985 25.6253 34.2424 25.3836 33.3978C25.3196 33.1744 25.1053 33.0347 24.8759 33.0667C24.1798 33.1624 23.5008 33.3587 22.858 33.6501C22.6468 33.7458 22.5401 33.9771 22.6046 34.1998C22.8485 35.0433 22.6221 35.9595 22.0135 36.5911C21.4047 37.223 20.4969 37.4833 19.6452 37.2709C19.4197 37.2144 19.1923 37.3299 19.1048 37.5452C18.8397 38.1971 18.6696 38.8827 18.5992 39.5829C18.5761 39.8141 18.7231 40.0225 18.9488 40.0782C19.8015 40.2883 20.4821 40.9428 20.7249 41.7858C20.9677 42.6287 20.7397 43.5446 20.13 44.1761C19.9689 44.3431 19.955 44.5972 20.097 44.7807C20.5291 45.3386 21.0376 45.8293 21.6083 46.2395C21.797 46.375 22.0508 46.3517 22.2119 46.184C22.6811 45.6952 23.3282 45.4273 23.9906 45.4273C24.187 45.4273 24.3846 45.4507 24.5795 45.4992C25.4314 45.7105 26.1108 46.3665 26.3524 47.2112C26.4165 47.4346 26.6313 47.5731 26.8601 47.5421C27.5564 47.4464 28.2354 47.2501 28.8779 46.9588C29.0892 46.8631 29.1958 46.6318 29.1313 46.4091C28.8875 45.5656 29.114 44.6494 29.7224 44.0178C30.3311 43.3859 31.2389 43.1258 32.0908 43.338C32.3164 43.3945 32.5437 43.2789 32.6313 43.0636C32.8964 42.4116 33.0664 41.726 33.1368 41.0261C33.1599 40.7948 33.013 40.5864 32.7872 40.5307Z" fill="#E6B400"/>
</svg>
