<svg width="36" height="36" viewBox="0 0 36 36" fill="none" xmlns="http://www.w3.org/2000/svg">
<path d="M6.55687 6.98608C6.41392 6.85474 6.4045 6.63234 6.53585 6.48939C9.93848 2.78589 15.4149 1.94439 19.753 4.39042L19.1993 2.85353C19.1335 2.67086 19.2282 2.46949 19.411 2.40367C19.5935 2.338 19.795 2.4325 19.8608 2.61531L20.7146 4.98527C20.7791 5.16421 20.6895 5.36193 20.5125 5.43161L18.1681 6.35327C17.9874 6.42428 17.7833 6.33541 17.7123 6.1547C17.6413 5.97407 17.7302 5.76995 17.9109 5.69894L19.5191 5.06669C15.4469 2.70292 10.2632 3.47179 7.05363 6.9652C6.98437 7.04064 6.88966 7.07889 6.79467 7.07889C6.70959 7.07882 6.62444 7.04817 6.55687 6.98608ZM13.415 24.6066C12.6909 24.9348 11.9259 25.156 11.1415 25.2638C11.0786 25.2725 11.0162 25.2768 10.9545 25.2768C10.3668 25.2768 9.84806 24.8937 9.68163 24.3121C9.52265 23.7567 9.07617 23.3254 8.5162 23.1864C7.9563 23.0476 7.35998 23.2201 6.9599 23.6369C6.49689 24.119 5.76705 24.186 5.22445 23.796C4.58137 23.3342 4.00853 22.7812 3.52162 22.1526C3.11339 21.6252 3.15325 20.8942 3.6164 20.4144C4.01739 19.9992 4.16737 19.3971 4.00769 18.8431C3.84801 18.2889 3.40061 17.8588 2.84001 17.7205C2.19096 17.5606 1.76831 16.9616 1.83503 16.2964C1.91407 15.5084 2.10553 14.7367 2.40386 14.0029C2.65572 13.3837 3.30885 13.0521 3.95805 13.2135C4.5183 13.3534 5.1149 13.1823 5.51512 12.767C5.91506 12.3518 6.06391 11.7493 5.90346 11.1949C5.71818 10.5543 6.0246 9.88949 6.63189 9.61415C7.35597 9.28586 8.1209 9.06473 8.90538 8.9568C9.56828 8.86581 10.1814 9.26603 10.3653 9.90848C10.5242 10.4639 10.9707 10.8952 11.5307 11.0343C12.0907 11.1731 12.687 11.0006 13.0871 10.5838C13.5498 10.1016 14.2796 10.0346 14.8225 10.4246C15.4657 10.8867 16.0387 11.4397 16.5253 12.0683C16.9337 12.5954 16.8938 13.3264 16.4306 13.8063C16.0296 14.2215 15.8796 14.8236 16.0392 15.3776C16.1988 15.9318 16.6463 16.3619 17.207 16.5001C17.8561 16.6601 18.2787 17.2591 18.2119 17.9243C18.1328 18.7123 17.9414 19.484 17.643 20.2178C17.3913 20.8369 16.7379 21.1687 16.0889 21.0072C15.5284 20.867 14.9319 21.0385 14.5319 21.4538C14.1319 21.8688 13.9831 22.4713 14.1434 23.0258C14.3287 23.6665 14.0224 24.3313 13.415 24.6066ZM13.4681 23.2211C13.2381 22.4257 13.4517 21.5615 14.0256 20.966C14.5996 20.37 15.4558 20.1244 16.2592 20.3249C16.5652 20.4013 16.873 20.2448 16.9917 19.9529C17.2648 19.2814 17.44 18.5753 17.5123 17.8541C17.5438 17.5405 17.3446 17.2582 17.0387 17.1828C16.2345 16.9845 15.5926 16.3674 15.3636 15.5722C15.1346 14.7773 15.3497 13.9135 15.9247 13.3179C16.143 13.0917 16.1618 12.7473 15.9694 12.4988C15.5242 11.9238 15.0004 11.4182 14.4123 10.9957C14.1566 10.8121 13.8126 10.8436 13.5944 11.0707C13.0205 11.6685 12.1649 11.916 11.3614 11.7167C10.5579 11.5174 9.91724 10.8986 9.68936 10.102C9.60267 9.79921 9.31291 9.61042 9.00121 9.65338C8.28403 9.75203 7.58456 9.95432 6.92228 10.2546C6.63604 10.3844 6.49162 10.6977 6.57888 10.9997C6.80894 11.795 6.59533 12.6592 6.02144 13.2549C5.44734 13.8509 4.59164 14.0967 3.78775 13.8958C3.48175 13.8198 3.17393 13.9759 3.05524 14.2679C2.78214 14.9393 2.607 15.6455 2.53464 16.3667C2.50321 16.6802 2.70241 16.9626 3.00834 17.038C3.8125 17.2362 4.45432 17.8534 4.68339 18.6485C4.9124 19.4433 4.69739 20.3071 4.1223 20.9028C3.90405 21.129 3.88521 21.4735 4.07758 21.7221C4.52287 22.2971 5.04677 22.8027 5.63472 23.225C5.89059 23.4088 6.23456 23.3772 6.45274 23.15C6.89528 22.689 7.50553 22.4363 8.13011 22.4363C8.31532 22.4363 8.50178 22.4585 8.68551 22.5041C9.48897 22.7034 10.1297 23.3221 10.3575 24.1188C10.4442 24.4215 10.7327 24.6105 11.0456 24.5674C11.7629 24.4687 12.4623 24.2665 13.1247 23.9663C13.4109 23.8365 13.5554 23.5231 13.4681 23.2211ZM12.9667 17.8404C12.6247 19.2191 11.3839 20.1431 10.0232 20.1431C9.78225 20.1431 9.53756 20.1141 9.29336 20.0536C7.67048 19.651 6.67767 18.0031 7.08028 16.3803C7.27518 15.5941 7.7647 14.931 8.45854 14.5129C9.15232 14.095 9.96731 13.972 10.7536 14.1671C12.3764 14.5697 13.3692 16.2175 12.9667 17.8404ZM10.5842 14.8495C10.3969 14.8031 10.2075 14.7801 10.0193 14.7801C9.60091 14.7801 9.18902 14.8936 8.82142 15.1152C8.28846 15.4362 7.9125 15.9457 7.76266 16.5496C7.61282 17.1534 7.70718 17.7795 8.02823 18.3124C8.34928 18.8453 8.85876 19.2214 9.4626 19.3712C10.7092 19.6803 11.9749 18.9178 12.2842 17.6711C12.5935 16.4245 11.8308 15.1588 10.5842 14.8495ZM34.1493 20.5668C34.1367 20.3729 33.9687 20.2258 33.7758 20.2386C33.582 20.2512 33.435 20.4184 33.4476 20.6122C33.7537 25.3463 30.7263 29.6239 26.2035 30.9328L26.8582 29.3336C26.9318 29.1539 26.8458 28.9486 26.6661 28.8751C26.4864 28.8017 26.2811 28.8876 26.2076 29.0672L25.2532 31.3984C25.1812 31.5745 25.2622 31.7759 25.4361 31.853L27.7389 32.8741C27.7852 32.8947 27.8336 32.9044 27.8812 32.9044C28.016 32.9044 28.1446 32.8265 28.2027 32.6952C28.2815 32.5177 28.2013 32.31 28.0238 32.2314L26.5306 31.5692C31.2966 30.1249 34.4738 25.5857 34.1493 20.5668ZM25.2916 22.6258C24.7763 22.6258 24.3216 22.2899 24.1758 21.7802C24.0493 21.3382 23.6939 20.9949 23.2483 20.8843C22.803 20.7739 22.3282 20.9111 22.0097 21.2429C21.604 21.6654 20.9643 21.7241 20.4884 21.3824C19.9484 20.9944 19.4674 20.5302 19.059 20.0027C18.701 19.5405 18.736 18.8996 19.142 18.479C19.4612 18.1485 19.5805 17.6693 19.4536 17.2285C19.3265 16.7875 18.9704 16.4451 18.5241 16.3351C17.9552 16.1949 17.5847 15.6699 17.6432 15.0867C17.7096 14.425 17.8702 13.7773 18.1207 13.1615C18.3415 12.6186 18.9144 12.3276 19.483 12.4695C19.9289 12.5808 20.4038 12.4446 20.7222 12.114C21.0405 11.7837 21.1589 11.3043 21.0313 10.8629C20.8688 10.3014 21.1374 9.71856 21.6699 9.47718C22.2778 9.20156 22.9199 9.01593 23.5785 8.92537C24.1588 8.84535 24.6971 9.19649 24.8582 9.7597C24.9847 10.2017 25.3402 10.545 25.7857 10.6555C26.231 10.7661 26.7059 10.6288 27.0243 10.297C27.43 9.87431 28.0698 9.81574 28.5456 10.1575C29.0853 10.5452 29.5663 11.0093 29.9751 11.5372C30.333 11.9994 30.2981 12.6403 29.892 13.0609C29.5729 13.3913 29.4535 13.8706 29.5805 14.3114C29.7075 14.7524 30.0637 15.0948 30.5099 15.2048C31.079 15.345 31.4494 15.8701 31.3908 16.4532C31.3244 17.1147 31.1638 17.7625 30.9133 18.3784C30.6925 18.9213 30.1197 19.212 29.551 19.0704C29.1048 18.959 28.6302 19.0953 28.3118 19.4258C27.9935 19.7562 27.8751 20.2356 28.0027 20.6769C28.1651 21.2385 27.8965 21.8213 27.364 22.0628C26.756 22.3383 26.1139 22.5239 25.4555 22.6144C25.4005 22.622 25.3456 22.6258 25.2916 22.6258ZM25.3598 21.9179C25.951 21.8366 26.5277 21.6699 27.0738 21.4224C27.2851 21.3266 27.3917 21.0953 27.3273 20.8723C27.13 20.1902 27.3132 19.449 27.8054 18.9381C28.2979 18.4268 29.0319 18.2162 29.7213 18.3882C29.9469 18.4448 30.1744 18.3292 30.262 18.1137C30.4871 17.56 30.6315 16.9778 30.6912 16.3831C30.7144 16.1517 30.5674 15.9433 30.3415 15.8876C29.6517 15.7176 29.1012 15.1882 28.9047 14.5061C28.7083 13.8244 28.8928 13.0835 29.3861 12.5727C29.5472 12.4057 29.5611 12.1514 29.4191 11.9678C29.0518 11.4937 28.6199 11.0767 28.1353 10.7287C27.9464 10.593 27.6925 10.6162 27.5314 10.7841C27.0392 11.2968 26.3054 11.5091 25.6163 11.3381C24.9271 11.1671 24.3776 10.6364 24.1821 9.95327C24.1182 9.72967 23.9052 9.5901 23.6741 9.62203C23.0828 9.70331 22.5061 9.87009 21.9601 10.1177C21.7487 10.2134 21.6421 10.4448 21.7066 10.6676C21.9039 11.3499 21.7206 12.091 21.2284 12.6019C20.736 13.1131 20.002 13.3238 19.3126 13.1518C19.0868 13.095 18.8594 13.211 18.7719 13.4264C18.5468 13.9799 18.4023 14.5621 18.3427 15.1569C18.3194 15.3884 18.4665 15.5968 18.6924 15.6524C19.3822 15.8225 19.9328 16.3518 20.1292 17.0339C20.3255 17.7156 20.1411 18.4565 19.6479 18.9673C19.4867 19.1343 19.4729 19.3886 19.6149 19.5722C19.9818 20.0461 20.4137 20.463 20.8986 20.8113C21.0875 20.9469 21.3413 20.9237 21.5024 20.756C21.882 20.3606 22.4054 20.1438 22.9412 20.1438C23.1001 20.1438 23.26 20.1629 23.4176 20.2019C24.1067 20.3729 24.6563 20.9036 24.8518 21.5868C24.9157 21.8103 25.1296 21.9495 25.3598 21.9179ZM19.7852 26.7748C20.0874 27.2764 20.1762 27.8656 20.0351 28.4339C19.8942 29.0023 19.5404 29.4816 19.0387 29.7839C18.6928 29.9923 18.3051 30.0991 17.9114 30.0991C17.7342 30.0991 17.5559 30.0775 17.3797 30.0337C16.8113 29.8928 16.3319 29.539 16.0297 29.0373C15.7275 28.5358 15.6387 27.9465 15.7797 27.3782C16.0707 26.205 17.2622 25.4871 18.4353 25.7782H18.4353C19.0036 25.9193 19.483 26.2731 19.7852 26.7748ZM19.183 27.1376C18.9777 26.7968 18.652 26.5564 18.2659 26.4607C18.1461 26.4309 18.0259 26.4167 17.9076 26.4167C17.2393 26.4167 16.63 26.8705 16.462 27.5476C16.3663 27.9336 16.4266 28.3339 16.6319 28.6745C16.8371 29.0153 17.1628 29.2556 17.5488 29.3514C17.9349 29.4469 18.3351 29.3868 18.6759 29.1816C19.0166 28.9763 19.2569 28.6506 19.3527 28.2646C19.4485 27.8785 19.3883 27.4783 19.183 27.1376ZM25.8498 17.9823C25.4422 18.2279 24.9854 18.3539 24.5215 18.3539C24.3128 18.3539 24.1028 18.3284 23.895 18.2768C22.5128 17.9339 21.6672 16.5304 22.0101 15.148C22.1762 14.4784 22.5931 13.9135 23.184 13.5576C23.7749 13.2016 24.4689 13.0968 25.1388 13.2631C25.8084 13.4292 26.3733 13.8461 26.7292 14.437C27.0852 15.0279 27.1899 15.7222 27.0237 16.3919C26.8576 17.0615 26.4408 17.6263 25.8498 17.9823ZM25.487 17.38C25.9171 17.1209 26.2205 16.7099 26.3414 16.2225C26.4623 15.7351 26.3862 15.2299 26.127 14.7998C25.8678 14.3698 25.4569 14.0663 24.9695 13.9455C24.8184 13.908 24.6654 13.8894 24.5136 13.8894C24.1759 13.8894 23.8435 13.9811 23.5469 14.1599C23.1169 14.419 22.8134 14.83 22.6925 15.3174C22.443 16.3234 23.0584 17.3449 24.0644 17.5945C24.5516 17.7153 25.0569 17.6391 25.487 17.38ZM23.6392 28.4758C23.5839 29.0274 23.4499 29.5674 23.2411 30.0811C23.0473 30.5576 22.5443 30.8131 22.0452 30.6884C21.6989 30.6021 21.3297 30.7078 21.0822 30.9647C20.8349 31.2214 20.7429 31.594 20.842 31.937C20.9846 32.4299 20.749 32.9414 20.2815 33.1534C19.7748 33.3831 19.2393 33.5378 18.69 33.6134C18.6416 33.62 18.5936 33.6233 18.5461 33.6233C18.0939 33.6233 17.6949 33.3287 17.5668 32.8812C17.4685 32.5376 17.1923 32.2707 16.846 32.1849C16.4995 32.0988 16.1308 32.2058 15.8835 32.4636C15.5273 32.8345 14.9657 32.886 14.5482 32.586C14.0979 32.2625 13.6969 31.8755 13.3562 31.4356C13.042 31.0298 13.0727 30.4673 13.4291 30.0981C13.6771 29.8413 13.7699 29.4689 13.6712 29.1263C13.5725 28.7836 13.2957 28.5176 12.9489 28.4321C12.4495 28.3089 12.1243 27.8481 12.1756 27.3363C12.2309 26.7847 12.365 26.2446 12.5738 25.731C12.7676 25.2545 13.2702 24.9989 13.7697 25.1238C14.116 25.2102 14.4852 25.1043 14.7326 24.8475C14.98 24.5908 15.0719 24.2182 14.9728 23.8751C14.8302 23.3823 15.0659 22.8707 15.5333 22.6588C16.0402 22.429 16.5756 22.2743 17.1248 22.1988C17.6348 22.1286 18.1066 22.4368 18.2481 22.931C18.3464 23.2746 18.6226 23.5414 18.9689 23.6273C19.315 23.7133 19.684 23.6065 19.9314 23.3486C20.2875 22.9777 20.8492 22.9261 21.2667 23.2262C21.7168 23.5495 22.1179 23.9366 22.4587 24.3766C22.7728 24.7824 22.7421 25.3449 22.3858 25.714C22.1378 25.9709 22.045 26.3433 22.1437 26.6859C22.2424 27.0286 22.5192 27.2946 22.8659 27.3801C23.3653 27.5033 23.6905 27.9641 23.6392 28.4758ZM22.6976 28.0627C22.1073 27.9173 21.6362 27.4642 21.468 26.8805C21.2999 26.2971 21.4578 25.663 21.8799 25.2257C21.9914 25.1101 22.001 24.9342 21.9027 24.8071C21.6035 24.4208 21.2515 24.081 20.8565 23.7973C20.7258 23.7034 20.55 23.7195 20.4387 23.8356C20.0174 24.2744 19.3894 24.4563 18.7995 24.3097C18.2097 24.1635 17.7394 23.7093 17.572 23.1246C17.5277 22.9699 17.3794 22.8732 17.2205 22.8953C16.7386 22.9616 16.2686 23.0975 15.8236 23.2992C15.6773 23.3655 15.6035 23.5256 15.6481 23.6798C15.817 24.2638 15.6602 24.898 15.2389 25.3353C14.8174 25.7728 14.1889 25.953 13.5993 25.8059C13.4432 25.7668 13.2858 25.8468 13.2252 25.9958C13.0417 26.4472 12.9239 26.9218 12.8752 27.4065C12.8591 27.5666 12.9609 27.7109 13.1172 27.7494C13.7075 27.8949 14.1787 28.348 14.3468 28.9317C14.5148 29.5152 14.3571 30.1493 13.9349 30.5865C13.8234 30.7021 13.8138 30.878 13.912 31.005C14.2112 31.3913 14.5633 31.731 14.9584 32.0149C15.089 32.1088 15.2647 32.0926 15.3762 31.9765C15.7011 31.6381 16.149 31.4527 16.6076 31.4527C16.7436 31.4527 16.8804 31.4689 17.0154 31.5024C17.6051 31.6488 18.0755 32.1029 18.2427 32.6877C18.2871 32.8424 18.4358 32.9382 18.5942 32.9168C19.0763 32.8505 19.5463 32.7146 19.9912 32.513C20.1374 32.4467 20.2113 32.2866 20.1666 32.1324C19.9978 31.5484 20.1546 30.9141 20.5758 30.4769C20.9972 30.0394 21.6257 29.8593 22.2155 30.0063C22.3717 30.0453 22.5291 29.9653 22.5897 29.8163C22.7732 29.3649 22.8909 28.8903 22.9396 28.4057C22.9556 28.2456 22.8539 28.1013 22.6976 28.0627Z" fill="black"/>
<path d="M6.559 6.98608C6.41605 6.85474 6.40663 6.63234 6.53798 6.48939C9.94061 2.78589 15.417 1.94439 19.7551 4.39042L19.2015 2.85353C19.1357 2.67086 19.2304 2.46949 19.4131 2.40367C19.5956 2.338 19.7972 2.4325 19.863 2.61531L20.7168 4.98527C20.7812 5.16421 20.6917 5.36193 20.5146 5.43161L18.1702 6.35327C17.9895 6.42428 17.7854 6.33541 17.7144 6.1547C17.6434 5.97407 17.7323 5.76995 17.913 5.69894L19.5212 5.06669C15.449 2.70292 10.2653 3.47179 7.05576 6.9652C6.9865 7.04064 6.89179 7.07889 6.7968 7.07889C6.71172 7.07882 6.62657 7.04817 6.559 6.98608ZM34.1514 20.5668C34.1388 20.3729 33.9708 20.2258 33.7779 20.2386C33.5841 20.2512 33.4371 20.4184 33.4497 20.6121C33.7558 25.3463 30.7284 29.6239 26.2056 30.9328L26.8603 29.3336C26.9339 29.1539 26.8479 28.9486 26.6682 28.8751C26.4885 28.8017 26.2832 28.8876 26.2097 29.0672L25.2554 31.3984C25.1833 31.5745 25.2643 31.7759 25.4383 31.853L27.7411 32.8741C27.7873 32.8947 27.8358 32.9044 27.8833 32.9044C28.0181 32.9044 28.1467 32.8265 28.2048 32.6952C28.2836 32.5177 28.2034 32.31 28.026 32.2314L26.5327 31.5692C31.2987 30.1249 34.4759 25.5857 34.1514 20.5668ZM19.7873 26.7748C20.0895 27.2764 20.1783 27.8656 20.0373 28.4339C19.8963 29.0023 19.5425 29.4816 19.0409 29.7839C18.6949 29.9923 18.3072 30.0991 17.9136 30.0991C17.7364 30.0991 17.5581 30.0775 17.3818 30.0337C16.8134 29.8928 16.3341 29.539 16.0319 29.0373C15.7296 28.5358 15.6408 27.9465 15.7818 27.3782C16.0728 26.205 17.2643 25.4871 18.4374 25.7782C19.0056 25.9193 19.4852 26.2731 19.7873 26.7748ZM19.1851 27.1376C18.9798 26.7968 18.6542 26.5564 18.2681 26.4607C18.1483 26.4309 18.028 26.4167 17.9097 26.4167C17.2414 26.4167 16.6322 26.8705 16.4641 27.5476C16.3684 27.9336 16.4287 28.3339 16.634 28.6745C16.8392 29.0153 17.1649 29.2556 17.551 29.3514C17.937 29.4469 18.3373 29.3868 18.678 29.1816C19.0187 28.9763 19.2591 28.6506 19.3548 28.2646C19.4507 27.8785 19.3904 27.4783 19.1851 27.1376ZM23.6413 28.4758C23.586 29.0274 23.4521 29.5674 23.2432 30.0811C23.0494 30.5576 22.5464 30.8131 22.0474 30.6884C21.7011 30.6021 21.3319 30.7078 21.0844 30.9647C20.837 31.2214 20.745 31.594 20.8442 31.937C20.9868 32.4299 20.7511 32.9414 20.2836 33.1534C19.7769 33.3831 19.2415 33.5378 18.6921 33.6134C18.6438 33.62 18.5957 33.6233 18.5483 33.6233C18.096 33.6233 17.697 33.3287 17.5689 32.8812C17.4706 32.5376 17.1944 32.2707 16.8481 32.1849C16.5017 32.0988 16.133 32.2058 15.8856 32.4636C15.5294 32.8345 14.9678 32.886 14.5503 32.586C14.1 32.2625 13.699 31.8755 13.3583 31.4356C13.0441 31.0298 13.0749 30.4673 13.4313 30.0981C13.6792 29.8413 13.772 29.4689 13.6733 29.1263C13.5746 28.7836 13.2978 28.5176 12.951 28.4321C12.4516 28.3089 12.1264 27.8481 12.1777 27.3363C12.2331 26.7847 12.3671 26.2446 12.5759 25.731C12.7697 25.2545 13.2723 24.9989 13.7718 25.1238C14.1181 25.2102 14.4873 25.1043 14.7347 24.8475C14.9821 24.5908 15.0741 24.2182 14.9749 23.8751C14.8323 23.3823 15.068 22.8707 15.5354 22.6588C16.0423 22.429 16.5778 22.2743 17.1269 22.1988C17.6369 22.1286 18.1087 22.4368 18.2502 22.931C18.3485 23.2746 18.6247 23.5414 18.9711 23.6273C19.3171 23.7133 19.6861 23.6065 19.9336 23.3486C20.2896 22.9777 20.8513 22.9261 21.2689 23.2262C21.7189 23.5495 22.12 23.9366 22.4608 24.3766C22.775 24.7824 22.7442 25.3449 22.388 25.714C22.1399 25.9709 22.0471 26.3433 22.1459 26.6859C22.2445 27.0286 22.5213 27.2946 22.8681 27.3801C23.3674 27.5033 23.6926 27.9641 23.6413 28.4758ZM22.6997 28.0627C22.1094 27.9173 21.6383 27.4642 21.4702 26.8805C21.3021 26.2971 21.4599 25.663 21.8821 25.2257C21.9936 25.1101 22.0031 24.9342 21.9048 24.8071C21.6056 24.4208 21.2536 24.081 20.8586 23.7973C20.7279 23.7034 20.5522 23.7195 20.4408 23.8356C20.0196 24.2744 19.3915 24.4563 18.8016 24.3097C18.2118 24.1635 17.7415 23.7093 17.5742 23.1246C17.5299 22.9699 17.3815 22.8732 17.2227 22.8953C16.7407 22.9616 16.2707 23.0975 15.8257 23.2992C15.6794 23.3655 15.6056 23.5256 15.6503 23.6798C15.8191 24.2638 15.6624 24.898 15.241 25.3353C14.8195 25.7728 14.1911 25.953 13.6014 25.8059C13.4453 25.7668 13.2879 25.8468 13.2273 25.9958C13.0438 26.4472 12.926 26.9218 12.8773 27.4065C12.8612 27.5666 12.9631 27.7109 13.1193 27.7494C13.7096 27.8949 14.1808 28.348 14.3489 28.9317C14.517 29.5152 14.3592 30.1493 13.937 30.5865C13.8255 30.7021 13.8159 30.878 13.9142 31.005C14.2134 31.3913 14.5654 31.731 14.9605 32.0149C15.0911 32.1088 15.2669 32.0926 15.3784 31.9765C15.7032 31.6381 16.1512 31.4526 16.6097 31.4526C16.7457 31.4526 16.8826 31.4689 17.0175 31.5024C17.6073 31.6488 18.0776 32.1029 18.2449 32.6877C18.2892 32.8424 18.4379 32.9382 18.5964 32.9168C19.0784 32.8505 19.5485 32.7146 19.9933 32.513C20.1396 32.4467 20.2134 32.2866 20.1688 32.1324C19.9999 31.5484 20.1567 30.9141 20.578 30.4769C20.9994 30.0394 21.6278 29.8593 22.2176 30.0063C22.3738 30.0453 22.5312 29.9653 22.5918 29.8163C22.7753 29.3649 22.893 28.8902 22.9417 28.4057C22.9578 28.2456 22.856 28.1013 22.6997 28.0627Z" fill="#E6B400"/>
</svg>
