<svg width="21" height="15" viewBox="0 0 21 15" fill="none" xmlns="http://www.w3.org/2000/svg">
<path d="M17.0724 6.48763H1.81237C1.54387 6.48763 1.28637 6.59429 1.09652 6.78415C0.90666 6.974 0.8 7.2315 0.8 7.5C0.8 7.7685 0.90666 8.026 1.09652 8.21586C1.28637 8.40571 1.54387 8.51237 1.81237 8.51237H17.0724L13.1133 12.47L13.1133 12.47C12.9232 12.6601 12.8165 12.9178 12.8165 13.1866C12.8165 13.4554 12.9232 13.7131 13.1133 13.9032C13.3033 14.0932 13.5611 14.2 13.8299 14.2C14.0986 14.2 14.3564 14.0932 14.5465 13.9032L20.2329 8.21676L17.0724 6.48763ZM17.0724 6.48763L13.1133 2.53001L13.1133 2.52998C13.0192 2.43588 12.9445 2.32416 12.8936 2.20121C12.8427 2.07826 12.8165 1.94648 12.8165 1.8134C12.8165 1.68032 12.8427 1.54854 12.8936 1.42559C12.9445 1.30264 13.0192 1.19092 13.1133 1.09682C13.2074 1.00271 13.3191 0.928068 13.4421 0.877141L13.5186 1.06192L13.4421 0.87714C13.565 0.826212 13.6968 0.8 13.8299 0.8C13.963 0.8 14.0947 0.826212 14.2177 0.87714L14.1411 1.06192L14.2177 0.877141C14.3406 0.928068 14.4524 1.00271 14.5465 1.09682L20.2329 6.78324L17.0724 6.48763ZM20.453 7.11199C20.402 6.98908 20.3273 6.87742 20.2331 6.78342V8.21658C20.3273 8.12258 20.402 8.01093 20.453 7.88801C20.504 7.76502 20.5303 7.63316 20.5303 7.5C20.5303 7.36684 20.504 7.23498 20.453 7.11199Z" fill="black" stroke="black" stroke-width="0.4"/>
</svg>
