<svg width="36" height="36" viewBox="0 0 36 36" fill="none" xmlns="http://www.w3.org/2000/svg">
<path d="M32.6158 33.5525H3.67181C2.37581 33.5525 1.22381 32.4005 1.00781 30.7445C1.00781 30.6725 1.00781 30.5285 1.07981 30.4565C1.15181 30.3845 1.22381 30.3125 1.36781 30.3125H34.8478C34.9198 30.3125 35.0638 30.3845 35.1358 30.4565C35.2078 30.5285 35.2078 30.6725 35.2078 30.7445C35.0638 32.4005 33.9118 33.5525 32.6158 33.5525ZM1.79981 31.1045C2.08781 32.1125 2.80781 32.8325 3.67181 32.8325H32.5438C33.4078 32.8325 34.1278 32.1125 34.4158 31.1045H1.79981Z" fill="black"/>
<path d="M8.71009 31.1034H4.60609C4.39009 31.1034 4.24609 30.9594 4.24609 30.7434V13.8234C4.24609 12.8154 5.03809 12.0234 6.04609 12.0234H8.63809C8.85409 12.0234 8.99809 12.1674 8.99809 12.3834V30.6714C9.07009 30.9594 8.85409 31.1034 8.71009 31.1034ZM4.96609 30.3834H8.27809V12.8154H6.04609C5.47009 12.8154 4.96609 13.3194 4.96609 13.8954V30.3834Z" fill="black"/>
<path d="M31.6061 31.1004C31.3901 31.1004 31.2461 30.9564 31.2461 30.7404V16.8444C31.2461 16.6284 31.3901 16.4844 31.6061 16.4844C31.8221 16.4844 31.9661 16.6284 31.9661 16.8444V30.7404C31.9661 30.9564 31.8221 31.1004 31.6061 31.1004Z" fill="black"/>
<path d="M30.9588 12.9594C30.8868 12.9594 30.8148 12.9594 30.7428 12.8874C30.5988 12.8154 30.3828 12.7434 30.1668 12.7434H27.5748C27.3588 12.7434 27.2148 12.5994 27.2148 12.3834C27.2148 12.1674 27.3588 12.0234 27.5748 12.0234H30.2388C30.5268 12.0234 30.8868 12.0954 31.1748 12.3114C31.3188 12.3834 31.3908 12.5994 31.3188 12.8154C31.1748 12.9594 31.1028 12.9594 30.9588 12.9594Z" fill="black"/>
<path d="M26.566 32.3216H26.278C26.062 32.3216 25.918 32.1776 25.918 31.9616C25.918 31.7456 26.062 31.6016 26.278 31.6016H26.566C26.782 31.6016 26.926 31.7456 26.926 31.9616C26.926 32.1776 26.782 32.3216 26.566 32.3216Z" fill="black"/>
<path d="M29.8785 32.3216H29.5905C29.3745 32.3216 29.2305 32.1776 29.2305 31.9616C29.2305 31.7456 29.3745 31.6016 29.5905 31.6016H29.8785C30.0945 31.6016 30.2385 31.7456 30.2385 31.9616C30.2385 32.1776 30.0945 32.3216 29.8785 32.3216Z" fill="black"/>
<path d="M28.2925 32.3216H28.0045C27.7885 32.3216 27.6445 32.1776 27.6445 31.9616C27.6445 31.7456 27.7885 31.6016 28.0045 31.6016H28.2925C28.5085 31.6016 28.6525 31.7456 28.6525 31.9616C28.6525 32.1776 28.4365 32.3216 28.2925 32.3216Z" fill="black"/>
<path d="M27.5726 31.1013H8.70856C8.49256 31.1013 8.34856 30.9573 8.34856 30.7413V4.67731C8.34856 3.81331 7.62856 3.16531 6.83656 3.16531C6.62056 3.16531 6.47656 3.02131 6.47656 2.80531C6.47656 2.58931 6.62056 2.44531 6.83656 2.44531H25.7726C26.9966 2.44531 28.0046 3.45331 28.0046 4.74931V20.5173C28.0046 20.7333 27.8606 20.8773 27.6446 20.8773C27.4286 20.8773 27.2846 20.7333 27.2846 20.5173V4.67731C27.2846 3.81331 26.5646 3.09331 25.7726 3.09331H8.42056C8.78056 3.52531 8.99656 4.02931 8.99656 4.60531V30.3093H27.2126V26.2773C27.2126 26.0613 27.3566 25.9173 27.5726 25.9173C27.7886 25.9173 27.9326 26.0613 27.9326 26.2773V30.6693C27.9326 30.9573 27.7886 31.1013 27.5726 31.1013Z" fill="black"/>
<path d="M8.71375 10.4373H2.95375C2.73775 10.4373 2.59375 10.2933 2.59375 10.0773C2.59375 9.86131 2.73775 9.71731 2.95375 9.71731C3.81775 9.71731 4.46575 8.99731 4.46575 8.20531V6.11731V6.04531V4.67731C4.46575 3.45331 5.47375 2.44531 6.69775 2.44531C7.92175 2.44531 8.92975 3.45331 8.92975 4.67731V10.0773C9.07375 10.2933 8.85775 10.4373 8.71375 10.4373ZM4.60975 9.71731H8.28175V4.67731C8.28175 3.81331 7.56175 3.16531 6.76975 3.16531C5.90575 3.16531 5.25775 3.88531 5.25775 4.67731V5.97331V6.04531V8.20531C5.25775 8.78131 5.04175 9.28531 4.60975 9.71731Z" fill="black"/>
<path d="M2.95075 10.4367C1.72675 10.4367 0.71875 9.42875 0.71875 8.20475V5.82875C0.71875 5.61275 0.86275 5.46875 1.07875 5.46875H4.89475C5.11075 5.46875 5.25475 5.61275 5.25475 5.82875V8.13275C5.25475 9.42875 4.24675 10.4367 2.95075 10.4367ZM1.43875 6.18875V8.13275C1.43875 8.99675 2.15875 9.64475 2.95075 9.64475C3.74275 9.64475 4.46275 8.92475 4.46275 8.13275V6.18875H1.43875Z" fill="black"/>
<path d="M16.846 11.7306H10.942C10.726 11.7306 10.582 11.5866 10.582 11.3706V5.25062C10.582 5.03462 10.726 4.89062 10.942 4.89062H16.846C17.062 4.89062 17.206 5.03462 17.206 5.25062V11.4426C17.206 11.5866 16.99 11.7306 16.846 11.7306ZM11.302 11.0106H16.486V5.61062H11.302V11.0106Z" fill="#E6B400"/>
<path d="M25.3422 5.68875H18.9342C18.7182 5.68875 18.5742 5.54475 18.5742 5.32875C18.5742 5.11275 18.7182 4.96875 18.9342 4.96875H25.3422C25.5582 4.96875 25.7022 5.11275 25.7022 5.32875C25.7022 5.54475 25.5582 5.68875 25.3422 5.68875Z" fill="#E6B400"/>
<path d="M25.3422 7.70437H18.9342C18.7182 7.70437 18.5742 7.56037 18.5742 7.34437C18.5742 7.12837 18.7182 6.98438 18.9342 6.98438H25.3422C25.5582 6.98438 25.7022 7.12837 25.7022 7.34437C25.7022 7.56037 25.5582 7.70437 25.3422 7.70437Z" fill="#E6B400"/>
<path d="M25.3422 9.72H18.9342C18.7182 9.72 18.5742 9.576 18.5742 9.36C18.5742 9.144 18.7182 9 18.9342 9H25.3422C25.5582 9 25.7022 9.144 25.7022 9.36C25.7022 9.576 25.5582 9.72 25.3422 9.72Z" fill="#E6B400"/>
<path d="M25.3422 11.7356H18.9342C18.7182 11.7356 18.5742 11.5916 18.5742 11.3756C18.5742 11.1596 18.7182 11.0156 18.9342 11.0156H25.3422C25.5582 11.0156 25.7022 11.1596 25.7022 11.3756C25.7022 11.5916 25.5582 11.7356 25.3422 11.7356Z" fill="#E6B400"/>
<path d="M25.3407 13.8216H17.9967C17.7807 13.8216 17.6367 13.6776 17.6367 13.4616C17.6367 13.2456 17.7807 13.1016 17.9967 13.1016H25.3407C25.5567 13.1016 25.7007 13.2456 25.7007 13.4616C25.7007 13.6776 25.5567 13.8216 25.3407 13.8216Z" fill="#E6B400"/>
<path d="M25.3407 15.8372H17.9967C17.7807 15.8372 17.6367 15.6932 17.6367 15.4772C17.6367 15.2612 17.8527 15.1172 17.9967 15.1172H25.3407C25.5567 15.1172 25.7007 15.2612 25.7007 15.4772C25.7007 15.6932 25.5567 15.8372 25.3407 15.8372Z" fill="#E6B400"/>
<path d="M17.9997 13.8216H10.8717C10.6557 13.8216 10.5117 13.6776 10.5117 13.4616C10.5117 13.2456 10.6557 13.1016 10.8717 13.1016H17.9997C18.2157 13.1016 18.3597 13.2456 18.3597 13.4616C18.3597 13.6776 18.2157 13.8216 17.9997 13.8216Z" fill="#E6B400"/>
<path d="M17.9997 15.8372H10.8717C10.6557 15.8372 10.5117 15.6932 10.5117 15.4772C10.5117 15.2612 10.6557 15.1172 10.8717 15.1172H17.9997C18.2157 15.1172 18.3597 15.2612 18.3597 15.4772C18.3597 15.6932 18.2157 15.8372 17.9997 15.8372Z" fill="#E6B400"/>
<path d="M25.8462 27.8625C25.7022 27.8625 25.5582 27.7905 25.4862 27.6465L24.9102 26.1345C24.9102 26.0625 24.9102 25.9185 24.9102 25.8465L31.9662 9.43048C32.2542 8.71048 33.1902 8.35048 33.9102 8.63848C34.2702 8.78248 34.5582 9.07048 34.7022 9.43048C34.8462 9.79048 34.8462 10.2225 34.7022 10.5825L27.6462 26.9985C27.5742 27.0705 27.5022 27.1425 27.4302 27.2145L25.9182 27.8625H25.8462ZM25.6302 26.0625L26.0622 27.0705L27.0702 26.6385L34.0542 10.3665C34.1262 10.1505 34.1262 9.93448 34.0542 9.79048C33.9822 9.57448 33.8382 9.43048 33.6222 9.35848C33.2622 9.21448 32.7582 9.35848 32.6142 9.79048L25.6302 26.0625Z" fill="black"/>
<path d="M25.344 29.0162C25.272 29.0162 25.272 29.0162 25.2 29.0162C24.984 28.9442 24.912 28.7282 24.984 28.5122L25.488 27.3602C25.56 27.1442 25.776 27.0722 25.992 27.1442C26.208 27.2162 26.28 27.4322 26.208 27.6482L25.632 28.8002C25.632 28.9442 25.488 29.0162 25.344 29.0162Z" fill="black"/>
<path d="M33.2634 20.156C33.1914 20.156 33.1914 20.156 33.1194 20.156C32.8314 20.012 32.5434 19.796 32.3994 19.436C32.2554 19.076 32.2554 18.788 32.3994 18.428L34.4154 13.676C34.4874 13.46 34.4874 13.244 34.4154 12.956C34.3434 12.74 34.1274 12.596 33.9114 12.452L31.3914 11.372C31.1754 11.3 31.1034 11.084 31.1754 10.868C31.2474 10.652 31.4634 10.58 31.6794 10.652L34.1994 11.732C34.6314 11.876 34.9194 12.236 35.0634 12.596C35.2074 13.028 35.2074 13.46 35.0634 13.82L33.1194 18.716C33.0474 18.86 33.0474 19.004 33.1194 19.148C33.1914 19.292 33.2634 19.436 33.4074 19.436C33.6234 19.508 33.6954 19.724 33.6234 19.94C33.5514 20.084 33.4074 20.156 33.2634 20.156Z" fill="black"/>
<path d="M28.225 25.1969C28.153 25.1969 28.153 25.1969 28.081 25.1969L25.993 24.3329C25.777 24.2609 25.705 24.0449 25.777 23.8289C25.849 23.6129 26.065 23.5409 26.281 23.6129L28.369 24.4769C28.585 24.5489 28.657 24.7649 28.585 24.9809C28.513 25.1249 28.369 25.1969 28.225 25.1969Z" fill="black"/>
<path d="M19.079 28.5848C18.935 28.5848 18.791 28.5128 18.719 28.3688C18.503 27.9368 18.215 27.6488 17.855 27.6488C17.495 27.6488 17.207 27.9368 16.991 28.3688C16.919 28.5128 16.775 28.5848 16.559 28.5848C15.983 28.4408 15.407 28.2248 14.903 27.8648C14.759 27.7928 14.687 27.5768 14.759 27.4328C14.903 27.0008 14.903 26.5688 14.687 26.3528C14.471 26.2088 14.255 26.1368 14.111 26.1368C13.967 26.1368 13.751 26.1368 13.607 26.2088C13.463 26.2808 13.247 26.2088 13.175 26.0648C12.887 25.5608 12.671 24.9848 12.527 24.4088C12.455 24.2648 12.599 24.0488 12.743 23.9768C13.175 23.7608 13.391 23.4728 13.391 23.1848C13.391 22.8968 13.175 22.5368 12.743 22.3928C12.599 22.3208 12.527 22.1768 12.527 21.9608C12.671 21.3848 12.887 20.8088 13.175 20.3048C13.247 20.1608 13.463 20.0888 13.607 20.1608C13.751 20.2328 13.967 20.2328 14.111 20.2328C14.255 20.2328 14.543 20.2328 14.687 20.0168C14.903 19.8008 14.975 19.3688 14.759 18.9368C14.687 18.7928 14.759 18.5768 14.903 18.5048C15.407 18.1448 15.983 17.9288 16.559 17.7848C16.703 17.7128 16.919 17.8568 16.991 18.0008C17.207 18.4328 17.495 18.7208 17.855 18.7208C18.215 18.7208 18.575 18.4328 18.719 18.0008C18.791 17.8568 18.935 17.7848 19.151 17.7848C19.727 17.9288 20.303 18.1448 20.807 18.5048C20.951 18.5768 21.023 18.7928 20.951 18.9368C20.807 19.3688 20.807 19.8008 21.023 20.0168C21.167 20.1608 21.455 20.2328 21.599 20.2328C21.743 20.2328 21.959 20.2328 22.103 20.1608C22.247 20.0888 22.463 20.1608 22.535 20.3048C22.823 20.8088 23.111 21.3848 23.183 21.9608C23.255 22.1048 23.111 22.3208 22.967 22.3928C22.535 22.6088 22.319 22.8968 22.319 23.1848C22.319 23.4728 22.535 23.8328 22.967 23.9768C23.111 24.0488 23.183 24.1928 23.183 24.4088C23.039 24.9848 22.823 25.5608 22.535 26.0648C22.463 26.2088 22.247 26.2808 22.103 26.2088C21.959 26.1368 21.743 26.1368 21.599 26.1368C21.455 26.1368 21.167 26.2088 21.023 26.3528C20.807 26.5688 20.735 27.0008 20.951 27.4328C21.023 27.5768 20.951 27.7928 20.807 27.8648C20.303 28.2248 19.727 28.4408 19.151 28.5848C19.079 28.5848 19.079 28.5848 19.079 28.5848ZM15.551 27.4328C15.839 27.5768 16.199 27.7208 16.487 27.7928C16.847 27.2168 17.351 26.9288 17.855 26.9288C18.431 26.9288 18.935 27.2888 19.223 27.7928C19.583 27.7208 19.871 27.5768 20.159 27.4328C20.015 26.8568 20.159 26.2808 20.519 25.8488C20.879 25.4888 21.455 25.3448 22.031 25.4888C22.175 25.2008 22.319 24.9128 22.391 24.5528C21.887 24.1928 21.599 23.7608 21.599 23.1848C21.599 22.6808 21.887 22.1768 22.391 21.8888C22.319 21.6008 22.175 21.2408 22.031 20.9528C21.455 21.0968 20.879 20.9528 20.519 20.5928C20.159 20.1608 20.015 19.5848 20.159 19.0088C19.871 18.8648 19.583 18.7208 19.223 18.6488C18.863 19.2248 18.359 19.5128 17.855 19.5128C17.279 19.5128 16.775 19.1528 16.487 18.6488C16.127 18.7208 15.839 18.8648 15.551 19.0088C15.695 19.6568 15.551 20.1608 15.191 20.5928C14.831 20.9528 14.255 21.0968 13.607 20.9528C13.463 21.2408 13.319 21.5288 13.247 21.8888C13.751 22.1768 14.039 22.6808 14.039 23.2568C14.039 23.7608 13.751 24.2648 13.247 24.6248C13.319 24.9128 13.463 25.2728 13.607 25.5608C14.183 25.4168 14.759 25.5608 15.191 25.9208C15.551 26.2088 15.695 26.7848 15.551 27.4328Z" fill="#E6B400"/>
<path d="M17.8515 25.8436C16.4115 25.8436 15.1875 24.6916 15.1875 23.1796C15.1875 21.7396 16.3395 20.5156 17.8515 20.5156C19.3635 20.5156 20.5155 21.6676 20.5155 23.1796C20.5155 24.6196 19.2915 25.8436 17.8515 25.8436ZM17.8515 21.3076C16.7715 21.3076 15.9075 22.1716 15.9075 23.2516C15.9075 24.3316 16.7715 25.1956 17.8515 25.1956C18.9315 25.1956 19.7955 24.3316 19.7955 23.2516C19.7955 22.1716 18.9315 21.3076 17.8515 21.3076Z" fill="#E6B400"/>
</svg>
