<svg width="52" height="52" viewBox="0 0 52 52" fill="none" xmlns="http://www.w3.org/2000/svg">
<g clip-path="url(#clip0_1091_294945)">
<path d="M50.375 0.8125H30.875C30.4257 0.8125 30.0625 1.1765 30.0625 1.625V27.625C30.0625 28.0735 30.4257 28.4375 30.875 28.4375H50.375C50.8243 28.4375 51.1875 28.0735 51.1875 27.625V1.625C51.1875 1.1765 50.8243 0.8125 50.375 0.8125ZM49.5625 26.8125H31.6875V2.4375H49.5625V26.8125Z" fill="white"/>
<path d="M48.75 30.875H27.625C26.2811 30.875 25.1875 31.9686 25.1875 33.3125V48.75C25.1875 50.0939 26.2811 51.1875 27.625 51.1875H48.75C50.0939 51.1875 51.1875 50.0939 51.1875 48.75V33.3125C51.1875 31.9686 50.0939 30.875 48.75 30.875ZM49.5625 48.75C49.5625 49.1977 49.1985 49.5625 48.75 49.5625H27.625C27.1765 49.5625 26.8125 49.1977 26.8125 48.75V33.3125C26.8125 32.8648 27.1765 32.5 27.625 32.5H48.75C49.1985 32.5 49.5625 32.8648 49.5625 33.3125V48.75Z" fill="white"/>
<path d="M46.3143 45.5H44.6893C44.6893 45.0515 44.3261 44.6875 43.8768 44.6875C43.4275 44.6875 43.0643 45.0515 43.0643 45.5H30.0643C28.9886 45.5 28.9894 47.125 30.0643 47.125H43.0643C43.0643 47.5735 43.4275 47.9375 43.8768 47.9375C44.3261 47.9375 44.6893 47.5735 44.6893 47.125H46.3143C47.3901 47.125 47.3893 45.5 46.3143 45.5Z" fill="#E6B400"/>
<path d="M26.8125 25.1875V5.6875C26.8125 4.34362 25.7189 3.25 24.375 3.25H3.25C1.90612 3.25 0.8125 4.34362 0.8125 5.6875V25.1875C0.8125 26.5314 1.90612 27.625 3.25 27.625H24.375C25.7189 27.625 26.8125 26.5314 26.8125 25.1875ZM25.1875 25.1875C25.1875 25.6352 24.8235 26 24.375 26H3.25C2.8015 26 2.4375 25.6352 2.4375 25.1875V5.6875C2.4375 5.23981 2.8015 4.875 3.25 4.875H24.375C24.8235 4.875 25.1875 5.23981 25.1875 5.6875V25.1875Z" fill="white"/>
<path d="M17.0625 13.8125C18.8549 13.8125 20.3125 12.3549 20.3125 10.5625C20.3125 8.77012 18.8549 7.3125 17.0625 7.3125C15.2701 7.3125 13.8125 8.77012 13.8125 10.5625C13.8125 12.3549 15.2701 13.8125 17.0625 13.8125ZM17.0625 8.9375C17.9587 8.9375 18.6875 9.66631 18.6875 10.5625C18.6875 11.4587 17.9587 12.1875 17.0625 12.1875C16.1663 12.1875 15.4375 11.4587 15.4375 10.5625C15.4375 9.66631 16.1663 8.9375 17.0625 8.9375Z" fill="#E6B400"/>
<path d="M20.0742 16.4883C19.7566 16.1706 19.2431 16.1706 18.9254 16.4883L16.2498 19.1638L11.1367 14.0508C10.8191 13.7331 10.3056 13.7331 9.98787 14.0508L4.30037 19.7383C3.53987 20.4988 4.68956 21.6468 5.44925 20.8871L10.5623 15.7741L15.6754 20.8871C15.9931 21.2048 16.5066 21.2048 16.8242 20.8871L19.4998 18.2116L22.1754 20.8871C22.9245 21.6363 24.0945 20.5077 23.3242 19.7383L20.0742 16.4883Z" fill="#E6B400"/>
<path d="M34.9393 6.5H43.0643C44.1401 6.5 44.1393 4.875 43.0643 4.875H34.9393C33.8636 4.875 33.8644 6.5 34.9393 6.5Z" fill="#E6B400"/>
<path d="M34.9393 13.8125H46.3143C47.3901 13.8125 47.3893 12.1875 46.3143 12.1875H34.9393C33.8636 12.1875 33.8644 13.8125 34.9393 13.8125Z" fill="white"/>
<path d="M34.9393 21.125H46.3143C47.3901 21.125 47.3893 19.5 46.3143 19.5H34.9393C33.8636 19.5 33.8644 21.125 34.9393 21.125Z" fill="white"/>
<path d="M34.9393 24.375H39.0018C40.0776 24.375 40.0768 22.75 39.0018 22.75H34.9393C33.8636 22.75 33.8644 24.375 34.9393 24.375Z" fill="#E6B400"/>
<path d="M34.9393 10.5625H36.5643C37.6401 10.5625 37.6393 8.9375 36.5643 8.9375H34.9393C33.8636 8.9375 33.8644 10.5625 34.9393 10.5625Z" fill="#E6B400"/>
<path d="M40.6268 10.5625H46.3143C47.3901 10.5625 47.3893 8.9375 46.3143 8.9375H40.6268C39.5511 8.9375 39.5519 10.5625 40.6268 10.5625Z" fill="#E6B400"/>
<path d="M34.9393 17.875H40.6268C41.7026 17.875 41.7018 16.25 40.6268 16.25H34.9393C33.8636 16.25 33.8644 17.875 34.9393 17.875Z" fill="white"/>
<path d="M46.3143 16.25H44.6893C43.6136 16.25 43.6144 17.875 44.6893 17.875H46.3143C47.3901 17.875 47.3893 16.25 46.3143 16.25Z" fill="white"/>
<path d="M12.1875 30.0625C5.915 30.0625 0.8125 34.0722 0.8125 39C0.8125 41.0061 1.67538 42.9601 3.25 44.5364V50.375C3.25 51.103 4.12994 51.4564 4.63694 50.9494L8.21112 47.3752C9.46562 47.749 10.8014 47.9375 12.1875 47.9375C18.46 47.9375 23.5625 43.9278 23.5625 39C23.5625 34.0722 18.46 30.0625 12.1875 30.0625ZM12.1875 46.3125C10.7989 46.3125 9.47456 46.1004 8.24931 45.682C7.95762 45.5812 7.631 45.656 7.41244 45.8762L4.875 48.4136V44.1919C4.875 43.966 4.78156 43.7507 4.61663 43.5971C3.19069 42.2711 2.4375 40.6811 2.4375 39C2.4375 34.9684 6.81119 31.6875 12.1875 31.6875C17.5638 31.6875 21.9375 34.9684 21.9375 39C21.9375 43.0316 17.5638 46.3125 12.1875 46.3125Z" fill="white"/>
<path d="M12.1875 40.2188C12.8606 40.2188 13.4062 39.6731 13.4062 39C13.4062 38.3269 12.8606 37.7812 12.1875 37.7812C11.5144 37.7812 10.9688 38.3269 10.9688 39C10.9688 39.6731 11.5144 40.2188 12.1875 40.2188Z" fill="#E6B400"/>
<path d="M17.875 40.2188C18.5481 40.2188 19.0938 39.6731 19.0938 39C19.0938 38.3269 18.5481 37.7812 17.875 37.7812C17.2019 37.7812 16.6562 38.3269 16.6562 39C16.6562 39.6731 17.2019 40.2188 17.875 40.2188Z" fill="#E6B400"/>
<path d="M6.5 40.2188C7.1731 40.2188 7.71875 39.6731 7.71875 39C7.71875 38.3269 7.1731 37.7812 6.5 37.7812C5.8269 37.7812 5.28125 38.3269 5.28125 39C5.28125 39.6731 5.8269 40.2188 6.5 40.2188Z" fill="#E6B400"/>
<path d="M36.7754 43.6421L42.1761 40.5302C43.3526 39.8534 43.3526 38.1496 42.1761 37.4719L36.7762 34.3617C35.6029 33.6824 34.125 34.5347 34.125 35.89V42.1121C34.125 43.4852 35.6159 44.3075 36.7754 43.6421ZM35.75 35.89C35.75 35.7852 35.8686 35.7137 35.9645 35.7697L41.3652 38.8808C41.4578 38.9344 41.4578 39.0685 41.3652 39.1221L35.9653 42.2332C35.8694 42.2868 35.75 42.221 35.75 42.1129V35.89Z" fill="#E6B400"/>
</g>
<defs>
<clipPath id="clip0_1091_294945">
<rect width="52" height="52" fill="white"/>
</clipPath>
</defs>
</svg>
