<svg width="36" height="36" viewBox="0 0 36 36" fill="none" xmlns="http://www.w3.org/2000/svg">
<g clip-path="url(#clip0_1091_307937)">
<path d="M34.875 0.5625H21.375C21.0639 0.5625 20.8125 0.8145 20.8125 1.125V19.125C20.8125 19.4355 21.0639 19.6875 21.375 19.6875H34.875C35.1861 19.6875 35.4375 19.4355 35.4375 19.125V1.125C35.4375 0.8145 35.1861 0.5625 34.875 0.5625ZM34.3125 18.5625H21.9375V1.6875H34.3125V18.5625Z" fill="black"/>
<path d="M33.75 21.375H19.125C18.1946 21.375 17.4375 22.1321 17.4375 23.0625V33.75C17.4375 34.6804 18.1946 35.4375 19.125 35.4375H33.75C34.6804 35.4375 35.4375 34.6804 35.4375 33.75V23.0625C35.4375 22.1321 34.6804 21.375 33.75 21.375ZM34.3125 33.75C34.3125 34.0599 34.0605 34.3125 33.75 34.3125H19.125C18.8145 34.3125 18.5625 34.0599 18.5625 33.75V23.0625C18.5625 22.7526 18.8145 22.5 19.125 22.5H33.75C34.0605 22.5 34.3125 22.7526 34.3125 23.0625V33.75Z" fill="black"/>
<path d="M32.0623 31.5H30.9373C30.9373 31.1895 30.6858 30.9375 30.3748 30.9375C30.0637 30.9375 29.8123 31.1895 29.8123 31.5H20.8123C20.0675 31.5 20.0681 32.625 20.8123 32.625H29.8123C29.8123 32.9355 30.0637 33.1875 30.3748 33.1875C30.6858 33.1875 30.9373 32.9355 30.9373 32.625H32.0623C32.807 32.625 32.8064 31.5 32.0623 31.5Z" fill="#E6B400"/>
<path d="M18.5625 17.4375V3.9375C18.5625 3.00712 17.8054 2.25 16.875 2.25H2.25C1.31962 2.25 0.5625 3.00712 0.5625 3.9375V17.4375C0.5625 18.3679 1.31962 19.125 2.25 19.125H16.875C17.8054 19.125 18.5625 18.3679 18.5625 17.4375ZM17.4375 17.4375C17.4375 17.7474 17.1855 18 16.875 18H2.25C1.9395 18 1.6875 17.7474 1.6875 17.4375V3.9375C1.6875 3.62756 1.9395 3.375 2.25 3.375H16.875C17.1855 3.375 17.4375 3.62756 17.4375 3.9375V17.4375Z" fill="black"/>
<path d="M11.8125 9.5625C13.0534 9.5625 14.0625 8.55338 14.0625 7.3125C14.0625 6.07162 13.0534 5.0625 11.8125 5.0625C10.5716 5.0625 9.5625 6.07162 9.5625 7.3125C9.5625 8.55338 10.5716 9.5625 11.8125 9.5625ZM11.8125 6.1875C12.4329 6.1875 12.9375 6.69206 12.9375 7.3125C12.9375 7.93294 12.4329 8.4375 11.8125 8.4375C11.1921 8.4375 10.6875 7.93294 10.6875 7.3125C10.6875 6.69206 11.1921 6.1875 11.8125 6.1875Z" fill="#E6B400"/>
<path d="M13.8979 11.415C13.6779 11.195 13.3224 11.195 13.1025 11.415L11.2502 13.2673L7.71036 9.72745C7.49042 9.50752 7.13492 9.50752 6.91498 9.72745L2.97748 13.665C2.45098 14.1915 3.24692 14.9863 3.77286 14.4603L7.31267 10.9205L10.8525 14.4603C11.0724 14.6803 11.4279 14.6803 11.6479 14.4603L13.5002 12.608L15.3525 14.4603C15.8711 14.979 16.6811 14.1976 16.1479 13.665L13.8979 11.415Z" fill="#E6B400"/>
<path d="M24.1873 4.5H29.8123C30.557 4.5 30.5564 3.375 29.8123 3.375H24.1873C23.4425 3.375 23.4431 4.5 24.1873 4.5Z" fill="#E6B400"/>
<path d="M24.1873 9.5625H32.0623C32.807 9.5625 32.8064 8.4375 32.0623 8.4375H24.1873C23.4425 8.4375 23.4431 9.5625 24.1873 9.5625Z" fill="black"/>
<path d="M24.1873 14.625H32.0623C32.807 14.625 32.8064 13.5 32.0623 13.5H24.1873C23.4425 13.5 23.4431 14.625 24.1873 14.625Z" fill="black"/>
<path d="M24.1873 16.875H26.9998C27.7445 16.875 27.7439 15.75 26.9998 15.75H24.1873C23.4425 15.75 23.4431 16.875 24.1873 16.875Z" fill="#E6B400"/>
<path d="M24.1873 7.3125H25.3123C26.057 7.3125 26.0564 6.1875 25.3123 6.1875H24.1873C23.4425 6.1875 23.4431 7.3125 24.1873 7.3125Z" fill="#E6B400"/>
<path d="M28.1248 7.3125H32.0623C32.807 7.3125 32.8064 6.1875 32.0623 6.1875H28.1248C27.38 6.1875 27.3806 7.3125 28.1248 7.3125Z" fill="#E6B400"/>
<path d="M24.1873 12.375H28.1248C28.8695 12.375 28.8689 11.25 28.1248 11.25H24.1873C23.4425 11.25 23.4431 12.375 24.1873 12.375Z" fill="black"/>
<path d="M32.0623 11.25H30.9373C30.1925 11.25 30.1931 12.375 30.9373 12.375H32.0623C32.807 12.375 32.8064 11.25 32.0623 11.25Z" fill="black"/>
<path d="M8.4375 20.8125C4.095 20.8125 0.5625 23.5884 0.5625 27C0.5625 28.3888 1.15988 29.7416 2.25 30.8329V34.875C2.25 35.379 2.85919 35.6237 3.21019 35.2727L5.68463 32.7982C6.55312 33.057 7.47788 33.1875 8.4375 33.1875C12.78 33.1875 16.3125 30.4116 16.3125 27C16.3125 23.5884 12.78 20.8125 8.4375 20.8125ZM8.4375 32.0625C7.47619 32.0625 6.55931 31.9157 5.71106 31.626C5.50912 31.5562 5.283 31.608 5.13169 31.7604L3.375 33.5171V30.5944C3.375 30.438 3.31031 30.2889 3.19613 30.1826C2.20894 29.2646 1.6875 28.1638 1.6875 27C1.6875 24.2089 4.71544 21.9375 8.4375 21.9375C12.1596 21.9375 15.1875 24.2089 15.1875 27C15.1875 29.7911 12.1596 32.0625 8.4375 32.0625Z" fill="black"/>
<path d="M8.4375 27.8438C8.90349 27.8438 9.28125 27.466 9.28125 27C9.28125 26.534 8.90349 26.1562 8.4375 26.1562C7.97151 26.1562 7.59375 26.534 7.59375 27C7.59375 27.466 7.97151 27.8438 8.4375 27.8438Z" fill="#E6B400"/>
<path d="M12.375 27.8438C12.841 27.8438 13.2188 27.466 13.2188 27C13.2188 26.534 12.841 26.1562 12.375 26.1562C11.909 26.1562 11.5312 26.534 11.5312 27C11.5312 27.466 11.909 27.8438 12.375 27.8438Z" fill="#E6B400"/>
<path d="M4.5 27.8438C4.96599 27.8438 5.34375 27.466 5.34375 27C5.34375 26.534 4.96599 26.1562 4.5 26.1562C4.03401 26.1562 3.65625 26.534 3.65625 27C3.65625 27.466 4.03401 27.8438 4.5 27.8438Z" fill="#E6B400"/>
<path d="M25.4599 30.2151L29.1988 28.0607C30.0133 27.5921 30.0133 26.4126 29.1988 25.9435L25.4604 23.7902C24.6482 23.32 23.625 23.91 23.625 24.8483V29.1559C23.625 30.1065 24.6572 30.6758 25.4599 30.2151ZM24.75 24.8483C24.75 24.7757 24.8321 24.7262 24.8985 24.765L28.6374 26.9188C28.7016 26.956 28.7016 27.0488 28.6374 27.0859L24.8991 29.2397C24.8327 29.2768 24.75 29.2313 24.75 29.1565V24.8483Z" fill="#E6B400"/>
</g>
<defs>
<clipPath id="clip0_1091_307937">
<rect width="36" height="36" fill="white"/>
</clipPath>
</defs>
</svg>
