<svg width="52" height="52" viewBox="0 0 52 52" fill="none" xmlns="http://www.w3.org/2000/svg">
<path d="M35.6737 50.9844H16.3346C13.5503 50.9844 11.2852 48.7192 11.2852 45.9349V34.248H12.5039V45.9349C12.5039 48.0472 14.2223 49.7656 16.3346 49.7656H35.6737C37.786 49.7656 39.5044 48.0472 39.5044 45.9349V35.8559H40.7231V45.9349C40.723 48.7192 38.4579 50.9844 35.6737 50.9844ZM40.723 22.6891H39.5043V6.06511C39.5043 3.95281 37.7859 2.23438 35.6736 2.23438H16.3346C14.2223 2.23438 12.5039 3.95281 12.5039 6.06511V21.509H11.2852V6.06511C11.2852 3.28077 13.5504 1.01562 16.3346 1.01562H35.6737C38.458 1.01562 40.7231 3.28087 40.7231 6.06511L40.723 22.6891Z" fill="#E6B400"/>
<path d="M28.4625 47.2217H24.2539C23.9174 47.2217 23.6445 46.9488 23.6445 46.6123C23.6445 46.2758 23.9174 46.0029 24.2539 46.0029H28.4625C28.7989 46.0029 29.0718 46.2758 29.0718 46.6123C29.0718 46.9488 28.799 47.2217 28.4625 47.2217Z" fill="#E6B400"/>
<path d="M16.865 38.9454C16.7263 38.9454 16.589 38.8981 16.4778 38.8066L11.6721 34.8543H4.22114C2.45365 34.8543 1.01562 33.4163 1.01562 31.6488V24.102C1.01562 22.3345 2.45365 20.8965 4.22114 20.8965H19.0608C20.8283 20.8965 22.2664 22.3345 22.2664 24.102V31.6488C22.2664 33.4163 20.8283 34.8543 19.0608 34.8543H17.4742V38.336C17.4742 38.5717 17.3382 38.7863 17.1251 38.887C17.0421 38.9262 16.9532 38.9454 16.865 38.9454ZM4.22114 22.1154C3.12559 22.1154 2.23437 23.0066 2.23437 24.1022V31.649C2.23437 32.7445 3.12559 33.6358 4.22114 33.6358H11.8904C12.0316 33.6358 12.1684 33.6848 12.2775 33.7745L16.2555 37.046V34.2451C16.2555 33.9087 16.5284 33.6358 16.8649 33.6358H19.0608C20.1564 33.6358 21.0476 32.7446 21.0476 31.649V24.1022C21.0476 23.0067 20.1564 22.1154 19.0608 22.1154H4.22114Z" fill="white"/>
<path d="M25.0258 15.2732C24.7993 15.2732 24.573 15.2137 24.3667 15.0946C23.9537 14.8561 23.707 14.4283 23.707 13.9503V10.1793C23.707 9.70128 23.9536 9.2735 24.3667 9.03503C24.7797 8.79656 25.2735 8.79697 25.6875 9.03594L28.9532 10.9214C29.3673 11.1604 29.6144 11.5878 29.6144 12.0647C29.6144 12.5417 29.3672 12.9692 28.9532 13.2082L25.6875 15.0936C25.4802 15.2133 25.2529 15.2732 25.0258 15.2732ZM25.0264 10.076C25.0116 10.076 24.9946 10.0797 24.9761 10.0905C24.9258 10.1195 24.9258 10.1645 24.9258 10.1793V13.9503C24.9258 13.9651 24.9258 14.0101 24.9761 14.0391C25.0262 14.0682 25.0652 14.0456 25.0781 14.0382L28.3439 12.1528C28.3567 12.1454 28.3958 12.1229 28.3958 12.0648C28.3958 12.0069 28.3568 11.9843 28.3439 11.9769L25.0781 10.0915C25.07 10.0867 25.0516 10.076 25.0264 10.076Z" fill="white"/>
<path d="M32.61 18.8626H19.3828C17.9268 18.8626 16.7422 17.678 16.7422 16.222V7.90137C16.7422 6.44537 17.9268 5.26074 19.3828 5.26074H32.61C34.066 5.26074 35.2506 6.44537 35.2506 7.90137V16.2221C35.2506 17.6781 34.066 18.8626 32.61 18.8626ZM19.3828 6.47949C18.5988 6.47949 17.9609 7.1173 17.9609 7.90137V16.2221C17.9609 17.006 18.5988 17.644 19.3828 17.644H32.61C33.3941 17.644 34.0319 17.0061 34.0319 16.2221V7.90137C34.0319 7.1173 33.3941 6.47949 32.61 6.47949H19.3828Z" fill="white"/>
<path d="M11.8878 31.3476H5.33604C4.99956 31.3476 4.72666 31.0747 4.72666 30.7382C4.72666 30.4017 4.99956 30.1288 5.33604 30.1288H11.8878C12.2243 30.1288 12.4972 30.4017 12.4972 30.7382C12.4972 31.0747 12.2243 31.3476 11.8878 31.3476ZM17.9408 28.4912H5.33594C4.99946 28.4912 4.72656 28.2183 4.72656 27.8818C4.72656 27.5454 4.99946 27.2725 5.33594 27.2725H17.9408C18.2772 27.2725 18.5501 27.5454 18.5501 27.8818C18.5501 28.2183 18.2773 28.4912 17.9408 28.4912ZM17.9408 25.6348H5.33594C4.99946 25.6348 4.72656 25.3619 4.72656 25.0254C4.72656 24.6889 4.99946 24.416 5.33594 24.416H17.9408C18.2772 24.416 18.5501 24.6889 18.5501 25.0254C18.5501 25.3619 18.2773 25.6348 17.9408 25.6348Z" fill="white"/>
<path d="M32.7278 42.8773C32.1264 42.8773 31.5407 42.5655 31.219 42.0082L28.457 37.2245L29.5126 36.6151L32.2745 41.3989C32.4179 41.6472 32.7366 41.7328 32.9851 41.5893C33.2335 41.4459 33.3189 41.1271 33.1755 40.8787L30.7163 36.6191L31.7718 36.0098L34.2311 40.2693C34.7104 41.0997 34.4249 42.1653 33.5946 42.6447C33.3213 42.8025 33.0227 42.8773 32.7278 42.8773Z" fill="white"/>
<path d="M27.8444 37.7419C26.4253 37.7419 25.1484 36.7773 24.7491 35.2874C24.273 33.5106 25.2514 31.7567 26.9763 31.2946C27.4744 31.1612 27.9808 31.0339 28.4704 30.9108C29.4367 30.6679 30.4359 30.4168 31.3919 30.1122C36.7384 28.4088 38.7291 25.2207 39.2119 24.2842L40.2951 24.8426C38.8615 27.6238 35.6715 30.0278 31.7618 31.2734C30.7697 31.5895 29.7518 31.8453 28.7675 32.0927C28.2823 32.2147 27.7806 32.3408 27.2917 32.4717C26.2269 32.757 25.6271 33.8552 25.9263 34.9718C26.2255 36.0884 27.294 36.7396 28.3589 36.4543C28.8479 36.3232 29.3457 36.1815 29.827 36.0445C30.803 35.7666 31.8123 35.4794 32.8294 35.2571C36.8382 34.381 40.8027 34.8679 43.4349 36.5597L42.776 37.585C41.8897 37.0153 38.5717 35.2498 33.0896 36.4477C32.1096 36.6619 31.1188 36.9439 30.1607 37.2167C29.6749 37.3551 29.1726 37.4981 28.6744 37.6315C28.396 37.7062 28.1175 37.7419 27.8444 37.7419Z" fill="white"/>
<path d="M44.1363 32.5501L43.5176 31.5L44.9133 30.6776L44.5184 29.2038L42.8984 29.1894L42.9092 27.9707L44.9925 27.9892C45.2663 27.9915 45.5047 28.1763 45.5756 28.4407L46.2104 30.8097C46.2813 31.0741 46.167 31.3534 45.9311 31.4925L44.1363 32.5501Z" fill="white"/>
<path d="M44.2626 39.138C43.983 39.138 43.7065 39.0645 43.4572 38.9205C43.0834 38.7046 42.8162 38.3572 42.705 37.942L38.9731 24.0144C38.7429 23.1553 39.2547 22.269 40.1138 22.0387C40.529 21.9275 40.9634 21.9851 41.3373 22.2009C41.7111 22.4168 41.9783 22.7642 42.0895 23.1793L45.8214 37.107C46.0515 37.9661 45.5399 38.8523 44.6807 39.0825C44.5425 39.1197 44.4021 39.138 44.2626 39.138ZM40.5299 23.2027C40.4962 23.2027 40.4624 23.2071 40.4292 23.216C40.2227 23.2714 40.095 23.4926 40.1503 23.6991L43.8822 37.6266C43.9093 37.7273 43.9747 37.812 44.0666 37.865C44.1585 37.9181 44.2645 37.9326 44.3653 37.9054C44.5718 37.8501 44.6995 37.6289 44.6442 37.4224L40.9123 23.4948C40.8852 23.3942 40.8197 23.3095 40.7279 23.2565C40.6663 23.2209 40.5983 23.2027 40.5299 23.2027Z" fill="white"/>
<path d="M49.6501 34.5361C49.5467 34.5361 49.442 34.5098 49.3461 34.4544L46.9443 33.0677C46.6528 32.8994 46.553 32.5267 46.7213 32.2353C46.8895 31.9439 47.2622 31.844 47.5537 32.0123L49.9554 33.3989C50.2469 33.5672 50.3468 33.94 50.1785 34.2313C50.0656 34.4268 49.8608 34.5361 49.6501 34.5361ZM47.696 29.7506C47.4269 29.7506 47.1807 29.571 47.1077 29.2988C47.0206 28.9737 47.2136 28.6395 47.5387 28.5525L50.2175 27.8347C50.5423 27.7474 50.8766 27.9406 50.9638 28.2657C51.0509 28.5908 50.8579 28.9249 50.5328 29.0119L47.854 29.7297C47.8013 29.7439 47.7482 29.7506 47.696 29.7506ZM45.609 27.0309C45.5056 27.0309 45.4008 27.0046 45.3048 26.9491C45.0133 26.7808 44.9135 26.4081 45.0818 26.1167L46.4684 23.7149C46.6367 23.4235 47.0094 23.3236 47.3008 23.4919C47.5923 23.6602 47.6921 24.0329 47.5238 24.3243L46.1372 26.7261C46.0244 26.9216 45.8195 27.0309 45.609 27.0309Z" fill="white"/>
<path d="M30.9961 30.8496L32.1734 30.534L33.5569 35.694L32.3796 36.0097L30.9961 30.8496Z" fill="white"/>
</svg>
