<svg width="36" height="36" viewBox="0 0 36 36" fill="none" xmlns="http://www.w3.org/2000/svg">
<path d="M33.75 6.1875H2.25C2.10082 6.1875 1.95774 6.24676 1.85225 6.35225C1.74676 6.45774 1.6875 6.60082 1.6875 6.75V29.25C1.6875 29.3992 1.74676 29.5423 1.85225 29.6477C1.95774 29.7532 2.10082 29.8125 2.25 29.8125H16.3125V30.9881H6.75C6.60082 30.9881 6.45774 31.0474 6.35225 31.1529C6.24676 31.2584 6.1875 31.4014 6.1875 31.5506V33.75C6.1875 33.8992 6.24676 34.0423 6.35225 34.1477C6.45774 34.2532 6.60082 34.3125 6.75 34.3125H29.25C29.3992 34.3125 29.5423 34.2532 29.6477 34.1477C29.7532 34.0423 29.8125 33.8992 29.8125 33.75V31.5506C29.8125 31.4014 29.7532 31.2584 29.6477 31.1529C29.5423 31.0474 29.3992 30.9881 29.25 30.9881H19.6875V29.8125H33.75C33.8992 29.8125 34.0423 29.7532 34.1477 29.6477C34.2532 29.5423 34.3125 29.3992 34.3125 29.25V6.75C34.3125 6.60082 34.2532 6.45774 34.1477 6.35225C34.0423 6.24676 33.8992 6.1875 33.75 6.1875ZM2.8125 7.3125H33.1875V25.6275H2.8125V7.3125ZM28.6875 33.1875H7.3125V32.1131H28.6875V33.1875ZM18.5625 30.9881H17.4375V29.8125H18.5625V30.9881ZM33.1875 28.6875H2.8125V26.7525H33.1875V28.6875Z" fill="black"/>
<path d="M24.7489 19.7281C24.3363 19.7286 23.9347 19.8617 23.6035 20.1078C23.2723 20.3539 23.029 20.7 22.9095 21.095H15.7489C15.6231 20.6802 15.3616 20.3197 15.0064 20.0713L15.372 18.9463H23.5114C23.6384 18.9506 23.7631 18.9118 23.8653 18.8363C23.9674 18.7607 24.0409 18.6527 24.0739 18.53L25.6489 12.8375C25.6729 12.7522 25.6764 12.6624 25.6591 12.5755C25.6418 12.4885 25.6042 12.4069 25.5493 12.3373C25.4945 12.2676 25.424 12.2119 25.3435 12.1747C25.2631 12.1375 25.175 12.1198 25.0864 12.1231H15.5239C15.3747 12.1231 15.2316 12.1824 15.1262 12.2879C15.0207 12.3934 14.9614 12.5365 14.9614 12.6856C14.9614 12.8348 15.0207 12.9779 15.1262 13.0834C15.2316 13.1889 15.3747 13.2481 15.5239 13.2481H24.3439L23.0614 17.8044H15.4114L13.3358 10.2838C13.3028 10.1611 13.2293 10.0531 13.1271 9.97753C13.025 9.90194 12.9003 9.86317 12.7733 9.86752H9.91016C9.76097 9.86752 9.6179 9.92678 9.51241 10.0323C9.40692 10.1378 9.34766 10.2808 9.34766 10.43C9.34766 10.5792 9.40692 10.7223 9.51241 10.8278C9.6179 10.9333 9.76097 10.9925 9.91016 10.9925H12.3739L14.3989 18.35L13.9545 19.7281C13.5936 19.7172 13.2367 19.8075 12.9244 19.9889C12.6121 20.1702 12.3568 20.4353 12.1873 20.7542C12.0179 21.0731 11.941 21.4331 11.9655 21.7934C11.9899 22.1537 12.1148 22.4999 12.3258 22.793C12.5368 23.086 12.8256 23.3142 13.1596 23.4516C13.4935 23.5891 13.8593 23.6303 14.2155 23.5707C14.5716 23.5111 14.904 23.353 15.175 23.1143C15.446 22.8756 15.6448 22.5658 15.7489 22.22H22.8814C22.9853 22.5609 23.1816 22.8664 23.4486 23.1025C23.7155 23.3386 24.0426 23.4962 24.3936 23.5578C24.7447 23.6193 25.1059 23.5825 25.4372 23.4513C25.7686 23.3201 26.0571 23.0996 26.2708 22.8145C26.4846 22.5293 26.6151 22.1905 26.6481 21.8356C26.681 21.4808 26.615 21.1237 26.4573 20.8041C26.2997 20.4844 26.0567 20.2147 25.7551 20.0248C25.4535 19.8349 25.1053 19.7322 24.7489 19.7281ZM13.9264 22.4956C13.8081 22.4975 13.6908 22.4734 13.5828 22.4251C13.4748 22.3768 13.3787 22.3054 13.3012 22.216C13.2238 22.1265 13.1669 22.0212 13.1345 21.9074C13.1021 21.7936 13.0951 21.674 13.1139 21.5572C13.1326 21.4404 13.1768 21.3291 13.2432 21.2312C13.3096 21.1332 13.3966 21.051 13.4982 20.9904C13.5998 20.9297 13.7134 20.892 13.8311 20.88C13.9489 20.8679 14.0678 20.8818 14.1795 20.9206C14.3423 20.972 14.4846 21.0738 14.5857 21.2113C14.6868 21.3488 14.7416 21.5149 14.742 21.6856C14.7405 21.901 14.654 22.107 14.5012 22.2587C14.3484 22.4105 14.1418 22.4956 13.9264 22.4956ZM24.7489 22.4956C24.6372 22.505 24.5249 22.491 24.4188 22.4547C24.3128 22.4184 24.2155 22.3604 24.1331 22.2846C24.0506 22.2087 23.9848 22.1166 23.9397 22.014C23.8947 21.9113 23.8715 21.8005 23.8715 21.6885C23.8715 21.5764 23.8947 21.4656 23.9397 21.363C23.9848 21.2603 24.0506 21.1682 24.1331 21.0923C24.2155 21.0165 24.3128 20.9585 24.4188 20.9222C24.5249 20.8859 24.6372 20.8719 24.7489 20.8813C24.9514 20.8982 25.14 20.9906 25.2776 21.1401C25.4151 21.2896 25.4915 21.4853 25.4915 21.6885C25.4915 21.8916 25.4151 22.0873 25.2776 22.2368C25.14 22.3864 24.9514 22.4787 24.7489 22.4956Z" fill="#E6B400"/>
</svg>
