<svg width="52" height="52" viewBox="0 0 52 52" fill="none" xmlns="http://www.w3.org/2000/svg">
<path d="M48.75 8.9375H3.25C3.03451 8.9375 2.82785 9.0231 2.67548 9.17548C2.5231 9.32785 2.4375 9.53451 2.4375 9.75V42.25C2.4375 42.4655 2.5231 42.6722 2.67548 42.8245C2.82785 42.9769 3.03451 43.0625 3.25 43.0625H23.5625V44.7606H9.75C9.53451 44.7606 9.32785 44.8462 9.17548 44.9986C9.0231 45.151 8.9375 45.3576 8.9375 45.5731V48.75C8.9375 48.9655 9.0231 49.1722 9.17548 49.3245C9.32785 49.4769 9.53451 49.5625 9.75 49.5625H42.25C42.4655 49.5625 42.6722 49.4769 42.8245 49.3245C42.9769 49.1722 43.0625 48.9655 43.0625 48.75V45.5731C43.0625 45.3576 42.9769 45.151 42.8245 44.9986C42.6722 44.8462 42.4655 44.7606 42.25 44.7606H28.4375V43.0625H48.75C48.9655 43.0625 49.1722 42.9769 49.3245 42.8245C49.4769 42.6722 49.5625 42.4655 49.5625 42.25V9.75C49.5625 9.53451 49.4769 9.32785 49.3245 9.17548C49.1722 9.0231 48.9655 8.9375 48.75 8.9375ZM4.0625 10.5625H47.9375V37.0175H4.0625V10.5625ZM41.4375 47.9375H10.5625V46.3856H41.4375V47.9375ZM26.8125 44.7606H25.1875V43.0625H26.8125V44.7606ZM47.9375 41.4375H4.0625V38.6425H47.9375V41.4375Z" fill="white"/>
<path d="M35.7502 28.5004C35.1541 28.5011 34.5741 28.6933 34.0956 29.0488C33.6172 29.4044 33.2658 29.9043 33.0933 30.4748H22.7502C22.5684 29.8757 22.1907 29.3549 21.6777 28.9961L22.2058 27.3711H33.9627C34.1461 27.3773 34.3262 27.3213 34.4738 27.2122C34.6213 27.103 34.7275 26.9471 34.7752 26.7698L37.0502 18.5473C37.0848 18.4241 37.0899 18.2944 37.0649 18.1688C37.0399 18.0432 36.9856 17.9253 36.9063 17.8247C36.8271 17.7241 36.7253 17.6437 36.6091 17.5899C36.4929 17.5362 36.3656 17.5107 36.2377 17.5154H22.4252C22.2097 17.5154 22.003 17.601 21.8506 17.7534C21.6983 17.9058 21.6127 18.1124 21.6127 18.3279C21.6127 18.5434 21.6983 18.7501 21.8506 18.9025C22.003 19.0548 22.2097 19.1404 22.4252 19.1404H35.1652L33.3127 25.7217H22.2627L19.2645 14.8586C19.2169 14.6813 19.1107 14.5254 18.9632 14.4162C18.8156 14.307 18.6355 14.251 18.452 14.2573H14.3164C14.1009 14.2573 13.8943 14.3429 13.7419 14.4953C13.5895 14.6477 13.5039 14.8543 13.5039 15.0698C13.5039 15.2853 13.5895 15.492 13.7419 15.6443C13.8943 15.7967 14.1009 15.8823 14.3164 15.8823H17.8752L20.8002 26.5098L20.1583 28.5004C19.6369 28.4847 19.1215 28.6151 18.6704 28.877C18.2193 29.139 17.8505 29.5219 17.6057 29.9825C17.3609 30.4432 17.2499 30.9631 17.2852 31.4835C17.3206 32.004 17.5008 32.5041 17.8056 32.9274C18.1105 33.3507 18.5277 33.6803 19.01 33.8788C19.4924 34.0773 20.0207 34.1369 20.5352 34.0508C21.0497 33.9647 21.5298 33.7363 21.9212 33.3915C22.3127 33.0468 22.5998 32.5993 22.7502 32.0998H33.0527C33.2028 32.5922 33.4863 33.0334 33.8719 33.3745C34.2575 33.7156 34.73 33.9432 35.237 34.0321C35.744 34.121 36.2658 34.0678 36.7444 33.8783C37.223 33.6888 37.6398 33.3704 37.9485 32.9585C38.2572 32.5465 38.4458 32.0571 38.4934 31.5446C38.5409 31.032 38.4456 30.5163 38.2179 30.0546C37.9902 29.5929 37.6391 29.2033 37.2035 28.9289C36.768 28.6546 36.2649 28.5063 35.7502 28.5004ZM20.1177 32.4979C19.9468 32.5006 19.7774 32.4659 19.6214 32.3961C19.4653 32.3263 19.3265 32.2232 19.2146 32.0939C19.1028 31.9647 19.0206 31.8126 18.9738 31.6482C18.927 31.4838 18.9169 31.3112 18.944 31.1424C18.9711 30.9737 19.0349 30.8129 19.1308 30.6715C19.2267 30.53 19.3524 30.4113 19.4992 30.3236C19.6459 30.236 19.81 30.1816 19.9801 30.1642C20.1501 30.1468 20.3218 30.1668 20.4833 30.2229C20.7184 30.2971 20.9239 30.4441 21.07 30.6428C21.216 30.8414 21.2951 31.0814 21.2958 31.3279C21.2936 31.639 21.1686 31.9366 20.9479 32.1558C20.7271 32.3749 20.4287 32.4979 20.1177 32.4979ZM35.7502 32.4979C35.5889 32.5114 35.4265 32.4913 35.2734 32.4388C35.1203 32.3863 34.9797 32.3026 34.8606 32.1931C34.7415 32.0835 34.6464 31.9504 34.5814 31.8022C34.5163 31.654 34.4827 31.4939 34.4827 31.332C34.4827 31.1701 34.5163 31.01 34.5814 30.8618C34.6464 30.7136 34.7415 30.5805 34.8606 30.4709C34.9797 30.3613 35.1203 30.2777 35.2734 30.2252C35.4265 30.1727 35.5889 30.1526 35.7502 30.1661C36.0426 30.1905 36.3151 30.3239 36.5138 30.5399C36.7125 30.7558 36.8227 31.0386 36.8227 31.332C36.8227 31.6254 36.7125 31.9082 36.5138 32.1241C36.3151 32.3401 36.0426 32.4735 35.7502 32.4979Z" fill="#E6B400"/>
</svg>
