<svg width="18" height="18" viewBox="0 0 18 18" fill="none" xmlns="http://www.w3.org/2000/svg">
<path d="M7.10195 11.4599C6.95945 11.4599 6.81695 11.4074 6.70445 11.2949C6.08945 10.6799 5.75195 9.86244 5.75195 8.99994C5.75195 7.20744 7.20695 5.75244 8.99945 5.75244C9.86195 5.75244 10.6795 6.08994 11.2945 6.70494C11.3995 6.80994 11.4595 6.95244 11.4595 7.10244C11.4595 7.25244 11.3995 7.39494 11.2945 7.49994L7.49945 11.2949C7.38695 11.4074 7.24445 11.4599 7.10195 11.4599ZM8.99945 6.87744C7.82945 6.87744 6.87695 7.82994 6.87695 8.99994C6.87695 9.37494 6.97445 9.73494 7.15445 10.0499L10.0495 7.15494C9.73445 6.97494 9.37445 6.87744 8.99945 6.87744Z" fill="#516B7B"/>
<path d="M4.19988 13.8824C4.07238 13.8824 3.93738 13.8374 3.83238 13.7474C3.02988 13.0649 2.30988 12.2249 1.69488 11.2499C0.899883 10.0124 0.899883 7.99486 1.69488 6.74986C3.52488 3.88486 6.18738 2.23486 8.99988 2.23486C10.6499 2.23486 12.2774 2.80486 13.7024 3.87736C13.9499 4.06486 14.0024 4.41736 13.8149 4.66486C13.6274 4.91236 13.2749 4.96486 13.0274 4.77736C11.7974 3.84736 10.4024 3.35986 8.99988 3.35986C6.57738 3.35986 4.25988 4.81486 2.63988 7.35736C2.07738 8.23486 2.07738 9.76486 2.63988 10.6424C3.20238 11.5199 3.84738 12.2774 4.55988 12.8924C4.79238 13.0949 4.82238 13.4474 4.61988 13.6874C4.51488 13.8149 4.35738 13.8824 4.19988 13.8824Z" fill="#516B7B"/>
<path d="M8.99992 15.7651C8.00242 15.7651 7.02742 15.5626 6.08992 15.1651C5.80492 15.0451 5.66992 14.7151 5.78992 14.4301C5.90992 14.1451 6.23992 14.0101 6.52492 14.1301C7.31992 14.4676 8.15242 14.6401 8.99242 14.6401C11.4149 14.6401 13.7324 13.1851 15.3524 10.6426C15.9149 9.76512 15.9149 8.23512 15.3524 7.35762C15.1199 6.99012 14.8649 6.63762 14.5949 6.30762C14.3999 6.06762 14.4374 5.71512 14.6774 5.51262C14.9174 5.31762 15.2699 5.34762 15.4724 5.59512C15.7649 5.95512 16.0499 6.34512 16.3049 6.75012C17.0999 7.98762 17.0999 10.0051 16.3049 11.2501C14.4749 14.1151 11.8124 15.7651 8.99992 15.7651Z" fill="#516B7B"/>
<path d="M9.51671 12.2023C9.25421 12.2023 9.01421 12.0148 8.96171 11.7448C8.90171 11.4373 9.10421 11.1448 9.41171 11.0923C10.2367 10.9423 10.9267 10.2523 11.0767 9.42727C11.1367 9.11977 11.4292 8.92477 11.7367 8.97727C12.0442 9.03727 12.2467 9.32977 12.1867 9.63727C11.9467 10.9348 10.9117 11.9623 9.62171 12.2023C9.58421 12.1948 9.55421 12.2023 9.51671 12.2023Z" fill="#516B7B"/>
<path d="M1.50008 17.0625C1.35758 17.0625 1.21508 17.01 1.10258 16.8975C0.885078 16.68 0.885078 16.32 1.10258 16.1025L6.70508 10.5C6.92258 10.2825 7.28258 10.2825 7.50008 10.5C7.71758 10.7175 7.71758 11.0775 7.50008 11.295L1.89758 16.8975C1.78508 17.01 1.64258 17.0625 1.50008 17.0625Z" fill="#516B7B"/>
<path d="M10.8975 7.66508C10.755 7.66508 10.6125 7.61258 10.5 7.50008C10.2825 7.28258 10.2825 6.92258 10.5 6.70508L16.1025 1.10258C16.32 0.885078 16.68 0.885078 16.8975 1.10258C17.115 1.32008 17.115 1.68008 16.8975 1.89758L11.295 7.50008C11.1825 7.61258 11.04 7.66508 10.8975 7.66508Z" fill="#516B7B"/>
</svg>
