<svg width="18" height="18" viewBox="0 0 18 18" fill="none" xmlns="http://www.w3.org/2000/svg">
<path d="M8.99945 12.2474C7.20695 12.2474 5.75195 10.7924 5.75195 8.99994C5.75195 7.20744 7.20695 5.75244 8.99945 5.75244C10.792 5.75244 12.247 7.20744 12.247 8.99994C12.247 10.7924 10.792 12.2474 8.99945 12.2474ZM8.99945 6.87744C7.82945 6.87744 6.87695 7.82994 6.87695 8.99994C6.87695 10.1699 7.82945 11.1224 8.99945 11.1224C10.1695 11.1224 11.122 10.1699 11.122 8.99994C11.122 7.82994 10.1695 6.87744 8.99945 6.87744Z" fill="#516B7B"/>
<path d="M9.00055 15.7649C6.18055 15.7649 3.51805 14.1149 1.68805 11.2499C0.893047 10.0124 0.893047 7.99486 1.68805 6.74986C3.52555 3.88486 6.18805 2.23486 9.00055 2.23486C11.813 2.23486 14.4755 3.88486 16.3055 6.74986C17.1005 7.98736 17.1005 10.0049 16.3055 11.2499C14.4755 14.1149 11.813 15.7649 9.00055 15.7649ZM9.00055 3.35986C6.57805 3.35986 4.26055 4.81486 2.64055 7.35736C2.07805 8.23486 2.07805 9.76486 2.64055 10.6424C4.26055 13.1849 6.57805 14.6399 9.00055 14.6399C11.423 14.6399 13.7405 13.1849 15.3605 10.6424C15.923 9.76486 15.923 8.23486 15.3605 7.35736C13.7405 4.81486 11.423 3.35986 9.00055 3.35986Z" fill="#516B7B"/>
</svg>
