<svg width="52" height="52" viewBox="0 0 52 52" fill="none" xmlns="http://www.w3.org/2000/svg">
<path d="M19.21 20.1792V18.7164C19.21 18.3727 19.4881 18.0948 19.8315 18.0948C20.1749 18.0948 20.4529 18.3727 20.4529 18.7164V20.1792C20.4529 20.5227 20.1749 20.8008 19.8315 20.8008C19.4881 20.8008 19.21 20.5227 19.21 20.1792ZM25.2437 20.8009C25.5874 20.8009 25.8653 20.5228 25.8653 20.1793V18.7165C25.8653 18.3728 25.5874 18.095 25.2437 18.095C24.9002 18.095 24.6223 18.3728 24.6223 18.7165V20.1793C24.6222 20.5227 24.9002 20.8009 25.2437 20.8009ZM19.8316 26.493C20.175 26.493 20.453 26.2151 20.453 25.8715V24.409C20.453 24.0654 20.175 23.7873 19.8316 23.7873C19.4882 23.7873 19.2101 24.0654 19.2101 24.409V25.8715C19.21 26.2151 19.4882 26.493 19.8316 26.493ZM25.2437 26.493C25.5874 26.493 25.8653 26.2151 25.8653 25.8715V24.409C25.8653 24.0654 25.5874 23.7873 25.2437 23.7873C24.9002 23.7873 24.6223 24.0654 24.6223 24.409V25.8715C24.6222 26.2151 24.9002 26.493 25.2437 26.493ZM19.8316 32.1857C20.175 32.1857 20.453 31.9078 20.453 31.5645V30.101C20.453 29.7578 20.175 29.4797 19.8316 29.4797C19.4882 29.4797 19.2101 29.7578 19.2101 30.101V31.5645C19.21 31.9078 19.4882 32.1857 19.8316 32.1857ZM25.2437 32.1857C25.5874 32.1857 25.8653 31.9078 25.8653 31.5645V30.101C25.8653 29.7578 25.5874 29.4797 25.2437 29.4797C24.9002 29.4797 24.6223 29.7578 24.6223 30.101V31.5645C24.6222 31.9078 24.9002 32.1857 25.2437 32.1857ZM38.4144 25.0681C39.4305 24.2708 40.715 23.9698 41.9451 24.1754L41.7375 24.2632C41.4216 24.3972 41.2737 24.7616 41.4074 25.0779C41.508 25.3151 41.7381 25.4575 41.9803 25.4575C42.0611 25.4575 42.1433 25.4416 42.2222 25.4079L43.8925 24.7008C44.0448 24.6361 44.1654 24.5136 44.2271 24.36C44.2345 24.3412 44.2326 24.3209 44.2379 24.3015C44.2566 24.2471 44.266 24.1914 44.269 24.1357C44.269 24.126 44.2694 24.1171 44.269 24.1072C44.2694 23.9909 44.2373 23.8769 44.1764 23.7778L43.5018 22.213C43.3658 21.8979 43.0017 21.7522 42.6846 21.8878C42.3691 22.0239 42.224 22.3894 42.3595 22.705L42.4915 23.0112C40.8218 22.6274 39.0375 22.9989 37.6482 24.0892C35.423 25.8235 34.7899 28.8872 36.1437 31.3741C36.2561 31.5813 36.47 31.6986 36.69 31.6986C36.7903 31.6986 36.8925 31.6742 36.9869 31.6227C37.2885 31.4584 37.3996 31.081 37.2355 30.7795C36.1743 28.8296 36.6693 26.4285 38.4144 25.0681ZM45.4126 25.6183C45.1109 25.7825 44.9998 26.1601 45.1638 26.4616C46.2256 28.4115 45.7305 30.8127 43.9853 32.1724C42.9704 32.9693 41.6878 33.2699 40.4591 33.0656L40.6673 32.9751C40.9824 32.8387 41.1268 32.4725 40.9902 32.1576C40.8536 31.843 40.4884 31.6972 40.1725 31.8345L38.5147 32.5539C38.4611 32.5772 38.4146 32.609 38.3711 32.6443C38.3619 32.6518 38.353 32.6597 38.3442 32.6673C38.3292 32.6819 38.3139 32.6953 38.3001 32.7106C38.2636 32.7493 38.2295 32.7913 38.203 32.8406C38.0871 33.0545 38.1122 33.3053 38.2431 33.4921L38.897 35.0261C38.998 35.262 39.2279 35.4042 39.4696 35.4042C39.5508 35.4042 39.6333 35.3879 39.7132 35.3541C40.029 35.2193 40.1755 34.8541 40.0411 34.5384L39.9085 34.227C40.3338 34.3249 40.7662 34.3794 41.1983 34.3794C42.4614 34.3794 43.7163 33.9641 44.751 33.1516C46.9771 31.4177 47.61 28.3539 46.2555 25.8668C46.092 25.5659 45.7143 25.4538 45.4126 25.6183ZM51.3898 27.8588V29.3824C51.3898 29.8905 51.105 30.3362 50.6643 30.5176L49.8499 30.8313C49.6462 31.6417 49.3192 32.427 48.874 33.1728L49.2279 33.9691C49.4183 34.4046 49.3049 34.9189 48.9406 35.2831L48.3427 35.8811V45.8623C48.3427 46.206 48.0648 46.4839 47.7214 46.4839H2.76646C2.42308 46.4839 2.145 46.206 2.145 45.8623V28.0901H1.23084C0.887352 28.0901 0.609375 27.8122 0.609375 27.4686V24.4576C0.609375 24.1143 0.887352 23.836 1.23084 23.836H14.9927V11.3784C14.9927 11.0348 15.2705 10.7569 15.6142 10.7569H19.381V9.58635C19.381 9.24266 19.659 8.96489 20.0023 8.96489H22.8303V6.13709C22.8303 5.7933 23.1083 5.51562 23.4519 5.51562H27.0356C27.3792 5.51562 27.657 5.7933 27.657 6.13709V8.96489H30.4855C30.8289 8.96489 31.107 9.24266 31.107 9.58635V10.7569H34.8732C35.2169 10.7569 35.4949 11.0348 35.4949 11.3784V20.5121C35.6187 20.5204 35.7406 20.5476 35.8539 20.597L36.6399 20.9417C37.3676 20.5095 38.1569 20.1832 38.9943 19.9674L39.3029 19.164C39.4662 18.7302 39.9205 18.4364 40.432 18.4364H41.9678C42.4801 18.4364 42.9343 18.7305 43.0982 19.169L43.4056 19.9674C44.2425 20.1832 45.0319 20.5095 45.7596 20.9417L46.5454 20.597C46.9814 20.4063 47.5334 20.5276 47.8709 20.8886L48.9406 21.9581C49.299 22.3159 49.4149 22.8302 49.2348 23.268L48.8748 24.0692C49.3206 24.8156 49.6476 25.6019 49.8507 26.4133L50.6557 26.7316C51.0864 26.8834 51.3898 27.3391 51.3898 27.8588ZM20.624 12.5609H23.4519C23.7953 12.5609 24.0734 12.8387 24.0734 13.1823V15.9982H26.4142V13.1823C26.4142 12.8387 26.6919 12.5609 27.0356 12.5609H29.8639V10.2077H27.0356C26.6919 10.2077 26.4142 9.92984 26.4142 9.58635V6.75844H24.0734V9.58635C24.0734 9.92984 23.7953 10.2077 23.4519 10.2077H20.624V12.5609ZM16.2355 45.241H21.5872V39.8161H20.8069C20.4633 39.8161 20.1856 39.538 20.1856 39.1947C20.1856 38.8511 20.4633 38.5731 20.8069 38.5731H29.6806C30.0242 38.5731 30.3022 38.8511 30.3022 39.1947C30.3022 39.538 30.0242 39.8161 29.6806 39.8161H28.9003V45.241H34.2518V36.0755L33.4583 35.2829C33.0947 34.9181 32.9818 34.4041 33.1697 33.9727L33.5256 33.1727C33.0806 32.4269 32.7531 31.6418 32.5497 30.8312L31.7487 30.5233C31.558 30.4446 31.3998 30.3188 31.2771 30.1638V31.5645C31.2771 31.9078 30.9991 32.1857 30.6554 32.1857C30.312 32.1857 30.0343 31.9078 30.0343 31.5645V30.101C30.0343 29.7578 30.312 29.4797 30.6554 29.4797C30.7971 29.4797 30.9261 29.5289 31.0305 29.6088C31.0182 29.5347 31.0095 29.4594 31.0095 29.3824V27.8588C31.0095 27.3392 31.3128 26.8834 31.7651 26.7237L32.5481 26.4133C32.7518 25.6015 33.0792 24.8156 33.5247 24.0692L33.1724 23.2864C32.9849 22.8306 33.0999 22.3164 33.4581 21.9581L34.2515 21.165V11.9998H31.1066V13.1823C31.1066 13.5258 30.8285 13.8037 30.4851 13.8037H27.6566V16.6199C27.6566 16.9635 27.3788 17.2414 27.0352 17.2414H23.4515C23.1079 17.2414 22.8299 16.9635 22.8299 16.6199V13.8037H20.0023C19.659 13.8037 19.381 13.5258 19.381 13.1823V11.9998H16.2355V45.241ZM35.4949 45.241H40.6759V38.8043H40.4321C39.9206 38.8043 39.4663 38.5102 39.3014 38.0724L38.9944 37.2731C38.1575 37.0585 37.3677 36.7316 36.64 36.2995L35.8544 36.6438C35.7584 36.6926 35.6291 36.7211 35.495 36.7323V45.241H35.4949ZM22.8303 39.8161V45.241H27.6573V39.8161H22.8303ZM9.81175 28.0901V45.241H14.9927V28.0901H9.81175ZM1.8523 26.8471H14.9927V25.0791H1.8523V26.8471ZM3.38802 45.241H8.56883V28.0901H3.38802V45.241ZM47.0999 45.241V36.7274C46.8987 36.7471 46.6951 36.7195 46.5171 36.6303L45.7598 36.2995C45.032 36.7316 44.2427 37.0579 43.4057 37.2731L43.0966 38.077C42.9343 38.5101 42.4802 38.8043 41.9679 38.8043H41.9191V45.241H47.0999ZM50.147 27.8672L49.0895 27.4495C48.8947 27.3721 48.7519 27.2023 48.7091 26.9968C48.5258 26.1124 48.1699 25.2566 47.6504 24.454C47.5356 24.2769 47.5189 24.0538 47.6054 23.8615L48.0627 22.8436L46.9861 21.7618L45.9594 22.2118C45.7683 22.2948 45.5472 22.2776 45.3722 22.1642C44.599 21.6639 43.7371 21.3071 42.8094 21.1033C42.6057 21.0583 42.4378 20.9145 42.3626 20.7197L41.9642 19.6827L40.4369 19.6794L40.0374 20.7191C39.9623 20.9139 39.7947 21.0583 39.5906 21.1033C38.6629 21.3071 37.8005 21.664 37.0273 22.1642C36.8517 22.2776 36.6311 22.2948 36.4405 22.2118L35.3981 21.755L35.3964 21.7565C35.3496 21.8299 35.2883 21.8928 35.216 21.941L34.3381 22.8376C34.3366 22.8386 34.3359 22.8393 34.3351 22.8401L34.7945 23.8616C34.8809 24.0539 34.8643 24.277 34.7497 24.4541C34.2306 25.2565 33.8742 26.1125 33.6902 26.9976C33.6477 27.2025 33.505 27.3722 33.3104 27.4496L32.2549 27.8669L32.2525 29.3825V29.3849L33.3049 29.7894C33.5019 29.8652 33.6471 30.0363 33.6902 30.2431C33.8742 31.1284 34.2305 31.9843 34.7497 32.787C34.8638 32.9631 34.8809 33.1846 34.7959 33.3769L34.3407 34.401L35.4148 35.4799L36.4405 35.0296C36.6311 34.9462 36.8518 34.9634 37.0273 35.077C37.8007 35.5773 38.6629 35.9343 39.5904 36.1375C39.7942 36.1823 39.9623 36.3266 40.0374 36.5215L40.4356 37.5574L41.9629 37.5614L42.3626 36.521C42.4378 36.3266 42.6058 36.1823 42.8099 36.1375C43.7366 35.9343 44.5986 35.5772 45.3722 35.077C45.5473 34.9634 45.7683 34.9462 45.9594 35.0296L47.0058 35.4882L47.198 35.2914C47.2442 35.2175 47.3058 35.154 47.3785 35.1058L48.0612 34.4046L47.6044 33.3769C47.519 33.1846 47.5362 32.9632 47.6505 32.787C48.17 31.9839 48.5259 31.1284 48.7092 30.2439C48.7524 30.0363 48.8976 29.8652 49.0951 29.7894L50.1435 29.3861L50.147 27.8672ZM30.6557 20.8009C30.9994 20.8009 31.2774 20.5228 31.2774 20.1793V18.7165C31.2774 18.3728 30.9994 18.095 30.6557 18.095C30.3123 18.095 30.0346 18.3728 30.0346 18.7165V20.1793C30.0346 20.5227 30.3123 20.8009 30.6557 20.8009ZM30.6557 26.493C30.9994 26.493 31.2774 26.2151 31.2774 25.8715V24.409C31.2774 24.0654 30.9994 23.7873 30.6557 23.7873C30.3123 23.7873 30.0346 24.0654 30.0346 24.409V25.8715C30.0346 26.2151 30.3123 26.493 30.6557 26.493Z" fill="white"/>
<path fill-rule="evenodd" clip-rule="evenodd" d="M20.4578 25.8715C20.4578 26.2151 20.1798 26.493 19.8364 26.493C19.493 26.493 19.2148 26.2151 19.2149 25.8715V24.409C19.2149 24.0654 19.493 23.7873 19.8364 23.7873C20.1798 23.7873 20.4578 24.0654 20.4578 24.409V25.8715ZM25.8701 25.8715C25.8701 26.2151 25.5922 26.493 25.2485 26.493C24.905 26.493 24.627 26.2151 24.6271 25.8715V24.409C24.6271 24.0654 24.905 23.7873 25.2485 23.7873C25.5922 23.7873 25.8701 24.0654 25.8701 24.409V25.8715ZM20.4578 31.5645C20.4578 31.9078 20.1798 32.1857 19.8364 32.1857C19.493 32.1857 19.2148 31.9078 19.2149 31.5645V30.101C19.2149 29.7578 19.493 29.4797 19.8364 29.4797C20.1798 29.4797 20.4578 29.7578 20.4578 30.101V31.5645ZM25.8701 31.5645C25.8701 31.9078 25.5922 32.1857 25.2485 32.1857C24.905 32.1857 24.627 31.9078 24.6271 31.5645V30.101C24.6271 29.7578 24.905 29.4797 25.2485 29.4797C25.5922 29.4797 25.8701 29.7578 25.8701 30.101V31.5645ZM41.9499 24.1754C40.7198 23.9698 39.4353 24.2708 38.4192 25.0681C36.6742 26.4285 36.1791 28.8296 37.2403 30.7795C37.4044 31.081 37.2933 31.4584 36.9917 31.6227C36.8973 31.6742 36.7951 31.6986 36.6948 31.6986C36.4748 31.6986 36.2609 31.5813 36.1485 31.3741C34.7947 28.8872 35.4278 25.8235 37.653 24.0892C39.0423 22.9989 40.8266 22.6274 42.4963 23.0112L42.3643 22.705C42.2288 22.3894 42.3739 22.0239 42.6894 21.8878C43.0065 21.7522 43.3706 21.8979 43.5066 22.213L44.1812 23.7778C44.2421 23.8769 44.2742 23.9909 44.2738 24.1073C44.2742 24.1171 44.2738 24.126 44.2738 24.1357C44.2708 24.1914 44.2614 24.2471 44.2427 24.3015C44.2404 24.31 44.2395 24.3186 44.2385 24.3272C44.2373 24.3383 44.2361 24.3494 44.2319 24.36C44.1702 24.5136 44.0496 24.6361 43.8973 24.7008L42.227 25.4079C42.1481 25.4416 42.0659 25.4575 41.9852 25.4575C41.7429 25.4575 41.5128 25.3151 41.4122 25.0779C41.2785 24.7616 41.4264 24.3972 41.7423 24.2632L41.9499 24.1754ZM45.1686 26.4616C45.0046 26.1601 45.1157 25.7825 45.4174 25.6183C45.7191 25.4538 46.0968 25.5659 46.2603 25.8668C47.6148 28.3539 46.9819 31.4177 44.7558 33.1516C43.7211 33.9641 42.4663 34.3794 41.2031 34.3794C40.771 34.3794 40.3386 34.3249 39.9133 34.227L40.0459 34.5384C40.1803 34.8541 40.0338 35.2193 39.718 35.3541C39.6382 35.3879 39.5556 35.4042 39.4744 35.4042C39.2327 35.4042 39.0028 35.262 38.9018 35.0261L38.2479 33.4921C38.117 33.3053 38.0919 33.0545 38.2078 32.8406C38.2344 32.7914 38.2684 32.7493 38.3049 32.7106C38.3148 32.6997 38.3254 32.6897 38.3361 32.6796C38.3404 32.6756 38.3447 32.6715 38.349 32.6673C38.3579 32.6597 38.3667 32.6518 38.3759 32.6443C38.4194 32.609 38.4659 32.5772 38.5195 32.5539L40.1773 31.8345C40.4932 31.6972 40.8584 31.843 40.995 32.1576C41.1316 32.4725 40.9872 32.8387 40.6722 32.9751L40.464 33.0656C41.6927 33.2699 42.9752 32.9693 43.9901 32.1724C45.7354 30.8127 46.2304 28.4115 45.1686 26.4616Z" fill="#E6B400"/>
<path fill-rule="evenodd" clip-rule="evenodd" d="M19.3858 10.7569V9.58635C19.3858 9.24266 19.6639 8.96489 20.0071 8.96489H22.8351V6.13709C22.8351 5.7933 23.1131 5.51562 23.4567 5.51562H27.0404C27.384 5.51562 27.6618 5.7933 27.6618 6.13709V8.96489H30.4903C30.8337 8.96489 31.1118 9.24266 31.1118 9.58635V10.7569L31.1114 11.9998V13.1823C31.1114 13.5258 30.8333 13.8037 30.4899 13.8037H27.6614V16.6199C27.6614 16.9635 27.3836 17.2414 27.04 17.2414H23.4563C23.1127 17.2414 22.8347 16.9635 22.8347 16.6199V13.8037H20.0071C19.6639 13.8037 19.3858 13.5258 19.3858 13.1823V11.9998V10.7569ZM23.4567 12.5609H20.6288V10.2077H23.4567C23.8001 10.2077 24.0782 9.92984 24.0782 9.58635V6.75844H26.419V9.58635C26.419 9.92984 26.6967 10.2077 27.0404 10.2077H29.8688V12.5609H27.0404C26.6967 12.5609 26.419 12.8387 26.419 13.1823V15.9982H24.0782V13.1823C24.0782 12.8387 23.8001 12.5609 23.4567 12.5609Z" fill="#E6B400"/>
</svg>
