<svg width="52" height="52" viewBox="0 0 52 52" fill="none" xmlns="http://www.w3.org/2000/svg">
<path d="M45.5 28.3564V26.7314C45.9485 26.7314 46.3125 26.3677 46.3125 25.9189V21.0439C46.3125 20.5952 45.9485 20.2314 45.5 20.2314H41.1125L40.9551 19.6211C40.5958 18.2253 40.0378 16.8881 39.2974 15.6513L38.9724 15.1076L42.0875 11.9871C42.4011 11.6729 42.4011 11.1638 42.0875 10.8496L38.6369 7.39395C38.3183 7.09021 37.8177 7.09021 37.4991 7.39395L34.3783 10.5148L33.8349 10.1898C32.5962 9.449 31.2578 8.89104 29.86 8.53145L29.25 8.37275V3.98145C29.25 3.53267 28.8863 3.16895 28.4375 3.16895H23.5625C23.1137 3.16895 22.75 3.53267 22.75 3.98145V8.36895L22.1397 8.52668C20.7438 8.88564 19.4067 9.4436 18.1692 10.1831L17.6255 10.5084L14.5057 7.39395C14.1867 7.08767 13.683 7.08767 13.364 7.39395L9.9125 10.8445C9.76079 10.9959 9.67542 11.2016 9.67542 11.4158C9.67542 11.6304 9.76079 11.8357 9.9125 11.9871L13.0333 15.1076L12.7083 15.6513C11.9682 16.8881 11.4099 18.2253 11.051 19.6211L10.8916 20.2314H6.5C6.05122 20.2314 5.6875 20.5952 5.6875 21.0439V25.9189C5.6875 26.3677 6.05122 26.7314 6.5 26.7314V28.3564C5.15398 28.3564 4.0625 27.265 4.0625 25.9189V21.0439C4.0625 19.6979 5.15398 18.6064 6.5 18.6064H9.64368C9.97883 17.4829 10.4321 16.3981 10.9957 15.3704L8.76135 13.136C8.30432 12.68 8.04756 12.0611 8.04756 11.4158C8.04756 10.7706 8.30432 10.1517 8.76135 9.69592L12.2145 6.2428C13.1765 5.32207 14.6932 5.32207 15.6552 6.2428L17.889 8.47622C18.9167 7.91287 20.0018 7.4606 21.125 7.12576V3.98145C21.125 2.63542 22.2165 1.54395 23.5625 1.54395H28.4375C29.7835 1.54395 30.875 2.63542 30.875 3.98145V7.12576C31.9985 7.4606 33.083 7.91382 34.111 8.47717L36.3454 6.2428C37.3077 5.32207 38.8242 5.32207 39.7865 6.2428L43.239 9.69497C43.6957 10.1511 43.9521 10.7693 43.9521 11.4149C43.9521 12.0604 43.6957 12.6793 43.239 13.1351L41.0046 15.3695C41.5679 16.3978 42.0209 17.4829 42.3563 18.6064H45.5C46.846 18.6064 47.9375 19.6979 47.9375 21.0439V25.9189C47.9375 27.265 46.846 28.3564 45.5 28.3564Z" fill="#E6B400"/>
<path d="M37.375 23.4814H35.75C35.75 18.0967 31.3847 13.7314 26 13.7314C20.6153 13.7314 16.25 18.0967 16.25 23.4814H14.625C14.625 17.1992 19.7177 12.1064 26 12.1064C32.282 12.1064 37.375 17.1992 37.375 23.4814Z" fill="#E6B400"/>
<path d="M26 29.9814C23.3076 29.9814 21.125 27.7985 21.125 25.1064C21.125 22.4141 23.3076 20.2314 26 20.2314C28.6927 20.2314 30.875 22.4141 30.875 25.1064C30.8721 27.7979 28.6914 29.9786 26 29.9814ZM26 21.8564C24.2052 21.8564 22.75 23.3116 22.75 25.1064C22.75 26.9012 24.2052 28.3564 26 28.3564C27.7948 28.3564 29.25 26.9012 29.25 25.1064C29.25 23.3116 27.7948 21.8564 26 21.8564Z" fill="white"/>
<path d="M39.8125 33.2314C37.1201 33.2314 34.9375 31.0485 34.9375 28.3564C34.9375 25.6641 37.1201 23.4814 39.8125 23.4814C42.5049 23.4814 44.6875 25.6641 44.6875 28.3564C44.6846 31.0479 42.5039 33.2286 39.8125 33.2314ZM39.8125 25.1064C38.0177 25.1064 36.5625 26.5616 36.5625 28.3564C36.5625 30.1512 38.0177 31.6064 39.8125 31.6064C41.6073 31.6064 43.0625 30.1512 43.0625 28.3564C43.0625 26.5616 41.6073 25.1064 39.8125 25.1064Z" fill="white"/>
<path d="M12.1875 33.2314C9.49514 33.2314 7.3125 31.0485 7.3125 28.3564C7.3125 25.6641 9.49514 23.4814 12.1875 23.4814C14.8802 23.4814 17.0625 25.6641 17.0625 28.3564C17.0596 31.0479 14.8789 33.2286 12.1875 33.2314ZM12.1875 25.1064C10.3927 25.1064 8.9375 26.5616 8.9375 28.3564C8.9375 30.1512 10.3927 31.6064 12.1875 31.6064C13.9823 31.6064 15.4375 30.1512 15.4375 28.3564C15.4375 26.5616 13.9823 25.1064 12.1875 25.1064Z" fill="white"/>
<path d="M47.1783 35.3161C45.9675 34.4839 44.532 34.0399 43.0625 34.044H36.5625C36.1674 34.0475 35.7729 34.0833 35.3834 34.1509C34.8636 33.3378 34.1872 32.6364 33.3938 32.0864C33.2747 31.9966 33.1497 31.915 33.0192 31.8429C31.8827 31.1545 30.5786 30.7921 29.25 30.794H22.75C20.2652 30.7851 17.9499 32.053 16.6188 34.1509C16.2284 34.0833 15.8333 34.0475 15.4375 34.044H8.9375C7.46929 34.0399 6.03408 34.4832 4.8239 35.3145C2.82375 36.6754 1.62627 38.9374 1.625 41.3565V44.6065C1.62786 46.825 2.91865 48.8397 4.93372 49.769C5.67766 50.1194 6.49048 50.2988 7.3125 50.294H15.4375V48.669H8.125V39.7315H6.5V48.5874C6.19404 48.5262 5.89697 48.4271 5.61514 48.2935C4.17581 47.6299 3.25317 46.1912 3.25 44.6065V41.3565C3.2519 39.4738 4.18469 37.7139 5.74114 36.6551C6.68154 36.0095 7.79651 35.6658 8.9375 35.669H15.4375C15.5806 35.669 15.7187 35.6842 15.8584 35.6937C15.5835 36.4688 15.441 37.2845 15.4375 38.1065V46.2315C15.4404 48.4741 17.2577 50.2911 19.5 50.294H21.9375V37.294H20.3125V48.669H19.5C18.154 48.669 17.0625 47.5775 17.0625 46.2315V38.1065C17.0625 34.965 19.6092 32.419 22.75 32.419H29.25C30.2955 32.4196 31.32 32.7091 32.2115 33.255C32.294 33.3 32.3734 33.3508 32.4486 33.4067C33.21 33.9281 33.8349 34.6248 34.2704 35.4379C34.708 36.2593 34.9375 37.1756 34.9375 38.1065V46.2315C34.9375 47.5775 33.846 48.669 32.5 48.669H31.6875V37.294H30.0625V50.294H32.5C34.7426 50.2911 36.5596 48.4741 36.5625 46.2315V38.1065C36.5587 37.2845 36.4168 36.4691 36.1423 35.6937C36.2823 35.6842 36.4203 35.669 36.5625 35.669H43.0625C44.2041 35.6658 45.32 36.0105 46.2611 36.6567C47.8163 37.7161 48.7478 39.4747 48.75 41.3565V44.6065C48.7471 46.1969 47.8175 47.6397 46.3712 48.2999C46.0935 48.4313 45.8009 48.5278 45.5 48.5874V39.7315H43.875V48.669H36.5625V50.294H44.6875C45.5048 50.2991 46.3128 50.122 47.0526 49.7754C49.0744 48.8489 50.3718 46.8304 50.375 44.6065V41.3565C50.3737 38.9384 49.1772 36.6773 47.1783 35.3161Z" fill="white"/>
<path d="M22.75 48.6689H29.25V50.2939H22.75V48.6689Z" fill="white"/>
</svg>
