<svg width="52" height="52" viewBox="0 0 52 52" fill="none" xmlns="http://www.w3.org/2000/svg">
<mask id="path-1-inside-1_1091_291291" fill="white">
<path d="M45.9983 42.8922C45.8907 41.684 45.3358 40.5596 44.4422 39.7394C43.5486 38.9192 42.3809 38.4623 41.168 38.4583H35.2096V37.375H39.0013C39.7194 37.3744 40.4079 37.0888 40.9157 36.5811C41.4235 36.0733 41.709 35.3848 41.7096 34.6667V32.5C41.709 31.7819 41.4235 31.0934 40.9157 30.5856C40.4079 30.0778 39.7194 29.7923 39.0013 29.7917H35.2096V26.5417H39.0013C39.7194 26.541 40.4079 26.2555 40.9157 25.7477C41.4235 25.2399 41.709 24.5514 41.7096 23.8333V21.6667C41.709 20.9486 41.4235 20.2601 40.9157 19.7523C40.4079 19.2445 39.7194 18.959 39.0013 18.9583H35.1548C35.0241 17.77 34.4604 16.6714 33.5714 15.8722C32.6823 15.0729 31.5301 14.629 30.3346 14.625H26.543V11.375H30.3346C31.0527 11.3744 31.7412 11.0888 32.249 10.5811C32.7568 10.0733 33.0423 9.38477 33.043 8.66667V6.5C33.0423 5.7819 32.7568 5.09339 32.249 4.58562C31.7412 4.07784 31.0527 3.7923 30.3346 3.79167H26.8985C26.4679 3.79001 26.0554 3.61875 25.7502 3.315L24.853 2.41843C24.344 1.91175 23.6556 1.62658 22.9374 1.625H21.668C20.9499 1.62563 20.2614 1.91118 19.7536 2.41895C19.2458 2.92672 18.9603 3.61523 18.9596 4.33333V6.5C18.9596 6.64366 19.0167 6.78143 19.1183 6.88302C19.2199 6.9846 19.3576 7.04167 19.5013 7.04167C19.645 7.04167 19.7827 6.9846 19.8843 6.88302C19.9859 6.78143 20.043 6.64366 20.043 6.5V4.33333C20.0436 3.90255 20.215 3.48959 20.5196 3.18498C20.8242 2.88037 21.2372 2.70896 21.668 2.70833H22.9374C23.368 2.70999 23.7806 2.88125 24.0858 3.185L24.983 4.08222C25.4917 4.58875 26.1799 4.8739 26.8979 4.87565H30.3346C30.7654 4.87628 31.1784 5.04769 31.483 5.3523C31.7876 5.65691 31.959 6.06987 31.9596 6.50065V8.66667C31.959 9.09745 31.7876 9.51041 31.483 9.81502C31.1784 10.1196 30.7654 10.291 30.3346 10.2917H21.668C21.2372 10.291 20.8242 10.1196 20.5196 9.81502C20.215 9.51041 20.0436 9.09745 20.043 8.66667C20.043 8.52301 19.9859 8.38523 19.8843 8.28365C19.7827 8.18207 19.645 8.125 19.5013 8.125C19.3576 8.125 19.2199 8.18207 19.1183 8.28365C19.0167 8.38523 18.9596 8.52301 18.9596 8.66667C18.9603 9.38477 19.2458 10.0733 19.7536 10.5811C20.2614 11.0888 20.9499 11.3744 21.668 11.375H25.4596V14.625H21.668C20.4725 14.629 19.3203 15.0729 18.4312 15.8722C17.5422 16.6714 16.9785 17.77 16.8478 18.9583H13.0013C12.2832 18.959 11.5947 19.2445 11.0869 19.7523C10.5791 20.2601 10.2936 20.9486 10.293 21.6667V23.8333C10.2936 24.5514 10.5791 25.2399 11.0869 25.7477C11.5947 26.2555 12.2832 26.541 13.0013 26.5417H16.793V34.125H10.8346C9.5422 34.1266 8.30316 34.6407 7.38926 35.5546C6.47537 36.4685 5.96124 37.7076 5.95964 39V42.9C5.35395 43.0168 4.8073 43.3395 4.4124 43.8134C4.0175 44.2873 3.79866 44.8832 3.79297 45.5C3.7936 46.2181 4.07914 46.9066 4.58692 47.4144C5.09469 47.9222 5.7832 48.2077 6.5013 48.2083C7.11794 48.2024 7.71356 47.9834 8.18722 47.5886C8.66088 47.1937 8.98343 46.6472 9.10022 46.0417H10.293V47.6667C10.2936 48.3848 10.5791 49.0733 11.0869 49.5811C11.5947 50.0888 12.2832 50.3744 13.0013 50.375H21.668C22.3861 50.3744 23.0746 50.0888 23.5824 49.5811C24.0901 49.0733 24.3757 48.3848 24.3763 47.6667V46.0417H29.8651C29.9447 46.7972 30.2 47.5236 30.6108 48.1628C31.0215 48.8019 31.5762 49.336 32.2305 49.7222C32.2921 49.761 32.361 49.787 32.4329 49.7986C32.5048 49.8101 32.5784 49.8071 32.6491 49.7896C32.7198 49.7721 32.7863 49.7405 32.8445 49.6967C32.9028 49.653 32.9516 49.5979 32.988 49.5348C33.0245 49.4717 33.0478 49.4019 33.0567 49.3296C33.0655 49.2573 33.0597 49.1839 33.0396 49.1139C33.0194 49.0439 32.9853 48.9787 32.9394 48.9222C32.8934 48.8656 32.8365 48.8189 32.7721 48.7849C31.9747 48.3253 31.3716 47.5915 31.0751 46.7202C30.7787 45.8489 30.8091 44.8995 31.1607 44.049C31.5124 43.1984 32.1612 42.5047 32.9864 42.0971C33.8116 41.6895 34.7568 41.5959 35.646 41.8335C36.5351 42.0712 37.3075 42.6241 37.8193 43.389C38.331 44.154 38.5472 45.0789 38.4275 45.9915C38.3079 46.904 37.8605 47.742 37.1688 48.3491C36.4772 48.9563 35.5883 49.2913 34.668 49.2917C34.5243 49.2917 34.3865 49.3487 34.285 49.4503C34.1834 49.5519 34.1263 49.6897 34.1263 49.8333C34.1263 49.977 34.1834 50.1148 34.285 50.2164C34.3865 50.3179 34.5243 50.375 34.668 50.375C35.8635 50.371 37.0156 49.9271 37.9047 49.1278C38.7937 48.3286 39.3574 47.23 39.4882 46.0417H42.9026C43.0193 46.6472 43.3419 47.1937 43.8155 47.5885C44.2891 47.9834 44.8847 48.2024 45.5013 48.2083C46.2194 48.2077 46.9079 47.9222 47.4157 47.4144C47.9235 46.9066 48.209 46.2181 48.2096 45.5C48.2037 44.8755 47.9793 44.2727 47.5754 43.7964C47.1714 43.32 46.6135 43.0001 45.9983 42.8922ZM40.6263 32.5V34.6667C40.6257 35.0975 40.4543 35.5104 40.1497 35.815C39.845 36.1196 39.4321 36.291 39.0013 36.2917H30.3346C29.9039 36.291 29.4909 36.1196 29.1863 35.815C28.8817 35.5104 28.7103 35.0975 28.7096 34.6667V32.5C28.7103 32.0692 28.8817 31.6563 29.1863 31.3517C29.4909 31.047 29.9039 30.8756 30.3346 30.875H39.0013C39.4321 30.8756 39.845 31.047 40.1497 31.3517C40.4543 31.6563 40.6257 32.0692 40.6263 32.5ZM40.6263 21.6667V23.8333C40.6257 24.2641 40.4543 24.6771 40.1497 24.9817C39.845 25.2863 39.4321 25.4577 39.0013 25.4583H30.3346C29.9039 25.4577 29.4909 25.2863 29.1863 24.9817C28.8817 24.6771 28.7103 24.2641 28.7096 23.8333V21.6667C28.7103 21.2359 28.8817 20.8229 29.1863 20.5183C29.4909 20.2137 29.9039 20.0423 30.3346 20.0417H39.0013C39.4321 20.0423 39.845 20.2137 40.1497 20.5183C40.4543 20.8229 40.6257 21.2359 40.6263 21.6667ZM6.5013 47.125C6.17991 47.125 5.86573 47.0297 5.5985 46.8511C5.33127 46.6726 5.12299 46.4188 5 46.1219C4.87701 45.8249 4.84482 45.4982 4.90753 45.183C4.97023 44.8678 5.12499 44.5782 5.35225 44.351C5.57951 44.1237 5.86906 43.9689 6.18428 43.9062C6.4995 43.8435 6.82623 43.8757 7.12316 43.9987C7.42009 44.1217 7.67388 44.33 7.85244 44.5972C8.031 44.8644 8.1263 45.1786 8.1263 45.5C8.12567 45.9308 7.95426 46.3437 7.64965 46.6484C7.34504 46.953 6.93209 47.1244 6.5013 47.125ZM10.293 43.3333V44.9583H9.1013C8.99804 44.4513 8.74796 43.9858 8.38216 43.6198C8.01637 43.2539 7.55103 43.0035 7.04405 42.9V39C7.04531 37.995 7.44505 37.0314 8.15562 36.3207C8.86618 35.6099 9.8296 35.2099 10.8346 35.2083H16.793V40.625H13.0013C12.2832 40.6256 11.5947 40.9112 11.0869 41.4189C10.5791 41.9267 10.2936 42.6152 10.293 43.3333ZM23.293 47.6667C23.2923 48.0975 23.1209 48.5104 22.8163 48.815C22.5117 49.1196 22.0988 49.291 21.668 49.2917H13.0013C12.5705 49.291 12.1576 49.1196 11.853 48.815C11.5483 48.5104 11.3769 48.0975 11.3763 47.6667V43.3333C11.3769 42.9025 11.5483 42.4896 11.853 42.185C12.1576 41.8804 12.5705 41.709 13.0013 41.7083H21.668C22.0988 41.709 22.5117 41.8804 22.8163 42.185C23.1209 42.4896 23.2923 42.9025 23.293 43.3333V47.6667ZM29.8478 44.9583H24.3763V43.3333C24.3757 42.6152 24.0901 41.9267 23.5824 41.4189C23.0746 40.9112 22.3861 40.6256 21.668 40.625H17.8763V26.5417H21.668C22.3861 26.541 23.0746 26.2555 23.5824 25.7477C24.0901 25.2399 24.3757 24.5514 24.3763 23.8333C24.3763 23.6897 24.3192 23.5519 24.2177 23.4503C24.1161 23.3487 23.9783 23.2917 23.8346 23.2917C23.691 23.2917 23.5532 23.3487 23.4516 23.4503C23.35 23.5519 23.293 23.6897 23.293 23.8333C23.2923 24.2641 23.1209 24.6771 22.8163 24.9817C22.5117 25.2863 22.0988 25.4577 21.668 25.4583H13.0013C12.5705 25.4577 12.1576 25.2863 11.853 24.9817C11.5483 24.6771 11.3769 24.2641 11.3763 23.8333V21.6667C11.3769 21.2359 11.5483 20.8229 11.853 20.5183C12.1576 20.2137 12.5705 20.0423 13.0013 20.0417H21.668C22.0988 20.0423 22.5117 20.2137 22.8163 20.5183C23.1209 20.8229 23.2923 21.2359 23.293 21.6667C23.293 21.8103 23.35 21.9481 23.4516 22.0497C23.5532 22.1513 23.691 22.2083 23.8346 22.2083C23.9783 22.2083 24.1161 22.1513 24.2177 22.0497C24.3192 21.9481 24.3763 21.8103 24.3763 21.6667C24.3757 20.9486 24.0901 20.2601 23.5824 19.7523C23.0746 19.2445 22.3861 18.959 21.668 18.9583H17.9311C18.0598 18.0581 18.5083 17.2343 19.1944 16.6376C19.8806 16.0408 20.7586 15.7109 21.668 15.7083H30.3346C31.244 15.7109 32.122 16.0408 32.8082 16.6376C33.4944 17.2343 33.9428 18.0581 34.0715 18.9583H30.3346C29.6165 18.959 28.928 19.2445 28.4203 19.7523C27.9125 20.2601 27.6269 20.9486 27.6263 21.6667V23.8333C27.6269 24.5514 27.9125 25.2399 28.4203 25.7477C28.928 26.2555 29.6165 26.541 30.3346 26.5417H34.1263V29.7917H30.3346C29.6165 29.7923 28.928 30.0778 28.4203 30.5856C27.9125 31.0934 27.6269 31.7819 27.6263 32.5V34.6667C27.6269 35.3848 27.9125 36.0733 28.4203 36.5811C28.928 37.0888 29.6165 37.3744 30.3346 37.375H34.1263V40.6798C33.0339 40.8027 32.0156 41.2929 31.2382 42.0703C30.4609 42.8476 29.9706 43.8659 29.8478 44.9583ZM42.9026 44.9583H39.4882C39.3653 43.8659 38.8751 42.8476 38.0977 42.0703C37.3204 41.2929 36.3021 40.8027 35.2096 40.6798V39.5417H41.168C42.0974 39.5448 42.9931 39.8898 43.6844 40.511C44.3757 41.1323 44.8142 41.9862 44.9163 42.91C44.4186 43.0203 43.9636 43.2725 43.6062 43.636C43.2488 43.9995 43.0044 44.4588 42.9026 44.9583ZM45.5013 47.125C45.1799 47.125 44.8657 47.0297 44.5985 46.8511C44.3313 46.6726 44.123 46.4188 44 46.1219C43.877 45.8249 43.8448 45.4982 43.9075 45.183C43.9702 44.8678 44.125 44.5782 44.3523 44.351C44.5795 44.1237 44.8691 43.9689 45.1843 43.9062C45.4995 43.8435 45.8262 43.8757 46.1232 43.9987C46.4201 44.1217 46.6739 44.33 46.8524 44.5972C47.031 44.8644 47.1263 45.1786 47.1263 45.5C47.1257 45.9308 46.9543 46.3437 46.6497 46.6484C46.345 46.953 45.9321 47.1244 45.5013 47.125Z"/>
</mask>
<path d="M45.9983 42.8922C45.8907 41.684 45.3358 40.5596 44.4422 39.7394C43.5486 38.9192 42.3809 38.4623 41.168 38.4583H35.2096V37.375H39.0013C39.7194 37.3744 40.4079 37.0888 40.9157 36.5811C41.4235 36.0733 41.709 35.3848 41.7096 34.6667V32.5C41.709 31.7819 41.4235 31.0934 40.9157 30.5856C40.4079 30.0778 39.7194 29.7923 39.0013 29.7917H35.2096V26.5417H39.0013C39.7194 26.541 40.4079 26.2555 40.9157 25.7477C41.4235 25.2399 41.709 24.5514 41.7096 23.8333V21.6667C41.709 20.9486 41.4235 20.2601 40.9157 19.7523C40.4079 19.2445 39.7194 18.959 39.0013 18.9583H35.1548C35.0241 17.77 34.4604 16.6714 33.5714 15.8722C32.6823 15.0729 31.5301 14.629 30.3346 14.625H26.543V11.375H30.3346C31.0527 11.3744 31.7412 11.0888 32.249 10.5811C32.7568 10.0733 33.0423 9.38477 33.043 8.66667V6.5C33.0423 5.7819 32.7568 5.09339 32.249 4.58562C31.7412 4.07784 31.0527 3.7923 30.3346 3.79167H26.8985C26.4679 3.79001 26.0554 3.61875 25.7502 3.315L24.853 2.41843C24.344 1.91175 23.6556 1.62658 22.9374 1.625H21.668C20.9499 1.62563 20.2614 1.91118 19.7536 2.41895C19.2458 2.92672 18.9603 3.61523 18.9596 4.33333V6.5C18.9596 6.64366 19.0167 6.78143 19.1183 6.88302C19.2199 6.9846 19.3576 7.04167 19.5013 7.04167C19.645 7.04167 19.7827 6.9846 19.8843 6.88302C19.9859 6.78143 20.043 6.64366 20.043 6.5V4.33333C20.0436 3.90255 20.215 3.48959 20.5196 3.18498C20.8242 2.88037 21.2372 2.70896 21.668 2.70833H22.9374C23.368 2.70999 23.7806 2.88125 24.0858 3.185L24.983 4.08222C25.4917 4.58875 26.1799 4.8739 26.8979 4.87565H30.3346C30.7654 4.87628 31.1784 5.04769 31.483 5.3523C31.7876 5.65691 31.959 6.06987 31.9596 6.50065V8.66667C31.959 9.09745 31.7876 9.51041 31.483 9.81502C31.1784 10.1196 30.7654 10.291 30.3346 10.2917H21.668C21.2372 10.291 20.8242 10.1196 20.5196 9.81502C20.215 9.51041 20.0436 9.09745 20.043 8.66667C20.043 8.52301 19.9859 8.38523 19.8843 8.28365C19.7827 8.18207 19.645 8.125 19.5013 8.125C19.3576 8.125 19.2199 8.18207 19.1183 8.28365C19.0167 8.38523 18.9596 8.52301 18.9596 8.66667C18.9603 9.38477 19.2458 10.0733 19.7536 10.5811C20.2614 11.0888 20.9499 11.3744 21.668 11.375H25.4596V14.625H21.668C20.4725 14.629 19.3203 15.0729 18.4312 15.8722C17.5422 16.6714 16.9785 17.77 16.8478 18.9583H13.0013C12.2832 18.959 11.5947 19.2445 11.0869 19.7523C10.5791 20.2601 10.2936 20.9486 10.293 21.6667V23.8333C10.2936 24.5514 10.5791 25.2399 11.0869 25.7477C11.5947 26.2555 12.2832 26.541 13.0013 26.5417H16.793V34.125H10.8346C9.5422 34.1266 8.30316 34.6407 7.38926 35.5546C6.47537 36.4685 5.96124 37.7076 5.95964 39V42.9C5.35395 43.0168 4.8073 43.3395 4.4124 43.8134C4.0175 44.2873 3.79866 44.8832 3.79297 45.5C3.7936 46.2181 4.07914 46.9066 4.58692 47.4144C5.09469 47.9222 5.7832 48.2077 6.5013 48.2083C7.11794 48.2024 7.71356 47.9834 8.18722 47.5886C8.66088 47.1937 8.98343 46.6472 9.10022 46.0417H10.293V47.6667C10.2936 48.3848 10.5791 49.0733 11.0869 49.5811C11.5947 50.0888 12.2832 50.3744 13.0013 50.375H21.668C22.3861 50.3744 23.0746 50.0888 23.5824 49.5811C24.0901 49.0733 24.3757 48.3848 24.3763 47.6667V46.0417H29.8651C29.9447 46.7972 30.2 47.5236 30.6108 48.1628C31.0215 48.8019 31.5762 49.336 32.2305 49.7222C32.2921 49.761 32.361 49.787 32.4329 49.7986C32.5048 49.8101 32.5784 49.8071 32.6491 49.7896C32.7198 49.7721 32.7863 49.7405 32.8445 49.6967C32.9028 49.653 32.9516 49.5979 32.988 49.5348C33.0245 49.4717 33.0478 49.4019 33.0567 49.3296C33.0655 49.2573 33.0597 49.1839 33.0396 49.1139C33.0194 49.0439 32.9853 48.9787 32.9394 48.9222C32.8934 48.8656 32.8365 48.8189 32.7721 48.7849C31.9747 48.3253 31.3716 47.5915 31.0751 46.7202C30.7787 45.8489 30.8091 44.8995 31.1607 44.049C31.5124 43.1984 32.1612 42.5047 32.9864 42.0971C33.8116 41.6895 34.7568 41.5959 35.646 41.8335C36.5351 42.0712 37.3075 42.6241 37.8193 43.389C38.331 44.154 38.5472 45.0789 38.4275 45.9915C38.3079 46.904 37.8605 47.742 37.1688 48.3491C36.4772 48.9563 35.5883 49.2913 34.668 49.2917C34.5243 49.2917 34.3865 49.3487 34.285 49.4503C34.1834 49.5519 34.1263 49.6897 34.1263 49.8333C34.1263 49.977 34.1834 50.1148 34.285 50.2164C34.3865 50.3179 34.5243 50.375 34.668 50.375C35.8635 50.371 37.0156 49.9271 37.9047 49.1278C38.7937 48.3286 39.3574 47.23 39.4882 46.0417H42.9026C43.0193 46.6472 43.3419 47.1937 43.8155 47.5885C44.2891 47.9834 44.8847 48.2024 45.5013 48.2083C46.2194 48.2077 46.9079 47.9222 47.4157 47.4144C47.9235 46.9066 48.209 46.2181 48.2096 45.5C48.2037 44.8755 47.9793 44.2727 47.5754 43.7964C47.1714 43.32 46.6135 43.0001 45.9983 42.8922ZM40.6263 32.5V34.6667C40.6257 35.0975 40.4543 35.5104 40.1497 35.815C39.845 36.1196 39.4321 36.291 39.0013 36.2917H30.3346C29.9039 36.291 29.4909 36.1196 29.1863 35.815C28.8817 35.5104 28.7103 35.0975 28.7096 34.6667V32.5C28.7103 32.0692 28.8817 31.6563 29.1863 31.3517C29.4909 31.047 29.9039 30.8756 30.3346 30.875H39.0013C39.4321 30.8756 39.845 31.047 40.1497 31.3517C40.4543 31.6563 40.6257 32.0692 40.6263 32.5ZM40.6263 21.6667V23.8333C40.6257 24.2641 40.4543 24.6771 40.1497 24.9817C39.845 25.2863 39.4321 25.4577 39.0013 25.4583H30.3346C29.9039 25.4577 29.4909 25.2863 29.1863 24.9817C28.8817 24.6771 28.7103 24.2641 28.7096 23.8333V21.6667C28.7103 21.2359 28.8817 20.8229 29.1863 20.5183C29.4909 20.2137 29.9039 20.0423 30.3346 20.0417H39.0013C39.4321 20.0423 39.845 20.2137 40.1497 20.5183C40.4543 20.8229 40.6257 21.2359 40.6263 21.6667ZM6.5013 47.125C6.17991 47.125 5.86573 47.0297 5.5985 46.8511C5.33127 46.6726 5.12299 46.4188 5 46.1219C4.87701 45.8249 4.84482 45.4982 4.90753 45.183C4.97023 44.8678 5.12499 44.5782 5.35225 44.351C5.57951 44.1237 5.86906 43.9689 6.18428 43.9062C6.4995 43.8435 6.82623 43.8757 7.12316 43.9987C7.42009 44.1217 7.67388 44.33 7.85244 44.5972C8.031 44.8644 8.1263 45.1786 8.1263 45.5C8.12567 45.9308 7.95426 46.3437 7.64965 46.6484C7.34504 46.953 6.93209 47.1244 6.5013 47.125ZM10.293 43.3333V44.9583H9.1013C8.99804 44.4513 8.74796 43.9858 8.38216 43.6198C8.01637 43.2539 7.55103 43.0035 7.04405 42.9V39C7.04531 37.995 7.44505 37.0314 8.15562 36.3207C8.86618 35.6099 9.8296 35.2099 10.8346 35.2083H16.793V40.625H13.0013C12.2832 40.6256 11.5947 40.9112 11.0869 41.4189C10.5791 41.9267 10.2936 42.6152 10.293 43.3333ZM23.293 47.6667C23.2923 48.0975 23.1209 48.5104 22.8163 48.815C22.5117 49.1196 22.0988 49.291 21.668 49.2917H13.0013C12.5705 49.291 12.1576 49.1196 11.853 48.815C11.5483 48.5104 11.3769 48.0975 11.3763 47.6667V43.3333C11.3769 42.9025 11.5483 42.4896 11.853 42.185C12.1576 41.8804 12.5705 41.709 13.0013 41.7083H21.668C22.0988 41.709 22.5117 41.8804 22.8163 42.185C23.1209 42.4896 23.2923 42.9025 23.293 43.3333V47.6667ZM29.8478 44.9583H24.3763V43.3333C24.3757 42.6152 24.0901 41.9267 23.5824 41.4189C23.0746 40.9112 22.3861 40.6256 21.668 40.625H17.8763V26.5417H21.668C22.3861 26.541 23.0746 26.2555 23.5824 25.7477C24.0901 25.2399 24.3757 24.5514 24.3763 23.8333C24.3763 23.6897 24.3192 23.5519 24.2177 23.4503C24.1161 23.3487 23.9783 23.2917 23.8346 23.2917C23.691 23.2917 23.5532 23.3487 23.4516 23.4503C23.35 23.5519 23.293 23.6897 23.293 23.8333C23.2923 24.2641 23.1209 24.6771 22.8163 24.9817C22.5117 25.2863 22.0988 25.4577 21.668 25.4583H13.0013C12.5705 25.4577 12.1576 25.2863 11.853 24.9817C11.5483 24.6771 11.3769 24.2641 11.3763 23.8333V21.6667C11.3769 21.2359 11.5483 20.8229 11.853 20.5183C12.1576 20.2137 12.5705 20.0423 13.0013 20.0417H21.668C22.0988 20.0423 22.5117 20.2137 22.8163 20.5183C23.1209 20.8229 23.2923 21.2359 23.293 21.6667C23.293 21.8103 23.35 21.9481 23.4516 22.0497C23.5532 22.1513 23.691 22.2083 23.8346 22.2083C23.9783 22.2083 24.1161 22.1513 24.2177 22.0497C24.3192 21.9481 24.3763 21.8103 24.3763 21.6667C24.3757 20.9486 24.0901 20.2601 23.5824 19.7523C23.0746 19.2445 22.3861 18.959 21.668 18.9583H17.9311C18.0598 18.0581 18.5083 17.2343 19.1944 16.6376C19.8806 16.0408 20.7586 15.7109 21.668 15.7083H30.3346C31.244 15.7109 32.122 16.0408 32.8082 16.6376C33.4944 17.2343 33.9428 18.0581 34.0715 18.9583H30.3346C29.6165 18.959 28.928 19.2445 28.4203 19.7523C27.9125 20.2601 27.6269 20.9486 27.6263 21.6667V23.8333C27.6269 24.5514 27.9125 25.2399 28.4203 25.7477C28.928 26.2555 29.6165 26.541 30.3346 26.5417H34.1263V29.7917H30.3346C29.6165 29.7923 28.928 30.0778 28.4203 30.5856C27.9125 31.0934 27.6269 31.7819 27.6263 32.5V34.6667C27.6269 35.3848 27.9125 36.0733 28.4203 36.5811C28.928 37.0888 29.6165 37.3744 30.3346 37.375H34.1263V40.6798C33.0339 40.8027 32.0156 41.2929 31.2382 42.0703C30.4609 42.8476 29.9706 43.8659 29.8478 44.9583ZM42.9026 44.9583H39.4882C39.3653 43.8659 38.8751 42.8476 38.0977 42.0703C37.3204 41.2929 36.3021 40.8027 35.2096 40.6798V39.5417H41.168C42.0974 39.5448 42.9931 39.8898 43.6844 40.511C44.3757 41.1323 44.8142 41.9862 44.9163 42.91C44.4186 43.0203 43.9636 43.2725 43.6062 43.636C43.2488 43.9995 43.0044 44.4588 42.9026 44.9583ZM45.5013 47.125C45.1799 47.125 44.8657 47.0297 44.5985 46.8511C44.3313 46.6726 44.123 46.4188 44 46.1219C43.877 45.8249 43.8448 45.4982 43.9075 45.183C43.9702 44.8678 44.125 44.5782 44.3523 44.351C44.5795 44.1237 44.8691 43.9689 45.1843 43.9062C45.4995 43.8435 45.8262 43.8757 46.1232 43.9987C46.4201 44.1217 46.6739 44.33 46.8524 44.5972C47.031 44.8644 47.1263 45.1786 47.1263 45.5C47.1257 45.9308 46.9543 46.3437 46.6497 46.6484C46.345 46.953 45.9321 47.1244 45.5013 47.125Z" fill="white" stroke="white" stroke-width="0.1" mask="url(#path-1-inside-1_1091_291291)"/>
<mask id="path-2-inside-2_1091_291291" fill="white">
<path d="M26.543 11.375V14.625H25.4596V11.375H21.668C20.9499 11.3744 20.2614 11.0888 19.7536 10.5811C19.2458 10.0733 18.9603 9.38477 18.9596 8.66667C18.9596 8.52301 19.0167 8.38523 19.1183 8.28365C19.2199 8.18207 19.3576 8.125 19.5013 8.125C19.645 8.125 19.7827 8.18207 19.8843 8.28365C19.9859 8.38523 20.043 8.52301 20.043 8.66667C20.0436 9.09745 20.215 9.51041 20.5196 9.81502C20.8242 10.1196 21.2372 10.291 21.668 10.2917H30.3346C30.7654 10.291 31.1784 10.1196 31.483 9.81502C31.7876 9.51041 31.959 9.09745 31.9596 8.66667V6.50065C31.959 6.06987 31.7876 5.65691 31.483 5.3523C31.1784 5.04769 30.7654 4.87628 30.3346 4.87565H26.8979C26.1799 4.8739 25.4917 4.58875 24.983 4.08222L24.0858 3.185C23.7806 2.88125 23.368 2.70999 22.9374 2.70833H21.668C21.2372 2.70896 20.8242 2.88037 20.5196 3.18498C20.215 3.48959 20.0436 3.90255 20.043 4.33333V6.5C20.043 6.64366 19.9859 6.78143 19.8843 6.88302C19.7827 6.9846 19.645 7.04167 19.5013 7.04167C19.3576 7.04167 19.2199 6.9846 19.1183 6.88302C19.0167 6.78143 18.9596 6.64366 18.9596 6.5V4.33333C18.9603 3.61523 19.2458 2.92672 19.7536 2.41895C20.2614 1.91118 20.9499 1.62563 21.668 1.625H22.9374C23.6556 1.62658 24.344 1.91175 24.853 2.41843L25.7502 3.315C26.0554 3.61875 26.4679 3.79001 26.8985 3.79167H30.3346C31.0527 3.7923 31.7412 4.07784 32.249 4.58562C32.7568 5.09339 33.0423 5.7819 33.043 6.5V8.66667C33.0423 9.38477 32.7568 10.0733 32.249 10.5811C31.7412 11.0888 31.0527 11.3744 30.3346 11.375H26.543Z"/>
<path fill-rule="evenodd" clip-rule="evenodd" d="M29.8651 46.0417C29.9447 46.7972 30.2 47.5236 30.6108 48.1628C31.0215 48.8019 31.5762 49.336 32.2305 49.7222C32.2921 49.761 32.361 49.787 32.4329 49.7986C32.5048 49.8101 32.5784 49.8071 32.6491 49.7896C32.7198 49.7721 32.7863 49.7405 32.8445 49.6967C32.9028 49.653 32.9516 49.5979 32.988 49.5348C33.0245 49.4717 33.0478 49.4019 33.0567 49.3296C33.0655 49.2573 33.0597 49.1839 33.0396 49.1139C33.0194 49.0439 32.9853 48.9787 32.9394 48.9222C32.8934 48.8656 32.8365 48.8189 32.7721 48.7849C31.9747 48.3253 31.3716 47.5915 31.0751 46.7202C30.7787 45.8489 30.8091 44.8995 31.1607 44.049C31.5124 43.1984 32.1612 42.5047 32.9864 42.0971C33.8116 41.6895 34.7568 41.5959 35.646 41.8335C36.5351 42.0712 37.3075 42.6241 37.8193 43.389C38.331 44.154 38.5472 45.0789 38.4275 45.9915C38.3079 46.904 37.8605 47.742 37.1688 48.3491C36.4772 48.9563 35.5883 49.2913 34.668 49.2917C34.5243 49.2917 34.3865 49.3487 34.285 49.4503C34.1834 49.5519 34.1263 49.6897 34.1263 49.8333C34.1263 49.977 34.1834 50.1148 34.285 50.2164C34.3865 50.3179 34.5243 50.375 34.668 50.375C35.8635 50.371 37.0156 49.9271 37.9047 49.1278C38.7937 48.3286 39.3574 47.23 39.4882 46.0417H42.9026C43.0193 46.6472 43.3419 47.1937 43.8155 47.5885C44.2891 47.9834 44.8847 48.2024 45.5013 48.2083C46.2194 48.2077 46.9079 47.9222 47.4157 47.4144C47.9235 46.9066 48.209 46.2181 48.2096 45.5C48.2037 44.8755 47.9793 44.2727 47.5754 43.7964C47.1714 43.32 46.6135 43.0001 45.9983 42.8922L44.9163 42.91C44.4186 43.0203 43.9636 43.2725 43.6062 43.636C43.2488 43.9995 43.0044 44.4588 42.9026 44.9583H39.4882C39.3653 43.8659 38.8751 42.8476 38.0977 42.0703C37.3204 41.2929 36.3021 40.8027 35.2096 40.6798H34.1263C33.0339 40.8027 32.0156 41.2929 31.2382 42.0703C30.4609 42.8476 29.9706 43.8659 29.8478 44.9583L29.8651 46.0417ZM44.5985 46.8511C44.8657 47.0297 45.1799 47.125 45.5013 47.125C45.9321 47.1244 46.345 46.953 46.6497 46.6484C46.9543 46.3437 47.1257 45.9308 47.1263 45.5C47.1263 45.1786 47.031 44.8644 46.8524 44.5972C46.6739 44.33 46.4201 44.1217 46.1232 43.9987C45.8262 43.8757 45.4995 43.8435 45.1843 43.9062C44.8691 43.9689 44.5795 44.1237 44.3523 44.351C44.125 44.5782 43.9702 44.8678 43.9075 45.183C43.8448 45.4982 43.877 45.8249 44 46.1219C44.123 46.4188 44.3313 46.6726 44.5985 46.8511Z"/>
<path fill-rule="evenodd" clip-rule="evenodd" d="M5.95964 42.9C5.35395 43.0168 4.8073 43.3395 4.4124 43.8134C4.0175 44.2873 3.79866 44.8832 3.79297 45.5C3.7936 46.2181 4.07914 46.9066 4.58692 47.4144C5.09469 47.9222 5.7832 48.2077 6.5013 48.2083C7.11794 48.2024 7.71356 47.9834 8.18722 47.5886C8.66088 47.1937 8.98343 46.6472 9.10022 46.0417L9.1013 44.9583C8.99804 44.4513 8.74796 43.9858 8.38216 43.6198C8.01637 43.2539 7.55103 43.0035 7.04405 42.9H5.95964ZM5.5985 46.8511C5.86573 47.0297 6.17991 47.125 6.5013 47.125C6.93209 47.1244 7.34504 46.953 7.64965 46.6484C7.95426 46.3437 8.12567 45.9308 8.1263 45.5C8.1263 45.1786 8.031 44.8644 7.85244 44.5972C7.67388 44.33 7.42009 44.1217 7.12316 43.9987C6.82623 43.8757 6.4995 43.8435 6.18428 43.9062C5.86906 43.9689 5.57951 44.1237 5.35225 44.351C5.12499 44.5782 4.97023 44.8678 4.90753 45.183C4.84482 45.4982 4.87701 45.8249 5 46.1219C5.12299 46.4188 5.33127 46.6726 5.5985 46.8511Z"/>
</mask>
<path d="M26.543 11.375V14.625H25.4596V11.375H21.668C20.9499 11.3744 20.2614 11.0888 19.7536 10.5811C19.2458 10.0733 18.9603 9.38477 18.9596 8.66667C18.9596 8.52301 19.0167 8.38523 19.1183 8.28365C19.2199 8.18207 19.3576 8.125 19.5013 8.125C19.645 8.125 19.7827 8.18207 19.8843 8.28365C19.9859 8.38523 20.043 8.52301 20.043 8.66667C20.0436 9.09745 20.215 9.51041 20.5196 9.81502C20.8242 10.1196 21.2372 10.291 21.668 10.2917H30.3346C30.7654 10.291 31.1784 10.1196 31.483 9.81502C31.7876 9.51041 31.959 9.09745 31.9596 8.66667V6.50065C31.959 6.06987 31.7876 5.65691 31.483 5.3523C31.1784 5.04769 30.7654 4.87628 30.3346 4.87565H26.8979C26.1799 4.8739 25.4917 4.58875 24.983 4.08222L24.0858 3.185C23.7806 2.88125 23.368 2.70999 22.9374 2.70833H21.668C21.2372 2.70896 20.8242 2.88037 20.5196 3.18498C20.215 3.48959 20.0436 3.90255 20.043 4.33333V6.5C20.043 6.64366 19.9859 6.78143 19.8843 6.88302C19.7827 6.9846 19.645 7.04167 19.5013 7.04167C19.3576 7.04167 19.2199 6.9846 19.1183 6.88302C19.0167 6.78143 18.9596 6.64366 18.9596 6.5V4.33333C18.9603 3.61523 19.2458 2.92672 19.7536 2.41895C20.2614 1.91118 20.9499 1.62563 21.668 1.625H22.9374C23.6556 1.62658 24.344 1.91175 24.853 2.41843L25.7502 3.315C26.0554 3.61875 26.4679 3.79001 26.8985 3.79167H30.3346C31.0527 3.7923 31.7412 4.07784 32.249 4.58562C32.7568 5.09339 33.0423 5.7819 33.043 6.5V8.66667C33.0423 9.38477 32.7568 10.0733 32.249 10.5811C31.7412 11.0888 31.0527 11.3744 30.3346 11.375H26.543Z" fill="#E6B400"/>
<path fill-rule="evenodd" clip-rule="evenodd" d="M29.8651 46.0417C29.9447 46.7972 30.2 47.5236 30.6108 48.1628C31.0215 48.8019 31.5762 49.336 32.2305 49.7222C32.2921 49.761 32.361 49.787 32.4329 49.7986C32.5048 49.8101 32.5784 49.8071 32.6491 49.7896C32.7198 49.7721 32.7863 49.7405 32.8445 49.6967C32.9028 49.653 32.9516 49.5979 32.988 49.5348C33.0245 49.4717 33.0478 49.4019 33.0567 49.3296C33.0655 49.2573 33.0597 49.1839 33.0396 49.1139C33.0194 49.0439 32.9853 48.9787 32.9394 48.9222C32.8934 48.8656 32.8365 48.8189 32.7721 48.7849C31.9747 48.3253 31.3716 47.5915 31.0751 46.7202C30.7787 45.8489 30.8091 44.8995 31.1607 44.049C31.5124 43.1984 32.1612 42.5047 32.9864 42.0971C33.8116 41.6895 34.7568 41.5959 35.646 41.8335C36.5351 42.0712 37.3075 42.6241 37.8193 43.389C38.331 44.154 38.5472 45.0789 38.4275 45.9915C38.3079 46.904 37.8605 47.742 37.1688 48.3491C36.4772 48.9563 35.5883 49.2913 34.668 49.2917C34.5243 49.2917 34.3865 49.3487 34.285 49.4503C34.1834 49.5519 34.1263 49.6897 34.1263 49.8333C34.1263 49.977 34.1834 50.1148 34.285 50.2164C34.3865 50.3179 34.5243 50.375 34.668 50.375C35.8635 50.371 37.0156 49.9271 37.9047 49.1278C38.7937 48.3286 39.3574 47.23 39.4882 46.0417H42.9026C43.0193 46.6472 43.3419 47.1937 43.8155 47.5885C44.2891 47.9834 44.8847 48.2024 45.5013 48.2083C46.2194 48.2077 46.9079 47.9222 47.4157 47.4144C47.9235 46.9066 48.209 46.2181 48.2096 45.5C48.2037 44.8755 47.9793 44.2727 47.5754 43.7964C47.1714 43.32 46.6135 43.0001 45.9983 42.8922L44.9163 42.91C44.4186 43.0203 43.9636 43.2725 43.6062 43.636C43.2488 43.9995 43.0044 44.4588 42.9026 44.9583H39.4882C39.3653 43.8659 38.8751 42.8476 38.0977 42.0703C37.3204 41.2929 36.3021 40.8027 35.2096 40.6798H34.1263C33.0339 40.8027 32.0156 41.2929 31.2382 42.0703C30.4609 42.8476 29.9706 43.8659 29.8478 44.9583L29.8651 46.0417ZM44.5985 46.8511C44.8657 47.0297 45.1799 47.125 45.5013 47.125C45.9321 47.1244 46.345 46.953 46.6497 46.6484C46.9543 46.3437 47.1257 45.9308 47.1263 45.5C47.1263 45.1786 47.031 44.8644 46.8524 44.5972C46.6739 44.33 46.4201 44.1217 46.1232 43.9987C45.8262 43.8757 45.4995 43.8435 45.1843 43.9062C44.8691 43.9689 44.5795 44.1237 44.3523 44.351C44.125 44.5782 43.9702 44.8678 43.9075 45.183C43.8448 45.4982 43.877 45.8249 44 46.1219C44.123 46.4188 44.3313 46.6726 44.5985 46.8511Z" fill="#E6B400"/>
<path fill-rule="evenodd" clip-rule="evenodd" d="M5.95964 42.9C5.35395 43.0168 4.8073 43.3395 4.4124 43.8134C4.0175 44.2873 3.79866 44.8832 3.79297 45.5C3.7936 46.2181 4.07914 46.9066 4.58692 47.4144C5.09469 47.9222 5.7832 48.2077 6.5013 48.2083C7.11794 48.2024 7.71356 47.9834 8.18722 47.5886C8.66088 47.1937 8.98343 46.6472 9.10022 46.0417L9.1013 44.9583C8.99804 44.4513 8.74796 43.9858 8.38216 43.6198C8.01637 43.2539 7.55103 43.0035 7.04405 42.9H5.95964ZM5.5985 46.8511C5.86573 47.0297 6.17991 47.125 6.5013 47.125C6.93209 47.1244 7.34504 46.953 7.64965 46.6484C7.95426 46.3437 8.12567 45.9308 8.1263 45.5C8.1263 45.1786 8.031 44.8644 7.85244 44.5972C7.67388 44.33 7.42009 44.1217 7.12316 43.9987C6.82623 43.8757 6.4995 43.8435 6.18428 43.9062C5.86906 43.9689 5.57951 44.1237 5.35225 44.351C5.12499 44.5782 4.97023 44.8678 4.90753 45.183C4.84482 45.4982 4.87701 45.8249 5 46.1219C5.12299 46.4188 5.33127 46.6726 5.5985 46.8511Z" fill="#E6B400"/>
<path d="M43.6677 40.5296C44.3545 41.1467 44.7901 41.995 44.8915 42.9127L44.9412 42.9072C44.8384 41.9773 44.397 41.1178 43.7011 40.4924L43.6677 40.5296ZM45.9983 42.8922L46.0071 42.842L45.9975 42.8422L45.9983 42.8922ZM26.543 14.625V14.675H26.593V14.625H26.543ZM26.543 11.375V11.325H26.493V11.375H26.543ZM30.3346 11.375V11.425H30.3347L30.3346 11.375ZM33.043 8.66667L33.093 8.66671V8.66667H33.043ZM33.043 6.5H33.093V6.49996L33.043 6.5ZM30.3346 3.79167L30.3347 3.74167H30.3346V3.79167ZM26.8985 3.79167L26.8983 3.84167H26.8985V3.79167ZM25.7502 3.315L25.7148 3.35037L25.7149 3.35044L25.7502 3.315ZM24.853 2.41843L24.8883 2.38307L24.8882 2.383L24.853 2.41843ZM22.9374 1.625L22.9375 1.575H22.9374V1.625ZM21.668 1.625V1.575L21.6679 1.575L21.668 1.625ZM18.9596 4.33333L18.9096 4.33329V4.33333H18.9596ZM20.043 4.33333L19.993 4.33326V4.33333H20.043ZM21.668 2.70833V2.65833L21.6679 2.65833L21.668 2.70833ZM22.9374 2.70833L22.9376 2.65833H22.9374V2.70833ZM24.0858 3.185L24.1211 3.14964L24.121 3.14956L24.0858 3.185ZM24.983 4.08222L24.9476 4.11757L24.9477 4.11765L24.983 4.08222ZM26.8979 4.87565L26.8977 4.92565H26.8979V4.87565ZM30.3346 4.87565L30.3347 4.82565H30.3346V4.87565ZM31.9596 6.50065H32.0096V6.50058L31.9596 6.50065ZM31.9596 8.66667L32.0096 8.66674V8.66667H31.9596ZM30.3346 10.2917V10.3417H30.3347L30.3346 10.2917ZM21.668 10.2917L21.6679 10.3417H21.668V10.2917ZM20.043 8.66667H19.993V8.66674L20.043 8.66667ZM18.9596 8.66667H18.9096V8.66671L18.9596 8.66667ZM21.668 11.375L21.6679 11.425H21.668V11.375ZM25.4596 11.375H25.5096V11.325H25.4596V11.375ZM25.4596 14.625H25.4096V14.675H25.4596V14.625ZM5.95964 42.9V42.8491L5.95017 42.8509L5.95964 42.9ZM3.79297 45.5L3.74297 45.4995L3.74297 45.5L3.79297 45.5ZM6.5013 48.2083L6.50126 48.2583L6.50178 48.2583L6.5013 48.2083ZM9.10022 46.0417L9.15021 46.0513L9.15022 46.0417L9.10022 46.0417ZM29.8651 46.0417L29.8149 46.0425L29.8154 46.0469L29.8651 46.0417ZM32.2305 49.7222L32.2571 49.6799L32.2559 49.6791L32.2305 49.7222ZM32.7721 48.7849L32.7472 48.8282L32.7488 48.8291L32.7721 48.7849ZM34.668 49.2917V49.3417H34.668L34.668 49.2917ZM34.668 50.375V50.425H34.6681L34.668 50.375ZM39.4882 46.0417V45.9917H39.4434L39.4385 46.0362L39.4882 46.0417ZM42.9026 46.0417L42.9517 46.0322L42.9439 45.9917H42.9026V46.0417ZM45.5013 48.2083L45.5008 48.2583H45.5014L45.5013 48.2083ZM48.2096 45.5L48.2596 45.5L48.2596 45.4995L48.2096 45.5ZM6.5013 47.125V47.175H6.50138L6.5013 47.125ZM8.1263 45.5L8.1763 45.5001V45.5H8.1263ZM9.1013 44.9583L9.15234 44.9584L9.1503 44.9484L9.1013 44.9583ZM7.04405 42.9L7.05426 42.85H7.04405V42.9ZM29.8478 44.9583L29.7977 44.9527L29.7978 44.9591L29.8478 44.9583ZM34.1263 40.6798V40.6295L34.1207 40.6301L34.1263 40.6798ZM42.9026 44.9583V45.0083H42.9434L42.9516 44.9683L42.9026 44.9583ZM39.4882 44.9583L39.4385 44.9639L39.4435 45.0083H39.4882V44.9583ZM35.2096 40.6798L35.2153 40.6298H35.2096V40.6798ZM44.9163 42.91L44.9155 42.8589L44.9055 42.8612L44.9163 42.91ZM45.5013 47.125V47.175H45.5014L45.5013 47.125ZM47.1263 45.5L47.1763 45.5001V45.5H47.1263ZM26.593 14.625V11.375H26.493V14.625H26.593ZM26.543 11.425H30.3346V11.325H26.543V11.425ZM30.3347 11.425C31.066 11.4244 31.7672 11.1335 32.2844 10.6164L32.2137 10.5457C31.7153 11.0441 31.0394 11.3244 30.3346 11.325L30.3347 11.425ZM32.2844 10.6164C32.8015 10.0993 33.0923 9.39806 33.093 8.66671L32.993 8.66662C32.9924 9.37148 32.7121 10.0473 32.2137 10.5457L32.2844 10.6164ZM33.093 8.66667V6.5H32.993V8.66667H33.093ZM33.093 6.49996C33.0923 5.76861 32.8015 5.0674 32.2844 4.55026L32.2137 4.62097C32.7121 5.11938 32.9924 5.79519 32.993 6.50004L33.093 6.49996ZM32.2844 4.55026C31.7672 4.03312 31.066 3.74231 30.3347 3.74167L30.3346 3.84167C31.0394 3.84229 31.7153 4.12256 32.2137 4.62097L32.2844 4.55026ZM30.3346 3.74167H26.8985V3.84167H30.3346V3.74167ZM26.8987 3.74167C26.4813 3.74006 26.0813 3.57404 25.7855 3.27956L25.7149 3.35044C26.0294 3.66347 26.4546 3.83996 26.8983 3.84167L26.8987 3.74167ZM25.7855 3.27963L24.8883 2.38307L24.8176 2.4538L25.7148 3.35037L25.7855 3.27963ZM24.8882 2.383C24.37 1.86701 23.6689 1.57661 22.9375 1.575L22.9373 1.675C23.6423 1.67655 24.3181 1.95648 24.8177 2.45387L24.8882 2.383ZM22.9374 1.575H21.668V1.675H22.9374V1.575ZM21.6679 1.575C20.9366 1.57564 20.2354 1.86645 19.7182 2.38359L19.7889 2.4543C20.2873 1.9559 20.9632 1.67562 21.668 1.675L21.6679 1.575ZM19.7182 2.38359C19.2011 2.90073 18.9103 3.60194 18.9096 4.33329L19.0096 4.33338C19.0103 3.62852 19.2905 2.95271 19.7889 2.4543L19.7182 2.38359ZM18.9096 4.33333V6.5H19.0096V4.33333H18.9096ZM18.9096 6.5C18.9096 6.65692 18.972 6.80741 19.0829 6.91837L19.1536 6.84766C19.0614 6.75546 19.0096 6.6304 19.0096 6.5H18.9096ZM19.0829 6.91837C19.1939 7.02933 19.3444 7.09167 19.5013 7.09167V6.99167C19.3709 6.99167 19.2458 6.93987 19.1536 6.84766L19.0829 6.91837ZM19.5013 7.09167C19.6582 7.09167 19.8087 7.02933 19.9197 6.91837L19.849 6.84766C19.7568 6.93987 19.6317 6.99167 19.5013 6.99167V7.09167ZM19.9197 6.91837C20.0306 6.80741 20.093 6.65692 20.093 6.5H19.993C19.993 6.6304 19.9412 6.75546 19.849 6.84766L19.9197 6.91837ZM20.093 6.5V4.33333H19.993V6.5H20.093ZM20.093 4.33341C20.0936 3.91586 20.2597 3.51559 20.555 3.22034L20.4843 3.14963C20.1703 3.46359 19.9936 3.88924 19.993 4.33326L20.093 4.33341ZM20.555 3.22034C20.8502 2.92509 21.2505 2.75894 21.668 2.75833L21.6679 2.65833C21.2239 2.65898 20.7982 2.83566 20.4843 3.14963L20.555 3.22034ZM21.668 2.75833H22.9374V2.65833H21.668V2.75833ZM22.9372 2.75833C23.3547 2.75994 23.7546 2.92596 24.0505 3.22044L24.121 3.14956C23.8065 2.83653 23.3813 2.66004 22.9376 2.65833L22.9372 2.75833ZM24.0504 3.22036L24.9476 4.11757L25.0183 4.04686L24.1211 3.14964L24.0504 3.22036ZM24.9477 4.11765C25.4658 4.63348 26.1666 4.92387 26.8977 4.92565L26.898 4.82565C26.1932 4.82393 25.5177 4.54401 25.0182 4.04678L24.9477 4.11765ZM26.8979 4.92565H30.3346V4.82565H26.8979V4.92565ZM30.3346 4.92565C30.7521 4.92626 31.1524 5.0924 31.4476 5.38765L31.5183 5.31694C31.2044 5.00297 30.7787 4.8263 30.3347 4.82565L30.3346 4.92565ZM31.4476 5.38765C31.7429 5.6829 31.909 6.08318 31.9096 6.50072L32.0096 6.50058C32.009 6.05656 31.8323 5.63091 31.5183 5.31694L31.4476 5.38765ZM31.9096 6.50065V8.66667H32.0096V6.50065H31.9096ZM31.9096 8.66659C31.909 9.08414 31.7429 9.48441 31.4476 9.77966L31.5183 9.85038C31.8323 9.53641 32.009 9.11076 32.0096 8.66674L31.9096 8.66659ZM31.4476 9.77966C31.1524 10.0749 30.7521 10.2411 30.3346 10.2417L30.3347 10.3417C30.7787 10.341 31.2044 10.1643 31.5183 9.85038L31.4476 9.77966ZM30.3346 10.2417H21.668V10.3417H30.3346V10.2417ZM21.668 10.2417C21.2505 10.2411 20.8502 10.0749 20.555 9.77966L20.4843 9.85038C20.7982 10.1643 21.2239 10.341 21.6679 10.3417L21.668 10.2417ZM20.555 9.77966C20.2597 9.48441 20.0936 9.08414 20.093 8.66659L19.993 8.66674C19.9936 9.11076 20.1703 9.53641 20.4843 9.85038L20.555 9.77966ZM20.093 8.66667C20.093 8.50975 20.0306 8.35925 19.9197 8.2483L19.849 8.31901C19.9412 8.41121 19.993 8.53627 19.993 8.66667H20.093ZM19.9197 8.2483C19.8087 8.13734 19.6582 8.075 19.5013 8.075V8.175C19.6317 8.175 19.7568 8.2268 19.849 8.31901L19.9197 8.2483ZM19.5013 8.075C19.3444 8.075 19.1939 8.13734 19.0829 8.2483L19.1536 8.31901C19.2458 8.2268 19.3709 8.175 19.5013 8.175V8.075ZM19.0829 8.2483C18.972 8.35925 18.9096 8.50975 18.9096 8.66667H19.0096C19.0096 8.53627 19.0614 8.41121 19.1536 8.31901L19.0829 8.2483ZM18.9096 8.66671C18.9103 9.39806 19.2011 10.0993 19.7182 10.6164L19.7889 10.5457C19.2905 10.0473 19.0103 9.37148 19.0096 8.66662L18.9096 8.66671ZM19.7182 10.6164C20.2354 11.1335 20.9366 11.4244 21.6679 11.425L21.668 11.325C20.9632 11.3244 20.2873 11.0441 19.7889 10.5457L19.7182 10.6164ZM21.668 11.425H25.4596V11.325H21.668V11.425ZM25.4096 11.375V14.625H25.5096V11.375H25.4096ZM5.95017 42.8509C5.33315 42.9699 4.77628 43.2987 4.37399 43.7814L4.45081 43.8454C4.83833 43.3804 5.37475 43.0637 5.9691 42.9491L5.95017 42.8509ZM4.37399 43.7814C3.97171 44.2642 3.74876 44.8712 3.74297 45.4995L3.84297 45.5005C3.84855 44.8952 4.0633 44.3104 4.45081 43.8454L4.37399 43.7814ZM3.74297 45.5C3.74361 46.2314 4.03442 46.9326 4.55156 47.4497L4.62227 47.379C4.12387 46.8806 3.84359 46.2048 3.84297 45.5L3.74297 45.5ZM4.55156 47.4497C5.0687 47.9669 5.76991 48.2577 6.50126 48.2583L6.50135 48.1583C5.79649 48.1577 5.12068 47.8774 4.62227 47.379L4.55156 47.4497ZM6.50178 48.2583C7.12996 48.2523 7.73672 48.0292 8.21924 47.627L8.1552 47.5502C7.69041 47.9376 7.10593 48.1525 6.50082 48.1583L6.50178 48.2583ZM8.21924 47.627C8.70175 47.2247 9.03034 46.668 9.14931 46.0511L9.05112 46.0322C8.93652 46.6264 8.62 47.1627 8.1552 47.5502L8.21924 47.627ZM29.8154 46.0469C29.8958 46.8102 30.1538 47.5441 30.5687 48.1898L30.6529 48.1357C30.2463 47.5032 29.9936 46.7842 29.9148 46.0364L29.8154 46.0469ZM30.5687 48.1898C30.9837 48.8355 31.5441 49.375 32.2051 49.7652L32.2559 49.6791C31.6084 49.2969 31.0594 48.7683 30.6529 48.1357L30.5687 48.1898ZM32.2038 49.7645C32.2712 49.8069 32.3464 49.8353 32.425 49.8479L32.4409 49.7492C32.3756 49.7387 32.3131 49.7151 32.2571 49.6799L32.2038 49.7645ZM32.425 49.8479C32.5035 49.8606 32.5838 49.8572 32.6611 49.8381L32.6371 49.7411C32.5729 49.7569 32.5062 49.7597 32.4409 49.7492L32.425 49.8479ZM32.6611 49.8381C32.7384 49.819 32.811 49.7845 32.8746 49.7367L32.8145 49.6568C32.7616 49.6965 32.7013 49.7252 32.6371 49.7411L32.6611 49.8381ZM32.8746 49.7367C32.9382 49.6889 32.9915 49.6287 33.0313 49.5598L32.9447 49.5098C32.9116 49.567 32.8673 49.617 32.8145 49.6568L32.8746 49.7367ZM33.0313 49.5598C33.0711 49.4909 33.0966 49.4147 33.1063 49.3357L33.0071 49.3236C32.999 49.3892 32.9778 49.4525 32.9447 49.5098L33.0313 49.5598ZM33.1063 49.3357C33.116 49.2567 33.1096 49.1766 33.0876 49.1001L32.9915 49.1278C33.0098 49.1913 33.0151 49.2579 33.0071 49.3236L33.1063 49.3357ZM33.0876 49.1001C33.0656 49.0236 33.0284 48.9524 32.9782 48.8906L32.9006 48.9537C32.9423 49.005 32.9732 49.0642 32.9915 49.1278L33.0876 49.1001ZM32.9782 48.8906C32.928 48.8289 32.8659 48.7779 32.7955 48.7407L32.7488 48.8291C32.8072 48.86 32.8589 48.9024 32.9006 48.9537L32.9782 48.8906ZM32.7971 48.7416C32.0102 48.288 31.415 47.5639 31.1225 46.7041L31.0278 46.7363C31.3282 47.6191 31.9393 48.3626 32.7472 48.8282L32.7971 48.7416ZM31.1225 46.7041C30.8299 45.8443 30.8599 44.9074 31.2069 44.0681L31.1145 44.0299C30.7582 44.8916 30.7274 45.8535 31.0278 46.7363L31.1225 46.7041ZM31.2069 44.0681C31.5539 43.2287 32.1942 42.5442 33.0086 42.142L32.9643 42.0523C32.1282 42.4653 31.4708 43.1681 31.1145 44.0299L31.2069 44.0681ZM33.0086 42.142C33.8229 41.7397 34.7556 41.6473 35.6331 41.8819L35.6589 41.7852C34.758 41.5444 33.8003 41.6393 32.9643 42.0523L33.0086 42.142ZM35.6331 41.8819C36.5105 42.1164 37.2727 42.6619 37.7777 43.4168L37.8608 43.3612C37.3423 42.5862 36.5598 42.0261 35.6589 41.7852L35.6331 41.8819ZM37.7777 43.4168C38.2827 44.1717 38.4961 45.0845 38.378 45.985L38.4771 45.998C38.5984 45.0734 38.3793 44.1363 37.8608 43.3612L37.7777 43.4168ZM38.378 45.985C38.2599 46.8855 37.8184 47.7124 37.1359 48.3116L37.2018 48.3867C37.9026 47.7715 38.3559 46.9226 38.4771 45.998L38.378 45.985ZM37.1359 48.3116C36.4533 48.9107 35.5762 49.2413 34.6679 49.2417L34.668 49.3417C35.6005 49.3413 36.501 49.0019 37.2018 48.3867L37.1359 48.3116ZM34.668 49.2417C34.5111 49.2417 34.3606 49.304 34.2496 49.415L34.3203 49.4857C34.4125 49.3935 34.5376 49.3417 34.668 49.3417V49.2417ZM34.2496 49.415C34.1386 49.5259 34.0763 49.6764 34.0763 49.8333H34.1763C34.1763 49.7029 34.2281 49.5779 34.3203 49.4857L34.2496 49.415ZM34.0763 49.8333C34.0763 49.9903 34.1386 50.1407 34.2496 50.2517L34.3203 50.181C34.2281 50.0888 34.1763 49.9637 34.1763 49.8333H34.0763ZM34.2496 50.2517C34.3606 50.3627 34.5111 50.425 34.668 50.425V50.325C34.5376 50.325 34.4125 50.2732 34.3203 50.181L34.2496 50.2517ZM34.6681 50.425C35.8759 50.421 37.0399 49.9725 37.9381 49.165L37.8713 49.0907C36.9914 49.8817 35.851 50.3211 34.6678 50.325L34.6681 50.425ZM37.9381 49.165C38.8363 48.3576 39.4058 47.2477 39.5379 46.0471L39.4385 46.0362C39.3091 47.2123 38.7512 48.2996 37.8713 49.0907L37.9381 49.165ZM39.4882 46.0917H42.9026V45.9917H39.4882V46.0917ZM42.8535 46.0511C42.9724 46.6679 43.301 47.2247 43.7835 47.6269L43.8475 47.5501C43.3827 47.1626 43.0663 46.6264 42.9517 46.0322L42.8535 46.0511ZM43.7835 47.6269C44.2659 48.0292 44.8727 48.2523 45.5008 48.2583L45.5018 48.1583C44.8967 48.1525 44.3123 47.9376 43.8475 47.5501L43.7835 47.6269ZM45.5014 48.2583C46.2327 48.2577 46.9339 47.9669 47.451 47.4497L47.3803 47.379C46.8819 47.8774 46.2061 48.1577 45.5013 48.1583L45.5014 48.2583ZM47.451 47.4497C47.9682 46.9326 48.259 46.2314 48.2596 45.5L48.1596 45.5C48.159 46.2048 47.8787 46.8806 47.3803 47.379L47.451 47.4497ZM48.2596 45.4995C48.2536 44.8633 48.025 44.2493 47.6135 43.7641L47.5372 43.8287C47.9336 44.2962 48.1538 44.8876 48.1596 45.5005L48.2596 45.4995ZM47.6135 43.7641C47.202 43.2788 46.6336 42.9529 46.007 42.843L45.9897 42.9414C46.5933 43.0474 47.1409 43.3613 47.5372 43.8287L47.6135 43.7641ZM6.5013 47.075C6.1898 47.075 5.88529 46.9826 5.62628 46.8096L5.57072 46.8927C5.84617 47.0768 6.17002 47.175 6.5013 47.175V47.075ZM5.62628 46.8096C5.36727 46.6365 5.1654 46.3905 5.04619 46.1027L4.9538 46.141C5.08058 46.4471 5.29527 46.7087 5.57072 46.8927L5.62628 46.8096ZM5.04619 46.1027C4.92698 45.8149 4.89579 45.4983 4.95657 45.1927L4.85849 45.1732C4.79386 45.4981 4.82703 45.8349 4.9538 46.141L5.04619 46.1027ZM4.95657 45.1927C5.01734 44.8872 5.16734 44.6066 5.38761 44.3863L5.3169 44.3156C5.08265 44.5499 4.92312 44.8483 4.85849 45.1732L4.95657 45.1927ZM5.38761 44.3863C5.60788 44.166 5.88851 44.016 6.19403 43.9553L6.17453 43.8572C5.84961 43.9218 5.55115 44.0813 5.3169 44.3156L5.38761 44.3863ZM6.19403 43.9553C6.49956 43.8945 6.81623 43.9257 7.10403 44.0449L7.1423 43.9525C6.83623 43.8257 6.49944 43.7926 6.17453 43.8572L6.19403 43.9553ZM7.10403 44.0449C7.39182 44.1641 7.6378 44.366 7.81087 44.625L7.89401 44.5694C7.70996 44.294 7.44836 44.0793 7.1423 43.9525L7.10403 44.0449ZM7.81087 44.625C7.98393 44.884 8.0763 45.1885 8.0763 45.5H8.1763C8.1763 45.1687 8.07807 44.8449 7.89401 44.5694L7.81087 44.625ZM8.0763 45.4999C8.07569 45.9175 7.90955 46.3177 7.6143 46.613L7.68501 46.6837C7.99898 46.3697 8.17565 45.9441 8.1763 45.5001L8.0763 45.4999ZM7.6143 46.613C7.31905 46.9082 6.91878 47.0744 6.50123 47.075L6.50138 47.175C6.94539 47.1744 7.37104 46.9977 7.68501 46.6837L7.6143 46.613ZM9.1503 44.9484C9.04508 44.4317 8.79025 43.9574 8.41753 43.5845L8.3468 43.6552C8.70566 44.0142 8.951 44.4709 9.05231 44.9683L9.1503 44.9484ZM8.41753 43.5845C8.04481 43.2116 7.57064 42.9565 7.05406 42.851L7.03405 42.949C7.53142 43.0506 7.98794 43.2961 8.3468 43.6552L8.41753 43.5845ZM34.1207 40.6301C33.017 40.7542 31.9882 41.2495 31.2029 42.0349L31.2736 42.1056C32.0429 41.3363 33.0507 40.8511 34.1319 40.7295L34.1207 40.6301ZM31.2029 42.0349C30.4175 42.8202 29.9222 43.8491 29.7981 44.9527L29.8975 44.9639C30.019 43.8827 30.5042 42.8749 31.2736 42.1056L31.2029 42.0349ZM42.9026 44.9083H39.4882V45.0083H42.9026V44.9083ZM39.5378 44.9527C39.4137 43.8491 38.9184 42.8202 38.1331 42.0349L38.0624 42.1056C38.8317 42.8749 39.3169 43.8827 39.4385 44.9639L39.5378 44.9527ZM38.1331 42.0349C37.3477 41.2495 36.3189 40.7542 35.2152 40.6301L35.2041 40.7295C36.2852 40.8511 37.293 41.3363 38.0624 42.1056L38.1331 42.0349ZM44.9055 42.8612C44.3984 42.9736 43.9347 43.2305 43.5705 43.601L43.6418 43.6711C43.9924 43.3144 44.4389 43.067 44.9271 42.9588L44.9055 42.8612ZM43.5705 43.601C43.2064 43.9714 42.9574 44.4394 42.8536 44.9483L42.9516 44.9683C43.0515 44.4783 43.2912 44.0277 43.6418 43.6711L43.5705 43.601ZM45.5013 47.075C45.1898 47.075 44.8853 46.9826 44.6263 46.8096L44.5707 46.8927C44.8462 47.0768 45.17 47.175 45.5013 47.175V47.075ZM44.6263 46.8096C44.3673 46.6365 44.1654 46.3905 44.0462 46.1027L43.9538 46.141C44.0806 46.4471 44.2953 46.7087 44.5707 46.8927L44.6263 46.8096ZM44.0462 46.1027C43.927 45.8149 43.8958 45.4983 43.9566 45.1927L43.8585 45.1732C43.7939 45.4981 43.827 45.8349 43.9538 46.141L44.0462 46.1027ZM43.9566 45.1927C44.0173 44.8872 44.1673 44.6066 44.3876 44.3863L44.3169 44.3156C44.0826 44.5499 43.9231 44.8483 43.8585 45.1732L43.9566 45.1927ZM44.3876 44.3863C44.6079 44.166 44.8885 44.016 45.194 43.9553L45.1745 43.8572C44.8496 43.9218 44.5512 44.0813 44.3169 44.3156L44.3876 44.3863ZM45.194 43.9553C45.4996 43.8945 45.8162 43.9257 46.104 44.0449L46.1423 43.9525C45.8362 43.8257 45.4994 43.7926 45.1745 43.8572L45.194 43.9553ZM46.104 44.0449C46.3918 44.1641 46.6378 44.366 46.8109 44.625L46.894 44.5694C46.71 44.294 46.4484 44.0793 46.1423 43.9525L46.104 44.0449ZM46.8109 44.625C46.9839 44.884 47.0763 45.1885 47.0763 45.5H47.1763C47.1763 45.1687 47.0781 44.8449 46.894 44.5694L46.8109 44.625ZM47.0763 45.4999C47.0757 45.9175 46.9095 46.3177 46.6143 46.613L46.685 46.6837C46.999 46.3697 47.1757 45.9441 47.1763 45.5001L47.0763 45.4999ZM46.6143 46.613C46.319 46.9082 45.9188 47.0744 45.5012 47.075L45.5014 47.175C45.9454 47.1744 46.371 46.9977 46.685 46.6837L46.6143 46.613ZM25.4596 14.675H26.543V14.575H25.4596V14.675ZM44.9171 42.96L45.9992 42.9422L45.9975 42.8422L44.9155 42.86L44.9171 42.96ZM34.1263 40.7298H35.2096V40.6298H34.1263V40.7298ZM29.7978 44.9591L29.8151 46.0425L29.9151 46.0409L29.8978 44.9575L29.7978 44.9591ZM9.15022 46.0417L9.1513 44.9584L9.0513 44.9583L9.05022 46.0416L9.15022 46.0417ZM5.95964 42.95H7.04405V42.85H5.95964V42.95Z" fill="white" mask="url(#path-2-inside-2_1091_291291)"/>
</svg>
