<svg width="36" height="36" viewBox="0 0 36 36" fill="none" xmlns="http://www.w3.org/2000/svg">
<mask id="path-1-inside-1_1091_304009" fill="white">
<path d="M31.8441 29.6946C31.7696 28.8582 31.3854 28.0797 30.7668 27.5119C30.1481 26.9441 29.3397 26.6277 28.5 26.625H24.375V25.875H27C27.4971 25.8746 27.9738 25.6769 28.3253 25.3253C28.6769 24.9738 28.8746 24.4971 28.875 24V22.5C28.8746 22.0029 28.6769 21.5262 28.3253 21.1747C27.9738 20.8231 27.4971 20.6254 27 20.625H24.375V18.375H27C27.4971 18.3746 27.9738 18.1769 28.3253 17.8253C28.6769 17.4738 28.8746 16.9971 28.875 16.5V15C28.8746 14.5029 28.6769 14.0262 28.3253 13.6747C27.9738 13.3231 27.4971 13.1254 27 13.125H24.3371C24.2465 12.3023 23.8563 11.5417 23.2408 10.9884C22.6253 10.4351 21.8276 10.1277 21 10.125H18.375V7.875H21C21.4971 7.87456 21.9738 7.67688 22.3253 7.32534C22.6769 6.97381 22.8746 6.49715 22.875 6V4.5C22.8746 4.00285 22.6769 3.52619 22.3253 3.17466C21.9738 2.82312 21.4971 2.62544 21 2.625H18.6211C18.3231 2.62386 18.0374 2.50529 17.8261 2.295L17.205 1.6743C16.8527 1.32352 16.376 1.12609 15.8789 1.125H15C14.5029 1.12544 14.0262 1.32312 13.6747 1.67466C13.3231 2.02619 13.1254 2.50285 13.125 3V4.5C13.125 4.59946 13.1645 4.69484 13.2348 4.76516C13.3052 4.83549 13.4005 4.875 13.5 4.875C13.5995 4.875 13.6948 4.83549 13.7652 4.76516C13.8355 4.69484 13.875 4.59946 13.875 4.5V3C13.8754 2.70177 13.9941 2.41587 14.205 2.20499C14.4159 1.9941 14.7018 1.87544 15 1.875H15.8789C16.1769 1.87614 16.4626 1.99471 16.6739 2.205L17.295 2.82615C17.6472 3.17682 18.1237 3.37424 18.6207 3.37545H21C21.2982 3.37589 21.5841 3.49455 21.795 3.70544C22.0059 3.91632 22.1246 4.20222 22.125 4.50045V6C22.1246 6.29823 22.0059 6.58413 21.795 6.79501C21.5841 7.0059 21.2982 7.12456 21 7.125H15C14.7018 7.12456 14.4159 7.0059 14.205 6.79501C13.9941 6.58413 13.8754 6.29823 13.875 6C13.875 5.90054 13.8355 5.80516 13.7652 5.73484C13.6948 5.66451 13.5995 5.625 13.5 5.625C13.4005 5.625 13.3052 5.66451 13.2348 5.73484C13.1645 5.80516 13.125 5.90054 13.125 6C13.1254 6.49715 13.3231 6.97381 13.6747 7.32534C14.0262 7.67688 14.5029 7.87456 15 7.875H17.625V10.125H15C14.1724 10.1277 13.3747 10.4351 12.7592 10.9884C12.1437 11.5417 11.7535 12.3023 11.663 13.125H9C8.50285 13.1254 8.02619 13.3231 7.67466 13.6747C7.32312 14.0262 7.12544 14.5029 7.125 15V16.5C7.12544 16.9971 7.32312 17.4738 7.67466 17.8253C8.02619 18.1769 8.50285 18.3746 9 18.375H11.625V23.625H7.5C6.60524 23.6261 5.74744 23.982 5.11474 24.6147C4.48205 25.2474 4.12611 26.1052 4.125 27V29.7C3.70568 29.7809 3.32723 30.0043 3.05384 30.3324C2.78045 30.6604 2.62894 31.073 2.625 31.5C2.62544 31.9971 2.82312 32.4738 3.17466 32.8253C3.52619 33.1769 4.00285 33.3746 4.5 33.375C4.9269 33.3709 5.33926 33.2193 5.66717 32.9459C5.99509 32.6725 6.2184 32.2942 6.29925 31.875H7.125V33C7.12544 33.4971 7.32312 33.9738 7.67466 34.3253C8.02619 34.6769 8.50285 34.8746 9 34.875H15C15.4971 34.8746 15.9738 34.6769 16.3253 34.3253C16.6769 33.9738 16.8746 33.4971 16.875 33V31.875H20.6749C20.73 32.3981 20.9068 32.901 21.1912 33.3435C21.4755 33.7859 21.8596 34.1557 22.3125 34.423C22.3552 34.4499 22.4029 34.4679 22.4527 34.4759C22.5024 34.4839 22.5534 34.4818 22.6023 34.4697C22.6513 34.4576 22.6973 34.4357 22.7376 34.4054C22.7779 34.3751 22.8117 34.337 22.837 34.2933C22.8622 34.2497 22.8784 34.2013 22.8845 34.1513C22.8906 34.1012 22.8866 34.0504 22.8726 34.002C22.8587 33.9535 22.8351 33.9083 22.8033 33.8692C22.7715 33.83 22.7321 33.7977 22.6875 33.7742C22.1354 33.456 21.7179 32.948 21.5127 32.3447C21.3074 31.7415 21.3285 31.0843 21.5719 30.4954C21.8153 29.9066 22.2646 29.4263 22.8358 29.1442C23.4071 28.862 24.0615 28.7971 24.6771 28.9617C25.2926 29.1262 25.8274 29.509 26.1817 30.0386C26.536 30.5682 26.6856 31.2085 26.6028 31.8403C26.5199 32.472 26.2102 33.0521 25.7314 33.4725C25.2525 33.8928 24.6372 34.1247 24 34.125C23.9005 34.125 23.8052 34.1645 23.7348 34.2348C23.6645 34.3052 23.625 34.4005 23.625 34.5C23.625 34.5995 23.6645 34.6948 23.7348 34.7652C23.8052 34.8355 23.9005 34.875 24 34.875C24.8276 34.8723 25.6253 34.5649 26.2408 34.0116C26.8563 33.4582 27.2465 32.6977 27.3371 31.875H29.7009C29.7817 32.2942 30.005 32.6725 30.3329 32.9459C30.6608 33.2193 31.0731 33.3709 31.5 33.375C31.9971 33.3746 32.4738 33.1769 32.8253 32.8253C33.1769 32.4738 33.3746 31.9971 33.375 31.5C33.3709 31.0676 33.2155 30.6504 32.9359 30.3206C32.6563 29.9908 32.27 29.7693 31.8441 29.6946ZM28.125 22.5V24C28.1246 24.2982 28.0059 24.5841 27.795 24.795C27.5841 25.0059 27.2982 25.1246 27 25.125H21C20.7018 25.1246 20.4159 25.0059 20.205 24.795C19.9941 24.5841 19.8754 24.2982 19.875 24V22.5C19.8754 22.2018 19.9941 21.9159 20.205 21.705C20.4159 21.4941 20.7018 21.3754 21 21.375H27C27.2982 21.3754 27.5841 21.4941 27.795 21.705C28.0059 21.9159 28.1246 22.2018 28.125 22.5ZM28.125 15V16.5C28.1246 16.7982 28.0059 17.0841 27.795 17.295C27.5841 17.5059 27.2982 17.6246 27 17.625H21C20.7018 17.6246 20.4159 17.5059 20.205 17.295C19.9941 17.0841 19.8754 16.7982 19.875 16.5V15C19.8754 14.7018 19.9941 14.4159 20.205 14.205C20.4159 13.9941 20.7018 13.8754 21 13.875H27C27.2982 13.8754 27.5841 13.9941 27.795 14.205C28.0059 14.4159 28.1246 14.7018 28.125 15ZM4.5 32.625C4.2775 32.625 4.05999 32.559 3.87498 32.4354C3.68998 32.3118 3.54578 32.1361 3.46064 31.9305C3.37549 31.725 3.35321 31.4988 3.39662 31.2805C3.44002 31.0623 3.54717 30.8618 3.7045 30.7045C3.86184 30.5472 4.06229 30.44 4.28052 30.3966C4.49875 30.3532 4.72495 30.3755 4.93052 30.4606C5.13609 30.5458 5.31179 30.69 5.4354 30.875C5.55902 31.06 5.625 31.2775 5.625 31.5C5.62456 31.7982 5.5059 32.0841 5.29501 32.295C5.08413 32.5059 4.79823 32.6246 4.5 32.625ZM7.125 30V31.125H6.3C6.22851 30.774 6.05538 30.4517 5.80214 30.1984C5.5489 29.945 5.22674 29.7717 4.87575 29.7V27C4.87662 26.3042 5.15336 25.6371 5.64529 25.1451C6.13723 24.653 6.8042 24.3761 7.5 24.375H11.625V28.125H9C8.50285 28.1254 8.02619 28.3231 7.67466 28.6747C7.32312 29.0262 7.12544 29.5029 7.125 30ZM16.125 33C16.1246 33.2982 16.0059 33.5841 15.795 33.795C15.5841 34.0059 15.2982 34.1246 15 34.125H9C8.70177 34.1246 8.41587 34.0059 8.20499 33.795C7.9941 33.5841 7.87544 33.2982 7.875 33V30C7.87544 29.7018 7.9941 29.4159 8.20499 29.205C8.41587 28.9941 8.70177 28.8754 9 28.875H15C15.2982 28.8754 15.5841 28.9941 15.795 29.205C16.0059 29.4159 16.1246 29.7018 16.125 30V33ZM20.663 31.125H16.875V30C16.8746 29.5029 16.6769 29.0262 16.3253 28.6747C15.9738 28.3231 15.4971 28.1254 15 28.125H12.375V18.375H15C15.4971 18.3746 15.9738 18.1769 16.3253 17.8253C16.6769 17.4738 16.8746 16.9971 16.875 16.5C16.875 16.4005 16.8355 16.3052 16.7652 16.2348C16.6948 16.1645 16.5995 16.125 16.5 16.125C16.4005 16.125 16.3052 16.1645 16.2348 16.2348C16.1645 16.3052 16.125 16.4005 16.125 16.5C16.1246 16.7982 16.0059 17.0841 15.795 17.295C15.5841 17.5059 15.2982 17.6246 15 17.625H9C8.70177 17.6246 8.41587 17.5059 8.20499 17.295C7.9941 17.0841 7.87544 16.7982 7.875 16.5V15C7.87544 14.7018 7.9941 14.4159 8.20499 14.205C8.41587 13.9941 8.70177 13.8754 9 13.875H15C15.2982 13.8754 15.5841 13.9941 15.795 14.205C16.0059 14.4159 16.1246 14.7018 16.125 15C16.125 15.0995 16.1645 15.1948 16.2348 15.2652C16.3052 15.3355 16.4005 15.375 16.5 15.375C16.5995 15.375 16.6948 15.3355 16.7652 15.2652C16.8355 15.1948 16.875 15.0995 16.875 15C16.8746 14.5029 16.6769 14.0262 16.3253 13.6747C15.9738 13.3231 15.4971 13.1254 15 13.125H12.413C12.5021 12.5018 12.8125 11.9314 13.2875 11.5183C13.7626 11.1052 14.3704 10.8768 15 10.875H21C21.6296 10.8768 22.2374 11.1052 22.7125 11.5183C23.1875 11.9314 23.4979 12.5018 23.587 13.125H21C20.5029 13.1254 20.0262 13.3231 19.6747 13.6747C19.3231 14.0262 19.1254 14.5029 19.125 15V16.5C19.1254 16.9971 19.3231 17.4738 19.6747 17.8253C20.0262 18.1769 20.5029 18.3746 21 18.375H23.625V20.625H21C20.5029 20.6254 20.0262 20.8231 19.6747 21.1747C19.3231 21.5262 19.1254 22.0029 19.125 22.5V24C19.1254 24.4971 19.3231 24.9738 19.6747 25.3253C20.0262 25.6769 20.5029 25.8746 21 25.875H23.625V28.1629C22.8687 28.248 22.1637 28.5874 21.6256 29.1256C21.0874 29.6637 20.748 30.3687 20.663 31.125ZM29.7009 31.125H27.3371C27.252 30.3687 26.9126 29.6637 26.3744 29.1256C25.8363 28.5874 25.1313 28.248 24.375 28.1629V27.375H28.5C29.1434 27.3771 29.7636 27.616 30.2422 28.0461C30.7208 28.4762 31.0243 29.0674 31.095 29.7069C30.7504 29.7833 30.4354 29.9579 30.188 30.2095C29.9406 30.4612 29.7714 30.7792 29.7009 31.125ZM31.5 32.625C31.2775 32.625 31.06 32.559 30.875 32.4354C30.69 32.3118 30.5458 32.1361 30.4606 31.9305C30.3755 31.725 30.3532 31.4988 30.3966 31.2805C30.44 31.0623 30.5472 30.8618 30.7045 30.7045C30.8618 30.5472 31.0623 30.44 31.2805 30.3966C31.4988 30.3532 31.725 30.3755 31.9305 30.4606C32.1361 30.5458 32.3118 30.69 32.4354 30.875C32.559 31.06 32.625 31.2775 32.625 31.5C32.6246 31.7982 32.5059 32.0841 32.295 32.295C32.0841 32.5059 31.7982 32.6246 31.5 32.625Z"/>
</mask>
<path d="M31.8441 29.6946C31.7696 28.8582 31.3854 28.0797 30.7668 27.5119C30.1481 26.9441 29.3397 26.6277 28.5 26.625H24.375V25.875H27C27.4971 25.8746 27.9738 25.6769 28.3253 25.3253C28.6769 24.9738 28.8746 24.4971 28.875 24V22.5C28.8746 22.0029 28.6769 21.5262 28.3253 21.1747C27.9738 20.8231 27.4971 20.6254 27 20.625H24.375V18.375H27C27.4971 18.3746 27.9738 18.1769 28.3253 17.8253C28.6769 17.4738 28.8746 16.9971 28.875 16.5V15C28.8746 14.5029 28.6769 14.0262 28.3253 13.6747C27.9738 13.3231 27.4971 13.1254 27 13.125H24.3371C24.2465 12.3023 23.8563 11.5417 23.2408 10.9884C22.6253 10.4351 21.8276 10.1277 21 10.125H18.375V7.875H21C21.4971 7.87456 21.9738 7.67688 22.3253 7.32534C22.6769 6.97381 22.8746 6.49715 22.875 6V4.5C22.8746 4.00285 22.6769 3.52619 22.3253 3.17466C21.9738 2.82312 21.4971 2.62544 21 2.625H18.6211C18.3231 2.62386 18.0374 2.50529 17.8261 2.295L17.205 1.6743C16.8527 1.32352 16.376 1.12609 15.8789 1.125H15C14.5029 1.12544 14.0262 1.32312 13.6747 1.67466C13.3231 2.02619 13.1254 2.50285 13.125 3V4.5C13.125 4.59946 13.1645 4.69484 13.2348 4.76516C13.3052 4.83549 13.4005 4.875 13.5 4.875C13.5995 4.875 13.6948 4.83549 13.7652 4.76516C13.8355 4.69484 13.875 4.59946 13.875 4.5V3C13.8754 2.70177 13.9941 2.41587 14.205 2.20499C14.4159 1.9941 14.7018 1.87544 15 1.875H15.8789C16.1769 1.87614 16.4626 1.99471 16.6739 2.205L17.295 2.82615C17.6472 3.17682 18.1237 3.37424 18.6207 3.37545H21C21.2982 3.37589 21.5841 3.49455 21.795 3.70544C22.0059 3.91632 22.1246 4.20222 22.125 4.50045V6C22.1246 6.29823 22.0059 6.58413 21.795 6.79501C21.5841 7.0059 21.2982 7.12456 21 7.125H15C14.7018 7.12456 14.4159 7.0059 14.205 6.79501C13.9941 6.58413 13.8754 6.29823 13.875 6C13.875 5.90054 13.8355 5.80516 13.7652 5.73484C13.6948 5.66451 13.5995 5.625 13.5 5.625C13.4005 5.625 13.3052 5.66451 13.2348 5.73484C13.1645 5.80516 13.125 5.90054 13.125 6C13.1254 6.49715 13.3231 6.97381 13.6747 7.32534C14.0262 7.67688 14.5029 7.87456 15 7.875H17.625V10.125H15C14.1724 10.1277 13.3747 10.4351 12.7592 10.9884C12.1437 11.5417 11.7535 12.3023 11.663 13.125H9C8.50285 13.1254 8.02619 13.3231 7.67466 13.6747C7.32312 14.0262 7.12544 14.5029 7.125 15V16.5C7.12544 16.9971 7.32312 17.4738 7.67466 17.8253C8.02619 18.1769 8.50285 18.3746 9 18.375H11.625V23.625H7.5C6.60524 23.6261 5.74744 23.982 5.11474 24.6147C4.48205 25.2474 4.12611 26.1052 4.125 27V29.7C3.70568 29.7809 3.32723 30.0043 3.05384 30.3324C2.78045 30.6604 2.62894 31.073 2.625 31.5C2.62544 31.9971 2.82312 32.4738 3.17466 32.8253C3.52619 33.1769 4.00285 33.3746 4.5 33.375C4.9269 33.3709 5.33926 33.2193 5.66717 32.9459C5.99509 32.6725 6.2184 32.2942 6.29925 31.875H7.125V33C7.12544 33.4971 7.32312 33.9738 7.67466 34.3253C8.02619 34.6769 8.50285 34.8746 9 34.875H15C15.4971 34.8746 15.9738 34.6769 16.3253 34.3253C16.6769 33.9738 16.8746 33.4971 16.875 33V31.875H20.6749C20.73 32.3981 20.9068 32.901 21.1912 33.3435C21.4755 33.7859 21.8596 34.1557 22.3125 34.423C22.3552 34.4499 22.4029 34.4679 22.4527 34.4759C22.5024 34.4839 22.5534 34.4818 22.6023 34.4697C22.6513 34.4576 22.6973 34.4357 22.7376 34.4054C22.7779 34.3751 22.8117 34.337 22.837 34.2933C22.8622 34.2497 22.8784 34.2013 22.8845 34.1513C22.8906 34.1012 22.8866 34.0504 22.8726 34.002C22.8587 33.9535 22.8351 33.9083 22.8033 33.8692C22.7715 33.83 22.7321 33.7977 22.6875 33.7742C22.1354 33.456 21.7179 32.948 21.5127 32.3447C21.3074 31.7415 21.3285 31.0843 21.5719 30.4954C21.8153 29.9066 22.2646 29.4263 22.8358 29.1442C23.4071 28.862 24.0615 28.7971 24.6771 28.9617C25.2926 29.1262 25.8274 29.509 26.1817 30.0386C26.536 30.5682 26.6856 31.2085 26.6028 31.8403C26.5199 32.472 26.2102 33.0521 25.7314 33.4725C25.2525 33.8928 24.6372 34.1247 24 34.125C23.9005 34.125 23.8052 34.1645 23.7348 34.2348C23.6645 34.3052 23.625 34.4005 23.625 34.5C23.625 34.5995 23.6645 34.6948 23.7348 34.7652C23.8052 34.8355 23.9005 34.875 24 34.875C24.8276 34.8723 25.6253 34.5649 26.2408 34.0116C26.8563 33.4582 27.2465 32.6977 27.3371 31.875H29.7009C29.7817 32.2942 30.005 32.6725 30.3329 32.9459C30.6608 33.2193 31.0731 33.3709 31.5 33.375C31.9971 33.3746 32.4738 33.1769 32.8253 32.8253C33.1769 32.4738 33.3746 31.9971 33.375 31.5C33.3709 31.0676 33.2155 30.6504 32.9359 30.3206C32.6563 29.9908 32.27 29.7693 31.8441 29.6946ZM28.125 22.5V24C28.1246 24.2982 28.0059 24.5841 27.795 24.795C27.5841 25.0059 27.2982 25.1246 27 25.125H21C20.7018 25.1246 20.4159 25.0059 20.205 24.795C19.9941 24.5841 19.8754 24.2982 19.875 24V22.5C19.8754 22.2018 19.9941 21.9159 20.205 21.705C20.4159 21.4941 20.7018 21.3754 21 21.375H27C27.2982 21.3754 27.5841 21.4941 27.795 21.705C28.0059 21.9159 28.1246 22.2018 28.125 22.5ZM28.125 15V16.5C28.1246 16.7982 28.0059 17.0841 27.795 17.295C27.5841 17.5059 27.2982 17.6246 27 17.625H21C20.7018 17.6246 20.4159 17.5059 20.205 17.295C19.9941 17.0841 19.8754 16.7982 19.875 16.5V15C19.8754 14.7018 19.9941 14.4159 20.205 14.205C20.4159 13.9941 20.7018 13.8754 21 13.875H27C27.2982 13.8754 27.5841 13.9941 27.795 14.205C28.0059 14.4159 28.1246 14.7018 28.125 15ZM4.5 32.625C4.2775 32.625 4.05999 32.559 3.87498 32.4354C3.68998 32.3118 3.54578 32.1361 3.46064 31.9305C3.37549 31.725 3.35321 31.4988 3.39662 31.2805C3.44002 31.0623 3.54717 30.8618 3.7045 30.7045C3.86184 30.5472 4.06229 30.44 4.28052 30.3966C4.49875 30.3532 4.72495 30.3755 4.93052 30.4606C5.13609 30.5458 5.31179 30.69 5.4354 30.875C5.55902 31.06 5.625 31.2775 5.625 31.5C5.62456 31.7982 5.5059 32.0841 5.29501 32.295C5.08413 32.5059 4.79823 32.6246 4.5 32.625ZM7.125 30V31.125H6.3C6.22851 30.774 6.05538 30.4517 5.80214 30.1984C5.5489 29.945 5.22674 29.7717 4.87575 29.7V27C4.87662 26.3042 5.15336 25.6371 5.64529 25.1451C6.13723 24.653 6.8042 24.3761 7.5 24.375H11.625V28.125H9C8.50285 28.1254 8.02619 28.3231 7.67466 28.6747C7.32312 29.0262 7.12544 29.5029 7.125 30ZM16.125 33C16.1246 33.2982 16.0059 33.5841 15.795 33.795C15.5841 34.0059 15.2982 34.1246 15 34.125H9C8.70177 34.1246 8.41587 34.0059 8.20499 33.795C7.9941 33.5841 7.87544 33.2982 7.875 33V30C7.87544 29.7018 7.9941 29.4159 8.20499 29.205C8.41587 28.9941 8.70177 28.8754 9 28.875H15C15.2982 28.8754 15.5841 28.9941 15.795 29.205C16.0059 29.4159 16.1246 29.7018 16.125 30V33ZM20.663 31.125H16.875V30C16.8746 29.5029 16.6769 29.0262 16.3253 28.6747C15.9738 28.3231 15.4971 28.1254 15 28.125H12.375V18.375H15C15.4971 18.3746 15.9738 18.1769 16.3253 17.8253C16.6769 17.4738 16.8746 16.9971 16.875 16.5C16.875 16.4005 16.8355 16.3052 16.7652 16.2348C16.6948 16.1645 16.5995 16.125 16.5 16.125C16.4005 16.125 16.3052 16.1645 16.2348 16.2348C16.1645 16.3052 16.125 16.4005 16.125 16.5C16.1246 16.7982 16.0059 17.0841 15.795 17.295C15.5841 17.5059 15.2982 17.6246 15 17.625H9C8.70177 17.6246 8.41587 17.5059 8.20499 17.295C7.9941 17.0841 7.87544 16.7982 7.875 16.5V15C7.87544 14.7018 7.9941 14.4159 8.20499 14.205C8.41587 13.9941 8.70177 13.8754 9 13.875H15C15.2982 13.8754 15.5841 13.9941 15.795 14.205C16.0059 14.4159 16.1246 14.7018 16.125 15C16.125 15.0995 16.1645 15.1948 16.2348 15.2652C16.3052 15.3355 16.4005 15.375 16.5 15.375C16.5995 15.375 16.6948 15.3355 16.7652 15.2652C16.8355 15.1948 16.875 15.0995 16.875 15C16.8746 14.5029 16.6769 14.0262 16.3253 13.6747C15.9738 13.3231 15.4971 13.1254 15 13.125H12.413C12.5021 12.5018 12.8125 11.9314 13.2875 11.5183C13.7626 11.1052 14.3704 10.8768 15 10.875H21C21.6296 10.8768 22.2374 11.1052 22.7125 11.5183C23.1875 11.9314 23.4979 12.5018 23.587 13.125H21C20.5029 13.1254 20.0262 13.3231 19.6747 13.6747C19.3231 14.0262 19.1254 14.5029 19.125 15V16.5C19.1254 16.9971 19.3231 17.4738 19.6747 17.8253C20.0262 18.1769 20.5029 18.3746 21 18.375H23.625V20.625H21C20.5029 20.6254 20.0262 20.8231 19.6747 21.1747C19.3231 21.5262 19.1254 22.0029 19.125 22.5V24C19.1254 24.4971 19.3231 24.9738 19.6747 25.3253C20.0262 25.6769 20.5029 25.8746 21 25.875H23.625V28.1629C22.8687 28.248 22.1637 28.5874 21.6256 29.1256C21.0874 29.6637 20.748 30.3687 20.663 31.125ZM29.7009 31.125H27.3371C27.252 30.3687 26.9126 29.6637 26.3744 29.1256C25.8363 28.5874 25.1313 28.248 24.375 28.1629V27.375H28.5C29.1434 27.3771 29.7636 27.616 30.2422 28.0461C30.7208 28.4762 31.0243 29.0674 31.095 29.7069C30.7504 29.7833 30.4354 29.9579 30.188 30.2095C29.9406 30.4612 29.7714 30.7792 29.7009 31.125ZM31.5 32.625C31.2775 32.625 31.06 32.559 30.875 32.4354C30.69 32.3118 30.5458 32.1361 30.4606 31.9305C30.3755 31.725 30.3532 31.4988 30.3966 31.2805C30.44 31.0623 30.5472 30.8618 30.7045 30.7045C30.8618 30.5472 31.0623 30.44 31.2805 30.3966C31.4988 30.3532 31.725 30.3755 31.9305 30.4606C32.1361 30.5458 32.3118 30.69 32.4354 30.875C32.559 31.06 32.625 31.2775 32.625 31.5C32.6246 31.7982 32.5059 32.0841 32.295 32.295C32.0841 32.5059 31.7982 32.6246 31.5 32.625Z" fill="black" stroke="white" stroke-width="0.0692308" mask="url(#path-1-inside-1_1091_304009)"/>
<mask id="path-2-inside-2_1091_304009" fill="white">
<path d="M18.375 7.875V10.125H17.625V7.875H15C14.5029 7.87456 14.0262 7.67688 13.6747 7.32534C13.3231 6.97381 13.1254 6.49715 13.125 6C13.125 5.90054 13.1645 5.80516 13.2348 5.73484C13.3052 5.66451 13.4005 5.625 13.5 5.625C13.5995 5.625 13.6948 5.66451 13.7652 5.73484C13.8355 5.80516 13.875 5.90054 13.875 6C13.8754 6.29823 13.9941 6.58413 14.205 6.79501C14.4159 7.0059 14.7018 7.12456 15 7.125H21C21.2982 7.12456 21.5841 7.0059 21.795 6.79501C22.0059 6.58413 22.1246 6.29823 22.125 6V4.50045C22.1246 4.20222 22.0059 3.91632 21.795 3.70544C21.5841 3.49455 21.2982 3.37589 21 3.37545H18.6207C18.1237 3.37424 17.6472 3.17682 17.295 2.82615L16.6738 2.205C16.4626 1.99471 16.1769 1.87614 15.8788 1.875H15C14.7018 1.87544 14.4159 1.9941 14.205 2.20499C13.9941 2.41587 13.8754 2.70177 13.875 3V4.5C13.875 4.59946 13.8355 4.69484 13.7652 4.76517C13.6948 4.83549 13.5995 4.875 13.5 4.875C13.4005 4.875 13.3052 4.83549 13.2348 4.76517C13.1645 4.69484 13.125 4.59946 13.125 4.5V3C13.1254 2.50285 13.3231 2.02619 13.6747 1.67466C14.0262 1.32312 14.5029 1.12544 15 1.125H15.8788C16.376 1.12609 16.8527 1.32352 17.205 1.6743L17.8261 2.295C18.0374 2.50529 18.3231 2.62386 18.6212 2.625H21C21.4971 2.62544 21.9738 2.82312 22.3253 3.17466C22.6769 3.52619 22.8746 4.00285 22.875 4.5V6C22.8746 6.49715 22.6769 6.97381 22.3253 7.32534C21.9738 7.67688 21.4971 7.87456 21 7.875H18.375Z"/>
<path fill-rule="evenodd" clip-rule="evenodd" d="M20.6749 31.875C20.73 32.3981 20.9068 32.901 21.1912 33.3435C21.4755 33.7859 21.8596 34.1557 22.3125 34.423C22.3552 34.4499 22.4029 34.4679 22.4527 34.4759C22.5024 34.4839 22.5534 34.4818 22.6023 34.4697C22.6513 34.4576 22.6973 34.4357 22.7376 34.4054C22.7779 34.3751 22.8117 34.337 22.837 34.2933C22.8622 34.2497 22.8784 34.2013 22.8845 34.1513C22.8906 34.1012 22.8866 34.0504 22.8726 34.002C22.8587 33.9535 22.8351 33.9083 22.8033 33.8692C22.7715 33.83 22.7321 33.7977 22.6875 33.7742C22.1354 33.456 21.7179 32.948 21.5127 32.3447C21.3074 31.7415 21.3285 31.0843 21.5719 30.4954C21.8153 29.9066 22.2646 29.4263 22.8358 29.1442C23.4071 28.862 24.0615 28.7971 24.6771 28.9617C25.2926 29.1262 25.8274 29.509 26.1817 30.0386C26.536 30.5682 26.6856 31.2085 26.6028 31.8403C26.5199 32.472 26.2102 33.0521 25.7314 33.4725C25.2525 33.8928 24.6372 34.1247 24 34.125C23.9005 34.125 23.8052 34.1645 23.7348 34.2348C23.6645 34.3052 23.625 34.4005 23.625 34.5C23.625 34.5995 23.6645 34.6948 23.7348 34.7652C23.8052 34.8355 23.9005 34.875 24 34.875C24.8276 34.8723 25.6253 34.5649 26.2408 34.0116C26.8563 33.4583 27.2465 32.6977 27.3371 31.875H29.7009C29.7817 32.2942 30.005 32.6725 30.3329 32.9459C30.6608 33.2193 31.0731 33.3709 31.5 33.375C31.9971 33.3746 32.4738 33.1769 32.8253 32.8253C33.1769 32.4738 33.3746 31.9971 33.375 31.5C33.3709 31.0676 33.2155 30.6504 32.9359 30.3206C32.6563 29.9908 32.27 29.7693 31.8441 29.6946L31.095 29.7069C30.7504 29.7833 30.4354 29.9579 30.188 30.2095C29.9406 30.4612 29.7714 30.7792 29.7009 31.125H27.3371C27.252 30.3687 26.9126 29.6637 26.3744 29.1256C25.8363 28.5874 25.1313 28.248 24.375 28.163H23.625C22.8687 28.248 22.1637 28.5874 21.6256 29.1256C21.0874 29.6637 20.748 30.3687 20.6629 31.125L20.6749 31.875ZM30.875 32.4354C31.06 32.559 31.2775 32.625 31.5 32.625C31.7982 32.6246 32.0841 32.5059 32.295 32.295C32.5059 32.0841 32.6246 31.7982 32.625 31.5C32.625 31.2775 32.559 31.06 32.4354 30.875C32.3118 30.69 32.1361 30.5458 31.9305 30.4606C31.7249 30.3755 31.4988 30.3532 31.2805 30.3966C31.0623 30.44 30.8618 30.5472 30.7045 30.7045C30.5472 30.8618 30.44 31.0623 30.3966 31.2805C30.3532 31.4988 30.3755 31.725 30.4606 31.9305C30.5458 32.1361 30.69 32.3118 30.875 32.4354Z"/>
<path fill-rule="evenodd" clip-rule="evenodd" d="M4.125 29.7C3.70568 29.7809 3.32723 30.0043 3.05384 30.3324C2.78045 30.6604 2.62894 31.073 2.625 31.5C2.62544 31.9971 2.82312 32.4738 3.17466 32.8253C3.52619 33.1769 4.00285 33.3746 4.5 33.375C4.9269 33.3709 5.33926 33.2193 5.66717 32.9459C5.99509 32.6725 6.2184 32.2942 6.29925 31.875L6.3 31.125C6.22851 30.774 6.05538 30.4517 5.80214 30.1984C5.5489 29.945 5.22674 29.7717 4.87575 29.7H4.125ZM3.87498 32.4354C4.05999 32.559 4.2775 32.625 4.5 32.625C4.79823 32.6246 5.08413 32.5059 5.29501 32.295C5.5059 32.0841 5.62456 31.7982 5.625 31.5C5.625 31.2775 5.55902 31.06 5.4354 30.875C5.31179 30.69 5.13609 30.5458 4.93052 30.4606C4.72495 30.3755 4.49875 30.3532 4.28052 30.3966C4.06229 30.44 3.86184 30.5472 3.7045 30.7045C3.54717 30.8618 3.44002 31.0623 3.39662 31.2805C3.35321 31.4988 3.37549 31.725 3.46064 31.9305C3.54578 32.1361 3.68998 32.3118 3.87498 32.4354Z"/>
</mask>
<path d="M18.375 7.875V10.125H17.625V7.875H15C14.5029 7.87456 14.0262 7.67688 13.6747 7.32534C13.3231 6.97381 13.1254 6.49715 13.125 6C13.125 5.90054 13.1645 5.80516 13.2348 5.73484C13.3052 5.66451 13.4005 5.625 13.5 5.625C13.5995 5.625 13.6948 5.66451 13.7652 5.73484C13.8355 5.80516 13.875 5.90054 13.875 6C13.8754 6.29823 13.9941 6.58413 14.205 6.79501C14.4159 7.0059 14.7018 7.12456 15 7.125H21C21.2982 7.12456 21.5841 7.0059 21.795 6.79501C22.0059 6.58413 22.1246 6.29823 22.125 6V4.50045C22.1246 4.20222 22.0059 3.91632 21.795 3.70544C21.5841 3.49455 21.2982 3.37589 21 3.37545H18.6207C18.1237 3.37424 17.6472 3.17682 17.295 2.82615L16.6738 2.205C16.4626 1.99471 16.1769 1.87614 15.8788 1.875H15C14.7018 1.87544 14.4159 1.9941 14.205 2.20499C13.9941 2.41587 13.8754 2.70177 13.875 3V4.5C13.875 4.59946 13.8355 4.69484 13.7652 4.76517C13.6948 4.83549 13.5995 4.875 13.5 4.875C13.4005 4.875 13.3052 4.83549 13.2348 4.76517C13.1645 4.69484 13.125 4.59946 13.125 4.5V3C13.1254 2.50285 13.3231 2.02619 13.6747 1.67466C14.0262 1.32312 14.5029 1.12544 15 1.125H15.8788C16.376 1.12609 16.8527 1.32352 17.205 1.6743L17.8261 2.295C18.0374 2.50529 18.3231 2.62386 18.6212 2.625H21C21.4971 2.62544 21.9738 2.82312 22.3253 3.17466C22.6769 3.52619 22.8746 4.00285 22.875 4.5V6C22.8746 6.49715 22.6769 6.97381 22.3253 7.32534C21.9738 7.67688 21.4971 7.87456 21 7.875H18.375Z" fill="#E6B400"/>
<path fill-rule="evenodd" clip-rule="evenodd" d="M20.6749 31.875C20.73 32.3981 20.9068 32.901 21.1912 33.3435C21.4755 33.7859 21.8596 34.1557 22.3125 34.423C22.3552 34.4499 22.4029 34.4679 22.4527 34.4759C22.5024 34.4839 22.5534 34.4818 22.6023 34.4697C22.6513 34.4576 22.6973 34.4357 22.7376 34.4054C22.7779 34.3751 22.8117 34.337 22.837 34.2933C22.8622 34.2497 22.8784 34.2013 22.8845 34.1513C22.8906 34.1012 22.8866 34.0504 22.8726 34.002C22.8587 33.9535 22.8351 33.9083 22.8033 33.8692C22.7715 33.83 22.7321 33.7977 22.6875 33.7742C22.1354 33.456 21.7179 32.948 21.5127 32.3447C21.3074 31.7415 21.3285 31.0843 21.5719 30.4954C21.8153 29.9066 22.2646 29.4263 22.8358 29.1442C23.4071 28.862 24.0615 28.7971 24.6771 28.9617C25.2926 29.1262 25.8274 29.509 26.1817 30.0386C26.536 30.5682 26.6856 31.2085 26.6028 31.8403C26.5199 32.472 26.2102 33.0521 25.7314 33.4725C25.2525 33.8928 24.6372 34.1247 24 34.125C23.9005 34.125 23.8052 34.1645 23.7348 34.2348C23.6645 34.3052 23.625 34.4005 23.625 34.5C23.625 34.5995 23.6645 34.6948 23.7348 34.7652C23.8052 34.8355 23.9005 34.875 24 34.875C24.8276 34.8723 25.6253 34.5649 26.2408 34.0116C26.8563 33.4583 27.2465 32.6977 27.3371 31.875H29.7009C29.7817 32.2942 30.005 32.6725 30.3329 32.9459C30.6608 33.2193 31.0731 33.3709 31.5 33.375C31.9971 33.3746 32.4738 33.1769 32.8253 32.8253C33.1769 32.4738 33.3746 31.9971 33.375 31.5C33.3709 31.0676 33.2155 30.6504 32.9359 30.3206C32.6563 29.9908 32.27 29.7693 31.8441 29.6946L31.095 29.7069C30.7504 29.7833 30.4354 29.9579 30.188 30.2095C29.9406 30.4612 29.7714 30.7792 29.7009 31.125H27.3371C27.252 30.3687 26.9126 29.6637 26.3744 29.1256C25.8363 28.5874 25.1313 28.248 24.375 28.163H23.625C22.8687 28.248 22.1637 28.5874 21.6256 29.1256C21.0874 29.6637 20.748 30.3687 20.6629 31.125L20.6749 31.875ZM30.875 32.4354C31.06 32.559 31.2775 32.625 31.5 32.625C31.7982 32.6246 32.0841 32.5059 32.295 32.295C32.5059 32.0841 32.6246 31.7982 32.625 31.5C32.625 31.2775 32.559 31.06 32.4354 30.875C32.3118 30.69 32.1361 30.5458 31.9305 30.4606C31.7249 30.3755 31.4988 30.3532 31.2805 30.3966C31.0623 30.44 30.8618 30.5472 30.7045 30.7045C30.5472 30.8618 30.44 31.0623 30.3966 31.2805C30.3532 31.4988 30.3755 31.725 30.4606 31.9305C30.5458 32.1361 30.69 32.3118 30.875 32.4354Z" fill="#E6B400"/>
<path fill-rule="evenodd" clip-rule="evenodd" d="M4.125 29.7C3.70568 29.7809 3.32723 30.0043 3.05384 30.3324C2.78045 30.6604 2.62894 31.073 2.625 31.5C2.62544 31.9971 2.82312 32.4738 3.17466 32.8253C3.52619 33.1769 4.00285 33.3746 4.5 33.375C4.9269 33.3709 5.33926 33.2193 5.66717 32.9459C5.99509 32.6725 6.2184 32.2942 6.29925 31.875L6.3 31.125C6.22851 30.774 6.05538 30.4517 5.80214 30.1984C5.5489 29.945 5.22674 29.7717 4.87575 29.7H4.125ZM3.87498 32.4354C4.05999 32.559 4.2775 32.625 4.5 32.625C4.79823 32.6246 5.08413 32.5059 5.29501 32.295C5.5059 32.0841 5.62456 31.7982 5.625 31.5C5.625 31.2775 5.55902 31.06 5.4354 30.875C5.31179 30.69 5.13609 30.5458 4.93052 30.4606C4.72495 30.3755 4.49875 30.3532 4.28052 30.3966C4.06229 30.44 3.86184 30.5472 3.7045 30.7045C3.54717 30.8618 3.44002 31.0623 3.39662 31.2805C3.35321 31.4988 3.37549 31.725 3.46064 31.9305C3.54578 32.1361 3.68998 32.3118 3.87498 32.4354Z" fill="#E6B400"/>
<path d="M30.2306 28.059C30.706 28.4862 31.0076 29.0735 31.0778 29.7088L31.1122 29.705C31.0411 29.0612 30.7355 28.4661 30.2537 28.0332L30.2306 28.059ZM31.8441 29.6946L31.8502 29.6599L31.8435 29.66L31.8441 29.6946ZM18.375 10.125V10.1596H18.4096V10.125H18.375ZM18.375 7.875V7.84038H18.3404V7.875H18.375ZM21 7.875V7.90962H21L21 7.875ZM22.875 6L22.9096 6.00003V6H22.875ZM22.875 4.5H22.9096V4.49997L22.875 4.5ZM21 2.625L21 2.59038H21V2.625ZM18.6212 2.625L18.621 2.65962H18.6212V2.625ZM17.8261 2.295L17.8017 2.31949L17.8017 2.31953L17.8261 2.295ZM17.205 1.6743L17.2295 1.64981L17.2294 1.64977L17.205 1.6743ZM15.8788 1.125L15.8789 1.09038H15.8788V1.125ZM15 1.125V1.09038L15 1.09038L15 1.125ZM13.125 3L13.0904 2.99997V3H13.125ZM13.875 3L13.8404 2.99995V3H13.875ZM15 1.875V1.84038L14.9999 1.84038L15 1.875ZM15.8788 1.875L15.879 1.84038H15.8788V1.875ZM16.6738 2.205L16.6983 2.18052L16.6983 2.18047L16.6738 2.205ZM17.295 2.82615L17.2705 2.85063L17.2706 2.85068L17.295 2.82615ZM18.6207 3.37545L18.6206 3.41007H18.6207V3.37545ZM21 3.37545L21 3.34083H21V3.37545ZM22.125 4.50045H22.1596V4.5004L22.125 4.50045ZM22.125 6L22.1596 6.00005V6H22.125ZM21 7.125V7.15962L21 7.15962L21 7.125ZM15 7.125L14.9999 7.15962H15V7.125ZM13.875 6H13.8404V6.00005L13.875 6ZM13.125 6H13.0904V6.00003L13.125 6ZM15 7.875L15 7.90962H15V7.875ZM17.625 7.875H17.6596V7.84038H17.625V7.875ZM17.625 10.125H17.5904V10.1596H17.625V10.125ZM4.125 29.7V29.6647L4.11844 29.666L4.125 29.7ZM2.625 31.5L2.59038 31.4997L2.59038 31.5L2.625 31.5ZM4.5 33.375L4.49997 33.4096L4.50033 33.4096L4.5 33.375ZM6.29925 31.875L6.33386 31.8817L6.33387 31.875L6.29925 31.875ZM20.6749 31.875L20.6402 31.8756L20.6405 31.8786L20.6749 31.875ZM22.3125 34.423L22.3309 34.3937L22.3301 34.3932L22.3125 34.423ZM22.6875 33.7742L22.6702 33.8042L22.6713 33.8048L22.6875 33.7742ZM24 34.125V34.1596H24L24 34.125ZM24 34.875V34.9096H24.0001L24 34.875ZM27.3371 31.875V31.8404H27.306L27.3026 31.8712L27.3371 31.875ZM29.7009 31.875L29.7349 31.8684L29.7295 31.8404H29.7009V31.875ZM31.5 33.375L31.4997 33.4096H31.5L31.5 33.375ZM33.375 31.5L33.4096 31.5L33.4096 31.4997L33.375 31.5ZM4.5 32.625V32.6596H4.50005L4.5 32.625ZM5.625 31.5L5.65962 31.5001V31.5H5.625ZM6.3 31.125L6.33533 31.125L6.33392 31.1181L6.3 31.125ZM4.87575 29.7L4.88282 29.6654H4.87575V29.7ZM20.6629 31.125L20.6283 31.1211L20.6283 31.1256L20.6629 31.125ZM23.625 28.163V28.1281L23.6211 28.1286L23.625 28.163ZM29.7009 31.125V31.1596H29.7292L29.7348 31.1319L29.7009 31.125ZM27.3371 31.125L27.3027 31.1289L27.3061 31.1596H27.3371V31.125ZM24.375 28.163L24.3789 28.1283H24.375V28.163ZM31.095 29.7069L31.0944 29.6716L31.0875 29.6731L31.095 29.7069ZM31.5 32.625V32.6596H31.5001L31.5 32.625ZM32.625 31.5L32.6596 31.5001V31.5H32.625ZM18.4096 10.125V7.875H18.3404V10.125H18.4096ZM18.375 7.90962H21V7.84038H18.375V7.90962ZM21 7.90962C21.5063 7.90917 21.9918 7.70784 22.3498 7.34982L22.3009 7.30087C21.9558 7.64592 21.4879 7.83996 21 7.84038L21 7.90962ZM22.3498 7.34982C22.7078 6.9918 22.9092 6.50635 22.9096 6.00003L22.8404 5.99997C22.84 6.48795 22.6459 6.95581 22.3009 7.30087L22.3498 7.34982ZM22.9096 6V4.5H22.8404V6H22.9096ZM22.9096 4.49997C22.9092 3.99365 22.7078 3.5082 22.3498 3.15018L22.3009 3.19913C22.6459 3.54419 22.84 4.01205 22.8404 4.50003L22.9096 4.49997ZM22.3498 3.15018C21.9918 2.79216 21.5063 2.59083 21 2.59038L21 2.65962C21.4879 2.66004 21.9558 2.85408 22.3009 3.19913L22.3498 3.15018ZM21 2.59038H18.6212V2.65962H21V2.59038ZM18.6213 2.59038C18.3323 2.58928 18.0554 2.47433 17.8506 2.27047L17.8017 2.31953C18.0195 2.53625 18.3138 2.65844 18.621 2.65962L18.6213 2.59038ZM17.8506 2.27051L17.2295 1.64981L17.1805 1.69879L17.8017 2.31949L17.8506 2.27051ZM17.2294 1.64977C16.8706 1.29255 16.3852 1.0915 15.8789 1.09038L15.8788 1.15962C16.3668 1.16069 16.8347 1.35449 17.1806 1.69883L17.2294 1.64977ZM15.8788 1.09038H15V1.15962H15.8788V1.09038ZM15 1.09038C14.4937 1.09083 14.0082 1.29216 13.6502 1.65018L13.6991 1.69913C14.0442 1.35408 14.5121 1.16004 15 1.15962L15 1.09038ZM13.6502 1.65018C13.2922 2.0082 13.0908 2.49365 13.0904 2.99997L13.1596 3.00003C13.16 2.51205 13.3541 2.04419 13.6991 1.69913L13.6502 1.65018ZM13.0904 3V4.5H13.1596V3H13.0904ZM13.0904 4.5C13.0904 4.60864 13.1335 4.71282 13.2104 4.78964L13.2593 4.74069C13.1955 4.67685 13.1596 4.59028 13.1596 4.5H13.0904ZM13.2104 4.78964C13.2872 4.86646 13.3914 4.90962 13.5 4.90962V4.84038C13.4097 4.84038 13.3231 4.80452 13.2593 4.74069L13.2104 4.78964ZM13.5 4.90962C13.6086 4.90962 13.7128 4.86646 13.7896 4.78964L13.7407 4.74069C13.6769 4.80452 13.5903 4.84038 13.5 4.84038V4.90962ZM13.7896 4.78964C13.8665 4.71282 13.9096 4.60864 13.9096 4.5H13.8404C13.8404 4.59028 13.8045 4.67685 13.7407 4.74069L13.7896 4.78964ZM13.9096 4.5V3H13.8404V4.5H13.9096ZM13.9096 3.00005C13.91 2.71098 14.0251 2.43387 14.2295 2.22946L14.1805 2.18051C13.9631 2.39787 13.8408 2.69255 13.8404 2.99995L13.9096 3.00005ZM14.2295 2.22946C14.4339 2.02506 14.711 1.91004 15 1.90962L14.9999 1.84038C14.6926 1.84083 14.3979 1.96315 14.1805 2.18051L14.2295 2.22946ZM15 1.90962H15.8788V1.84038H15V1.90962ZM15.8787 1.90962C16.1677 1.91072 16.4446 2.02567 16.6494 2.22953L16.6983 2.18047C16.4805 1.96375 16.1862 1.84156 15.879 1.84038L15.8787 1.90962ZM16.6494 2.22948L17.2705 2.85063L17.3195 2.80167L16.6983 2.18052L16.6494 2.22948ZM17.2706 2.85068C17.6293 3.20779 18.1145 3.40883 18.6206 3.41007L18.6208 3.34083C18.1329 3.33964 17.6652 3.14586 17.3194 2.80162L17.2706 2.85068ZM18.6207 3.41007H21V3.34083H18.6207V3.41007ZM20.9999 3.41007C21.289 3.41049 21.5661 3.52551 21.7705 3.72991L21.8195 3.68096C21.6021 3.4636 21.3074 3.34128 21 3.34083L20.9999 3.41007ZM21.7705 3.72991C21.9749 3.93432 22.09 4.21143 22.0904 4.5005L22.1596 4.5004C22.1592 4.193 22.0369 3.89832 21.8195 3.68096L21.7705 3.72991ZM22.0904 4.50045V6H22.1596V4.50045H22.0904ZM22.0904 5.99995C22.09 6.28902 21.9749 6.56613 21.7705 6.77054L21.8195 6.81949C22.0369 6.60213 22.1592 6.30745 22.1596 6.00005L22.0904 5.99995ZM21.7705 6.77054C21.5661 6.97494 21.289 7.08996 20.9999 7.09038L21 7.15962C21.3074 7.15917 21.6021 7.03685 21.8195 6.81949L21.7705 6.77054ZM21 7.09038H15V7.15962H21V7.09038ZM15 7.09038C14.711 7.08996 14.4339 6.97494 14.2295 6.77054L14.1805 6.81949C14.3979 7.03685 14.6926 7.15917 14.9999 7.15962L15 7.09038ZM14.2295 6.77054C14.0251 6.56613 13.91 6.28902 13.9096 5.99995L13.8404 6.00005C13.8408 6.30745 13.9631 6.60213 14.1805 6.81949L14.2295 6.77054ZM13.9096 6C13.9096 5.89136 13.8665 5.78718 13.7896 5.71036L13.7407 5.75931C13.8045 5.82315 13.8404 5.90972 13.8404 6H13.9096ZM13.7896 5.71036C13.7128 5.63354 13.6086 5.59038 13.5 5.59038V5.65962C13.5903 5.65962 13.6769 5.69548 13.7407 5.75931L13.7896 5.71036ZM13.5 5.59038C13.3914 5.59038 13.2872 5.63354 13.2104 5.71036L13.2593 5.75931C13.3231 5.69548 13.4097 5.65962 13.5 5.65962V5.59038ZM13.2104 5.71036C13.1335 5.78718 13.0904 5.89136 13.0904 6H13.1596C13.1596 5.90972 13.1955 5.82315 13.2593 5.75931L13.2104 5.71036ZM13.0904 6.00003C13.0908 6.50635 13.2922 6.9918 13.6502 7.34982L13.6991 7.30087C13.3541 6.95581 13.16 6.48795 13.1596 5.99997L13.0904 6.00003ZM13.6502 7.34982C14.0082 7.70784 14.4937 7.90917 15 7.90962L15 7.84038C14.5121 7.83996 14.0442 7.64592 13.6991 7.30087L13.6502 7.34982ZM15 7.90962H17.625V7.84038H15V7.90962ZM17.5904 7.875V10.125H17.6596V7.875H17.5904ZM4.11844 29.666C3.69128 29.7484 3.30575 29.976 3.02725 30.3102L3.08043 30.3545C3.34871 30.0326 3.72008 29.8134 4.13156 29.734L4.11844 29.666ZM3.02725 30.3102C2.74874 30.6444 2.5944 31.0647 2.59039 31.4997L2.65961 31.5003C2.66348 31.0813 2.81215 30.6765 3.08043 30.3545L3.02725 30.3102ZM2.59038 31.5C2.59083 32.0063 2.79216 32.4918 3.15018 32.8498L3.19913 32.8009C2.85408 32.4558 2.66004 31.9879 2.65962 31.5L2.59038 31.5ZM3.15018 32.8498C3.5082 33.2078 3.99365 33.4092 4.49997 33.4096L4.50003 33.3404C4.01205 33.34 3.54419 33.1459 3.19913 32.8009L3.15018 32.8498ZM4.50033 33.4096C4.93522 33.4054 5.35529 33.251 5.68934 32.9725L5.64501 32.9193C5.32323 33.1876 4.91859 33.3364 4.49967 33.3404L4.50033 33.4096ZM5.68934 32.9725C6.02339 32.694 6.25087 32.3086 6.33324 31.8816L6.26526 31.8684C6.18592 32.2798 5.96679 32.6511 5.64501 32.9193L5.68934 32.9725ZM20.6405 31.8786C20.6962 32.4071 20.8748 32.9152 21.1621 33.3622L21.2203 33.3247C20.9389 32.8868 20.7639 32.3891 20.7094 31.8714L20.6405 31.8786ZM21.1621 33.3622C21.4493 33.8092 21.8373 34.1827 22.2949 34.4529L22.3301 34.3932C21.8818 34.1286 21.5017 33.7627 21.2203 33.3247L21.1621 33.3622ZM22.2941 34.4523C22.3407 34.4817 22.3928 34.5013 22.4471 34.5101L22.4582 34.4417C22.413 34.4345 22.3697 34.4181 22.3309 34.3938L22.2941 34.4523ZM22.4471 34.5101C22.5015 34.5189 22.5571 34.5166 22.6106 34.5033L22.594 34.4361C22.5496 34.4471 22.5034 34.449 22.4582 34.4417L22.4471 34.5101ZM22.6106 34.5033C22.6641 34.4901 22.7144 34.4662 22.7584 34.4331L22.7168 34.3778C22.6802 34.4053 22.6384 34.4251 22.594 34.4361L22.6106 34.5033ZM22.7584 34.4331C22.8025 34.4 22.8394 34.3584 22.8669 34.3106L22.807 34.276C22.7841 34.3157 22.7534 34.3503 22.7168 34.3778L22.7584 34.4331ZM22.8669 34.3106C22.8945 34.2629 22.9122 34.2102 22.9189 34.1555L22.8501 34.1471C22.8446 34.1925 22.8299 34.2364 22.807 34.276L22.8669 34.3106ZM22.9189 34.1555C22.9255 34.1008 22.9211 34.0453 22.9059 33.9924L22.8394 34.0115C22.852 34.0555 22.8557 34.1016 22.8501 34.1471L22.9189 34.1555ZM22.9059 33.9924C22.8907 33.9394 22.8649 33.8901 22.8301 33.8474L22.7764 33.891C22.8053 33.9265 22.8267 33.9675 22.8394 34.0115L22.9059 33.9924ZM22.8301 33.8474C22.7954 33.8046 22.7524 33.7693 22.7037 33.7435L22.6713 33.8048C22.7118 33.8261 22.7475 33.8555 22.7764 33.891L22.8301 33.8474ZM22.7048 33.7442C22.16 33.4302 21.748 32.9289 21.5454 32.3336L21.4799 32.3559C21.6878 32.9671 22.1109 33.4818 22.6702 33.8041L22.7048 33.7442ZM21.5454 32.3336C21.3429 31.7383 21.3637 31.0897 21.6039 30.5087L21.5399 30.4822C21.2933 31.0788 21.2719 31.7447 21.4799 32.3559L21.5454 32.3336ZM21.6039 30.5087C21.8441 29.9276 22.2874 29.4537 22.8512 29.1752L22.8205 29.1131C22.2417 29.399 21.7866 29.8856 21.5399 30.4822L21.6039 30.5087ZM22.8512 29.1752C23.4149 28.8968 24.0607 28.8327 24.6681 28.9951L24.686 28.9282C24.0623 28.7615 23.3993 28.8272 22.8205 29.1131L22.8512 29.1752ZM24.6681 28.9951C25.2756 29.1575 25.8033 29.5352 26.1529 30.0578L26.2104 30.0193C25.8515 29.4827 25.3097 29.095 24.686 28.9282L24.6681 28.9951ZM26.1529 30.0578C26.5025 30.5804 26.6502 31.2123 26.5685 31.8358L26.6371 31.8448C26.721 31.2047 26.5694 30.5559 26.2104 30.0193L26.1529 30.0578ZM26.5685 31.8358C26.4867 32.4592 26.1811 33.0317 25.7085 33.4465L25.7542 33.4985C26.2394 33.0726 26.5532 32.4849 26.6371 31.8448L26.5685 31.8358ZM25.7085 33.4465C25.236 33.8613 24.6288 34.0901 24 34.0904L24 34.1596C24.6456 34.1593 25.269 33.9244 25.7542 33.4985L25.7085 33.4465ZM24 34.0904C23.8914 34.0904 23.7872 34.1335 23.7104 34.2104L23.7593 34.2593C23.8231 34.1955 23.9097 34.1596 24 34.1596V34.0904ZM23.7104 34.2104C23.6335 34.2872 23.5904 34.3914 23.5904 34.5H23.6596C23.6596 34.4097 23.6955 34.3231 23.7593 34.2593L23.7104 34.2104ZM23.5904 34.5C23.5904 34.6086 23.6335 34.7128 23.7104 34.7896L23.7593 34.7407C23.6955 34.6769 23.6596 34.5903 23.6596 34.5H23.5904ZM23.7104 34.7896C23.7872 34.8665 23.8914 34.9096 24 34.9096V34.8404C23.9097 34.8404 23.8231 34.8045 23.7593 34.7407L23.7104 34.7896ZM24.0001 34.9096C24.8363 34.9068 25.6421 34.5963 26.264 34.0373L26.2177 33.9858C25.6085 34.5335 24.819 34.8377 23.9999 34.8404L24.0001 34.9096ZM26.264 34.0373C26.8858 33.4783 27.28 32.7099 27.3715 31.8788L27.3026 31.8712C27.2131 32.6854 26.8268 33.4382 26.2177 33.9858L26.264 34.0373ZM27.3371 31.9096H29.7009V31.8404H27.3371V31.9096ZM29.6669 31.8816C29.7492 32.3086 29.9767 32.694 30.3107 32.9725L30.3551 32.9193C30.0333 32.6511 29.8142 32.2798 29.7349 31.8684L29.6669 31.8816ZM30.3107 32.9725C30.6447 33.251 31.0648 33.4054 31.4997 33.4096L31.5003 33.3404C31.0814 33.3363 30.6768 33.1876 30.3551 32.9193L30.3107 32.9725ZM31.5 33.4096C32.0063 33.4092 32.4918 33.2078 32.8498 32.8498L32.8009 32.8009C32.4558 33.1459 31.9879 33.34 31.5 33.3404L31.5 33.4096ZM32.8498 32.8498C33.2078 32.4918 33.4092 32.0063 33.4096 31.5L33.3404 31.5C33.34 31.9879 33.1459 32.4558 32.8009 32.8009L32.8498 32.8498ZM33.4096 31.4997C33.4054 31.0592 33.2472 30.6341 32.9623 30.2982L32.9095 30.343C33.1839 30.6666 33.3363 31.0761 33.3404 31.5003L33.4096 31.4997ZM32.9623 30.2982C32.6774 29.9622 32.2839 29.7366 31.8501 29.6605L31.8381 29.7287C32.256 29.802 32.6351 30.0194 32.9095 30.343L32.9623 30.2982ZM4.5 32.5904C4.28434 32.5904 4.07353 32.5264 3.89421 32.4066L3.85575 32.4642C4.04645 32.5916 4.27065 32.6596 4.5 32.6596V32.5904ZM3.89421 32.4066C3.7149 32.2868 3.57514 32.1165 3.49262 31.9173L3.42865 31.9438C3.51642 32.1557 3.66505 32.3368 3.85575 32.4642L3.89421 32.4066ZM3.49262 31.9173C3.41009 31.718 3.38849 31.4988 3.43057 31.2873L3.36267 31.2738C3.31792 31.4987 3.34089 31.7319 3.42865 31.9438L3.49262 31.9173ZM3.43057 31.2873C3.47264 31.0758 3.57649 30.8815 3.72898 30.729L3.68003 30.68C3.51785 30.8422 3.40741 31.0488 3.36267 31.2738L3.43057 31.2873ZM3.72898 30.729C3.88147 30.5765 4.07576 30.4726 4.28728 30.4306L4.27377 30.3627C4.04883 30.4074 3.8422 30.5179 3.68003 30.68L3.72898 30.729ZM4.28728 30.4306C4.49879 30.3885 4.71803 30.4101 4.91727 30.4926L4.94377 30.4287C4.73187 30.3409 4.49871 30.3179 4.27377 30.3627L4.28728 30.4306ZM4.91727 30.4926C5.11651 30.5751 5.28681 30.7149 5.40662 30.8942L5.46418 30.8558C5.33676 30.6651 5.15566 30.5164 4.94377 30.4287L4.91727 30.4926ZM5.40662 30.8942C5.52643 31.0735 5.59038 31.2843 5.59038 31.5H5.65962C5.65962 31.2707 5.59161 31.0465 5.46418 30.8558L5.40662 30.8942ZM5.59038 31.5C5.58996 31.789 5.47494 32.0661 5.27054 32.2705L5.31949 32.3195C5.53685 32.1021 5.65917 31.8074 5.65962 31.5001L5.59038 31.5ZM5.27054 32.2705C5.06613 32.4749 4.78902 32.59 4.49995 32.5904L4.50005 32.6596C4.80745 32.6592 5.10213 32.5369 5.31949 32.3195L5.27054 32.2705ZM6.33392 31.1181C6.26108 30.7604 6.08466 30.4321 5.82662 30.1739L5.77765 30.2228C6.02609 30.4714 6.19595 30.7875 6.26608 31.1319L6.33392 31.1181ZM5.82662 30.1739C5.56858 29.9157 5.24031 29.7391 4.88268 29.6661L4.86882 29.7339C5.21316 29.8042 5.52921 29.9743 5.77765 30.2228L5.82662 30.1739ZM23.6211 28.1286C22.857 28.2145 22.1448 28.5574 21.6011 29.1011L21.65 29.15C22.1826 28.6174 22.8804 28.2815 23.6289 28.1973L23.6211 28.1286ZM21.6011 29.1011C21.0574 29.6448 20.7145 30.357 20.6286 31.1211L20.6973 31.1289C20.7815 30.3804 21.1174 29.6826 21.65 29.15L21.6011 29.1011ZM29.7009 31.0904H27.3371V31.1596H29.7009V31.0904ZM27.3714 31.1211C27.2855 30.357 26.9426 29.6448 26.3989 29.1011L26.35 29.15C26.8826 29.6826 27.2185 30.3804 27.3027 31.1289L27.3714 31.1211ZM26.3989 29.1011C25.8552 28.5574 25.143 28.2145 24.3789 28.1286L24.3711 28.1973C25.1196 28.2815 25.8174 28.6174 26.35 29.15L26.3989 29.1011ZM31.0875 29.6731C30.7364 29.7509 30.4154 29.9288 30.1633 30.1853L30.2127 30.2338C30.4554 29.9869 30.7645 29.8156 31.1025 29.7407L31.0875 29.6731ZM30.1633 30.1853C29.9112 30.4417 29.7388 30.7657 29.667 31.1181L29.7348 31.1319C29.804 30.7927 29.9699 30.4807 30.2127 30.2338L30.1633 30.1853ZM31.5 32.5904C31.2843 32.5904 31.0735 32.5264 30.8942 32.4066L30.8558 32.4642C31.0464 32.5916 31.2706 32.6596 31.5 32.6596V32.5904ZM30.8942 32.4066C30.7149 32.2868 30.5751 32.1165 30.4926 31.9173L30.4287 31.9438C30.5164 32.1557 30.6651 32.3368 30.8558 32.4642L30.8942 32.4066ZM30.4926 31.9173C30.4101 31.718 30.3885 31.4988 30.4306 31.2873L30.3627 31.2738C30.3179 31.4987 30.3409 31.7319 30.4287 31.9438L30.4926 31.9173ZM30.4306 31.2873C30.4726 31.0758 30.5765 30.8815 30.729 30.729L30.68 30.68C30.5179 30.8422 30.4074 31.0488 30.3627 31.2738L30.4306 31.2873ZM30.729 30.729C30.8815 30.5765 31.0758 30.4726 31.2873 30.4306L31.2738 30.3627C31.0488 30.4074 30.8422 30.5179 30.68 30.68L30.729 30.729ZM31.2873 30.4306C31.4988 30.3885 31.718 30.4101 31.9173 30.4926L31.9438 30.4287C31.7319 30.3409 31.4987 30.3179 31.2738 30.3627L31.2873 30.4306ZM31.9173 30.4926C32.1165 30.5751 32.2868 30.7149 32.4066 30.8942L32.4642 30.8558C32.3368 30.6651 32.1557 30.5164 31.9438 30.4287L31.9173 30.4926ZM32.4066 30.8942C32.5264 31.0735 32.5904 31.2843 32.5904 31.5H32.6596C32.6596 31.2707 32.5916 31.0465 32.4642 30.8558L32.4066 30.8942ZM32.5904 31.5C32.59 31.789 32.4749 32.0661 32.2705 32.2705L32.3195 32.3195C32.5369 32.1021 32.6592 31.8074 32.6596 31.5001L32.5904 31.5ZM32.2705 32.2705C32.0661 32.4749 31.789 32.59 31.4999 32.5904L31.5001 32.6596C31.8074 32.6592 32.1021 32.5369 32.3195 32.3195L32.2705 32.2705ZM17.625 10.1596H18.375V10.0904H17.625V10.1596ZM31.0956 29.7415L31.8447 29.7292L31.8435 29.66L31.0944 29.6723L31.0956 29.7415ZM23.625 28.1976H24.375V28.1283H23.625V28.1976ZM20.6283 31.1256L20.6403 31.8756L20.7096 31.8744L20.6976 31.1244L20.6283 31.1256ZM6.33387 31.875L6.33461 31.125L6.26538 31.125L6.26463 31.875L6.33387 31.875ZM4.125 29.7346H4.87575V29.6654H4.125V29.7346Z" fill="white" mask="url(#path-2-inside-2_1091_304009)"/>
</svg>
