<svg width="52" height="52" viewBox="0 0 52 52" fill="none" xmlns="http://www.w3.org/2000/svg">
<g clip-path="url(#clip0_1091_298569)">
<path d="M43.8664 13.7705H35.8789C35.4581 13.7705 35.1172 14.1115 35.1172 14.5322C35.1172 14.953 35.4581 15.2939 35.8789 15.2939H43.8664C44.2872 15.2939 44.6281 14.953 44.6281 14.5322C44.6281 14.1115 44.2871 13.7705 43.8664 13.7705Z" fill="#E6B400"/>
<path d="M44.6281 18.3633C44.6281 17.9425 44.2872 17.6016 43.8664 17.6016H35.8789C35.4581 17.6016 35.1172 17.9425 35.1172 18.3633C35.1172 18.7841 35.4581 19.125 35.8789 19.125H43.8664C44.2871 19.125 44.6281 18.784 44.6281 18.3633Z" fill="#E6B400"/>
<path d="M35.8789 21.4326C35.4581 21.4326 35.1172 21.7736 35.1172 22.1943C35.1172 22.6151 35.4581 22.9561 35.8789 22.9561H41.1564C41.5772 22.9561 41.9181 22.6151 41.9181 22.1943C41.9181 21.7736 41.5772 21.4326 41.1564 21.4326H35.8789Z" fill="#E6B400"/>
<path d="M50.3659 46.668H46.0625V33.6561C46.0625 33.068 45.5842 32.5897 44.9961 32.5897H26.7571V30.2656C26.7571 29.8448 26.4162 29.5039 25.9954 29.5039C25.5747 29.5039 25.2337 29.8448 25.2337 30.2656V32.5897H10.9989V21.8516H15.1378V24.7774C15.1378 25.3654 15.6161 25.8438 16.2042 25.8438H20.0284C20.6165 25.8438 21.0948 25.3654 21.0948 24.7774V21.8516H25.2337V26.7109C25.2337 27.1317 25.5747 27.4726 25.9954 27.4726C26.4162 27.4726 26.7571 27.1317 26.7571 26.7109V21.3945C26.7571 20.8065 26.2788 20.3281 25.6907 20.3281H10.5419C9.95384 20.3281 9.47548 20.8065 9.47548 21.3945V32.5897H6.99471C6.40666 32.5897 5.9283 33.068 5.9283 33.6561V46.668H1.625C1.03695 46.668 0.558594 47.1463 0.558594 47.7344V50.9336C0.558594 51.5216 1.03695 52 1.625 52H50.3659C50.9539 52 51.4323 51.5216 51.4323 50.9336V47.7344C51.4323 47.1463 50.9539 46.668 50.3659 46.668ZM16.6612 21.8517H19.5714V24.3203H16.6612V21.8517ZM35.9666 34.1131H38.8768V36.5819H35.9666V34.1131ZM16.4075 34.1131H19.8251V36.5819H16.4075V34.1131ZM7.45174 34.1131H14.8841V37.0389C14.8841 37.627 15.3624 38.1053 15.9505 38.1053H20.2821C20.8702 38.1053 21.3485 37.627 21.3485 37.0389V34.1131H28.7809V46.668H7.45174V34.1131ZM49.9088 50.4765H2.08203V48.1914H38.6907C39.1115 48.1914 39.4525 47.8504 39.4525 47.4297C39.4525 47.0089 39.1115 46.668 38.6907 46.668H30.3043V34.1131H34.4432V37.0389C34.4432 37.627 34.9216 38.1053 35.5096 38.1053H39.3338C39.9219 38.1053 40.4002 37.627 40.4002 37.0389V34.1131H44.5391V46.668H42.2454C41.8247 46.668 41.4837 47.0089 41.4837 47.4297C41.4837 47.8504 41.8247 48.1914 42.2454 48.1914H49.9088V50.4765Z" fill="white"/>
<path d="M30.3474 13.3651V27.2258C30.3474 27.8138 30.8258 28.2922 31.4138 28.2922H48.3256C48.9137 28.2922 49.392 27.8138 49.392 27.2258V20.3125C49.392 19.8917 49.0511 19.5508 48.6303 19.5508C48.2095 19.5508 47.8686 19.8917 47.8686 20.3125V26.7687H31.8709V13.5412C31.8727 13.5412 31.8744 13.5413 31.8762 13.5413C33.7893 13.5413 35.5183 12.7424 36.7508 11.4623H43.8635C44.2842 11.4623 44.6252 11.1214 44.6252 10.7006C44.6252 10.2799 44.2842 9.93891 43.8635 9.93891H37.8574C38.3605 8.99295 38.6468 7.91477 38.6468 6.77066C38.6468 6.55322 38.6355 6.33841 38.6153 6.12605H47.8685V16.7578C47.8685 17.1786 48.2094 17.5195 48.6302 17.5195C49.051 17.5195 49.3919 17.1786 49.3919 16.7578V5.66902C49.3919 5.08097 48.9135 4.60261 48.3255 4.60261H38.2887C37.3825 1.92979 34.8513 0 31.8761 0C28.1428 0 25.1055 3.03733 25.1055 6.77066C25.1055 9.97811 27.3482 12.6699 30.3474 13.3651ZM31.8761 1.52344C34.7694 1.52344 37.1234 3.87735 37.1234 6.77066C37.1234 9.66398 34.7694 12.0179 31.8761 12.0179C28.9828 12.0179 26.6289 9.66398 26.6289 6.77066C26.6289 3.87735 28.9828 1.52344 31.8761 1.52344Z" fill="#E6B400"/>
<path d="M30.9516 9.00821C31.1004 9.1569 31.2953 9.23124 31.4903 9.23124C31.6852 9.23124 31.8802 9.1569 32.0289 9.00821L35.1266 5.91066C35.4242 5.61308 35.4242 5.13086 35.1267 4.83338C34.8292 4.53611 34.3469 4.53591 34.0495 4.83338L31.4904 7.39235L29.6949 5.59673C29.3973 5.29935 28.9151 5.29935 28.6176 5.59673C28.3202 5.8943 28.3202 6.37652 28.6176 6.674L30.9516 9.00821Z" fill="#E6B400"/>
</g>
<defs>
<clipPath id="clip0_1091_298569">
<rect width="52" height="52" fill="white"/>
</clipPath>
</defs>
</svg>
