<svg width="53" height="52" viewBox="0 0 53 52" fill="none" xmlns="http://www.w3.org/2000/svg">
<g clip-path="url(#clip0_1091_300303)">
<path d="M8.52881 14.9697H20.218C20.6387 14.9697 20.9798 14.6287 20.9798 14.208C20.9798 13.7873 20.6387 13.4463 20.218 13.4463H8.52881C8.10814 13.4463 7.76709 13.7873 7.76709 14.208C7.76709 14.6287 8.10814 14.9697 8.52881 14.9697Z" fill="#E6B400"/>
<path d="M8.52881 31.7275C8.10814 31.7275 7.76709 32.0686 7.76709 32.4893C7.76709 32.9099 8.10814 33.251 8.52881 33.251H21.2337C21.6543 33.251 21.9954 32.9099 21.9954 32.4893C21.9954 32.0686 21.6543 31.7275 21.2337 31.7275H8.52881Z" fill="white"/>
<path d="M31.3289 21.0635C31.7495 21.0635 32.0906 20.7224 32.0906 20.3018C32.0906 19.8811 31.7495 19.54 31.3289 19.54H22.9741C22.5534 19.54 22.2124 19.8811 22.2124 20.3018C22.2124 20.7224 22.5534 21.0635 22.9741 21.0635H31.3289Z" fill="white"/>
<path d="M8.32178 21.0635H19.4187C19.8394 21.0635 20.1804 20.7224 20.1804 20.3018C20.1804 19.8811 19.8394 19.54 19.4187 19.54H8.32178C7.90111 19.54 7.56006 19.8811 7.56006 20.3018C7.56006 20.7224 7.90111 21.0635 8.32178 21.0635Z" fill="white"/>
<path d="M8.32178 27.1572H26.1928C26.6135 27.1572 26.9545 26.8162 26.9545 26.3955C26.9545 25.9748 26.6135 25.6338 26.1928 25.6338H8.32178C7.90111 25.6338 7.56006 25.9748 7.56006 26.3955C7.56006 26.8162 7.90111 27.1572 8.32178 27.1572Z" fill="#E6B400"/>
<path d="M8.32178 39.3447H23.1459C23.5666 39.3447 23.9077 39.0037 23.9077 38.583C23.9077 38.1623 23.5666 37.8213 23.1459 37.8213H8.32178C7.90111 37.8213 7.56006 38.1623 7.56006 38.583C7.56006 39.0037 7.90111 39.3447 8.32178 39.3447Z" fill="#E6B400"/>
<path d="M52.8256 43.7345C52.7751 43.0306 52.4521 41.9945 51.201 41.0523L44.5795 35.8177L46.085 34.313C46.374 34.4513 46.6982 34.5265 47.0401 34.5266H47.041C47.7637 34.5266 48.4988 34.2043 49.0579 33.6422C49.0596 33.6405 49.0614 33.6387 49.0631 33.6368C50.1054 32.5844 50.2271 30.9982 49.333 30.0977L41.5744 22.2979C40.881 21.5777 39.6941 21.5247 38.8177 21.9993V15.3876C38.8177 14.3705 38.4177 13.4142 37.6914 12.695L26.0036 1.11866C25.2779 0.399797 24.3127 0.00390625 23.2859 0.00390625H5.70352C3.01821 0.00390625 0.833496 2.16709 0.833496 4.82589V7.64984C0.833496 8.07051 1.17454 8.41156 1.59521 8.41156C2.01589 8.41156 2.35693 8.07051 2.35693 7.64984V4.82589C2.35693 3.00701 3.85823 1.52724 5.70352 1.52724L23.8031 1.58777V11.3769C23.8031 13.3139 25.3907 14.8897 27.3422 14.8897H37.2375L37.2944 23.7819C37.0954 24.4029 37.1231 25.0522 37.3878 25.5894L30.5096 32.4641C29.6021 32.0249 28.3805 32.2603 27.5176 33.119C26.5435 34.0555 26.2655 35.6963 27.2379 36.6647L35.0188 44.4442C35.607 45.0373 36.5079 45.1728 37.2944 44.931C37.359 45.9435 37.0718 46.9567 36.3234 47.6765C35.683 48.3123 34.8315 48.6627 33.9204 48.6522L32.3606 48.6411C32.0068 47.9384 31.3652 47.4046 30.5912 47.1959V46.5511C30.5912 45.011 29.3383 43.7581 27.7982 43.7581H18.4193C16.8793 43.7581 15.6264 45.011 15.6264 46.5511V47.1959C14.895 47.3932 14.2819 47.8805 13.918 48.5265H5.70352C3.85823 48.5265 2.35693 47.0467 2.35693 45.2279V11.2019C2.35693 10.7812 2.01589 10.4402 1.59521 10.4402C1.17454 10.4402 0.833496 10.7812 0.833496 11.2019V45.2279C0.833496 47.8868 3.01821 50.0499 5.70352 50.0499H13.5599V50.7253C13.5599 51.4254 14.1293 51.9949 14.8294 51.9949H18.3022C18.7229 51.9949 19.064 51.6538 19.064 51.2331C19.064 50.8125 18.7229 50.4714 18.3022 50.4714H15.0833V49.8925C15.0833 49.1925 15.6528 48.623 16.3529 48.623H29.8649C30.565 48.623 31.1345 49.1925 31.1345 49.8925V50.4714H21.8569C21.4363 50.4714 21.0952 50.8125 21.0952 51.2331C21.0952 51.6538 21.4363 51.9949 21.8569 51.9949H31.3884C32.0884 51.9949 32.6579 51.4254 32.6579 50.7253V50.1666C32.7026 50.1668 33.9018 50.1759 33.946 50.1757C35.2505 50.1757 36.4749 49.6728 37.3968 48.7575C38.3132 47.8477 38.8179 46.6391 38.8179 45.3545V43.8741C39.4255 43.0993 39.6453 42.0461 39.2202 41.1744L40.6826 39.7127L45.9067 46.3547C47.78 48.6311 49.6866 48.4021 51.5574 46.7118C52.4487 45.8184 52.8991 44.761 52.8256 43.7345ZM18.4195 45.2816H27.7983C28.4984 45.2816 29.0679 45.851 29.0679 46.5511V47.0996H17.1499V46.5511C17.1499 45.851 17.7194 45.2816 18.4195 45.2816ZM39.1178 23.6462C39.5161 23.2795 40.0458 23.0206 40.494 23.3717L48.2526 31.1715C48.5491 31.4701 48.4209 32.1223 47.9784 32.5673C47.5687 32.9532 46.9662 33.2223 46.5403 32.7808L43.6665 29.8917C43.3698 29.5935 42.8875 29.5922 42.5893 29.8889C42.291 30.1855 42.2898 30.6679 42.5865 30.966L44.9258 33.3179C42.9094 35.3312 40.2387 38.0023 38.2229 40.0175L31.6661 33.462L38.3871 26.7445L40.0593 28.4256C40.3559 28.7239 40.8383 28.7252 41.1364 28.4284C41.4347 28.1317 41.436 27.6494 41.1393 27.3512L38.9274 25.1276C38.5229 24.8092 38.6416 24.139 39.1178 23.6462ZM25.3265 11.377V2.59212L36.2047 13.3664H27.3422C26.2307 13.3664 25.3265 12.474 25.3265 11.377ZM36.0955 43.3662L28.3146 35.5867C27.9649 35.1377 28.2206 34.6059 28.585 34.2059C29.0688 33.7317 29.7369 33.6069 30.0502 34.0003L37.7567 41.7054C38.1077 42.1556 37.8487 42.6915 37.4818 43.0907C37.0393 43.533 36.3913 43.6616 36.0955 43.3662ZM50.4788 45.6361C49.3253 46.7893 48.0777 46.7579 47.1099 45.4203L41.7678 38.6283L43.4947 36.9022L50.2635 42.2533C51.5993 43.2244 51.63 44.4796 50.4788 45.6361Z" fill="white"/>
<path fill-rule="evenodd" clip-rule="evenodd" d="M52.8268 43.7341C52.7763 43.0302 52.4534 41.9942 51.2022 41.052L44.5808 35.8173L46.0862 34.3127C46.3753 34.4509 46.6995 34.5262 47.0413 34.5263C47.764 34.5263 48.5001 34.2039 49.0592 33.6419L49.0643 33.6365C50.1067 32.5841 50.2283 30.9979 49.3343 30.0973L41.5756 22.2975C40.8823 21.5773 39.6953 21.5243 38.8189 21.9989C38.7408 22.0633 38.6676 22.1188 38.5964 22.173C38.2418 22.4422 37.9337 22.676 37.2957 23.7816C37.0966 24.4025 37.1243 25.0518 37.389 25.5891L30.5108 32.4637C29.6033 32.0246 28.3817 32.2599 27.5189 33.1186C26.5448 34.0551 26.2667 35.696 27.2392 36.6644L35.0201 44.4438C35.6082 45.037 36.5092 45.1725 37.2957 44.9306C37.7112 44.7184 38.5977 44.2099 38.8191 43.8738C39.4268 43.0989 39.6465 42.0457 39.2214 41.174L40.6838 39.7123L45.908 46.3543C47.7812 48.6308 49.6878 48.4017 51.5586 46.7114C52.4499 45.8181 52.9004 44.7606 52.8268 43.7341ZM40.4952 23.3713C40.047 23.0202 39.5174 23.2791 39.119 23.6459C38.6428 24.1387 38.5242 24.8089 38.9286 25.1273L41.1405 27.3509C41.4372 27.6491 41.436 28.1314 41.1377 28.428C40.8395 28.7248 40.3572 28.7235 40.0605 28.4252L38.3884 26.7441L31.6674 33.4617L38.2242 40.0171L39.7388 38.5029C41.4605 36.7814 43.3851 34.8571 44.9271 33.3176L42.5877 30.9657C42.291 30.6675 42.2923 30.1852 42.5905 29.8885C42.8887 29.5918 43.371 29.5932 43.6677 29.8914L46.5415 32.7804C46.9675 33.2219 47.57 32.9529 47.9797 32.5669C48.4222 32.122 48.5503 31.4697 48.2539 31.1711L40.4952 23.3713ZM36.0967 43.3659L28.3158 35.5864C27.9662 35.1374 28.2219 34.6056 28.5863 34.2055C29.07 33.7313 29.7381 33.6065 30.0514 34L37.758 41.705C38.109 42.1552 37.8499 42.6912 37.4831 43.0903C37.0406 43.5326 36.3926 43.6612 36.0967 43.3659ZM47.1112 45.42C48.079 46.7575 49.3266 46.7889 50.48 45.6358C51.6312 44.4793 51.6006 43.2241 50.2647 42.2529L43.496 36.9018L41.769 38.628L47.1112 45.42Z" fill="#E6B400"/>
</g>
<defs>
<clipPath id="clip0_1091_300303">
<rect width="52" height="52" fill="white" transform="translate(0.833496)"/>
</clipPath>
</defs>
</svg>
