<svg width="82" height="100" viewBox="0 0 82 100" fill="none" xmlns="http://www.w3.org/2000/svg">
<g clip-path="url(#clip0_358_555)">
<path d="M66.2734 89.824L66.0736 87.6597C66.0736 87.6597 62.7732 88.0416 61.6838 88.8716C61.6838 88.8716 60.2012 89.8723 60.7168 92.9842L61.0311 95.9043L62.9859 95.7931L62.8505 93.8351L64.8376 93.7287L64.649 91.6482L62.6233 91.7965C62.6233 91.7965 62.4122 90.7828 63.6853 90.0802C63.6805 90.0818 64.6039 89.608 66.2734 89.824Z" fill="#324652"/>
<path d="M66.9214 90.0103L68.7988 90.8015L67.9608 92.9723C67.9608 92.9723 67.4774 94.226 68.8746 94.8175C68.8746 94.8175 70.3379 95.7054 71.192 94.0536C71.192 94.0536 71.7399 92.7644 71.9671 92.1423L73.7721 92.8482C73.7721 92.8482 73.1565 95.1043 71.9994 96.0568C71.9994 96.0568 71.0905 97.0511 69.4209 96.8915C69.4209 96.8915 67.3259 96.6579 66.4637 95.0673C66.218 94.6344 66.0616 94.1567 66.0037 93.6623C65.9459 93.1679 65.9878 92.667 66.1269 92.1891L66.9214 90.0103Z" fill="#324652"/>
<path d="M80.7158 98.6786L78.7223 98.2644L79.1268 95.9712C79.0999 95.6065 78.9671 95.2575 78.7447 94.9672C78.5222 94.6769 78.2198 94.4579 77.8746 94.3371C77.8746 94.3371 76.3146 93.9374 75.7425 95.5248C75.7425 95.5248 75.4525 96.8978 75.3493 97.5505L73.4429 97.2073C73.4429 97.2073 73.604 94.8705 74.5581 93.7183C74.5581 93.7183 75.1108 92.7239 76.9351 92.4C76.9351 92.4 79.0301 92.226 80.1888 93.62C80.5134 93.9975 80.7589 94.4364 80.9109 94.9106C81.0629 95.3848 81.1182 95.8846 81.0735 96.3805L80.7158 98.6786Z" fill="#324652"/>
<path d="M69.1686 89.0474C69.229 88.665 68.968 88.306 68.5856 88.2456C68.2032 88.1851 67.8442 88.4462 67.7837 88.8286C67.7233 89.211 67.9843 89.57 68.3667 89.6304C68.7492 89.6908 69.1082 89.4298 69.1686 89.0474Z" fill="#324652"/>
<path d="M74.9694 91.1832C75.0314 90.7999 74.7709 90.4389 74.3876 90.377C74.0043 90.315 73.6433 90.5755 73.5814 90.9588C73.5195 91.3421 73.78 91.703 74.1632 91.765C74.5465 91.8269 74.9075 91.5664 74.9694 91.1832Z" fill="#324652"/>
<path d="M10.0496 98.4239C11.4719 98.0919 12.3558 96.6697 12.0238 95.2474C11.6917 93.8251 10.2696 92.9413 8.84727 93.2733C7.42497 93.6054 6.54113 95.0275 6.87316 96.4498C7.20519 97.8721 8.62735 98.756 10.0496 98.4239Z" stroke="#324652" stroke-width="2.25616" stroke-miterlimit="10"/>
<path d="M23.0451 96.4539L20.6697 96.889L20.0896 94.1913C19.8973 93.8026 19.5957 93.4786 19.2218 93.259C18.8479 93.0394 18.418 92.9338 17.9849 92.9552C17.9849 92.9552 16.0961 93.2115 16.1848 95.2114C16.1848 95.2114 16.4797 96.8487 16.6586 97.611L14.4105 98.0848C14.4105 98.0848 13.5515 95.4434 14.0769 93.7546C14.0769 93.7546 14.238 92.4154 16.0994 91.247C16.0994 91.247 18.3281 90.1189 20.2169 91.1342C20.2169 91.1342 21.8864 91.8948 22.4215 93.7707L23.0451 96.4539Z" fill="#324652"/>
<path d="M27.9354 95.4112C27.2051 95.5844 26.5369 95.5725 25.9308 95.3757C25.3273 95.1749 24.8134 94.8172 24.3891 94.3028C23.9674 93.7844 23.6645 93.137 23.4804 92.3606C23.2963 91.5843 23.2755 90.8665 23.418 90.2073C23.563 89.544 23.8511 88.9858 24.2822 88.5326C24.7158 88.0754 25.2747 87.7657 25.959 87.6035C26.3537 87.5099 26.7591 87.4832 27.1752 87.5235C27.5913 87.5639 27.9923 87.6946 28.3783 87.9158C28.7636 88.1337 29.1073 88.4622 29.4094 88.9013C29.7116 89.3404 29.9465 89.9136 30.1142 90.6209L30.2312 91.1143L24.3889 92.4996L24.1502 91.493L28.8083 90.3885C28.7069 89.9608 28.5309 89.5995 28.2803 89.3045C28.0329 89.0088 27.73 88.8009 27.3715 88.6809C27.0162 88.5602 26.6281 88.5497 26.207 88.6495C25.7432 88.7595 25.3691 88.9698 25.0849 89.2804C24.8032 89.587 24.6152 89.9443 24.5208 90.3523C24.4265 90.7604 24.4288 91.1733 24.5279 91.5911L24.687 92.2621C24.8227 92.8345 25.0365 93.2963 25.3282 93.6476C25.6225 93.9948 25.9718 94.2298 26.3762 94.3528C26.7799 94.4726 27.2169 94.4766 27.6873 94.3651C27.9933 94.2926 28.2594 94.1843 28.4859 94.0402C28.7148 93.8921 28.8991 93.7095 29.0387 93.4922C29.1775 93.2717 29.265 93.0181 29.3013 92.7316L30.5012 92.7806C30.4733 93.1903 30.3538 93.573 30.1429 93.9288C29.9311 94.2813 29.6387 94.5869 29.2658 94.8456C28.892 95.101 28.4485 95.2895 27.9354 95.4112Z" fill="#324652"/>
<path d="M25.9308 95.3757L25.7786 95.833L25.782 95.8341L25.9308 95.3757ZM24.3891 94.3028L24.0152 94.607L24.0173 94.6095L24.3891 94.3028ZM23.418 90.2073L22.9472 90.1043L22.9469 90.1055L23.418 90.2073ZM24.2822 88.5326L24.6314 88.8648L24.6319 88.8643L24.2822 88.5326ZM27.1752 87.5235L27.2217 87.0438L27.2217 87.0438L27.1752 87.5235ZM28.3783 87.9158L28.1387 88.334L28.1411 88.3353L28.3783 87.9158ZM29.4094 88.9013L29.8065 88.6281L29.8065 88.6281L29.4094 88.9013ZM30.2312 91.1143L30.3424 91.5833L30.8114 91.4721L30.7002 91.0031L30.2312 91.1143ZM24.3889 92.4996L23.9199 92.6108L24.0311 93.0798L24.5001 92.9686L24.3889 92.4996ZM24.1502 91.493L24.039 91.024L23.5701 91.1352L23.6813 91.6042L24.1502 91.493ZM28.8083 90.3885L28.9195 90.8574L29.3885 90.7462L29.2773 90.2773L28.8083 90.3885ZM28.2803 89.3045L27.9105 89.6137L27.913 89.6166L28.2803 89.3045ZM27.3715 88.6809L27.2163 89.1373L27.2185 89.138L27.3715 88.6809ZM25.0849 89.2804L25.4398 89.6066L25.4405 89.6058L25.0849 89.2804ZM24.5208 90.3523L24.0512 90.2437L24.5208 90.3523ZM25.3282 93.6476L24.9575 93.9556L24.9606 93.9592L25.3282 93.6476ZM26.3762 94.3528L26.236 94.814L26.2392 94.8149L26.3762 94.3528ZM28.4859 94.0402L28.7446 94.4469L28.7477 94.4449L28.4859 94.0402ZM29.0387 93.4922L29.4442 93.7528L29.4466 93.749L29.0387 93.4922ZM29.3013 92.7316L29.321 92.25L28.8788 92.2319L28.8232 92.671L29.3013 92.7316ZM30.5012 92.7806L30.9821 92.8134L31.0158 92.3193L30.5209 92.299L30.5012 92.7806ZM30.1429 93.9288L30.556 94.177L30.5574 94.1746L30.1429 93.9288ZM29.2658 94.8456L29.5377 95.2435L29.5404 95.2416L29.2658 94.8456ZM27.8242 94.9422C27.1644 95.0987 26.5877 95.0823 26.0797 94.9173L25.782 95.8341C26.4861 96.0628 27.2457 96.07 28.0466 95.8802L27.8242 94.9422ZM26.083 94.9184C25.5696 94.7476 25.1305 94.4443 24.7609 93.9962L24.0173 94.6095C24.4962 95.1902 25.0849 95.6022 25.7786 95.833L26.083 94.9184ZM24.763 93.9987C24.3951 93.5464 24.1199 92.9687 23.9493 92.2494L23.0114 92.4718C23.209 93.3053 23.5396 94.0223 24.0152 94.607L24.763 93.9987ZM23.9493 92.2494C23.7788 91.5304 23.7643 90.8863 23.8891 90.3091L22.9469 90.1055C22.7867 90.8467 22.8137 91.6382 23.0114 92.4718L23.9493 92.2494ZM23.8888 90.3102C24.0167 89.7254 24.2662 89.2487 24.6314 88.8648L23.933 88.2004C23.436 88.7229 23.1093 89.3626 22.9472 90.1043L23.8888 90.3102ZM24.6319 88.8643C24.9937 88.4828 25.4661 88.2156 26.0702 88.0724L25.8478 87.1345C25.0833 87.3158 24.4379 87.6681 23.9325 88.201L24.6319 88.8643ZM26.0702 88.0724C26.4117 87.9914 26.7638 87.9679 27.1287 88.0033L27.2217 87.0438C26.7545 86.9985 26.2957 87.0283 25.8478 87.1345L26.0702 88.0724ZM27.1287 88.0033C27.4725 88.0366 27.8081 88.1445 28.1387 88.334L28.618 87.4976C28.1765 87.2447 27.7101 87.0912 27.2217 87.0438L27.1287 88.0033ZM28.1411 88.3353C28.4509 88.5106 28.7433 88.7835 29.0124 89.1745L29.8065 88.6281C29.4712 88.1409 29.0762 87.7568 28.6156 87.4963L28.1411 88.3353ZM29.0124 89.1745C29.2709 89.5502 29.4866 90.0631 29.6453 90.7321L30.5832 90.5097C30.4064 89.7641 30.1523 89.1306 29.8065 88.6281L29.0124 89.1745ZM29.6453 90.7321L29.7623 91.2255L30.7002 91.0031L30.5832 90.5097L29.6453 90.7321ZM30.12 90.6453L24.2777 92.0306L24.5001 92.9686L30.3424 91.5833L30.12 90.6453ZM24.8579 92.3884L24.6192 91.3818L23.6813 91.6042L23.9199 92.6108L24.8579 92.3884ZM24.2614 91.9619L28.9195 90.8574L28.6971 89.9195L24.039 91.024L24.2614 91.9619ZM29.2773 90.2773C29.1607 89.7857 28.9538 89.3529 28.6476 88.9925L27.913 89.6166C28.108 89.8462 28.2531 90.136 28.3393 90.4997L29.2773 90.2773ZM28.65 88.9954C28.3467 88.6326 27.9692 88.3727 27.5244 88.2239L27.2185 89.138C27.4908 89.2291 27.7192 89.3849 27.9105 89.6137L28.65 88.9954ZM27.5266 88.2246C27.073 88.0704 26.5913 88.0631 26.0958 88.1806L26.3182 89.1185C26.6649 89.0363 26.9594 89.0499 27.2163 89.1372L27.5266 88.2246ZM26.0958 88.1806C25.5508 88.3098 25.0872 88.564 24.7293 88.9551L25.4405 89.6058C25.6511 89.3756 25.9355 89.2092 26.3182 89.1185L26.0958 88.1806ZM24.73 88.9543C24.3916 89.3226 24.1642 89.755 24.0512 90.2437L24.9904 90.4609C25.0661 90.1336 25.2148 89.8513 25.4398 89.6066L24.73 88.9543ZM24.0512 90.2437C23.9397 90.726 23.9432 91.2141 24.0589 91.7023L24.9968 91.4799C24.9145 91.1324 24.9132 90.7948 24.9904 90.4609L24.0512 90.2437ZM24.0589 91.7023L24.218 92.3733L25.156 92.1509L24.9968 91.4799L24.0589 91.7023ZM24.218 92.3733C24.3661 92.9979 24.6066 93.5331 24.9575 93.9555L25.699 93.3396C25.4663 93.0596 25.2793 92.6712 25.156 92.1509L24.218 92.3733ZM24.9606 93.9592C25.3099 94.3714 25.7362 94.6619 26.236 94.8139L26.5165 93.8917C26.2075 93.7978 25.9351 93.6181 25.6959 93.3359L24.9606 93.9592ZM26.2392 94.8149C26.7349 94.9619 27.2585 94.9621 27.7985 94.8341L27.5761 93.8961C27.1753 93.9912 26.8249 93.9832 26.5133 93.8908L26.2392 94.8149ZM27.7985 94.8341C28.148 94.7512 28.4657 94.6243 28.7445 94.4469L28.2272 93.6336C28.0531 93.7443 27.8385 93.8339 27.5761 93.8961L27.7985 94.8341ZM28.7477 94.4449C29.0309 94.2617 29.2654 94.0309 29.4442 93.7528L28.6332 93.2317C28.5328 93.388 28.3987 93.5226 28.2241 93.6356L28.7477 94.4449ZM29.4466 93.749C29.6267 93.4627 29.7353 93.1408 29.7795 92.7921L28.8232 92.671C28.7948 92.8955 28.7283 93.0806 28.6308 93.2355L29.4466 93.749ZM29.2816 93.2131L30.4816 93.2622L30.5209 92.299L29.321 92.25L29.2816 93.2131ZM30.0204 92.7478C29.9976 93.0817 29.9011 93.3915 29.7283 93.683L30.5574 94.1746C30.8066 93.7545 30.949 93.2989 30.9821 92.8134L30.0204 92.7478ZM29.7297 93.6806C29.5566 93.9687 29.3138 94.2257 28.9911 94.4495L29.5404 95.2416C29.9637 94.9481 30.3056 94.5938 30.556 94.177L29.7297 93.6806ZM28.9939 94.4476C28.6762 94.6647 28.2892 94.832 27.8242 94.9422L28.0466 95.8802C28.6079 95.7471 29.1078 95.5372 29.5377 95.2435L28.9939 94.4476Z" fill="#324652"/>
<path d="M48.5651 95.1679L46.3669 95.097V92.5846C46.2708 92.2014 46.0647 91.8546 45.7741 91.5869C45.4835 91.3192 45.121 91.1422 44.7312 91.0778C44.7312 91.0778 43.0004 90.9424 42.691 92.7457C42.691 92.7457 42.6378 94.259 42.6491 94.9729L40.5541 94.9616C40.5541 94.9616 40.2995 92.4444 41.0923 91.044C41.0923 91.044 41.4968 89.8836 43.3759 89.202C43.3759 89.202 45.5773 88.6266 47.0631 89.8949C47.4779 90.2365 47.8199 90.6578 48.0691 91.1339C48.3182 91.61 48.4693 92.1313 48.5135 92.6668L48.5651 95.1679Z" fill="#324652"/>
<path d="M36.314 94.962C35.863 94.9529 35.4554 94.8598 35.0912 94.6825C34.727 94.5022 34.44 94.2477 34.2303 93.919C34.0206 93.5872 33.9204 93.1896 33.9297 92.7263C33.9378 92.3185 34.0247 91.9896 34.1904 91.7395C34.3562 91.4863 34.5749 91.2898 34.8466 91.15C35.1182 91.0101 35.417 90.9079 35.7428 90.8434C36.0717 90.7758 36.4019 90.7237 36.7333 90.687C37.1669 90.6401 37.5183 90.6054 37.7876 90.583C38.0601 90.5575 38.2588 90.5105 38.3838 90.4419C38.5119 90.3734 38.5777 90.2511 38.5812 90.075L38.5819 90.0379C38.5911 89.5807 38.4731 89.223 38.2279 88.9647C37.9859 88.7064 37.6131 88.5723 37.1095 88.5622C36.5875 88.5517 36.1759 88.6579 35.8747 88.8805C35.5736 89.1032 35.3602 89.3431 35.2345 89.6001L34.204 89.2087C34.398 88.7799 34.6518 88.4481 34.9656 88.2134C35.2825 87.9756 35.6257 87.8124 35.9952 87.724C36.3679 87.6326 36.7334 87.5905 37.0917 87.5976C37.3203 87.6022 37.5824 87.6352 37.8778 87.6968C38.1764 87.7553 38.463 87.8707 38.7377 88.0431C39.0155 88.2156 39.2437 88.472 39.4223 88.8124C39.6009 89.1528 39.6846 89.6057 39.6733 90.171L39.5795 94.8604L38.4859 94.8385L38.5052 93.8747L38.4496 93.8736C38.3724 94.0266 38.2455 94.1894 38.069 94.362C37.8925 94.5346 37.6593 94.6798 37.3696 94.7977C37.0798 94.9155 36.7279 94.9702 36.314 94.962ZM36.5005 93.9829C36.9329 93.9916 37.2992 93.9139 37.5991 93.75C37.9022 93.586 38.1321 93.3712 38.2888 93.1055C38.4486 92.8398 38.5315 92.5587 38.5375 92.2622L38.5575 91.2613C38.51 91.3159 38.4071 91.3649 38.2486 91.4081C38.0933 91.4482 37.9133 91.4832 37.7088 91.5131C37.5073 91.54 37.3106 91.5639 37.1186 91.5848C36.9297 91.6026 36.7764 91.6181 36.6588 91.6312C36.3738 91.6626 36.1069 91.7175 35.8581 91.796C35.6125 91.8714 35.4123 91.9895 35.2577 92.1502C35.1062 92.3079 35.0277 92.5257 35.0221 92.8037C35.0145 93.1837 35.1493 93.4738 35.4265 93.6741C35.7069 93.8713 36.0649 93.9742 36.5005 93.9829Z" fill="#324652"/>
<path d="M35.0912 94.6825L34.9481 94.9714L34.9501 94.9724L35.0912 94.6825ZM34.2303 93.919L33.9578 94.0912L33.9585 94.0924L34.2303 93.919ZM34.1904 91.7395L34.4592 91.9175L34.4602 91.916L34.1904 91.7395ZM35.7428 90.8434L35.8054 91.1596L35.8076 91.1592L35.7428 90.8434ZM36.7333 90.687L36.6986 90.3665L36.6978 90.3666L36.7333 90.687ZM37.7876 90.583L37.8144 90.9042L37.8176 90.9039L37.7876 90.583ZM38.3838 90.4419L38.2317 90.1576L38.2287 90.1593L38.3838 90.4419ZM38.2279 88.9647L37.9927 89.1851L37.9941 89.1866L38.2279 88.9647ZM35.8747 88.8805L36.0664 89.1397L35.8747 88.8805ZM35.2345 89.6001L35.12 89.9015L35.395 90.0059L35.5241 89.7417L35.2345 89.6001ZM34.204 89.2087L33.9103 89.0758L33.7689 89.3883L34.0895 89.5101L34.204 89.2087ZM34.9656 88.2134L35.1587 88.4715L35.1591 88.4712L34.9656 88.2134ZM35.9952 87.724L36.0702 88.0376L36.072 88.0371L35.9952 87.724ZM37.8778 87.6968L37.8121 88.0124L37.8158 88.0131L37.8778 87.6968ZM38.7377 88.0431L38.5664 88.3162L38.5677 88.317L38.7377 88.0431ZM39.4223 88.8124L39.1369 88.9622L39.1369 88.9622L39.4223 88.8124ZM39.5795 94.8604L39.5731 95.1827L39.8954 95.1891L39.9018 94.8668L39.5795 94.8604ZM38.4859 94.8385L38.1636 94.8321L38.1572 95.1544L38.4795 95.1608L38.4859 94.8385ZM38.5052 93.8747L38.8275 93.8811L38.834 93.5588L38.5117 93.5524L38.5052 93.8747ZM38.4496 93.8736L38.4561 93.5513L38.2532 93.5472L38.1618 93.7283L38.4496 93.8736ZM38.069 94.362L38.2944 94.5925L38.069 94.362ZM37.3696 94.7977L37.2481 94.499L37.3696 94.7977ZM37.5991 93.75L37.4458 93.4664L37.4445 93.4671L37.5991 93.75ZM38.2888 93.1055L38.0126 92.9393L38.0111 92.9417L38.2888 93.1055ZM38.5575 91.2613L38.8798 91.2677L38.8976 90.3775L38.314 91.05L38.5575 91.2613ZM38.2486 91.4081L38.3293 91.7202L38.3334 91.7191L38.2486 91.4081ZM37.7088 91.5131L37.7514 91.8327L37.7554 91.8321L37.7088 91.5131ZM37.1186 91.5848L37.149 91.9058L37.1535 91.9053L37.1186 91.5848ZM36.6588 91.6312L36.694 91.9517L36.6944 91.9516L36.6588 91.6312ZM35.8581 91.796L35.9528 92.1042L35.9551 92.1034L35.8581 91.796ZM35.2577 92.1502L35.0254 91.9267L35.0252 91.9268L35.2577 92.1502ZM35.4265 93.6741L35.2378 93.9354L35.2411 93.9377L35.4265 93.6741ZM36.3204 94.6397C35.9108 94.6315 35.5499 94.5473 35.2322 94.3927L34.9501 94.9724C35.3608 95.1723 35.8152 95.2744 36.3076 95.2843L36.3204 94.6397ZM35.2342 94.3937C34.9204 94.2382 34.6789 94.0226 34.502 93.7456L33.9585 94.0924C34.2012 94.4727 34.5336 94.7662 34.9481 94.9714L35.2342 94.3937ZM34.5028 93.7468C34.3326 93.4774 34.2437 93.1446 34.252 92.7327L33.6073 92.7198C33.597 93.2347 33.7086 93.697 33.9578 94.0912L34.5028 93.7468ZM34.252 92.7327C34.2593 92.3648 34.3373 92.1014 34.4592 91.9175L33.9217 91.5614C33.7121 91.8777 33.6163 92.2722 33.6073 92.7198L34.252 92.7327ZM34.4602 91.916C34.5951 91.71 34.7715 91.5512 34.9941 91.4366L34.6991 90.8633C34.3783 91.0284 34.1173 91.2626 33.9207 91.5629L34.4602 91.916ZM34.9941 91.4366C35.2368 91.3117 35.5066 91.2188 35.8054 91.1596L35.6801 90.5272C35.3273 90.5971 34.9997 90.7086 34.6991 90.8633L34.9941 91.4366ZM35.8076 91.1592C36.1269 91.0936 36.4472 91.043 36.7687 91.0075L36.6978 90.3666C36.3565 90.4044 36.0165 90.458 35.6779 90.5276L35.8076 91.1592ZM36.768 91.0075C37.2003 90.9607 37.5488 90.9263 37.8144 90.9042L37.7609 90.2617C37.4878 90.2844 37.1334 90.3195 36.6986 90.3665L36.768 91.0075ZM37.8176 90.9039C38.101 90.8775 38.3541 90.8259 38.5389 90.7245L38.2287 90.1593C38.1635 90.1951 38.0192 90.2376 37.7576 90.262L37.8176 90.9039ZM38.5359 90.7262C38.7902 90.5901 38.8982 90.3448 38.9035 90.0815L38.2589 90.0686C38.2579 90.1188 38.2484 90.1404 38.2453 90.1461C38.2438 90.1488 38.2428 90.1499 38.2421 90.1507C38.2412 90.1515 38.2384 90.1541 38.2317 90.1577L38.5359 90.7262ZM38.9035 90.0815L38.9043 90.0444L38.2596 90.0315L38.2589 90.0686L38.9035 90.0815ZM38.9043 90.0444C38.9146 89.5276 38.7806 89.0787 38.4618 88.7428L37.9941 89.1866C38.1656 89.3673 38.2676 89.6339 38.2596 90.0315L38.9043 90.0444ZM38.4631 88.7442C38.1403 88.3998 37.6692 88.2509 37.116 88.2399L37.1031 88.8845C37.5569 88.8936 37.8314 89.0131 37.9927 89.1851L38.4631 88.7442ZM37.116 88.2399C36.5502 88.2286 36.0602 88.3424 35.6831 88.6213L36.0664 89.1397C36.2915 88.9733 36.6247 88.8749 37.1031 88.8845L37.116 88.2399ZM35.6831 88.6213C35.3527 88.8656 35.0992 89.1429 34.9449 89.4586L35.5241 89.7417C35.6212 89.5433 35.7945 89.3408 36.0664 89.1397L35.6831 88.6213ZM35.349 89.2988L34.3184 88.9073L34.0895 89.5101L35.12 89.9015L35.349 89.2988ZM34.4977 89.3416C34.6738 88.9524 34.8965 88.6677 35.1587 88.4715L34.7724 87.9553C34.4072 88.2286 34.1222 88.6074 33.9103 89.0758L34.4977 89.3416ZM35.1591 88.4712C35.4422 88.2587 35.7454 88.1153 36.0702 88.0376L35.9202 87.4105C35.5059 87.5096 35.1227 87.6924 34.7721 87.9555L35.1591 88.4712ZM36.072 88.0371C36.4194 87.9519 36.7569 87.9134 37.0853 87.9199L37.0982 87.2753C36.7099 87.2675 36.3164 87.3133 35.9184 87.4109L36.072 88.0371ZM37.0853 87.9199C37.2888 87.924 37.5303 87.9537 37.8121 88.0124L37.9435 87.3812C37.6344 87.3168 37.3519 87.2804 37.0982 87.2753L37.0853 87.9199ZM37.8158 88.0131C38.0731 88.0636 38.323 88.1634 38.5664 88.3162L38.9091 87.7701C38.6031 87.5781 38.2797 87.447 37.9398 87.3804L37.8158 88.0131ZM38.5677 88.317C38.7886 88.4541 38.9802 88.6637 39.1369 88.9622L39.7078 88.6626C39.5072 88.2803 39.2424 87.977 38.9078 87.7692L38.5677 88.317ZM39.1369 88.9622C39.2811 89.2371 39.3617 89.6298 39.351 90.1646L39.9956 90.1775C40.0075 89.5816 39.9208 89.0686 39.7078 88.6626L39.1369 88.9622ZM39.351 90.1646L39.2572 94.8539L39.9018 94.8668L39.9956 90.1775L39.351 90.1646ZM39.5859 94.5381L38.4924 94.5162L38.4795 95.1608L39.5731 95.1827L39.5859 94.5381ZM38.8082 94.845L38.8275 93.8811L38.1829 93.8683L38.1636 94.8321L38.8082 94.845ZM38.5117 93.5524L38.4561 93.5513L38.4432 94.1959L38.4988 94.197L38.5117 93.5524ZM38.1618 93.7283C38.1059 93.839 38.005 93.9737 37.8436 94.1315L38.2944 94.5925C38.4861 94.405 38.6388 94.2141 38.7374 94.0189L38.1618 93.7283ZM37.8436 94.1315C37.7038 94.2682 37.5091 94.3929 37.2481 94.499L37.491 95.0963C37.8096 94.9667 38.0811 94.801 38.2944 94.5925L37.8436 94.1315ZM37.2481 94.499C37.0098 94.5959 36.7041 94.6473 36.3204 94.6397L36.3076 95.2843C36.7518 95.2932 37.1498 95.235 37.491 95.0963L37.2481 94.499ZM36.494 94.3053C36.968 94.3147 37.393 94.23 37.7538 94.0328L37.4445 93.4671C37.2053 93.5978 36.8979 93.6685 36.5069 93.6606L36.494 94.3053ZM37.7525 94.0335C38.1009 93.8451 38.3766 93.5912 38.5665 93.2693L38.0111 92.9417C37.8876 93.1512 37.7034 93.327 37.4458 93.4664L37.7525 94.0335ZM38.565 93.2717C38.7526 92.96 38.8527 92.6241 38.8598 92.2686L38.2152 92.2557C38.2104 92.4933 38.1447 92.7197 38.0126 92.9393L38.565 93.2717ZM38.8598 92.2686L38.8798 91.2677L38.2352 91.2548L38.2152 92.2557L38.8598 92.2686ZM38.314 91.05C38.3314 91.03 38.3382 91.0327 38.3063 91.0478C38.2778 91.0614 38.2319 91.0785 38.1638 91.097L38.3334 91.7191C38.4237 91.6945 38.5086 91.6655 38.583 91.6301C38.6541 91.5963 38.7362 91.5472 38.801 91.4725L38.314 91.05ZM38.1679 91.0959C38.0265 91.1325 37.8583 91.1655 37.6621 91.1942L37.7554 91.8321C37.9683 91.801 38.1601 91.7639 38.3293 91.7202L38.1679 91.0959ZM37.6661 91.1936C37.4672 91.2202 37.273 91.2437 37.0838 91.2643L37.1535 91.9053C37.3482 91.8841 37.5475 91.8599 37.7514 91.8327L37.6661 91.1936ZM37.0883 91.2638C36.8985 91.2818 36.7433 91.2974 36.6231 91.3108L36.6944 91.9516C36.8096 91.9388 36.9609 91.9235 37.1489 91.9057L37.0883 91.2638ZM36.6235 91.3108C36.3196 91.3442 36.0319 91.4032 35.7612 91.4885L35.9551 92.1034C36.182 92.0319 36.428 91.981 36.694 91.9517L36.6235 91.3108ZM35.7635 91.4878C35.4736 91.5769 35.2234 91.7209 35.0254 91.9267L35.49 92.3737C35.6012 92.2581 35.7514 92.166 35.9528 92.1042L35.7635 91.4878ZM35.0252 91.9268C34.8035 92.1576 34.7065 92.4611 34.6998 92.7973L35.3444 92.8102C35.3488 92.5903 35.4089 92.4582 35.4901 92.3736L35.0252 91.9268ZM34.6998 92.7973C34.6904 93.2693 34.8642 93.6656 35.2378 93.9354L35.6153 93.4127C35.4344 93.2821 35.3387 93.0981 35.3444 92.8102L34.6998 92.7973ZM35.2411 93.9377C35.5865 94.1807 36.0116 94.2956 36.494 94.3053L36.5069 93.6606C36.1182 93.6529 35.8273 93.5618 35.612 93.4104L35.2411 93.9377Z" fill="#324652"/>
<path d="M52.699 95.0256C52.1059 95.0137 51.5853 94.8534 51.1371 94.5447C50.6891 94.2329 50.3424 93.7995 50.097 93.2445C49.8516 92.6864 49.7365 92.0305 49.7516 91.2767C49.7665 90.5291 49.9077 89.883 50.1751 89.3382C50.4425 88.7935 50.8078 88.3759 51.271 88.0853C51.7342 87.7948 52.2654 87.6556 52.8647 87.6676C53.3281 87.6768 53.6926 87.7614 53.9583 87.9212C54.2271 88.078 54.4306 88.2552 54.5688 88.4526C54.7102 88.647 54.8198 88.8069 54.8976 88.932L54.9903 88.9339L55.0604 85.4308L56.1539 85.4526L55.9641 94.9426L54.9076 94.9214L54.9295 93.8279L54.7998 93.8253C54.7168 93.9534 54.5993 94.1149 54.447 94.3096C54.2949 94.5012 54.0798 94.6716 53.8017 94.8205C53.5238 94.9664 53.1562 95.0347 52.699 95.0256ZM52.8669 94.0462C53.3056 94.055 53.6786 93.9481 53.9859 93.7256C54.2933 93.4999 54.5298 93.1848 54.6955 92.7802C54.8613 92.3725 54.9495 91.8999 54.9603 91.3623C54.9709 90.831 54.903 90.3645 54.7565 89.9629C54.6101 89.5583 54.3877 89.2417 54.0894 89.0132C53.7912 88.7816 53.4196 88.6614 52.9748 88.6525C52.5114 88.6432 52.1229 88.7545 51.8092 88.9861C51.4987 89.2148 51.2622 89.5299 51.0996 89.9315C50.9402 90.3301 50.8555 90.7796 50.8455 91.28C50.8354 91.7867 50.9034 92.2485 51.0496 92.6655C51.1989 93.0795 51.424 93.4116 51.725 93.6618C52.0291 93.9089 52.4097 94.0371 52.8669 94.0462Z" fill="#324652"/>
<path d="M51.1371 94.5447L50.953 94.8093L50.9542 94.8102L51.1371 94.5447ZM50.097 93.2445L49.8018 93.3742L49.8021 93.3748L50.097 93.2445ZM50.1751 89.3382L49.8857 89.1962L50.1751 89.3382ZM51.271 88.0853L51.0997 87.8122L51.0997 87.8122L51.271 88.0853ZM53.9583 87.9212L53.7921 88.1975L53.7958 88.1997L53.9583 87.9212ZM54.5688 88.4526L54.3047 88.6375L54.3081 88.6422L54.5688 88.4526ZM54.8976 88.932L54.6239 89.1023L54.7163 89.2508L54.8912 89.2543L54.8976 88.932ZM54.9903 88.9339L54.9839 89.2562L55.3062 89.2626L55.3126 88.9403L54.9903 88.9339ZM55.0604 85.4308L55.0668 85.1084L54.7445 85.102L54.7381 85.4243L55.0604 85.4308ZM56.1539 85.4526L56.4762 85.4591L56.4827 85.1368L56.1604 85.1303L56.1539 85.4526ZM55.9641 94.9426L55.9577 95.2649L56.28 95.2713L56.2864 94.949L55.9641 94.9426ZM54.9076 94.9214L54.5853 94.915L54.5789 95.2373L54.9012 95.2437L54.9076 94.9214ZM54.9295 93.8279L55.2518 93.8343L55.2583 93.512L54.9359 93.5056L54.9295 93.8279ZM54.7998 93.8253L54.8062 93.503L54.6267 93.4994L54.5291 93.6501L54.7998 93.8253ZM54.447 94.3096L54.6995 94.5101L54.701 94.5081L54.447 94.3096ZM53.8017 94.8205L53.9515 95.106L53.954 95.1047L53.8017 94.8205ZM53.9859 93.7256L54.175 93.9867L54.1766 93.9854L53.9859 93.7256ZM54.6955 92.7802L54.9938 92.9023L54.9941 92.9016L54.6955 92.7802ZM54.7565 89.9629L54.4533 90.0726L54.4536 90.0734L54.7565 89.9629ZM54.0894 89.0132L53.8917 89.2678L53.8934 89.2691L54.0894 89.0132ZM51.8092 88.9861L52.0004 89.2457L52.0008 89.2455L51.8092 88.9861ZM51.0996 89.9315L50.8008 89.8106L50.8003 89.8118L51.0996 89.9315ZM51.0496 92.6655L50.7453 92.7722L50.7463 92.7749L51.0496 92.6655ZM51.725 93.6618L51.5189 93.9097L51.5217 93.912L51.725 93.6618ZM52.7054 94.7033C52.1695 94.6926 51.7115 94.5489 51.32 94.2792L50.9542 94.8102C51.459 95.158 52.0423 95.3349 52.6925 95.3479L52.7054 94.7033ZM51.3213 94.2801C50.927 94.0057 50.616 93.6213 50.3918 93.1141L49.8021 93.3748C50.0687 93.9777 50.4512 94.4601 50.953 94.8093L51.3213 94.2801ZM50.3921 93.1147C50.1695 92.6084 50.0595 92.0009 50.0739 91.2832L49.4292 91.2703C49.4135 92.06 49.5337 92.7643 49.8018 93.3742L50.3921 93.1147ZM50.0739 91.2832C50.0881 90.572 50.2221 89.9741 50.4645 89.4803L49.8857 89.1962C49.5933 89.7918 49.4449 90.4863 49.4292 91.2703L50.0739 91.2832ZM50.4645 89.4803C50.7084 88.9832 51.0353 88.6137 51.4423 88.3584L51.0997 87.8122C50.5802 88.138 50.1765 88.6037 49.8857 89.1962L50.4645 89.4803ZM51.4422 88.3584C51.8472 88.1045 52.3154 87.979 52.8583 87.9899L52.8711 87.3453C52.2154 87.3321 51.6211 87.4852 51.0997 87.8122L51.4422 88.3584ZM52.8583 87.9899C53.2911 87.9985 53.5929 88.0776 53.7921 88.1975L54.1245 87.645C53.7923 87.4452 53.365 87.3551 52.8711 87.3453L52.8583 87.9899ZM53.7958 88.1997C54.0357 88.3396 54.1998 88.4876 54.3047 88.6375L54.8329 88.2678C54.6614 88.0227 54.4185 87.8165 54.1207 87.6428L53.7958 88.1997ZM54.3081 88.6422C54.4473 88.8337 54.5519 88.9865 54.6239 89.1023L55.1714 88.7618C55.0877 88.6272 54.973 88.4604 54.8296 88.263L54.3081 88.6422ZM54.8912 89.2543L54.9839 89.2562L54.9967 88.6116L54.9041 88.6097L54.8912 89.2543ZM55.3126 88.9403L55.3827 85.4372L54.7381 85.4243L54.668 88.9274L55.3126 88.9403ZM55.0539 85.7531L56.1475 85.7749L56.1604 85.1303L55.0668 85.1084L55.0539 85.7531ZM55.8316 85.4462L55.6418 94.9361L56.2864 94.949L56.4762 85.4591L55.8316 85.4462ZM55.9706 94.6203L54.9141 94.5991L54.9012 95.2437L55.9577 95.2649L55.9706 94.6203ZM55.2299 94.9279L55.2518 93.8343L54.6072 93.8214L54.5853 94.915L55.2299 94.9279ZM54.9359 93.5056L54.8062 93.503L54.7933 94.1476L54.9231 94.1502L54.9359 93.5056ZM54.5291 93.6501C54.4536 93.7669 54.3425 93.9199 54.1931 94.1111L54.701 94.5081C54.856 94.3098 54.9801 94.14 55.0704 94.0004L54.5291 93.6501ZM54.1946 94.1091C54.0764 94.2579 53.8995 94.4024 53.6495 94.5364L53.954 95.1047C54.26 94.9407 54.5133 94.7446 54.6995 94.5101L54.1946 94.1091ZM53.6519 94.5351C53.4391 94.6467 53.1314 94.7118 52.7054 94.7033L52.6925 95.3479C53.181 95.3577 53.6084 95.286 53.9515 95.106L53.6519 94.5351ZM52.8605 94.3685C53.3578 94.3785 53.8023 94.2565 54.175 93.9867L53.7968 93.4645C53.5549 93.6397 53.2533 93.7315 52.8734 93.7239L52.8605 94.3685ZM54.1766 93.9854C54.5386 93.7198 54.809 93.3537 54.9938 92.9023L54.3972 92.658C54.2506 93.0159 54.048 93.2801 53.7951 93.4657L54.1766 93.9854ZM54.9941 92.9016C55.1776 92.4502 55.2712 91.9373 55.2826 91.3688L54.638 91.3559C54.6278 91.8624 54.5449 92.2947 54.3969 92.6588L54.9941 92.9016ZM55.2826 91.3688C55.2938 90.807 55.2223 90.2994 55.0593 89.8525L54.4536 90.0734C54.5836 90.4297 54.648 90.8551 54.638 91.3559L55.2826 91.3688ZM55.0596 89.8533C54.8953 89.3992 54.6395 89.0285 54.2854 88.7573L53.8934 89.2691C54.1359 89.4549 54.3248 89.7173 54.4533 90.0726L55.0596 89.8533ZM54.2871 88.7586C53.9248 88.4772 53.4827 88.3402 52.9812 88.3302L52.9684 88.9748C53.3566 88.9826 53.6576 89.0861 53.8917 89.2678L54.2871 88.7586ZM52.9812 88.3302C52.4606 88.3198 51.9988 88.4453 51.6177 88.7268L52.0008 89.2455C52.247 89.0636 52.5622 88.9667 52.9684 88.9748L52.9812 88.3302ZM51.6181 88.7266C51.2538 88.9948 50.9829 89.3607 50.8008 89.8106L51.3984 90.0525C51.5414 89.6992 51.7436 89.4348 52.0004 89.2457L51.6181 88.7266ZM50.8003 89.8118C50.6243 90.2519 50.5338 90.7407 50.5232 91.2736L51.1678 91.2865C51.1772 90.8185 51.2561 90.4083 51.3989 90.0512L50.8003 89.8118ZM50.5232 91.2736C50.5124 91.8131 50.5847 92.3139 50.7453 92.7722L51.3538 92.5589C51.2221 92.1831 51.1583 91.7602 51.1678 91.2865L50.5232 91.2736ZM50.7463 92.7749C50.9126 93.2361 51.1685 93.6184 51.5189 93.9097L51.9311 93.4139C51.6796 93.2048 51.4851 92.923 51.3528 92.5562L50.7463 92.7749ZM51.5217 93.912C51.8905 94.2117 52.344 94.3582 52.8605 94.3685L52.8734 93.7239C52.4755 93.7159 52.1677 93.6061 51.9283 93.4116L51.5217 93.912Z" fill="#324652"/>
<path fill-rule="evenodd" clip-rule="evenodd" d="M29.2287 34.4916C20.8847 34.4916 14.1205 41.2558 14.1205 49.5998C14.1205 57.9438 20.8847 64.708 29.2287 64.708C37.5728 64.708 44.3369 57.9438 44.3369 49.5998C44.3369 41.2558 37.5728 34.4916 29.2287 34.4916ZM0.26123 49.5998C0.26123 33.6015 13.2304 20.6323 29.2287 20.6323C45.227 20.6323 58.1962 33.6015 58.1962 49.5998C58.1962 65.5981 45.227 78.5673 29.2287 78.5673C13.2304 78.5673 0.26123 65.5981 0.26123 49.5998Z" fill="#324652"/>
<path fill-rule="evenodd" clip-rule="evenodd" d="M29.3818 21.6348C13.9567 21.6348 1.45215 34.1393 1.45215 49.5644C1.45215 64.9895 13.9567 77.4941 29.3818 77.4941C44.8069 77.4941 57.3115 64.9895 57.3115 49.5644C57.3115 34.1393 44.8069 21.6348 29.3818 21.6348ZM29.2397 22.9678C14.5168 22.9678 2.58154 34.903 2.58154 49.6259C2.58154 64.3488 14.5168 76.2841 29.2397 76.2841C43.9626 76.2841 55.8978 64.3488 55.8978 49.6259C55.8978 34.903 43.9626 22.9678 29.2397 22.9678Z" fill="#E4F5FF"/>
<path d="M52.4766 33.5446V77.5736H68.0715V33.5446L68.5549 21.3436C68.5549 21.3436 67.9393 15.5662 73.9133 13.7404C73.9133 13.7404 77.7327 13.6227 78.1033 9.26027V1.24929H66.3745C66.3745 1.24929 52.7779 0.0277418 52.9004 16.1029L52.8343 21.1712L52.4766 33.5446Z" fill="#324652"/>
<path fill-rule="evenodd" clip-rule="evenodd" d="M66.3884 0.927023C66.381 0.92644 66.3711 0.925687 66.3588 0.924814C66.331 0.922845 66.2906 0.920263 66.2386 0.917638C66.1346 0.91239 65.9837 0.906967 65.7928 0.905936C65.411 0.903876 64.8682 0.919371 64.2181 0.989172C62.9195 1.1286 61.1834 1.48572 59.4471 2.36008C57.7078 3.23594 55.9697 4.63043 54.6765 6.83741C53.3844 9.04265 52.5481 12.0392 52.5786 16.102L52.5126 21.1645L52.1548 33.54V77.8959H68.3943V33.551L68.8784 21.3329L68.876 21.3099L68.876 21.3095L68.8758 21.308C68.8756 21.3061 68.8753 21.3029 68.8749 21.2983C68.8741 21.2892 68.8729 21.2748 68.8715 21.2554C68.8687 21.2166 68.8653 21.1579 68.8628 21.0815C68.8579 20.9288 68.8572 20.7063 68.8743 20.4325C68.9086 19.8841 69.0142 19.1357 69.2982 18.3344C69.8598 16.75 71.1221 14.9431 73.9708 14.0601C73.9734 14.0599 73.9761 14.0598 73.9789 14.0596C74.0112 14.0573 74.057 14.0536 74.1144 14.0471C74.2291 14.0343 74.3908 14.011 74.585 13.9688C74.9722 13.8845 75.4942 13.7236 76.0303 13.4158C77.1172 12.7919 78.2302 11.5808 78.425 9.2876L78.4262 9.27398V0.927023H66.3884ZM73.9039 13.4182L73.909 13.418C73.9142 13.4178 73.9229 13.4173 73.9347 13.4165C73.9585 13.4148 73.9952 13.4118 74.0429 13.4065C74.1385 13.3958 74.2781 13.3759 74.4479 13.3389C74.7883 13.2648 75.2444 13.1237 75.7094 12.8567C76.6228 12.3324 77.6026 11.3067 77.7815 9.24651V1.57164H66.3606L66.3464 1.57037L66.3462 1.57035L66.3452 1.57026L66.3393 1.56978C66.3338 1.56933 66.3251 1.56866 66.3133 1.56782C66.2897 1.56615 66.2537 1.56383 66.2061 1.56144C66.1111 1.55664 65.9699 1.55152 65.7893 1.55054C65.428 1.54859 64.9095 1.56325 64.2869 1.63011C63.04 1.76399 61.3845 2.10617 59.737 2.93582C58.0925 3.76397 56.4544 5.07818 55.2327 7.16329C54.0103 9.24954 53.193 12.1275 53.2232 16.1005L53.2233 16.1038L53.1571 21.178L52.7994 33.5493V77.2513H67.7497V33.5383L68.2326 21.3524C68.2314 21.3398 68.23 21.3227 68.2285 21.3013C68.2252 21.2546 68.2213 21.1874 68.2185 21.1021C68.2131 20.9318 68.2124 20.6887 68.2309 20.3923C68.2679 19.8004 68.3818 18.9903 68.6906 18.1191C69.3123 16.3652 70.7206 14.3793 73.8196 13.4322L73.8608 13.4196L73.9032 13.4183L73.9034 13.4183L73.9036 13.4183L73.9039 13.4182Z" fill="#324652"/>
<path fill-rule="evenodd" clip-rule="evenodd" d="M66.4634 0.548117C66.4584 0.547742 66.4529 0.547339 66.4469 0.546913C66.4164 0.544759 66.3734 0.54201 66.3185 0.539244C66.2089 0.533713 66.052 0.528101 65.8546 0.527036C65.4601 0.524907 64.902 0.540924 64.2347 0.612568C62.9038 0.755464 61.1173 1.12192 59.3255 2.02422C57.527 2.9299 55.7263 4.37456 54.3885 6.65771C53.053 8.93691 52.205 12.0069 52.2353 16.1249L52.1694 21.18L51.8115 33.5581V78.3228H68.8568V33.583L69.3418 21.3434L69.3364 21.2929L69.3364 21.2927L69.3364 21.2925L69.3363 21.292L69.3363 21.2915L69.3358 21.2864C69.3352 21.2796 69.3342 21.2676 69.333 21.2507C69.3306 21.2168 69.3274 21.1634 69.3251 21.0927C69.3206 20.951 69.3198 20.7412 69.336 20.4816C69.3686 19.9605 69.469 19.2506 69.7376 18.493C70.2656 17.0032 71.4505 15.2938 74.1854 14.4579L74.1915 14.456L74.1976 14.4541L73.9735 13.7644C74.1976 14.4541 74.1979 14.454 74.1981 14.4539L74.1987 14.4537L74.2002 14.4532L74.2043 14.4519L74.2171 14.4476C74.2276 14.4441 74.2419 14.4392 74.26 14.4328C74.296 14.4202 74.3467 14.402 74.41 14.3781C74.5364 14.3303 74.7138 14.2594 74.9252 14.1644C75.346 13.9755 75.9121 13.6867 76.4832 13.2886C77.5997 12.5103 78.8887 11.2007 78.8887 9.28429V0.548117H66.4634ZM73.753 13.0735L73.7539 13.0732C73.7593 13.0713 73.7684 13.0682 73.7811 13.0638C73.8064 13.0549 73.8457 13.0409 73.897 13.0215C73.9997 12.9826 74.1497 12.9228 74.3311 12.8413C74.6959 12.6775 75.1773 12.4309 75.6538 12.0988C76.6322 11.4167 77.4383 10.4862 77.4383 9.28429V1.99851H66.4022L66.3708 1.99569L66.3706 1.99567L66.3704 1.99566L66.3698 1.9956L66.3666 1.99534C66.3624 1.995 66.355 1.99443 66.3445 1.99368C66.3235 1.9922 66.2902 1.99005 66.2455 1.98779C66.156 1.98328 66.0209 1.97834 65.8468 1.9774C65.4982 1.97552 64.995 1.98966 64.3895 2.05467C63.1749 2.18508 61.5699 2.51793 59.9778 3.31964C58.3925 4.11796 56.817 5.38201 55.6399 7.39095C54.4613 9.40246 53.6559 12.2056 53.6857 16.1214L53.6858 16.1289L53.6195 21.2104L53.2619 33.5791V76.8724H67.4064V33.5543L67.8886 21.3852C67.8879 21.3758 67.8871 21.3654 67.8863 21.3539C67.8826 21.3023 67.8784 21.2298 67.8755 21.139C67.8697 20.9576 67.869 20.7017 67.8885 20.3912C67.9272 19.772 68.0462 18.9234 68.3705 18.0084C69.0276 16.1547 70.5199 14.0645 73.753 13.0735Z" fill="#E4F5FF"/>
<path fill-rule="evenodd" clip-rule="evenodd" d="M79.2344 0.0512695V9.33167C79.3307 10.9276 78.4407 12.1893 77.5902 13.0214C77.1591 13.4431 76.7238 13.7692 76.397 13.9896C76.2331 14.1002 76.0954 14.1849 75.9977 14.2426C75.9487 14.2714 75.9097 14.2936 75.8823 14.3088C75.8686 14.3164 75.8578 14.3223 75.8501 14.3265L75.8409 14.3314L75.8381 14.3329L75.8372 14.3334L75.8368 14.3336C75.8367 14.3337 75.8365 14.3338 75.6487 13.9773L75.8365 14.3338L75.7965 14.3548L75.7529 14.3665C72.7071 15.1813 71.2338 16.8454 70.5101 18.2806C70.1451 19.0045 69.967 19.6786 69.8802 20.1702C69.8369 20.4157 69.8166 20.6146 69.8071 20.75C69.8023 20.8176 69.8003 20.8693 69.7994 20.9028C69.799 20.9195 69.7989 20.9317 69.7988 20.9391L69.7988 20.9466V20.947L69.7988 20.9473L69.7988 20.9475L69.799 20.9578L69.2751 33.3904V78.6405H51.3467V33.3692L51.74 20.756L51.8124 15.607C51.7791 11.4526 52.7011 8.38206 54.1295 6.11983C55.5585 3.85683 57.4769 2.43023 59.3907 1.53583C61.3015 0.642899 63.2106 0.278617 64.6376 0.136409C65.3522 0.0651948 65.9489 0.0493726 66.3686 0.0514649C66.5785 0.0525114 66.7444 0.0580415 66.8589 0.0633989C66.9161 0.066078 66.9606 0.0687149 66.9912 0.070729C67.0042 0.0715801 67.0147 0.07232 67.0227 0.0729051L79.2344 0.0512695ZM68.993 20.9445C68.993 20.9416 68.993 20.9383 68.9931 20.9346C68.9931 20.9219 68.9934 20.9043 68.9939 20.8819C68.9951 20.8372 68.9977 20.7737 69.0033 20.6936C69.0145 20.5334 69.038 20.3064 69.0867 20.0302C69.184 19.4785 69.3831 18.7262 69.7906 17.9179C70.6081 16.2966 72.2492 14.483 75.4975 13.6008C75.5191 13.5887 75.5498 13.5713 75.5883 13.5485C75.6738 13.4981 75.7976 13.422 75.9464 13.3217C76.2447 13.1204 76.6393 12.8244 77.0267 12.4454C77.8107 11.6784 78.5096 10.6281 78.4295 9.36973L78.4287 9.35695V0.85847L66.9912 0.878734L66.9744 0.877333L66.9742 0.877311L66.9732 0.877233L66.9668 0.876747C66.9608 0.876299 66.9513 0.875616 66.9384 0.874769C66.9126 0.873074 66.8733 0.870725 66.8212 0.86829C66.7171 0.863419 66.5625 0.858213 66.3645 0.857226C65.9685 0.855252 65.4002 0.870175 64.7175 0.938209C63.35 1.0745 61.536 1.42272 59.7319 2.26582C57.9309 3.10745 56.1429 4.44042 54.8108 6.55004C53.4788 8.65961 52.5852 11.5733 52.6182 15.6049L52.6182 15.6094L52.5456 20.7743L52.1525 33.3817V77.8347H68.4693V33.3734L68.993 20.9445Z" fill="#324652"/>
<path d="M76.2169 49.8505C76.2171 48.9273 75.901 48.0319 75.3213 47.3134C74.7415 46.595 73.9331 46.0968 73.0307 45.902C72.1283 45.7072 71.1864 45.8274 70.3618 46.2426C69.5373 46.6579 68.8799 47.3431 68.4992 48.1842C68.2461 47.6389 67.8742 47.1571 67.4107 46.7742C66.9473 46.3913 66.404 46.117 65.8207 45.9714C65.2374 45.8258 64.6289 45.8125 64.0399 45.9326C63.4508 46.0527 62.8961 46.3031 62.4164 46.6655C61.9367 47.0279 61.5442 47.493 61.2676 48.0268C60.991 48.5605 60.8374 49.1495 60.818 49.7503C60.7986 50.3512 60.914 50.9488 61.1555 51.4993C61.3971 52.0498 61.7589 52.5393 62.2142 52.9318L68.3751 59.0556C68.3931 59.0736 68.4145 59.0878 68.438 59.0975C68.4615 59.1072 68.4867 59.1121 68.5121 59.112C68.5378 59.1122 68.5633 59.1073 68.587 59.0977C68.6108 59.088 68.6325 59.0737 68.6507 59.0556L75.0405 52.7045C75.4152 52.3301 75.7125 51.8854 75.9152 51.396C76.1179 50.9065 76.222 50.3819 76.2217 49.8521L76.2169 49.8505Z" fill="#FF0101"/>
<path d="M59.7209 45.3462C59.7738 45.1638 59.8602 44.9928 59.9755 44.8418C60.0407 44.7358 60.1429 44.6577 60.2624 44.6226C60.3335 44.6134 60.4055 44.6134 60.4767 44.6226C60.5178 44.6337 60.5534 44.6595 60.5766 44.6952C60.5998 44.7309 60.609 44.774 60.6024 44.816C60.5927 44.8821 60.6024 44.9337 60.5911 45.003C60.5741 45.0736 60.5458 45.1411 60.5073 45.2028C60.4466 45.3258 60.4027 45.4565 60.3768 45.5912C60.3226 45.8852 60.3226 46.1867 60.3768 46.4808C60.5057 47.1363 60.7691 47.758 61.1503 48.3066C61.9722 49.5395 63.1535 50.342 64.3992 50.9109C64.786 51.0882 65.1792 51.2445 65.5756 51.3943C65.7879 51.4588 65.9926 51.5458 66.1864 51.6538L66.2267 51.678L66.2396 51.6602C66.3065 51.5623 66.4031 51.4883 66.5151 51.4491C66.5881 51.4126 66.6629 51.3798 66.7391 51.3508C66.8165 51.3234 66.8922 51.2928 66.968 51.2606C67.0034 51.2461 67.0405 51.23 67.0776 51.2171C67.1379 51.1953 67.2023 51.1871 67.2661 51.1929C67.3354 51.1875 67.4047 51.2039 67.4643 51.2396C67.4825 51.2468 67.4998 51.256 67.5159 51.267C67.5449 51.2896 67.5535 51.2955 67.5417 51.2848H67.5304C67.5544 51.2915 67.5766 51.3033 67.5957 51.3192C67.6148 51.3352 67.6303 51.355 67.6413 51.3773C67.6522 51.3997 67.6583 51.4241 67.6592 51.4489C67.6601 51.4738 67.6558 51.4986 67.6464 51.5217C67.6464 51.5055 67.6464 51.5072 67.6464 51.5217C67.6478 51.5394 67.6478 51.5571 67.6464 51.5748L67.6287 51.6474C67.6427 51.6033 67.6427 51.6081 67.6287 51.6619C67.6144 51.7179 67.588 51.7702 67.5514 51.815C67.4861 51.9111 67.3943 51.9861 67.2871 52.0309L67.532 52.126C67.5968 52.1513 67.658 52.1849 67.7141 52.2259C67.76 52.254 67.8026 52.287 67.8414 52.3242C67.8871 52.3694 67.9204 52.4257 67.9379 52.4875C67.9554 52.5494 67.9566 52.6147 67.9414 52.6771C67.9291 52.7359 67.8992 52.7896 67.8558 52.831C67.8123 52.8724 67.7573 52.8997 67.698 52.9092C67.5176 52.9149 67.3389 52.8739 67.1791 52.7899C67.1952 52.8173 67.2113 52.8463 67.2274 52.877C67.2465 52.9161 67.2596 52.958 67.2661 53.0011C67.2887 53.0707 67.2887 53.1457 67.2661 53.2154C67.2611 53.2557 67.2437 53.2935 67.2162 53.3234C67.1971 53.3466 67.1719 53.3641 67.1434 53.3738C67.1149 53.3835 67.0843 53.385 67.055 53.3781C67.0733 53.3867 67.0647 53.3867 67.0292 53.3781C66.9955 53.3803 66.9619 53.3724 66.9325 53.3556C66.9179 53.347 66.9039 53.3373 66.8906 53.3266C66.7976 53.2678 66.7193 53.1884 66.6618 53.0945C66.6038 53.0156 66.5458 52.9334 66.5006 52.8528C66.4555 52.7722 66.3846 52.6787 66.3395 52.5853C66.3234 52.5547 66.3105 52.5224 66.2976 52.4918C66.2161 52.4888 66.1348 52.4807 66.0542 52.4676C65.822 52.4328 65.5955 52.3672 65.3806 52.2726C65.0067 52.126 64.6345 51.9697 64.2687 51.7892C63.5084 51.4362 62.7919 50.996 62.1334 50.4774C60.9859 49.562 59.9223 48.1858 59.6774 46.5887C59.6011 46.1763 59.6159 45.7523 59.7209 45.3462Z" fill="#324652"/>
<path d="M78.0638 46.0523C78.031 45.857 77.9622 45.6696 77.8607 45.4995C77.8056 45.3818 77.7093 45.2884 77.59 45.2369C77.516 45.2202 77.4402 45.2132 77.3644 45.2159C77.3192 45.2204 77.2774 45.2418 77.2475 45.276C77.2176 45.3101 77.2018 45.3543 77.2032 45.3996C77.2032 45.4689 77.1887 45.5221 77.1919 45.5946C77.2012 45.6695 77.2224 45.7424 77.2548 45.8106C77.3029 45.9446 77.3327 46.0844 77.3434 46.2263C77.3663 46.5356 77.3319 46.8465 77.2419 47.1433C77.0227 47.8002 76.6686 48.404 76.2024 48.916C75.1936 50.0795 73.8641 50.7532 72.4959 51.1722C72.0704 51.3043 71.6418 51.4139 71.2067 51.5138C70.9777 51.5528 70.7535 51.616 70.5379 51.7024L70.4928 51.7217L70.4815 51.7024C70.4234 51.5925 70.332 51.5039 70.2204 51.4494C70.1463 51.4042 70.077 51.3575 69.998 51.3204C69.919 51.2834 69.8465 51.2415 69.7708 51.198C69.7353 51.177 69.6999 51.1577 69.6628 51.1399C69.6027 51.1095 69.5367 51.0925 69.4694 51.09C69.3979 51.0754 69.3236 51.0833 69.2567 51.1125C69.2372 51.1174 69.2183 51.1245 69.2003 51.1335C69.1681 51.1528 69.1584 51.1577 69.1713 51.148H69.1842C69.1586 51.1516 69.134 51.1607 69.1121 51.1746C69.0903 51.1885 69.0717 51.2069 69.0575 51.2285C69.0433 51.2502 69.0339 51.2746 69.0299 51.3002C69.0259 51.3257 69.0274 51.3519 69.0343 51.3768C69.0343 51.3591 69.0343 51.3607 69.0343 51.3768C69.0329 51.3956 69.0329 51.4145 69.0343 51.4332L69.044 51.5106C69.0343 51.4644 69.0343 51.4698 69.044 51.5267C69.0528 51.5842 69.0736 51.6391 69.1052 51.6879C69.162 51.7956 69.2487 51.8846 69.355 51.9441L69.0875 52.0102C69.0172 52.0278 68.9495 52.0543 68.886 52.0891C68.8348 52.1123 68.7861 52.1409 68.741 52.1745C68.6877 52.215 68.6459 52.2687 68.6199 52.3304C68.5939 52.392 68.5845 52.4594 68.5927 52.5259C68.5986 52.5885 68.6232 52.6479 68.6635 52.6963C68.7038 52.7446 68.7578 52.7796 68.8184 52.7966C69.0053 52.8263 69.1968 52.8074 69.3743 52.7418C69.3534 52.7676 69.3324 52.795 69.3131 52.8256C69.2881 52.8633 69.2691 52.9046 69.2567 52.9481C69.2242 53.0169 69.2146 53.0942 69.2293 53.1689C69.2296 53.2112 69.2432 53.2523 69.268 53.2865C69.2852 53.3129 69.3093 53.3341 69.3377 53.3477C69.3662 53.3613 69.3978 53.3669 69.4291 53.3639C69.4087 53.3703 69.4179 53.3703 69.4565 53.3639C69.4913 53.3702 69.5271 53.3663 69.5597 53.3526C69.5758 53.3457 69.5914 53.3376 69.6064 53.3284C69.7099 53.2799 69.8009 53.2082 69.8723 53.1189C69.9416 53.0448 70.0125 52.9707 70.0786 52.8917C70.1447 52.8127 70.2204 52.7305 70.2816 52.6371C70.301 52.6081 70.3187 52.5758 70.338 52.5452C70.4234 52.5505 70.5089 52.5505 70.5943 52.5452C70.8399 52.5397 71.0838 52.5017 71.3195 52.4324C71.7272 52.3293 72.1349 52.2164 72.5362 52.0859C73.3707 51.8212 74.1716 51.4605 74.9229 51.011C76.2315 50.2165 77.5014 48.9353 77.9606 47.3238C78.0874 46.9126 78.1226 46.4786 78.0638 46.0523Z" fill="#324652"/>
<path d="M77.2874 45.8492C76.7314 44.7614 74.4011 42.0766 69.3392 42.9485C69.2937 42.9576 69.2467 42.9562 69.2018 42.9445C69.157 42.9327 69.1154 42.9108 69.0802 42.8805C69.0451 42.8501 69.0173 42.8122 68.9991 42.7695C68.9809 42.7268 68.9726 42.6806 68.975 42.6342C68.9798 42.5674 69.0069 42.5041 69.0518 42.4544C69.0968 42.4048 69.1571 42.3716 69.2232 42.3603C70.3658 42.1475 75.9917 41.606 77.9094 45.5833C78.0045 45.7799 77.6951 46.46 77.6693 46.0281C77.5952 46.0379 77.5199 46.0262 77.4522 45.9945C77.3845 45.9628 77.3273 45.9124 77.2874 45.8492Z" fill="#324652"/>
</g>
<defs>
<clipPath id="clip0_358_555">
<rect width="81.0606" height="100" fill="white"/>
</clipPath>
</defs>
</svg>
