<svg width="32" height="32" viewBox="0 0 32 32" fill="none" xmlns="http://www.w3.org/2000/svg">
<g clip-path="url(#clip0_1091_340113)">
<path fill-rule="evenodd" clip-rule="evenodd" d="M7.95594 31.3109C7.80906 31.3109 7.66156 31.2909 7.51844 31.2516C7.10469 31.1359 6.76531 30.8684 6.56219 30.4984L3.58594 25.0772L4.13344 24.7766L7.10969 30.1978C7.23156 30.4191 7.43594 30.5791 7.68656 30.6497C7.94531 30.7222 8.22594 30.6872 8.45656 30.5541C8.91844 30.2872 9.07906 29.6791 8.81531 29.1978L6.17406 24.3866L6.72156 24.0859L9.36281 28.8966C9.78906 29.6734 9.52281 30.6597 8.76906 31.0947C8.52219 31.2378 8.23969 31.3109 7.95594 31.3109Z" fill="white"/>
<path fill-rule="evenodd" clip-rule="evenodd" d="M17.0406 25.4177C15.77 24.5002 12.9031 23.1202 7.98374 24.1808C7.02999 24.3864 6.41874 24.5645 5.71124 24.7708C5.30749 24.8883 4.88999 25.0102 4.35874 25.1527C4.10687 25.2202 3.85499 25.252 3.60812 25.252C2.31999 25.252 1.15999 24.3739 0.796242 23.0177C0.586867 22.2364 0.681867 21.4308 1.06374 20.7502C1.44374 20.072 2.06562 19.5883 2.81374 19.3877C3.34437 19.2452 3.76687 19.142 4.17499 19.042C4.89124 18.867 5.50999 18.7158 6.43937 18.4164C11.23 16.8752 13.0225 14.2464 13.6644 12.8164L14.2344 13.0727C13.55 14.597 11.6519 17.3958 6.63062 19.0114C5.67999 19.3177 5.05124 19.4714 4.32374 19.6495C3.91874 19.7483 3.49999 19.8508 2.97562 19.9914C2.39124 20.1477 1.90624 20.5258 1.60874 21.0558C1.30687 21.5939 1.23249 22.2333 1.39937 22.8558C1.74187 24.1339 2.97062 24.877 4.19624 24.5489C4.72062 24.4083 5.13499 24.2877 5.53562 24.1708C6.25499 23.9608 6.87562 23.7802 7.85124 23.5695C13.0075 22.4577 16.0506 23.9327 17.4056 24.9108L17.0406 25.4177Z" fill="white"/>
<path fill-rule="evenodd" clip-rule="evenodd" d="M18.1475 20.5265L17.83 19.9878L19.1437 19.214C19.3119 19.1153 19.3881 18.929 19.3375 18.7403L18.9919 17.4509C18.9413 17.2621 18.7825 17.139 18.5869 17.1378L17.0625 17.124L17.0681 16.499L18.5931 16.5128C19.0694 16.5171 19.4725 16.829 19.5956 17.2896L19.9413 18.579C20.0644 19.039 19.8719 19.5109 19.4612 19.7528L18.1475 20.5265Z" fill="white"/>
<path fill-rule="evenodd" clip-rule="evenodd" d="M14.6868 11.1388C14.6274 11.1388 14.5674 11.1469 14.5087 11.1625C14.3312 11.21 14.1824 11.325 14.0899 11.4856C13.9974 11.6463 13.9724 11.8319 14.0199 12.01L17.7531 25.9413C17.8006 26.1188 17.9156 26.2675 18.0762 26.36C18.2368 26.4531 18.4231 26.4775 18.6006 26.43C18.9687 26.3313 19.1881 25.9513 19.0893 25.5831L15.3562 11.6519C15.3087 11.4744 15.1937 11.3256 15.0331 11.2331C14.9256 11.1706 14.8068 11.1388 14.6868 11.1388ZM18.4206 27.0781C18.1924 27.0781 17.9668 27.0181 17.7631 26.9006C17.4581 26.7244 17.2399 26.4406 17.1493 26.1025L13.4162 12.1713C13.3256 11.8325 13.3724 11.4781 13.5487 11.1725C13.7249 10.8675 14.0087 10.6494 14.3468 10.5588C14.6856 10.4681 15.0399 10.515 15.3449 10.6913C15.6499 10.8675 15.8681 11.1513 15.9587 11.49L19.6918 25.4213C19.8799 26.1225 19.4618 26.8456 18.7612 27.0338C18.6487 27.0631 18.5343 27.0781 18.4206 27.0781Z" fill="white"/>
<path fill-rule="evenodd" clip-rule="evenodd" d="M19.765 14.9689C19.7119 14.9689 19.6581 14.9552 19.6094 14.927C19.46 14.8408 19.4088 14.6502 19.495 14.5002L20.8819 12.0977C20.9681 11.9483 21.1594 11.897 21.3088 11.9833C21.4581 12.0695 21.5094 12.2608 21.4231 12.4102L20.0363 14.8127C19.9781 14.9133 19.8731 14.9689 19.765 14.9689ZM21.8531 17.6895C21.715 17.6895 21.5888 17.597 21.5513 17.4577C21.5069 17.2908 21.6056 17.1195 21.7725 17.0752L24.4519 16.3577C24.6181 16.3133 24.79 16.412 24.8344 16.5783C24.8788 16.7452 24.78 16.9164 24.6138 16.9614L21.9344 17.6789C21.9069 17.6864 21.8794 17.6895 21.8531 17.6895ZM23.8075 22.4764C23.7544 22.4764 23.7006 22.4633 23.6513 22.4345L21.2494 21.0477C21.1 20.9614 21.0488 20.7702 21.135 20.6208C21.2213 20.4714 21.4125 20.4202 21.5619 20.5064L23.9644 21.8933C24.1138 21.9795 24.165 22.1708 24.0788 22.3202C24.0206 22.4208 23.9156 22.4764 23.8075 22.4764Z" fill="white"/>
<path fill-rule="evenodd" clip-rule="evenodd" d="M5.43359 19.0137L6.03734 18.8518L7.42121 24.0133L6.81746 24.1751L5.43359 19.0137Z" fill="white"/>
<path fill-rule="evenodd" clip-rule="evenodd" d="M23.7153 24.6507C22.8341 24.6507 22.1178 25.4426 22.1178 26.4157C22.1178 27.3576 23.7703 29.0207 24.7572 30.0145C25.0047 30.2639 25.2184 30.4789 25.3828 30.657C25.4178 30.6951 25.4666 30.6951 25.5016 30.657C25.6659 30.4789 25.8797 30.2639 26.1272 30.0145C27.1141 29.0207 28.7666 27.3582 28.7666 26.4157C28.7666 25.4426 28.0497 24.6507 27.1684 24.6507C26.5584 24.6507 25.9934 25.0432 25.7278 25.6514C25.6784 25.7651 25.5659 25.8389 25.4416 25.8389C25.3172 25.8389 25.2047 25.7651 25.1553 25.6514C24.8903 25.0439 24.3247 24.6507 23.7153 24.6507ZM25.4416 31.3107C25.2441 31.3107 25.0603 31.2289 24.9234 31.0807C24.7666 30.9114 24.5566 30.7001 24.3134 30.4551C22.8266 28.9589 21.4922 27.5239 21.4922 26.4157C21.4922 25.0982 22.4891 24.0264 23.7147 24.0264C24.3909 24.0264 25.0247 24.3614 25.4416 24.912C25.8584 24.3614 26.4922 24.0264 27.1684 24.0264C28.3941 24.0264 29.3909 25.0982 29.3909 26.4157C29.3909 27.5232 28.0566 28.9582 26.5697 30.4551C26.3266 30.7001 26.1166 30.9114 25.9597 31.0807C25.8234 31.2289 25.6391 31.3107 25.4416 31.3107Z" fill="#E6B400"/>
<path fill-rule="evenodd" clip-rule="evenodd" d="M5.38281 7.11395C5.36281 7.11395 5.34656 7.12082 5.33594 7.12707C5.31844 7.13707 5.28969 7.16145 5.28969 7.20895V9.36457C5.28969 9.41207 5.31906 9.43645 5.33594 9.44645C5.35344 9.45645 5.38906 9.46957 5.43031 9.44582L7.29656 8.36832C7.33781 8.34457 7.34406 8.30707 7.34406 8.28707C7.34406 8.26707 7.33781 8.22957 7.29656 8.20582L5.43031 7.12832C5.41281 7.11707 5.39719 7.11395 5.38281 7.11395ZM5.38219 10.0839C5.25906 10.0839 5.13594 10.0514 5.02344 9.98645C4.79844 9.85645 4.66406 9.62395 4.66406 9.36332V7.2077C4.66406 6.9477 4.79844 6.71457 5.02281 6.58457C5.24781 6.45457 5.51656 6.4552 5.74219 6.58457L7.60844 7.6627C7.83406 7.7927 7.96844 8.0252 7.96844 8.2852C7.96844 8.5452 7.83406 8.77769 7.60844 8.90769L5.74219 9.98519C5.62969 10.0514 5.50594 10.0839 5.38219 10.0839Z" fill="#E6B400"/>
<path fill-rule="evenodd" clip-rule="evenodd" d="M2.16062 5.05895C1.6925 5.05895 1.31187 5.43957 1.31187 5.9077V10.6633C1.31187 11.1308 1.6925 11.5114 2.16 11.5114H9.71937C10.1869 11.5114 10.5675 11.1308 10.5675 10.6633V5.9077C10.5675 5.43957 10.1869 5.05895 9.71937 5.05895H2.16062ZM9.72 12.1364H2.16062C1.34813 12.1364 0.6875 11.4752 0.6875 10.6627V5.9077C0.6875 5.0952 1.34875 4.43457 2.16062 4.43457H9.72C10.5325 4.43457 11.1931 5.09582 11.1931 5.9077V10.6633C11.1931 11.4758 10.5319 12.1364 9.72 12.1364Z" fill="#E6B400"/>
<path fill-rule="evenodd" clip-rule="evenodd" d="M28.4592 4.7998H21.7155C21.543 4.7998 21.403 4.6598 21.403 4.4873C21.403 4.31418 21.543 4.1748 21.7155 4.1748H28.4598C28.6323 4.1748 28.7723 4.3148 28.7723 4.4873C28.7717 4.66043 28.6317 4.7998 28.4592 4.7998ZM21.7148 6.6123C21.543 6.6123 21.403 6.47355 21.4023 6.30105C21.4023 6.30105 21.4023 6.30043 21.4023 6.2998C21.4023 6.12793 21.5417 5.98793 21.7136 5.9873L26.1642 5.9723H26.1655C26.3373 5.9723 26.4773 6.11168 26.478 6.28418V6.2848C26.478 6.4573 26.3386 6.59668 26.1667 6.5973L21.7161 6.6123C21.7161 6.6123 21.7155 6.6123 21.7148 6.6123Z" fill="white"/>
<path fill-rule="evenodd" clip-rule="evenodd" d="M24.8173 1.30957C21.5817 1.30957 18.9486 3.14207 18.9486 5.39395C18.9486 6.3252 19.3917 7.20395 20.2311 7.93582C20.3342 8.0252 20.3667 8.17207 20.3117 8.29707L19.5755 9.97145L21.233 8.8077C21.3248 8.74332 21.4442 8.73332 21.5455 8.78082C22.5148 9.23645 23.6461 9.4777 24.8173 9.4777C28.053 9.4777 30.6861 7.6452 30.6861 5.39332C30.6861 3.14207 28.0536 1.30957 24.8173 1.30957ZM19.2211 10.8808C19.1148 10.8808 19.0086 10.8446 18.9205 10.7721C18.7536 10.6358 18.6998 10.4114 18.7867 10.2146L19.6498 8.25145C18.793 7.43582 18.3242 6.42895 18.3242 5.39395C18.3242 4.11582 19.0136 2.92082 20.2661 2.0302C21.4861 1.16207 23.1023 0.68457 24.818 0.68457C26.533 0.68457 28.1498 1.16207 29.3698 2.0302C30.6217 2.92082 31.3111 4.11582 31.3111 5.39395C31.3111 6.67207 30.6217 7.86645 29.3692 8.7577C28.1492 9.6252 26.533 10.1033 24.8173 10.1033C23.6211 10.1033 22.4598 9.86832 21.4461 9.42207L19.4936 10.7933C19.4105 10.8521 19.3155 10.8808 19.2211 10.8808Z" fill="white"/>
</g>
<defs>
<clipPath id="clip0_1091_340113">
<rect width="32" height="32" fill="white"/>
</clipPath>
</defs>
</svg>
