<svg width="36" height="36" viewBox="0 0 36 36" fill="none" xmlns="http://www.w3.org/2000/svg">
<path d="M7.25781 16.6047H6.13281V11.3172C6.13281 8.11094 6.18906 4.67969 6.18906 4.67969C6.18906 4.39844 6.47031 4.11719 6.75156 4.11719H14.1766V5.24219H7.25781V11.3172V16.6047Z" fill="#E6B400"/>
<path d="M29.9773 16.6031H28.8523V5.29687H21.9336V4.17188H29.4148C29.7523 4.17188 29.9773 4.39687 29.9773 4.73437V16.6031Z" fill="#E6B400"/>
<path d="M30.4266 33.3062H5.56406C4.88906 33.3062 4.21406 33.025 3.76406 32.575C3.25781 32.125 2.97656 31.45 2.97656 30.7187V14.125H4.10156V30.7187C4.10156 31.1125 4.27031 31.5063 4.55156 31.7875C4.83281 32.0688 5.22656 32.2375 5.56406 32.2375H30.4266C31.2141 32.2375 31.8891 31.5625 31.8891 30.775V14.125H33.0141V30.7187C33.0703 32.125 31.8891 33.3062 30.4266 33.3062Z" fill="black"/>
<path d="M17.9953 25.4906C17.8828 25.4906 17.7703 25.4344 17.6578 25.3781L3.20156 14.5781C3.08906 14.4656 2.97656 14.2969 2.97656 14.1281C2.97656 13.9594 3.03281 13.7906 3.14531 13.6781L17.6578 0.853125C17.8828 0.684375 18.2203 0.684375 18.3891 0.853125L32.7891 13.6781C32.9016 13.7906 32.9578 13.9594 32.9578 14.1281C32.9578 14.2969 32.8453 14.4656 32.7328 14.5781L18.3328 25.3781C18.2203 25.4906 18.1078 25.4906 17.9953 25.4906ZM4.43906 14.0719L17.9953 24.2531L31.6078 14.0719L18.0516 2.03437L4.43906 14.0719Z" fill="black"/>
<path d="M3.77734 31.7266L14.5352 22.2453L15.2788 23.0891L4.52097 32.5703L3.77734 31.7266Z" fill="black"/>
<path d="M20.4922 23.0547L21.2358 22.2109L31.9936 31.6922L31.25 32.5359L20.4922 23.0547Z" fill="black"/>
<path d="M17.7742 16.3688C16.2555 16.3688 15.0742 15.1312 15.0742 13.6687C15.0742 12.2062 16.3117 10.9688 17.7742 10.9688C19.2367 10.9688 20.4742 12.2062 20.4742 13.6687C20.4742 15.1312 19.2367 16.3688 17.7742 16.3688ZM17.7742 12.0375C16.8742 12.0375 16.1992 12.7688 16.1992 13.6125C16.1992 14.4563 16.9305 15.1875 17.7742 15.1875C18.618 15.1875 19.3492 14.4563 19.3492 13.6125C19.3492 12.7688 18.618 12.0375 17.7742 12.0375Z" fill="#E6B400"/>
<path d="M19.743 19.0156H16.4805C14.6242 19.0156 13.1055 17.4969 13.1055 15.6406V11.9844C13.1055 10.1281 14.6242 8.60938 16.4805 8.60938H20.193C22.0492 8.60938 23.568 10.1281 23.568 11.9844V12.8281C23.568 14.6844 22.0492 16.2031 20.193 16.2031C19.8555 16.2031 19.6305 15.9781 19.6305 15.6406V11.1969H20.7555V15.0219C21.7117 14.7969 22.443 13.8969 22.443 12.8281V11.9844C22.443 10.7469 21.4305 9.73437 20.193 9.73437H16.4805C15.243 9.73437 14.2305 10.7469 14.2305 11.9844V15.6406C14.2305 16.8781 15.243 17.8906 16.4805 17.8906H19.743C19.968 17.8906 20.1367 17.7219 20.1367 17.4969V16.6531H21.2617V17.4969C21.2617 18.3406 20.5867 19.0156 19.743 19.0156Z" fill="#E6B400"/>
</svg>
