<svg width="52" height="52" viewBox="0 0 52 52" fill="none" xmlns="http://www.w3.org/2000/svg">
<path d="M38.8519 49.6781H13.1484C12.3085 49.6781 11.625 48.9946 11.625 48.1547V47.1471C11.625 45.7517 12.7605 44.6162 14.1559 44.6162H37.8444C39.2398 44.6162 40.3753 45.7517 40.3753 47.1471V48.1547C40.3753 48.9946 39.6918 49.6781 38.8519 49.6781ZM14.1559 45.6308C13.3201 45.6308 12.6406 46.3103 12.6406 47.1461V48.1536C12.6406 48.4339 12.8681 48.6614 13.1484 48.6614H38.8519C39.1322 48.6614 39.3597 48.4339 39.3597 48.1536V47.1461C39.3597 46.3103 38.6792 45.6308 37.8444 45.6308H14.1559Z" fill="white"/>
<path d="M35.8134 45.6276C34.096 45.6276 32.6965 44.7694 31.7682 43.1474C30.8572 41.5559 30.3961 39.2586 30.3961 36.3194H31.4117C31.4117 39.417 31.9835 44.613 35.8134 44.613V45.6276ZM16.1875 45.6276V44.612C20.0174 44.612 20.5892 39.416 20.5892 36.3184H21.6048C21.6048 39.2586 21.1427 41.5559 20.2327 43.1464C19.3045 44.7704 17.9049 45.6276 16.1875 45.6276Z" fill="white"/>
<path d="M47.3281 36.8292H4.67188C2.71172 36.8292 1.11719 35.2347 1.11719 33.2745V5.875C1.11719 3.91484 2.71172 2.32031 4.67188 2.32031H47.3281C49.2883 2.32031 50.8828 3.91484 50.8828 5.875V33.2745C50.8828 35.2347 49.2883 36.8292 47.3281 36.8292ZM4.67188 3.33594C3.27133 3.33594 2.13281 4.47445 2.13281 5.875V33.2745C2.13281 34.6751 3.27133 35.8136 4.67188 35.8136H47.3281C48.7287 35.8136 49.8672 34.6751 49.8672 33.2745V5.875C49.8672 4.47445 48.7287 3.33594 47.3281 3.33594H4.67188Z" fill="white"/>
<path d="M40.3792 16.1164C40.2492 16.1164 40.1192 16.0667 40.0196 15.9681C39.8216 15.7701 39.8216 15.4481 40.0196 15.2501L42.1108 13.1589L40.0196 11.0678C39.8216 10.8697 39.8216 10.5478 40.0196 10.3497C40.2177 10.1517 40.5396 10.1517 40.7377 10.3497L43.1884 12.8004C43.3864 12.9985 43.3864 13.3204 43.1884 13.5185L40.7377 15.9692C40.6392 16.0677 40.5092 16.1164 40.3792 16.1164Z" fill="#E6B400"/>
<path d="M32.8416 16.1174C32.7116 16.1174 32.5816 16.0677 32.4821 15.9692L30.0313 13.5185C29.8333 13.3204 29.8333 12.9985 30.0313 12.8004L32.4821 10.3497C32.6801 10.1517 33.0021 10.1517 33.2001 10.3497C33.3981 10.5478 33.3981 10.8697 33.2001 11.0678L31.1089 13.1589L33.2001 15.2501C33.3981 15.4481 33.3981 15.7701 33.2001 15.9681C33.1016 16.0687 32.9716 16.1174 32.8416 16.1174Z" fill="#E6B400"/>
<path d="M35.5323 17.6955C35.4886 17.6955 35.4449 17.6894 35.4002 17.6782C35.129 17.6061 34.9686 17.3268 35.0407 17.0566L37.1979 9.00374C37.27 8.73256 37.5483 8.5721 37.8194 8.64421C38.0906 8.71631 38.2511 8.99561 38.179 9.26577L36.0218 17.3187C35.9619 17.5462 35.7567 17.6955 35.5323 17.6955Z" fill="#E6B400"/>
<path d="M44.5726 24.8418H28.6445C28.3642 24.8418 28.1367 24.6143 28.1367 24.334C28.1367 24.0537 28.3642 23.8262 28.6445 23.8262H44.5726C44.8529 23.8262 45.0804 24.0537 45.0804 24.334C45.0804 24.6143 44.8539 24.8418 44.5726 24.8418Z" fill="#E6B400"/>
<path d="M44.5726 21.9014H28.6445C28.3642 21.9014 28.1367 21.6739 28.1367 21.3936C28.1367 21.1132 28.3642 20.8857 28.6445 20.8857H44.5726C44.8529 20.8857 45.0804 21.1132 45.0804 21.3936C45.0804 21.6739 44.8539 21.9014 44.5726 21.9014Z" fill="#E6B400"/>
<path d="M44.5741 27.7822H33.4805C33.2002 27.7822 32.9727 27.5547 32.9727 27.2744C32.9727 26.9941 33.2002 26.7666 33.4805 26.7666H44.5741C44.8545 26.7666 45.082 26.9941 45.082 27.2744C45.082 27.5547 44.8555 27.7822 44.5741 27.7822Z" fill="#E6B400"/>
<path d="M15.4023 13.9902H16.418V16.2896H15.4023V13.9902Z" fill="white"/>
<path d="M15.9075 14.4966C14.7974 14.4966 13.8945 13.5938 13.8945 12.4837C13.8945 11.3736 14.7974 10.4707 15.9075 10.4707C17.0176 10.4707 17.9205 11.3736 17.9205 12.4837C17.9205 13.5938 17.0176 14.4966 15.9075 14.4966ZM15.9075 11.4863C15.357 11.4863 14.9102 11.9342 14.9102 12.4837C14.9102 13.0341 15.358 13.481 15.9075 13.481C16.457 13.481 16.9048 13.0331 16.9048 12.4837C16.9048 11.9342 16.457 11.4863 15.9075 11.4863Z" fill="white"/>
<path d="M23.5549 22.902H22.1523V21.8863H23.5549C23.7367 21.8863 23.885 21.738 23.885 21.5562V19.2051C23.885 19.0233 23.7367 18.875 23.5549 18.875H22.1523V17.8594H23.5549C24.2973 17.8594 24.9006 18.4627 24.9006 19.2051V21.5562C24.9006 22.2987 24.2963 22.902 23.5549 22.902ZM9.66625 22.902H8.26367C7.52125 22.902 6.91797 22.2987 6.91797 21.5562V19.2051C6.91797 18.4627 7.52125 17.8594 8.26367 17.8594H9.66625V18.875H8.26367C8.08187 18.875 7.93359 19.0233 7.93359 19.2051V21.5562C7.93359 21.738 8.08187 21.8863 8.26367 21.8863H9.66625V22.902Z" fill="white"/>
<path d="M15.9061 25.9395C14.4121 25.9395 12.9191 25.7953 10.7091 25.5068C9.82352 25.3911 9.15625 24.6304 9.15625 23.7376V17.9841C9.15625 17.0914 9.82453 16.3307 10.7102 16.2149C15.1312 15.638 16.6851 15.638 21.1051 16.2149C21.9907 16.3307 22.658 17.0904 22.658 17.9841V23.7376C22.658 24.6304 21.9897 25.3911 21.1041 25.5068C18.8941 25.7953 17.4001 25.9395 15.9061 25.9395ZM15.9071 16.7999C14.4517 16.7999 12.9953 16.94 10.8412 17.2214C10.4532 17.2721 10.1719 17.5921 10.1719 17.9831V23.7366C10.1719 24.1276 10.4532 24.4486 10.8412 24.4983C15.1495 25.061 16.6648 25.061 20.973 24.4983C21.361 24.4475 21.6423 24.1276 21.6423 23.7366V17.9831C21.6423 17.5921 21.361 17.2711 20.973 17.2214C18.8189 16.9411 17.3625 16.7999 15.9071 16.7999Z" fill="white"/>
<path d="M19.0796 24.0423H12.738C12.2231 24.0423 11.8047 23.6239 11.8047 23.1089V22.4346C11.8047 22.1543 12.0322 21.9268 12.3125 21.9268C12.5928 21.9268 12.8203 22.1543 12.8203 22.4346V23.0267H18.9973V22.4346C18.9973 22.1543 19.2248 21.9268 19.5052 21.9268C19.7855 21.9268 20.013 22.1543 20.013 22.4346V23.1089C20.013 23.6239 19.5935 24.0423 19.0796 24.0423Z" fill="white"/>
<path d="M12.31 20.9696C11.5056 20.9696 10.8516 20.3155 10.8516 19.5112C10.8516 18.7068 11.5056 18.0527 12.31 18.0527C13.1144 18.0527 13.7684 18.7068 13.7684 19.5112C13.7684 20.3155 13.1134 20.9696 12.31 20.9696ZM12.31 19.0684C12.0662 19.0684 11.8672 19.2674 11.8672 19.5112C11.8672 19.7549 12.0662 19.954 12.31 19.954C12.5537 19.954 12.7528 19.7549 12.7528 19.5112C12.7528 19.2674 12.5537 19.0684 12.31 19.0684Z" fill="#E6B400"/>
<path d="M19.5053 20.9696C18.7009 20.9696 18.0469 20.3155 18.0469 19.5112C18.0469 18.7068 18.7009 18.0527 19.5053 18.0527C20.3097 18.0527 20.9638 18.7068 20.9638 19.5112C20.9638 20.3155 20.3087 20.9696 19.5053 20.9696ZM19.5053 19.0684C19.2605 19.0684 19.0625 19.2674 19.0625 19.5112C19.0625 19.7549 19.2616 19.954 19.5053 19.954C19.7491 19.954 19.9481 19.7549 19.9481 19.5112C19.9481 19.2674 19.7491 19.0684 19.5053 19.0684Z" fill="#E6B400"/>
</svg>
