<svg width="52" height="52" viewBox="0 0 52 52" fill="none" xmlns="http://www.w3.org/2000/svg">
<path fill-rule="evenodd" clip-rule="evenodd" d="M48.8886 34.4585L38.5762 26.5726V5.86686C38.5762 5.69447 38.5077 5.52914 38.3858 5.40724C38.2639 5.28534 38.0986 5.21686 37.9262 5.21686H30.7762L27.3762 1.81452C27.2545 1.69329 27.0898 1.62516 26.918 1.625H2.9625C2.79011 1.625 2.62478 1.69348 2.50288 1.81538C2.38098 1.93728 2.3125 2.10261 2.3125 2.275V43.0625C2.31339 43.2344 2.38224 43.3989 2.50403 43.5201C2.62582 43.6414 2.79064 43.7095 2.9625 43.7097H5.78766V46.6588C5.78842 46.8307 5.85723 46.9953 5.97905 47.1166C6.10086 47.2379 6.26576 47.306 6.43766 47.306H26.9441V48.6606C26.9443 49.1153 27.1249 49.5512 27.4464 49.8727C27.7679 50.1942 28.2039 50.3749 28.6585 50.375H44.1012C44.5552 50.3742 44.9905 50.1935 45.3114 49.8723C45.6324 49.5512 45.8129 49.1159 45.8134 48.6618V37.2758L46.3953 37.7204C46.6095 37.8841 46.8538 38.004 47.1143 38.0733C47.3748 38.1426 47.6465 38.1599 47.9137 38.1242C48.1809 38.0885 48.4384 38.0005 48.6716 37.8653C48.9048 37.7301 49.1091 37.5502 49.2728 37.336C49.4365 37.1219 49.5564 36.8775 49.6257 36.617C49.695 36.3565 49.7123 36.0849 49.6766 35.8177C49.6409 35.5505 49.5529 35.2929 49.4177 35.0597C49.2825 34.8265 49.1026 34.6222 48.8885 34.4585H48.8886ZM37.2813 6.51422V25.6598C36.9274 25.5198 36.5454 25.466 36.1666 25.5029C35.7879 25.5397 35.4233 25.6661 35.1031 25.8716C35.1031 20.5176 35.1031 15.1635 35.1031 9.80921C35.1031 9.72431 35.0863 9.64024 35.0538 9.56182C35.0212 9.48339 34.9735 9.41216 34.9135 9.35218L32.0754 6.51422H37.2813ZM27.5653 3.835L32.8931 9.16266H27.5653V3.835ZM3.60976 2.91962H26.2709V9.81023C26.2709 9.98262 26.3394 10.1479 26.4613 10.2698C26.5832 10.3917 26.7485 10.4602 26.9209 10.4602H33.8086V26.8574L25.7558 33.0161H15.8302C15.7445 33.0151 15.6595 33.031 15.58 33.0631C15.5005 33.0951 15.4282 33.1426 15.3673 33.2028C15.3063 33.263 15.2579 33.3347 15.2248 33.4138C15.1918 33.4928 15.1748 33.5777 15.1748 33.6633C15.1748 33.749 15.1918 33.8339 15.2248 33.9129C15.2579 33.992 15.3063 34.0637 15.3673 34.1239C15.4282 34.1841 15.5005 34.2316 15.58 34.2636C15.6595 34.2957 15.7445 34.3116 15.8302 34.3106H24.0633L23.87 34.4585C23.62 34.6503 23.4174 34.8969 23.278 35.1794C23.1386 35.462 23.0661 35.7728 23.066 36.0878C23.066 36.1223 23.0672 36.1574 23.0686 36.1918H15.8301C15.7444 36.1907 15.6594 36.2067 15.5799 36.2387C15.5004 36.2708 15.4281 36.3183 15.3671 36.3785C15.3062 36.4387 15.2578 36.5104 15.2247 36.5894C15.1917 36.6685 15.1747 36.7533 15.1747 36.839C15.1747 36.9247 15.1917 37.0095 15.2247 37.0886C15.2578 37.1676 15.3062 37.2393 15.3671 37.2995C15.4281 37.3597 15.5004 37.4072 15.5799 37.4393C15.6594 37.4713 15.7444 37.4873 15.8301 37.4862H23.6104C23.9582 37.86 24.4327 38.0912 24.9415 38.1346C25.4503 38.1781 25.9571 38.0308 26.3633 37.7214L26.9445 37.2768V42.4186H3.60945V2.91962H3.60976ZM7.08228 46.0118V43.7125H26.9446V46.0124L7.08228 46.0118ZM38.0353 49.0804H34.7218V42.1009H38.0353V49.0804ZM44.5179 48.662C44.5166 48.7724 44.4722 48.8779 44.3941 48.9561C44.3161 49.0342 44.2107 49.0787 44.1003 49.0802H39.3294V41.4538C39.3294 41.2818 39.2613 41.1169 39.1399 40.9951C39.0186 40.8732 38.854 40.8045 38.682 40.8037H34.0752C33.9028 40.8037 33.7374 40.8722 33.6155 40.9941C33.4936 41.116 33.4252 41.2814 33.4252 41.4538V49.0806H28.6585C28.5481 49.0791 28.4427 49.0345 28.3647 48.9563C28.2866 48.8782 28.2422 48.7727 28.2409 48.6622V36.2857L36.3789 30.0625L44.5176 36.2857V48.662H44.5179ZM47.6408 36.8463C47.4746 36.8463 47.3131 36.792 47.1807 36.6917L36.7721 28.7326C36.6593 28.6462 36.5211 28.5993 36.3789 28.5993C36.2367 28.5993 36.0985 28.6462 35.9856 28.7326L25.5768 36.6921C25.4977 36.7526 25.4075 36.7969 25.3112 36.8225C25.215 36.8481 25.1147 36.8545 25.016 36.8413C24.9172 36.8281 24.8221 36.7956 24.736 36.7457C24.6498 36.6957 24.5743 36.6293 24.5139 36.5502C24.4534 36.4711 24.4091 36.3809 24.3835 36.2846C24.3579 36.1884 24.3515 36.0881 24.3647 35.9893C24.3778 35.8906 24.4103 35.7955 24.4603 35.7094C24.5102 35.6232 24.5766 35.5477 24.6557 35.4873L35.8345 26.9384C36.1133 26.7264 36.6478 26.7266 36.9253 26.9366L48.1043 35.4875C48.2633 35.61 48.3675 35.7905 48.394 35.9896C48.4205 36.1886 48.3673 36.3901 48.2459 36.55C48.1708 36.6383 48.0783 36.7102 47.9742 36.7612C47.8701 36.8122 47.7566 36.8412 47.6408 36.8465V36.8463ZM15.183 14.3609C15.183 14.2756 15.1998 14.1911 15.2325 14.1122C15.2652 14.0333 15.313 13.9617 15.3734 13.9013C15.4337 13.841 15.5054 13.7931 15.5843 13.7604C15.6631 13.7277 15.7476 13.7109 15.833 13.7109H30.3854C30.547 13.7255 30.6973 13.8001 30.8067 13.9199C30.9162 14.0396 30.9769 14.196 30.9769 14.3583C30.9769 14.5206 30.9162 14.6769 30.8067 14.7967C30.6973 14.9165 30.547 14.991 30.3854 15.0057H15.8302C15.6592 15.0049 15.4954 14.9368 15.3742 14.8161C15.2531 14.6955 15.1844 14.5319 15.183 14.3609ZM15.833 16.8852H30.3854C30.5468 16.9 30.6968 16.9747 30.806 17.0944C30.9152 17.2141 30.9757 17.3704 30.9757 17.5324C30.9757 17.6945 30.9152 17.8507 30.806 17.9705C30.6968 18.0902 30.5468 18.1648 30.3854 18.1797H15.8302C14.972 18.1761 14.9752 16.8852 15.8332 16.8852H15.833ZM12.583 19.3703H7.03384C6.86192 19.3703 6.697 19.3022 6.57518 19.1809C6.45336 19.0596 6.38456 18.895 6.38384 18.723V13.1732C6.38384 13.0008 6.45232 12.8354 6.57422 12.7135C6.69612 12.5916 6.86144 12.5232 7.03384 12.5232H12.5834C12.7558 12.5232 12.9211 12.5916 13.043 12.7135C13.1649 12.8354 13.2334 13.0008 13.2334 13.1732V18.7203C13.2334 18.8927 13.1649 19.058 13.043 19.1799C12.9211 19.3018 12.7558 19.3703 12.5834 19.3703H12.583ZM7.68363 13.8206H11.9384V18.0761H7.68089L7.68363 13.8206ZM15.183 24.0121C15.1831 23.8398 15.2517 23.6745 15.3735 23.5526C15.4954 23.4308 15.6607 23.3623 15.833 23.3621H30.3854C30.5474 23.3762 30.6983 23.4505 30.8082 23.5704C30.9182 23.6903 30.9792 23.847 30.9792 24.0097C30.9792 24.1723 30.9182 24.3291 30.8082 24.449C30.6983 24.5689 30.5474 24.6432 30.3854 24.6572H15.8302C15.6591 24.6565 15.4952 24.5884 15.3741 24.4676C15.2529 24.3468 15.1843 24.1832 15.183 24.0121ZM15.833 26.5359H30.3852C30.4752 26.5277 30.5659 26.5382 30.6516 26.567C30.7373 26.5957 30.8161 26.642 30.8829 26.703C30.9496 26.7639 31.003 26.838 31.0395 26.9207C31.076 27.0034 31.0948 27.0928 31.0948 27.1832C31.0948 27.2736 31.076 27.363 31.0395 27.4457C31.003 27.5284 30.9496 27.6025 30.8829 27.6634C30.8161 27.7244 30.7373 27.7707 30.6516 27.7994C30.5659 27.8282 30.4752 27.8388 30.3852 27.8305H15.8302C14.972 27.8266 14.9754 26.5355 15.8332 26.5355L15.833 26.5359ZM12.583 29.0213H7.03384C6.86199 29.0213 6.69713 28.9532 6.57533 28.832C6.45352 28.7108 6.38467 28.5463 6.38384 28.3744V22.825C6.38384 22.6526 6.45232 22.4872 6.57422 22.3653C6.69612 22.2434 6.86144 22.175 7.03384 22.175H12.5834C12.7558 22.175 12.9211 22.2434 13.043 22.3653C13.1649 22.4872 13.2334 22.6526 13.2334 22.825V28.3713C13.2334 28.5437 13.1649 28.709 13.043 28.8309C12.9211 28.9528 12.7558 29.0213 12.5834 29.0213H12.583ZM7.68363 23.4721H11.9384V27.7266H7.68089L7.68363 23.4718V23.4721ZM12.5832 38.675C12.5832 38.675 7.50509 38.675 7.03384 38.675C6.86149 38.6749 6.69623 38.6063 6.57437 38.4845C6.4525 38.3626 6.38397 38.1973 6.38384 38.025V32.4754C6.38384 32.303 6.45232 32.1377 6.57422 32.0158C6.69612 31.8939 6.86144 31.8254 7.03384 31.8254H12.5834C12.7558 31.8254 12.9211 31.8939 13.043 32.0158C13.1649 32.1377 13.2334 32.303 13.2334 32.4754V38.0273C13.2327 38.1993 13.1639 38.3639 13.0421 38.4852C12.9203 38.6066 12.7553 38.6747 12.5834 38.6747L12.5832 38.675ZM7.68363 33.1256H11.9384V37.3804H7.68089L7.68363 33.1256Z" fill="white"/>
<path fill-rule="evenodd" clip-rule="evenodd" d="M15.1781 14.3612C15.1781 14.2759 15.1949 14.1913 15.2276 14.1125C15.2602 14.0336 15.3081 13.9619 15.3685 13.9016C15.4288 13.8412 15.5005 13.7934 15.5793 13.7607C15.6582 13.728 15.7427 13.7112 15.8281 13.7112H30.3805C30.5421 13.7258 30.6923 13.8003 30.8018 13.9201C30.9112 14.0399 30.9719 14.1963 30.9719 14.3586C30.9719 14.5208 30.9112 14.6772 30.8018 14.797C30.6923 14.9168 30.5421 14.9913 30.3805 15.0059H15.8252C15.6542 15.0052 15.4904 14.9371 15.3693 14.8164C15.2482 14.6957 15.1795 14.5322 15.1781 14.3612ZM15.8281 16.8854H30.3805C30.5418 16.9003 30.6918 16.9749 30.8011 17.0947C30.9103 17.2144 30.9708 17.3706 30.9708 17.5327C30.9708 17.6948 30.9103 17.851 30.8011 17.9707C30.6918 18.0905 30.5418 18.1651 30.3805 18.18H15.8252C14.967 18.1764 14.9701 16.8854 15.8281 16.8854ZM12.5781 19.3706H7.02891C6.85699 19.3706 6.69207 19.3025 6.57025 19.1812C6.44843 19.0599 6.37963 18.8952 6.37891 18.7233V13.1734C6.37891 13.001 6.44739 12.8357 6.56929 12.7138C6.69119 12.5919 6.85652 12.5234 7.02891 12.5234H12.5785C12.7509 12.5234 12.9162 12.5919 13.0381 12.7138C13.16 12.8357 13.2285 13.001 13.2285 13.1734V18.7206C13.2285 18.893 13.16 19.0583 13.0381 19.1802C12.9162 19.3021 12.7505 19.3706 12.5781 19.3706ZM7.6787 13.8209H11.9335V18.0764H7.67596L7.6787 13.8209ZM15.1781 24.0124C15.1782 23.84 15.2467 23.6748 15.3686 23.5529C15.4905 23.4311 15.6557 23.3625 15.8281 23.3624H30.3805C30.5425 23.3765 30.6934 23.4508 30.8033 23.5707C30.9132 23.6906 30.9742 23.8473 30.9742 24.01C30.9742 24.1726 30.9132 24.3294 30.8033 24.4492C30.6934 24.5691 30.5425 24.6434 30.3805 24.6575H15.8252C15.6542 24.6568 15.4903 24.5886 15.3692 24.4679C15.248 24.3471 15.1794 24.1834 15.1781 24.0124ZM15.8281 26.5362H30.3803C30.4703 26.5279 30.561 26.5385 30.6467 26.5673C30.7324 26.596 30.8111 26.6423 30.8779 26.7032C30.9447 26.7641 30.9981 26.8383 31.0345 26.921C31.071 27.0037 31.0899 27.0931 31.0899 27.1835C31.0899 27.2739 31.071 27.3633 31.0345 27.4459C30.9981 27.5286 30.9447 27.6028 30.8779 27.6637C30.8111 27.7246 30.7324 27.7709 30.6467 27.7997C30.561 27.8285 30.4703 27.839 30.3803 27.8307H15.8252C14.967 27.8269 14.9703 26.5362 15.8281 26.5362ZM12.5781 29.0216H7.02891C6.85706 29.0216 6.6922 28.9535 6.5704 28.8323C6.44859 28.7111 6.37974 28.5465 6.37891 28.3747V22.8252C6.37891 22.6528 6.44739 22.4875 6.56929 22.3656C6.69119 22.2437 6.85652 22.1752 7.02891 22.1752H12.5785C12.7509 22.1752 12.9162 22.2437 13.0381 22.3656C13.16 22.4875 13.2285 22.6528 13.2285 22.8252V28.3716C13.2285 28.5439 13.16 28.7093 13.0381 28.8312C12.9162 28.9531 12.7505 29.0216 12.5781 29.0216ZM7.6787 23.4724H11.9335V27.7268H7.67596L7.6787 23.4724ZM12.5783 38.6753C12.5783 38.6753 7.50016 38.6753 7.02891 38.6753C6.85656 38.6751 6.69131 38.6066 6.56944 38.4847C6.44757 38.3629 6.37904 38.1976 6.37891 38.0253V32.4757C6.37891 32.3033 6.44739 32.138 6.56929 32.0161C6.69119 31.8942 6.85652 31.8257 7.02891 31.8257H12.5785C12.7509 31.8257 12.9162 31.8942 13.0381 32.0161C13.16 32.138 13.2285 32.3033 13.2285 32.4757V38.0276C13.2278 38.1995 13.159 38.3642 13.0372 38.4855C12.9153 38.6068 12.7502 38.6753 12.5783 38.6753ZM7.6787 33.1259H11.9335V37.3807H7.67596L7.6787 33.1259Z" fill="#E6B400"/>
</svg>
