<svg width="52" height="52" viewBox="0 0 52 52" fill="none" xmlns="http://www.w3.org/2000/svg">
<path d="M3.66844 27.6081C6.51016 27.3898 9.38031 27.9047 11.9681 29.098C12.3246 29.2626 12.48 29.6851 12.3165 30.0416C12.1966 30.3016 11.9397 30.4549 11.6705 30.4549C11.571 30.4549 11.4695 30.4336 11.373 30.3889C9.00453 29.2971 6.37812 28.8248 3.77812 29.0259C3.38812 29.0554 3.04484 28.7629 3.01437 28.3719C2.98391 27.9809 3.27742 27.6386 3.66844 27.6081ZM11.9681 32.6334C9.38031 31.4401 6.51016 30.9252 3.66844 31.1435C3.27742 31.174 2.98391 31.5152 3.01437 31.9073C3.04484 32.2983 3.38711 32.5908 3.77812 32.5613C6.37812 32.3612 9.00453 32.8325 11.373 33.9243C11.4695 33.969 11.571 33.9903 11.6705 33.9903C11.9397 33.9903 12.1966 33.837 12.3165 33.577C12.481 33.2205 12.3246 32.798 11.9681 32.6334ZM11.9681 36.1688C9.38031 34.9755 6.51016 34.4605 3.66844 34.6789C3.27742 34.7094 2.98391 35.0506 3.01437 35.4427C3.04484 35.8347 3.38711 36.1272 3.77812 36.0967C6.37812 35.8966 9.00453 36.3679 11.373 37.4597C11.4695 37.5044 11.571 37.5257 11.6705 37.5257C11.9397 37.5257 12.1966 37.3723 12.3165 37.1123C12.481 36.7559 12.3246 36.3334 11.9681 36.1688ZM11.9681 39.7042C9.38031 38.5109 6.51016 37.9959 3.66844 38.2143C3.27742 38.2448 2.98391 38.586 3.01437 38.978C3.04484 39.3701 3.38711 39.6616 3.77812 39.6321C6.37812 39.432 9.00453 39.9033 11.373 40.9951C11.4695 41.0398 11.571 41.0611 11.6705 41.0611C11.9397 41.0611 12.1966 40.9077 12.3165 40.6477C12.481 40.2912 12.3246 39.8687 11.9681 39.7042ZM27.1456 24.7298V42.9451C27.1456 43.1634 27.0451 43.3696 26.8745 43.5037C26.7028 43.6387 26.4794 43.6875 26.2671 43.6357C23.0801 42.8618 19.0359 43.2416 14.2452 44.7661C14.1751 44.7884 14.103 44.7996 14.0298 44.7996C13.9567 44.7996 13.8846 44.7884 13.8145 44.7661C9.02383 43.2416 4.97961 42.8608 1.79258 43.6357C1.58031 43.6875 1.35688 43.6387 1.18523 43.5037C1.01359 43.3686 0.914062 43.1624 0.914062 42.9451V24.7298C0.914062 24.3734 1.17812 24.0727 1.53156 24.025C2.58375 23.8848 3.62477 23.8178 4.65461 23.8229V23.7985C4.65461 20.2804 7.18859 17.3442 10.5259 16.7145C9.36406 15.7223 8.6257 14.2486 8.6257 12.6053C8.6257 9.62547 11.05 7.20117 14.0298 7.20117C17.0097 7.20117 19.434 9.62547 19.434 12.6053C19.434 14.2486 18.6956 15.7223 17.5338 16.7145C20.8721 17.3442 23.4051 20.2794 23.4051 23.7985V23.8229C24.4349 23.8178 25.4759 23.8848 26.5281 24.025C26.8816 24.0717 27.1456 24.3734 27.1456 24.7298ZM14.0298 16.5886C16.2256 16.5886 18.0121 14.8021 18.0121 12.6063C18.0121 10.4105 16.2256 8.62406 14.0298 8.62406C11.8341 8.62406 10.0476 10.4105 10.0476 12.6063C10.0476 14.8021 11.8341 16.5886 14.0298 16.5886ZM6.07547 23.8757C8.82984 24.0697 11.4918 24.7918 14.0298 26.039C16.5679 24.7928 19.2298 24.0697 21.9842 23.8757V23.7995C21.9842 20.6084 19.3873 18.0115 16.1962 18.0115H11.8635C8.67242 18.0115 6.07547 20.6084 6.07547 23.7995V23.8757ZM13.3189 27.273C9.87289 25.5992 6.18313 24.9573 2.33594 25.3616V42.0706C3.26219 41.9071 4.24633 41.8259 5.2843 41.8259C7.68016 41.8259 10.3665 42.2605 13.3199 43.1289V27.274L13.3189 27.273ZM25.7237 25.3616C21.8776 24.9584 18.1868 25.6002 14.7408 27.274V43.1289C18.9729 41.8858 22.6586 41.5303 25.7237 42.0716V25.3626V25.3616ZM16.0916 29.0991C15.7351 29.2636 15.5797 29.6861 15.7432 30.0426C15.863 30.3026 16.12 30.4559 16.3891 30.4559C16.4887 30.4559 16.5902 30.4346 16.6867 30.3899C19.0552 29.2981 21.6816 28.8259 24.2816 29.0269C24.6716 29.0544 25.0148 28.7639 25.0453 28.3729C25.0758 27.9819 24.7823 27.6396 24.3913 27.6091C21.5495 27.3908 18.6794 27.9057 16.0916 29.0991ZM24.3913 31.1445C21.5495 30.9262 18.6794 31.4411 16.0916 32.6345C15.7351 32.799 15.5797 33.2215 15.7432 33.578C15.863 33.838 16.12 33.9913 16.3891 33.9913C16.4887 33.9913 16.5902 33.97 16.6867 33.9253C19.0552 32.8335 21.6816 32.3612 24.2816 32.5623C24.6716 32.5918 25.0148 32.2993 25.0453 31.9083C25.0758 31.5173 24.7823 31.175 24.3913 31.1445ZM24.3913 34.6799C21.5495 34.4616 18.6794 34.9765 16.0916 36.1698C15.7351 36.3344 15.5797 36.7569 15.7432 37.1134C15.863 37.3734 16.12 37.5267 16.3891 37.5267C16.4887 37.5267 16.5902 37.5054 16.6867 37.4607C19.0552 36.3689 21.6816 35.8966 24.2816 36.0977C24.6716 36.1262 25.0148 35.8347 25.0453 35.4437C25.0758 35.0527 24.7823 34.7104 24.3913 34.6799ZM24.3913 38.2153C21.5495 37.9969 18.6794 38.5119 16.0916 39.7052C15.7351 39.8698 15.5797 40.2923 15.7432 40.6487C15.863 40.9087 16.12 41.0621 16.3891 41.0621C16.4887 41.0621 16.5902 41.0408 16.6867 40.9961C19.0552 39.9043 21.6816 39.432 24.2816 39.6331C24.6716 39.6626 25.0148 39.3701 25.0453 38.9791C25.0758 38.588 24.7823 38.2458 24.3913 38.2153ZM51.0859 24.7715V27.2313C51.0859 27.5248 50.9052 27.7879 50.632 27.8945L48.6535 28.6603C48.5184 29.0747 48.3509 29.4779 48.1538 29.8659L49.012 31.8067C49.1309 32.0748 49.072 32.3887 48.8648 32.5969L47.125 34.3366C46.9178 34.5438 46.603 34.6027 46.3348 34.4839L44.394 33.6257C44.005 33.8227 43.6018 33.9903 43.1884 34.1254L42.4227 36.1038C42.317 36.378 42.053 36.5578 41.7595 36.5578H39.2996C39.0061 36.5578 38.743 36.377 38.6364 36.1038L37.8706 34.1254C37.4573 33.9903 37.053 33.8227 36.6651 33.6257L34.7242 34.4839C34.4561 34.6027 34.1423 34.5438 33.9341 34.3366L32.1943 32.5969C31.9871 32.3897 31.9282 32.0759 32.047 31.8067L32.9052 29.8659C32.7082 29.4769 32.5406 29.0737 32.4055 28.6603L30.4271 27.8945C30.1529 27.7889 29.9731 27.5248 29.9731 27.2313V24.7715C29.9731 24.478 30.1539 24.2149 30.4271 24.1083L32.4055 23.3425C32.5406 22.9281 32.7082 22.5249 32.9052 22.137L32.047 20.1961C31.9282 19.928 31.9871 19.6141 32.1943 19.4059L33.9341 17.6662C34.1413 17.459 34.4561 17.4001 34.7242 17.5189L36.6661 18.3771C37.0551 18.1801 37.4583 18.0125 37.8716 17.8774L38.6374 15.899C38.743 15.6248 39.0071 15.445 39.3006 15.445H41.7605C42.054 15.445 42.317 15.6258 42.4237 15.899L43.1895 17.8774C43.6028 18.0125 44.007 18.1801 44.395 18.3771L46.3359 17.5189C46.604 17.4001 46.9188 17.459 47.126 17.6662L48.8658 19.4059C49.073 19.6131 49.1319 19.927 49.013 20.1961L48.1548 22.137C48.3519 22.5259 48.5195 22.9291 48.6545 23.3425L50.633 24.1083C50.9072 24.2139 51.087 24.478 51.087 24.7715H51.0859ZM49.6641 25.259L47.8177 24.544C47.6084 24.4627 47.45 24.2891 47.3901 24.0727C47.2377 23.5314 47.0204 23.0073 46.7441 22.5148C46.6345 22.3198 46.6233 22.0841 46.7137 21.879L47.514 20.0671L46.4638 19.017L44.652 19.8183C44.4468 19.9087 44.2112 19.8975 44.0162 19.7878C43.5246 19.5116 43.0005 19.2942 42.4582 19.1419C42.2429 19.0809 42.0682 18.9225 41.987 18.7143L41.272 16.8679H39.7861L39.0711 18.7143C38.9898 18.9235 38.8162 19.082 38.5998 19.1419C38.0585 19.2942 37.5345 19.5116 37.0419 19.7878C36.8469 19.8975 36.6112 19.9087 36.4061 19.8183L34.5932 19.017L33.543 20.0671L34.3434 21.879C34.4338 22.0841 34.4226 22.3198 34.3129 22.5148C34.0366 23.0063 33.8193 23.5304 33.667 24.0727C33.606 24.288 33.4476 24.4627 33.2394 24.544L31.393 25.259V26.7448L33.2404 27.4598C33.4496 27.5411 33.608 27.7148 33.668 27.9311C33.8193 28.4724 34.0366 28.9965 34.3139 29.4891C34.4236 29.6841 34.4348 29.9197 34.3444 30.1248L33.543 31.9377L34.5932 32.9879L36.4051 32.1876C36.6102 32.0972 36.8459 32.1084 37.0409 32.218C37.5324 32.4943 38.0565 32.7116 38.5988 32.864C38.8141 32.9249 38.9888 33.0834 39.0701 33.2916L39.7851 35.138H41.2709L41.9859 33.2916C42.0672 33.0823 42.2409 32.9239 42.4572 32.864C42.9985 32.7127 43.5226 32.4953 44.0152 32.218C44.2102 32.1084 44.4458 32.0972 44.6509 32.1876L46.4638 32.9889L47.514 31.9387L46.7137 30.1269C46.6233 29.9217 46.6345 29.6861 46.7441 29.4911C47.0204 28.9995 47.2377 28.4755 47.3901 27.9331C47.451 27.7178 47.6095 27.5431 47.8177 27.4619L49.6641 26.7469V25.261V25.259ZM45.1262 26.0014C45.1262 28.5374 43.0635 30.6002 40.5275 30.6002C37.9915 30.6002 35.9287 28.5374 35.9287 26.0014C35.9287 23.4654 37.9915 21.4027 40.5275 21.4027C43.0635 21.4027 45.1262 23.4654 45.1262 26.0014ZM43.7044 26.0014C43.7044 24.2495 42.2794 22.8245 40.5275 22.8245C38.7755 22.8245 37.3506 24.2495 37.3506 26.0014C37.3506 27.7534 38.7755 29.1783 40.5275 29.1783C42.2794 29.1783 43.7044 27.7534 43.7044 26.0014ZM21.6765 11.2667H39.7353V12.3514C39.7353 12.7445 40.0532 13.0623 40.4463 13.0623C40.8393 13.0623 41.1572 12.7445 41.1572 12.3514V10.5558C41.1572 10.1627 40.8393 9.84484 40.4463 9.84484H21.6765C21.2834 9.84484 20.9655 10.1627 20.9655 10.5558C20.9655 10.9488 21.2834 11.2667 21.6765 11.2667ZM40.4463 38.0812C40.0532 38.0812 39.7353 38.3991 39.7353 38.7922V39.8769H30.4901C30.097 39.8769 29.7791 40.1948 29.7791 40.5878C29.7791 40.9809 30.097 41.2987 30.4901 41.2987H40.4463C40.8393 41.2987 41.1572 40.9809 41.1572 40.5878V38.7922C41.1572 38.3991 40.8393 38.0812 40.4463 38.0812Z" fill="white"/>
<path d="M51.0816 24.7708V27.2307C51.0816 27.5242 50.9008 27.7872 50.6276 27.8939L48.6491 28.6596C48.5141 29.074 48.3465 29.4772 48.1495 29.8652L49.0077 31.8061C49.1265 32.0742 49.0676 32.388 48.8604 32.5962L47.1206 34.336C46.9134 34.5432 46.5986 34.6021 46.3305 34.4832L44.3896 33.625C44.0006 33.8221 43.5974 33.9896 43.1841 34.1247L42.4183 36.1032C42.3127 36.3774 42.0486 36.5571 41.7551 36.5571H39.2952C39.0017 36.5571 38.7387 36.3764 38.632 36.1032L37.8663 34.1247C37.4529 33.9896 37.0487 33.8221 36.6607 33.625L34.7198 34.4832C34.4517 34.6021 34.1379 34.5432 33.9297 34.336L32.1899 32.5962C31.9827 32.389 31.9238 32.0752 32.0427 31.8061L32.9009 29.8652C32.7038 29.4762 32.5363 29.073 32.4012 28.6596L30.4227 27.8939C30.1485 27.7882 29.9688 27.5242 29.9688 27.2307V24.7708C29.9688 24.4773 30.1495 24.2143 30.4227 24.1076L32.4012 23.3418C32.5363 22.9275 32.7038 22.5243 32.9009 22.1363L32.0427 20.1954C31.9238 19.9273 31.9827 19.6135 32.1899 19.4053L33.9297 17.6655C34.1369 17.4583 34.4517 17.3994 34.7198 17.5182L36.6617 18.3764C37.0507 18.1794 37.4539 18.0118 37.8673 17.8768L38.633 15.8983C38.7387 15.6241 39.0027 15.4443 39.2963 15.4443H41.7561C42.0496 15.4443 42.3127 15.6251 42.4193 15.8983L43.1851 17.8768C43.5984 18.0118 44.0027 18.1794 44.3906 18.3764L46.3315 17.5182C46.5996 17.3994 46.9145 17.4583 47.1216 17.6655L48.8614 19.4053C49.0686 19.6125 49.1275 19.9263 49.0087 20.1954L48.1505 22.1363C48.3475 22.5253 48.5151 22.9285 48.6502 23.3418L50.6286 24.1076C50.9028 24.2132 51.0826 24.4773 51.0826 24.7708H51.0816ZM49.6597 25.2583L47.8133 24.5433C47.6041 24.4621 47.4456 24.2884 47.3857 24.0721C47.2334 23.5307 47.016 23.0067 46.7398 22.5141C46.6301 22.3191 46.6189 22.0835 46.7093 21.8783L47.5096 20.0664L46.4595 19.0163L44.6476 19.8176C44.4424 19.908 44.2068 19.8968 44.0118 19.7871C43.5202 19.5109 42.9962 19.2936 42.4538 19.1412C42.2385 19.0803 42.0638 18.9218 41.9826 18.7136L41.2676 16.8672H39.7817L39.0667 18.7136C38.9855 18.9228 38.8118 19.0813 38.5955 19.1412C38.0541 19.2936 37.5301 19.5109 37.0375 19.7871C36.8425 19.8968 36.6069 19.908 36.4017 19.8176L34.5888 19.0163L33.5387 20.0664L34.339 21.8783C34.4294 22.0835 34.4182 22.3191 34.3085 22.5141C34.0323 23.0057 33.8149 23.5297 33.6626 24.0721C33.6016 24.2874 33.4432 24.4621 33.235 24.5433L31.3886 25.2583V26.7442L33.236 27.4592C33.4452 27.5404 33.6037 27.7141 33.6636 27.9304C33.8149 28.4718 34.0323 28.9958 34.3095 29.4884C34.4192 29.6834 34.4304 29.919 34.34 30.1242L33.5387 31.9371L34.5888 32.9872L36.4007 32.1869C36.6059 32.0965 36.8415 32.1077 37.0365 32.2174C37.528 32.4936 38.0521 32.711 38.5945 32.8633C38.8098 32.9243 38.9845 33.0827 39.0657 33.2909L39.7807 35.1373H41.2666L41.9816 33.2909C42.0628 33.0817 42.2365 32.9232 42.4528 32.8633C42.9941 32.712 43.5182 32.4946 44.0108 32.2174C44.2058 32.1077 44.4414 32.0965 44.6466 32.1869L46.4595 32.9882L47.5096 31.9381L46.7093 30.1262C46.6189 29.9211 46.6301 29.6854 46.7398 29.4904C47.016 28.9989 47.2334 28.4748 47.3857 27.9325C47.4466 27.7171 47.6051 27.5425 47.8133 27.4612L49.6597 26.7462V25.2604V25.2583ZM45.1219 26.0007C45.1219 28.5368 43.0591 30.5995 40.5231 30.5995C37.9871 30.5995 35.9244 28.5368 35.9244 26.0007C35.9244 23.4647 37.9871 21.402 40.5231 21.402C43.0591 21.402 45.1219 23.4647 45.1219 26.0007ZM43.7 26.0007C43.7 24.2488 42.2751 22.8239 40.5231 22.8239C38.7712 22.8239 37.3463 24.2488 37.3463 26.0007C37.3463 27.7527 38.7712 29.1776 40.5231 29.1776C42.2751 29.1776 43.7 27.7527 43.7 26.0007Z" fill="#E6B400"/>
</svg>
