<svg width="52" height="52" viewBox="0 0 52 52" fill="none" xmlns="http://www.w3.org/2000/svg">
<path d="M47.453 43.565L41.1701 38.2093L47.453 43.565ZM47.453 43.565H47.4284L47.532 43.6531C48.2283 44.2453 48.6443 45.1016 48.6763 46.0055C48.7083 46.91 48.3641 47.7984 47.724 48.4384L46.7896 49.3728C46.1816 49.9809 45.3493 50.325 44.485 50.325H44.3561C43.4522 50.2847 42.5963 49.8686 42.0043 49.1806C42.0042 49.1806 42.0042 49.1806 42.0042 49.1805L36.5606 42.7945C35.6407 41.7146 35.5602 40.1861 36.2487 39.0173L36.2684 38.9839L36.241 38.9565L34.031 36.7465L33.9978 36.7134L33.9626 36.7443C31.8263 38.6217 29.0429 39.7625 25.9844 39.7625C19.2926 39.7625 13.8469 34.3168 13.8469 27.625C13.8469 20.9332 19.2926 15.4875 25.9844 15.4875C28.7761 15.4875 31.3975 16.4098 33.5742 18.1577C33.9024 18.425 33.9553 18.9053 33.6887 19.2328C33.4215 19.5612 32.941 19.6141 32.6134 19.3475L32.6133 19.3473C30.7193 17.8208 28.4251 17.0125 25.9844 17.0125C20.1311 17.0125 15.3719 21.7718 15.3719 27.625C15.3719 33.4782 20.1311 38.2375 25.9844 38.2375C31.8376 38.2375 36.5969 33.4782 36.5969 27.625C36.5969 26.5478 36.4418 25.4947 36.1234 24.4822C36.0999 24.4038 36.085 24.3277 36.085 24.2531C36.085 23.8254 36.4286 23.4825 36.8475 23.4825C37.2139 23.4825 37.5187 23.7342 37.5949 24.0771L37.5948 24.0771L37.5959 24.0808C37.9439 25.2217 38.1219 26.4112 38.1219 27.625C38.1219 30.6835 36.9811 33.467 35.1117 35.6033L35.0809 35.6385L35.114 35.6716L37.3321 37.8897L37.3594 37.917L37.3927 37.8975C38.5697 37.209 40.0983 37.2975 41.1701 38.2093L47.453 43.565ZM44.4346 48.8L44.4345 48.8C43.9489 48.7832 43.5051 48.5653 43.1874 48.1891L37.7438 41.8031L44.4346 48.8ZM44.4346 48.8C44.9278 48.8167 45.3881 48.6326 45.731 48.2897L46.6654 47.3554L46.6735 47.3472L46.6739 47.3468C47.0166 46.9957 47.1923 46.5356 47.1756 46.0508L47.1756 46.0499M44.4346 48.8L47.1756 46.0499M47.1756 46.0499C47.1505 45.5656 46.9415 45.1219 46.5649 44.8038L47.1756 46.0499ZM37.8359 39.4521C37.2 40.0881 37.1581 41.117 37.7438 41.8031L46.5648 44.8037L40.179 39.3604C40.179 39.3603 40.1789 39.3602 40.1788 39.3602C39.8602 39.0836 39.4584 38.95 39.0575 38.95C38.6144 38.95 38.1708 39.1172 37.8359 39.4521Z" fill="#E6B400" stroke="#252525" stroke-width="0.1"/>
<mask id="path-2-inside-1_1091_294968" fill="white">
<path fill-rule="evenodd" clip-rule="evenodd" d="M33.8325 43.875H5.6875C3.445 43.875 1.625 42.055 1.625 39.8125V7.3125V5.6875C1.625 3.445 3.445 1.625 5.6875 1.625H46.3125C48.555 1.625 50.375 3.445 50.375 5.6875V7.3125V39.8125C50.375 40.625 50.1394 41.405 49.6844 42.0794C49.4325 42.4531 48.9287 42.5506 48.555 42.2988C48.1812 42.0469 48.0838 41.5431 48.3356 41.1694C48.6038 40.7631 48.75 40.2919 48.75 39.8125V8.125H3.25V39.8125C3.25 41.1531 4.34687 42.25 5.6875 42.25H33.8325C34.2794 42.25 34.645 42.6156 34.645 43.0625C34.645 43.5094 34.2794 43.875 33.8325 43.875ZM3.25 6.5H35.75V3.25H5.6875C4.34687 3.25 3.25 4.34687 3.25 5.6875V6.5ZM37.375 3.25V6.5H48.75V5.6875C48.75 4.34687 47.6531 3.25 46.3125 3.25H37.375ZM42.2478 13H37.3728C36.9259 13 36.5603 13.3656 36.5603 13.8125C36.5603 14.2594 36.9259 14.625 37.3728 14.625H40.3628L28.4191 27.2756L24.9497 23.8062C24.6328 23.4894 24.1209 23.4894 23.8041 23.8062L18.9291 28.6812C18.6122 28.9981 18.6122 29.51 18.9291 29.8269C19.0916 29.9894 19.2947 30.0625 19.5059 30.0625C19.7172 30.0625 19.9203 29.9812 20.0828 29.8269L24.3809 25.5287L27.8666 29.0144C28.0209 29.1687 28.2403 29.2419 28.4516 29.25C28.6709 29.25 28.8822 29.1525 29.0284 28.9981L41.4353 15.86V18.6956C41.4353 19.1425 41.8009 19.5081 42.2478 19.5081C42.6947 19.5081 43.0603 19.1425 43.0603 18.6956V13.8206C43.0603 13.3737 42.6947 13.0081 42.2478 13.0081V13Z"/>
</mask>
<path fill-rule="evenodd" clip-rule="evenodd" d="M33.8325 43.875H5.6875C3.445 43.875 1.625 42.055 1.625 39.8125V7.3125V5.6875C1.625 3.445 3.445 1.625 5.6875 1.625H46.3125C48.555 1.625 50.375 3.445 50.375 5.6875V7.3125V39.8125C50.375 40.625 50.1394 41.405 49.6844 42.0794C49.4325 42.4531 48.9287 42.5506 48.555 42.2988C48.1812 42.0469 48.0838 41.5431 48.3356 41.1694C48.6038 40.7631 48.75 40.2919 48.75 39.8125V8.125H3.25V39.8125C3.25 41.1531 4.34687 42.25 5.6875 42.25H33.8325C34.2794 42.25 34.645 42.6156 34.645 43.0625C34.645 43.5094 34.2794 43.875 33.8325 43.875ZM3.25 6.5H35.75V3.25H5.6875C4.34687 3.25 3.25 4.34687 3.25 5.6875V6.5ZM37.375 3.25V6.5H48.75V5.6875C48.75 4.34687 47.6531 3.25 46.3125 3.25H37.375ZM42.2478 13H37.3728C36.9259 13 36.5603 13.3656 36.5603 13.8125C36.5603 14.2594 36.9259 14.625 37.3728 14.625H40.3628L28.4191 27.2756L24.9497 23.8062C24.6328 23.4894 24.1209 23.4894 23.8041 23.8062L18.9291 28.6812C18.6122 28.9981 18.6122 29.51 18.9291 29.8269C19.0916 29.9894 19.2947 30.0625 19.5059 30.0625C19.7172 30.0625 19.9203 29.9812 20.0828 29.8269L24.3809 25.5287L27.8666 29.0144C28.0209 29.1687 28.2403 29.2419 28.4516 29.25C28.6709 29.25 28.8822 29.1525 29.0284 28.9981L41.4353 15.86V18.6956C41.4353 19.1425 41.8009 19.5081 42.2478 19.5081C42.6947 19.5081 43.0603 19.1425 43.0603 18.6956V13.8206C43.0603 13.3737 42.6947 13.0081 42.2478 13.0081V13Z" fill="white"/>
<path d="M49.6844 42.0794L49.6015 42.0234L49.6014 42.0235L49.6844 42.0794ZM48.555 42.2988L48.4991 42.3817L48.555 42.2988ZM48.3356 41.1694L48.4186 41.2253L48.4191 41.2245L48.3356 41.1694ZM48.75 8.125H48.85V8.025H48.75V8.125ZM3.25 8.125V8.025H3.15V8.125H3.25ZM35.75 6.5V6.6H35.85V6.5H35.75ZM3.25 6.5H3.15V6.6H3.25V6.5ZM35.75 3.25H35.85V3.15H35.75V3.25ZM37.375 6.5H37.275V6.6H37.375V6.5ZM37.375 3.25V3.15H37.275V3.25H37.375ZM48.75 6.5V6.6H48.85V6.5H48.75ZM42.2478 13H42.3478V12.9H42.2478V13ZM40.3628 14.625L40.4355 14.6937L40.5948 14.525H40.3628V14.625ZM28.4191 27.2756L28.3484 27.3463L28.4211 27.4191L28.4918 27.3443L28.4191 27.2756ZM23.8041 23.8062L23.8748 23.877L23.8041 23.8062ZM18.9291 28.6812L18.8584 28.6105L18.9291 28.6812ZM18.9291 29.8269L18.8584 29.8976L18.9291 29.8269ZM20.0828 29.8269L20.1517 29.8994L20.1535 29.8976L20.0828 29.8269ZM24.3809 25.5287L24.4517 25.458L24.3809 25.3873L24.3102 25.458L24.3809 25.5287ZM27.8666 29.0144L27.7959 29.0851L27.8666 29.0144ZM28.4516 29.25L28.4477 29.35H28.4516V29.25ZM29.0284 28.9981L29.101 29.0669L29.1011 29.0668L29.0284 28.9981ZM41.4353 15.86H41.5353V15.6085L41.3626 15.7913L41.4353 15.86ZM42.2478 13.0081H42.1478V13.1081H42.2478V13.0081ZM5.6875 43.975H33.8325V43.775H5.6875V43.975ZM1.525 39.8125C1.525 42.1102 3.38977 43.975 5.6875 43.975V43.775C3.50023 43.775 1.725 41.9998 1.725 39.8125H1.525ZM1.525 7.3125V39.8125H1.725V7.3125H1.525ZM1.525 5.6875V7.3125H1.725V5.6875H1.525ZM5.6875 1.525C3.38977 1.525 1.525 3.38977 1.525 5.6875H1.725C1.725 3.50023 3.50023 1.725 5.6875 1.725V1.525ZM46.3125 1.525H5.6875V1.725H46.3125V1.525ZM50.475 5.6875C50.475 3.38977 48.6102 1.525 46.3125 1.525V1.725C48.4998 1.725 50.275 3.50023 50.275 5.6875H50.475ZM50.475 7.3125V5.6875H50.275V7.3125H50.475ZM50.475 39.8125V7.3125H50.275V39.8125H50.475ZM49.7673 42.1353C50.2336 41.4442 50.475 40.6447 50.475 39.8125H50.275C50.275 40.6053 50.0452 41.3658 49.6015 42.0234L49.7673 42.1353ZM48.4991 42.3817C48.9185 42.6643 49.4845 42.5549 49.7673 42.1353L49.6014 42.0235C49.3805 42.3513 48.939 42.4369 48.6109 42.2158L48.4991 42.3817ZM48.2527 41.1135C47.97 41.5329 48.0794 42.0989 48.4991 42.3817L48.6109 42.2158C48.2831 41.9949 48.1975 41.5533 48.4186 41.2253L48.2527 41.1135ZM48.65 39.8125C48.65 40.2715 48.51 40.7237 48.2522 41.1143L48.4191 41.2245C48.6975 40.8026 48.85 40.3123 48.85 39.8125H48.65ZM48.65 8.125V39.8125H48.85V8.125H48.65ZM3.25 8.225H48.75V8.025H3.25V8.225ZM3.35 39.8125V8.125H3.15V39.8125H3.35ZM5.6875 42.15C4.4021 42.15 3.35 41.0979 3.35 39.8125H3.15C3.15 41.2084 4.29165 42.35 5.6875 42.35V42.15ZM33.8325 42.15H5.6875V42.35H33.8325V42.15ZM34.745 43.0625C34.745 42.5604 34.3346 42.15 33.8325 42.15V42.35C34.2241 42.35 34.545 42.6709 34.545 43.0625H34.745ZM33.8325 43.975C34.3346 43.975 34.745 43.5646 34.745 43.0625H34.545C34.545 43.4541 34.2241 43.775 33.8325 43.775V43.975ZM35.75 6.4H3.25V6.6H35.75V6.4ZM35.65 3.25V6.5H35.85V3.25H35.65ZM5.6875 3.35H35.75V3.15H5.6875V3.35ZM3.35 5.6875C3.35 4.4021 4.4021 3.35 5.6875 3.35V3.15C4.29165 3.15 3.15 4.29165 3.15 5.6875H3.35ZM3.35 6.5V5.6875H3.15V6.5H3.35ZM37.475 6.5V3.25H37.275V6.5H37.475ZM48.75 6.4H37.375V6.6H48.75V6.4ZM48.65 5.6875V6.5H48.85V5.6875H48.65ZM46.3125 3.35C47.5979 3.35 48.65 4.4021 48.65 5.6875H48.85C48.85 4.29165 47.7084 3.15 46.3125 3.15V3.35ZM37.375 3.35H46.3125V3.15H37.375V3.35ZM37.3728 13.1H42.2478V12.9H37.3728V13.1ZM36.6603 13.8125C36.6603 13.4209 36.9812 13.1 37.3728 13.1V12.9C36.8707 12.9 36.4603 13.3104 36.4603 13.8125H36.6603ZM37.3728 14.525C36.9812 14.525 36.6603 14.2041 36.6603 13.8125H36.4603C36.4603 14.3146 36.8707 14.725 37.3728 14.725V14.525ZM40.3628 14.525H37.3728V14.725H40.3628V14.525ZM28.4918 27.3443L40.4355 14.6937L40.2901 14.5563L28.3463 27.207L28.4918 27.3443ZM24.879 23.877L28.3484 27.3463L28.4898 27.2049L25.0204 23.7355L24.879 23.877ZM23.8748 23.877C24.1526 23.5991 24.6012 23.5991 24.879 23.877L25.0204 23.7355C24.6645 23.3796 24.0893 23.3796 23.7334 23.7355L23.8748 23.877ZM18.9998 28.752L23.8748 23.877L23.7334 23.7355L18.8584 28.6105L18.9998 28.752ZM18.9998 29.7562C18.722 29.4783 18.722 29.0298 18.9998 28.752L18.8584 28.6105C18.5024 28.9665 18.5024 29.5417 18.8584 29.8976L18.9998 29.7562ZM19.5059 29.9625C19.3189 29.9625 19.1419 29.8983 18.9998 29.7562L18.8584 29.8976C19.0412 30.0804 19.2705 30.1625 19.5059 30.1625V29.9625ZM20.0139 29.7544C19.8694 29.8917 19.6907 29.9625 19.5059 29.9625V30.1625C19.7437 30.1625 19.9712 30.0708 20.1517 29.8994L20.0139 29.7544ZM24.3102 25.458L20.0121 29.7562L20.1535 29.8976L24.4517 25.5995L24.3102 25.458ZM27.9373 28.9437L24.4517 25.458L24.3102 25.5995L27.7959 29.0851L27.9373 28.9437ZM28.4554 29.1501C28.2625 29.1427 28.0695 29.0759 27.9373 28.9437L27.7959 29.0851C27.9724 29.2616 28.2182 29.3411 28.4477 29.3499L28.4554 29.1501ZM28.9558 28.9293C28.8274 29.065 28.6419 29.15 28.4516 29.15V29.35C28.7 29.35 28.937 29.24 29.101 29.0669L28.9558 28.9293ZM41.3626 15.7913L28.9557 28.9295L29.1011 29.0668L41.508 15.9287L41.3626 15.7913ZM41.5353 18.6956V15.86H41.3353V18.6956H41.5353ZM42.2478 19.4081C41.8562 19.4081 41.5353 19.0873 41.5353 18.6956H41.3353C41.3353 19.1977 41.7457 19.6081 42.2478 19.6081V19.4081ZM42.9603 18.6956C42.9603 19.0873 42.6395 19.4081 42.2478 19.4081V19.6081C42.7499 19.6081 43.1603 19.1977 43.1603 18.6956H42.9603ZM42.9603 13.8206V18.6956H43.1603V13.8206H42.9603ZM42.2478 13.1081C42.6395 13.1081 42.9603 13.429 42.9603 13.8206H43.1603C43.1603 13.3185 42.7499 12.9081 42.2478 12.9081V13.1081ZM42.1478 13V13.0081H42.3478V13H42.1478Z" fill="#252525" mask="url(#path-2-inside-1_1091_294968)"/>
</svg>
