<svg width="36" height="36" viewBox="0 0 36 36" fill="none" xmlns="http://www.w3.org/2000/svg">
<path d="M31.1406 28.4273H29.3195C29.1297 28.4273 28.975 28.2727 28.975 28.0828C28.975 27.893 29.1297 27.7383 29.3195 27.7383H31.1406C31.8508 27.7383 32.4273 27.1617 32.4273 26.4516V5.84297C32.4273 5.13281 31.8508 4.56328 31.1406 4.56328H4.85781C4.13359 4.56328 3.57109 5.12578 3.57109 5.84297V26.4445C3.57109 27.1547 4.14766 27.7312 4.85781 27.7312H24.475C24.6648 27.7312 24.8195 27.8859 24.8195 28.0758C24.8195 28.2656 24.6648 28.4203 24.475 28.4203H4.85781C3.76797 28.4203 2.875 27.5344 2.875 26.4375V5.84297C2.875 4.76016 3.76094 3.86719 4.85781 3.86719H31.1336C32.2234 3.86719 33.1164 4.75312 33.1164 5.84297V26.4445C33.1094 27.5344 32.2234 28.4273 31.1406 28.4273Z" fill="black"/>
<path d="M32.7727 10.0797H3.22734C3.0375 10.0797 2.88281 9.925 2.88281 9.73516C2.88281 9.54531 3.0375 9.39062 3.22734 9.39062H32.7727C32.9625 9.39062 33.1172 9.54531 33.1172 9.73516C33.1102 9.925 32.9625 10.0797 32.7727 10.0797Z" fill="black"/>
<path d="M10.9852 8.4C10.1977 8.4 9.55078 7.75312 9.55078 6.96562C9.55078 6.17812 10.1977 5.53125 10.9852 5.53125C11.7727 5.53125 12.4195 6.17812 12.4195 6.96562C12.4195 7.75312 11.7797 8.4 10.9852 8.4ZM10.9852 6.21328C10.5703 6.21328 10.2328 6.55078 10.2328 6.96562C10.2328 7.38047 10.5703 7.71797 10.9852 7.71797C11.4 7.71797 11.7375 7.38047 11.7375 6.96562C11.7305 6.54375 11.4 6.21328 10.9852 6.21328Z" fill="black"/>
<path d="M6.89922 8.4C6.11172 8.4 5.46484 7.75312 5.46484 6.96562C5.46484 6.17812 6.11172 5.53125 6.89922 5.53125C7.68672 5.53125 8.33359 6.17812 8.33359 6.96562C8.33359 7.75312 7.68672 8.4 6.89922 8.4ZM6.89922 6.21328C6.48437 6.21328 6.14687 6.55078 6.14687 6.96562C6.14687 7.38047 6.48437 7.71797 6.89922 7.71797C7.31406 7.71797 7.65156 7.38047 7.65156 6.96562C7.65156 6.54375 7.30703 6.21328 6.89922 6.21328Z" fill="black"/>
<path d="M15.0789 8.4C14.2914 8.4 13.6445 7.75312 13.6445 6.96562C13.6445 6.17812 14.2914 5.53125 15.0789 5.53125C15.8664 5.53125 16.5133 6.17812 16.5133 6.96562C16.5133 7.75312 15.8664 8.4 15.0789 8.4ZM15.0789 6.21328C14.6641 6.21328 14.3266 6.55078 14.3266 6.96562C14.3266 7.38047 14.6641 7.71797 15.0789 7.71797C15.4937 7.71797 15.8312 7.38047 15.8312 6.96562C15.8242 6.54375 15.4937 6.21328 15.0789 6.21328Z" fill="black"/>
<path d="M23.2497 26.3146C23.1653 26.3146 23.0739 26.2794 23.0036 26.2161L21.5482 24.7677C21.4146 24.6341 21.4075 24.4161 21.5482 24.2825C21.6818 24.1489 21.8997 24.1419 22.0333 24.2825L23.4888 25.731C23.6224 25.8646 23.6294 26.0825 23.4888 26.2161C23.4325 26.2864 23.3411 26.3146 23.2497 26.3146Z" fill="#E6B400"/>
<path d="M24.7877 24.7814C24.7033 24.7814 24.6119 24.7463 24.5416 24.683L23.1002 23.2416C22.9666 23.108 22.9666 22.89 23.1002 22.7564C23.2338 22.6229 23.4518 22.6229 23.5854 22.7564L25.0268 24.1979C25.1604 24.3314 25.1604 24.5494 25.0268 24.683C24.9635 24.7463 24.8791 24.7814 24.7877 24.7814Z" fill="#E6B400"/>
<path d="M17.9984 26.0742C14.1734 26.0742 11.0586 22.9664 11.0586 19.1344C11.0586 15.3023 14.1664 12.1875 17.9984 12.1875C21.8305 12.1875 24.9383 15.2953 24.9383 19.1273C24.9383 22.9594 21.8234 26.0742 17.9984 26.0742ZM17.9984 12.8766C14.5531 12.8766 11.7406 15.675 11.7406 19.1344C11.7406 22.5938 14.5391 25.3922 17.9984 25.3922C21.4578 25.3922 24.2563 22.5938 24.2563 19.1344C24.2563 15.675 21.4438 12.8766 17.9984 12.8766Z" fill="#E6B400"/>
<path d="M28.909 32.1504C28.3816 32.1504 27.8543 31.9535 27.4535 31.5527L22.7496 26.8488C22.5105 26.6098 22.5105 26.223 22.7496 25.984L24.7887 23.9449C25.0277 23.7059 25.4145 23.7059 25.6535 23.9449L30.3574 28.6488C31.152 29.4434 31.152 30.7441 30.3574 31.5527C29.9566 31.9465 29.4363 32.1504 28.909 32.1504ZM23.298 26.4129L27.9387 31.0535C28.1918 31.3066 28.5363 31.4543 28.909 31.4543C29.2746 31.4543 29.6191 31.3066 29.8793 31.0535C30.4137 30.5121 30.4137 29.6543 29.8793 29.1199L25.2387 24.4793L23.298 26.4129Z" fill="#E6B400"/>
<path d="M17.9992 21.1391C16.8883 21.1391 15.9883 20.2391 15.9883 19.1281C15.9883 18.0172 16.8883 17.1172 17.9992 17.1172C19.1102 17.1172 20.0102 18.0172 20.0102 19.1281C20.0102 20.2391 19.1102 21.1391 17.9992 21.1391ZM17.9992 17.8063C17.268 17.8063 16.6703 18.3969 16.6703 19.1352C16.6703 19.8664 17.2609 20.4641 17.9992 20.4641C18.7305 20.4641 19.3281 19.8734 19.3281 19.1352C19.3281 18.3969 18.7305 17.8063 17.9992 17.8063Z" fill="#E6B400"/>
<path d="M10.5336 12.3141H5.41484C5.225 12.3141 5.07031 12.1594 5.07031 11.9695C5.07031 11.7797 5.225 11.625 5.41484 11.625H10.5406C10.7305 11.625 10.8852 11.7797 10.8852 11.9695C10.8852 12.1594 10.7234 12.3141 10.5336 12.3141Z" fill="#E6B400"/>
<path d="M9.12031 14.0406H5.41484C5.225 14.0406 5.07031 13.8859 5.07031 13.6961C5.07031 13.5062 5.225 13.3516 5.41484 13.3516H9.12734C9.31719 13.3516 9.47187 13.5062 9.47187 13.6961C9.47187 13.8859 9.31016 14.0406 9.12031 14.0406Z" fill="#E6B400"/>
<path d="M7.86875 15.775H5.41484C5.225 15.775 5.07031 15.6203 5.07031 15.4305C5.07031 15.2406 5.225 15.0859 5.41484 15.0859H7.86875C8.05859 15.0859 8.21328 15.2406 8.21328 15.4305C8.20625 15.6203 8.05859 15.775 7.86875 15.775Z" fill="#E6B400"/>
</svg>
