<svg width="36" height="36" viewBox="0 0 36 36" fill="none" xmlns="http://www.w3.org/2000/svg">
<path d="M32.8512 30.1604L28.5015 26.4526C27.7595 25.8214 26.7012 25.7601 25.8864 26.2368L25.8633 26.2502L25.8444 26.2314L24.3088 24.6957L24.2859 24.6728L24.3072 24.6485C25.6014 23.1694 26.3912 21.2424 26.3912 19.125C26.3912 18.2847 26.2679 17.4612 26.027 16.6713L26.0263 16.6688L26.0264 16.6688C25.9736 16.4314 25.7626 16.2571 25.5089 16.2571C25.2189 16.2571 24.981 16.4945 24.981 16.7906C24.981 16.8423 24.9913 16.8949 25.0076 16.9492C25.0076 16.9493 25.0077 16.9494 25.0077 16.9494L24.9745 16.9594L32.8512 30.1604ZM32.8512 30.1604H32.8342L32.9059 30.2214C33.3879 30.6314 33.6759 31.2242 33.6981 31.85C33.7202 32.4761 33.4819 33.0912 33.0388 33.5343L32.3919 34.1811C31.9709 34.6021 31.3948 34.8404 30.7964 34.8404H30.7072L32.8512 30.1604ZM32.6591 31.8807L32.6591 31.8813C32.6707 32.2169 32.5491 32.5355 32.3118 32.7786L32.3115 32.7789L32.3059 32.7845L31.659 33.4314C31.4216 33.6687 31.103 33.7962 30.7615 33.7846C30.4253 33.773 30.1181 33.6222 29.8982 33.3618L32.6591 31.8807ZM32.6591 31.8807C32.6418 31.5454 32.4971 31.2382 32.2364 31.018L32.6591 31.8807ZM26.1295 28.9406L29.8981 33.3617L32.2362 31.0179L27.8154 27.2495C27.8153 27.2495 27.8153 27.2494 27.8153 27.2494C27.5947 27.0579 27.3165 26.9654 27.0389 26.9654C26.7321 26.9654 26.425 27.0812 26.1932 27.313C25.7529 27.7533 25.724 28.4656 26.1294 28.9406C26.1294 28.9406 26.1294 28.9406 26.1295 28.9406Z" fill="#E6B400" stroke="#252525" stroke-width="0.0692308"/>
<mask id="path-2-inside-1_1091_307960" fill="white">
<path fill-rule="evenodd" clip-rule="evenodd" d="M23.4225 30.375H3.9375C2.385 30.375 1.125 29.115 1.125 27.5625V5.0625V3.9375C1.125 2.385 2.385 1.125 3.9375 1.125H32.0625C33.615 1.125 34.875 2.385 34.875 3.9375V5.0625V27.5625C34.875 28.125 34.7119 28.665 34.3969 29.1319C34.2225 29.3906 33.8737 29.4581 33.615 29.2838C33.3563 29.1094 33.2887 28.7606 33.4631 28.5019C33.6488 28.2206 33.75 27.8944 33.75 27.5625V5.625H2.25V27.5625C2.25 28.4906 3.00937 29.25 3.9375 29.25H23.4225C23.7319 29.25 23.985 29.5031 23.985 29.8125C23.985 30.1219 23.7319 30.375 23.4225 30.375ZM2.25 4.5H24.75V2.25H3.9375C3.00937 2.25 2.25 3.00937 2.25 3.9375V4.5ZM25.875 2.25V4.5H33.75V3.9375C33.75 3.00937 32.9906 2.25 32.0625 2.25H25.875ZM29.2497 9H25.8747C25.5653 9 25.3122 9.25313 25.3122 9.5625C25.3122 9.87187 25.5653 10.125 25.8747 10.125H27.9447L19.6759 18.8831L17.2741 16.4812C17.0547 16.2619 16.7003 16.2619 16.4809 16.4812L13.1059 19.8562C12.8866 20.0756 12.8866 20.43 13.1059 20.6494C13.2184 20.7619 13.3591 20.8125 13.5053 20.8125C13.6516 20.8125 13.7922 20.7563 13.9047 20.6494L16.8803 17.6737L19.2934 20.0869C19.4003 20.1938 19.5522 20.2444 19.6984 20.25C19.8503 20.25 19.9966 20.1825 20.0978 20.0756L28.6872 10.98V12.9431C28.6872 13.2525 28.9403 13.5056 29.2497 13.5056C29.5591 13.5056 29.8122 13.2525 29.8122 12.9431V9.56812C29.8122 9.25875 29.5591 9.00563 29.2497 9.00563V9Z"/>
</mask>
<path fill-rule="evenodd" clip-rule="evenodd" d="M23.4225 30.375H3.9375C2.385 30.375 1.125 29.115 1.125 27.5625V5.0625V3.9375C1.125 2.385 2.385 1.125 3.9375 1.125H32.0625C33.615 1.125 34.875 2.385 34.875 3.9375V5.0625V27.5625C34.875 28.125 34.7119 28.665 34.3969 29.1319C34.2225 29.3906 33.8737 29.4581 33.615 29.2838C33.3563 29.1094 33.2887 28.7606 33.4631 28.5019C33.6488 28.2206 33.75 27.8944 33.75 27.5625V5.625H2.25V27.5625C2.25 28.4906 3.00937 29.25 3.9375 29.25H23.4225C23.7319 29.25 23.985 29.5031 23.985 29.8125C23.985 30.1219 23.7319 30.375 23.4225 30.375ZM2.25 4.5H24.75V2.25H3.9375C3.00937 2.25 2.25 3.00937 2.25 3.9375V4.5ZM25.875 2.25V4.5H33.75V3.9375C33.75 3.00937 32.9906 2.25 32.0625 2.25H25.875ZM29.2497 9H25.8747C25.5653 9 25.3122 9.25313 25.3122 9.5625C25.3122 9.87187 25.5653 10.125 25.8747 10.125H27.9447L19.6759 18.8831L17.2741 16.4812C17.0547 16.2619 16.7003 16.2619 16.4809 16.4812L13.1059 19.8562C12.8866 20.0756 12.8866 20.43 13.1059 20.6494C13.2184 20.7619 13.3591 20.8125 13.5053 20.8125C13.6516 20.8125 13.7922 20.7563 13.9047 20.6494L16.8803 17.6737L19.2934 20.0869C19.4003 20.1938 19.5522 20.2444 19.6984 20.25C19.8503 20.25 19.9966 20.1825 20.0978 20.0756L28.6872 10.98V12.9431C28.6872 13.2525 28.9403 13.5056 29.2497 13.5056C29.5591 13.5056 29.8122 13.2525 29.8122 12.9431V9.56812C29.8122 9.25875 29.5591 9.00563 29.2497 9.00563V9Z" fill="black"/>
<path d="M34.3969 29.1319L34.3395 29.0932L34.3395 29.0932L34.3969 29.1319ZM33.615 29.2838L33.5763 29.3412L33.615 29.2838ZM33.4631 28.5019L33.5205 28.5406L33.5209 28.54L33.4631 28.5019ZM33.75 5.625H33.8192V5.55577H33.75V5.625ZM2.25 5.625V5.55577H2.18077V5.625H2.25ZM24.75 4.5V4.56923H24.8192V4.5H24.75ZM2.25 4.5H2.18077V4.56923H2.25V4.5ZM24.75 2.25H24.8192V2.18077H24.75V2.25ZM25.875 4.5H25.8058V4.56923H25.875V4.5ZM25.875 2.25V2.18077H25.8058V2.25H25.875ZM33.75 4.5V4.56923H33.8192V4.5H33.75ZM29.2497 9H29.3189V8.93077H29.2497V9ZM27.9447 10.125L27.995 10.1725L28.1053 10.0558H27.9447V10.125ZM19.6759 18.8831L19.627 18.9321L19.6774 18.9825L19.7263 18.9307L19.6759 18.8831ZM17.2741 16.4812L17.323 16.4323L17.2741 16.4812ZM16.4809 16.4812L16.5299 16.5302V16.5302L16.4809 16.4812ZM13.1059 19.8562L13.057 19.8073L13.1059 19.8562ZM13.1059 20.6494L13.1549 20.6004H13.1549L13.1059 20.6494ZM13.9047 20.6494L13.9524 20.6996L13.9536 20.6983L13.9047 20.6494ZM16.8803 17.6737L16.9293 17.6248L16.8803 17.5758L16.8314 17.6248L16.8803 17.6737ZM19.2934 20.0869L19.3424 20.0379L19.2934 20.0869ZM19.6984 20.25L19.6958 20.3192H19.6984V20.25ZM20.0978 20.0756L20.1481 20.1232L20.1481 20.1232L20.0978 20.0756ZM28.6872 10.98H28.7564V10.8059L28.6369 10.9325L28.6872 10.98ZM29.2497 9.00563H29.1805V9.07486H29.2497V9.00563ZM3.9375 30.4442H23.4225V30.3058H3.9375V30.4442ZM1.05577 27.5625C1.05577 29.1532 2.34676 30.4442 3.9375 30.4442V30.3058C2.42324 30.3058 1.19423 29.0768 1.19423 27.5625H1.05577ZM1.05577 5.0625V27.5625H1.19423V5.0625H1.05577ZM1.05577 3.9375V5.0625H1.19423V3.9375H1.05577ZM3.9375 1.05577C2.34676 1.05577 1.05577 2.34676 1.05577 3.9375H1.19423C1.19423 2.42324 2.42324 1.19423 3.9375 1.19423V1.05577ZM32.0625 1.05577H3.9375V1.19423H32.0625V1.05577ZM34.9442 3.9375C34.9442 2.34676 33.6532 1.05577 32.0625 1.05577V1.19423C33.5768 1.19423 34.8058 2.42324 34.8058 3.9375H34.9442ZM34.9442 5.0625V3.9375H34.8058V5.0625H34.9442ZM34.9442 27.5625V5.0625H34.8058V27.5625H34.9442ZM34.4543 29.1706C34.7771 28.6922 34.9442 28.1386 34.9442 27.5625H34.8058C34.8058 28.1114 34.6467 28.6378 34.3395 29.0932L34.4543 29.1706ZM33.5763 29.3412C33.8667 29.5368 34.2585 29.4611 34.4543 29.1706L34.3395 29.0932C34.1865 29.3201 33.8808 29.3794 33.6537 29.2263L33.5763 29.3412ZM33.4057 28.4632C33.21 28.7536 33.2858 29.1454 33.5763 29.3412L33.6537 29.2263C33.4267 29.0734 33.3675 28.7677 33.5205 28.5406L33.4057 28.4632ZM33.6808 27.5625C33.6808 27.8803 33.5838 28.1933 33.4053 28.4637L33.5209 28.54C33.7137 28.2479 33.8192 27.9085 33.8192 27.5625H33.6808ZM33.6808 5.625V27.5625H33.8192V5.625H33.6808ZM2.25 5.69423H33.75V5.55577H2.25V5.69423ZM2.31923 27.5625V5.625H2.18077V27.5625H2.31923ZM3.9375 29.1808C3.04761 29.1808 2.31923 28.4524 2.31923 27.5625H2.18077C2.18077 28.5289 2.97114 29.3192 3.9375 29.3192V29.1808ZM23.4225 29.1808H3.9375V29.3192H23.4225V29.1808ZM24.0542 29.8125C24.0542 29.4649 23.7701 29.1808 23.4225 29.1808V29.3192C23.6936 29.3192 23.9158 29.5414 23.9158 29.8125H24.0542ZM23.4225 30.4442C23.7701 30.4442 24.0542 30.1601 24.0542 29.8125H23.9158C23.9158 30.0836 23.6936 30.3058 23.4225 30.3058V30.4442ZM24.75 4.43077H2.25V4.56923H24.75V4.43077ZM24.6808 2.25V4.5H24.8192V2.25H24.6808ZM3.9375 2.31923H24.75V2.18077H3.9375V2.31923ZM2.31923 3.9375C2.31923 3.04761 3.04761 2.31923 3.9375 2.31923V2.18077C2.97114 2.18077 2.18077 2.97114 2.18077 3.9375H2.31923ZM2.31923 4.5V3.9375H2.18077V4.5H2.31923ZM25.9442 4.5V2.25H25.8058V4.5H25.9442ZM33.75 4.43077H25.875V4.56923H33.75V4.43077ZM33.6808 3.9375V4.5H33.8192V3.9375H33.6808ZM32.0625 2.31923C32.9524 2.31923 33.6808 3.04761 33.6808 3.9375H33.8192C33.8192 2.97114 33.0289 2.18077 32.0625 2.18077V2.31923ZM25.875 2.31923H32.0625V2.18077H25.875V2.31923ZM25.8747 9.06923H29.2497V8.93077H25.8747V9.06923ZM25.3814 9.5625C25.3814 9.29136 25.6035 9.06923 25.8747 9.06923V8.93077C25.5271 8.93077 25.243 9.21489 25.243 9.5625H25.3814ZM25.8747 10.0558C25.6035 10.0558 25.3814 9.83364 25.3814 9.5625H25.243C25.243 9.91011 25.5271 10.1942 25.8747 10.1942V10.0558ZM27.9447 10.0558H25.8747V10.1942H27.9447V10.0558ZM19.7263 18.9307L27.995 10.1725L27.8943 10.0775L19.6256 18.8356L19.7263 18.9307ZM17.2251 16.5302L19.627 18.9321L19.7249 18.8342L17.323 16.4323L17.2251 16.5302ZM16.5299 16.5302C16.7222 16.3379 17.0328 16.3379 17.2251 16.5302L17.323 16.4323C17.0766 16.1859 16.6784 16.1859 16.432 16.4323L16.5299 16.5302ZM13.1549 19.9052L16.5299 16.5302L16.432 16.4323L13.057 19.8073L13.1549 19.9052ZM13.1549 20.6004C12.9626 20.4081 12.9626 20.0975 13.1549 19.9052L13.057 19.8073C12.8106 20.0537 12.8106 20.4519 13.057 20.6983L13.1549 20.6004ZM13.5053 20.7433C13.3758 20.7433 13.2533 20.6988 13.1549 20.6004L13.057 20.6983C13.1836 20.8249 13.3423 20.8817 13.5053 20.8817V20.7433ZM13.857 20.5992C13.7569 20.6942 13.6332 20.7433 13.5053 20.7433V20.8817C13.6699 20.8817 13.8274 20.8183 13.9524 20.6996L13.857 20.5992ZM16.8314 17.6248L13.8557 20.6004L13.9536 20.6983L16.9293 17.7227L16.8314 17.6248ZM19.3424 20.0379L16.9293 17.6248L16.8314 17.7227L19.2445 20.1358L19.3424 20.0379ZM19.7011 20.1808C19.5675 20.1757 19.4339 20.1295 19.3424 20.0379L19.2445 20.1358C19.3667 20.258 19.5369 20.3131 19.6958 20.3192L19.7011 20.1808ZM20.0476 20.028C19.9586 20.1219 19.8302 20.1808 19.6984 20.1808V20.3192C19.8704 20.3192 20.0345 20.2431 20.1481 20.1232L20.0476 20.028ZM28.6369 10.9325L20.0475 20.0281L20.1481 20.1232L28.7375 11.0275L28.6369 10.9325ZM28.7564 12.9431V10.98H28.618V12.9431H28.7564ZM29.2497 13.4364C28.9785 13.4364 28.7564 13.2143 28.7564 12.9431H28.618C28.618 13.2907 28.9021 13.5749 29.2497 13.5749V13.4364ZM29.743 12.9431C29.743 13.2143 29.5208 13.4364 29.2497 13.4364V13.5749C29.5973 13.5749 29.8814 13.2907 29.8814 12.9431H29.743ZM29.743 9.56812V12.9431H29.8814V9.56812H29.743ZM29.2497 9.07486C29.5208 9.07486 29.743 9.29698 29.743 9.56812H29.8814C29.8814 9.22052 29.5973 8.93639 29.2497 8.93639V9.07486ZM29.1805 9V9.00563H29.3189V9H29.1805Z" fill="#252525" mask="url(#path-2-inside-1_1091_307960)"/>
</svg>
