<svg width="52" height="52" viewBox="0 0 52 52" fill="none" xmlns="http://www.w3.org/2000/svg">
<path d="M44.9805 41.052H42.35C42.0758 41.052 41.8523 40.8285 41.8523 40.5543C41.8523 40.2801 42.0758 40.0566 42.35 40.0566H44.9805C46.0062 40.0566 46.8391 39.2238 46.8391 38.198V8.43008C46.8391 7.4043 46.0062 6.58164 44.9805 6.58164H7.01641C5.97031 6.58164 5.15781 7.39414 5.15781 8.43008V38.1879C5.15781 39.2137 5.99062 40.0465 7.01641 40.0465H35.3523C35.6266 40.0465 35.85 40.2699 35.85 40.5441C35.85 40.8184 35.6266 41.0418 35.3523 41.0418H7.01641C5.44219 41.0418 4.15234 39.7621 4.15234 38.1777V8.43008C4.15234 6.86602 5.43203 5.57617 7.01641 5.57617H44.9703C46.5445 5.57617 47.8344 6.85586 47.8344 8.43008V38.1879C47.8242 39.7621 46.5445 41.052 44.9805 41.052Z" fill="white"/>
<path d="M47.3383 14.5539H4.66172C4.3875 14.5539 4.16406 14.3305 4.16406 14.0562C4.16406 13.782 4.3875 13.5586 4.66172 13.5586H47.3383C47.6125 13.5586 47.8359 13.782 47.8359 14.0562C47.8258 14.3305 47.6125 14.5539 47.3383 14.5539Z" fill="white"/>
<path d="M15.8727 12.1477C14.7352 12.1477 13.8008 11.2133 13.8008 10.0758C13.8008 8.93828 14.7352 8.00391 15.8727 8.00391C17.0102 8.00391 17.9445 8.93828 17.9445 10.0758C17.9445 11.2133 17.0203 12.1477 15.8727 12.1477ZM15.8727 8.98906C15.2734 8.98906 14.7859 9.47656 14.7859 10.0758C14.7859 10.675 15.2734 11.1625 15.8727 11.1625C16.4719 11.1625 16.9594 10.675 16.9594 10.0758C16.9492 9.46641 16.4719 8.98906 15.8727 8.98906Z" fill="white"/>
<path d="M9.97031 12.1477C8.83281 12.1477 7.89844 11.2133 7.89844 10.0758C7.89844 8.93828 8.83281 8.00391 9.97031 8.00391C11.1078 8.00391 12.0422 8.93828 12.0422 10.0758C12.0422 11.2133 11.1078 12.1477 9.97031 12.1477ZM9.97031 8.98906C9.37109 8.98906 8.88359 9.47656 8.88359 10.0758C8.88359 10.675 9.37109 11.1625 9.97031 11.1625C10.5695 11.1625 11.057 10.675 11.057 10.0758C11.057 9.46641 10.5594 8.98906 9.97031 8.98906Z" fill="white"/>
<path d="M21.7828 12.1477C20.6453 12.1477 19.7109 11.2133 19.7109 10.0758C19.7109 8.93828 20.6453 8.00391 21.7828 8.00391C22.9203 8.00391 23.8547 8.93828 23.8547 10.0758C23.8547 11.2133 22.9203 12.1477 21.7828 12.1477ZM21.7828 8.98906C21.1836 8.98906 20.6961 9.47656 20.6961 10.0758C20.6961 10.675 21.1836 11.1625 21.7828 11.1625C22.382 11.1625 22.8695 10.675 22.8695 10.0758C22.8594 9.46641 22.382 8.98906 21.7828 8.98906Z" fill="white"/>
<path d="M33.5829 37.9958C33.4611 37.9958 33.329 37.945 33.2275 37.8536L31.1251 35.7614C30.9322 35.5685 30.922 35.2536 31.1251 35.0607C31.3181 34.8677 31.6329 34.8575 31.8259 35.0607L33.9282 37.1529C34.1212 37.3458 34.1314 37.6607 33.9282 37.8536C33.847 37.9552 33.715 37.9958 33.5829 37.9958Z" fill="#E6B400"/>
<path d="M35.8049 35.7826C35.683 35.7826 35.551 35.7318 35.4494 35.6404L33.3674 33.5584C33.1744 33.3654 33.1744 33.0506 33.3674 32.8576C33.5604 32.6646 33.8752 32.6646 34.0682 32.8576L36.1502 34.9396C36.3432 35.1326 36.3432 35.4475 36.1502 35.6404C36.0588 35.7318 35.9369 35.7826 35.8049 35.7826Z" fill="#E6B400"/>
<path d="M25.9969 37.6494C20.4719 37.6494 15.9727 33.1604 15.9727 27.6252C15.9727 22.09 20.4617 17.5908 25.9969 17.5908C31.532 17.5908 36.0211 22.0799 36.0211 27.615C36.0211 33.1502 31.5219 37.6494 25.9969 37.6494ZM25.9969 18.5861C21.0203 18.5861 16.9578 22.6283 16.9578 27.6252C16.9578 32.6221 21 36.6643 25.9969 36.6643C30.9938 36.6643 35.0359 32.6221 35.0359 27.6252C35.0359 22.6283 30.9734 18.5861 25.9969 18.5861Z" fill="#E6B400"/>
<path d="M41.7574 46.4238C40.9957 46.4238 40.234 46.1395 39.6551 45.5605L32.8605 38.766C32.5152 38.4207 32.5152 37.8621 32.8605 37.5168L35.8059 34.5715C36.1512 34.2262 36.7098 34.2262 37.0551 34.5715L43.8496 41.366C44.9973 42.5137 44.9973 44.3926 43.8496 45.5605C43.2707 46.1293 42.5191 46.4238 41.7574 46.4238ZM33.6527 38.1363L40.3559 44.8395C40.7215 45.2051 41.2191 45.4184 41.7574 45.4184C42.2855 45.4184 42.7832 45.2051 43.159 44.8395C43.9309 44.0574 43.9309 42.8184 43.159 42.0465L36.4559 35.3434L33.6527 38.1363Z" fill="#E6B400"/>
<path d="M25.9984 30.5203C24.3938 30.5203 23.0938 29.2203 23.0938 27.6156C23.0938 26.0109 24.3938 24.7109 25.9984 24.7109C27.6031 24.7109 28.9031 26.0109 28.9031 27.6156C28.9031 29.2203 27.6031 30.5203 25.9984 30.5203ZM25.9984 25.7063C24.9422 25.7063 24.0789 26.5594 24.0789 27.6258C24.0789 28.682 24.932 29.5453 25.9984 29.5453C27.0547 29.5453 27.918 28.6922 27.918 27.6258C27.918 26.5594 27.0547 25.7063 25.9984 25.7063Z" fill="#E6B400"/>
<path d="M15.2117 17.7736H7.81797C7.54375 17.7736 7.32031 17.5502 7.32031 17.276C7.32031 17.0018 7.54375 16.7783 7.81797 16.7783H15.2219C15.4961 16.7783 15.7195 17.0018 15.7195 17.276C15.7195 17.5502 15.4859 17.7736 15.2117 17.7736Z" fill="#E6B400"/>
<path d="M13.1703 20.2727H7.81797C7.54375 20.2727 7.32031 20.0492 7.32031 19.775C7.32031 19.5008 7.54375 19.2773 7.81797 19.2773H13.1805C13.4547 19.2773 13.6781 19.5008 13.6781 19.775C13.6781 20.0492 13.4445 20.2727 13.1703 20.2727Z" fill="#E6B400"/>
<path d="M11.3625 22.7707H7.81797C7.54375 22.7707 7.32031 22.5473 7.32031 22.273C7.32031 21.9988 7.54375 21.7754 7.81797 21.7754H11.3625C11.6367 21.7754 11.8602 21.9988 11.8602 22.273C11.85 22.5473 11.6367 22.7707 11.3625 22.7707Z" fill="#E6B400"/>
</svg>
