<svg width="52" height="52" viewBox="0 0 52 52" fill="none" xmlns="http://www.w3.org/2000/svg">
<path d="M26.0123 26.214C27.6134 26.214 28.9113 24.9161 28.9113 23.315C28.9113 21.7139 27.6134 20.416 26.0123 20.416C24.4112 20.416 23.1133 21.7139 23.1133 23.315C23.1133 24.9161 24.4112 26.214 26.0123 26.214Z" stroke="#E6B400" stroke-width="1.56" stroke-miterlimit="10" stroke-linecap="round" stroke-linejoin="round"/>
<path d="M21.8125 32.1422V29.8627C21.8125 27.8475 23.4461 26.2139 25.4613 26.2139H26.5638C28.5791 26.2139 30.2127 27.8475 30.2127 29.8627V32.1422" stroke="#E6B400" stroke-width="1.56" stroke-miterlimit="10" stroke-linecap="round" stroke-linejoin="round"/>
<path d="M26.0097 37.4003C32.1528 37.4003 37.1327 32.4204 37.1327 26.2773C37.1327 20.1342 32.1528 15.1543 26.0097 15.1543C19.8667 15.1543 14.8867 20.1342 14.8867 26.2773C14.8867 32.4204 19.8667 37.4003 26.0097 37.4003Z" stroke="#E6B400" stroke-width="1.56" stroke-miterlimit="10" stroke-linecap="round" stroke-linejoin="round"/>
<path d="M25.9492 16.8481V3.32812" stroke="#E6B400" stroke-width="1.56" stroke-miterlimit="10" stroke-linecap="round" stroke-linejoin="round"/>
<path d="M25.9492 49.1924V35.7764" stroke="#E6B400" stroke-width="1.56" stroke-miterlimit="10" stroke-linecap="round" stroke-linejoin="round"/>
<path d="M16.5356 26.2598H3.01562" stroke="#E6B400" stroke-width="1.56" stroke-miterlimit="10" stroke-linecap="round" stroke-linejoin="round"/>
<path d="M48.8779 26.2598H35.2539" stroke="#E6B400" stroke-width="1.56" stroke-miterlimit="10" stroke-linecap="round" stroke-linejoin="round"/>
<path d="M7.51827 17.2446C8.72354 17.2446 9.70061 16.2675 9.70061 15.0622C9.70061 13.8569 8.72354 12.8799 7.51827 12.8799C6.313 12.8799 5.33594 13.8569 5.33594 15.0622C5.33594 16.2675 6.313 17.2446 7.51827 17.2446Z" stroke="white" stroke-width="1.56" stroke-miterlimit="10" stroke-linecap="round" stroke-linejoin="round"/>
<path d="M4.35547 21.7079V19.9919C4.35547 18.4749 5.58527 17.2451 7.10221 17.2451H7.93213C9.44908 17.2451 10.6789 18.4749 10.6789 19.9919V21.7079" stroke="white" stroke-width="1.56" stroke-miterlimit="10" stroke-linecap="round" stroke-linejoin="round"/>
<path d="M17.7097 8.41741C18.915 8.41741 19.892 7.44034 19.892 6.23507C19.892 5.0298 18.915 4.05273 17.7097 4.05273C16.5044 4.05273 15.5273 5.0298 15.5273 6.23507C15.5273 7.44034 16.5044 8.41741 17.7097 8.41741Z" stroke="white" stroke-width="1.56" stroke-miterlimit="10" stroke-linecap="round" stroke-linejoin="round"/>
<path d="M14.5469 12.8807V11.1647C14.5469 9.64777 15.7767 8.41797 17.2936 8.41797H18.1235C19.6405 8.41797 20.8703 9.64777 20.8703 11.1647V12.8807" stroke="white" stroke-width="1.56" stroke-miterlimit="10" stroke-linecap="round" stroke-linejoin="round"/>
<path d="M44.4362 17.2446C45.6415 17.2446 46.6186 16.2675 46.6186 15.0622C46.6186 13.8569 45.6415 12.8799 44.4362 12.8799C43.231 12.8799 42.2539 13.8569 42.2539 15.0622C42.2539 16.2675 43.231 17.2446 44.4362 17.2446Z" stroke="white" stroke-width="1.56" stroke-miterlimit="10" stroke-linecap="round" stroke-linejoin="round"/>
<path d="M47.5968 21.7079V19.9919C47.5968 18.4749 46.367 17.2451 44.8501 17.2451H44.0202C42.5032 17.2451 41.2734 18.4749 41.2734 19.9919V21.7079" stroke="white" stroke-width="1.56" stroke-miterlimit="10" stroke-linecap="round" stroke-linejoin="round"/>
<path d="M7.51827 33.5385C8.72354 33.5385 9.70061 32.5614 9.70061 31.3562C9.70061 30.1509 8.72354 29.1738 7.51827 29.1738C6.313 29.1738 5.33594 30.1509 5.33594 31.3562C5.33594 32.5614 6.313 33.5385 7.51827 33.5385Z" stroke="white" stroke-width="1.56" stroke-miterlimit="10" stroke-linecap="round" stroke-linejoin="round"/>
<path d="M4.35547 38.0018V36.2858C4.35547 34.7689 5.58527 33.5391 7.10221 33.5391H7.93213C9.44908 33.5391 10.6789 34.7689 10.6789 36.2858V38.0018" stroke="white" stroke-width="1.56" stroke-miterlimit="10" stroke-linecap="round" stroke-linejoin="round"/>
<path d="M44.4362 33.5385C45.6415 33.5385 46.6186 32.5614 46.6186 31.3562C46.6186 30.1509 45.6415 29.1738 44.4362 29.1738C43.231 29.1738 42.2539 30.1509 42.2539 31.3562C42.2539 32.5614 43.231 33.5385 44.4362 33.5385Z" stroke="white" stroke-width="1.56" stroke-miterlimit="10" stroke-linecap="round" stroke-linejoin="round"/>
<path d="M47.5968 38.0018V36.2858C47.5968 34.7689 46.367 33.5391 44.8501 33.5391H44.0202C42.5032 33.5391 41.2734 34.7689 41.2734 36.2858V38.0018" stroke="white" stroke-width="1.56" stroke-miterlimit="10" stroke-linecap="round" stroke-linejoin="round"/>
<path d="M34.2409 8.41741C35.4462 8.41741 36.4233 7.44034 36.4233 6.23507C36.4233 5.0298 35.4462 4.05273 34.2409 4.05273C33.0357 4.05273 32.0586 5.0298 32.0586 6.23507C32.0586 7.44034 33.0357 8.41741 34.2409 8.41741Z" stroke="white" stroke-width="1.56" stroke-miterlimit="10" stroke-linecap="round" stroke-linejoin="round"/>
<path d="M37.4015 12.8807V11.1647C37.4015 9.64777 36.1717 8.41797 34.6548 8.41797H33.8249C32.3079 8.41797 31.0781 9.64777 31.0781 11.1647V12.8807" stroke="white" stroke-width="1.56" stroke-miterlimit="10" stroke-linecap="round" stroke-linejoin="round"/>
<path d="M17.7097 43.3822C18.915 43.3822 19.892 42.4052 19.892 41.1999C19.892 39.9946 18.915 39.0176 17.7097 39.0176C16.5044 39.0176 15.5273 39.9946 15.5273 41.1999C15.5273 42.4052 16.5044 43.3822 17.7097 43.3822Z" stroke="white" stroke-width="1.56" stroke-miterlimit="10" stroke-linecap="round" stroke-linejoin="round"/>
<path d="M14.5469 47.8456V46.1296C14.5469 44.6126 15.7767 43.3828 17.2936 43.3828H18.1235C19.6405 43.3828 20.8703 44.6126 20.8703 46.1296V47.8456" stroke="white" stroke-width="1.56" stroke-miterlimit="10" stroke-linecap="round" stroke-linejoin="round"/>
<path d="M34.2409 43.3822C35.4462 43.3822 36.4233 42.4052 36.4233 41.1999C36.4233 39.9946 35.4462 39.0176 34.2409 39.0176C33.0357 39.0176 32.0586 39.9946 32.0586 41.1999C32.0586 42.4052 33.0357 43.3822 34.2409 43.3822Z" stroke="white" stroke-width="1.56" stroke-miterlimit="10" stroke-linecap="round" stroke-linejoin="round"/>
<path d="M37.4015 47.8456V46.1296C37.4015 44.6126 36.1717 43.3828 34.6548 43.3828H33.8249C32.3079 43.3828 31.0781 44.6126 31.0781 46.1296V47.8456" stroke="white" stroke-width="1.56" stroke-miterlimit="10" stroke-linecap="round" stroke-linejoin="round"/>
</svg>
