<svg width="42" height="42" viewBox="0 0 42 42" fill="none" xmlns="http://www.w3.org/2000/svg">
<g clip-path="url(#clip0_1091_291108)">
<path d="M26.957 20.9963H26.1367V8.62598C26.1367 8.39957 26.3205 8.21582 26.5469 8.21582H29.993V9.03613H26.957V20.9963Z" fill="#E6B400"/>
<path d="M15.8641 20.9963H15.0438V9.03613H12.0078V8.21582H15.4539C15.6804 8.21582 15.8641 8.39957 15.8641 8.62598V20.9963Z" fill="#E6B400"/>
<path d="M21.002 4.59375C19.9839 4.59375 19.1562 3.76605 19.1562 2.74805C19.1562 1.73004 19.9839 0.902344 21.002 0.902344C22.02 0.902344 22.8477 1.73004 22.8477 2.74805C22.8477 3.76605 22.02 4.59375 21.002 4.59375ZM21.002 1.72266C20.4368 1.72266 19.9766 2.18285 19.9766 2.74805C19.9766 3.31324 20.4368 3.77344 21.002 3.77344C21.5671 3.77344 22.0273 3.31324 22.0273 2.74805C22.0273 2.18285 21.5671 1.72266 21.002 1.72266Z" fill="#E6B400"/>
<path d="M20.5898 4.18359H21.4102V21H20.5898V4.18359Z" fill="#E6B400"/>
<path d="M8.03988 20.9963H7.21957V15.5986H4.18359V14.7783H7.62973C7.85613 14.7783 8.03988 14.9621 8.03988 15.1885V20.9963Z" fill="#E6B400"/>
<path d="M2.74805 17.0342C1.73004 17.0342 0.902344 16.2065 0.902344 15.1885C0.902344 14.1705 1.73004 13.3428 2.74805 13.3428C3.76605 13.3428 4.59375 14.1705 4.59375 15.1885C4.59375 16.2065 3.76605 17.0342 2.74805 17.0342ZM2.74805 14.1631C2.18285 14.1631 1.72266 14.6233 1.72266 15.1885C1.72266 15.7537 2.18285 16.2139 2.74805 16.2139C3.31324 16.2139 3.77344 15.7537 3.77344 15.1885C3.77344 14.6233 3.31324 14.1631 2.74805 14.1631Z" fill="#E6B400"/>
<path d="M34.7812 20.9963H33.9609V15.1885C33.9609 14.9621 34.1447 14.7783 34.3711 14.7783H37.8172V15.5986H34.7812V20.9963Z" fill="#E6B400"/>
<path d="M39.252 17.0342C38.2339 17.0342 37.4062 16.2065 37.4062 15.1885C37.4062 14.1705 38.2339 13.3428 39.252 13.3428C40.27 13.3428 41.0977 14.1705 41.0977 15.1885C41.0977 16.2065 40.27 17.0342 39.252 17.0342ZM39.252 14.1631C38.6868 14.1631 38.2266 14.6233 38.2266 15.1885C38.2266 15.7537 38.6868 16.2139 39.252 16.2139C39.8171 16.2139 40.2773 15.7537 40.2773 15.1885C40.2773 14.6233 39.8171 14.1631 39.252 14.1631Z" fill="#E6B400"/>
<path d="M21.0027 41.0979C20.3038 41.0979 19.6049 41.0618 18.9109 40.9896C17.6853 40.8624 16.7502 39.9166 16.6361 38.6902L16.372 35.8438C16.3187 35.2695 15.97 34.797 15.4385 34.5796C14.9077 34.3623 14.327 34.4541 13.8865 34.8257L11.7011 36.6682C10.7594 37.4622 9.4297 37.4803 8.46665 36.7116C7.33462 35.8077 6.29774 34.779 5.38474 33.6552C4.6079 32.6987 4.61528 31.3681 5.40196 30.4207L7.22716 28.2214C7.59548 27.7776 7.68243 27.1968 7.46095 26.6677C7.23946 26.1386 6.76368 25.7933 6.18946 25.7449L3.34052 25.5029C2.11251 25.3987 1.15931 24.4701 1.02231 23.2454C0.955049 22.6441 0.914854 22.0313 0.902549 21.4235C0.897627 21.2004 0.981299 20.9904 1.13634 20.832C1.29138 20.6737 1.49974 20.5859 1.72286 20.5859H11.0236C11.25 20.5859 11.4337 20.7697 11.4337 20.9961C11.4337 26.2707 15.7256 30.5626 21.0002 30.5626C26.2748 30.5626 30.5667 26.2707 30.5667 20.9961C30.5667 20.7697 30.7504 20.5859 30.9768 20.5859H40.2775C40.5007 20.5859 40.709 20.6729 40.8641 20.832C41.0191 20.9904 41.102 21.2012 41.0979 21.4235C41.0864 21.9772 41.0511 22.5366 40.9945 23.0862C40.8673 24.3118 39.9215 25.247 38.6952 25.361L35.8487 25.6251C35.2745 25.6784 34.802 26.0271 34.5846 26.5586C34.3672 27.0894 34.4591 27.6702 34.8307 28.1107L36.6731 30.2943C37.4672 31.2361 37.4852 32.5658 36.7166 33.528C35.8126 34.66 34.7847 35.6969 33.6601 36.6099C32.7036 37.3868 31.3731 37.3794 30.4256 36.5927L28.2263 34.7675C27.7825 34.3992 27.2018 34.3122 26.6727 34.5337C26.1436 34.7552 25.7982 35.231 25.7498 35.8052L25.5078 38.6541C25.4036 39.8821 24.475 40.8354 23.2503 40.9723C22.5038 41.056 21.7524 41.0979 21.0027 41.0979ZM14.8634 33.6461C15.1612 33.6461 15.4615 33.7036 15.7486 33.8209C16.5558 34.1514 17.107 34.8971 17.1882 35.7683L17.4524 38.6148C17.5295 39.4466 18.1644 40.088 18.9954 40.1742C20.3759 40.3177 21.777 40.312 23.1584 40.1586C23.9894 40.0659 24.6194 39.4195 24.69 38.5869L24.932 35.7379C25.0058 34.8668 25.5513 34.1162 26.3552 33.779C27.1591 33.4419 28.077 33.5797 28.7497 34.1383L30.949 35.9635C31.5921 36.4975 32.4936 36.5025 33.1425 35.975C34.2212 35.0989 35.208 34.1039 36.0751 33.0178C36.596 32.3648 36.5845 31.4633 36.0456 30.8243L34.2031 28.6406C33.6396 27.972 33.4944 27.0557 33.825 26.2486C34.1556 25.4414 34.9012 24.8901 35.7724 24.8089L38.6189 24.5448C39.4507 24.4677 40.0922 23.8327 40.1783 23.0018C40.2332 22.4743 40.2669 21.9378 40.2775 21.4063H31.3788C31.1631 26.9442 26.5898 31.3829 21.0002 31.3829C15.4106 31.3829 10.8374 26.9442 10.6216 21.4063H1.72286C1.73517 21.9887 1.77372 22.5768 1.83771 23.1543C1.9304 23.9853 2.57681 24.6153 3.40942 24.6859L6.25837 24.9279C7.12954 25.0017 7.88013 25.5472 8.21727 26.3511C8.55442 27.155 8.41661 28.0729 7.85798 28.7456L6.03278 30.9448C5.49876 31.588 5.49466 32.4903 6.0213 33.1384C6.89739 34.2171 7.89243 35.2039 8.97852 36.071C9.63149 36.5919 10.533 36.5796 11.172 36.0414L13.3557 34.199C13.7872 33.8356 14.322 33.6461 14.8634 33.6461Z" fill="black"/>
<path d="M20.9992 29.1154C16.5219 29.1154 12.8789 25.4724 12.8789 20.9951C12.8789 20.7687 13.0627 20.585 13.2891 20.585H28.7085C28.9349 20.585 29.1186 20.7687 29.1186 20.9951C29.1195 25.4732 25.4764 29.1154 20.9992 29.1154ZM13.7107 21.4061C13.924 25.2411 17.1117 28.2959 20.9992 28.2959C24.8866 28.2959 28.0744 25.2411 28.2877 21.4061H13.7107Z" fill="black"/>
<path d="M10.5723 10.4717C9.55426 10.4717 8.72656 9.64398 8.72656 8.62598C8.72656 7.60797 9.55426 6.78027 10.5723 6.78027C11.5903 6.78027 12.418 7.60797 12.418 8.62598C12.418 9.64398 11.5895 10.4717 10.5723 10.4717ZM10.5723 7.60059C10.0071 7.60059 9.54688 8.06078 9.54688 8.62598C9.54688 9.19117 10.0071 9.65137 10.5723 9.65137C11.1375 9.65137 11.5977 9.19117 11.5977 8.62598C11.5977 8.06078 11.1375 7.60059 10.5723 7.60059Z" fill="#E6B400"/>
<path d="M31.4277 10.4717C30.4097 10.4717 29.582 9.64398 29.582 8.62598C29.582 7.60797 30.4097 6.78027 31.4277 6.78027C32.4457 6.78027 33.2734 7.60797 33.2734 8.62598C33.2734 9.64398 32.4457 10.4717 31.4277 10.4717ZM31.4277 7.60059C30.8625 7.60059 30.4023 8.06078 30.4023 8.62598C30.4023 9.19117 30.8625 9.65137 31.4277 9.65137C31.9929 9.65137 32.4531 9.19117 32.4531 8.62598C32.4531 8.06078 31.9938 7.60059 31.4277 7.60059Z" fill="#E6B400"/>
</g>
<defs>
<clipPath id="clip0_1091_291108">
<rect width="42" height="42" fill="white"/>
</clipPath>
</defs>
</svg>
