<svg width="36" height="36" viewBox="0 0 36 36" fill="none" xmlns="http://www.w3.org/2000/svg">
<g clip-path="url(#clip0_1091_309974)">
<path d="M35.0081 27.8835C34.7167 27.8835 34.4804 28.1198 34.4804 28.4112V30.2167H19.7624V8.86352C19.7624 8.20252 20.3002 7.66477 20.9612 7.66477H33.2817C33.9427 7.66477 34.4805 8.20252 34.4805 8.86352L34.4804 25.9199C34.4804 26.2112 34.7166 26.4475 35.0081 26.4475C35.2995 26.4475 35.5358 26.2113 35.5358 25.9199L35.5359 8.86352C35.5359 7.62061 34.5247 6.60938 33.2818 6.60938H20.9612C19.7183 6.60938 18.707 7.62061 18.707 8.86352V33.7457C18.707 34.9887 19.7183 35.9999 20.9612 35.9999H33.2817C34.5246 35.9999 35.5358 34.9887 35.5358 33.7457V28.4112C35.5358 28.1198 35.2996 27.8835 35.0081 27.8835ZM34.4804 33.7457C34.4804 34.4067 33.9427 34.9445 33.2816 34.9445H20.9612C20.3002 34.9445 19.7624 34.4067 19.7624 33.7457V31.2719H34.4805V33.7457H34.4804Z" fill="black"/>
<path d="M26.6371 33.6335H27.6008C27.8923 33.6335 28.1285 33.3973 28.1285 33.1058C28.1285 32.8144 27.8924 32.5781 27.6008 32.5781H26.6371C26.3456 32.5781 26.1094 32.8144 26.1094 33.1058C26.1094 33.3973 26.3456 33.6335 26.6371 33.6335Z" fill="#E6B400"/>
<path d="M6.7501 5.93515C7.02235 6.03893 7.3273 5.90224 7.43108 5.62985L7.76127 4.76297H9.99784C9.99784 4.76297 10.3237 5.62627 10.3244 5.6283C10.5648 6.26527 11.5532 5.89528 11.3118 5.25565L9.48315 0.410414C9.48139 0.405562 9.47942 0.400711 9.47745 0.39593C9.37845 0.15532 9.14656 0 8.8857 0C8.62548 0.00028125 8.39352 0.156164 8.29494 0.397125C8.29332 0.401133 8.2917 0.40507 8.29023 0.409078L6.44488 5.25417C6.34109 5.52656 6.47785 5.83137 6.7501 5.93515ZM8.88465 1.81343L9.59952 3.70765H8.16317L8.88465 1.81343Z" fill="#E6B400"/>
<path d="M25.6214 5.96967H27.2983C28.3187 5.96967 29.1488 5.13696 29.1488 4.11342C29.1488 3.5036 28.8522 2.96191 28.3958 2.62462C28.5917 2.35238 28.7075 2.01881 28.7075 1.65853C28.7075 0.744047 27.9634 0 27.0489 0H25.6214C25.33 0 25.0938 0.23618 25.0938 0.527695V5.44205C25.0938 5.73349 25.3299 5.96967 25.6214 5.96967ZM26.1491 1.05532H27.0489C27.3815 1.05532 27.6521 1.32588 27.6521 1.65846C27.6521 1.99097 27.3815 2.26153 27.0489 2.26153C26.9425 2.26153 26.1491 2.26294 26.1491 2.26294V1.05532ZM26.1491 3.31973C26.2688 3.31924 27.2983 3.31833 27.2983 3.31833C27.7367 3.31833 28.0934 3.67502 28.0934 4.11349C28.0934 4.55512 27.7367 4.91442 27.2983 4.91442H26.1491V3.31973Z" fill="#E6B400"/>
<path d="M22.4805 18.8894C22.4805 21.4475 24.5617 23.5287 27.1198 23.5287C29.678 23.5287 31.7593 21.4475 31.7593 18.8894C31.7593 16.3313 29.678 14.25 27.1198 14.25C24.5617 14.25 22.4805 16.3313 22.4805 18.8894ZM30.7039 18.8894C30.7039 20.8656 29.0961 22.4734 27.1198 22.4734C25.1436 22.4734 23.5359 20.8656 23.5359 18.8894C23.5359 16.9132 25.1436 15.3053 27.1198 15.3053C29.0961 15.3053 30.7039 16.9132 30.7039 18.8894Z" fill="#E6B400"/>
<path d="M26.0548 18.2772C25.8689 18.0529 25.5361 18.0219 25.3118 18.2081C25.0876 18.3941 25.0566 18.7268 25.2427 18.951L26.4663 20.4259C26.5668 20.5469 26.7157 20.6166 26.8723 20.6166C26.8787 20.6166 26.8852 20.6165 26.8916 20.6163C27.0552 20.6103 27.2068 20.5287 27.3019 20.3955L29.0185 17.9905C29.1878 17.7533 29.1327 17.4237 28.8956 17.2544C28.6582 17.0852 28.3288 17.1403 28.1595 17.3773L26.841 19.2246L26.0548 18.2772Z" fill="#E6B400"/>
<path d="M15.0395 6.60938H2.71899C1.47608 6.60938 0.464844 7.62061 0.464844 8.86352V33.7457C0.464844 34.9887 1.47608 35.9999 2.71899 35.9999H15.0395C16.2824 35.9999 17.2936 34.9887 17.2936 33.7457V8.86345C17.2936 7.62061 16.2824 6.60938 15.0395 6.60938ZM16.2383 33.7456C16.2383 34.4066 15.7005 34.9445 15.0395 34.9445H2.71899C2.05798 34.9445 1.52016 34.4066 1.52016 33.7456V31.2718H16.2383V33.7456ZM16.2383 30.2166H1.52023V8.86345C1.52023 8.20245 2.05798 7.6647 2.71906 7.6647H15.0396C15.7006 7.6647 16.2383 8.20245 16.2383 8.86345V30.2166H16.2383Z" fill="black"/>
<path d="M8.39879 33.6335H9.36256C9.65401 33.6335 9.89026 33.3973 9.89026 33.1058C9.89026 32.8144 9.65408 32.5781 9.36256 32.5781H8.39879C8.10734 32.5781 7.87109 32.8144 7.87109 33.1058C7.87116 33.3973 8.10734 33.6335 8.39879 33.6335Z" fill="#E6B400"/>
<path d="M8.87771 14.25C7.88855 14.25 6.94426 14.5572 6.14705 15.1384C5.91151 15.3101 5.85976 15.6401 6.03146 15.8756C6.20323 16.1112 6.53314 16.1629 6.76869 15.9912C7.38413 15.5426 8.11341 15.3054 8.87771 15.3054C10.8539 15.3054 12.4617 16.9132 12.4617 18.8895C12.4617 20.8657 10.8539 22.4735 8.87771 22.4735C6.90144 22.4735 5.2936 20.8657 5.2936 18.8895C5.2936 18.4889 5.35906 18.0957 5.4883 17.7209C5.58322 17.4454 5.4369 17.145 5.16141 17.0501C4.88586 16.9554 4.58555 17.1015 4.49056 17.3769C4.32322 17.8626 4.23828 18.3714 4.23828 18.8894C4.23828 21.4475 6.31953 23.5287 8.87771 23.5287C11.4359 23.5287 13.5171 21.4475 13.5171 18.8894C13.5171 16.3313 11.4359 14.25 8.87771 14.25Z" fill="#E6B400"/>
<path d="M7.45813 20.3542C7.56051 20.453 7.69256 20.5022 7.82446 20.5022C7.96263 20.5022 8.10065 20.4482 8.20422 20.3409L8.87711 19.6438L9.55 20.3409C9.6535 20.4482 9.79152 20.5022 9.92976 20.5022C10.0617 20.5022 10.1937 20.4529 10.2961 20.3542C10.5058 20.1517 10.5117 19.8177 10.3094 19.6081L9.61047 18.8839L10.3094 18.1598C10.5118 17.9502 10.5058 17.6161 10.2961 17.4137C10.0865 17.2113 9.75243 17.2171 9.55 17.427L8.87711 18.1241L8.20422 17.427C8.00186 17.2172 7.66773 17.2114 7.45813 17.4137C7.24846 17.6161 7.24248 17.9502 7.44491 18.1598L8.14382 18.8839L7.44491 19.6081C7.24241 19.8177 7.24846 20.1517 7.45813 20.3542Z" fill="#E6B400"/>
</g>
<defs>
<clipPath id="clip0_1091_309974">
<rect width="36" height="36" fill="white"/>
</clipPath>
</defs>
</svg>
