<svg width="36" height="36" viewBox="0 0 36 36" fill="none" xmlns="http://www.w3.org/2000/svg">
<g clip-path="url(#clip0_1091_305976)">
<path d="M21.5172 22.6885C21.9628 22.6885 22.3795 22.5129 22.6906 22.194L25.4547 19.3601C26.0855 18.7132 26.0725 17.6737 25.4255 17.0428C24.7786 16.412 23.7389 16.4251 23.108 17.0719L21.4865 18.7342L21.2025 18.458C20.5546 17.8283 19.515 17.8427 18.8849 18.4905C18.255 19.1383 18.2696 20.1778 18.9175 20.8077L20.3748 22.2247C20.6824 22.5238 21.0881 22.6885 21.5172 22.6885ZM19.6427 19.2273C19.8666 18.9971 20.236 18.9923 20.4658 19.2158L21.1281 19.8598C21.3371 20.0631 21.6712 20.0585 21.8748 19.8499L23.8646 17.8098C24.0888 17.58 24.458 17.5756 24.6877 17.7994C24.9174 18.0235 24.922 18.3927 24.6981 18.6224L21.934 21.4562C21.7204 21.6846 21.3313 21.6895 21.1116 21.4671L19.6543 20.0502C19.4243 19.8265 19.419 19.4573 19.6427 19.2273Z" fill="#E6B400"/>
<path d="M17.4284 23.0471C17.2526 22.8141 16.9214 22.7677 16.6882 22.9435C16.4552 23.1193 16.4089 23.4506 16.5847 23.6835C16.7771 23.9386 16.99 24.1831 17.2173 24.4104C18.5166 25.7095 20.2441 26.425 22.0815 26.425C23.919 26.425 25.6465 25.7095 26.9458 24.4104C28.2451 23.1113 28.9606 21.384 28.9606 19.5468C28.9606 17.7095 28.2451 15.9823 26.9458 14.6832C24.2636 12.0014 19.8995 12.0015 17.2173 14.6832C15.3886 16.5115 14.7416 19.1787 15.5286 21.6438C15.6173 21.9219 15.9149 22.0751 16.1927 21.9865C16.4707 21.8978 16.6242 21.6005 16.5354 21.3225C15.8692 19.2358 16.4168 16.9781 17.9647 15.4305C20.2346 13.1607 23.9284 13.1607 26.1984 15.4305C27.2981 16.53 27.9038 17.9919 27.9038 19.5468C27.9038 21.1018 27.2981 22.5637 26.1984 23.6632C25.0988 24.7627 23.6367 25.3683 22.0815 25.3683C20.5264 25.3683 19.0643 24.7628 17.9646 23.6632C17.7718 23.4703 17.5914 23.2631 17.4284 23.0471Z" fill="#E6B400"/>
<path d="M35.273 29.1987L31.9392 25.8653C31.7327 25.659 31.3982 25.6589 31.1917 25.8653L31.1714 25.8857L29.8884 24.6029C30.7508 23.2733 31.2647 21.737 31.3658 20.1337C31.3841 19.8425 31.1629 19.5915 30.8716 19.5731C30.5806 19.5554 30.3294 19.776 30.3109 20.0672C30.1847 22.0689 29.3332 23.9533 27.9131 25.3731C26.3083 26.9778 24.2009 27.781 22.0928 27.7831C22.0901 27.783 22.0875 27.7826 22.0847 27.7826H22.0428C19.946 27.7721 17.8526 26.9691 16.2563 25.3731C14.6995 23.8165 13.8421 21.7469 13.8421 19.5455C13.8421 17.3441 14.6995 15.2744 16.2563 13.7178C19.4701 10.5044 24.6994 10.5044 27.9131 13.7178C29.1101 14.9147 29.9 16.4244 30.1975 18.0838C30.2491 18.371 30.5239 18.5619 30.8109 18.5107C31.0982 18.4592 31.2893 18.1846 31.2379 17.8973C30.9021 16.0244 30.0109 14.3208 28.6605 12.9705C27.9914 12.3015 27.2447 11.7564 26.4492 11.3343V7.07576C26.4488 6.93668 26.3926 6.80055 26.2945 6.70212L19.7463 0.154758C19.6478 0.0567422 19.5117 0.000351562 19.3725 0H1.58541C0.711281 0 7.03125e-05 0.71107 7.03125e-05 1.58513V6.02627C7.03125e-05 6.31807 0.236602 6.55467 0.528539 6.55467C0.820406 6.55467 1.05701 6.31814 1.05701 6.02627V1.58513C1.05701 1.29375 1.29403 1.05673 1.58548 1.05673H18.8442V6.01903C18.8442 6.89309 19.5555 7.60416 20.4296 7.60416H25.3925V10.8558C24.3615 10.4651 23.2744 10.2644 22.1856 10.2527C22.1804 10.252 22.1754 10.2509 22.17 10.2509H10.3715C10.0796 10.2509 9.84305 10.4875 9.84305 10.7793C9.84305 11.0711 10.0796 11.3077 10.3715 11.3077H17.7702C17.0164 11.7019 16.3058 12.2065 15.6623 12.8212H10.3715C10.0796 12.8212 9.84305 13.0578 9.84305 13.3496C9.84305 13.6414 10.0796 13.878 10.3715 13.878H14.7112C13.8486 14.9953 13.2591 16.2822 12.9769 17.6559H10.3716C10.0797 17.6559 9.84312 17.8925 9.84312 18.1843C9.84312 18.4761 10.0797 18.7127 10.3716 18.7127H12.8226C12.7983 18.9881 12.7854 19.2658 12.7854 19.5456C12.7854 19.7751 12.7938 20.0033 12.8102 20.23H10.3717C10.0798 20.23 9.84319 20.4666 9.84319 20.7584C9.84319 21.0502 10.0798 21.2868 10.3717 21.2868H12.9479C13.2174 22.717 13.8183 24.0571 14.7128 25.2151H10.3717C10.0798 25.2151 9.84319 25.4516 9.84319 25.7435C9.84319 26.0354 10.0798 26.2719 10.3717 26.2719H15.6644C16.307 26.8855 17.0165 27.3892 17.769 27.7829H10.3714C10.0795 27.7829 9.84291 28.0195 9.84291 28.3113C9.84291 28.6031 10.0795 28.8397 10.3714 28.8397H22.0847C23.2071 28.8396 24.3295 28.638 25.3924 28.2353V34.4152C25.3924 34.7065 25.1554 34.9436 24.8639 34.9436H1.58541C1.29403 34.9436 1.05694 34.7065 1.05694 34.4152V8.14008C1.05694 7.84828 0.820336 7.61168 0.528469 7.61168C0.236602 7.61168 0 7.84821 0 8.14008V34.4152C7.03125e-05 35.2889 0.711281 36 1.58541 36H24.864C25.7381 36 26.4493 35.2889 26.4493 34.4149V27.7565C26.6851 27.6313 26.9166 27.4952 27.1431 27.3484L28.4258 28.6309C28.2038 28.8247 28.1919 29.194 28.4053 29.3986L31.7393 32.7321C32.6693 33.7013 34.343 33.7013 35.273 32.7321C36.2424 31.8021 36.2424 30.1286 35.273 29.1987ZM20.4295 6.54743C20.1381 6.54743 19.901 6.31041 19.901 6.01903V1.80401L24.6451 6.54743H20.4295ZM28.0051 26.7158C28.2306 26.5294 28.4496 26.3313 28.6605 26.1204C28.8702 25.9107 29.0686 25.6918 29.2559 25.4651L30.4239 26.6329L29.1731 27.8835L28.0051 26.7158ZM34.5257 31.9848C33.9891 32.5441 33.0233 32.544 32.4866 31.9848L29.5263 29.0249L31.5655 26.9861L34.5258 29.946C35.085 30.4826 35.0851 31.4482 34.5257 31.9848Z" fill="black"/>
<path d="M4.7953 14.4019H7.10718C7.75898 14.4019 8.28927 13.8717 8.28927 13.22V10.9084C8.28927 10.2567 7.75905 9.72656 7.10718 9.72656H4.7953C4.14358 9.72656 3.61328 10.2567 3.61328 10.9084V13.22C3.61328 13.8717 4.14358 14.4019 4.7953 14.4019ZM4.67022 10.9084C4.67022 10.8395 4.7264 10.7834 4.7953 10.7834H7.10718C7.17623 10.7834 7.23234 10.8395 7.23234 10.9084V13.22C7.23234 13.289 7.17616 13.3451 7.10718 13.3451H4.7953C4.72633 13.3451 4.67022 13.289 4.67022 13.22V10.9084Z" fill="#E6B400"/>
<path d="M3.61328 20.6262C3.61328 21.2779 4.14351 21.808 4.7953 21.808H7.10718C7.75898 21.808 8.28927 21.2779 8.28927 20.6262V18.3146C8.28927 17.663 7.75905 17.1328 7.10718 17.1328H4.7953C4.14358 17.1328 3.61328 17.663 3.61328 18.3146V20.6262ZM4.67022 18.3146C4.67022 18.2456 4.7264 18.1895 4.7953 18.1895H7.10718C7.17623 18.1895 7.23234 18.2456 7.23234 18.3146V20.6262C7.23234 20.6952 7.17616 20.7513 7.10718 20.7513H4.7953C4.72633 20.7513 4.67022 20.6952 4.67022 20.6262V18.3146Z" fill="black"/>
<path d="M3.61328 28.181C3.61328 28.8326 4.14351 29.3628 4.7953 29.3628H7.10718C7.75898 29.3628 8.28927 28.8326 8.28927 28.181V25.8694C8.28927 25.2177 7.75905 24.6875 7.10718 24.6875H4.7953C4.14358 24.6875 3.61328 25.2177 3.61328 25.8694V28.181ZM4.67022 25.8694C4.67022 25.8004 4.7264 25.7443 4.7953 25.7443H7.10718C7.17623 25.7443 7.23234 25.8004 7.23234 25.8694V28.181C7.23234 28.25 7.17616 28.3061 7.10718 28.3061H4.7953C4.72633 28.3061 4.67022 28.25 4.67022 28.181V25.8694Z" fill="#E6B400"/>
</g>
<defs>
<clipPath id="clip0_1091_305976">
<rect width="36" height="36" fill="white"/>
</clipPath>
</defs>
</svg>
