<svg width="52" height="52" viewBox="0 0 52 52" fill="none" xmlns="http://www.w3.org/2000/svg">
<g clip-path="url(#clip0_1091_293117)">
<path d="M31.0804 32.7685C31.724 32.7685 32.326 32.5148 32.7754 32.0541L36.7679 27.9608C37.6791 27.0264 37.6602 25.5249 36.7257 24.6136C35.7913 23.7025 34.2895 23.7213 33.3782 24.6556L31.0361 27.0568L30.6258 26.6578C29.69 25.7482 28.1883 25.769 27.2782 26.7047C26.3684 27.6404 26.3894 29.1419 27.3252 30.0518L29.4302 32.0985C29.8745 32.5306 30.4607 32.7685 31.0804 32.7685ZM28.3728 27.7689C28.6962 27.4364 29.2297 27.4295 29.5617 27.7524L30.5183 28.6826C30.8202 28.9762 31.3028 28.9696 31.5969 28.6682L34.4712 25.7215C34.7949 25.3895 35.3282 25.3831 35.6599 25.7065C35.9919 26.0302 35.9985 26.5634 35.675 26.8952L31.6825 30.9884C31.3739 31.3184 30.8119 31.3254 30.4945 31.0043L28.3895 28.9576C28.0573 28.6344 28.0497 28.1011 28.3728 27.7689Z" fill="#E6B400"/>
<path d="M25.177 33.2882C24.9231 32.9517 24.4446 32.8846 24.1078 33.1386C23.7712 33.3925 23.7044 33.871 23.9582 34.2075C24.2362 34.5759 24.5437 34.9291 24.872 35.2574C26.7487 37.1339 29.244 38.1673 31.8982 38.1673C34.5523 38.1673 37.0475 37.1339 38.9243 35.2574C40.8011 33.3809 41.8346 30.8859 41.8346 28.2322C41.8346 25.5783 40.801 23.0835 38.9243 21.207C35.05 17.3333 28.7463 17.3334 24.872 21.207C22.2306 23.8479 21.296 27.7005 22.4327 31.2613C22.5609 31.6629 22.9907 31.8843 23.392 31.7563C23.7936 31.6281 24.0153 31.1986 23.887 30.7971C22.9247 27.783 23.7158 24.5218 25.9516 22.2864C29.2304 19.0079 34.5659 19.0079 37.8448 22.2864C39.4332 23.8746 40.3081 25.9862 40.3081 28.2323C40.3081 30.4783 39.4332 32.5899 37.8448 34.1781C36.2564 35.7663 34.1445 36.641 31.8982 36.641C29.6519 36.641 27.5399 35.7664 25.9515 34.1781C25.673 33.8995 25.4124 33.6002 25.177 33.2882Z" fill="#E6B400"/>
<path d="M50.9499 42.176L46.1344 37.361C45.8362 37.063 45.3529 37.0629 45.0547 37.361L45.0253 37.3904L43.1721 35.5375C44.4179 33.617 45.1601 31.3979 45.3061 29.082C45.3326 28.6613 45.013 28.2989 44.5923 28.2723C44.172 28.2467 43.8092 28.5654 43.7825 28.9859C43.6002 31.8773 42.3701 34.5992 40.319 36.65C38.0009 38.9679 34.9568 40.1282 31.9118 40.1311C31.9079 40.131 31.9041 40.1305 31.9002 40.1305H31.8395C28.8109 40.1153 25.787 38.9554 23.4814 36.65C21.2326 34.4017 19.9941 31.4122 19.9941 28.2323C19.9941 25.0525 21.2326 22.063 23.4814 19.8146C28.1235 15.173 35.6769 15.173 40.319 19.8146C42.048 21.5434 43.1889 23.7241 43.6187 26.1211C43.6931 26.5359 44.09 26.8116 44.5047 26.7376C44.9197 26.6633 45.1957 26.2667 45.1214 25.8517C44.6363 23.1464 43.349 20.6855 41.3985 18.7352C40.432 17.7689 39.3534 16.9815 38.2045 16.3718V10.2205C38.2038 10.0196 38.1227 9.82302 37.9809 9.68084L28.5224 0.223539C28.3801 0.0819609 28.1836 0.000507812 27.9825 0H2.29003C1.02741 0 0.000101563 1.0271 0.000101563 2.28963V8.70462C0.000101563 9.1261 0.341758 9.46786 0.763445 9.46786C1.18503 9.46786 1.52679 9.1262 1.52679 8.70462V2.28963C1.52679 1.86875 1.86916 1.52638 2.29013 1.52638H27.2195V8.69416C27.2195 9.95668 28.2468 10.9838 29.5094 10.9838H36.6781V15.6805C35.1888 15.1163 33.6186 14.8264 32.0459 14.8094C32.0384 14.8084 32.0311 14.8069 32.0233 14.8069H14.9811C14.5595 14.8069 14.2177 15.1487 14.2177 15.5701C14.2177 15.9916 14.5595 16.3334 14.9811 16.3334H25.6681C24.5792 16.9027 23.5529 17.6316 22.6234 18.5195H14.9811C14.5595 18.5195 14.2177 18.8613 14.2177 19.2828C14.2177 19.7042 14.5595 20.046 14.9811 20.046H21.2495C20.0035 21.6599 19.152 23.5187 18.7445 25.503H14.9812C14.5596 25.503 14.2178 25.8447 14.2178 26.2662C14.2178 26.6877 14.5596 27.0294 14.9812 27.0294H18.5215C18.4864 27.4273 18.4678 27.8284 18.4678 28.2325C18.4678 28.564 18.4799 28.8937 18.5036 29.2211H14.9813C14.5597 29.2211 14.2179 29.5628 14.2179 29.9843C14.2179 30.4058 14.5597 30.7475 14.9813 30.7475H18.7025C19.0918 32.8134 19.9598 34.7492 21.2519 36.4218H14.9813C14.5597 36.4218 14.2179 36.7635 14.2179 37.1851C14.2179 37.6067 14.5597 37.9483 14.9813 37.9483H22.6264C23.5546 38.8347 24.5793 39.5623 25.6663 40.1309H14.9809C14.5593 40.1309 14.2175 40.4727 14.2175 40.8941C14.2175 41.3156 14.5593 41.6574 14.9809 41.6574H31.9002C33.5213 41.6572 35.1426 41.366 36.6779 40.7844V49.7108C36.6779 50.1316 36.3355 50.474 35.9145 50.474H2.29003C1.86916 50.474 1.52669 50.1317 1.52669 49.7108V11.7579C1.52669 11.3364 1.18493 10.9946 0.763344 10.9946C0.341758 10.9946 0 11.3363 0 11.7579V49.7108C0.000101563 50.9729 1.02741 52 2.29003 52H35.9146C37.1773 52 38.2046 50.9729 38.2046 49.7104V40.0927C38.5452 39.9119 38.8795 39.7153 39.2067 39.5032L41.0595 41.3557C40.7389 41.6357 40.7217 42.1691 41.0299 42.4646L45.8456 47.2797C47.189 48.6797 49.6066 48.6796 50.9498 47.2797C52.3502 45.9364 52.3501 43.5191 50.9499 42.176ZM29.5093 9.4574C29.0884 9.4574 28.7459 9.11503 28.7459 8.69416V2.60579L35.5985 9.4574H29.5093ZM40.4518 38.5895C40.7775 38.3202 41.0938 38.034 41.3985 37.7295C41.7014 37.4266 41.988 37.1104 42.2585 36.7829L43.9457 38.4697L42.1389 40.2762L40.4518 38.5895ZM49.8704 46.2003C49.0953 47.0082 47.7004 47.008 46.9251 46.2003L42.6491 41.9249L45.5946 38.9799L49.8705 43.2553C50.6784 44.0305 50.6785 45.4251 49.8704 46.2003Z" fill="white"/>
<path d="M6.92612 20.8001H10.2655C11.207 20.8001 11.973 20.0343 11.973 19.093V15.754C11.973 14.8127 11.2071 14.0469 10.2655 14.0469H6.92612C5.98473 14.0469 5.21875 14.8127 5.21875 15.754V19.093C5.21875 20.0343 5.98473 20.8001 6.92612 20.8001ZM6.74544 15.754C6.74544 15.6544 6.82659 15.5734 6.92612 15.5734H10.2655C10.3652 15.5734 10.4463 15.6544 10.4463 15.754V19.093C10.4463 19.1926 10.3651 19.2737 10.2655 19.2737H6.92612C6.82648 19.2737 6.74544 19.1926 6.74544 19.093V15.754Z" fill="#E6B400"/>
<path d="M5.21875 29.7951C5.21875 30.7363 5.98463 31.5021 6.92612 31.5021H10.2655C11.207 31.5021 11.973 30.7363 11.973 29.7951V26.4561C11.973 25.5148 11.2071 24.749 10.2655 24.749H6.92612C5.98473 24.749 5.21875 25.5148 5.21875 26.4561V29.7951ZM6.74544 26.4561C6.74544 26.3565 6.82659 26.2754 6.92612 26.2754H10.2655C10.3652 26.2754 10.4463 26.3565 10.4463 26.4561V29.7951C10.4463 29.8947 10.3651 29.9757 10.2655 29.9757H6.92612C6.82648 29.9757 6.74544 29.8947 6.74544 29.7951V26.4561Z" fill="white"/>
<path d="M5.21875 40.7141C5.21875 41.6554 5.98463 42.4212 6.92612 42.4212H10.2655C11.207 42.4212 11.973 41.6554 11.973 40.7141V37.3751C11.973 36.4337 11.2071 35.668 10.2655 35.668H6.92612C5.98473 35.668 5.21875 36.4337 5.21875 37.3751V40.7141ZM6.74544 37.3751C6.74544 37.2755 6.82659 37.1945 6.92612 37.1945H10.2655C10.3652 37.1945 10.4463 37.2755 10.4463 37.3751V40.7141C10.4463 40.8137 10.3651 40.8948 10.2655 40.8948H6.92612C6.82648 40.8948 6.74544 40.8137 6.74544 40.7141V37.3751Z" fill="#E6B400"/>
</g>
<defs>
<clipPath id="clip0_1091_293117">
<rect width="52" height="52" fill="white"/>
</clipPath>
</defs>
</svg>
