<svg width="32" height="32" viewBox="0 0 32 32" fill="none" xmlns="http://www.w3.org/2000/svg">
<path d="M29.125 29.3125H2.875C1.66875 29.3125 0.6875 28.3312 0.6875 27.125V4.86621C0.6875 3.65996 1.66875 2.67871 2.875 2.67871H29.125C30.3312 2.67871 31.3125 3.65996 31.3125 4.86621V27.1256C31.3125 28.3312 30.3312 29.3125 29.125 29.3125ZM2.875 3.30371C2.01312 3.30371 1.3125 4.00434 1.3125 4.86621V27.1256C1.3125 27.9875 2.01312 28.6881 2.875 28.6881H29.125C29.9869 28.6881 30.6875 27.9875 30.6875 27.1256V4.86621C30.6875 4.00496 29.9869 3.30371 29.125 3.30371H2.875Z" fill="white"/>
<path d="M1 8.12305H31V8.74805H1V8.12305Z" fill="white"/>
<path d="M3.97891 6.84453C3.35516 6.84453 2.84766 6.33703 2.84766 5.71328C2.84766 5.08953 3.35516 4.58203 3.97891 4.58203C4.60266 4.58203 5.11016 5.08953 5.11016 5.71328C5.11016 6.33703 4.60266 6.84453 3.97891 6.84453ZM3.97891 5.20641C3.69953 5.20641 3.47266 5.43328 3.47266 5.71266C3.47266 5.99203 3.69953 6.21891 3.97891 6.21891C4.25828 6.21891 4.48516 5.99203 4.48516 5.71266C4.48516 5.43391 4.25766 5.20641 3.97891 5.20641Z" fill="white"/>
<path d="M7.58047 6.84453C6.95672 6.84453 6.44922 6.33703 6.44922 5.71328C6.44922 5.08953 6.95672 4.58203 7.58047 4.58203C8.20422 4.58203 8.71172 5.08953 8.71172 5.71328C8.71172 6.33703 8.20422 6.84453 7.58047 6.84453ZM7.58047 5.20641C7.30109 5.20641 7.07422 5.43328 7.07422 5.71266C7.07422 5.99203 7.30109 6.21891 7.58047 6.21891C7.85984 6.21891 8.08672 5.99203 8.08672 5.71266C8.08672 5.43391 7.85922 5.20641 7.58047 5.20641Z" fill="white"/>
<path d="M11.182 6.84453C10.5583 6.84453 10.0508 6.33703 10.0508 5.71328C10.0508 5.08953 10.5583 4.58203 11.182 4.58203C11.8058 4.58203 12.3133 5.08953 12.3133 5.71328C12.3133 6.33703 11.8058 6.84453 11.182 6.84453ZM11.182 5.20641C10.9027 5.20641 10.6758 5.43328 10.6758 5.71266C10.6758 5.99203 10.9027 6.21891 11.182 6.21891C11.4614 6.21891 11.6883 5.99203 11.6883 5.71266C11.6883 5.43391 11.4608 5.20641 11.182 5.20641Z" fill="white"/>
<path d="M28.0211 6.84453H20.8148C20.1911 6.84453 19.6836 6.33703 19.6836 5.71328C19.6836 5.08953 20.1911 4.58203 20.8148 4.58203H28.0211C28.6448 4.58203 29.1523 5.08953 29.1523 5.71328C29.1523 6.33703 28.6448 6.84453 28.0211 6.84453ZM20.8148 5.20641C20.5355 5.20641 20.3086 5.43328 20.3086 5.71266C20.3086 5.99203 20.5355 6.21891 20.8148 6.21891H28.0211C28.3005 6.21891 28.5273 5.99203 28.5273 5.71266C28.5273 5.43328 28.3005 5.20641 28.0211 5.20641H20.8148Z" fill="#E6B400"/>
<path d="M16.0011 26.7804C15.7204 26.7804 15.4404 26.766 15.1623 26.7372C14.6073 26.6797 14.1836 26.2516 14.1323 25.696L14.0279 24.576C14.0123 24.4072 13.9098 24.2679 13.7536 24.2041C13.5979 24.1404 13.4273 24.1672 13.2973 24.2766L12.4379 25.0016C12.0117 25.361 11.4092 25.3691 10.9736 25.0216C10.5198 24.6591 10.1036 24.2466 9.73731 23.7954C9.38544 23.3622 9.38919 22.7597 9.74544 22.3304L10.4636 21.4647C10.5717 21.3341 10.5979 21.1635 10.5323 21.0079C10.4673 20.8522 10.3273 20.751 10.1586 20.7366L9.03732 20.6416C8.48107 20.5941 8.04919 20.1741 7.98732 19.6191C7.92294 19.0416 7.92107 18.456 7.98107 17.8791C8.03857 17.3241 8.46669 16.9004 9.02232 16.8491L10.1423 16.7447C10.3111 16.7291 10.4504 16.6266 10.5142 16.4704C10.5779 16.3141 10.5511 16.1441 10.4417 16.0141L9.71669 15.1547C9.35732 14.7285 9.34857 14.126 9.69669 13.6904C10.0592 13.236 10.4717 12.8204 10.9229 12.4541C11.3561 12.1022 11.9586 12.106 12.3879 12.4622L13.2536 13.1804C13.3842 13.2885 13.5548 13.3141 13.7104 13.2491C13.8661 13.1841 13.9673 13.0441 13.9817 12.8754L14.0767 11.7541C14.1242 11.1979 14.5442 10.766 15.0992 10.7041C15.6767 10.6397 16.2623 10.6379 16.8392 10.6979C17.3942 10.7554 17.8179 11.1835 17.8692 11.7391L17.9736 12.8591C17.9892 13.0279 18.0917 13.1672 18.2479 13.231C18.4042 13.2947 18.5748 13.2679 18.7042 13.1585L19.5636 12.4335C19.9898 12.0741 20.5923 12.066 21.0279 12.4135C21.4817 12.776 21.8979 13.1885 22.2642 13.6397C22.6161 14.0729 22.6129 14.6754 22.2561 15.1047L21.5379 15.9697C21.4298 16.1004 21.4036 16.271 21.4692 16.4266C21.5342 16.5822 21.6742 16.6835 21.8429 16.6979L22.9642 16.7929C23.5204 16.8397 23.9523 17.2604 24.0142 17.8154C24.0786 18.3929 24.0804 18.9785 24.0204 19.5554C23.9629 20.1104 23.5348 20.5341 22.9792 20.5854L21.8592 20.6897C21.6904 20.7054 21.5511 20.8079 21.4873 20.9641C21.4236 21.1204 21.4504 21.2904 21.5598 21.4204L22.2848 22.2797C22.6442 22.706 22.6529 23.3085 22.3048 23.7441C21.9423 24.1985 21.5298 24.6141 21.0786 24.9804C20.6454 25.3322 20.0429 25.3291 19.6136 24.9722L18.7479 24.2541C18.6173 24.146 18.4467 24.1204 18.2911 24.1854C18.1354 24.2504 18.0342 24.3904 18.0198 24.5591L17.9248 25.6804C17.8773 26.2366 17.4573 26.6685 16.9023 26.7304C16.6036 26.7635 16.3023 26.7804 16.0011 26.7804ZM13.5848 23.5454C13.7217 23.5454 13.8592 23.5716 13.9904 23.6254C14.3604 23.7766 14.6129 24.1185 14.6504 24.5179L14.7548 25.6379C14.7786 25.8929 14.9729 26.0891 15.2273 26.1154C15.7598 26.171 16.3004 26.1685 16.8336 26.1091C17.0879 26.081 17.2811 25.8829 17.3023 25.6279L17.3973 24.5066C17.4311 24.1072 17.6811 23.7635 18.0498 23.6091C18.4186 23.4547 18.8392 23.5179 19.1473 23.7735L20.0129 24.4916C20.2098 24.6554 20.4861 24.6566 20.6848 24.4954C21.1011 24.1572 21.4817 23.7735 21.8167 23.3547C21.9761 23.1547 21.9723 22.8785 21.8073 22.6829L21.0823 21.8235C20.8242 21.5172 20.7573 21.0972 20.9092 20.7272C21.0604 20.3572 21.4023 20.1047 21.8017 20.0672L22.9217 19.9629C23.1767 19.9391 23.3729 19.7447 23.3992 19.4904C23.4548 18.9572 23.4523 18.4172 23.3929 17.8841C23.3648 17.6297 23.1667 17.4366 22.9117 17.4154L21.7904 17.3204C21.3911 17.2866 21.0473 17.0366 20.8929 16.6679C20.7386 16.2991 20.8017 15.8791 21.0573 15.5704L21.7754 14.7047C21.9392 14.5079 21.9404 14.2316 21.7792 14.0329C21.4411 13.6166 21.0573 13.236 20.6386 12.9016C20.4386 12.7422 20.1623 12.746 19.9667 12.9104L19.1073 13.6354C18.8011 13.8935 18.3811 13.9604 18.0111 13.8085C17.6411 13.6572 17.3886 13.3154 17.3517 12.916L17.2473 11.796C17.2236 11.541 17.0292 11.3447 16.7748 11.3185C16.2417 11.2629 15.7017 11.2654 15.1686 11.3247C14.9142 11.3529 14.7211 11.551 14.6998 11.806L14.6048 12.9272C14.5711 13.3266 14.3211 13.6704 13.9523 13.8247C13.5836 13.9791 13.1629 13.916 12.8548 13.6604L11.9892 12.9422C11.7923 12.7785 11.5161 12.7772 11.3173 12.9385C10.9011 13.2766 10.5204 13.6604 10.1861 14.0791C10.0267 14.2791 10.0304 14.5554 10.1954 14.751L10.9204 15.6104C11.1786 15.9166 11.2454 16.3366 11.0936 16.7066C10.9423 17.0766 10.6004 17.3291 10.2011 17.366L9.08106 17.4704C8.82606 17.4941 8.62981 17.6885 8.60356 17.9429C8.54794 18.4754 8.55044 19.016 8.60982 19.5491C8.63794 19.8035 8.83607 19.9966 9.09107 20.0179L10.2123 20.1129C10.6117 20.1466 10.9554 20.3966 11.1098 20.7654C11.2642 21.1341 11.2011 21.5547 10.9454 21.8629L10.2273 22.7285C10.0642 22.9254 10.0623 23.2016 10.2236 23.4004C10.5617 23.8166 10.9454 24.1972 11.3642 24.5316C11.5642 24.691 11.8404 24.6872 12.0361 24.5222L12.8954 23.7972C13.0917 23.6316 13.3367 23.5454 13.5848 23.5454Z" fill="white"/>
<path d="M18.0236 20.8306C17.9436 20.8306 17.8636 20.8 17.8023 20.7394C17.6805 20.6175 17.6805 20.4194 17.8023 20.2975L19.3817 18.7181L17.8023 17.1388C17.6805 17.0169 17.6805 16.8187 17.8023 16.6969C17.9242 16.575 18.1223 16.575 18.2442 16.6969L20.0442 18.4969C20.103 18.5556 20.1355 18.635 20.1355 18.7181C20.1355 18.8012 20.1023 18.8806 20.0442 18.9394L18.2442 20.7394C18.1836 20.8 18.1036 20.8306 18.0236 20.8306Z" fill="#E6B400"/>
<path d="M13.9759 20.83C13.8959 20.83 13.8159 20.7994 13.7547 20.7387L11.9547 18.9387C11.8328 18.8169 11.8328 18.6187 11.9547 18.4969L13.7547 16.6969C13.8766 16.575 14.0747 16.575 14.1966 16.6969C14.3184 16.8187 14.3184 17.0169 14.1966 17.1387L12.6172 18.7181L14.1966 20.2975C14.3184 20.4194 14.3184 20.6175 14.1966 20.7394C14.1359 20.7994 14.0559 20.83 13.9759 20.83Z" fill="#E6B400"/>
<path d="M15.2076 21.9905C15.1808 21.9905 15.1539 21.9873 15.1264 21.9798C14.9595 21.9355 14.8608 21.7636 14.9051 21.5973L16.4901 15.6811C16.5345 15.5142 16.7064 15.4155 16.8726 15.4598C17.0395 15.5042 17.1383 15.6761 17.0939 15.8423L15.5089 21.7586C15.472 21.898 15.3458 21.9905 15.2076 21.9905Z" fill="#E6B400"/>
</svg>
